<svg id="Layer_1" data-name="Layer 1" xmlns="http://www.w3.org/2000/svg" viewBox="0 0 403 602.59"><defs><style>.cls-1{fill:#fff;}.cls-10,.cls-11,.cls-12,.cls-2,.cls-9{fill:none;}.cls-2{stroke:#d9d9d9;stroke-linejoin:round;stroke-dasharray:1 3 1 0;}.cls-2,.cls-9{stroke-linecap:round;stroke-width:0.5px;}.cls-3{opacity:0;}.cls-4{isolation:isolate;}.cls-5{fill:#666;}.cls-6{fill:#eb4b98;}.cls-7{fill:#24a3bb;}.cls-8{fill:#043565;}.cls-9{stroke:#4d4d4d;}.cls-10,.cls-11,.cls-12,.cls-9{stroke-miterlimit:10;}.cls-10{stroke:#043565;}.cls-11{stroke:#eb4b98;}.cls-12{stroke:#24a3bb;}</style></defs><rect class="cls-1" width="403" height="602.59"/><line class="cls-2" x1="49.86" y1="248.67" x2="376.26" y2="248.67"/><line class="cls-2" x1="49.86" y1="205.83" x2="376.26" y2="205.83"/><line class="cls-2" x1="49.86" y1="162.99" x2="376.26" y2="162.99"/><line class="cls-2" x1="49.86" y1="120.16" x2="376.26" y2="120.16"/><g class="cls-3"><line class="cls-2" x1="49.86" y1="270.08" x2="376.26" y2="270.08"/><line class="cls-2" x1="49.86" y1="227.25" x2="376.26" y2="227.25"/><line class="cls-2" x1="49.86" y1="184.41" x2="376.26" y2="184.41"/><line class="cls-2" x1="49.86" y1="141.58" x2="376.26" y2="141.58"/><line class="cls-2" x1="49.86" y1="98.74" x2="376.26" y2="98.74"/></g><line class="cls-2" x1="49.86" y1="77.32" x2="376.26" y2="77.32"/><line class="cls-2" x1="49.86" y1="291.5" x2="376.26" y2="291.5"/><path d="M10.17,2.59,6.89,13.65H4.38L1,2.59H3.27l2.4,9.19L8,2.59Z"/><path d="M15.3,13.68a5.23,5.23,0,0,1-1.55,2.44,5,5,0,0,1-2.85,1l-.2-1.49A5.44,5.44,0,0,0,12,15.29a2.14,2.14,0,0,0,.81-.62,4.16,4.16,0,0,0,.56-1h-.7L10,5.18h2.17L14,12.29l1.92-7.11h2.12Z"/><path d="M24.86,6l-.8,1.2a4,4,0,0,0-2.13-.69A1.63,1.63,0,0,0,21,6.7a.71.71,0,0,0-.33.61.83.83,0,0,0,.14.48,1.31,1.31,0,0,0,.52.36,9.09,9.09,0,0,0,1.11.38,4.85,4.85,0,0,1,2,1,2.17,2.17,0,0,1,.67,1.7,2.28,2.28,0,0,1-1,2,4.37,4.37,0,0,1-2.54.71,5.49,5.49,0,0,1-1.9-.32,4.84,4.84,0,0,1-1.48-.88l1-1.15a3.78,3.78,0,0,0,2.3.83,2,2,0,0,0,1.1-.27.89.89,0,0,0,.41-.76,1,1,0,0,0-.16-.58,1.25,1.25,0,0,0-.54-.38A9.86,9.86,0,0,0,21.1,10a4.17,4.17,0,0,1-1.91-1,2.19,2.19,0,0,1-.61-1.57A2.14,2.14,0,0,1,19,6.14a2.81,2.81,0,0,1,1.15-.88,4.38,4.38,0,0,1,1.71-.32A4.79,4.79,0,0,1,24.86,6Z"/><path d="M33.17,6.14a4.76,4.76,0,0,1,1,3.27,5.44,5.44,0,0,1-.48,2.34,3.67,3.67,0,0,1-1.38,1.58,4,4,0,0,1-2.13.56A3.73,3.73,0,0,1,27.3,12.7a4.83,4.83,0,0,1-1.05-3.29,5.37,5.37,0,0,1,.48-2.34A3.7,3.7,0,0,1,28.11,5.5a4,4,0,0,1,2.14-.56A3.67,3.67,0,0,1,33.17,6.14ZM28.41,9.41a4.22,4.22,0,0,0,.45,2.21,1.66,1.66,0,0,0,2.74,0,4.26,4.26,0,0,0,.46-2.21,4.19,4.19,0,0,0-.46-2.2,1.48,1.48,0,0,0-1.35-.71C29,6.5,28.41,7.47,28.41,9.41Z"/><path d="M38.18,1.57V13.65h-2V1.79Zm5.08,3.61L40.44,8.91l3.09,4.74H41.18L38.26,9,41.1,5.18Z"/><path d="M50.88,6.14a4.76,4.76,0,0,1,1,3.27,5.44,5.44,0,0,1-.48,2.34,3.67,3.67,0,0,1-1.38,1.58,4,4,0,0,1-2.13.56A3.71,3.71,0,0,1,45,12.7,4.79,4.79,0,0,1,44,9.41a5.37,5.37,0,0,1,.48-2.34A3.7,3.7,0,0,1,45.82,5.5,4,4,0,0,1,48,4.94,3.67,3.67,0,0,1,50.88,6.14ZM46.12,9.41a4.11,4.11,0,0,0,.46,2.21,1.65,1.65,0,0,0,2.73,0,4.16,4.16,0,0,0,.46-2.21,4.1,4.1,0,0,0-.46-2.2A1.48,1.48,0,0,0,48,6.5C46.73,6.5,46.12,7.47,46.12,9.41Z"/><path d="M59.53,6l-.8,1.2a4,4,0,0,0-2.13-.69,1.57,1.57,0,0,0-.94.24.7.7,0,0,0-.34.61.83.83,0,0,0,.14.48,1.31,1.31,0,0,0,.52.36,8.77,8.77,0,0,0,1.12.38,5,5,0,0,1,2,1,2.2,2.2,0,0,1,.66,1.7,2.29,2.29,0,0,1-1,2,4.43,4.43,0,0,1-2.55.71,5.43,5.43,0,0,1-1.89-.32,4.73,4.73,0,0,1-1.48-.88l1-1.15a3.8,3.8,0,0,0,2.3.83,2,2,0,0,0,1.1-.27.89.89,0,0,0,.41-.76,1,1,0,0,0-.15-.58,1.36,1.36,0,0,0-.55-.38A9.86,9.86,0,0,0,55.77,10a4.17,4.17,0,0,1-1.91-1,2.18,2.18,0,0,1-.6-1.57,2.13,2.13,0,0,1,.4-1.27,2.84,2.84,0,0,1,1.16-.88,4.3,4.3,0,0,1,1.7-.32A4.79,4.79,0,0,1,59.53,6ZM58.65.85l.78.89-2.22,2H55.93l-2.23-2,.79-.89,2.08,1.41Z"/><path d="M63.51,1.57V13.65h-2V1.79Zm5.07,3.61L65.77,8.91l3.09,4.74H66.5L63.59,9l2.83-3.84Z"/><path d="M76.21,6.14a4.76,4.76,0,0,1,1.05,3.27,5.44,5.44,0,0,1-.48,2.34,3.67,3.67,0,0,1-1.38,1.58,4,4,0,0,1-2.13.56,3.73,3.73,0,0,1-2.93-1.19,4.83,4.83,0,0,1-1-3.29,5.37,5.37,0,0,1,.48-2.34A3.7,3.7,0,0,1,71.15,5.5a4,4,0,0,1,2.14-.56A3.67,3.67,0,0,1,76.21,6.14ZM71.45,9.41a4.22,4.22,0,0,0,.45,2.21,1.66,1.66,0,0,0,2.74,0,4.26,4.26,0,0,0,.46-2.21,4.19,4.19,0,0,0-.46-2.2,1.48,1.48,0,0,0-1.35-.71C72.06,6.5,71.45,7.47,71.45,9.41Z"/><path d="M79.65,13.32a2.22,2.22,0,0,1-.55-1.61V1.79l2-.22V11.65c0,.39.16.59.48.59a1.61,1.61,0,0,0,.48-.08l.44,1.44a3.32,3.32,0,0,1-1.36.29A2,2,0,0,1,79.65,13.32Z"/><path d="M90.22,12.14a1.1,1.1,0,0,0,.49.36l-.43,1.36a2.65,2.65,0,0,1-1.18-.36,1.78,1.78,0,0,1-.69-.88,2.75,2.75,0,0,1-1.08,1,3.42,3.42,0,0,1-1.45.31,2.74,2.74,0,0,1-2-.72,2.53,2.53,0,0,1-.74-1.89,2.44,2.44,0,0,1,1-2.1A4.78,4.78,0,0,1,87,8.45h1.06V8a1.47,1.47,0,0,0-.38-1.15,1.81,1.81,0,0,0-1.21-.32,7.08,7.08,0,0,0-2.24.44l-.48-1.39a8.68,8.68,0,0,1,3.07-.61q3.25,0,3.25,2.92v3.55A1.4,1.4,0,0,0,90.22,12.14ZM88.06.53l.83,1.6L85.27,3.57l-.57-1Zm0,10.83V9.65h-.85c-1.32,0-2,.49-2,1.47a1.36,1.36,0,0,0,.31.94,1.12,1.12,0,0,0,.89.34A1.83,1.83,0,0,0,88.06,11.36Z"/><path d="M94.6,1.57V13.65h-2V1.79Zm5.07,3.61L96.86,8.91l3.08,4.74H97.59L94.68,9l2.83-3.84Z"/><path d="M107.74,13.65H106l-.11-1.19a3.23,3.23,0,0,1-1.1,1.08,3.07,3.07,0,0,1-1.49.35,2.21,2.21,0,0,1-1.76-.7,2.79,2.79,0,0,1-.61-1.93V5.18h2V11a1.66,1.66,0,0,0,.24,1,1,1,0,0,0,.8.31,2.06,2.06,0,0,0,1.71-1.2v-6h2Zm-2-13.1a1.83,1.83,0,0,1,.56,1.37,1.86,1.86,0,0,1-.56,1.36,2.22,2.22,0,0,1-3,0,1.84,1.84,0,0,1-.57-1.36,1.84,1.84,0,0,1,.57-1.37A2,2,0,0,1,104.31,0,2,2,0,0,1,105.78.55Zm-2,.75a.85.85,0,0,0-.21.62.86.86,0,0,0,.21.62.75.75,0,0,0,.57.21.75.75,0,0,0,.56-.21.86.86,0,0,0,.21-.62.85.85,0,0,0-.21-.62.72.72,0,0,0-.56-.23A.73.73,0,0,0,103.74,1.3Z"/><path d="M120.81,5.64a2.78,2.78,0,0,1,.61,1.88v6.13h-2V7.84c0-.91-.31-1.36-.93-1.36a1.26,1.26,0,0,0-.86.31,4,4,0,0,0-.74,1v5.89h-2V7.84c0-.91-.31-1.36-.93-1.36a1.27,1.27,0,0,0-.87.31,3.75,3.75,0,0,0-.74,1v5.89h-2V5.18H112l.16,1.11a2.89,2.89,0,0,1,2.44-1.35,2.2,2.2,0,0,1,1.28.38,2.13,2.13,0,0,1,.77,1,4,4,0,0,1,1.13-1.06,2.76,2.76,0,0,1,1.42-.37A2.08,2.08,0,0,1,120.81,5.64Z"/><path d="M134.92,1.79V13.65h-1.81L133,12.58a3.12,3.12,0,0,1-1,1,2.82,2.82,0,0,1-1.4.35,2.72,2.72,0,0,1-2.38-1.2,5.62,5.62,0,0,1-.83-3.27,6,6,0,0,1,.41-2.31,3.68,3.68,0,0,1,1.19-1.59,3,3,0,0,1,1.8-.58,2.93,2.93,0,0,1,2.13.92V1.57Zm-2.83,10.28a2.69,2.69,0,0,0,.78-.82V7.38a2.88,2.88,0,0,0-.74-.68,1.66,1.66,0,0,0-.87-.22,1.45,1.45,0,0,0-1.29.73,4,4,0,0,0-.47,2.2,4.54,4.54,0,0,0,.41,2.25,1.35,1.35,0,0,0,1.22.68A1.74,1.74,0,0,0,132.09,12.07Z"/><path d="M143.76,6.14a4.76,4.76,0,0,1,1.05,3.27,5.44,5.44,0,0,1-.48,2.34A3.67,3.67,0,0,1,143,13.33a4,4,0,0,1-2.13.56,3.71,3.71,0,0,1-2.92-1.19,4.79,4.79,0,0,1-1.06-3.29,5.37,5.37,0,0,1,.48-2.34A3.7,3.7,0,0,1,138.7,5.5a4,4,0,0,1,2.14-.56A3.67,3.67,0,0,1,143.76,6.14ZM139,9.41a4.11,4.11,0,0,0,.46,2.21,1.65,1.65,0,0,0,2.73,0,4.16,4.16,0,0,0,.46-2.21,4.1,4.1,0,0,0-.46-2.2,1.48,1.48,0,0,0-1.35-.71C139.61,6.5,139,7.47,139,9.41Z"/><path d="M153.42,6.12a5.65,5.65,0,0,1,.83,3.29,6.29,6.29,0,0,1-.41,2.33,3.65,3.65,0,0,1-1.16,1.58,2.85,2.85,0,0,1-1.78.57,2.74,2.74,0,0,1-1.25-.29,2.86,2.86,0,0,1-1-.82l-.12.87h-1.81V1.79l2.05-.22V6.14a2.75,2.75,0,0,1,1-.88,2.8,2.8,0,0,1,1.32-.32A2.7,2.7,0,0,1,153.42,6.12Zm-1.78,5.52a4.17,4.17,0,0,0,.46-2.23,4.38,4.38,0,0,0-.43-2.27,1.37,1.37,0,0,0-1.21-.66,2,2,0,0,0-1.68,1.15v3.75a2,2,0,0,0,.68.72,1.61,1.61,0,0,0,.88.25A1.47,1.47,0,0,0,151.64,11.64Z"/><path d="M161.29,5.07l-.35,2a2.89,2.89,0,0,0-.76-.1A1.43,1.43,0,0,0,159,7.5a4,4,0,0,0-.69,1.64v4.51h-2.05V5.18H158l.19,1.67a3,3,0,0,1,.88-1.4A2,2,0,0,1,160.44,5,3.24,3.24,0,0,1,161.29,5.07Z"/><path d="M169,10.05h-5.31a2.73,2.73,0,0,0,.64,1.76,2,2,0,0,0,1.44.53,3.11,3.11,0,0,0,1.06-.19,4.58,4.58,0,0,0,1.05-.57l.85,1.17a4.85,4.85,0,0,1-3.13,1.14,3.78,3.78,0,0,1-3-1.19,4.69,4.69,0,0,1-1.05-3.23A5.8,5.8,0,0,1,162,7.14a3.71,3.71,0,0,1,1.3-1.61,3.43,3.43,0,0,1,2-.59,3.47,3.47,0,0,1,2.76,1.13,4.66,4.66,0,0,1,1,3.15C169,9.32,169,9.6,169,10.05ZM166.57.53l.83,1.6-3.62,1.44-.57-1ZM167,8.62q0-2.22-1.65-2.22a1.38,1.38,0,0,0-1.17.55,3.3,3.3,0,0,0-.51,1.77H167Z"/><path d="M180.38,5.18V6.66l-4.1,5.39h4.18l-.21,1.6h-6.32V12.18L178,6.78h-3.76V5.18Z"/><path d="M189.05,1.79V13.65h-1.81l-.14-1.07a3.12,3.12,0,0,1-1,1,2.82,2.82,0,0,1-1.4.35,2.71,2.71,0,0,1-2.38-1.2,5.62,5.62,0,0,1-.84-3.27,6,6,0,0,1,.42-2.31,3.6,3.6,0,0,1,1.19-1.59,3,3,0,0,1,1.8-.58,2.93,2.93,0,0,1,2.13.92V1.57Zm-2.83,10.28a2.81,2.81,0,0,0,.78-.82V7.38a3.05,3.05,0,0,0-.74-.68,1.72,1.72,0,0,0-.88-.22,1.44,1.44,0,0,0-1.28.73,4,4,0,0,0-.48,2.2,4.52,4.52,0,0,0,.42,2.25,1.35,1.35,0,0,0,1.22.68A1.74,1.74,0,0,0,186.22,12.07Z"/><path d="M196.54,5.07l-.36,2a2.76,2.76,0,0,0-.75-.1,1.43,1.43,0,0,0-1.18.54,4,4,0,0,0-.69,1.64v4.51h-2.05V5.18h1.78l.19,1.67a3,3,0,0,1,.88-1.4A2,2,0,0,1,195.69,5,3.24,3.24,0,0,1,196.54,5.07Z"/><path d="M203.66,12.14a1.1,1.1,0,0,0,.49.36l-.43,1.36a2.65,2.65,0,0,1-1.18-.36,1.78,1.78,0,0,1-.69-.88,2.75,2.75,0,0,1-1.08,1,3.42,3.42,0,0,1-1.45.31,2.74,2.74,0,0,1-2-.72,2.53,2.53,0,0,1-.74-1.89,2.44,2.44,0,0,1,1-2.1,4.78,4.78,0,0,1,2.86-.73h1.06V8a1.47,1.47,0,0,0-.38-1.15,1.81,1.81,0,0,0-1.21-.32,7.08,7.08,0,0,0-2.24.44l-.48-1.39a8.68,8.68,0,0,1,3.07-.61q3.26,0,3.25,2.92v3.55A1.4,1.4,0,0,0,203.66,12.14Zm-2.16-.78V9.65h-.85c-1.33,0-2,.49-2,1.47a1.36,1.36,0,0,0,.31.94,1.12,1.12,0,0,0,.89.34A1.83,1.83,0,0,0,201.5,11.36Z"/><path d="M212.55,5.18l-2.75,8.47h-2.45l-2.8-8.47h2.22L208.58,12l1.86-6.82Z"/><path d="M216.06.53l.83,1.6-3.62,1.44-.58-1Zm-.2,4.65v8.47h-2.05V5.18Z"/><path d="M229.13,5.18l-2.75,8.47h-2.45l-2.8-8.47h2.22L225.16,12,227,5.18Z"/><path d="M234.49,13.68a5.23,5.23,0,0,1-1.55,2.44,5,5,0,0,1-2.85,1l-.21-1.49a5.67,5.67,0,0,0,1.34-.36,2.18,2.18,0,0,0,.8-.62,3.86,3.86,0,0,0,.56-1h-.7l-2.69-8.47h2.18l1.84,7.11,1.92-7.11h2.11Z"/><path d="M245.51,1.79V13.65H243.7l-.14-1.07a3.12,3.12,0,0,1-1,1,2.8,2.8,0,0,1-1.4.35,2.72,2.72,0,0,1-2.38-1.2,5.62,5.62,0,0,1-.83-3.27,6.22,6.22,0,0,1,.41-2.31,3.68,3.68,0,0,1,1.19-1.59,3,3,0,0,1,1.81-.58,2.9,2.9,0,0,1,2.12.92V1.57Zm-2.83,10.28a2.58,2.58,0,0,0,.78-.82V7.38a2.88,2.88,0,0,0-.74-.68,1.66,1.66,0,0,0-.87-.22,1.45,1.45,0,0,0-1.29.73,4,4,0,0,0-.47,2.2,4.65,4.65,0,0,0,.41,2.25,1.36,1.36,0,0,0,1.22.68A1.74,1.74,0,0,0,242.68,12.07Z"/><path d="M253,5.07l-.35,2a2.89,2.89,0,0,0-.76-.1,1.43,1.43,0,0,0-1.18.54A4,4,0,0,0,250,9.14v4.51h-2V5.18h1.77l.19,1.67a3.1,3.1,0,0,1,.88-1.4A2,2,0,0,1,252.15,5,3.24,3.24,0,0,1,253,5.07Z"/><path d="M259.62,5.18V6.66l-4.09,5.39h4.17l-.2,1.6h-6.32V12.18l4.11-5.4h-3.76V5.18Zm-1-4.33.79.89-2.23,2h-1.28l-2.22-2,.78-.89,2.08,1.41Z"/><path d="M263.54.53l.83,1.6-3.61,1.44-.58-1Zm-.19,4.65v8.47H261.3V5.18Z"/><path d="M276.94,1.79V13.65h-1.81L275,12.58a3,3,0,0,1-1,1,2.82,2.82,0,0,1-1.4.35,2.74,2.74,0,0,1-2.39-1.2,5.69,5.69,0,0,1-.83-3.27,6,6,0,0,1,.42-2.31A3.53,3.53,0,0,1,271,5.52a3,3,0,0,1,1.8-.58,2.93,2.93,0,0,1,2.13.92V1.57ZM274.1,12.07a2.71,2.71,0,0,0,.79-.82V7.38a3.08,3.08,0,0,0-.75-.68,1.66,1.66,0,0,0-.87-.22,1.47,1.47,0,0,0-1.29.73,4.14,4.14,0,0,0-.47,2.2,4.52,4.52,0,0,0,.42,2.25,1.33,1.33,0,0,0,1.21.68A1.69,1.69,0,0,0,274.1,12.07Z"/><path d="M286.3,10.05H281a2.73,2.73,0,0,0,.64,1.76,2,2,0,0,0,1.44.53,3.07,3.07,0,0,0,1.06-.19,4.84,4.84,0,0,0,1.06-.57l.84,1.17a4.85,4.85,0,0,1-3.13,1.14,3.79,3.79,0,0,1-3-1.19,4.69,4.69,0,0,1-1-3.23,5.8,5.8,0,0,1,.45-2.33,3.71,3.71,0,0,1,1.3-1.61,3.85,3.85,0,0,1,4.77.54,4.66,4.66,0,0,1,1,3.15C286.34,9.32,286.33,9.6,286.3,10.05ZM283.88.53l.83,1.6L281.1,3.57l-.58-1Zm.43,8.09q0-2.22-1.65-2.22a1.38,1.38,0,0,0-1.17.55A3.3,3.3,0,0,0,281,8.72h3.33Z"/><path d="M288.65,13.32a2.26,2.26,0,0,1-.55-1.61V1.79l2-.22V11.65c0,.39.16.59.48.59a1.61,1.61,0,0,0,.48-.08l.43,1.44a3.29,3.29,0,0,1-1.36.29A2,2,0,0,1,288.65,13.32Z"/><path d="M299.72,10.05h-5.31a2.63,2.63,0,0,0,.64,1.76,2,2,0,0,0,1.44.53,3.05,3.05,0,0,0,1.05-.19,4.63,4.63,0,0,0,1.06-.57l.85,1.17a4.88,4.88,0,0,1-3.14,1.14,3.77,3.77,0,0,1-3-1.19,4.69,4.69,0,0,1-1.05-3.23,5.8,5.8,0,0,1,.45-2.33A3.76,3.76,0,0,1,294,5.53a3.85,3.85,0,0,1,4.77.54,4.66,4.66,0,0,1,1,3.15C299.77,9.32,299.75,9.6,299.72,10.05Zm-2-1.43c0-1.48-.54-2.22-1.64-2.22a1.4,1.4,0,0,0-1.18.55,3.3,3.3,0,0,0-.5,1.77h3.32Z"/><g class="cls-4"><path d="M202.37,90.84h-1.59l-.16-3.09c-.05-.92-.08-1.71-.08-2.35,0-.35,0-.6,0-.75L199.27,90h-1.53l-1.38-5.39c0,.45,0,1,0,1.51s0,1.14,0,1.63l-.16,3.06h-1.58l.6-7.61h2.06l1.25,5.25,1.18-5.25h2.08Z"/><path d="M209.74,88.33a2.83,2.83,0,0,1-.33,1.39,2.33,2.33,0,0,1-1,1,3.34,3.34,0,0,1-1.59.35,3,3,0,0,1-2.15-.73,2.65,2.65,0,0,1-.74-2v-5.1h1.62v5a1.79,1.79,0,0,0,.31,1.15,1.16,1.16,0,0,0,1,.38,1.22,1.22,0,0,0,1-.38,1.79,1.79,0,0,0,.31-1.15v-5h1.62Z"/><path d="M216.31,83.23v1.24l-3.41,5.06h3.46l-.18,1.31H211V89.62l3.48-5.11h-3.13V83.23Zm-1.06-2.67.57.66-1.54,1.36h-1l-1.54-1.36.59-.66,1.44.91Z"/><path d="M219.56,83.23v7.61h-1.62V83.23Z"/></g><g class="cls-4"><path d="M199.4,360.12v1.24L196,366.43h3.47l-.18,1.3H194.1v-1.22l3.48-5.11h-3.13v-1.28Zm-1.05-2.67.57.66-1.54,1.36h-1l-1.54-1.36.59-.66,1.44.91Z"/><path d="M205.59,360.12l-.18,1.18h-2.75v2h2.4v1.16h-2.4v2.11h3v1.18H201v-7.61Z"/><path d="M213,367.73H211l-2.42-6c.07.53.12,1,.16,1.47s.06,1,.06,1.61v3h-1.46v-7.61h2l2.46,6.05a17.9,17.9,0,0,1-.22-2.7v-3.35H213Z"/><path d="M220.73,360.12l-2.44,4.74v2.87h-1.62v-2.86l-2.44-4.75H216l1.52,3.46,1.51-3.46Z"/></g><path d="M7.68,25.4,5,33.66H3.82L1.15,25.4H2.38l2.07,7,2.08-7Z"/><path d="M13.1,27.71a2,2,0,0,1,.48,1.42v4.53h-1.1V29.28a1.38,1.38,0,0,0-.25-.94,1,1,0,0,0-.75-.28,1.43,1.43,0,0,0-.88.29,2.85,2.85,0,0,0-.72.83v4.48H8.77V27.34h1l.1.94a2.53,2.53,0,0,1,.83-.8,2.17,2.17,0,0,1,1.1-.28A1.79,1.79,0,0,1,13.1,27.71Z"/><path d="M17.3,24.05l.5.93-2.55,1-.33-.59Zm-.39,3.29v6.32H15.8V27.34Z"/><path d="M26.78,27.72a2,2,0,0,1,.47,1.41v4.53h-1.1V29.28c0-.81-.3-1.22-.89-1.22a1.18,1.18,0,0,0-.79.27,3.63,3.63,0,0,0-.7.85v4.48h-1.1V29.28c0-.81-.3-1.22-.89-1.22a1.15,1.15,0,0,0-.8.28,3.51,3.51,0,0,0-.69.84v4.48h-1.1V27.34h.95l.09.92a2.11,2.11,0,0,1,1.83-1.06,1.58,1.58,0,0,1,1.59,1.14,3,3,0,0,1,.82-.85,1.89,1.89,0,0,1,1.07-.29A1.57,1.57,0,0,1,26.78,27.72Z"/><path d="M33.86,32.76a.8.8,0,0,0,.4.28l-.25.77a1.61,1.61,0,0,1-.79-.28,1.29,1.29,0,0,1-.45-.67,2.12,2.12,0,0,1-1.88,1,2,2,0,0,1-1.48-.53,1.84,1.84,0,0,1-.54-1.38,1.81,1.81,0,0,1,.73-1.55,3.39,3.39,0,0,1,2.06-.54h1v-.47a1.24,1.24,0,0,0-.33-1,1.45,1.45,0,0,0-1-.28,5.71,5.71,0,0,0-1.71.33l-.27-.8a6.28,6.28,0,0,1,2.18-.43,2.3,2.3,0,0,1,1.67.54,2.09,2.09,0,0,1,.55,1.56v2.89A1,1,0,0,0,33.86,32.76ZM32.63,32V30.54H31.8c-1.17,0-1.75.44-1.75,1.3a1.19,1.19,0,0,0,.27.85,1.11,1.11,0,0,0,.82.29A1.66,1.66,0,0,0,32.63,32Z"/><path d="M40.33,27.71a2,2,0,0,1,.48,1.42v4.53h-1.1V29.28a1.43,1.43,0,0,0-.25-.94,1,1,0,0,0-.75-.28,1.48,1.48,0,0,0-.89.29,3.19,3.19,0,0,0-.72.83v4.48H36V27.34h1l.09.94a2.66,2.66,0,0,1,.84-.8A2.17,2.17,0,0,1,39,27.2,1.79,1.79,0,0,1,40.33,27.71Z"/><path d="M47.78,30.88h-4a2.51,2.51,0,0,0,.53,1.54,1.56,1.56,0,0,0,1.18.49,2.84,2.84,0,0,0,.84-.13,3.65,3.65,0,0,0,.8-.42l.48.66a3.54,3.54,0,0,1-2.21.79,2.57,2.57,0,0,1-2.06-.87,3.52,3.52,0,0,1-.73-2.37,4.55,4.55,0,0,1,.31-1.75,2.7,2.7,0,0,1,.92-1.19,2.27,2.27,0,0,1,1.39-.43,2.36,2.36,0,0,1,1.94.82,3.62,3.62,0,0,1,.67,2.3A5.4,5.4,0,0,1,47.78,30.88ZM46.72,30a2.34,2.34,0,0,0-.38-1.43,1.32,1.32,0,0,0-1.11-.49c-.91,0-1.4.67-1.48,2h3Zm-.53-5.94.49.93-2.54,1-.34-.59Z"/><path d="M56.46,27.34v.84l-3.3,4.56H56.5l-.14.92H51.91v-.82l3.29-4.56h-3v-.94Z"/><path d="M62.81,24.8v8.86h-1l-.11-.87a2.32,2.32,0,0,1-.78.75,2.05,2.05,0,0,1-1.05.27,2,2,0,0,1-1.75-.89,4.05,4.05,0,0,1-.63-2.39,4.68,4.68,0,0,1,.3-1.73,2.69,2.69,0,0,1,.86-1.18A2.17,2.17,0,0,1,60,27.2a2.25,2.25,0,0,1,1.7.78V24.66ZM61,32.7a2.7,2.7,0,0,0,.69-.7V28.9a2.39,2.39,0,0,0-.66-.62,1.54,1.54,0,0,0-.8-.21,1.31,1.31,0,0,0-1.14.61,3.45,3.45,0,0,0-.4,1.83,3.5,3.5,0,0,0,.38,1.82,1.17,1.17,0,0,0,1.06.6A1.61,1.61,0,0,0,61,32.7Z"/><path d="M68.46,27.27l-.2,1.08a2.26,2.26,0,0,0-.56-.07,1.15,1.15,0,0,0-.94.43,3.24,3.24,0,0,0-.57,1.34v3.61h-1.1V27.34h1l.1,1.28a2.39,2.39,0,0,1,.69-1.06,1.52,1.52,0,0,1,1-.36A2.45,2.45,0,0,1,68.46,27.27Z"/><path d="M73.69,32.76a.8.8,0,0,0,.4.28l-.25.77a1.65,1.65,0,0,1-.8-.28,1.28,1.28,0,0,1-.44-.67,2.12,2.12,0,0,1-1.88,1,2,2,0,0,1-1.48-.53,1.84,1.84,0,0,1-.54-1.38,1.81,1.81,0,0,1,.73-1.55,3.38,3.38,0,0,1,2-.54h1v-.47a1.24,1.24,0,0,0-.33-1,1.46,1.46,0,0,0-1-.28,5.65,5.65,0,0,0-1.71.33l-.27-.8a6.28,6.28,0,0,1,2.18-.43,2.31,2.31,0,0,1,1.67.54,2.09,2.09,0,0,1,.55,1.56v2.89A1,1,0,0,0,73.69,32.76ZM72.46,32V30.54h-.83c-1.17,0-1.75.44-1.75,1.3a1.19,1.19,0,0,0,.27.85A1.11,1.11,0,0,0,71,33,1.66,1.66,0,0,0,72.46,32Z"/><path d="M80.29,27.34l-2.15,6.32H76.81l-2.18-6.32h1.2l1.65,5.34,1.65-5.34Z"/><path d="M83.05,24.05l.49.93L81,26l-.34-.59Zm-.4,3.29v6.32h-1.1V27.34Z"/><path d="M92.76,27.34l-2.15,6.32H89.28L87.1,27.34h1.2L90,32.68l1.65-5.34Z"/><path d="M101.4,25.44a3.76,3.76,0,0,1,1,.63l-.62.73a2.51,2.51,0,0,0-1.6-.61,2,2,0,0,0-1.66.79,4.1,4.1,0,0,0-.63,2.54A4.1,4.1,0,0,0,98.56,32a2,2,0,0,0,1.65.81,2.27,2.27,0,0,0,.93-.18,5,5,0,0,0,.84-.51l.56.72a3,3,0,0,1-1,.66,3.4,3.4,0,0,1-1.38.27,3.17,3.17,0,0,1-3-2,5.51,5.51,0,0,1-.44-2.33,5.34,5.34,0,0,1,.46-2.32,3.37,3.37,0,0,1,1.23-1.46,3.26,3.26,0,0,1,1.74-.49A3.74,3.74,0,0,1,101.4,25.44Zm.35-2.68.47.54-1.62,1.32h-.74L98.23,23.3l.48-.54,1.51,1Z"/><path d="M106.4,30.16h-1.28v3.5H104V25.4h2.17a4,4,0,0,1,2.35.58,2.06,2.06,0,0,1,.79,1.76,2.12,2.12,0,0,1-.44,1.4,2.72,2.72,0,0,1-1.34.82l2.23,3.7h-1.36Zm-.13-.88a2.18,2.18,0,0,0,1.36-.36,1.45,1.45,0,0,0,.45-1.18,1.26,1.26,0,0,0-.46-1.11,2.5,2.5,0,0,0-1.48-.35h-1v3Z"/><path d="M119,27.34l-2.15,6.32h-1.33l-2.18-6.32h1.2l1.65,5.34,1.65-5.34Z"/><path d="M126.81,27.27l-.2,1.08a2.18,2.18,0,0,0-.55-.07,1.17,1.17,0,0,0-1,.43,3.12,3.12,0,0,0-.56,1.34v3.61h-1.11V27.34h1l.11,1.28a2.38,2.38,0,0,1,.68-1.06,1.54,1.54,0,0,1,1-.36A2.45,2.45,0,0,1,126.81,27.27Z"/><path d="M132.16,28.08a3.7,3.7,0,0,1,.74,2.42,4.11,4.11,0,0,1-.34,1.73,2.59,2.59,0,0,1-1,1.16,2.67,2.67,0,0,1-1.51.42,2.58,2.58,0,0,1-2.08-.89,3.67,3.67,0,0,1-.74-2.41,4.29,4.29,0,0,1,.33-1.74,2.59,2.59,0,0,1,2.5-1.57A2.54,2.54,0,0,1,132.16,28.08Zm-3.71,2.43c0,1.61.54,2.41,1.63,2.41s1.63-.81,1.63-2.42-.54-2.42-1.62-2.42S128.45,28.89,128.45,30.51Z"/><path d="M138.06,27.36a3,3,0,0,1,.9.52l-.53.7a2.83,2.83,0,0,0-.65-.36,2.3,2.3,0,0,0-.71-.11,1.36,1.36,0,0,0-1.19.61,3.2,3.2,0,0,0-.43,1.81,3,3,0,0,0,.42,1.77,1.4,1.4,0,0,0,1.2.57,2.17,2.17,0,0,0,.69-.11,3.37,3.37,0,0,0,.69-.37l.51.72a3,3,0,0,1-1.93.7,2.53,2.53,0,0,1-2-.87,3.55,3.55,0,0,1-.73-2.38,4.4,4.4,0,0,1,.33-1.77,2.72,2.72,0,0,1,1-1.17A2.54,2.54,0,0,1,137,27.2,3.09,3.09,0,0,1,138.06,27.36Z"/><path d="M145,30.88h-4a2.45,2.45,0,0,0,.53,1.54,1.54,1.54,0,0,0,1.17.49,2.74,2.74,0,0,0,.84-.13,3.49,3.49,0,0,0,.81-.42l.48.66a3.56,3.56,0,0,1-2.21.79,2.55,2.55,0,0,1-2.06-.87,3.52,3.52,0,0,1-.74-2.37,4.55,4.55,0,0,1,.32-1.75,2.75,2.75,0,0,1,.91-1.19,2.3,2.3,0,0,1,1.4-.43,2.34,2.34,0,0,1,1.93.82,3.56,3.56,0,0,1,.67,2.3A5.33,5.33,0,0,1,145,30.88ZM143.9,30a2.34,2.34,0,0,0-.37-1.43,1.34,1.34,0,0,0-1.12-.49c-.9,0-1.39.67-1.47,2h3Z"/><path d="M152.8,25.8a2.24,2.24,0,0,1,.85.79,2.13,2.13,0,0,1,.3,1.12,3.17,3.17,0,0,1-.33,1.41,7,7,0,0,1-1,1.45c-.45.52-1.15,1.24-2.07,2.17h3.61l-.13.92h-4.74v-.87c1.07-1.11,1.83-1.93,2.28-2.44a7.91,7.91,0,0,0,1-1.35,2.78,2.78,0,0,0,.28-1.24,1.35,1.35,0,0,0-.35-1,1.37,1.37,0,0,0-1-.35,1.85,1.85,0,0,0-.86.2,3.24,3.24,0,0,0-.79.67l-.72-.57a3.29,3.29,0,0,1,1.09-.91,3,3,0,0,1,1.34-.3A2.7,2.7,0,0,1,152.8,25.8Z"/><path d="M160.1,26.58a5.77,5.77,0,0,1,.67,3.08,5.8,5.8,0,0,1-.67,3.08,2.42,2.42,0,0,1-4,0,5.7,5.7,0,0,1-.68-3.08,5.67,5.67,0,0,1,.68-3.08,2.44,2.44,0,0,1,4,0Zm-3.17.58a6.05,6.05,0,0,0-.38,2.5,6.12,6.12,0,0,0,.38,2.5,1.25,1.25,0,0,0,2.31,0,6.12,6.12,0,0,0,.38-2.5,6,6,0,0,0-.38-2.49,1.25,1.25,0,0,0-2.31,0Z"/><path d="M165,25.64v8h-1.1V26.81L162,28l-.48-.78L164,25.64Z"/><path d="M171.37,26.35a3.61,3.61,0,0,1,.66,2.29,6.72,6.72,0,0,1-.44,2.64,3.65,3.65,0,0,1-1.36,1.6,9.87,9.87,0,0,1-2.47,1l-.25-.83A6,6,0,0,0,170,31.86a2.86,2.86,0,0,0,.92-2.07,2,2,0,0,1-.74.69,2.18,2.18,0,0,1-2.19-.05,2.27,2.27,0,0,1-.8-.9,3.06,3.06,0,0,1-.29-1.36,2.79,2.79,0,0,1,.35-1.42,2.42,2.42,0,0,1,.93-.92,2.67,2.67,0,0,1,1.29-.31A2.3,2.3,0,0,1,171.37,26.35Zm-.46,2.54a3.67,3.67,0,0,0-.33-1.92,1.22,1.22,0,0,0-1.12-.58,1.34,1.34,0,0,0-1.09.47,2,2,0,0,0-.38,1.33,1.94,1.94,0,0,0,.36,1.27,1.21,1.21,0,0,0,1,.42A1.87,1.87,0,0,0,170.91,28.89Z"/><path d="M174.66,32.38a.81.81,0,0,1,.24.59,2,2,0,0,1-.22.85l-.8,1.84h-.79l.48-2a.81.81,0,0,1-.25-.3.86.86,0,0,1-.09-.39.84.84,0,0,1,1.43-.59Z"/><path d="M184.51,28.06a4.43,4.43,0,0,1,.56,2.44,4.08,4.08,0,0,1-.64,2.4,2.16,2.16,0,0,1-1.84.91,2.05,2.05,0,0,1-1.66-.72v3l-1.1.13V27.34h.95l.08.85a2.47,2.47,0,0,1,.84-.74,2.21,2.21,0,0,1,1-.25A2,2,0,0,1,184.51,28.06Zm-.62,2.44c0-1.62-.48-2.43-1.43-2.43a1.38,1.38,0,0,0-.85.28,2.72,2.72,0,0,0-.68.71v3.08a1.63,1.63,0,0,0,.6.57,1.67,1.67,0,0,0,.8.2C183.37,32.91,183.89,32.1,183.89,30.5Z"/><path d="M191.4,28.08a3.65,3.65,0,0,1,.74,2.42,4.27,4.27,0,0,1-.33,1.73,2.61,2.61,0,0,1-1,1.16,2.65,2.65,0,0,1-1.51.42,2.54,2.54,0,0,1-2.07-.89,3.62,3.62,0,0,1-.75-2.41,4.13,4.13,0,0,1,.34-1.74,2.64,2.64,0,0,1,1-1.16,2.68,2.68,0,0,1,1.52-.41A2.54,2.54,0,0,1,191.4,28.08Zm-3.71,2.43c0,1.61.54,2.41,1.63,2.41S191,32.11,191,30.5s-.54-2.42-1.62-2.42S187.69,28.89,187.69,30.51Z"/><path d="M198.86,24.8v8.86h-1l-.11-.87a2.32,2.32,0,0,1-.78.75,2.17,2.17,0,0,1-2.8-.62,4.05,4.05,0,0,1-.63-2.39,4.68,4.68,0,0,1,.3-1.73,2.77,2.77,0,0,1,.86-1.18,2.17,2.17,0,0,1,1.32-.42,2.28,2.28,0,0,1,1.71.78V24.66Zm-1.8,7.9a2.89,2.89,0,0,0,.7-.7V28.9a2.41,2.41,0,0,0-.67-.62,1.52,1.52,0,0,0-.8-.21,1.3,1.3,0,0,0-1.13.61,3.36,3.36,0,0,0-.4,1.83,3.51,3.51,0,0,0,.37,1.82,1.18,1.18,0,0,0,1.07.6A1.6,1.6,0,0,0,197.06,32.7Z"/><path d="M202.8,24.05l.49.93-2.54,1-.34-.59Zm-.4,3.29v6.32h-1.1V27.34Z"/><path d="M205.08,33.44a1.42,1.42,0,0,1-.35-1V24.8l1.1-.14v7.73a.66.66,0,0,0,.09.39.37.37,0,0,0,.31.12,1.07,1.07,0,0,0,.41-.08l.29.77a1.77,1.77,0,0,1-.88.22A1.27,1.27,0,0,1,205.08,33.44Z"/><path d="M215.93,28.08a3.7,3.7,0,0,1,.74,2.42,4.11,4.11,0,0,1-.34,1.73,2.53,2.53,0,0,1-1,1.16,2.67,2.67,0,0,1-1.51.42,2.58,2.58,0,0,1-2.08-.89,3.67,3.67,0,0,1-.74-2.41,4.13,4.13,0,0,1,.34-1.74,2.58,2.58,0,0,1,1-1.16,2.68,2.68,0,0,1,1.52-.41A2.54,2.54,0,0,1,215.93,28.08Zm-3.71,2.43c0,1.61.54,2.41,1.63,2.41s1.63-.81,1.63-2.42-.54-2.42-1.62-2.42S212.22,28.89,212.22,30.51Z"/><path d="M223.39,24.8v8.86h-1l-.11-.87a2.32,2.32,0,0,1-.78.75,2.17,2.17,0,0,1-2.8-.62,4.05,4.05,0,0,1-.63-2.39,4.68,4.68,0,0,1,.3-1.73,2.77,2.77,0,0,1,.86-1.18,2.17,2.17,0,0,1,1.32-.42,2.28,2.28,0,0,1,1.71.78V24.66Zm-1.8,7.9a2.89,2.89,0,0,0,.7-.7V28.9a2.41,2.41,0,0,0-.67-.62,1.54,1.54,0,0,0-.8-.21,1.29,1.29,0,0,0-1.13.61,3.36,3.36,0,0,0-.4,1.83,3.51,3.51,0,0,0,.37,1.82,1.18,1.18,0,0,0,1.07.6A1.6,1.6,0,0,0,221.59,32.7Z"/><path d="M230.35,28.06a4.43,4.43,0,0,1,.56,2.44,4.08,4.08,0,0,1-.64,2.4,2.16,2.16,0,0,1-1.84.91,2.05,2.05,0,0,1-1.66-.72v3l-1.1.13V27.34h1l.08.85a2.47,2.47,0,0,1,.84-.74,2.21,2.21,0,0,1,1-.25A2,2,0,0,1,230.35,28.06Zm-.62,2.44c0-1.62-.48-2.43-1.43-2.43a1.38,1.38,0,0,0-.85.28,2.72,2.72,0,0,0-.68.71v3.08a1.63,1.63,0,0,0,.6.57,1.67,1.67,0,0,0,.8.2C229.21,32.91,229.73,32.1,229.73,30.5Z"/><path d="M237.24,28.08A3.65,3.65,0,0,1,238,30.5a4.27,4.27,0,0,1-.33,1.73,2.61,2.61,0,0,1-1,1.16,2.65,2.65,0,0,1-1.51.42,2.54,2.54,0,0,1-2.07-.89,3.62,3.62,0,0,1-.75-2.41,4.13,4.13,0,0,1,.34-1.74,2.64,2.64,0,0,1,1-1.16,2.68,2.68,0,0,1,1.52-.41A2.54,2.54,0,0,1,237.24,28.08Zm-3.71,2.43c0,1.61.54,2.41,1.63,2.41s1.63-.81,1.63-2.42-.54-2.42-1.62-2.42S233.53,28.89,233.53,30.51Z"/><path d="M244.4,27.34l-2.15,6.32h-1.33l-2.18-6.32h1.2l1.65,5.34,1.65-5.34Z"/><path d="M250.37,30.88h-4a2.51,2.51,0,0,0,.53,1.54,1.58,1.58,0,0,0,1.18.49,2.84,2.84,0,0,0,.84-.13,3.65,3.65,0,0,0,.8-.42l.48.66a3.54,3.54,0,0,1-2.21.79,2.53,2.53,0,0,1-2-.87,3.47,3.47,0,0,1-.74-2.37,4.37,4.37,0,0,1,.32-1.75,2.68,2.68,0,0,1,.91-1.19,2.28,2.28,0,0,1,1.4-.43,2.34,2.34,0,0,1,1.93.82,3.56,3.56,0,0,1,.67,2.3C250.39,30.5,250.38,30.69,250.37,30.88Zm-1-6.64.46.54-1.62,1.36h-.73l-1.63-1.36.48-.54,1.51,1Zm0,5.75a2.41,2.41,0,0,0-.37-1.43,1.34,1.34,0,0,0-1.12-.49c-.9,0-1.4.67-1.48,2h3Z"/><path d="M257.05,24.8v8.86h-1l-.11-.87a2.32,2.32,0,0,1-.78.75,2.17,2.17,0,0,1-2.8-.62,4.05,4.05,0,0,1-.63-2.39,4.68,4.68,0,0,1,.3-1.73,2.77,2.77,0,0,1,.86-1.18,2.17,2.17,0,0,1,1.32-.42A2.28,2.28,0,0,1,256,28V24.66Zm-1.8,7.9a2.89,2.89,0,0,0,.7-.7V28.9a2.41,2.41,0,0,0-.67-.62,1.54,1.54,0,0,0-.8-.21,1.29,1.29,0,0,0-1.13.61,3.36,3.36,0,0,0-.4,1.83,3.51,3.51,0,0,0,.37,1.82,1.18,1.18,0,0,0,1.07.6A1.6,1.6,0,0,0,255.25,32.7Z"/><path d="M261,24.05l.49.93-2.55,1-.33-.59Zm-.4,3.29v6.32h-1.1V27.34Z"/><path d="M271.08,27.34l-3,6.32h-1.3l-1.28-6.32h1.19l.86,5.33,2.36-5.33Z"/><path d="M275.49,30.56a9.07,9.07,0,0,1-3,.75c0,1.05.48,1.57,1.37,1.57a2.45,2.45,0,0,0,.85-.14,3.78,3.78,0,0,0,.84-.44L276,33a3.86,3.86,0,0,1-2.27.77,2.31,2.31,0,0,1-1.78-.68,2.66,2.66,0,0,1-.63-1.89,5.6,5.6,0,0,1,.33-1.88,3.56,3.56,0,0,1,1.06-1.55,2.8,2.8,0,0,1,1.86-.61,2.15,2.15,0,0,1,1.48.46,1.49,1.49,0,0,1,.52,1.14A1.83,1.83,0,0,1,275.49,30.56Zm-.77-.6a1.17,1.17,0,0,0,.7-1.12.76.76,0,0,0-.86-.77,1.62,1.62,0,0,0-1.41.7,3.72,3.72,0,0,0-.62,1.7A7,7,0,0,0,274.72,30Z"/><path d="M278.79,32.43a.66.66,0,0,0,0,.15.34.34,0,0,0,.07.24.32.32,0,0,0,.23.08,1.27,1.27,0,0,0,.43-.09l.23.79a2.1,2.1,0,0,1-.88.21,1.16,1.16,0,0,1-.85-.3,1.18,1.18,0,0,1-.31-.89c0-.07,0-.2,0-.37l1-7.45,1.11-.14Z"/><path d="M289.3,27.62a1.7,1.7,0,0,1,.38,1.15,1.85,1.85,0,0,1,0,.39l-.63,4.5h-1.09l.62-4.41a3.57,3.57,0,0,0,0-.37.8.8,0,0,0-.18-.6.72.72,0,0,0-.5-.16,1.27,1.27,0,0,0-.9.47,6.85,6.85,0,0,0-.89,1.26l-.54,3.81h-1.09l.62-4.41a1.9,1.9,0,0,0,0-.37.8.8,0,0,0-.18-.6.73.73,0,0,0-.51-.16,1.27,1.27,0,0,0-.9.48,7.11,7.11,0,0,0-.89,1.27l-.51,3.79H281l.89-6.32h.93l-.09,1.21a4.26,4.26,0,0,1,1-1,1.88,1.88,0,0,1,1.1-.34,1.36,1.36,0,0,1,.91.33,1.49,1.49,0,0,1,.47.95,4,4,0,0,1,1-1,1.94,1.94,0,0,1,1.08-.32A1.3,1.3,0,0,1,289.3,27.62Z"/><path d="M293.19,27.34l-.88,6.32h-1.1l.89-6.32Zm-.8-1.73a.69.69,0,0,1-.19-.49.77.77,0,0,1,.24-.58.78.78,0,0,1,.58-.24.7.7,0,0,1,.52.2.64.64,0,0,1,.19.49.8.8,0,0,1-.83.81A.69.69,0,0,1,292.39,25.61Z"/><path d="M303.7,24.81l-1.24,8.85h-1v-1a2.71,2.71,0,0,1-.83.88,2,2,0,0,1-1.08.31,1.79,1.79,0,0,1-1.48-.67,2.92,2.92,0,0,1-.52-1.84,6.12,6.12,0,0,1,.3-1.86,4,4,0,0,1,1-1.6,2.28,2.28,0,0,1,1.67-.64,2,2,0,0,1,1.62.79l.46-3.3Zm-4.11,3.79a3.13,3.13,0,0,0-.64,1.29,6,6,0,0,0-.19,1.49,2,2,0,0,0,.28,1.17.91.91,0,0,0,.78.38,1.44,1.44,0,0,0,1-.36,5.24,5.24,0,0,0,.89-1.1l.37-2.63a1.86,1.86,0,0,0-.57-.58,1.52,1.52,0,0,0-1.89.34Z"/><path d="M305.28,33.11a2.74,2.74,0,0,1-.63-1.92,5.28,5.28,0,0,1,.33-1.8A3.74,3.74,0,0,1,306,27.83a2.8,2.8,0,0,1,1.89-.63,2.31,2.31,0,0,1,1.79.69,2.82,2.82,0,0,1,.62,1.92,5.56,5.56,0,0,1-.32,1.8A3.72,3.72,0,0,1,309,33.17a2.78,2.78,0,0,1-1.88.64A2.29,2.29,0,0,1,305.28,33.11Zm3.06-.71a3,3,0,0,0,.66-1.26,6.14,6.14,0,0,0,.19-1.45c0-1.07-.43-1.61-1.3-1.61a1.56,1.56,0,0,0-1.22.53,2.94,2.94,0,0,0-.67,1.26,5.61,5.61,0,0,0-.2,1.44c0,1.07.44,1.61,1.31,1.61A1.57,1.57,0,0,0,308.34,32.4Z"/><path d="M316.78,27.85a2.87,2.87,0,0,1,.52,1.83,5.36,5.36,0,0,1-.35,1.93,3.65,3.65,0,0,1-1.11,1.57,2.92,2.92,0,0,1-1.92.63,5.1,5.1,0,0,1-1-.1,9.45,9.45,0,0,1-1.19-.32l1.21-8.59,1.1-.14-.46,3.3a3.47,3.47,0,0,1,.88-.57,2.34,2.34,0,0,1,.95-.19A1.67,1.67,0,0,1,316.78,27.85Zm-2.58.46a4.24,4.24,0,0,0-.8.67l-.52,3.76a3.75,3.75,0,0,0,.54.15,3.3,3.3,0,0,0,.58,0,1.62,1.62,0,0,0,1.22-.51,3.07,3.07,0,0,0,.71-1.28,5.42,5.42,0,0,0,.23-1.54c0-1-.37-1.53-1.1-1.53A1.59,1.59,0,0,0,314.2,28.31Z"/><path d="M322.82,27.28l-.32,1.07a2.12,2.12,0,0,0-.52-.06,1.34,1.34,0,0,0-1,.51,4.64,4.64,0,0,0-.78,1.52l-.48,3.34H318.6l.88-6.32h.94l-.07,1.3a2.85,2.85,0,0,1,.82-1.08,1.65,1.65,0,0,1,1-.36A2.42,2.42,0,0,1,322.82,27.28Z"/><path d="M326.92,30.56a9.07,9.07,0,0,1-3,.75c0,1.05.48,1.57,1.37,1.57a2.45,2.45,0,0,0,.85-.14,3.78,3.78,0,0,0,.84-.44l.47.74a3.84,3.84,0,0,1-2.27.77,2.31,2.31,0,0,1-1.78-.68,2.66,2.66,0,0,1-.63-1.89,5.6,5.6,0,0,1,.33-1.88,3.56,3.56,0,0,1,1.06-1.55A2.8,2.8,0,0,1,326,27.2a2.15,2.15,0,0,1,1.48.46A1.49,1.49,0,0,1,328,28.8,1.83,1.83,0,0,1,326.92,30.56Zm-.77-.6a1.17,1.17,0,0,0,.7-1.12.76.76,0,0,0-.86-.77,1.62,1.62,0,0,0-1.41.7,3.83,3.83,0,0,0-.62,1.7A7,7,0,0,0,326.15,30Zm1.16-5.91.36.93L325,26l-.25-.59Z"/><path d="M337,27.71a2,2,0,0,1,.49,1.42v4.53h-1.1V29.28a1.37,1.37,0,0,0-.26-.94.92.92,0,0,0-.74-.28,1.46,1.46,0,0,0-.89.29,3.19,3.19,0,0,0-.72.83v4.48h-1.1V27.34h1l.09.94a2.56,2.56,0,0,1,.84-.8,2.13,2.13,0,0,1,1.09-.28A1.76,1.76,0,0,1,337,27.71Z"/><path d="M344.43,30.88h-4a2.45,2.45,0,0,0,.53,1.54,1.54,1.54,0,0,0,1.17.49,2.74,2.74,0,0,0,.84-.13,3.49,3.49,0,0,0,.81-.42l.48.66a3.54,3.54,0,0,1-2.21.79,2.55,2.55,0,0,1-2.06-.87,3.52,3.52,0,0,1-.74-2.37,4.55,4.55,0,0,1,.32-1.75,2.75,2.75,0,0,1,.91-1.19,2.6,2.6,0,0,1,3.33.39,3.56,3.56,0,0,1,.68,2.3A5.4,5.4,0,0,1,344.43,30.88ZM343.36,30a2.34,2.34,0,0,0-.37-1.43,1.33,1.33,0,0,0-1.11-.49c-.91,0-1.4.67-1.48,2h3Z"/><path d="M350.83,28.07a4.08,4.08,0,0,1,.63,2.43,4.65,4.65,0,0,1-.3,1.73,2.52,2.52,0,0,1-.86,1.16,2.17,2.17,0,0,1-1.32.42A2.1,2.1,0,0,1,347.3,33l-.11.69h-1V24.8l1.1-.14v3.47a2.14,2.14,0,0,1,1.79-.93A2,2,0,0,1,350.83,28.07Zm-1,4.27a3.23,3.23,0,0,0,.42-1.84,3.39,3.39,0,0,0-.39-1.86,1.23,1.23,0,0,0-1.09-.57,1.8,1.8,0,0,0-1.48,1v3a2,2,0,0,0,.62.62,1.39,1.39,0,0,0,.78.23A1.32,1.32,0,0,0,349.86,32.34Z"/><path d="M357.79,28.08a3.65,3.65,0,0,1,.74,2.42,4.27,4.27,0,0,1-.33,1.73,2.61,2.61,0,0,1-1,1.16,2.65,2.65,0,0,1-1.51.42,2.54,2.54,0,0,1-2.07-.89,3.62,3.62,0,0,1-.75-2.41,4.13,4.13,0,0,1,.34-1.74,2.64,2.64,0,0,1,1-1.16,2.68,2.68,0,0,1,1.52-.41A2.54,2.54,0,0,1,357.79,28.08Zm-3.71,2.43c0,1.61.54,2.41,1.63,2.41s1.63-.81,1.63-2.42-.54-2.42-1.62-2.42S354.08,28.89,354.08,30.51Z"/><path d="M369.12,24.81l-1.25,8.85h-1v-1a2.71,2.71,0,0,1-.83.88,2,2,0,0,1-1.08.31,1.79,1.79,0,0,1-1.48-.67A2.92,2.92,0,0,1,363,31.3a6.12,6.12,0,0,1,.3-1.86,4,4,0,0,1,1-1.6A2.29,2.29,0,0,1,366,27.2a2,2,0,0,1,1.62.79l.47-3.3ZM365,28.6a3.13,3.13,0,0,0-.64,1.29,6.54,6.54,0,0,0-.19,1.49,2,2,0,0,0,.28,1.17.91.91,0,0,0,.78.38,1.44,1.44,0,0,0,1-.36,5,5,0,0,0,.89-1.1l.37-2.63a2,2,0,0,0-.56-.58,1.49,1.49,0,0,0-.75-.19A1.45,1.45,0,0,0,365,28.6Z"/><path d="M370.69,33.11a2.74,2.74,0,0,1-.63-1.92,5.28,5.28,0,0,1,.33-1.8,3.68,3.68,0,0,1,1.07-1.56,2.76,2.76,0,0,1,1.88-.63,2.29,2.29,0,0,1,1.79.69,2.82,2.82,0,0,1,.62,1.92,5.56,5.56,0,0,1-.32,1.8,3.72,3.72,0,0,1-1.06,1.56,2.78,2.78,0,0,1-1.88.64A2.29,2.29,0,0,1,370.69,33.11Zm3.06-.71a3,3,0,0,0,.66-1.26,5.67,5.67,0,0,0,.19-1.45c0-1.07-.43-1.61-1.3-1.61a1.56,1.56,0,0,0-1.22.53,3.05,3.05,0,0,0-.67,1.26,5.59,5.59,0,0,0-.19,1.44c0,1.07.43,1.61,1.3,1.61A1.56,1.56,0,0,0,373.75,32.4Z"/><path d="M382.2,27.85a2.93,2.93,0,0,1,.51,1.83,5.36,5.36,0,0,1-.35,1.93,3.65,3.65,0,0,1-1.11,1.57,2.9,2.9,0,0,1-1.92.63,5,5,0,0,1-1-.1,9.12,9.12,0,0,1-1.2-.32l1.21-8.59,1.1-.14L379,28a3.42,3.42,0,0,1,.87-.57,2.34,2.34,0,0,1,.95-.19A1.71,1.71,0,0,1,382.2,27.85Zm-2.59.46a4.24,4.24,0,0,0-.8.67l-.51,3.76a3.75,3.75,0,0,0,.54.15,3.18,3.18,0,0,0,.57,0,1.61,1.61,0,0,0,1.22-.51,3.07,3.07,0,0,0,.71-1.28,5.09,5.09,0,0,0,.23-1.54c0-1-.37-1.53-1.1-1.53A1.62,1.62,0,0,0,379.61,28.31Z"/><path d="M388.23,27.28l-.32,1.07a2.06,2.06,0,0,0-.52-.06,1.31,1.31,0,0,0-1,.51,4.45,4.45,0,0,0-.79,1.52l-.48,3.34H384l.89-6.32h.93l-.07,1.3a3,3,0,0,1,.82-1.08,1.67,1.67,0,0,1,1-.36A2.37,2.37,0,0,1,388.23,27.28Z"/><path d="M392.34,30.56a9.13,9.13,0,0,1-3,.75c0,1.05.48,1.57,1.37,1.57a2.41,2.41,0,0,0,.85-.14,3.78,3.78,0,0,0,.84-.44l.47.74a3.84,3.84,0,0,1-2.27.77,2.31,2.31,0,0,1-1.78-.68,2.66,2.66,0,0,1-.63-1.89,5.6,5.6,0,0,1,.33-1.88,3.56,3.56,0,0,1,1.06-1.55,2.8,2.8,0,0,1,1.86-.61,2.13,2.13,0,0,1,1.48.46,1.5,1.5,0,0,1,.53,1.14A1.83,1.83,0,0,1,392.34,30.56Zm-.78-.6a1.17,1.17,0,0,0,.7-1.12.78.78,0,0,0-.2-.53.83.83,0,0,0-.66-.24,1.59,1.59,0,0,0-1.4.7,3.72,3.72,0,0,0-.63,1.7A7,7,0,0,0,391.56,30Zm1.16-5.91.36.93-2.64,1-.25-.59Z"/><path class="cls-5" d="M21.91,288.3a7.32,7.32,0,0,1,0,5.71,2,2,0,0,1-3.37,0,5.7,5.7,0,0,1-.57-2.86q0-3.81,2.26-3.81A1.84,1.84,0,0,1,21.91,288.3Zm-2.62.51a6.51,6.51,0,0,0-.3,2.34,6.44,6.44,0,0,0,.3,2.34,1,1,0,0,0,.94.69,1,1,0,0,0,.93-.69,6.44,6.44,0,0,0,.3-2.34,6.73,6.73,0,0,0-.29-2.34,1,1,0,0,0-.94-.7A1,1,0,0,0,19.29,288.81Z"/><path class="cls-5" d="M28.9,287.84a2.27,2.27,0,0,1,0,2.71,1.44,1.44,0,0,1-1.16.5,1.42,1.42,0,0,1-1.14-.5,1.93,1.93,0,0,1-.45-1.35,2,2,0,0,1,.44-1.36,1.58,1.58,0,0,1,2.31,0Zm-2,1.36q0,1.2.81,1.2a.67.67,0,0,0,.63-.32,1.71,1.71,0,0,0,.19-.89c0-.8-.27-1.2-.82-1.2S26.93,288.39,26.93,289.2ZM31.78,287l.65.39-4.6,7.73-.65-.38ZM33,291.75a2.32,2.32,0,0,1,0,2.72,1.47,1.47,0,0,1-1.15.5,1.51,1.51,0,0,1-1.17-.5,1.93,1.93,0,0,1-.45-1.35,2,2,0,0,1,.45-1.37,1.5,1.5,0,0,1,1.17-.49A1.48,1.48,0,0,1,33,291.75Zm-2,1.37c0,.8.28,1.2.83,1.2a.66.66,0,0,0,.62-.32,1.82,1.82,0,0,0,.18-.89c0-.8-.27-1.2-.8-1.2S31,292.31,31,293.12Z"/><path class="cls-5" d="M15.83,245a1.75,1.75,0,0,1,.69.71,2,2,0,0,1,.25,1,3.21,3.21,0,0,1-.26,1.27,6.29,6.29,0,0,1-.83,1.34c-.38.49-1,1.19-1.76,2.09h3l-.12.81h-4v-.77c.85-1,1.47-1.72,1.86-2.23a5.92,5.92,0,0,0,.82-1.3,2.85,2.85,0,0,0,.23-1.15,1.29,1.29,0,0,0-.29-.91,1,1,0,0,0-.78-.31,1.41,1.41,0,0,0-.73.18,2.69,2.69,0,0,0-.64.6l-.61-.48a2.43,2.43,0,0,1,2.05-1.11A2.22,2.22,0,0,1,15.83,245Z"/><path class="cls-5" d="M21.91,245.69a7.32,7.32,0,0,1,0,5.71,2,2,0,0,1-3.37,0,5.7,5.7,0,0,1-.57-2.86q0-3.81,2.26-3.81A1.84,1.84,0,0,1,21.91,245.69Zm-2.62.51a6.51,6.51,0,0,0-.3,2.34,6.44,6.44,0,0,0,.3,2.34,1,1,0,0,0,.94.69,1,1,0,0,0,.93-.69,6.44,6.44,0,0,0,.3-2.34,6.73,6.73,0,0,0-.29-2.34,1,1,0,0,0-.94-.7A1,1,0,0,0,19.29,246.2Z"/><path class="cls-5" d="M28.91,245.23a2.31,2.31,0,0,1,0,2.71,1.51,1.51,0,0,1-1.17.5,1.45,1.45,0,0,1-1.14-.5,1.93,1.93,0,0,1-.45-1.35,2,2,0,0,1,.44-1.36,1.47,1.47,0,0,1,1.15-.5A1.51,1.51,0,0,1,28.91,245.23Zm-2,1.36q0,1.2.81,1.2a.67.67,0,0,0,.63-.32,1.71,1.71,0,0,0,.19-.89c0-.8-.27-1.2-.82-1.2S26.93,245.79,26.93,246.59Zm4.85-2.18.65.39-4.6,7.73-.65-.38ZM33,249.14a2.32,2.32,0,0,1,0,2.72,1.47,1.47,0,0,1-1.15.5,1.51,1.51,0,0,1-1.17-.5,1.93,1.93,0,0,1-.45-1.35,2,2,0,0,1,.45-1.37,1.5,1.5,0,0,1,1.17-.49A1.48,1.48,0,0,1,33,249.14Zm-2,1.37c0,.8.28,1.2.83,1.2a.66.66,0,0,0,.62-.32,1.82,1.82,0,0,0,.18-.89c0-.8-.27-1.2-.8-1.2S31,249.7,31,250.51Z"/><path class="cls-5" d="M17.07,207v.79h-.83v1.81h-.95v-1.81H12.41v-.72l2-5,.84.32L13.42,207H15.3l.1-2h.84v2Z"/><path class="cls-5" d="M21.91,203.08a7.34,7.34,0,0,1,0,5.72,2,2,0,0,1-3.37,0,5.7,5.7,0,0,1-.57-2.86q0-3.81,2.26-3.81A1.84,1.84,0,0,1,21.91,203.08Zm-2.62.51a6.51,6.51,0,0,0-.3,2.34,6.44,6.44,0,0,0,.3,2.34,1,1,0,0,0,.94.7,1,1,0,0,0,.93-.7,6.44,6.44,0,0,0,.3-2.34,6.73,6.73,0,0,0-.29-2.34,1,1,0,0,0-.94-.7A1,1,0,0,0,19.29,203.59Z"/><path class="cls-5" d="M28.9,202.62a1.93,1.93,0,0,1,.45,1.35,2,2,0,0,1-.45,1.37,1.47,1.47,0,0,1-1.16.49,1.44,1.44,0,0,1-1.14-.49,2,2,0,0,1-.45-1.36,2,2,0,0,1,.44-1.36,1.58,1.58,0,0,1,2.31,0Zm-2,1.36q0,1.2.81,1.2a.67.67,0,0,0,.63-.32,1.71,1.71,0,0,0,.19-.89c0-.8-.27-1.2-.82-1.2S26.93,203.18,26.93,204Zm4.85-2.18.65.39-4.6,7.73-.65-.38ZM33,206.53a2.32,2.32,0,0,1,0,2.72,1.47,1.47,0,0,1-1.15.5,1.51,1.51,0,0,1-1.17-.5,1.93,1.93,0,0,1-.45-1.35,2,2,0,0,1,.45-1.37,1.5,1.5,0,0,1,1.17-.49A1.48,1.48,0,0,1,33,206.53Zm-2,1.37c0,.8.28,1.2.83,1.2a.66.66,0,0,0,.62-.32,1.82,1.82,0,0,0,.18-.89c0-.8-.27-1.2-.8-1.2S31,207.09,31,207.9Z"/><path class="cls-5" d="M16,162.42a1.78,1.78,0,0,1,.65.79,3.1,3.1,0,0,1,.24,1.29,3.41,3.41,0,0,1-.27,1.41,2.07,2.07,0,0,1-.75.91,2,2,0,0,1-1.11.32,1.86,1.86,0,0,1-1.73-.93,5,5,0,0,1-.56-2.59,6.76,6.76,0,0,1,.31-2.19,3,3,0,0,1,.91-1.42,2.07,2.07,0,0,1,1.38-.5,2.15,2.15,0,0,1,1.36.46l-.38.62a1.76,1.76,0,0,0-1-.31A1.27,1.27,0,0,0,14,161a4.71,4.71,0,0,0-.48,2.07,1.87,1.87,0,0,1,1.61-.95A1.68,1.68,0,0,1,16,162.42Zm-.39,3.47a2.61,2.61,0,0,0,.29-1.37,2.07,2.07,0,0,0-.28-1.23.88.88,0,0,0-.76-.39,1.22,1.22,0,0,0-.77.28,2.29,2.29,0,0,0-.62.76,4.31,4.31,0,0,0,.33,1.84,1,1,0,0,0,.95.59A.94.94,0,0,0,15.65,165.89Z"/><path class="cls-5" d="M21.92,160.47a7.44,7.44,0,0,1,0,5.71,1.86,1.86,0,0,1-1.69,1,1.84,1.84,0,0,1-1.69-1,5.7,5.7,0,0,1-.57-2.86q0-3.81,2.26-3.81A1.86,1.86,0,0,1,21.92,160.47Zm-2.63.51a6.51,6.51,0,0,0-.3,2.34,6.44,6.44,0,0,0,.3,2.34,1,1,0,0,0,.94.7,1,1,0,0,0,.93-.7,6.44,6.44,0,0,0,.3-2.34,6.73,6.73,0,0,0-.29-2.34,1,1,0,0,0-.94-.7A1,1,0,0,0,19.29,161Z"/><path class="cls-5" d="M28.91,160a2,2,0,0,1,.44,1.35,2,2,0,0,1-.44,1.37,1.5,1.5,0,0,1-1.16.49,1.46,1.46,0,0,1-1.15-.49,2,2,0,0,1-.45-1.36,2,2,0,0,1,.44-1.36,1.48,1.48,0,0,1,1.16-.5A1.51,1.51,0,0,1,28.91,160Zm-2,1.36c0,.8.27,1.2.82,1.2a.64.64,0,0,0,.62-.32,1.71,1.71,0,0,0,.19-.89q0-1.2-.81-1.2C27.2,160.16,26.93,160.57,26.93,161.37Zm4.85-2.18.65.39-4.6,7.73-.65-.38ZM33,163.93a2.31,2.31,0,0,1,0,2.71,1.47,1.47,0,0,1-1.15.5,1.51,1.51,0,0,1-1.17-.5,2.27,2.27,0,0,1,0-2.71,1.51,1.51,0,0,1,1.17-.5A1.48,1.48,0,0,1,33,163.93Zm-2,1.36c0,.8.28,1.2.83,1.2a.66.66,0,0,0,.62-.32,1.82,1.82,0,0,0,.18-.89c0-.8-.27-1.2-.8-1.2S31,164.48,31,165.29Z"/><path class="cls-5" d="M16.58,121.27a1.93,1.93,0,0,1,.35,1.17,2.08,2.08,0,0,1-.28,1.09,2,2,0,0,1-.82.73,2.73,2.73,0,0,1-1.24.27,2.77,2.77,0,0,1-1.22-.26,1.89,1.89,0,0,1-.8-.73,2.07,2.07,0,0,1-.28-1.08,2,2,0,0,1,1.4-2,2.26,2.26,0,0,1-.86-.72,1.76,1.76,0,0,1-.27-1,1.91,1.91,0,0,1,.28-1,1.8,1.8,0,0,1,.74-.65,2.5,2.5,0,0,1,1-.22,2.25,2.25,0,0,1,1.47.49,1.67,1.67,0,0,1,.59,1.36,1.64,1.64,0,0,1-.29,1,2.51,2.51,0,0,1-.91.74A2.67,2.67,0,0,1,16.58,121.27Zm-1,2.15a1.3,1.3,0,0,0,.35-1,1.34,1.34,0,0,0-.29-.91,2.74,2.74,0,0,0-1-.63l-.31-.12a1.83,1.83,0,0,0-.77.67,1.77,1.77,0,0,0-.25,1,1.31,1.31,0,0,0,.35,1,1.38,1.38,0,0,0,1,.33A1.34,1.34,0,0,0,15.59,123.42Zm-1.77-5.5a1.2,1.2,0,0,0-.3.89,1.08,1.08,0,0,0,.25.77,2.25,2.25,0,0,0,.84.53l.25.11a2.13,2.13,0,0,0,.66-.64,1.48,1.48,0,0,0,.19-.78,1.22,1.22,0,0,0-.28-.88,1.26,1.26,0,0,0-1.61,0Z"/><path class="cls-5" d="M21.91,117.86a7.34,7.34,0,0,1,0,5.72,2,2,0,0,1-3.37,0,5.7,5.7,0,0,1-.57-2.86q0-3.81,2.26-3.81A1.84,1.84,0,0,1,21.91,117.86Zm-2.62.51a6.51,6.51,0,0,0-.3,2.34,6.44,6.44,0,0,0,.3,2.34,1,1,0,0,0,.94.7,1,1,0,0,0,.93-.7,6.44,6.44,0,0,0,.3-2.34,6.73,6.73,0,0,0-.29-2.34,1,1,0,0,0-1.88,0Z"/><path class="cls-5" d="M28.91,117.4a2,2,0,0,1,.44,1.35,2,2,0,0,1-.44,1.37,1.5,1.5,0,0,1-1.17.49,1.44,1.44,0,0,1-1.14-.49,1.94,1.94,0,0,1-.45-1.36,2,2,0,0,1,.44-1.36,1.47,1.47,0,0,1,1.15-.5A1.51,1.51,0,0,1,28.91,117.4Zm-2,1.36q0,1.2.81,1.2a.65.65,0,0,0,.63-.32,1.71,1.71,0,0,0,.19-.89c0-.8-.27-1.2-.82-1.2S26.93,118,26.93,118.76Zm4.85-2.17.65.38-4.6,7.73-.65-.38ZM33,121.32A2.31,2.31,0,0,1,33,124a1.47,1.47,0,0,1-1.15.5,1.51,1.51,0,0,1-1.17-.5,2.27,2.27,0,0,1,0-2.71,1.51,1.51,0,0,1,1.17-.5A1.48,1.48,0,0,1,33,121.32Zm-2,1.36c0,.8.28,1.2.83,1.2a.66.66,0,0,0,.62-.32,1.82,1.82,0,0,0,.18-.89c0-.8-.27-1.2-.8-1.2S31,121.87,31,122.68Z"/><path class="cls-5" d="M10.57,74.42v7.35h-1V75.45l-1.53,1-.46-.66,2.09-1.4Z"/><path class="cls-5" d="M16.18,75.25a7.34,7.34,0,0,1,0,5.72,2,2,0,0,1-3.37,0,5.69,5.69,0,0,1-.58-2.86q0-3.81,2.27-3.81A1.84,1.84,0,0,1,16.18,75.25Zm-2.62.51a6.51,6.51,0,0,0-.3,2.34,6.44,6.44,0,0,0,.3,2.34,1,1,0,0,0,.94.7,1,1,0,0,0,.93-.7,6.44,6.44,0,0,0,.3-2.34,6.73,6.73,0,0,0-.29-2.34,1,1,0,0,0-1.88,0Z"/><path class="cls-5" d="M21.91,75.25a7.34,7.34,0,0,1,0,5.72,2,2,0,0,1-3.37,0A5.7,5.7,0,0,1,18,78.1q0-3.81,2.26-3.81A1.84,1.84,0,0,1,21.91,75.25Zm-2.62.51A6.51,6.51,0,0,0,19,78.1a6.44,6.44,0,0,0,.3,2.34,1,1,0,0,0,.94.7,1,1,0,0,0,.93-.7,6.44,6.44,0,0,0,.3-2.34,6.73,6.73,0,0,0-.29-2.34,1,1,0,0,0-1.88,0Z"/><path class="cls-5" d="M28.9,74.79a1.93,1.93,0,0,1,.45,1.35,2,2,0,0,1-.45,1.37,1.47,1.47,0,0,1-1.16.49,1.44,1.44,0,0,1-1.14-.49,1.94,1.94,0,0,1-.45-1.36,2,2,0,0,1,.44-1.36,1.58,1.58,0,0,1,2.31,0Zm-2,1.36q0,1.2.81,1.2a.65.65,0,0,0,.63-.32,1.71,1.71,0,0,0,.19-.89c0-.8-.27-1.2-.82-1.2S26.93,75.35,26.93,76.15ZM31.78,74l.65.38-4.6,7.73-.65-.38ZM33,78.71a2.31,2.31,0,0,1,0,2.71,1.47,1.47,0,0,1-1.15.5,1.51,1.51,0,0,1-1.17-.5,2.27,2.27,0,0,1,0-2.71,1.51,1.51,0,0,1,1.17-.5A1.48,1.48,0,0,1,33,78.71Zm-2,1.36c0,.8.28,1.2.83,1.2a.66.66,0,0,0,.62-.32,1.82,1.82,0,0,0,.18-.89c0-.8-.27-1.2-.8-1.2S31,79.26,31,80.07Z"/><path class="cls-5" d="M21.91,562.65a7.34,7.34,0,0,1,0,5.72,2,2,0,0,1-3.37,0A5.7,5.7,0,0,1,18,565.5q0-3.81,2.26-3.81A1.84,1.84,0,0,1,21.91,562.65Zm-2.62.51a6.51,6.51,0,0,0-.3,2.34,6.44,6.44,0,0,0,.3,2.34,1,1,0,0,0,.94.7,1,1,0,0,0,.93-.7,6.44,6.44,0,0,0,.3-2.34,6.73,6.73,0,0,0-.29-2.34,1,1,0,0,0-1.88,0Z"/><path class="cls-5" d="M28.9,562.19a1.93,1.93,0,0,1,.45,1.35,2,2,0,0,1-.45,1.37,1.47,1.47,0,0,1-1.16.49,1.44,1.44,0,0,1-1.14-.49,1.94,1.94,0,0,1-.45-1.36,2,2,0,0,1,.44-1.36,1.58,1.58,0,0,1,2.31,0Zm-2,1.36q0,1.2.81,1.2a.65.65,0,0,0,.63-.32,1.71,1.71,0,0,0,.19-.89c0-.8-.27-1.2-.82-1.2S26.93,562.75,26.93,563.55Zm4.85-2.17.65.38-4.6,7.73-.65-.38ZM33,566.11a2.31,2.31,0,0,1,0,2.71,1.47,1.47,0,0,1-1.15.5,1.51,1.51,0,0,1-1.17-.5,2.27,2.27,0,0,1,0-2.71,1.51,1.51,0,0,1,1.17-.5A1.48,1.48,0,0,1,33,566.11Zm-2,1.36c0,.8.28,1.2.83,1.2a.66.66,0,0,0,.62-.32,1.82,1.82,0,0,0,.18-.89c0-.8-.27-1.2-.8-1.2S31,566.66,31,567.47Z"/><path class="cls-5" d="M15.83,519.34a1.75,1.75,0,0,1,.69.71,2,2,0,0,1,.25,1,3.21,3.21,0,0,1-.26,1.27,6.29,6.29,0,0,1-.83,1.34c-.38.49-1,1.19-1.76,2.09h3l-.12.81h-4v-.77c.85-1,1.47-1.72,1.86-2.23a5.7,5.7,0,0,0,.82-1.3,2.85,2.85,0,0,0,.23-1.15,1.25,1.25,0,0,0-.29-.9,1,1,0,0,0-.78-.32,1.41,1.41,0,0,0-.73.18,2.69,2.69,0,0,0-.64.6l-.61-.47a2.44,2.44,0,0,1,2.05-1.12A2.22,2.22,0,0,1,15.83,519.34Z"/><path class="cls-5" d="M21.91,520a7.34,7.34,0,0,1,0,5.72,2,2,0,0,1-3.37,0,5.7,5.7,0,0,1-.57-2.86q0-3.81,2.26-3.81A1.84,1.84,0,0,1,21.91,520Zm-2.62.51a6.51,6.51,0,0,0-.3,2.34,6.44,6.44,0,0,0,.3,2.34,1,1,0,0,0,.94.7,1,1,0,0,0,.93-.7,6.44,6.44,0,0,0,.3-2.34,6.73,6.73,0,0,0-.29-2.34,1,1,0,0,0-1.88,0Z"/><path class="cls-5" d="M28.91,519.58a2,2,0,0,1,.44,1.35,2,2,0,0,1-.44,1.37,1.5,1.5,0,0,1-1.17.49,1.44,1.44,0,0,1-1.14-.49,1.94,1.94,0,0,1-.45-1.36,2,2,0,0,1,.44-1.36,1.47,1.47,0,0,1,1.15-.5A1.51,1.51,0,0,1,28.91,519.58Zm-2,1.36q0,1.2.81,1.2a.65.65,0,0,0,.63-.32,1.71,1.71,0,0,0,.19-.89c0-.8-.27-1.2-.82-1.2S26.93,520.14,26.93,520.94Zm4.85-2.17.65.38-4.6,7.73-.65-.38ZM33,523.5a2.31,2.31,0,0,1,0,2.71,1.47,1.47,0,0,1-1.15.5,1.51,1.51,0,0,1-1.17-.5,2.27,2.27,0,0,1,0-2.71,1.51,1.51,0,0,1,1.17-.5A1.48,1.48,0,0,1,33,523.5Zm-2,1.36c0,.8.28,1.2.83,1.2a.66.66,0,0,0,.62-.32,1.82,1.82,0,0,0,.18-.89c0-.8-.27-1.2-.8-1.2S31,524.05,31,524.86Z"/><path class="cls-5" d="M17.07,481.35v.79h-.83V484h-.95v-1.82H12.41v-.71l2-5,.84.32-1.8,4.57H15.3l.1-2h.84v2Z"/><path class="cls-5" d="M21.91,477.43a7.34,7.34,0,0,1,0,5.72,2,2,0,0,1-3.37,0,5.7,5.7,0,0,1-.57-2.86q0-3.81,2.26-3.81A1.84,1.84,0,0,1,21.91,477.43Zm-2.62.51a6.51,6.51,0,0,0-.3,2.34,6.44,6.44,0,0,0,.3,2.34,1,1,0,0,0,.94.7,1,1,0,0,0,.93-.7,6.44,6.44,0,0,0,.3-2.34,6.73,6.73,0,0,0-.29-2.34,1,1,0,0,0-1.88,0Z"/><path class="cls-5" d="M28.9,477a1.93,1.93,0,0,1,.45,1.35,2,2,0,0,1-.45,1.37,1.47,1.47,0,0,1-1.16.49,1.44,1.44,0,0,1-1.14-.49,1.94,1.94,0,0,1-.45-1.36,2,2,0,0,1,.44-1.36,1.58,1.58,0,0,1,2.31,0Zm-2,1.36q0,1.2.81,1.2a.65.65,0,0,0,.63-.32,1.71,1.71,0,0,0,.19-.89c0-.8-.27-1.2-.82-1.2S26.93,477.53,26.93,478.33Zm4.85-2.17.65.38-4.6,7.73-.65-.38ZM33,480.89a2.31,2.31,0,0,1,0,2.71,1.47,1.47,0,0,1-1.15.5,1.51,1.51,0,0,1-1.17-.5,2.27,2.27,0,0,1,0-2.71,1.51,1.51,0,0,1,1.17-.5A1.48,1.48,0,0,1,33,480.89Zm-2,1.36c0,.8.28,1.2.83,1.2a.66.66,0,0,0,.62-.32,1.82,1.82,0,0,0,.18-.89c0-.8-.27-1.2-.8-1.2S31,481.44,31,482.25Z"/><path class="cls-5" d="M16,436.77a1.84,1.84,0,0,1,.65.79,3.1,3.1,0,0,1,.24,1.29,3.41,3.41,0,0,1-.27,1.41,2.09,2.09,0,0,1-.75.92,2.06,2.06,0,0,1-1.11.31,1.86,1.86,0,0,1-1.73-.93,5,5,0,0,1-.56-2.59,6.8,6.8,0,0,1,.31-2.19,3,3,0,0,1,.91-1.42,2.06,2.06,0,0,1,1.38-.49,2.2,2.2,0,0,1,1.36.45l-.38.62a1.75,1.75,0,0,0-1-.3,1.28,1.28,0,0,0-1.14.74,4.71,4.71,0,0,0-.48,2.07,1.86,1.86,0,0,1,1.61-.94A1.67,1.67,0,0,1,16,436.77Zm-.39,3.47a2.61,2.61,0,0,0,.29-1.37,2.09,2.09,0,0,0-.28-1.23.88.88,0,0,0-.76-.39,1.28,1.28,0,0,0-.77.28,2.39,2.39,0,0,0-.62.76,4.36,4.36,0,0,0,.33,1.85,1,1,0,0,0,.95.58A.94.94,0,0,0,15.65,440.24Z"/><path class="cls-5" d="M21.92,434.82a7.46,7.46,0,0,1,0,5.72,1.87,1.87,0,0,1-1.69.95,1.84,1.84,0,0,1-1.69-1,5.7,5.7,0,0,1-.57-2.86c0-2.54.75-3.8,2.26-3.8A1.85,1.85,0,0,1,21.92,434.82Zm-2.63.51a6.51,6.51,0,0,0-.3,2.34,6.44,6.44,0,0,0,.3,2.34,1,1,0,0,0,.94.7,1,1,0,0,0,.93-.7,6.44,6.44,0,0,0,.3-2.34,6.73,6.73,0,0,0-.29-2.34,1,1,0,0,0-1.88,0Z"/><path class="cls-5" d="M28.91,434.36a2,2,0,0,1,.44,1.35,2,2,0,0,1-.44,1.37,1.5,1.5,0,0,1-1.16.49,1.46,1.46,0,0,1-1.15-.49,1.94,1.94,0,0,1-.45-1.36,2,2,0,0,1,.44-1.36,1.47,1.47,0,0,1,1.16-.49A1.5,1.5,0,0,1,28.91,434.36Zm-2,1.36c0,.8.27,1.2.82,1.2a.64.64,0,0,0,.62-.32,1.68,1.68,0,0,0,.19-.89q0-1.2-.81-1.2C27.2,434.51,26.93,434.92,26.93,435.72Zm4.85-2.17.65.38-4.6,7.73-.65-.38ZM33,438.28A2.31,2.31,0,0,1,33,441a1.47,1.47,0,0,1-1.15.5,1.51,1.51,0,0,1-1.17-.5,2.27,2.27,0,0,1,0-2.71,1.51,1.51,0,0,1,1.17-.5A1.48,1.48,0,0,1,33,438.28Zm-2,1.36c0,.8.28,1.2.83,1.2a.66.66,0,0,0,.62-.32,1.82,1.82,0,0,0,.18-.89c0-.8-.27-1.2-.8-1.2S31,438.83,31,439.64Z"/><path class="cls-5" d="M16.58,395.62a2,2,0,0,1,.35,1.17,2.08,2.08,0,0,1-.28,1.09,2,2,0,0,1-.82.73,2.73,2.73,0,0,1-1.24.27,2.77,2.77,0,0,1-1.22-.26,1.89,1.89,0,0,1-.8-.73,2.07,2.07,0,0,1-.28-1.08,2,2,0,0,1,1.4-2,2.26,2.26,0,0,1-.86-.72,1.73,1.73,0,0,1-.27-1,1.85,1.85,0,0,1,.28-1,1.67,1.67,0,0,1,.74-.65,2.35,2.35,0,0,1,1-.22,2.24,2.24,0,0,1,1.47.48,1.67,1.67,0,0,1,.59,1.36,1.64,1.64,0,0,1-.29,1,2.51,2.51,0,0,1-.91.74A2.76,2.76,0,0,1,16.58,395.62Zm-1,2.15a1.3,1.3,0,0,0,.35-1,1.34,1.34,0,0,0-.29-.91,2.87,2.87,0,0,0-1-.63l-.31-.12a1.83,1.83,0,0,0-.77.67,1.77,1.77,0,0,0-.25,1,1.31,1.31,0,0,0,.35,1,1.38,1.38,0,0,0,1,.33A1.34,1.34,0,0,0,15.59,397.77Zm-1.77-5.5a1.2,1.2,0,0,0-.3.89,1.08,1.08,0,0,0,.25.77,2.13,2.13,0,0,0,.84.53l.25.11a2.13,2.13,0,0,0,.66-.64,1.46,1.46,0,0,0,.19-.78,1.22,1.22,0,0,0-.28-.88,1.26,1.26,0,0,0-1.61,0Z"/><path class="cls-5" d="M21.91,392.21a7.34,7.34,0,0,1,0,5.72,2,2,0,0,1-3.37,0,5.7,5.7,0,0,1-.57-2.86c0-2.54.75-3.8,2.26-3.8A1.83,1.83,0,0,1,21.91,392.21Zm-2.62.51a6.51,6.51,0,0,0-.3,2.34,6.44,6.44,0,0,0,.3,2.34,1,1,0,0,0,.94.7,1,1,0,0,0,.93-.7,6.44,6.44,0,0,0,.3-2.34,6.73,6.73,0,0,0-.29-2.34,1,1,0,0,0-1.88,0Z"/><path class="cls-5" d="M28.91,391.75a2,2,0,0,1,.44,1.35,2,2,0,0,1-.44,1.37,1.5,1.5,0,0,1-1.17.49,1.44,1.44,0,0,1-1.14-.49,1.94,1.94,0,0,1-.45-1.36,2,2,0,0,1,.44-1.36,1.46,1.46,0,0,1,1.15-.49A1.5,1.5,0,0,1,28.91,391.75Zm-2,1.36q0,1.2.81,1.2a.65.65,0,0,0,.63-.32,1.68,1.68,0,0,0,.19-.89c0-.8-.27-1.2-.82-1.2S26.93,392.31,26.93,393.11Zm4.85-2.17.65.38-4.6,7.73-.65-.38ZM33,395.67a2.31,2.31,0,0,1,0,2.71,1.47,1.47,0,0,1-1.15.5,1.51,1.51,0,0,1-1.17-.5,2.27,2.27,0,0,1,0-2.71,1.51,1.51,0,0,1,1.17-.5A1.48,1.48,0,0,1,33,395.67ZM31,397c0,.8.28,1.2.83,1.2a.66.66,0,0,0,.62-.32,1.82,1.82,0,0,0,.18-.89c0-.8-.27-1.2-.8-1.2S31,396.22,31,397Z"/><path class="cls-5" d="M10.57,348.77v7.36h-1V349.8l-1.53,1-.46-.66,2.09-1.41Z"/><path class="cls-5" d="M16.18,349.6a7.34,7.34,0,0,1,0,5.72,2,2,0,0,1-3.37,0,5.69,5.69,0,0,1-.58-2.86c0-2.54.76-3.8,2.27-3.8A1.85,1.85,0,0,1,16.18,349.6Zm-2.62.51a9.32,9.32,0,0,0,0,4.69,1,1,0,0,0,.94.69,1,1,0,0,0,.93-.69,6.54,6.54,0,0,0,.3-2.35,6.73,6.73,0,0,0-.29-2.34,1,1,0,0,0-1.88,0Z"/><path class="cls-5" d="M21.91,349.6a7.34,7.34,0,0,1,0,5.72,2,2,0,0,1-3.37,0,5.7,5.7,0,0,1-.57-2.86c0-2.54.75-3.8,2.26-3.8A1.85,1.85,0,0,1,21.91,349.6Zm-2.62.51a9.32,9.32,0,0,0,0,4.69,1,1,0,0,0,.94.69,1,1,0,0,0,.93-.69,6.54,6.54,0,0,0,.3-2.35,6.73,6.73,0,0,0-.29-2.34,1,1,0,0,0-1.88,0Z"/><path class="cls-5" d="M28.9,349.14a1.93,1.93,0,0,1,.45,1.35,2,2,0,0,1-.45,1.37,1.47,1.47,0,0,1-1.16.49,1.44,1.44,0,0,1-1.14-.49,1.93,1.93,0,0,1-.45-1.35,2,2,0,0,1,.44-1.37,1.61,1.61,0,0,1,2.31,0Zm-2,1.37c0,.79.27,1.19.81,1.19a.66.66,0,0,0,.63-.31,1.75,1.75,0,0,0,.19-.9c0-.8-.27-1.19-.82-1.19S26.93,349.7,26.93,350.51Zm4.85-2.18.65.38-4.6,7.73-.65-.38ZM33,353.06a2.31,2.31,0,0,1,0,2.71,1.47,1.47,0,0,1-1.15.5,1.51,1.51,0,0,1-1.17-.5,2.27,2.27,0,0,1,0-2.71,1.51,1.51,0,0,1,1.17-.5A1.48,1.48,0,0,1,33,353.06Zm-2,1.36c0,.8.28,1.2.83,1.2a.66.66,0,0,0,.62-.32,1.82,1.82,0,0,0,.18-.89c0-.8-.27-1.2-.8-1.2S31,353.61,31,354.42Z"/><path class="cls-6" d="M53.38,84.42a3.52,3.52,0,1,0-3.52,3.51,3.51,3.51,0,0,0,3.52-3.51Z"/><path class="cls-6" d="M99.94,91.65a3.52,3.52,0,1,0-3.52,3.52,3.53,3.53,0,0,0,3.52-3.52Z"/><path class="cls-6" d="M146.6,148.81a3.52,3.52,0,1,0-3.51,3.52,3.51,3.51,0,0,0,3.51-3.52Z"/><path class="cls-6" d="M193.27,209.9a3.52,3.52,0,1,0-3.52,3.52,3.51,3.51,0,0,0,3.52-3.52Z"/><path class="cls-6" d="M239.94,237.77a3.52,3.52,0,1,0-3.52,3.52,3.53,3.53,0,0,0,3.52-3.52Z"/><path class="cls-6" d="M286.49,242.42a3.52,3.52,0,1,0-3.51,3.51,3.51,3.51,0,0,0,3.51-3.51Z"/><path class="cls-6" d="M333.16,273.32a3.52,3.52,0,1,0-3.51,3.52,3.52,3.52,0,0,0,3.51-3.52Z"/><path class="cls-7" d="M53.38,83.08a3.52,3.52,0,1,0-3.52,3.51,3.51,3.51,0,0,0,3.52-3.51Z"/><path class="cls-7" d="M99.94,96.38a3.52,3.52,0,1,0-3.52,3.52,3.52,3.52,0,0,0,3.52-3.52Z"/><path class="cls-7" d="M146.6,109.25a3.52,3.52,0,1,0-3.51,3.51,3.51,3.51,0,0,0,3.51-3.51Z"/><path class="cls-7" d="M193.27,143.54a3.52,3.52,0,1,0-3.52,3.52,3.51,3.51,0,0,0,3.52-3.52Z"/><path class="cls-7" d="M239.94,190.43a3.52,3.52,0,1,0-3.52,3.52,3.52,3.52,0,0,0,3.52-3.52Z"/><path class="cls-7" d="M286.49,215.71a3.52,3.52,0,1,0-3.51,3.52,3.52,3.52,0,0,0,3.51-3.52Z"/><path class="cls-7" d="M333.16,252.06a3.52,3.52,0,1,0-3.51,3.52,3.52,3.52,0,0,0,3.51-3.52Z"/><path class="cls-8" d="M99.94,86.29a3.52,3.52,0,1,0-3.52,3.52,3.53,3.53,0,0,0,3.52-3.52Z"/><path class="cls-8" d="M146.6,97.63a3.52,3.52,0,1,0-3.51,3.52,3.51,3.51,0,0,0,3.51-3.52Z"/><path class="cls-8" d="M193.27,110.76a3.52,3.52,0,1,0-3.52,3.52,3.51,3.51,0,0,0,3.52-3.52Z"/><path class="cls-8" d="M239.94,145.42a3.52,3.52,0,1,0-3.52,3.52,3.53,3.53,0,0,0,3.52-3.52Z"/><path class="cls-8" d="M286.49,180.16a3.52,3.52,0,1,0-3.51,3.52,3.51,3.51,0,0,0,3.51-3.52Z"/><path class="cls-8" d="M333.16,234.73a3.52,3.52,0,1,0-3.51,3.52,3.51,3.51,0,0,0,3.51-3.52Z"/><path class="cls-5" d="M39.37,303.07v7.36h-1V304.1l-1.53,1-.45-.66,2.09-1.41Z"/><path class="cls-5" d="M44.56,305.85a1.84,1.84,0,0,1,.65.79,3.16,3.16,0,0,1,.24,1.29,3.58,3.58,0,0,1-.26,1.41,2.11,2.11,0,0,1-.76.92,2,2,0,0,1-1.11.31,1.88,1.88,0,0,1-1.73-.93,5.06,5.06,0,0,1-.56-2.59,6.83,6.83,0,0,1,.32-2.19,3.08,3.08,0,0,1,.9-1.42,2.06,2.06,0,0,1,1.38-.49,2.18,2.18,0,0,1,1.36.45l-.38.63a1.68,1.68,0,0,0-1-.31,1.27,1.27,0,0,0-1.14.75,4.66,4.66,0,0,0-.48,2.06,1.88,1.88,0,0,1,1.61-.94A1.73,1.73,0,0,1,44.56,305.85Zm-.39,3.47a2.59,2.59,0,0,0,.29-1.37,2.11,2.11,0,0,0-.28-1.23.87.87,0,0,0-.76-.38,1.27,1.27,0,0,0-.77.27,2.54,2.54,0,0,0-.62.76,4.52,4.52,0,0,0,.33,1.85,1,1,0,0,0,1,.58A.94.94,0,0,0,44.17,309.32Z"/><path class="cls-5" d="M46.23,306.9v-.82h4.52v.82Z"/><path class="cls-5" d="M54.41,303.21a1.69,1.69,0,0,1,.7.7,2.09,2.09,0,0,1,.24,1,3.23,3.23,0,0,1-.25,1.27,6.69,6.69,0,0,1-.83,1.33c-.39.49-1,1.19-1.76,2.09h3l-.12.82h-4v-.77c.85-1,1.47-1.73,1.86-2.23a6.35,6.35,0,0,0,.82-1.31,3,3,0,0,0,.23-1.15,1.3,1.3,0,0,0-.29-.9,1,1,0,0,0-.79-.32,1.29,1.29,0,0,0-.72.19,2.44,2.44,0,0,0-.64.59l-.62-.47A2.45,2.45,0,0,1,53.33,303,2.06,2.06,0,0,1,54.41,303.21Z"/><path class="cls-5" d="M61,307.82v.79h-.84v1.82H59.2v-1.82H56.32v-.71l2-5,.84.32-1.8,4.56h1.88l.1-2h.84v2Z"/><path class="cls-5" d="M87.44,303.21a1.72,1.72,0,0,1,.69.7,2,2,0,0,1,.25,1,3.24,3.24,0,0,1-.26,1.27,6.25,6.25,0,0,1-.83,1.33c-.38.49-1,1.19-1.76,2.09h3l-.12.82h-4v-.77c.85-1,1.47-1.73,1.86-2.23a6,6,0,0,0,.82-1.31,2.78,2.78,0,0,0,.23-1.15,1.25,1.25,0,0,0-.29-.9,1,1,0,0,0-.78-.32,1.32,1.32,0,0,0-.73.19,2.44,2.44,0,0,0-.64.59l-.61-.47a2.43,2.43,0,0,1,2-1.11A2.12,2.12,0,0,1,87.44,303.21Z"/><path class="cls-5" d="M93.19,303.84H90.62V306a2,2,0,0,1,1.08-.31,1.69,1.69,0,0,1,1.36.62,2.54,2.54,0,0,1,.52,1.7,2.9,2.9,0,0,1-.29,1.31,2.21,2.21,0,0,1-.82.89,2.35,2.35,0,0,1-1.23.32,2.45,2.45,0,0,1-1.11-.24,3.13,3.13,0,0,1-.91-.72l.59-.52a2.51,2.51,0,0,0,.65.51,1.66,1.66,0,0,0,.75.17,1.17,1.17,0,0,0,1-.45,2,2,0,0,0,.36-1.28c0-1.05-.4-1.57-1.19-1.57a1.53,1.53,0,0,0-.49.07,3.27,3.27,0,0,0-.49.22h-.72v-3.69h3.66Z"/><path class="cls-5" d="M94.37,306.9v-.82h4.51v.82Z"/><path class="cls-5" d="M102.54,303.2a1.62,1.62,0,0,1,.7.67,1.84,1.84,0,0,1,.24.93,1.72,1.72,0,0,1-.36,1.13,1.85,1.85,0,0,1-1,.59,1.78,1.78,0,0,1,1.17.53,1.82,1.82,0,0,1,.44,1.29,2.26,2.26,0,0,1-.28,1.13,2,2,0,0,1-.81.8,2.36,2.36,0,0,1-1.21.3,2.48,2.48,0,0,1-1.14-.25,2.77,2.77,0,0,1-.92-.75l.6-.51a2.5,2.5,0,0,0,.67.55,1.73,1.73,0,0,0,.76.17,1.24,1.24,0,0,0,1-.39,1.52,1.52,0,0,0,.36-1.07,1.33,1.33,0,0,0-.36-1.05,1.47,1.47,0,0,0-1-.33h-.46l.12-.74h.31a1.27,1.27,0,0,0,.91-.34,1.3,1.3,0,0,0,.35-1,1.16,1.16,0,0,0-.3-.85,1.09,1.09,0,0,0-.83-.31,1.67,1.67,0,0,0-.71.15,2.31,2.31,0,0,0-.65.49l-.52-.53a2.67,2.67,0,0,1,2-.88A2.09,2.09,0,0,1,102.54,303.2Z"/><path class="cls-5" d="M109.23,307.82v.79h-.83v1.82h-1v-1.82h-2.88v-.71l2-5,.83.32-1.79,4.56h1.88l.1-2h.84v2Z"/><path class="cls-5" d="M132.94,303.2a1.68,1.68,0,0,1,.7.67,1.84,1.84,0,0,1,.24.93,1.72,1.72,0,0,1-.36,1.13,1.85,1.85,0,0,1-1,.59,1.67,1.67,0,0,1,1.61,1.82,2.36,2.36,0,0,1-.28,1.13,2,2,0,0,1-.81.8,2.36,2.36,0,0,1-1.21.3,2.45,2.45,0,0,1-1.14-.25,2.77,2.77,0,0,1-.92-.75l.6-.51a2.5,2.5,0,0,0,.67.55,1.73,1.73,0,0,0,.76.17,1.24,1.24,0,0,0,1-.39,1.52,1.52,0,0,0,.36-1.07,1.33,1.33,0,0,0-.36-1.05,1.47,1.47,0,0,0-1-.33h-.46l.12-.74h.31a1.23,1.23,0,0,0,.9-.34,1.27,1.27,0,0,0,.36-1,1.16,1.16,0,0,0-.3-.85,1.09,1.09,0,0,0-.83-.31,1.67,1.67,0,0,0-.71.15,2.35,2.35,0,0,0-.66.49l-.51-.53a2.67,2.67,0,0,1,2-.88A2.09,2.09,0,0,1,132.94,303.2Z"/><path class="cls-5" d="M138.82,303.84h-2.58V306a2.07,2.07,0,0,1,1.08-.31,1.71,1.71,0,0,1,1.37.62,2.59,2.59,0,0,1,.51,1.7,2.9,2.9,0,0,1-.29,1.31,2.14,2.14,0,0,1-.82.89,2.35,2.35,0,0,1-1.23.32,2.45,2.45,0,0,1-1.11-.24,3.1,3.1,0,0,1-.9-.72l.58-.52a2.69,2.69,0,0,0,.65.51,1.67,1.67,0,0,0,.76.17,1.2,1.2,0,0,0,1-.45,2,2,0,0,0,.35-1.28c0-1.05-.4-1.57-1.19-1.57a1.43,1.43,0,0,0-.48.07,3.34,3.34,0,0,0-.5.22h-.71v-3.69H139Z"/><path class="cls-5" d="M140,306.9v-.82h4.51v.82Z"/><path class="cls-5" d="M149.89,307.82v.79h-.83v1.82h-.95v-1.82h-2.88v-.71l2-5,.83.32-1.79,4.56h1.88l.1-2h.84v2Z"/><path class="cls-5" d="M155.22,307.82v.79h-.84v1.82h-.94v-1.82h-2.89v-.71l2-5,.84.32-1.79,4.56h1.88l.1-2h.83v2Z"/><path class="cls-5" d="M181.37,307.82v.79h-.84v1.82h-.94v-1.82H176.7v-.71l2-5,.84.32-1.79,4.56h1.88l.1-2h.83v2Z"/><path class="cls-5" d="M185.88,303.84h-2.57V306a2,2,0,0,1,1.07-.31,1.71,1.71,0,0,1,1.37.62,2.59,2.59,0,0,1,.51,1.7,2.78,2.78,0,0,1-.29,1.31,2.14,2.14,0,0,1-.82.89,2.35,2.35,0,0,1-1.23.32,2.45,2.45,0,0,1-1.11-.24,3.1,3.1,0,0,1-.9-.72l.58-.52a2.69,2.69,0,0,0,.65.51,1.67,1.67,0,0,0,.76.17,1.2,1.2,0,0,0,1-.45,2,2,0,0,0,.35-1.28c0-1.05-.39-1.57-1.19-1.57a1.51,1.51,0,0,0-.48.07,3.34,3.34,0,0,0-.5.22h-.71v-3.69H186Z"/><path class="cls-5" d="M187.06,306.9v-.82h4.51v.82Z"/><path class="cls-5" d="M196.14,303.84h-2.57V306a2,2,0,0,1,1.07-.31,1.71,1.71,0,0,1,1.37.62,2.6,2.6,0,0,1,.52,1.7,2.78,2.78,0,0,1-.3,1.31,2.12,2.12,0,0,1-.81.89,2.41,2.41,0,0,1-1.24.32,2.44,2.44,0,0,1-1.1-.24,3.13,3.13,0,0,1-.91-.72l.58-.52a2.9,2.9,0,0,0,.65.51,1.7,1.7,0,0,0,.76.17,1.17,1.17,0,0,0,1-.45,2,2,0,0,0,.35-1.28c0-1.05-.39-1.57-1.18-1.57a1.53,1.53,0,0,0-.49.07,3.27,3.27,0,0,0-.49.22h-.72v-3.69h3.65Z"/><path class="cls-5" d="M202,307.82v.79h-.83v1.82h-.95v-1.82h-2.88v-.71l2-5,.83.32-1.79,4.56h1.88l.1-2h.84v2Z"/><path class="cls-5" d="M210.21,321.22,208.53,327H206.9l-1.71-5.82h1.44l1.1,4.72,1.11-4.72Z"/><path class="cls-5" d="M215.35,324.55h-3.29a2.25,2.25,0,0,0,.38,1.25,1.05,1.05,0,0,0,.85.36A1.76,1.76,0,0,0,214,326a2.84,2.84,0,0,0,.66-.38l.58.79a3,3,0,0,1-2,.75,2.28,2.28,0,0,1-1.88-.8,3.41,3.41,0,0,1-.66-2.23,3.65,3.65,0,0,1,.64-2.26,2.07,2.07,0,0,1,1.76-.86,2.12,2.12,0,0,1,1.72.76,3.41,3.41,0,0,1,.61,2.18C215.38,324.06,215.37,324.25,215.35,324.55Zm-1-6.29.52.57-1.39,1.4h-.85l-1.38-1.4.51-.57,1.29,1ZM214,323.6a2.45,2.45,0,0,0-.23-1.19.79.79,0,0,0-.74-.39.81.81,0,0,0-.71.38,2.77,2.77,0,0,0-.29,1.26h2Z"/><path class="cls-5" d="M217.85,318.75V327h-1.38v-8.15Zm3.18,2.47-1.72,2.56,1.87,3.26h-1.52l-1.76-3.18,1.74-2.64Z"/><path class="cls-5" d="M227.05,303.84h-2.58V306a2.07,2.07,0,0,1,1.08-.31,1.71,1.71,0,0,1,1.37.62,2.59,2.59,0,0,1,.51,1.7,2.78,2.78,0,0,1-.29,1.31,2.14,2.14,0,0,1-.82.89,2.35,2.35,0,0,1-1.23.32,2.45,2.45,0,0,1-1.11-.24,3.1,3.1,0,0,1-.9-.72l.58-.52a2.69,2.69,0,0,0,.65.51,1.67,1.67,0,0,0,.76.17,1.2,1.2,0,0,0,1-.45,2,2,0,0,0,.35-1.28c0-1.05-.4-1.57-1.19-1.57a1.47,1.47,0,0,0-.48.07,3.34,3.34,0,0,0-.5.22h-.71v-3.69h3.65Z"/><path class="cls-5" d="M232.1,303.84h-2.58V306a2.07,2.07,0,0,1,1.08-.31,1.68,1.68,0,0,1,1.36.62,2.54,2.54,0,0,1,.52,1.7,2.9,2.9,0,0,1-.29,1.31,2.14,2.14,0,0,1-.82.89,2.35,2.35,0,0,1-1.23.32,2.45,2.45,0,0,1-1.11-.24,3,3,0,0,1-.9-.72l.58-.52a2.69,2.69,0,0,0,.65.51,1.67,1.67,0,0,0,.76.17,1.2,1.2,0,0,0,1-.45,2,2,0,0,0,.35-1.28c0-1.05-.4-1.57-1.19-1.57a1.43,1.43,0,0,0-.48.07,3.34,3.34,0,0,0-.5.22h-.71v-3.69h3.65Z"/><path class="cls-5" d="M233.27,306.9v-.82h4.51v.82Z"/><path class="cls-5" d="M242.27,305.85a1.84,1.84,0,0,1,.65.79,3.16,3.16,0,0,1,.24,1.29,3.41,3.41,0,0,1-.27,1.41,2.09,2.09,0,0,1-.75.92,2,2,0,0,1-1.11.31,1.86,1.86,0,0,1-1.73-.93,5.06,5.06,0,0,1-.56-2.59,7.14,7.14,0,0,1,.31-2.19,3.1,3.1,0,0,1,.91-1.42,2.06,2.06,0,0,1,1.38-.49,2.2,2.2,0,0,1,1.36.45l-.39.63a1.63,1.63,0,0,0-.95-.31,1.27,1.27,0,0,0-1.14.75,4.66,4.66,0,0,0-.48,2.06,1.86,1.86,0,0,1,1.61-.94A1.75,1.75,0,0,1,242.27,305.85Zm-.39,3.47a2.69,2.69,0,0,0,.29-1.37,2.11,2.11,0,0,0-.28-1.23.88.88,0,0,0-.76-.38,1.27,1.27,0,0,0-.77.27,2.39,2.39,0,0,0-.62.76,4.36,4.36,0,0,0,.33,1.85,1,1,0,0,0,1,.58A.94.94,0,0,0,241.88,309.32Z"/><path class="cls-5" d="M248.63,307.82v.79h-.84v1.82h-.94v-1.82H244v-.71l2-5,.84.32L245,307.82h1.88l.1-2h.83v2Z"/><path class="cls-5" d="M274.35,305.85a1.79,1.79,0,0,1,.66.79,3.16,3.16,0,0,1,.24,1.29,3.41,3.41,0,0,1-.27,1.41,2.09,2.09,0,0,1-.75.92,2,2,0,0,1-1.11.31,1.88,1.88,0,0,1-1.74-.93,5.06,5.06,0,0,1-.55-2.59,6.85,6.85,0,0,1,.31-2.19,3.17,3.17,0,0,1,.9-1.42,2.11,2.11,0,0,1,1.39-.49,2.2,2.2,0,0,1,1.36.45l-.39.63a1.63,1.63,0,0,0-.95-.31,1.27,1.27,0,0,0-1.14.75,4.66,4.66,0,0,0-.48,2.06,1.86,1.86,0,0,1,1.61-.94A1.69,1.69,0,0,1,274.35,305.85Zm-.38,3.47a2.69,2.69,0,0,0,.29-1.37,2.11,2.11,0,0,0-.28-1.23.88.88,0,0,0-.76-.38,1.25,1.25,0,0,0-.77.27,2.39,2.39,0,0,0-.62.76,4.55,4.55,0,0,0,.32,1.85,1,1,0,0,0,1,.58A1,1,0,0,0,274,309.32Z"/><path class="cls-5" d="M279.9,303.84h-2.57V306a2,2,0,0,1,1.08-.31,1.69,1.69,0,0,1,1.36.62,2.54,2.54,0,0,1,.52,1.7,2.9,2.9,0,0,1-.29,1.31,2.21,2.21,0,0,1-.82.89,2.35,2.35,0,0,1-1.23.32,2.45,2.45,0,0,1-1.11-.24,3.13,3.13,0,0,1-.91-.72l.59-.52a2.51,2.51,0,0,0,.65.51,1.66,1.66,0,0,0,.75.17,1.17,1.17,0,0,0,1-.45,2,2,0,0,0,.36-1.28c0-1.05-.4-1.57-1.19-1.57a1.53,1.53,0,0,0-.49.07,3.27,3.27,0,0,0-.49.22h-.72v-3.69H280Z"/><path class="cls-5" d="M281.08,306.9v-.82h4.51v.82Z"/><path class="cls-5" d="M290.11,303.07v.73l-2.52,6.74-.89-.29,2.42-6.39h-2.95v-.79Z"/><path class="cls-5" d="M295.44,307.82v.79h-.84v1.82h-1v-1.82h-2.88v-.71l2-5,.84.32-1.8,4.56h1.88l.1-2h.84v2Z"/><path class="cls-5" d="M87.44,576a1.75,1.75,0,0,1,.69.71,2,2,0,0,1,.25,1,3.21,3.21,0,0,1-.26,1.27,6.29,6.29,0,0,1-.83,1.34c-.38.49-1,1.19-1.76,2.09h3l-.12.81h-4v-.77c.85-1,1.47-1.72,1.86-2.23a5.92,5.92,0,0,0,.82-1.3,2.85,2.85,0,0,0,.23-1.15,1.29,1.29,0,0,0-.29-.91,1,1,0,0,0-.78-.31,1.41,1.41,0,0,0-.73.18,2.69,2.69,0,0,0-.64.6l-.61-.48a2.43,2.43,0,0,1,2-1.11A2.22,2.22,0,0,1,87.44,576Z"/><path class="cls-5" d="M93.19,576.67H90.62v2.2a2.1,2.1,0,0,1,1.08-.3,1.68,1.68,0,0,1,1.36.61,2.55,2.55,0,0,1,.52,1.71,2.93,2.93,0,0,1-.29,1.31,2.27,2.27,0,0,1-.82.89,2.55,2.55,0,0,1-2.34.07,3.27,3.27,0,0,1-.91-.71l.59-.53a2.15,2.15,0,0,0,.65.51,1.54,1.54,0,0,0,.75.17,1.19,1.19,0,0,0,1-.44,2,2,0,0,0,.36-1.28c0-1-.4-1.58-1.19-1.58a1.87,1.87,0,0,0-.49.07,3.44,3.44,0,0,0-.49.23h-.72v-3.7h3.66Z"/><path class="cls-5" d="M94.37,579.73v-.81h4.51v.81Z"/><path class="cls-5" d="M102.54,576a1.74,1.74,0,0,1,.7.67,1.84,1.84,0,0,1,.24.93,1.73,1.73,0,0,1-.36,1.14,1.85,1.85,0,0,1-1,.59,1.73,1.73,0,0,1,1.17.53,1.77,1.77,0,0,1,.44,1.28,2.29,2.29,0,0,1-.28,1.14,2.15,2.15,0,0,1-.81.8,2.36,2.36,0,0,1-1.21.3,2.62,2.62,0,0,1-1.14-.25,2.94,2.94,0,0,1-.92-.76l.6-.5a2.27,2.27,0,0,0,.67.54,1.6,1.6,0,0,0,.76.17,1.24,1.24,0,0,0,1-.39,1.51,1.51,0,0,0,.36-1.07,1.36,1.36,0,0,0-.36-1,1.46,1.46,0,0,0-1-.32h-.46L101,579h.31a1.27,1.27,0,0,0,.91-.34,1.33,1.33,0,0,0,.35-1,1.18,1.18,0,0,0-.3-.86,1.13,1.13,0,0,0-.83-.31,1.54,1.54,0,0,0-.71.16,2.26,2.26,0,0,0-.65.48l-.52-.53a2.71,2.71,0,0,1,2-.88A2.2,2.2,0,0,1,102.54,576Z"/><path class="cls-5" d="M109.23,580.66v.79h-.83v1.81h-1v-1.81h-2.88v-.72l2-5,.83.32-1.79,4.57h1.88l.1-2h.84v2Z"/><path class="cls-5" d="M132.94,576a1.74,1.74,0,0,1,.7.67,1.84,1.84,0,0,1,.24.93,1.73,1.73,0,0,1-.36,1.14,1.91,1.91,0,0,1-1,.59,1.75,1.75,0,0,1,1.17.53,1.77,1.77,0,0,1,.44,1.28,2.34,2.34,0,0,1-.28,1.13,2.1,2.1,0,0,1-.81.81,2.36,2.36,0,0,1-1.21.29,2.58,2.58,0,0,1-1.14-.24,2.94,2.94,0,0,1-.92-.76l.6-.5a2.27,2.27,0,0,0,.67.54,1.6,1.6,0,0,0,.76.17,1.24,1.24,0,0,0,1-.39,1.52,1.52,0,0,0,.36-1.07,1.36,1.36,0,0,0-.36-1,1.47,1.47,0,0,0-1-.33h-.46l.12-.73h.31a1.27,1.27,0,0,0,.9-.34,1.3,1.3,0,0,0,.36-1,1.18,1.18,0,0,0-.3-.86,1.09,1.09,0,0,0-.83-.31,1.54,1.54,0,0,0-.71.16,2.3,2.3,0,0,0-.66.48l-.51-.53a2.71,2.71,0,0,1,2-.88A2.09,2.09,0,0,1,132.94,576Z"/><path class="cls-5" d="M138.82,576.67h-2.58v2.2a2.16,2.16,0,0,1,1.08-.31,1.71,1.71,0,0,1,1.37.62,2.6,2.6,0,0,1,.51,1.71,2.86,2.86,0,0,1-.29,1.3,2.17,2.17,0,0,1-.82.9,2.34,2.34,0,0,1-1.23.31,2.45,2.45,0,0,1-1.11-.24,3.23,3.23,0,0,1-.9-.71l.58-.53a2.27,2.27,0,0,0,.65.51,1.55,1.55,0,0,0,.76.17,1.22,1.22,0,0,0,1-.44,2.07,2.07,0,0,0,.35-1.28c0-1-.4-1.58-1.19-1.58a1.73,1.73,0,0,0-.48.07,3.5,3.5,0,0,0-.5.23h-.71v-3.7H139Z"/><path class="cls-5" d="M140,579.73v-.81h4.51v.81Z"/><path class="cls-5" d="M149.89,580.65v.8h-.83v1.81h-.95v-1.81h-2.88v-.72l2-5,.83.32-1.79,4.56h1.88l.1-2h.84v2Z"/><path class="cls-5" d="M155.22,580.65v.8h-.84v1.81h-.94v-1.81h-2.89v-.72l2-5,.84.32-1.79,4.56h1.88l.1-2h.83v2Z"/><path class="cls-5" d="M181.37,580.66v.79h-.84v1.81h-.94v-1.81H176.7v-.72l2-5,.84.32-1.79,4.57h1.88l.1-2h.83v2Z"/><path class="cls-5" d="M185.88,576.67h-2.57v2.2a2.09,2.09,0,0,1,1.07-.3,1.7,1.7,0,0,1,1.37.61,2.6,2.6,0,0,1,.51,1.71,2.8,2.8,0,0,1-.29,1.31,2.2,2.2,0,0,1-.82.89,2.55,2.55,0,0,1-2.34.07,3.23,3.23,0,0,1-.9-.71l.58-.53a2.27,2.27,0,0,0,.65.51,1.55,1.55,0,0,0,.76.17,1.22,1.22,0,0,0,1-.44,2.07,2.07,0,0,0,.35-1.28c0-1-.39-1.58-1.19-1.58a1.85,1.85,0,0,0-.48.07,3.5,3.5,0,0,0-.5.23h-.71v-3.7H186Z"/><path class="cls-5" d="M187.06,579.73v-.81h4.51v.81Z"/><path class="cls-5" d="M196.14,576.67h-2.57v2.2a2.09,2.09,0,0,1,1.07-.3,1.7,1.7,0,0,1,1.37.61,2.61,2.61,0,0,1,.52,1.71,2.81,2.81,0,0,1-.3,1.31,2.18,2.18,0,0,1-.81.89,2.41,2.41,0,0,1-1.24.32,2.32,2.32,0,0,1-1.1-.25,3.27,3.27,0,0,1-.91-.71l.58-.53a2.42,2.42,0,0,0,.65.51,1.58,1.58,0,0,0,.76.17,1.19,1.19,0,0,0,1-.44,2,2,0,0,0,.35-1.28c0-1-.39-1.58-1.18-1.58a1.87,1.87,0,0,0-.49.07,3.44,3.44,0,0,0-.49.23h-.72v-3.7h3.65Z"/><path class="cls-5" d="M202,580.66v.79h-.83v1.81h-.95v-1.81h-2.88v-.72l2-5,.83.32-1.79,4.57h1.88l.1-2h.84v2Z"/><path class="cls-5" d="M227.05,576.67h-2.58v2.2a2.16,2.16,0,0,1,1.08-.31,1.71,1.71,0,0,1,1.37.62,2.6,2.6,0,0,1,.51,1.71,2.74,2.74,0,0,1-.29,1.3,2.17,2.17,0,0,1-.82.9,2.34,2.34,0,0,1-1.23.31,2.45,2.45,0,0,1-1.11-.24,3.23,3.23,0,0,1-.9-.71l.58-.53a2.27,2.27,0,0,0,.65.51,1.55,1.55,0,0,0,.76.17,1.22,1.22,0,0,0,1-.44,2.07,2.07,0,0,0,.35-1.28c0-1-.4-1.58-1.19-1.58a1.79,1.79,0,0,0-.48.07,3.5,3.5,0,0,0-.5.23h-.71v-3.7h3.65Z"/><path class="cls-5" d="M232.1,576.67h-2.58v2.2a2.16,2.16,0,0,1,1.08-.31,1.68,1.68,0,0,1,1.36.62,2.55,2.55,0,0,1,.52,1.71,2.86,2.86,0,0,1-.29,1.3,2.17,2.17,0,0,1-.82.9,2.34,2.34,0,0,1-1.23.31,2.45,2.45,0,0,1-1.11-.24,3.09,3.09,0,0,1-.9-.71l.58-.53a2.27,2.27,0,0,0,.65.51,1.55,1.55,0,0,0,.76.17,1.22,1.22,0,0,0,1-.44,2.07,2.07,0,0,0,.35-1.28c0-1-.4-1.58-1.19-1.58a1.73,1.73,0,0,0-.48.07,3.5,3.5,0,0,0-.5.23h-.71v-3.7h3.65Z"/><path class="cls-5" d="M233.27,579.73v-.81h4.51v.81Z"/><path class="cls-5" d="M242.27,578.69a1.78,1.78,0,0,1,.65.79,3.08,3.08,0,0,1,.24,1.28,3.43,3.43,0,0,1-.27,1.42,2.07,2.07,0,0,1-.75.91,2,2,0,0,1-1.11.31,1.86,1.86,0,0,1-1.73-.92,5.08,5.08,0,0,1-.56-2.59,7,7,0,0,1,.31-2.19,3,3,0,0,1,.91-1.42,2.07,2.07,0,0,1,1.38-.5,2.2,2.2,0,0,1,1.36.45l-.39.63a1.63,1.63,0,0,0-.95-.31,1.27,1.27,0,0,0-1.14.75,4.71,4.71,0,0,0-.48,2.07,1.87,1.87,0,0,1,1.61-1A1.68,1.68,0,0,1,242.27,578.69Zm-.39,3.47a2.71,2.71,0,0,0,.29-1.37,2.12,2.12,0,0,0-.28-1.24.91.91,0,0,0-.76-.38,1.27,1.27,0,0,0-.77.27,2.51,2.51,0,0,0-.62.76,4.33,4.33,0,0,0,.33,1.85,1,1,0,0,0,1,.59A.94.94,0,0,0,241.88,582.16Z"/><path class="cls-5" d="M248.63,580.65v.8h-.84v1.81h-.94v-1.81H244v-.72l2-5,.84.32L245,580.65h1.88l.1-2h.83v2Z"/><path class="cls-5" d="M274.35,578.69a1.74,1.74,0,0,1,.66.79,3.1,3.1,0,0,1,.24,1.29,3.41,3.41,0,0,1-.27,1.41,2.07,2.07,0,0,1-.75.91,2,2,0,0,1-1.11.32,1.88,1.88,0,0,1-1.74-.93,5.09,5.09,0,0,1-.55-2.59,6.76,6.76,0,0,1,.31-2.19,3.11,3.11,0,0,1,.9-1.42,2.12,2.12,0,0,1,1.39-.5,2.2,2.2,0,0,1,1.36.45l-.39.63a1.71,1.71,0,0,0-.95-.31,1.27,1.27,0,0,0-1.14.75,4.71,4.71,0,0,0-.48,2.07,1.87,1.87,0,0,1,1.61-1A1.62,1.62,0,0,1,274.35,578.69Zm-.38,3.47a2.71,2.71,0,0,0,.29-1.37,2.07,2.07,0,0,0-.28-1.23.89.89,0,0,0-.76-.39,1.2,1.2,0,0,0-.77.28,2.29,2.29,0,0,0-.62.76,4.49,4.49,0,0,0,.32,1.84,1,1,0,0,0,1,.59A1,1,0,0,0,274,582.16Z"/><path class="cls-5" d="M279.9,576.67h-2.57v2.2a2.1,2.1,0,0,1,1.08-.3,1.68,1.68,0,0,1,1.36.61,2.55,2.55,0,0,1,.52,1.71,2.93,2.93,0,0,1-.29,1.31,2.27,2.27,0,0,1-.82.89,2.55,2.55,0,0,1-2.34.07,3.27,3.27,0,0,1-.91-.71l.59-.53a2.15,2.15,0,0,0,.65.51,1.54,1.54,0,0,0,.75.17,1.19,1.19,0,0,0,1-.44,2,2,0,0,0,.36-1.28c0-1-.4-1.58-1.19-1.58a1.87,1.87,0,0,0-.49.07,3.44,3.44,0,0,0-.49.23h-.72v-3.7H280Z"/><path class="cls-5" d="M281.08,579.73v-.81h4.51v.81Z"/><path class="cls-5" d="M290.11,575.9v.73l-2.52,6.74-.89-.28,2.42-6.39h-2.95v-.8Z"/><path class="cls-5" d="M295.44,580.66v.79h-.84v1.81h-1v-1.81h-2.88v-.72l2-5,.84.32-1.8,4.57h1.88l.1-2h.84v2Z"/><path class="cls-5" d="M318.7,575.9v.73l-2.52,6.74-.89-.28,2.42-6.4h-2.95v-.79Z"/><path class="cls-5" d="M323.21,576.67h-2.58v2.2a2.16,2.16,0,0,1,1.08-.31,1.68,1.68,0,0,1,1.36.62,2.55,2.55,0,0,1,.52,1.71,2.86,2.86,0,0,1-.29,1.3,2.17,2.17,0,0,1-.82.9,2.34,2.34,0,0,1-1.23.31,2.45,2.45,0,0,1-1.11-.24,3.09,3.09,0,0,1-.9-.71l.58-.53a2.27,2.27,0,0,0,.65.51,1.55,1.55,0,0,0,.76.17,1.22,1.22,0,0,0,1-.44,2.07,2.07,0,0,0,.35-1.28c0-1-.4-1.58-1.19-1.58a1.73,1.73,0,0,0-.48.07,3.5,3.5,0,0,0-.5.23h-.71v-3.7h3.65Z"/><path class="cls-5" d="M324.38,579.73v-.81h4.51v.81Z"/><path class="cls-5" d="M334,580.15a1.84,1.84,0,0,1,.36,1.16,2,2,0,0,1-.29,1.09,1.85,1.85,0,0,1-.82.74,3.07,3.07,0,0,1-2.45,0,1.89,1.89,0,0,1-.8-.73,2.08,2.08,0,0,1-.29-1.08,2,2,0,0,1,1.4-2,2.35,2.35,0,0,1-.86-.73,1.81,1.81,0,0,1-.26-1,1.89,1.89,0,0,1,.27-1A1.82,1.82,0,0,1,331,576a2.47,2.47,0,0,1,1-.22,2.19,2.19,0,0,1,1.46.49,1.63,1.63,0,0,1,.59,1.36,1.65,1.65,0,0,1-.28,1,2.66,2.66,0,0,1-.92.74A2.59,2.59,0,0,1,334,580.15Zm-1,2.15a1.52,1.52,0,0,0,.06-1.89,2.9,2.9,0,0,0-1-.64l-.31-.12a2,2,0,0,0-.78.68,1.85,1.85,0,0,0-.25,1,1.25,1.25,0,0,0,.36,1,1.57,1.57,0,0,0,2,0Zm-1.77-5.5a1.21,1.21,0,0,0-.29.88,1.17,1.17,0,0,0,.24.78,2.26,2.26,0,0,0,.85.52l.25.11a2,2,0,0,0,.65-.63,1.52,1.52,0,0,0,.2-.79,1.2,1.2,0,0,0-.29-.87,1.09,1.09,0,0,0-.8-.29A1.13,1.13,0,0,0,331.2,576.8Z"/><path class="cls-5" d="M339.78,580.65v.8H339v1.81H338v-1.81h-2.88v-.72l2-5,.83.32-1.79,4.56H338l.1-2H339v2Z"/><path class="cls-5" d="M368.58,580.15a1.93,1.93,0,0,1,.35,1.17,2,2,0,0,1-.29,1.08,1.85,1.85,0,0,1-.82.74,2.65,2.65,0,0,1-1.23.27,2.74,2.74,0,0,1-1.22-.26,2,2,0,0,1-.8-.73,2.07,2.07,0,0,1-.28-1.08,2,2,0,0,1,1.4-2,2.12,2.12,0,0,1-.86-.73,1.7,1.7,0,0,1-.27-1,1.83,1.83,0,0,1,.28-1,1.8,1.8,0,0,1,.74-.65,2.47,2.47,0,0,1,1-.22,2.19,2.19,0,0,1,1.47.49,1.66,1.66,0,0,1,.59,1.36,1.64,1.64,0,0,1-.29,1,2.51,2.51,0,0,1-.91.74A2.81,2.81,0,0,1,368.58,580.15Zm-1,2.15a1.3,1.3,0,0,0,.35-1,1.34,1.34,0,0,0-.29-.91,2.82,2.82,0,0,0-1-.63l-.31-.13a2,2,0,0,0-.78.68,1.86,1.86,0,0,0-.24,1,1.27,1.27,0,0,0,.35,1,1.37,1.37,0,0,0,1,.33A1.39,1.39,0,0,0,367.59,582.3Zm-1.77-5.5a1.18,1.18,0,0,0-.3.89,1.1,1.1,0,0,0,.25.77,2.13,2.13,0,0,0,.84.52l.25.11a2,2,0,0,0,.66-.63,1.58,1.58,0,0,0,.19-.78,1.21,1.21,0,0,0-.29-.88,1.09,1.09,0,0,0-.8-.29A1.11,1.11,0,0,0,365.82,576.8Z"/><path class="cls-5" d="M373.58,576.67H371v2.2a2.1,2.1,0,0,1,1.08-.3,1.68,1.68,0,0,1,1.36.61,2.55,2.55,0,0,1,.52,1.71,2.93,2.93,0,0,1-.29,1.31,2.27,2.27,0,0,1-.82.89,2.38,2.38,0,0,1-1.24.32,2.32,2.32,0,0,1-1.1-.25,3.27,3.27,0,0,1-.91-.71l.58-.53a2.42,2.42,0,0,0,.65.51,1.58,1.58,0,0,0,.76.17,1.19,1.19,0,0,0,1-.44,2,2,0,0,0,.35-1.28c0-1-.39-1.58-1.18-1.58a1.87,1.87,0,0,0-.49.07,3.44,3.44,0,0,0-.49.23h-.72v-3.7h3.66Z"/><path class="cls-5" d="M378.14,583.09a1.22,1.22,0,0,1-.31-.89v-7.07l1-.11v7.14c0,.29.12.43.35.43a1,1,0,0,0,.32-.06l.22.69a1.6,1.6,0,0,1-.74.19A1.1,1.1,0,0,1,378.14,583.09Z"/><path class="cls-5" d="M384.82,580.71h-3.36a2.44,2.44,0,0,0,.41,1.46,1.19,1.19,0,0,0,1,.44,2,2,0,0,0,.71-.12,2.72,2.72,0,0,0,.65-.39l.44.58a2.72,2.72,0,0,1-1.85.73,2.11,2.11,0,0,1-1.75-.79,3.44,3.44,0,0,1-.62-2.21,3.8,3.8,0,0,1,.59-2.25,1.93,1.93,0,0,1,1.65-.83,1.9,1.9,0,0,1,1.61.75,3.46,3.46,0,0,1,.56,2.11A5,5,0,0,1,384.82,580.71Zm-.93-.81c0-1.21-.4-1.82-1.2-1.82a1,1,0,0,0-.87.46,2.9,2.9,0,0,0-.36,1.48h2.43Z"/><path class="cls-5" d="M389,583a2.07,2.07,0,0,1-1.22.4,1.4,1.4,0,0,1-1.08-.41,1.58,1.58,0,0,1-.38-1.15v-3.63h-.83v-.74h.83v-1.33l1-.13v1.46h1.27l-.11.74h-1.16v3.62c0,.5.21.75.62.75a1.29,1.29,0,0,0,.35-.05,1.91,1.91,0,0,0,.36-.17Z"/><path class="cls-5" d="M367.74,592.47a.6.6,0,0,0,.31.25l-.21.67a1.37,1.37,0,0,1-.67-.26,1,1,0,0,1-.34-.6,1.79,1.79,0,0,1-1.57.88,1.62,1.62,0,0,1-1.23-.48,1.8,1.8,0,0,1-.45-1.28,1.7,1.7,0,0,1,.61-1.41,2.72,2.72,0,0,1,1.73-.49h.74v-.49a1.32,1.32,0,0,0-.24-.88,1.07,1.07,0,0,0-.81-.27,4.1,4.1,0,0,0-1.41.31l-.24-.69a4.82,4.82,0,0,1,1.8-.4,1.66,1.66,0,0,1,1.88,1.89v2.72A1.18,1.18,0,0,0,367.74,592.47Zm-1.08-.71v-1.37H366c-1,0-1.43.4-1.43,1.2a1.15,1.15,0,0,0,.23.79.79.79,0,0,0,.66.28A1.28,1.28,0,0,0,366.66,591.76Z"/><path class="cls-5" d="M375.91,587.48l-1.72,5.78H373l-1.78-5.78h1l1.34,4.95,1.33-4.95Z"/><path class="cls-5" d="M378.13,584.5l.41.79-2.11,1-.28-.51Zm-.24,3v5.78h-1v-5.78Z"/><path class="cls-5" d="M382.54,587.49a2.45,2.45,0,0,1,.73.47l-.44.59a2.38,2.38,0,0,0-.52-.31,1.57,1.57,0,0,0-.58-.1,1.12,1.12,0,0,0-1,.55,3.18,3.18,0,0,0-.36,1.71c0,1.45.45,2.18,1.36,2.18a1.4,1.4,0,0,0,.56-.1,2.62,2.62,0,0,0,.54-.32l.47.61a2.36,2.36,0,0,1-1.6.64,2.13,2.13,0,0,1-1.74-.77,3.46,3.46,0,0,1-.64-2.23,4.14,4.14,0,0,1,.3-1.64,2.39,2.39,0,0,1,.82-1.06,2.13,2.13,0,0,1,1.25-.38A2.34,2.34,0,0,1,382.54,587.49Z"/><path class="cls-5" d="M388.42,590.71h-3.36a2.45,2.45,0,0,0,.4,1.46,1.19,1.19,0,0,0,1,.44,2,2,0,0,0,.71-.12,2.58,2.58,0,0,0,.66-.39l.44.58a2.74,2.74,0,0,1-1.85.73,2.13,2.13,0,0,1-1.76-.79,3.5,3.5,0,0,1-.62-2.21,3.8,3.8,0,0,1,.6-2.25,1.91,1.91,0,0,1,1.65-.83,1.88,1.88,0,0,1,1.6.75,3.4,3.4,0,0,1,.56,2.11A4.79,4.79,0,0,1,388.42,590.71Zm-.93-.81c0-1.21-.4-1.82-1.2-1.82a1,1,0,0,0-.87.46,2.8,2.8,0,0,0-.36,1.48h2.43Z"/><path class="cls-6" d="M102,426.41a3.52,3.52,0,1,0-3.52,3.52,3.52,3.52,0,0,0,3.52-3.52Z"/><path class="cls-6" d="M148.14,418.2a3.52,3.52,0,1,0-3.51,3.51,3.51,3.51,0,0,0,3.51-3.51Z"/><path class="cls-6" d="M194.29,498.49a3.52,3.52,0,1,0-3.52,3.52,3.51,3.51,0,0,0,3.52-3.52Z"/><path class="cls-6" d="M240.43,501.71a3.52,3.52,0,1,0-3.51,3.51,3.52,3.52,0,0,0,3.51-3.51Z"/><path class="cls-6" d="M286.58,511.89a3.52,3.52,0,1,0-3.52,3.52,3.52,3.52,0,0,0,3.52-3.52Z"/><path class="cls-6" d="M332.73,546.28a3.52,3.52,0,1,0-3.52,3.51,3.52,3.52,0,0,0,3.52-3.51Z"/><path class="cls-7" d="M102,376.84a3.52,3.52,0,1,0-3.52,3.52,3.52,3.52,0,0,0,3.52-3.52Z"/><path class="cls-7" d="M148.14,385.69a3.52,3.52,0,1,0-3.51,3.51,3.51,3.51,0,0,0,3.51-3.51Z"/><path class="cls-7" d="M194.29,419.27a3.52,3.52,0,1,0-3.52,3.52,3.52,3.52,0,0,0,3.52-3.52Z"/><path class="cls-7" d="M240.43,460.18a3.52,3.52,0,1,0-3.51,3.51,3.51,3.51,0,0,0,3.51-3.51Z"/><path class="cls-7" d="M286.58,497.33a3.52,3.52,0,1,0-3.52,3.52,3.52,3.52,0,0,0,3.52-3.52Z"/><path class="cls-7" d="M332.73,525.73a3.52,3.52,0,1,0-3.52,3.52,3.52,3.52,0,0,0,3.52-3.52Z"/><path class="cls-8" d="M102,356.48A3.52,3.52,0,1,0,98.48,360a3.53,3.53,0,0,0,3.52-3.52Z"/><path class="cls-8" d="M148.14,371.48a3.52,3.52,0,1,0-3.51,3.52,3.51,3.51,0,0,0,3.51-3.52Z"/><path class="cls-8" d="M194.29,384.17a3.52,3.52,0,1,0-3.52,3.51,3.52,3.52,0,0,0,3.52-3.51Z"/><path class="cls-8" d="M240.43,424.9a3.52,3.52,0,1,0-3.51,3.51,3.51,3.51,0,0,0,3.51-3.51Z"/><path class="cls-8" d="M286.58,455.62a3.52,3.52,0,1,0-3.52,3.52,3.52,3.52,0,0,0,3.52-3.52Z"/><path class="cls-8" d="M332.73,495a3.52,3.52,0,1,0-3.52,3.52,3.53,3.53,0,0,0,3.52-3.52Z"/><path class="cls-5" d="M322,303.07v.73l-2.52,6.74-.89-.29,2.42-6.39h-2.95v-.79Z"/><path class="cls-5" d="M326.51,303.84h-2.57V306a2,2,0,0,1,1.07-.31,1.71,1.71,0,0,1,1.37.62,2.59,2.59,0,0,1,.51,1.7,2.78,2.78,0,0,1-.29,1.31,2.08,2.08,0,0,1-.82.89,2.35,2.35,0,0,1-1.23.32,2.41,2.41,0,0,1-1.1-.24,3,3,0,0,1-.91-.72l.58-.52a2.69,2.69,0,0,0,.65.51,1.67,1.67,0,0,0,.76.17,1.2,1.2,0,0,0,1-.45,2,2,0,0,0,.35-1.28c0-1.05-.39-1.57-1.19-1.57a1.51,1.51,0,0,0-.48.07,3.34,3.34,0,0,0-.5.22H323v-3.69h3.65Z"/><path class="cls-5" d="M327.69,306.9v-.82h4.51v.82Z"/><path class="cls-5" d="M337.27,307.31a2,2,0,0,1,.35,1.17,2.06,2.06,0,0,1-.29,1.09,1.91,1.91,0,0,1-.82.74,2.79,2.79,0,0,1-1.23.26,2.74,2.74,0,0,1-1.22-.26,1.78,1.78,0,0,1-.8-.73,2,2,0,0,1-.28-1.08,2,2,0,0,1,1.39-1.95,2.32,2.32,0,0,1-.85-.73,1.73,1.73,0,0,1-.27-1,1.77,1.77,0,0,1,.28-1,1.67,1.67,0,0,1,.74-.65,2.32,2.32,0,0,1,1-.22,2.26,2.26,0,0,1,1.47.48,1.69,1.69,0,0,1,.58,1.37,1.62,1.62,0,0,1-.28,1,2.49,2.49,0,0,1-.91.74A2.91,2.91,0,0,1,337.27,307.31Zm-1,2.16a1.57,1.57,0,0,0,.06-1.9,3.12,3.12,0,0,0-1-.63l-.31-.12a2,2,0,0,0-.78.67,1.91,1.91,0,0,0-.24,1,1.27,1.27,0,0,0,.35,1,1.37,1.37,0,0,0,1,.33A1.38,1.38,0,0,0,336.28,309.47Zm-1.77-5.5a1.17,1.17,0,0,0-.3.88,1.13,1.13,0,0,0,.25.78,2.25,2.25,0,0,0,.84.52l.25.11a2.23,2.23,0,0,0,.66-.63,1.62,1.62,0,0,0,.19-.79,1.18,1.18,0,0,0-.29-.87,1.22,1.22,0,0,0-1.6,0Z"/><path class="cls-5" d="M343.09,307.82v.79h-.84v1.82h-.95v-1.82h-2.88v-.71l2-5,.84.32-1.8,4.56h1.88l.1-2h.84v2Z"/><path class="cls-5" d="M371.39,307.31a1.89,1.89,0,0,1,.35,1.17,2.06,2.06,0,0,1-.28,1.09,2,2,0,0,1-.82.74,2.86,2.86,0,0,1-1.24.26,2.7,2.7,0,0,1-1.21-.26,1.85,1.85,0,0,1-.81-.73,2.1,2.1,0,0,1,1.12-3,2.37,2.37,0,0,1-.86-.73,1.73,1.73,0,0,1-.26-1,1.85,1.85,0,0,1,.27-1,1.67,1.67,0,0,1,.74-.65,2.38,2.38,0,0,1,1-.22,2.24,2.24,0,0,1,1.47.48,1.69,1.69,0,0,1,.59,1.37,1.63,1.63,0,0,1-.29,1,2.41,2.41,0,0,1-.91.74A2.76,2.76,0,0,1,371.39,307.31Zm-1,2.16a1.57,1.57,0,0,0,.06-1.9,3,3,0,0,0-1-.63l-.31-.12a1.9,1.9,0,0,0-.77.67,1.82,1.82,0,0,0-.25,1,1.31,1.31,0,0,0,.35,1,1.38,1.38,0,0,0,1,.33A1.37,1.37,0,0,0,370.4,309.47Zm-1.77-5.5a1.39,1.39,0,0,0-.05,1.66,2.43,2.43,0,0,0,.84.52l.26.11a2.31,2.31,0,0,0,.65-.63,1.52,1.52,0,0,0,.19-.79,1.18,1.18,0,0,0-.28-.87,1.06,1.06,0,0,0-.81-.3A1.09,1.09,0,0,0,368.63,304Z"/><path class="cls-5" d="M376.4,303.84h-2.58V306a2.07,2.07,0,0,1,1.08-.31,1.68,1.68,0,0,1,1.36.62,2.54,2.54,0,0,1,.52,1.7,2.9,2.9,0,0,1-.29,1.31,2.14,2.14,0,0,1-.82.89,2.35,2.35,0,0,1-1.23.32,2.45,2.45,0,0,1-1.11-.24,3,3,0,0,1-.9-.72l.58-.52a2.69,2.69,0,0,0,.65.51,1.67,1.67,0,0,0,.76.17,1.2,1.2,0,0,0,1-.45,2,2,0,0,0,.35-1.28c0-1.05-.4-1.57-1.19-1.57a1.43,1.43,0,0,0-.48.07,3,3,0,0,0-.5.22h-.71v-3.69h3.65Z"/><path class="cls-5" d="M381,310.25a1.21,1.21,0,0,1-.31-.89V302.3l1-.11v7.14c0,.28.12.43.35.43a1,1,0,0,0,.32-.07l.22.69a1.47,1.47,0,0,1-.73.19A1.12,1.12,0,0,1,381,310.25Z"/><path class="cls-5" d="M387.64,307.88h-3.37a2.48,2.48,0,0,0,.41,1.45,1.2,1.2,0,0,0,1,.45,2,2,0,0,0,.71-.12,2.2,2.2,0,0,0,.65-.4l.44.59a2.71,2.71,0,0,1-1.84.72,2.11,2.11,0,0,1-1.76-.79,3.49,3.49,0,0,1-.62-2.2,3.83,3.83,0,0,1,.59-2.25,1.93,1.93,0,0,1,1.65-.83,1.9,1.9,0,0,1,1.61.74,3.5,3.5,0,0,1,.56,2.12C387.66,307.51,387.65,307.69,387.64,307.88Zm-.94-.82c0-1.21-.4-1.81-1.2-1.81a1,1,0,0,0-.86.45,2.82,2.82,0,0,0-.37,1.48h2.43Z"/><path class="cls-5" d="M391.77,310.18a2,2,0,0,1-1.22.39,1.4,1.4,0,0,1-1.08-.41,1.62,1.62,0,0,1-.38-1.14v-3.63h-.82v-.75h.82v-1.33l1-.12v1.45h1.28l-.11.75h-1.17V309q0,.75.63.75a.93.93,0,0,0,.34-.06,1.82,1.82,0,0,0,.36-.16Z"/><path class="cls-5" d="M370.56,319.63a.6.6,0,0,0,.3.26l-.21.67a1.37,1.37,0,0,1-.67-.26,1.17,1.17,0,0,1-.34-.61,1.76,1.76,0,0,1-1.57.88,1.6,1.6,0,0,1-1.22-.48,1.78,1.78,0,0,1-.45-1.28,1.71,1.71,0,0,1,.6-1.41,2.74,2.74,0,0,1,1.73-.48h.75v-.5a1.29,1.29,0,0,0-.25-.87,1.05,1.05,0,0,0-.81-.27,4,4,0,0,0-1.41.31l-.24-.7a4.89,4.89,0,0,1,1.81-.39,1.66,1.66,0,0,1,1.88,1.88v2.73A1,1,0,0,0,370.56,319.63Zm-1.08-.71v-1.36h-.64c-.95,0-1.43.4-1.43,1.2a1.24,1.24,0,0,0,.23.79.81.81,0,0,0,.66.27A1.29,1.29,0,0,0,369.48,318.92Z"/><path class="cls-5" d="M378.73,314.64,377,320.43h-1.19L374,314.64h1l1.35,4.95,1.33-4.95Z"/><path class="cls-5" d="M380.94,311.66l.42.79-2.11,1-.29-.51Zm-.23,3v5.79h-1v-5.79Z"/><path class="cls-5" d="M385.35,314.65a2.53,2.53,0,0,1,.74.48l-.44.59a2.09,2.09,0,0,0-.53-.31,1.56,1.56,0,0,0-.57-.11,1.15,1.15,0,0,0-1,.55,3.22,3.22,0,0,0-.36,1.72c0,1.45.46,2.18,1.37,2.18a1.47,1.47,0,0,0,.56-.11,2.55,2.55,0,0,0,.54-.31l.46.6a2.3,2.3,0,0,1-1.6.64,2.13,2.13,0,0,1-1.74-.77,3.42,3.42,0,0,1-.63-2.22,4.11,4.11,0,0,1,.29-1.64,2.42,2.42,0,0,1,.82-1.07,2.14,2.14,0,0,1,1.25-.37A2.34,2.34,0,0,1,385.35,314.65Z"/><path class="cls-5" d="M391.23,317.88h-3.36a2.41,2.41,0,0,0,.41,1.45,1.2,1.2,0,0,0,1,.45,2,2,0,0,0,.71-.12,2.34,2.34,0,0,0,.65-.4l.44.59a2.71,2.71,0,0,1-1.85.72,2.09,2.09,0,0,1-1.75-.79,3.43,3.43,0,0,1-.62-2.2,3.75,3.75,0,0,1,.59-2.25,2.09,2.09,0,0,1,3.26-.09,3.5,3.5,0,0,1,.56,2.12A5.11,5.11,0,0,1,391.23,317.88Zm-.93-.82c0-1.21-.4-1.81-1.2-1.81a1,1,0,0,0-.87.45,2.93,2.93,0,0,0-.36,1.48h2.43Z"/><path class="cls-5" d="M39.37,575.9v7.36h-1v-6.32l-1.53,1-.45-.66,2.09-1.41Z"/><path class="cls-5" d="M44.56,578.69a1.78,1.78,0,0,1,.65.79,3.1,3.1,0,0,1,.24,1.29,3.58,3.58,0,0,1-.26,1.41,2.08,2.08,0,0,1-.76.91,2,2,0,0,1-1.11.32,1.88,1.88,0,0,1-1.73-.93,5.08,5.08,0,0,1-.56-2.59,6.75,6.75,0,0,1,.32-2.19,3,3,0,0,1,.9-1.42,2.07,2.07,0,0,1,1.38-.5,2.18,2.18,0,0,1,1.36.45l-.38.63a1.76,1.76,0,0,0-1-.31,1.27,1.27,0,0,0-1.14.75,4.71,4.71,0,0,0-.48,2.07,1.89,1.89,0,0,1,1.61-1A1.65,1.65,0,0,1,44.56,578.69Zm-.39,3.47a2.61,2.61,0,0,0,.29-1.37,2.07,2.07,0,0,0-.28-1.23.88.88,0,0,0-.76-.39,1.22,1.22,0,0,0-.77.28,2.42,2.42,0,0,0-.62.76,4.47,4.47,0,0,0,.33,1.84,1,1,0,0,0,1,.59A.94.94,0,0,0,44.17,582.16Z"/><path class="cls-5" d="M46.23,579.73v-.81h4.52v.81Z"/><path class="cls-5" d="M54.41,576a1.71,1.71,0,0,1,.7.71,2.05,2.05,0,0,1,.24,1A3.2,3.2,0,0,1,55.1,579a6.73,6.73,0,0,1-.83,1.34c-.39.49-1,1.19-1.76,2.09h3l-.12.81h-4v-.77c.85-1,1.47-1.72,1.86-2.23a6.33,6.33,0,0,0,.82-1.3,3,3,0,0,0,.23-1.15,1.34,1.34,0,0,0-.29-.91,1,1,0,0,0-.79-.31,1.37,1.37,0,0,0-.72.18,2.69,2.69,0,0,0-.64.6l-.62-.48a2.45,2.45,0,0,1,2.06-1.11A2.16,2.16,0,0,1,54.41,576Z"/><path class="cls-5" d="M61,580.66v.79h-.84v1.81H59.2v-1.81H56.32v-.72l2-5,.84.32-1.8,4.57h1.88l.1-2h.84v2Z"/><path class="cls-7" d="M379.83,274.57a3.52,3.52,0,1,0-3.52,3.52,3.52,3.52,0,0,0,3.52-3.52Z"/><path class="cls-8" d="M379.83,265.19a3.52,3.52,0,1,0-3.52,3.52,3.52,3.52,0,0,0,3.52-3.52Z"/><path class="cls-6" d="M55.85,365a3.52,3.52,0,1,0-3.51,3.52A3.51,3.51,0,0,0,55.85,365Z"/><path class="cls-7" d="M55.85,367.73a3.52,3.52,0,1,0-3.51,3.52,3.51,3.51,0,0,0,3.51-3.52Z"/><line class="cls-9" x1="236.35" y1="294.85" x2="236.35" y2="296.4"/><line class="cls-9" x1="189.71" y1="294.85" x2="189.71" y2="296.4"/><line class="cls-9" x1="96.44" y1="294.85" x2="96.44" y2="296.4"/><line class="cls-9" x1="376.26" y1="294.85" x2="376.26" y2="296.4"/><line class="cls-9" x1="329.62" y1="294.85" x2="329.62" y2="296.4"/><line class="cls-9" x1="282.99" y1="294.85" x2="282.99" y2="296.4"/><line class="cls-9" x1="143.08" y1="294.85" x2="143.08" y2="296.4"/><line class="cls-9" x1="49.81" y1="294.85" x2="49.81" y2="296.4"/><line class="cls-9" x1="283.4" y1="569.55" x2="283.4" y2="571.1"/><line class="cls-9" x1="237.17" y1="569.55" x2="237.17" y2="571.1"/><line class="cls-9" x1="98.47" y1="569.55" x2="98.47" y2="571.1"/><line class="cls-9" x1="144.7" y1="569.55" x2="144.7" y2="571.1"/><line class="cls-9" x1="375.87" y1="569.55" x2="375.87" y2="571.1"/><line class="cls-9" x1="329.64" y1="569.55" x2="329.64" y2="571.1"/><line class="cls-9" x1="190.94" y1="569.55" x2="190.94" y2="571.1"/><line class="cls-9" x1="52.23" y1="569.55" x2="52.23" y2="571.1"/><path class="cls-6" d="M4.73,46.09a3.59,3.59,0,1,0,3.59,3.59,3.59,3.59,0,0,0-3.59-3.59Z"/><path class="cls-6" d="M19,47.6v1l-2.82,3.71H19l-.14,1.1H14.52v-1l2.82-3.71H14.76V47.6Z"/><path class="cls-6" d="M24.51,52.38a.65.65,0,0,0,.34.25l-.3.93a1.84,1.84,0,0,1-.81-.24,1.22,1.22,0,0,1-.48-.6,1.84,1.84,0,0,1-.74.65,2.33,2.33,0,0,1-1,.22,1.88,1.88,0,0,1-1.37-.5,1.72,1.72,0,0,1-.51-1.3,1.66,1.66,0,0,1,.69-1.44,3.25,3.25,0,0,1,2-.5H23v-.33a1,1,0,0,0-.26-.79,1.25,1.25,0,0,0-.83-.23,5,5,0,0,0-1.54.31l-.33-1a6.07,6.07,0,0,1,2.11-.41c1.49,0,2.23.66,2.23,2v2.44A.93.93,0,0,0,24.51,52.38ZM23,44.4l.57,1.1-2.49,1-.39-.71Zm0,7.45V50.67h-.58c-.91,0-1.37.34-1.37,1a.92.92,0,0,0,.21.65.78.78,0,0,0,.62.23A1.26,1.26,0,0,0,23,51.85Z"/><path class="cls-6" d="M27.52,45.12v8.3H26.11V45.27ZM31,47.6l-1.94,2.56,2.12,3.26H29.57l-2-3.18,1.95-2.64Z"/><path class="cls-6" d="M32.31,53.19a1.51,1.51,0,0,1-.38-1.1V45.27l1.41-.15v6.93c0,.27.11.4.33.4A1.26,1.26,0,0,0,34,52.4l.29,1a2.25,2.25,0,0,1-.93.2A1.36,1.36,0,0,1,32.31,53.19Z"/><path class="cls-6" d="M39.63,52.38a.69.69,0,0,0,.34.25l-.3.93a1.84,1.84,0,0,1-.81-.24,1.26,1.26,0,0,1-.47-.6,1.87,1.87,0,0,1-.75.65,2.28,2.28,0,0,1-1,.22,1.9,1.9,0,0,1-1.38-.5,1.76,1.76,0,0,1-.5-1.3,1.68,1.68,0,0,1,.68-1.44,3.28,3.28,0,0,1,2-.5h.72v-.33a1,1,0,0,0-.25-.79,1.27,1.27,0,0,0-.83-.23,5,5,0,0,0-1.54.31l-.33-1a6,6,0,0,1,2.11-.41c1.49,0,2.23.66,2.23,2v2.44A.94.94,0,0,0,39.63,52.38Zm-1.49-.53V50.67h-.58c-.91,0-1.36.34-1.36,1a.92.92,0,0,0,.21.65.76.76,0,0,0,.61.23A1.24,1.24,0,0,0,38.14,51.85Z"/><path class="cls-6" d="M46.13,45.27v8.15H44.89l-.1-.74a2.1,2.1,0,0,1-.7.66,1.91,1.91,0,0,1-1,.25,1.88,1.88,0,0,1-1.64-.83,3.89,3.89,0,0,1-.57-2.24,4.14,4.14,0,0,1,.28-1.59,2.58,2.58,0,0,1,.82-1.1,2.06,2.06,0,0,1,1.24-.39,2,2,0,0,1,1.46.62V45.12Zm-2,7.07a1.86,1.86,0,0,0,.54-.57V49.11a1.93,1.93,0,0,0-.51-.46,1.08,1.08,0,0,0-.6-.16,1,1,0,0,0-.88.5,2.81,2.81,0,0,0-.33,1.52,3.1,3.1,0,0,0,.29,1.54.92.92,0,0,0,.83.47A1.21,1.21,0,0,0,44.18,52.34Z"/><path class="cls-6" d="M52.14,47.9a1.87,1.87,0,0,1,.44,1.31v4.21H51.17v-4A1.13,1.13,0,0,0,51,48.7a.67.67,0,0,0-.54-.21,1,1,0,0,0-.65.23,2.67,2.67,0,0,0-.57.65v4.05H47.82V47.6H49l.11.76a2.16,2.16,0,0,1,1.78-.92A1.57,1.57,0,0,1,52.14,47.9Z"/><path class="cls-6" d="M55.75,44.4l.58,1.1-2.49,1-.4-.71Zm-.13,3.2v5.82H54.21V47.6Z"/><path class="cls-6" d="M64,48.13l-.55.82A2.76,2.76,0,0,0,62,48.48a1.1,1.1,0,0,0-.65.16.51.51,0,0,0-.23.42.48.48,0,0,0,.1.33.83.83,0,0,0,.36.25,5.82,5.82,0,0,0,.76.26,3.32,3.32,0,0,1,1.4.67,1.49,1.49,0,0,1,.46,1.17,1.57,1.57,0,0,1-.71,1.36,3,3,0,0,1-1.74.49,3.87,3.87,0,0,1-1.31-.22,3.26,3.26,0,0,1-1-.61l.71-.79a2.6,2.6,0,0,0,1.58.57,1.32,1.32,0,0,0,.76-.19.59.59,0,0,0,.28-.51.71.71,0,0,0-.11-.41,1,1,0,0,0-.37-.26,7.31,7.31,0,0,0-.84-.28,2.78,2.78,0,0,1-1.31-.68,1.49,1.49,0,0,1-.42-1.08,1.43,1.43,0,0,1,.28-.87,1.87,1.87,0,0,1,.79-.6,2.87,2.87,0,0,1,1.17-.22A3.27,3.27,0,0,1,64,48.13Zm-.6-3.51.54.62-1.53,1.37H61.5L60,45.24l.54-.62,1.43,1Z"/><path class="cls-6" d="M66.71,45.12v8.3H65.3V45.27ZM70.2,47.6l-1.94,2.56,2.12,3.26H68.77l-2-3.18,1.94-2.64Z"/><path class="cls-6" d="M75.56,48.26a3.27,3.27,0,0,1,.72,2.25A3.77,3.77,0,0,1,76,52.12a2.5,2.5,0,0,1-1,1.08,2.65,2.65,0,0,1-1.46.39,2.56,2.56,0,0,1-2-.82,3.27,3.27,0,0,1-.73-2.26,3.7,3.7,0,0,1,.33-1.61,2.56,2.56,0,0,1,1-1.08,2.73,2.73,0,0,1,1.47-.38A2.52,2.52,0,0,1,75.56,48.26Zm-3.27,2.25A2.9,2.9,0,0,0,72.6,52a1.14,1.14,0,0,0,1.88,0,3.75,3.75,0,0,0,0-3,1,1,0,0,0-.93-.49Q72.29,48.5,72.29,50.51Z"/><path class="cls-6" d="M77.93,53.19a1.47,1.47,0,0,1-.38-1.1V45.27l1.4-.15v6.93c0,.27.11.4.33.4a1.26,1.26,0,0,0,.33-.05l.3,1a2.25,2.25,0,0,1-.93.2A1.36,1.36,0,0,1,77.93,53.19Z"/><path class="cls-6" d="M85.25,52.38a.65.65,0,0,0,.34.25l-.3.93a1.84,1.84,0,0,1-.81-.24,1.22,1.22,0,0,1-.48-.6,1.84,1.84,0,0,1-.74.65,2.32,2.32,0,0,1-1,.22,1.9,1.9,0,0,1-1.38-.5,1.72,1.72,0,0,1-.51-1.3,1.66,1.66,0,0,1,.69-1.44,3.25,3.25,0,0,1,2-.5h.73v-.33a1,1,0,0,0-.26-.79,1.25,1.25,0,0,0-.83-.23,5.1,5.1,0,0,0-1.54.31l-.33-1a6.07,6.07,0,0,1,2.11-.41c1.49,0,2.24.66,2.24,2v2.44A.94.94,0,0,0,85.25,52.38Zm-1.49-.53V50.67h-.58c-.91,0-1.37.34-1.37,1a.92.92,0,0,0,.21.65.78.78,0,0,0,.62.23A1.26,1.26,0,0,0,83.76,51.85Z"/><path class="cls-6" d="M92.05,44.65a9.28,9.28,0,0,0-1.18,2.26,9.71,9.71,0,0,0,0,5.31,9.33,9.33,0,0,0,1.18,2.27l-.9.6c-.47-.66-.85-1.23-1.13-1.7a7,7,0,0,1-.68-1.65,8.55,8.55,0,0,1,0-4.34A7,7,0,0,1,90,45.75c.28-.47.66-1,1.13-1.7Z"/><path class="cls-6" d="M94.5,44.9a.82.82,0,0,1,.25.61.81.81,0,0,1-.25.61.88.88,0,0,1-.64.24.85.85,0,0,1-.63-.24.81.81,0,0,1-.25-.61.82.82,0,0,1,.25-.61.86.86,0,0,1,.63-.25A.88.88,0,0,1,94.5,44.9Zm.07,2.7v5.82h-1.4V47.6Z"/><path class="cls-6" d="M103.34,47.9a1.91,1.91,0,0,1,.43,1.31v4.21h-1.41v-4a1.13,1.13,0,0,0-.18-.73.66.66,0,0,0-.53-.21,1.06,1.06,0,0,0-.66.23,2.66,2.66,0,0,0-.56.65v4.05H99V47.6h1.22l.11.76a2.14,2.14,0,0,1,1.77-.92A1.59,1.59,0,0,1,103.34,47.9Z"/><path class="cls-6" d="M110.15,51H106.5a1.85,1.85,0,0,0,.44,1.21,1.37,1.37,0,0,0,1,.36,1.92,1.92,0,0,0,.72-.13,3.08,3.08,0,0,0,.73-.39l.58.8a3.29,3.29,0,0,1-2.15.79,2.62,2.62,0,0,1-2.06-.82,3.22,3.22,0,0,1-.72-2.22,4.08,4.08,0,0,1,.31-1.6,2.59,2.59,0,0,1,.89-1.11,2.67,2.67,0,0,1,3.28.37,3.19,3.19,0,0,1,.67,2.16C110.18,50.45,110.17,50.64,110.15,51Zm-1.36-1q0-1.53-1.14-1.53a1,1,0,0,0-.81.38A2.21,2.21,0,0,0,106.5,50h2.29Z"/><path class="cls-6" d="M116.34,45.27v8.15H115.1l-.1-.74a2,2,0,0,1-.7.66,1.91,1.91,0,0,1-1,.25,1.88,1.88,0,0,1-1.64-.83,3.89,3.89,0,0,1-.57-2.24,4.14,4.14,0,0,1,.28-1.59,2.58,2.58,0,0,1,.82-1.1,2.06,2.06,0,0,1,1.24-.39,2,2,0,0,1,1.46.62V45.12Zm-2,7.07a1.66,1.66,0,0,0,.54-.57V49.11a1.66,1.66,0,0,0-.51-.46,1.08,1.08,0,0,0-.6-.16,1,1,0,0,0-.88.5,2.81,2.81,0,0,0-.33,1.52,3.1,3.1,0,0,0,.29,1.54.93.93,0,0,0,.84.47A1.2,1.2,0,0,0,114.39,52.34Z"/><path class="cls-6" d="M122.42,48.26a3.27,3.27,0,0,1,.72,2.25,3.77,3.77,0,0,1-.33,1.61,2.56,2.56,0,0,1-1,1.08,2.65,2.65,0,0,1-1.46.39,2.56,2.56,0,0,1-2-.82,3.27,3.27,0,0,1-.73-2.26A3.7,3.7,0,0,1,118,48.9a2.56,2.56,0,0,1,1-1.08,2.73,2.73,0,0,1,1.47-.38A2.52,2.52,0,0,1,122.42,48.26Zm-3.27,2.25a2.9,2.9,0,0,0,.31,1.52,1.14,1.14,0,0,0,1.88,0,3.75,3.75,0,0,0,0-3,1,1,0,0,0-.93-.49Q119.15,48.5,119.15,50.51Z"/><path class="cls-6" d="M125.87,45.12v8.3h-1.41V45.27Zm3.48,2.48-1.93,2.56,2.12,3.26h-1.61l-2-3.18,2-2.64Z"/><path class="cls-6" d="M134.72,48.26a3.27,3.27,0,0,1,.72,2.25,3.77,3.77,0,0,1-.33,1.61,2.56,2.56,0,0,1-1,1.08,2.68,2.68,0,0,1-1.46.39,2.56,2.56,0,0,1-2-.82,3.27,3.27,0,0,1-.73-2.26,3.7,3.7,0,0,1,.33-1.61,2.56,2.56,0,0,1,1-1.08,2.73,2.73,0,0,1,1.47-.38A2.52,2.52,0,0,1,134.72,48.26Zm-3.28,2.25a2.89,2.89,0,0,0,.32,1.52,1.14,1.14,0,0,0,1.88,0,3.86,3.86,0,0,0,0-3,1,1,0,0,0-.93-.49C131.87,48.5,131.44,49.17,131.44,50.51Z"/><path class="cls-6" d="M141.08,47.9a1.86,1.86,0,0,1,.43,1.31v4.21H140.1v-4a1.13,1.13,0,0,0-.18-.73.66.66,0,0,0-.53-.21,1.06,1.06,0,0,0-.66.23,2.66,2.66,0,0,0-.56.65v4.05h-1.41V47.6H138l.11.76a2.16,2.16,0,0,1,1.77-.92A1.59,1.59,0,0,1,141.08,47.9Z"/><path class="cls-6" d="M146.52,47.6a2.68,2.68,0,0,1,.86.52l-.62.85a2.08,2.08,0,0,0-.57-.32,1.74,1.74,0,0,0-.61-.1c-.87,0-1.31.66-1.31,2a2.44,2.44,0,0,0,.34,1.46,1.17,1.17,0,0,0,1,.44,1.52,1.52,0,0,0,.57-.1,3.32,3.32,0,0,0,.61-.32l.62.89a2.88,2.88,0,0,1-1.88.68,2.84,2.84,0,0,1-1.45-.37,2.48,2.48,0,0,1-1-1,3.82,3.82,0,0,1-.33-1.61,4,4,0,0,1,.33-1.63,2.5,2.5,0,0,1,1-1.1,2.63,2.63,0,0,1,1.44-.39A3,3,0,0,1,146.52,47.6Zm.4-3,.54.62-1.53,1.37h-.88l-1.53-1.37.54-.62,1.43,1Z"/><path class="cls-6" d="M153.15,51H149.5a1.85,1.85,0,0,0,.44,1.21,1.37,1.37,0,0,0,1,.36,1.92,1.92,0,0,0,.72-.13,3.08,3.08,0,0,0,.73-.39l.58.8a3.29,3.29,0,0,1-2.15.79,2.62,2.62,0,0,1-2.06-.82,3.22,3.22,0,0,1-.72-2.22,4.08,4.08,0,0,1,.31-1.6,2.59,2.59,0,0,1,.89-1.11,2.67,2.67,0,0,1,3.28.37,3.19,3.19,0,0,1,.67,2.16C153.18,50.45,153.17,50.64,153.15,51Zm-1.37-1c0-1-.37-1.53-1.13-1.53a1,1,0,0,0-.81.38A2.21,2.21,0,0,0,149.5,50h2.28Z"/><path class="cls-6" d="M158.76,47.9a1.87,1.87,0,0,1,.44,1.31v4.21h-1.41v-4a1.13,1.13,0,0,0-.18-.73.67.67,0,0,0-.54-.21,1,1,0,0,0-.65.23,2.9,2.9,0,0,0-.57.65v4.05h-1.4V47.6h1.22l.11.76a2.13,2.13,0,0,1,1.77-.92A1.57,1.57,0,0,1,158.76,47.9Z"/><path class="cls-6" d="M165.24,52.38a.65.65,0,0,0,.34.25l-.3.93a1.84,1.84,0,0,1-.81-.24,1.22,1.22,0,0,1-.48-.6,1.78,1.78,0,0,1-.74.65,2.32,2.32,0,0,1-1,.22,1.9,1.9,0,0,1-1.38-.5,1.72,1.72,0,0,1-.51-1.3,1.66,1.66,0,0,1,.69-1.44,3.28,3.28,0,0,1,2-.5h.72v-.33a1,1,0,0,0-.26-.79,1.25,1.25,0,0,0-.83-.23,5.1,5.1,0,0,0-1.54.31l-.33-1a6.07,6.07,0,0,1,2.11-.41c1.49,0,2.24.66,2.24,2v2.44A.94.94,0,0,0,165.24,52.38Zm-1.49-8,.57,1.1-2.48,1-.4-.71Zm0,7.45V50.67h-.58c-.91,0-1.36.34-1.36,1a.92.92,0,0,0,.2.65.78.78,0,0,0,.62.23A1.24,1.24,0,0,0,163.75,51.85Z"/><path class="cls-6" d="M168.29,45.74a7.87,7.87,0,0,1,.69,1.65,8.94,8.94,0,0,1,0,4.36,7.87,7.87,0,0,1-.69,1.65c-.28.47-.65,1-1.13,1.69l-.89-.6a9.33,9.33,0,0,0,1.18-2.27,8.27,8.27,0,0,0,.37-2.65,8.16,8.16,0,0,0-.37-2.64,9.57,9.57,0,0,0-1.18-2.28l.89-.6C167.64,44.71,168,45.27,168.29,45.74Z"/><path class="cls-7" d="M193.15,46.09a3.59,3.59,0,1,0,3.59,3.59,3.59,3.59,0,0,0-3.59-3.59Z"/><path class="cls-7" d="M207.49,48.09l-.55.83a2.65,2.65,0,0,0-1.46-.47,1.12,1.12,0,0,0-.65.16.48.48,0,0,0-.23.42.52.52,0,0,0,.1.33,1,1,0,0,0,.36.25,6.11,6.11,0,0,0,.76.25,3.43,3.43,0,0,1,1.41.68,1.48,1.48,0,0,1,.45,1.16,1.56,1.56,0,0,1-.7,1.36,3,3,0,0,1-1.75.49,3.58,3.58,0,0,1-1.3-.22,3,3,0,0,1-1-.61l.7-.79a2.63,2.63,0,0,0,1.59.57,1.39,1.39,0,0,0,.75-.18.59.59,0,0,0,.28-.52.76.76,0,0,0-.1-.4.82.82,0,0,0-.38-.26c-.18-.08-.46-.17-.84-.29a2.82,2.82,0,0,1-1.31-.67,1.56,1.56,0,0,1-.14-2,1.92,1.92,0,0,1,.8-.6,2.87,2.87,0,0,1,1.17-.22A3.26,3.26,0,0,1,207.49,48.09Z"/><path class="cls-7" d="M212.16,53.11a2.2,2.2,0,0,1-.69.33,2.87,2.87,0,0,1-.77.11,1.74,1.74,0,0,1-1.31-.49,2,2,0,0,1-.44-1.41V48.58H208v-1H209V46.28l1.4-.17v1.46h1.36l-.15,1h-1.21v3a1,1,0,0,0,.15.62.59.59,0,0,0,.47.19,1.43,1.43,0,0,0,.69-.21Z"/><path class="cls-7" d="M216.13,44.58l.54.62-1.53,1.38h-.88l-1.53-1.38.54-.62,1.43,1Zm.27,2.91-.24,1.36a2.29,2.29,0,0,0-.51-.06,1,1,0,0,0-.82.36,2.93,2.93,0,0,0-.47,1.13v3.11H213V47.57h1.22l.13,1.14a2,2,0,0,1,.61-1,1.34,1.34,0,0,1,.91-.34A2.08,2.08,0,0,1,216.4,47.49Z"/><path class="cls-7" d="M222,50.91h-3.66a1.88,1.88,0,0,0,.44,1.21,1.37,1.37,0,0,0,1,.36,2.19,2.19,0,0,0,.73-.12,4,4,0,0,0,.73-.39l.58.8a3.38,3.38,0,0,1-2.16.78,2.61,2.61,0,0,1-2.05-.81,3.27,3.27,0,0,1-.72-2.23,3.94,3.94,0,0,1,.31-1.6,2.52,2.52,0,0,1,.89-1.11,2.65,2.65,0,0,1,3.28.38,3.21,3.21,0,0,1,.67,2.16Q222.06,50.44,222,50.91Zm-1.37-1c0-1-.38-1.53-1.13-1.53a1,1,0,0,0-.81.38,2.33,2.33,0,0,0-.35,1.22h2.29Z"/><path class="cls-7" d="M228.22,45.23v8.16H227l-.1-.74a2.1,2.1,0,0,1-.7.66,1.93,1.93,0,0,1-1,.24,1.87,1.87,0,0,1-1.64-.83,3.79,3.79,0,0,1-.58-2.24,4.21,4.21,0,0,1,.29-1.59,2.47,2.47,0,0,1,.82-1.09,2.06,2.06,0,0,1,2.7.23v-3Zm-1.95,7.07a1.86,1.86,0,0,0,.54-.57V49.07a2.12,2.12,0,0,0-.51-.46,1.16,1.16,0,0,0-.6-.15,1,1,0,0,0-.89.5,2.88,2.88,0,0,0-.32,1.51,3,3,0,0,0,.29,1.54.89.89,0,0,0,.83.47A1.21,1.21,0,0,0,226.27,52.3Z"/><path class="cls-7" d="M234.23,47.87a1.82,1.82,0,0,1,.43,1.3v4.22h-1.4v-4a1,1,0,0,0-.19-.72.65.65,0,0,0-.53-.21,1,1,0,0,0-.65.22,2.38,2.38,0,0,0-.57.66v4h-1.41V47.57h1.22l.11.75A2.18,2.18,0,0,1,233,47.4,1.6,1.6,0,0,1,234.23,47.87Z"/><path class="cls-7" d="M237.84,44.36l.58,1.11-2.49,1-.4-.71Zm-.13,3.21v5.82H236.3V47.57Z"/><path class="cls-7" d="M246.06,48.09l-.55.83a2.7,2.7,0,0,0-1.46-.47,1.1,1.1,0,0,0-.65.16.46.46,0,0,0-.23.42.52.52,0,0,0,.1.33.85.85,0,0,0,.35.25,7,7,0,0,0,.77.25,3.32,3.32,0,0,1,1.4.68,1.46,1.46,0,0,1,.46,1.16,1.57,1.57,0,0,1-.71,1.36,3,3,0,0,1-1.75.49,3.62,3.62,0,0,1-1.3-.22,3.26,3.26,0,0,1-1-.61l.71-.79a2.58,2.58,0,0,0,1.58.57,1.4,1.4,0,0,0,.76-.18.62.62,0,0,0,.28-.52.68.68,0,0,0-.11-.4.78.78,0,0,0-.37-.26c-.18-.08-.46-.17-.84-.29a2.73,2.73,0,0,1-1.31-.67,1.5,1.5,0,0,1-.42-1.09,1.43,1.43,0,0,1,.28-.87,2,2,0,0,1,.79-.6A2.87,2.87,0,0,1,244,47.4,3.27,3.27,0,0,1,246.06,48.09Zm-.6-3.51.53.62-1.52,1.38h-.88l-1.53-1.38.54-.62,1.43,1Z"/><path class="cls-7" d="M248.8,45.08v8.31h-1.41V45.23Zm3.49,2.49-1.94,2.56,2.12,3.26h-1.61l-2-3.18,2-2.64Z"/><path class="cls-7" d="M257.65,48.22a3.3,3.3,0,0,1,.72,2.25,3.7,3.7,0,0,1-.33,1.61,2.45,2.45,0,0,1-1,1.08,2.68,2.68,0,0,1-1.46.39,2.52,2.52,0,0,1-2-.82,3.27,3.27,0,0,1-.73-2.26,3.73,3.73,0,0,1,.33-1.61,2.48,2.48,0,0,1,.95-1.07,2.74,2.74,0,0,1,1.47-.39A2.52,2.52,0,0,1,257.65,48.22Zm-3.27,2.25a2.85,2.85,0,0,0,.31,1.52,1.15,1.15,0,0,0,1.88,0,2.9,2.9,0,0,0,.31-1.52,2.84,2.84,0,0,0-.31-1.51,1,1,0,0,0-.93-.49C254.8,48.47,254.38,49.14,254.38,50.47Z"/><path class="cls-7" d="M260,53.16a1.54,1.54,0,0,1-.38-1.11V45.23l1.41-.15V52c0,.27.11.41.33.41a1,1,0,0,0,.33-.06l.3,1a2.3,2.3,0,0,1-.94.2A1.42,1.42,0,0,1,260,53.16Z"/><path class="cls-7" d="M267.34,52.35a.69.69,0,0,0,.34.24l-.3.94a1.84,1.84,0,0,1-.81-.24,1.29,1.29,0,0,1-.48-.61,2,2,0,0,1-.74.66,2.33,2.33,0,0,1-1,.21,1.84,1.84,0,0,1-1.37-.5,1.72,1.72,0,0,1-.51-1.29,1.68,1.68,0,0,1,.69-1.45,3.32,3.32,0,0,1,2-.5h.73v-.33a1,1,0,0,0-.26-.79,1.25,1.25,0,0,0-.83-.22,4.81,4.81,0,0,0-1.54.31l-.33-1A5.87,5.87,0,0,1,265,47.4c1.49,0,2.24.67,2.24,2v2.44A1,1,0,0,0,267.34,52.35Zm-1.49-.54V50.64h-.58c-.91,0-1.37.33-1.37,1a.94.94,0,0,0,.21.65.81.81,0,0,0,.62.23A1.25,1.25,0,0,0,265.85,51.81Z"/><path class="cls-8" d="M291.69,46.09a3.59,3.59,0,1,0,3.59,3.59,3.6,3.6,0,0,0-3.59-3.59Z"/><path class="cls-8" d="M306.8,47.57l-1.89,5.82h-1.69l-1.92-5.82h1.53l1.24,4.68,1.28-4.68Z"/><path class="cls-8" d="M310.48,53.41a3.55,3.55,0,0,1-1.06,1.67,3.36,3.36,0,0,1-2,.7l-.15-1a3.33,3.33,0,0,0,.92-.25,1.5,1.5,0,0,0,.56-.42,2.68,2.68,0,0,0,.38-.7h-.48l-1.85-5.82h1.5l1.26,4.88,1.32-4.88h1.45Z"/><path class="cls-8" d="M317.14,48.09l-.55.83a2.71,2.71,0,0,0-1.47-.47,1.08,1.08,0,0,0-.64.16.47.47,0,0,0-.24.42.59.59,0,0,0,.1.33,1,1,0,0,0,.36.25,6.38,6.38,0,0,0,.77.25,3.38,3.38,0,0,1,1.4.68,1.48,1.48,0,0,1,.45,1.16,1.56,1.56,0,0,1-.7,1.36,3,3,0,0,1-1.75.49,3.58,3.58,0,0,1-1.3-.22,3.26,3.26,0,0,1-1-.61l.71-.79a2.58,2.58,0,0,0,1.58.57,1.36,1.36,0,0,0,.75-.18.59.59,0,0,0,.28-.52.68.68,0,0,0-.1-.4.82.82,0,0,0-.38-.26c-.18-.08-.46-.17-.84-.29a2.82,2.82,0,0,1-1.31-.67,1.54,1.54,0,0,1-.41-1.09,1.43,1.43,0,0,1,.28-.87,1.89,1.89,0,0,1,.79-.6,2.87,2.87,0,0,1,1.17-.22A3.31,3.31,0,0,1,317.14,48.09Z"/><path class="cls-8" d="M322.85,48.22a3.3,3.3,0,0,1,.72,2.25,3.7,3.7,0,0,1-.33,1.61,2.43,2.43,0,0,1-.94,1.08,2.69,2.69,0,0,1-1.47.39,2.55,2.55,0,0,1-2-.82,3.31,3.31,0,0,1-.72-2.26,3.59,3.59,0,0,1,.33-1.61,2.36,2.36,0,0,1,.95-1.07,2.69,2.69,0,0,1,1.47-.39A2.52,2.52,0,0,1,322.85,48.22Zm-3.27,2.25a2.85,2.85,0,0,0,.31,1.52,1,1,0,0,0,.94.49,1,1,0,0,0,.94-.49,2.89,2.89,0,0,0,.32-1.52,2.83,2.83,0,0,0-.32-1.51,1,1,0,0,0-.92-.49C320,48.47,319.58,49.14,319.58,50.47Z"/><path class="cls-8" d="M326.3,45.08v8.31h-1.41V45.23Zm3.49,2.49-1.94,2.56L330,53.39h-1.62l-2-3.18,1.94-2.64Z"/><path class="cls-8" d="M335.17,52.35a.69.69,0,0,0,.34.24l-.3.94a1.84,1.84,0,0,1-.81-.24,1.29,1.29,0,0,1-.48-.61,1.88,1.88,0,0,1-.74.66,2.31,2.31,0,0,1-1,.21,1.86,1.86,0,0,1-1.38-.5,1.71,1.71,0,0,1-.5-1.29,1.67,1.67,0,0,1,.68-1.45,3.33,3.33,0,0,1,2-.5h.72v-.33a1,1,0,0,0-.26-.79,1.25,1.25,0,0,0-.83-.22,4.81,4.81,0,0,0-1.54.31l-.33-1a5.87,5.87,0,0,1,2.11-.42c1.49,0,2.24.67,2.24,2v2.44A1,1,0,0,0,335.17,52.35Zm-1.49-8,.57,1.11-2.48,1-.4-.71Zm0,7.45V50.64h-.58c-.91,0-1.37.33-1.37,1a.94.94,0,0,0,.21.65.81.81,0,0,0,.62.23A1.24,1.24,0,0,0,333.68,51.81Z"/><path class="cls-8" d="M343.43,48.09l-.55.83a2.71,2.71,0,0,0-1.47-.47,1.08,1.08,0,0,0-.64.16.47.47,0,0,0-.24.42.59.59,0,0,0,.1.33,1,1,0,0,0,.36.25,6.38,6.38,0,0,0,.77.25,3.38,3.38,0,0,1,1.4.68,1.48,1.48,0,0,1,.45,1.16,1.56,1.56,0,0,1-.7,1.36,3,3,0,0,1-1.75.49,3.62,3.62,0,0,1-1.3-.22,3.26,3.26,0,0,1-1-.61l.7-.79a2.63,2.63,0,0,0,1.59.57,1.39,1.39,0,0,0,.75-.18.59.59,0,0,0,.28-.52.68.68,0,0,0-.1-.4.82.82,0,0,0-.38-.26c-.18-.08-.46-.17-.84-.29a2.82,2.82,0,0,1-1.31-.67,1.54,1.54,0,0,1-.41-1.09,1.43,1.43,0,0,1,.28-.87,1.89,1.89,0,0,1,.79-.6,2.87,2.87,0,0,1,1.17-.22A3.31,3.31,0,0,1,343.43,48.09Zm-.61-3.51.54.62-1.53,1.38H341l-1.53-1.38.54-.62,1.43,1Z"/><path class="cls-8" d="M346.17,45.08v8.31h-1.41V45.23Zm3.48,2.49-1.93,2.56,2.12,3.26h-1.62l-2-3.18,1.95-2.64Z"/><path class="cls-8" d="M355,48.22a3.3,3.3,0,0,1,.72,2.25,3.7,3.7,0,0,1-.33,1.61,2.45,2.45,0,0,1-1,1.08,2.68,2.68,0,0,1-1.46.39,2.56,2.56,0,0,1-2-.82,3.31,3.31,0,0,1-.72-2.26,3.73,3.73,0,0,1,.33-1.61,2.48,2.48,0,0,1,1-1.07A2.69,2.69,0,0,1,353,47.4,2.52,2.52,0,0,1,355,48.22Zm-3.28,2.25a2.84,2.84,0,0,0,.32,1.52,1.15,1.15,0,0,0,1.88,0,2.9,2.9,0,0,0,.31-1.52,2.84,2.84,0,0,0-.31-1.51,1,1,0,0,0-.93-.49C352.17,48.47,351.74,49.14,351.74,50.47Z"/><path class="cls-8" d="M357.38,53.16a1.54,1.54,0,0,1-.38-1.11V45.23l1.41-.15V52c0,.27.11.41.33.41a1,1,0,0,0,.33-.06l.3,1a2.33,2.33,0,0,1-.94.2A1.39,1.39,0,0,1,357.38,53.16Z"/><path class="cls-8" d="M364.71,52.35a.71.71,0,0,0,.33.24l-.29.94a1.84,1.84,0,0,1-.81-.24,1.29,1.29,0,0,1-.48-.61,2,2,0,0,1-.74.66,2.33,2.33,0,0,1-1,.21,1.82,1.82,0,0,1-1.37-.5,1.72,1.72,0,0,1-.51-1.29,1.68,1.68,0,0,1,.69-1.45,3.32,3.32,0,0,1,2-.5h.73v-.33a1,1,0,0,0-.26-.79,1.25,1.25,0,0,0-.83-.22,4.76,4.76,0,0,0-1.54.31l-.33-1a5.83,5.83,0,0,1,2.11-.42c1.49,0,2.23.67,2.23,2v2.44A1,1,0,0,0,364.71,52.35Zm-1.49-.54V50.64h-.59c-.91,0-1.36.33-1.36,1a.94.94,0,0,0,.21.65.79.79,0,0,0,.61.23A1.26,1.26,0,0,0,363.22,51.81Z"/><path class="cls-6" d="M378.87,555.12a3.52,3.52,0,1,0-3.52,3.52,3.52,3.52,0,0,0,3.52-3.52Z"/><path class="cls-7" d="M378.87,553.87a3.52,3.52,0,1,0-3.52,3.51,3.52,3.52,0,0,0,3.52-3.51Z"/><path class="cls-8" d="M378.87,557.26a3.52,3.52,0,1,0-3.52,3.52,3.51,3.51,0,0,0,3.52-3.52Z"/><line class="cls-2" x1="52.23" y1="523.37" x2="375.35" y2="523.37"/><line class="cls-2" x1="52.23" y1="480.53" x2="375.35" y2="480.53"/><line class="cls-2" x1="52.23" y1="437.69" x2="375.35" y2="437.69"/><line class="cls-2" x1="52.23" y1="394.86" x2="375.35" y2="394.86"/><g class="cls-3"><line class="cls-2" x1="52.23" y1="544.78" x2="375.35" y2="544.78"/><line class="cls-2" x1="52.23" y1="501.95" x2="375.35" y2="501.95"/><line class="cls-2" x1="52.23" y1="459.11" x2="375.35" y2="459.11"/><line class="cls-2" x1="52.23" y1="416.28" x2="375.35" y2="416.28"/><line class="cls-2" x1="52.23" y1="373.44" x2="375.35" y2="373.44"/></g><line class="cls-2" x1="52.23" y1="352.02" x2="375.35" y2="352.02"/><line class="cls-2" x1="52.23" y1="566.2" x2="375.35" y2="566.2"/><polyline class="cls-10" points="98.39 356.49 144.55 371.4 190.71 384.17 236.87 424.81 283.03 455.54 329.19 494.93 375.35 557.27"/><polyline class="cls-11" points="52.23 364.88 98.39 426.33 144.55 418.11 190.71 498.41 236.87 501.62 283.03 511.81 329.19 546.19 375.35 555.13"/><polyline class="cls-12" points="52.23 367.74 98.39 376.85 144.55 385.69 190.71 419.19 236.87 460.09 283.03 497.34 329.19 525.65 375.35 553.78"/><polyline class="cls-10" points="96.47 86.3 143.14 97.64 189.7 110.68 236.37 145.43 283.03 180.08 329.7 234.74 376.26 265.11"/><polyline class="cls-11" points="49.81 84.33 96.47 91.66 143.14 148.82 189.7 209.82 236.37 237.69 283.03 242.42 329.7 273.24"/><polyline class="cls-12" points="49.81 83.08 96.47 96.3 143.14 109.16 189.7 143.46 236.37 190.35 283.03 215.63 329.7 252.07 376.26 274.58"/></svg>