<svg id="Layer_1" data-name="Layer 1" xmlns="http://www.w3.org/2000/svg" viewBox="0 0 620 659.92"><defs><style>.cls-1,.cls-2,.cls-8{fill:none;}.cls-1{stroke:#043565;}.cls-1,.cls-8{stroke-miterlimit:10;}.cls-1,.cls-2{stroke-width:0.5px;}.cls-2{stroke:#d9d9d9;stroke-linecap:round;stroke-linejoin:round;stroke-dasharray:1 3 1 0;}.cls-3{isolation:isolate;}.cls-4{fill:#666;}.cls-5{fill:#eb4b98;}.cls-6{fill:#24a3bb;}.cls-7{fill:#043565;}.cls-8{stroke:#606060;}</style></defs><line class="cls-1" x1="414.84" y1="118.82" x2="448.2" y2="118.82"/><line class="cls-1" x1="425.64" y1="146.78" x2="452.52" y2="146.78"/><line class="cls-1" x1="436.08" y1="174.86" x2="454.68" y2="174.86"/><line class="cls-1" x1="443.4" y1="202.94" x2="460.8" y2="202.94"/><line class="cls-1" x1="433.51" y1="230.9" x2="450.36" y2="230.9"/><line class="cls-1" x1="445.56" y1="258.98" x2="461.72" y2="258.98"/><line class="cls-1" x1="419.64" y1="287.06" x2="438.94" y2="287.06"/><line class="cls-1" x1="445.2" y1="315.02" x2="458.94" y2="315.02"/><line class="cls-1" x1="446.04" y1="343.1" x2="459.48" y2="343.1"/><line class="cls-1" x1="418.8" y1="371.18" x2="430.89" y2="371.18"/><line class="cls-1" x1="453" y1="427.22" x2="462.3" y2="427.22"/><line class="cls-1" x1="436" y1="567.38" x2="446.52" y2="567.38"/><line class="cls-2" x1="89.68" y1="611.62" x2="411.78" y2="611.62"/><line class="cls-2" x1="89.68" y1="582.62" x2="411.78" y2="582.62"/><line class="cls-2" x1="89.68" y1="553.62" x2="411.78" y2="553.62"/><line class="cls-2" x1="89.68" y1="524.62" x2="411.78" y2="524.62"/><line class="cls-2" x1="89.68" y1="495.62" x2="411.78" y2="495.62"/><line class="cls-2" x1="89.68" y1="466.62" x2="411.78" y2="466.62"/><line class="cls-2" x1="89.68" y1="437.62" x2="411.78" y2="437.62"/><line class="cls-2" x1="89.68" y1="408.62" x2="411.78" y2="408.62"/><line class="cls-2" x1="89.68" y1="379.62" x2="411.78" y2="379.62"/><line class="cls-2" x1="89.68" y1="350.62" x2="411.78" y2="350.62"/><line class="cls-2" x1="89.68" y1="321.62" x2="411.78" y2="321.62"/><line class="cls-2" x1="89.68" y1="292.62" x2="411.78" y2="292.62"/><line class="cls-2" x1="89.68" y1="263.62" x2="411.78" y2="263.62"/><line class="cls-2" x1="89.68" y1="234.62" x2="411.78" y2="234.62"/><line class="cls-2" x1="89.68" y1="205.62" x2="411.78" y2="205.62"/><line class="cls-2" x1="89.68" y1="176.62" x2="411.78" y2="176.62"/><line class="cls-2" x1="89.68" y1="147.62" x2="411.78" y2="147.62"/><line class="cls-2" x1="89.68" y1="118.62" x2="411.78" y2="118.62"/><g class="cls-3"><path d="M18.19,22.05a3.68,3.68,0,0,1-.41,1.75A2.93,2.93,0,0,1,16.54,25a4.23,4.23,0,0,1-2,.43,3.61,3.61,0,0,1-2.66-.92A3.29,3.29,0,0,1,11,22.05V15.54h1.85V22a2.26,2.26,0,0,0,.43,1.52,1.6,1.6,0,0,0,1.31.51,1.64,1.64,0,0,0,1.32-.51A2.32,2.32,0,0,0,16.33,22V15.54h1.86Z"/><path d="M28.58,17.81V19.1L25,23.82h3.66l-.19,1.4H22.93V23.93l3.6-4.72H23.24v-1.4ZM27.67,14l.68.78-1.94,1.75H25.29L23.34,14.8,24,14l1.82,1.23Z"/><path d="M36,22.07H31.32a2.36,2.36,0,0,0,.56,1.54,1.73,1.73,0,0,0,1.26.46,2.54,2.54,0,0,0,.92-.16,4.28,4.28,0,0,0,.93-.5l.74,1a4.23,4.23,0,0,1-2.74,1,3.34,3.34,0,0,1-2.62-1,4.1,4.1,0,0,1-.91-2.82,5.08,5.08,0,0,1,.39-2A3.33,3.33,0,0,1,31,18.11a3.07,3.07,0,0,1,1.77-.51,3,3,0,0,1,2.41,1A4.08,4.08,0,0,1,36,21.34C36,21.43,36,21.68,36,22.07Zm-1.74-1.25c0-1.29-.48-1.94-1.44-1.94a1.23,1.23,0,0,0-1,.48,2.89,2.89,0,0,0-.44,1.55h2.91Z"/><path d="M43.11,18.2a2.33,2.33,0,0,1,.56,1.66v5.36H41.88V20.14a1.47,1.47,0,0,0-.23-.93A.9.9,0,0,0,41,19a1.35,1.35,0,0,0-.84.28,3.68,3.68,0,0,0-.72.84v5.15H37.62V17.81h1.55l.14,1a2.78,2.78,0,0,1,2.26-1.18A2,2,0,0,1,43.11,18.2Z"/><path d="M54.75,18.2a2.33,2.33,0,0,1,.55,1.66v5.36H53.51V20.14a1.47,1.47,0,0,0-.23-.93A.88.88,0,0,0,52.6,19a1.3,1.3,0,0,0-.83.28,3.25,3.25,0,0,0-.72.84v5.15h-1.8V17.81h1.56l.14,1A2.76,2.76,0,0,1,53.2,17.6,2,2,0,0,1,54.75,18.2Z"/><path d="M63.42,22.07H58.77a2.41,2.41,0,0,0,.56,1.54,1.73,1.73,0,0,0,1.26.46,2.6,2.6,0,0,0,.93-.16,4.23,4.23,0,0,0,.92-.5l.74,1a4.21,4.21,0,0,1-2.74,1,3.3,3.3,0,0,1-2.61-1,4.11,4.11,0,0,1-.92-2.82,5.08,5.08,0,0,1,.39-2,3.35,3.35,0,0,1,1.14-1.42,3.37,3.37,0,0,1,4.17.48,4.08,4.08,0,0,1,.85,2.75C63.46,21.43,63.45,21.68,63.42,22.07Zm-1.73-1.25c0-1.29-.49-1.94-1.45-1.94a1.24,1.24,0,0,0-1,.48,3,3,0,0,0-.44,1.55h2.92Z"/><path d="M70.56,18.21a2.29,2.29,0,0,1,.56,1.65v5.36H69.33V20.14a1.47,1.47,0,0,0-.23-.93.87.87,0,0,0-.68-.26,1.36,1.36,0,0,0-.83.28,3.49,3.49,0,0,0-.72.82v5.17h-1.8V14.86l1.8-.18v4A2.69,2.69,0,0,1,69,17.6,2,2,0,0,1,70.56,18.21Z"/><path d="M77.6,17.71l-.3,1.74a2.59,2.59,0,0,0-.66-.08,1.24,1.24,0,0,0-1,.47,3.63,3.63,0,0,0-.6,1.43v3.95H73.21V17.81h1.55l.17,1.46A2.71,2.71,0,0,1,75.7,18a1.76,1.76,0,0,1,1.16-.42A2.83,2.83,0,0,1,77.6,17.71Z"/><path d="M83.84,23.9a.85.85,0,0,0,.43.31l-.38,1.19a2.32,2.32,0,0,1-1-.31,1.54,1.54,0,0,1-.61-.77,2.43,2.43,0,0,1-.94.84,2.92,2.92,0,0,1-1.27.27,2.39,2.39,0,0,1-1.75-.63,2.2,2.2,0,0,1-.64-1.65,2.13,2.13,0,0,1,.87-1.84,4.16,4.16,0,0,1,2.5-.64h.92v-.42a1.26,1.26,0,0,0-.33-1,1.57,1.57,0,0,0-1-.29,6.26,6.26,0,0,0-2,.39l-.42-1.22a7.56,7.56,0,0,1,2.69-.53c1.89,0,2.84.85,2.84,2.55v3.11A1.2,1.2,0,0,0,83.84,23.9Zm-1.9-.68v-1.5H81.2c-1.16,0-1.73.43-1.73,1.29a1.16,1.16,0,0,0,.26.82,1,1,0,0,0,.79.3A1.59,1.59,0,0,0,81.94,23.22Z"/><path d="M87.52,24.56a4.38,4.38,0,0,1-.32,1.79,2.8,2.8,0,0,1-.89,1.11,7.34,7.34,0,0,1-1.5.8L84.24,27a4.43,4.43,0,0,0,.85-.5,1.49,1.49,0,0,0,.47-.67,3.13,3.13,0,0,0,.16-1.12V17.81h1.8Zm-.1-10.18a1,1,0,0,1,.32.77,1,1,0,0,1-.32.77,1.21,1.21,0,0,1-1.62,0,1,1,0,0,1-.31-.77,1,1,0,0,1,.31-.77,1.19,1.19,0,0,1,1.62,0Z"/><path d="M95.71,22.07H91.06a2.31,2.31,0,0,0,.56,1.54,1.72,1.72,0,0,0,1.26.46,2.58,2.58,0,0,0,.92-.16,4.28,4.28,0,0,0,.93-.5l.74,1a4.24,4.24,0,0,1-2.75,1,3.3,3.3,0,0,1-2.61-1,4.1,4.1,0,0,1-.91-2.82,5.08,5.08,0,0,1,.39-2,3.33,3.33,0,0,1,1.13-1.42,3,3,0,0,1,1.77-.51,3,3,0,0,1,2.4,1,4.08,4.08,0,0,1,.86,2.75C95.75,21.43,95.73,21.68,95.71,22.07ZM94,20.82c0-1.29-.48-1.94-1.44-1.94a1.23,1.23,0,0,0-1,.48,2.8,2.8,0,0,0-.44,1.55H94Z"/><path d="M106.81,17.81l-2.41,7.41h-2.14l-2.45-7.41h1.94l1.59,6,1.62-6Z"/><path d="M112.73,17.81V19.1l-3.58,4.72h3.65l-.18,1.4h-5.53V23.93l3.6-4.72H107.4v-1.4Z"/><path d="M120.32,14.84V25.22h-1.58l-.13-.94a2.47,2.47,0,0,1-.89.84,2.59,2.59,0,0,1-3.31-.74,4.9,4.9,0,0,1-.73-2.86,5.16,5.16,0,0,1,.37-2,3.16,3.16,0,0,1,1-1.39,2.55,2.55,0,0,1,1.57-.51,2.59,2.59,0,0,1,1.87.8V14.65Zm-2.48,9a2.39,2.39,0,0,0,.69-.72V19.73a2.7,2.7,0,0,0-.66-.59,1.43,1.43,0,0,0-.76-.19,1.3,1.3,0,0,0-1.13.63,3.67,3.67,0,0,0-.41,1.93,3.89,3.89,0,0,0,.37,2,1.17,1.17,0,0,0,1.06.59A1.55,1.55,0,0,0,117.84,23.84Z"/><path d="M128.51,22.07h-4.65a2.36,2.36,0,0,0,.56,1.54,1.73,1.73,0,0,0,1.26.46,2.54,2.54,0,0,0,.92-.16,4.28,4.28,0,0,0,.93-.5l.74,1a4.23,4.23,0,0,1-2.74,1,3.34,3.34,0,0,1-2.62-1,4.1,4.1,0,0,1-.91-2.82,5.08,5.08,0,0,1,.39-2,3.33,3.33,0,0,1,1.13-1.42,3.07,3.07,0,0,1,1.77-.51,3,3,0,0,1,2.41,1,4.13,4.13,0,0,1,.85,2.75C128.55,21.43,128.54,21.68,128.51,22.07Zm-1.36-8,.69.78-2,1.75h-1.12l-2-1.75.69-.78,1.82,1.23Zm-.38,6.8c0-1.29-.48-1.94-1.44-1.94a1.23,1.23,0,0,0-1,.48,2.89,2.89,0,0,0-.44,1.55h2.91Z"/><path d="M130.57,24.93a1.93,1.93,0,0,1-.48-1.4V14.84l1.79-.19v8.82c0,.34.14.52.42.52a1.54,1.54,0,0,0,.42-.07l.38,1.26a3,3,0,0,1-1.19.25A1.79,1.79,0,0,1,130.57,24.93Z"/><path d="M139.83,23.9a.82.82,0,0,0,.42.31l-.37,1.19a2.28,2.28,0,0,1-1-.31,1.54,1.54,0,0,1-.61-.77,2.39,2.39,0,0,1-1,.84,2.91,2.91,0,0,1-1.26.27,2.38,2.38,0,0,1-1.75-.63,2.21,2.21,0,0,1-.65-1.65,2.11,2.11,0,0,1,.88-1.84,4.14,4.14,0,0,1,2.5-.64h.92v-.42a1.26,1.26,0,0,0-.33-1,1.6,1.6,0,0,0-1.06-.29,6.31,6.31,0,0,0-2,.39l-.42-1.22a7.61,7.61,0,0,1,2.69-.53c1.9,0,2.84.85,2.84,2.55v3.11A1.19,1.19,0,0,0,139.83,23.9Zm-1.9-10.16.73,1.4-3.17,1.26-.5-.91Zm0,9.48v-1.5h-.74q-1.74,0-1.74,1.29a1.16,1.16,0,0,0,.27.82,1,1,0,0,0,.78.3A1.6,1.6,0,0,0,137.93,23.22Z"/><path d="M147.36,18.2a2.33,2.33,0,0,1,.55,1.66v5.36h-1.79V20.14a1.47,1.47,0,0,0-.23-.93.88.88,0,0,0-.68-.26,1.3,1.3,0,0,0-.83.28,3.25,3.25,0,0,0-.72.84v5.15h-1.8V17.81h1.56l.14,1a2.76,2.76,0,0,1,2.25-1.18A2,2,0,0,1,147.36,18.2Z"/><path d="M152,13.74l.73,1.4-3.17,1.26-.5-.91Zm-.17,4.07v7.41H150V17.81Z"/><path d="M163.4,17.81,161,25.22h-2.14l-2.45-7.41h1.94l1.58,6,1.63-6Z"/><path d="M174.23,14.84V25.22h-1.58l-.13-.94a2.47,2.47,0,0,1-.89.84,2.33,2.33,0,0,1-1.22.31,2.39,2.39,0,0,1-2.09-1.05,5,5,0,0,1-.72-2.86,5.35,5.35,0,0,1,.36-2,3.16,3.16,0,0,1,1-1.39,2.62,2.62,0,0,1,3.44.29V14.65Zm-2.48,9a2.28,2.28,0,0,0,.69-.72V19.73a2.67,2.67,0,0,0-.65-.59A1.48,1.48,0,0,0,171,19a1.28,1.28,0,0,0-1.13.63,3.58,3.58,0,0,0-.41,1.93,4,4,0,0,0,.36,2,1.18,1.18,0,0,0,1.06.59A1.55,1.55,0,0,0,171.75,23.84Z"/><path d="M182.42,22.07h-4.65a2.41,2.41,0,0,0,.56,1.54,1.73,1.73,0,0,0,1.26.46,2.6,2.6,0,0,0,.93-.16,4.23,4.23,0,0,0,.92-.5l.74,1a4.21,4.21,0,0,1-2.74,1,3.3,3.3,0,0,1-2.61-1,4.11,4.11,0,0,1-.92-2.82,5.08,5.08,0,0,1,.39-2,3.28,3.28,0,0,1,1.14-1.42,3.37,3.37,0,0,1,4.17.48,4.08,4.08,0,0,1,.85,2.75C182.46,21.43,182.45,21.68,182.42,22.07Zm-2.11-8.33.72,1.4-3.16,1.26-.5-.91Zm.38,7.08c0-1.29-.49-1.94-1.45-1.94a1.23,1.23,0,0,0-1,.48,3,3,0,0,0-.44,1.55h2.92Z"/><path d="M184.49,24.93a1.9,1.9,0,0,1-.49-1.4V14.84l1.8-.19v8.82c0,.34.14.52.42.52a1.6,1.6,0,0,0,.42-.07l.37,1.26a3,3,0,0,1-1.19.25A1.76,1.76,0,0,1,184.49,24.93Z"/><path d="M192.42,17.81a3.4,3.4,0,0,1,1.1.66l-.79,1.08a3.22,3.22,0,0,0-.73-.41,2.39,2.39,0,0,0-.77-.12c-1.11,0-1.67.84-1.67,2.53a3.18,3.18,0,0,0,.43,1.86,1.5,1.5,0,0,0,1.24.56,2.09,2.09,0,0,0,.72-.12,5,5,0,0,0,.78-.41l.79,1.14a3.72,3.72,0,0,1-2.39.85,3.56,3.56,0,0,1-1.85-.47,3.07,3.07,0,0,1-1.2-1.34,4.64,4.64,0,0,1-.42-2,4.86,4.86,0,0,1,.42-2.08,3.23,3.23,0,0,1,1.2-1.4,3.34,3.34,0,0,1,1.83-.5A3.79,3.79,0,0,1,192.42,17.81Z"/><path d="M200.58,22.07h-4.65a2.36,2.36,0,0,0,.56,1.54,1.73,1.73,0,0,0,1.26.46,2.6,2.6,0,0,0,.93-.16,4.47,4.47,0,0,0,.92-.5l.74,1a4.21,4.21,0,0,1-2.74,1,3.3,3.3,0,0,1-2.61-1,4.06,4.06,0,0,1-.92-2.82,5.08,5.08,0,0,1,.39-2,3.28,3.28,0,0,1,1.14-1.42,3.37,3.37,0,0,1,4.17.48,4.08,4.08,0,0,1,.85,2.75C200.62,21.43,200.61,21.68,200.58,22.07Zm-1.74-1.25c0-1.29-.48-1.94-1.44-1.94a1.23,1.23,0,0,0-1,.48,2.89,2.89,0,0,0-.44,1.55h2.91Z"/><path d="M210.55,17.81V19.1L207,23.82h3.66l-.18,1.4h-5.53V23.93l3.59-4.72h-3.29v-1.4ZM209.64,14l.68.78-1.94,1.75h-1.12l-1.95-1.75L206,14l1.82,1.23Z"/><path d="M213.72,14.38a1,1,0,0,1,.31.77,1,1,0,0,1-.31.77,1.23,1.23,0,0,1-1.63,0,1,1,0,0,1-.31-.77,1,1,0,0,1,.31-.77,1.2,1.2,0,0,1,1.63,0Zm.09,3.43v7.41H212V17.81Z"/><path d="M221.91,17.81l-2.4,7.41h-2.15l-2.45-7.41h2l1.58,6,1.63-6Z"/><path d="M228.52,18.65a4.18,4.18,0,0,1,.91,2.86,4.75,4.75,0,0,1-.42,2,3.23,3.23,0,0,1-1.2,1.38,3.4,3.4,0,0,1-1.86.49,3.25,3.25,0,0,1-2.56-1,4.19,4.19,0,0,1-.93-2.88,4.72,4.72,0,0,1,.42-2.05,3.29,3.29,0,0,1,1.21-1.37A3.54,3.54,0,0,1,226,17.6,3.22,3.22,0,0,1,228.52,18.65Zm-4.17,2.86a3.65,3.65,0,0,0,.4,1.94,1.34,1.34,0,0,0,1.2.62,1.31,1.31,0,0,0,1.19-.63,3.63,3.63,0,0,0,.4-1.93,3.63,3.63,0,0,0-.4-1.93A1.31,1.31,0,0,0,226,19C224.89,19,224.35,19.81,224.35,21.51Z"/><path d="M235.36,24.87a2.86,2.86,0,0,1-.88.42,3.64,3.64,0,0,1-1,.14,2.24,2.24,0,0,1-1.66-.62,2.6,2.6,0,0,1-.56-1.8V19.1h-1.16V17.81h1.16V16.17l1.79-.21v1.85h1.72l-.18,1.29h-1.54V23a1.26,1.26,0,0,0,.19.79.69.69,0,0,0,.59.24,1.85,1.85,0,0,0,.89-.27Z"/><path d="M241.83,23.9a.85.85,0,0,0,.43.31l-.38,1.19a2.32,2.32,0,0,1-1-.31,1.54,1.54,0,0,1-.61-.77,2.43,2.43,0,0,1-.94.84,2.92,2.92,0,0,1-1.27.27,2.39,2.39,0,0,1-1.75-.63,2.2,2.2,0,0,1-.64-1.65,2.13,2.13,0,0,1,.87-1.84,4.16,4.16,0,0,1,2.5-.64h.92v-.42a1.26,1.26,0,0,0-.33-1,1.59,1.59,0,0,0-1-.29,6.26,6.26,0,0,0-2,.39l-.42-1.22a7.56,7.56,0,0,1,2.69-.53c1.89,0,2.84.85,2.84,2.55v3.11A1.2,1.2,0,0,0,241.83,23.9Zm-1.9-.68v-1.5h-.74c-1.16,0-1.73.43-1.73,1.29a1.16,1.16,0,0,0,.26.82,1,1,0,0,0,.79.3A1.59,1.59,0,0,0,239.93,23.22Z"/><path d="M252.18,17.81V19.1l-3.58,4.72h3.65l-.18,1.4h-5.53V23.93l3.6-4.72h-3.29v-1.4Z"/><path d="M259.05,23.9a.85.85,0,0,0,.43.31l-.38,1.19a2.32,2.32,0,0,1-1-.31,1.54,1.54,0,0,1-.61-.77,2.43,2.43,0,0,1-.94.84,2.92,2.92,0,0,1-1.27.27,2.39,2.39,0,0,1-1.75-.63,2.2,2.2,0,0,1-.64-1.65,2.13,2.13,0,0,1,.87-1.84,4.16,4.16,0,0,1,2.5-.64h.92v-.42a1.26,1.26,0,0,0-.33-1,1.59,1.59,0,0,0-1-.29,6.26,6.26,0,0,0-2,.39l-.42-1.22a7.55,7.55,0,0,1,2.68-.53q2.85,0,2.85,2.55v3.11A1.2,1.2,0,0,0,259.05,23.9Zm-1.9-10.16.73,1.4-3.16,1.26-.51-.91Zm0,9.48v-1.5h-.74q-1.74,0-1.74,1.29a1.16,1.16,0,0,0,.27.82,1,1,0,0,0,.79.3A1.59,1.59,0,0,0,257.15,23.22Z"/><path d="M265.92,18.49l-.7,1.05a3.44,3.44,0,0,0-1.86-.61,1.41,1.41,0,0,0-.83.21.6.6,0,0,0-.29.53.7.7,0,0,0,.12.42,1.15,1.15,0,0,0,.46.32,6.58,6.58,0,0,0,1,.33,4.22,4.22,0,0,1,1.78.85,1.92,1.92,0,0,1,.59,1.49,2,2,0,0,1-.9,1.73,3.86,3.86,0,0,1-2.23.62,4.67,4.67,0,0,1-1.66-.28,4,4,0,0,1-1.29-.77l.9-1a3.25,3.25,0,0,0,2,.73,1.71,1.71,0,0,0,1-.24.75.75,0,0,0,.36-.66.88.88,0,0,0-.14-.51,1.05,1.05,0,0,0-.47-.33,9.89,9.89,0,0,0-1.07-.36,3.63,3.63,0,0,1-1.67-.86,1.93,1.93,0,0,1-.53-1.38,1.84,1.84,0,0,1,.36-1.11,2.4,2.4,0,0,1,1-.77,3.92,3.92,0,0,1,1.49-.28A4.19,4.19,0,0,1,265.92,18.49Z"/><path d="M273.08,23.9a.86.86,0,0,0,.42.31l-.37,1.19a2.28,2.28,0,0,1-1-.31,1.54,1.54,0,0,1-.61-.77,2.39,2.39,0,0,1-.95.84,2.87,2.87,0,0,1-1.26.27,2.39,2.39,0,0,1-1.75-.63,2.21,2.21,0,0,1-.65-1.65,2.11,2.11,0,0,1,.88-1.84,4.14,4.14,0,0,1,2.5-.64h.92v-.42a1.26,1.26,0,0,0-.33-1,1.6,1.6,0,0,0-1.06-.29,6.31,6.31,0,0,0-2,.39l-.42-1.22a7.65,7.65,0,0,1,2.69-.53q2.85,0,2.85,2.55v3.11A1.2,1.2,0,0,0,273.08,23.9Zm-1.9-.68v-1.5h-.74q-1.74,0-1.74,1.29a1.16,1.16,0,0,0,.27.82,1,1,0,0,0,.78.3A1.59,1.59,0,0,0,271.18,23.22Z"/><path d="M281.34,14.84V25.22h-1.58l-.12-.94a2.55,2.55,0,0,1-.89.84,2.59,2.59,0,0,1-3.31-.74,4.9,4.9,0,0,1-.73-2.86,5.35,5.35,0,0,1,.36-2,3.18,3.18,0,0,1,1.05-1.39,2.53,2.53,0,0,1,1.57-.51,2.55,2.55,0,0,1,1.86.8V14.65Zm-2.47,9a2.26,2.26,0,0,0,.68-.72V19.73a2.5,2.5,0,0,0-.65-.59,1.45,1.45,0,0,0-.76-.19,1.29,1.29,0,0,0-1.13.63,3.67,3.67,0,0,0-.41,1.93,4,4,0,0,0,.36,2,1.2,1.2,0,0,0,1.07.59A1.6,1.6,0,0,0,278.87,23.84Z"/><path d="M289,18.2a2.37,2.37,0,0,1,.55,1.66v5.36h-1.79V20.14a1.47,1.47,0,0,0-.23-.93.88.88,0,0,0-.68-.26,1.35,1.35,0,0,0-.84.28,3.68,3.68,0,0,0-.72.84v5.15H283.5V17.81h1.55l.15,1a2.75,2.75,0,0,1,2.25-1.18A2,2,0,0,1,289,18.2Z"/><path d="M293.59,13.74l.73,1.4-3.16,1.26-.5-.91Zm-.16,4.07v7.41h-1.8V17.81Z"/><path d="M303.48,17.71l-.31,1.74a2.48,2.48,0,0,0-.66-.08,1.22,1.22,0,0,0-1,.47,3.48,3.48,0,0,0-.61,1.43v3.95h-1.79V17.81h1.56l.16,1.46a2.8,2.8,0,0,1,.77-1.23,1.79,1.79,0,0,1,1.17-.42A2.89,2.89,0,0,1,303.48,17.71Z"/><path d="M309.76,18.65a4.18,4.18,0,0,1,.91,2.86,4.75,4.75,0,0,1-.42,2,3.23,3.23,0,0,1-1.2,1.38,3.4,3.4,0,0,1-1.86.49,3.25,3.25,0,0,1-2.56-1,4.19,4.19,0,0,1-.93-2.88,4.72,4.72,0,0,1,.42-2.05,3.29,3.29,0,0,1,1.21-1.37,3.54,3.54,0,0,1,1.87-.49A3.22,3.22,0,0,1,309.76,18.65Zm-4.17,2.86a3.75,3.75,0,0,0,.4,1.94,1.46,1.46,0,0,0,2.4,0,3.74,3.74,0,0,0,.39-1.93,3.74,3.74,0,0,0-.39-1.93A1.33,1.33,0,0,0,307.2,19C306.13,19,305.59,19.81,305.59,21.51Z"/><path d="M312.77,24.93a1.94,1.94,0,0,1-.49-1.4V14.84l1.8-.19v8.82c0,.34.14.52.42.52a1.54,1.54,0,0,0,.42-.07l.37,1.26a3,3,0,0,1-1.19.25A1.76,1.76,0,0,1,312.77,24.93Z"/><path d="M318.19,14.38a1,1,0,0,1,.31.77,1,1,0,0,1-.31.77,1.12,1.12,0,0,1-.82.31,1.09,1.09,0,0,1-.81-.31,1,1,0,0,1-.31-.77,1,1,0,0,1,.31-.77,1.1,1.1,0,0,1,.81-.32A1.12,1.12,0,0,1,318.19,14.38Zm.09,3.43v7.41h-1.8V17.81Z"/></g><g class="cls-3"><path d="M16.18,45.24h-.87l-3.55-6.81c.06.91.09,1.78.09,2.59v4.22h-.63V37.7h.85l3.57,6.81c-.06-.85-.09-1.59-.09-2.23V37.7h.63Z"/><path d="M22.26,44.61a.71.71,0,0,0,.37.3l-.15.45a1.14,1.14,0,0,1-.61-.3,1.26,1.26,0,0,1-.28-.67,2,2,0,0,1-1.79,1,1.77,1.77,0,0,1-1.3-.47A1.66,1.66,0,0,1,18,43.64a1.62,1.62,0,0,1,.63-1.37,2.78,2.78,0,0,1,1.75-.49h1.1v-.56a1.43,1.43,0,0,0-.3-1,1.41,1.41,0,0,0-1-.31,4.65,4.65,0,0,0-1.56.33l-.16-.48a4.85,4.85,0,0,1,1.81-.39,1.64,1.64,0,0,1,1.88,1.83V44A1.31,1.31,0,0,0,22.26,44.61Zm-.76-.78V42.24h-1a2.3,2.3,0,0,0-1.34.34,1.19,1.19,0,0,0-.46,1,1.24,1.24,0,0,0,.32.91,1.21,1.21,0,0,0,.89.32A1.74,1.74,0,0,0,21.5,43.83Z"/><path d="M28.57,37.14v8.1H28l-.08-.88a1.91,1.91,0,0,1-1.73,1,1.86,1.86,0,0,1-1.58-.8,3.67,3.67,0,0,1-.57-2.17,4.29,4.29,0,0,1,.27-1.58,2.38,2.38,0,0,1,.78-1.06,1.92,1.92,0,0,1,1.2-.39,2,2,0,0,1,1.62.78V37.06Zm-1.33,7.42a2.42,2.42,0,0,0,.69-.8v-3a1.8,1.8,0,0,0-1.51-.87,1.46,1.46,0,0,0-1.24.65,3.11,3.11,0,0,0-.44,1.84,3.31,3.31,0,0,0,.42,1.82,1.3,1.3,0,0,0,1.15.63A1.55,1.55,0,0,0,27.24,44.56Z"/><path d="M35,42.61H31.12a2.68,2.68,0,0,0,.53,1.66,1.58,1.58,0,0,0,1.26.55,2.2,2.2,0,0,0,.8-.14,3.72,3.72,0,0,0,.75-.43l.3.4a3.27,3.27,0,0,1-.88.53,2.7,2.7,0,0,1-1,.18,2.22,2.22,0,0,1-1.8-.78,3.34,3.34,0,0,1-.64-2.17,4.16,4.16,0,0,1,.28-1.6,2.32,2.32,0,0,1,.8-1.07,2,2,0,0,1,1.22-.38,2,2,0,0,1,1.67.74,3.29,3.29,0,0,1,.57,2C35,42.31,35,42.46,35,42.61ZM34.35,42a2.52,2.52,0,0,0-.4-1.52,1.54,1.54,0,0,0-2.35,0,2.86,2.86,0,0,0-.48,1.67h3.23Zm-.25-5.17.29.33L33,38.27h-.4l-1.43-1.16.29-.33,1.34.92Z"/><path d="M37.43,45a3.52,3.52,0,0,1-.16,1.19,1.68,1.68,0,0,1-.49.72,4.35,4.35,0,0,1-.9.53L35.69,47a2.81,2.81,0,0,0,.65-.42,1.24,1.24,0,0,0,.34-.56,3.22,3.22,0,0,0,.11-1V39.48h.64Zm0-8a.46.46,0,0,1,.14.34.42.42,0,0,1-.14.32.45.45,0,0,1-.35.14.46.46,0,0,1-.34-.14.41.41,0,0,1-.13-.32.45.45,0,0,1,.13-.34A.49.49,0,0,1,37.1,37,.48.48,0,0,1,37.45,37.08Z"/><path d="M43.82,42.61H40a2.68,2.68,0,0,0,.54,1.66,1.58,1.58,0,0,0,1.26.55,2.14,2.14,0,0,0,.79-.14,3.52,3.52,0,0,0,.76-.43l.29.4a3,3,0,0,1-.88.53,2.66,2.66,0,0,1-1,.18A2.2,2.2,0,0,1,40,44.58a3.34,3.34,0,0,1-.65-2.17,4.35,4.35,0,0,1,.28-1.6,2.4,2.4,0,0,1,.81-1.07,2.2,2.2,0,0,1,2.88.36,3.29,3.29,0,0,1,.57,2A3.54,3.54,0,0,1,43.82,42.61Zm-.6-.66a2.59,2.59,0,0,0-.4-1.52,1.54,1.54,0,0,0-2.35,0A2.79,2.79,0,0,0,40,42.11h3.24Z"/><path d="M52.83,37.14v8.1h-.55l-.08-.88a1.9,1.9,0,0,1-1.72,1,1.84,1.84,0,0,1-1.58-.8,3.6,3.6,0,0,1-.58-2.17,4.29,4.29,0,0,1,.27-1.58,2.38,2.38,0,0,1,.78-1.06,1.93,1.93,0,0,1,1.21-.39,2,2,0,0,1,1.61.78V37.06Zm-1.32,7.42a2.3,2.3,0,0,0,.68-.8v-3a1.8,1.8,0,0,0-1.5-.87,1.44,1.44,0,0,0-1.24.65A3.19,3.19,0,0,0,49,42.38a3.31,3.31,0,0,0,.42,1.82,1.33,1.33,0,0,0,1.16.63A1.59,1.59,0,0,0,51.51,44.56Z"/><path d="M58.93,40.15a3.34,3.34,0,0,1,.64,2.19,3.4,3.4,0,0,1-.65,2.21,2.18,2.18,0,0,1-1.79.81,2.15,2.15,0,0,1-1.78-.8,3.39,3.39,0,0,1-.65-2.2,3.92,3.92,0,0,1,.3-1.59,2.4,2.4,0,0,1,.85-1.05,2.29,2.29,0,0,1,1.29-.36A2.17,2.17,0,0,1,58.93,40.15Zm-3.08.38a3,3,0,0,0-.47,1.83,3.13,3.13,0,0,0,.46,1.83,1.49,1.49,0,0,0,1.29.63,1.55,1.55,0,0,0,1.31-.63,3.93,3.93,0,0,0,0-3.67,1.54,1.54,0,0,0-1.31-.62A1.5,1.5,0,0,0,55.85,40.53Z"/><path d="M64.48,39.48V40l-3.21,4.71h3.19l-.07.55H60.52v-.5L63.73,40H60.78v-.55Zm-.56-2.7.29.33-1.42,1.16h-.4L61,37.11l.29-.33,1.34.92Z"/><path d="M66.68,37.08a.45.45,0,0,1,.13.34.41.41,0,0,1-.13.32.47.47,0,0,1-.35.14.46.46,0,0,1-.34-.14.41.41,0,0,1-.13-.32.45.45,0,0,1,.13-.34.49.49,0,0,1,.34-.13A.5.5,0,0,1,66.68,37.08Zm0,2.4v5.76H66V39.48Z"/><path d="M71.61,45a2.1,2.1,0,0,1-1.21.37,1.38,1.38,0,0,1-1-.39A1.57,1.57,0,0,1,69,43.84V40H68v-.52h1V38.11l.64-.08v1.45h1.48L71,40H69.63v3.81a1.16,1.16,0,0,0,.21.75.81.81,0,0,0,.64.25,1.78,1.78,0,0,0,.88-.26Z"/><path d="M73.89,36.63l.28.58L72,38.14l-.21-.37Zm-.51,2.85v5.76h-.64V39.48Z"/><path d="M81.88,39.48V40l-3.21,4.71h3.19l-.07.55H77.92v-.5L81.13,40H78.19v-.55Zm-.56-2.7.29.33-1.42,1.16h-.4l-1.43-1.16.29-.33L80,37.7Z"/><path d="M87.41,42.61H83.58a2.62,2.62,0,0,0,.53,1.66,1.58,1.58,0,0,0,1.26.55,2.2,2.2,0,0,0,.8-.14,3.72,3.72,0,0,0,.75-.43l.3.4a3.27,3.27,0,0,1-.88.53,2.7,2.7,0,0,1-1,.18,2.22,2.22,0,0,1-1.8-.78,3.34,3.34,0,0,1-.65-2.17,4.35,4.35,0,0,1,.28-1.6A2.4,2.4,0,0,1,84,39.74a2,2,0,0,1,1.21-.38,2,2,0,0,1,1.67.74,3.23,3.23,0,0,1,.58,2A3.48,3.48,0,0,1,87.41,42.61Zm-.6-.66a2.52,2.52,0,0,0-.4-1.52,1.54,1.54,0,0,0-2.35,0,2.86,2.86,0,0,0-.48,1.67h3.23Z"/><path d="M93,39.82a1.91,1.91,0,0,1,.41,1.3v4.12h-.64v-4a1.54,1.54,0,0,0-.27-1,1,1,0,0,0-.82-.32,1.64,1.64,0,0,0-1,.3,3.39,3.39,0,0,0-.81.89v4.17h-.64V39.48h.55l.07,1a2.78,2.78,0,0,1,.83-.81,2.14,2.14,0,0,1,1.09-.29A1.57,1.57,0,0,1,93,39.82Z"/><path d="M102.58,39.48l-2,5.76H99.8l-2.06-5.76h.71l1.75,5.19,1.7-5.19Z"/><path d="M108,42.61h-3.84a2.68,2.68,0,0,0,.54,1.66,1.58,1.58,0,0,0,1.26.55,2.14,2.14,0,0,0,.79-.14,3.77,3.77,0,0,0,.76-.43l.29.4a3.13,3.13,0,0,1-.88.53,2.66,2.66,0,0,1-1,.18,2.2,2.2,0,0,1-1.79-.78,3.34,3.34,0,0,1-.65-2.17,4.16,4.16,0,0,1,.28-1.6,2.46,2.46,0,0,1,.8-1.07,2.06,2.06,0,0,1,1.22-.38,2,2,0,0,1,1.67.74,3.29,3.29,0,0,1,.57,2A3.54,3.54,0,0,1,108,42.61Zm-.6-.66a2.59,2.59,0,0,0-.4-1.52,1.54,1.54,0,0,0-2.35,0,2.79,2.79,0,0,0-.49,1.67h3.24Z"/><path d="M116.7,39.48l-2,5.76h-.8l-2-5.76h.7l1.75,5.19,1.7-5.19Z"/><path d="M119.86,45.26a5.19,5.19,0,0,1-.5,1.1,2.32,2.32,0,0,1-.72.71,3.38,3.38,0,0,1-1.13.41l-.07-.5a2.86,2.86,0,0,0,.9-.35,1.61,1.61,0,0,0,.52-.52,4.58,4.58,0,0,0,.39-.87H119l-2-5.76h.69l1.74,5.28,1.7-5.28h.67Z"/><path d="M127.09,40.13a3.72,3.72,0,0,1,.55,2.2,3.71,3.71,0,0,1-.58,2.21,1.87,1.87,0,0,1-1.61.82,2,2,0,0,1-.94-.23,2.23,2.23,0,0,1-.71-.62l-.06.73h-.56v-8.1l.63-.08v3.23a2.07,2.07,0,0,1,1.73-.93A1.8,1.8,0,0,1,127.09,40.13Zm-.55,4.07a3.43,3.43,0,0,0,.42-1.87c0-1.63-.52-2.44-1.55-2.44a1.53,1.53,0,0,0-.89.26,2.75,2.75,0,0,0-.71.73v3a2.26,2.26,0,0,0,.66.68,1.54,1.54,0,0,0,.86.25A1.39,1.39,0,0,0,126.54,44.2Z"/><path d="M132.37,39.43l-.12.6a2.1,2.1,0,0,0-.51-.06,1.19,1.19,0,0,0-.94.42,3.69,3.69,0,0,0-.6,1.33v3.52h-.63V39.48h.55l0,1.29a2.3,2.3,0,0,1,.63-1.06,1.49,1.49,0,0,1,1-.35A1.85,1.85,0,0,1,132.37,39.43Z"/><path d="M137,44.61a.75.75,0,0,0,.37.3l-.14.45a1.1,1.1,0,0,1-.61-.3,1.19,1.19,0,0,1-.28-.67,2,2,0,0,1-1.79,1,1.81,1.81,0,0,1-1.31-.47,1.66,1.66,0,0,1-.48-1.25,1.63,1.63,0,0,1,.64-1.37,2.76,2.76,0,0,1,1.75-.49h1.1v-.56a1.39,1.39,0,0,0-.31-1,1.37,1.37,0,0,0-1-.31,4.65,4.65,0,0,0-1.56.33l-.17-.48a4.89,4.89,0,0,1,1.82-.39,1.64,1.64,0,0,1,1.88,1.83V44A1.46,1.46,0,0,0,137,44.61Zm-.75-.78V42.24h-1a2.28,2.28,0,0,0-1.34.34,1.24,1.24,0,0,0,.75,2.26A1.74,1.74,0,0,0,136.22,43.83Z"/><path d="M142.91,39.82a1.86,1.86,0,0,1,.42,1.3v4.12h-.64v-4a1.49,1.49,0,0,0-.28-1,1,1,0,0,0-.81-.32,1.62,1.62,0,0,0-1,.3,3.08,3.08,0,0,0-.81.89v4.17h-.64V39.48h.55l.07,1a2.78,2.78,0,0,1,.83-.81,2.11,2.11,0,0,1,1.09-.29A1.53,1.53,0,0,1,142.91,39.82Z"/><path d="M147.34,45.26a5.19,5.19,0,0,1-.5,1.1,2.56,2.56,0,0,1-.72.71,3.38,3.38,0,0,1-1.13.41l-.07-.5a3,3,0,0,0,.9-.35,1.72,1.72,0,0,0,.52-.52,6.33,6.33,0,0,0,.39-.87h-.22l-2-5.76h.7l1.74,5.28,1.7-5.28h.67Zm.4-8.63.28.58-2.14.93-.21-.37Z"/><path d="M153.48,39.5a2.42,2.42,0,0,1,.75.44l-.32.42a1.9,1.9,0,0,0-1.28-.45,1.54,1.54,0,0,0-1.29.63,3,3,0,0,0-.49,1.85,2.84,2.84,0,0,0,.48,1.8,1.57,1.57,0,0,0,1.29.61,1.75,1.75,0,0,0,.7-.13,2.54,2.54,0,0,0,.63-.36l.31.43a2.47,2.47,0,0,1-1.65.62A2.25,2.25,0,0,1,150.47,44a3.89,3.89,0,0,1-.3-1.59,4,4,0,0,1,.3-1.6,2.45,2.45,0,0,1,.85-1.06,2.24,2.24,0,0,1,1.28-.38A2.66,2.66,0,0,1,153.48,39.5Z"/><path d="M159.52,39.83a1.86,1.86,0,0,1,.42,1.29v4.12h-.64v-4c0-.89-.36-1.33-1.09-1.33a1.62,1.62,0,0,0-1,.3,3.23,3.23,0,0,0-.81.89v4.17h-.64v-8.1l.64-.08v3.38a2.27,2.27,0,0,1,1.9-1.08A1.53,1.53,0,0,1,159.52,39.83Z"/><path d="M169.34,42.61H165.5a2.68,2.68,0,0,0,.54,1.66,1.58,1.58,0,0,0,1.26.55,2.14,2.14,0,0,0,.79-.14,3.77,3.77,0,0,0,.76-.43l.29.4a3,3,0,0,1-.88.53,2.66,2.66,0,0,1-1,.18,2.2,2.2,0,0,1-1.79-.78,3.34,3.34,0,0,1-.65-2.17,4.16,4.16,0,0,1,.28-1.6,2.4,2.4,0,0,1,.81-1.07,2.2,2.2,0,0,1,2.88.36,3.29,3.29,0,0,1,.57,2A3.54,3.54,0,0,1,169.34,42.61Zm-.6-.66a2.59,2.59,0,0,0-.4-1.52,1.54,1.54,0,0,0-2.35,0,2.79,2.79,0,0,0-.49,1.67h3.24Z"/><path d="M175,39.48l-2,5.76h-.79l-2.05-5.76h.7l1.75,5.19,1.7-5.19Z"/><path d="M179.13,39.43,179,40a2.1,2.1,0,0,0-.51-.06,1.19,1.19,0,0,0-.94.42,3.69,3.69,0,0,0-.6,1.33v3.52h-.63V39.48h.55l.05,1.29a2.39,2.39,0,0,1,.63-1.06,1.49,1.49,0,0,1,1-.35A1.85,1.85,0,0,1,179.13,39.43Z"/><path d="M183.87,40.15a3.34,3.34,0,0,1,.64,2.19,3.46,3.46,0,0,1-.65,2.21,2.39,2.39,0,0,1-3.58,0,3.39,3.39,0,0,1-.64-2.2,4.1,4.1,0,0,1,.29-1.59,2.4,2.4,0,0,1,.85-1.05,2.33,2.33,0,0,1,1.3-.36A2.18,2.18,0,0,1,183.87,40.15Zm-3.09.38a3.87,3.87,0,0,0,0,3.66,1.49,1.49,0,0,0,1.29.63,1.52,1.52,0,0,0,1.3-.63,3.08,3.08,0,0,0,.47-1.85,3,3,0,0,0-.46-1.82,1.66,1.66,0,0,0-2.6,0Z"/><path d="M190.32,40.14a3.87,3.87,0,0,1,.53,2.19,3.81,3.81,0,0,1-.57,2.21,1.87,1.87,0,0,1-1.62.82,2,2,0,0,1-1.64-.8V47.4l-.64.09v-8h.55l.06.84a2.36,2.36,0,0,1,.77-.71,2.15,2.15,0,0,1,1-.25A1.75,1.75,0,0,1,190.32,40.14Zm-.57,4a3.38,3.38,0,0,0,.41-1.86c0-1.63-.5-2.44-1.52-2.44a1.56,1.56,0,0,0-.9.26,3.33,3.33,0,0,0-.72.73v3.06a1.76,1.76,0,0,0,1.52.88A1.36,1.36,0,0,0,189.75,44.19Z"/><path d="M195.16,39.52A3.52,3.52,0,0,1,196,40l-.3.42A2.75,2.75,0,0,0,195,40a2.11,2.11,0,0,0-.77-.13,1.52,1.52,0,0,0-.92.26.83.83,0,0,0-.35.71.78.78,0,0,0,.3.65,3.37,3.37,0,0,0,1.09.44,3.57,3.57,0,0,1,1.42.63,1.4,1.4,0,0,1,.43,1.1,1.47,1.47,0,0,1-.59,1.23,2.4,2.4,0,0,1-1.49.45,3.08,3.08,0,0,1-2.06-.74l.36-.41a2.75,2.75,0,0,0,.78.46,2.59,2.59,0,0,0,.91.15,1.7,1.7,0,0,0,1-.29,1,1,0,0,0,.39-.81,1,1,0,0,0-.13-.57,1,1,0,0,0-.45-.38,5.17,5.17,0,0,0-.94-.33,3.14,3.14,0,0,1-1.31-.6,1.25,1.25,0,0,1-.4-1,1.27,1.27,0,0,1,.25-.78,1.7,1.7,0,0,1,.69-.54,2.5,2.5,0,0,1,1-.19A3.05,3.05,0,0,1,195.16,39.52Z"/><path d="M198.51,37.06v8.18h-.63v-8.1Zm3.23,2.42-2.42,2.58L202,45.24h-.77l-2.64-3.15L201,39.48Z"/><path d="M205.08,45.26a4.72,4.72,0,0,1-.51,1.1,2.4,2.4,0,0,1-.71.71,3.38,3.38,0,0,1-1.13.41l-.07-.5a3,3,0,0,0,.9-.35,1.58,1.58,0,0,0,.51-.52,4.58,4.58,0,0,0,.39-.87h-.22l-2-5.76h.7l1.73,5.28,1.71-5.28h.67Zm.4-8.63.28.58-2.14.93-.21-.37Z"/><path d="M211.22,39.5a2.54,2.54,0,0,1,.75.44l-.32.42a1.9,1.9,0,0,0-1.28-.45,1.57,1.57,0,0,0-1.3.63,3,3,0,0,0-.48,1.85,2.84,2.84,0,0,0,.48,1.8,1.57,1.57,0,0,0,1.29.61,1.75,1.75,0,0,0,.7-.13,2.54,2.54,0,0,0,.63-.36l.31.43a2.47,2.47,0,0,1-1.65.62A2.25,2.25,0,0,1,208.21,44a3.89,3.89,0,0,1-.3-1.59,4,4,0,0,1,.3-1.6,2.45,2.45,0,0,1,.85-1.06,2.22,2.22,0,0,1,1.28-.38A2.66,2.66,0,0,1,211.22,39.5Z"/><path d="M217.26,39.83a1.86,1.86,0,0,1,.42,1.29v4.12H217v-4c0-.89-.37-1.33-1.09-1.33a1.62,1.62,0,0,0-1,.3,3.08,3.08,0,0,0-.81.89v4.17h-.64v-8.1l.64-.08v3.38a2.26,2.26,0,0,1,1.9-1.08A1.53,1.53,0,0,1,217.26,39.83Z"/><path d="M226.12,39.48V40l-3.21,4.71h3.19l-.07.55h-3.87v-.5L225.38,40h-2.95v-.55Z"/><path d="M231.66,42.61h-3.84a2.62,2.62,0,0,0,.53,1.66,1.58,1.58,0,0,0,1.26.55,2.2,2.2,0,0,0,.8-.14,3.72,3.72,0,0,0,.75-.43l.3.4a3.27,3.27,0,0,1-.88.53,2.7,2.7,0,0,1-1,.18,2.22,2.22,0,0,1-1.8-.78,3.34,3.34,0,0,1-.64-2.17,4.16,4.16,0,0,1,.28-1.6,2.32,2.32,0,0,1,.8-1.07,2.21,2.21,0,0,1,2.89.36,3.29,3.29,0,0,1,.57,2C231.68,42.31,231.67,42.46,231.66,42.61Zm-.61-.66a2.52,2.52,0,0,0-.4-1.52,1.54,1.54,0,0,0-2.35,0,2.86,2.86,0,0,0-.48,1.67h3.23Z"/><path d="M240.2,39.83a1.93,1.93,0,0,1,.4,1.29v4.12H240v-4a1.63,1.63,0,0,0-.26-1,.88.88,0,0,0-.72-.32,1.35,1.35,0,0,0-.87.31,3.81,3.81,0,0,0-.75.88v4.17h-.63v-4a1.63,1.63,0,0,0-.26-1,.88.88,0,0,0-.72-.32,1.33,1.33,0,0,0-.88.31,3.36,3.36,0,0,0-.74.88v4.17h-.64V39.48H234l.06,1a2.75,2.75,0,0,1,.78-.81,1.82,1.82,0,0,1,1-.29,1.41,1.41,0,0,1,.92.3,1.57,1.57,0,0,1,.51.85,2.85,2.85,0,0,1,.8-.85,1.78,1.78,0,0,1,1-.3A1.38,1.38,0,0,1,240.2,39.83Z"/><path d="M244,36.63l.29.58-2.15.93-.21-.37Zm-.51,2.85v5.76h-.63V39.48Z"/><path d="M248.7,39.5a2.49,2.49,0,0,1,.74.44l-.32.42a2,2,0,0,0-.58-.34,2.17,2.17,0,0,0-.69-.11,1.56,1.56,0,0,0-1.3.63,3,3,0,0,0-.48,1.85,2.91,2.91,0,0,0,.47,1.8,1.58,1.58,0,0,0,1.3.61,1.78,1.78,0,0,0,.7-.13,2.73,2.73,0,0,0,.63-.36l.31.43a2.51,2.51,0,0,1-1.65.62,2.29,2.29,0,0,1-1.29-.36,2.24,2.24,0,0,1-.85-1,3.89,3.89,0,0,1-.31-1.59,4,4,0,0,1,.31-1.6,2.38,2.38,0,0,1,.85-1.06,2.22,2.22,0,0,1,1.28-.38A2.66,2.66,0,0,1,248.7,39.5Z"/><path d="M254.73,39.83a1.86,1.86,0,0,1,.42,1.29v4.12h-.64v-4c0-.89-.36-1.33-1.09-1.33a1.64,1.64,0,0,0-1,.3,3.39,3.39,0,0,0-.81.89v4.17H251v-8.1l.64-.08v3.38a2.29,2.29,0,0,1,1.91-1.08A1.51,1.51,0,0,1,254.73,39.83Z"/><path d="M264.34,39.48l-2,5.76h-.8l-2.05-5.76h.7L262,44.67l1.71-5.19Z"/><path d="M271.54,39.43l-.12.6a2.1,2.1,0,0,0-.51-.06,1.19,1.19,0,0,0-.94.42,3.69,3.69,0,0,0-.6,1.33v3.52h-.63V39.48h.55l0,1.29a2.39,2.39,0,0,1,.63-1.06,1.49,1.49,0,0,1,1-.35A1.85,1.85,0,0,1,271.54,39.43Z"/><path d="M276.28,40.15a3.34,3.34,0,0,1,.64,2.19,3.46,3.46,0,0,1-.65,2.21,2.39,2.39,0,0,1-3.58,0,3.39,3.39,0,0,1-.64-2.2,4.1,4.1,0,0,1,.29-1.59,2.4,2.4,0,0,1,.85-1.05,2.33,2.33,0,0,1,1.3-.36A2.18,2.18,0,0,1,276.28,40.15Zm-3.09.38a3.87,3.87,0,0,0,0,3.66,1.49,1.49,0,0,0,1.29.63,1.52,1.52,0,0,0,1.3-.63,3.08,3.08,0,0,0,.47-1.85,3,3,0,0,0-.46-1.82,1.66,1.66,0,0,0-2.6,0Z"/><path d="M281.64,39.5a2.42,2.42,0,0,1,.75.44l-.32.42a1.9,1.9,0,0,0-1.28-.45,1.57,1.57,0,0,0-1.3.63,3,3,0,0,0-.48,1.85,2.84,2.84,0,0,0,.48,1.8,1.57,1.57,0,0,0,1.29.61,1.75,1.75,0,0,0,.7-.13,2.54,2.54,0,0,0,.63-.36l.31.43a2.47,2.47,0,0,1-1.65.62A2.25,2.25,0,0,1,278.63,44a3.89,3.89,0,0,1-.3-1.59,4,4,0,0,1,.3-1.6,2.45,2.45,0,0,1,.85-1.06,2.24,2.24,0,0,1,1.28-.38A2.66,2.66,0,0,1,281.64,39.5Z"/><path d="M287.82,42.61H284a2.68,2.68,0,0,0,.54,1.66,1.55,1.55,0,0,0,1.26.55,2.14,2.14,0,0,0,.79-.14,3.77,3.77,0,0,0,.76-.43l.29.4a3.13,3.13,0,0,1-.88.53,2.66,2.66,0,0,1-1,.18,2.2,2.2,0,0,1-1.79-.78,3.34,3.34,0,0,1-.65-2.17,4.16,4.16,0,0,1,.28-1.6,2.46,2.46,0,0,1,.8-1.07,2.06,2.06,0,0,1,1.22-.38,2,2,0,0,1,1.67.74,3.29,3.29,0,0,1,.57,2A3.54,3.54,0,0,1,287.82,42.61Zm-.6-.66a2.59,2.59,0,0,0-.4-1.52,1.41,1.41,0,0,0-1.2-.54,1.38,1.38,0,0,0-1.15.55,2.79,2.79,0,0,0-.49,1.67h3.24Z"/><path d="M295.5,38.34a1.84,1.84,0,0,1,.55,1.38,3.1,3.1,0,0,1-.3,1.35,6.92,6.92,0,0,1-.93,1.37c-.42.5-1.1,1.24-2,2.23h3.47l-.09.57H292V44.7c1-1.07,1.73-1.87,2.17-2.38a6.89,6.89,0,0,0,.92-1.35,2.75,2.75,0,0,0,.27-1.21,1.45,1.45,0,0,0-.38-1,1.37,1.37,0,0,0-1-.38,1.86,1.86,0,0,0-.89.21,2.81,2.81,0,0,0-.75.62l-.44-.33a3,3,0,0,1,1-.79A2.54,2.54,0,0,1,294,37.8,2,2,0,0,1,295.5,38.34Z"/><path d="M301.57,38.76a5.5,5.5,0,0,1,.58,2.82,5.45,5.45,0,0,1-.58,2.81,2,2,0,0,1-3.43,0,5.5,5.5,0,0,1-.58-2.82,5.43,5.43,0,0,1,.58-2.81,2,2,0,0,1,3.43,0Zm-3.35,2.81c0,2.17.54,3.26,1.64,3.26a1.31,1.31,0,0,0,1.21-.79,5.51,5.51,0,0,0,.41-2.46,5.57,5.57,0,0,0-.41-2.46,1.3,1.3,0,0,0-1.21-.79C298.76,38.33,298.22,39.41,298.22,41.57Z"/><path d="M305.78,37.92v7.32h-.63V38.62l-1.81,1.13-.3-.48,2.19-1.35Z"/><path d="M311.53,37.92v.5l-2.89,6.9-.59-.19,2.82-6.67h-3.42v-.54Z"/></g><path class="cls-4" d="M91.76,80.64c0,2.51-.69,3.77-2.08,3.77a1.68,1.68,0,0,1-1.56-.94,6,6,0,0,1-.53-2.84c0-2.52.7-3.78,2.09-3.78S91.76,78.11,91.76,80.64ZM88.6,78.15a6,6,0,0,0-.37,2.48,6.12,6.12,0,0,0,.37,2.49,1.14,1.14,0,0,0,2.16,0,8.64,8.64,0,0,0,0-5,1.14,1.14,0,0,0-2.17,0Z"/><path class="cls-4" d="M172.55,77.38a1.88,1.88,0,0,1,.5,1.35,3.46,3.46,0,0,1-.27,1.35,6.71,6.71,0,0,1-.85,1.4c-.38.52-1,1.27-1.83,2.26h3.13l-.09.55h-3.73v-.52c.88-1,1.52-1.85,1.92-2.39a6.49,6.49,0,0,0,.85-1.39,3.21,3.21,0,0,0,.24-1.23,1.47,1.47,0,0,0-.33-1,1.16,1.16,0,0,0-.9-.36,1.61,1.61,0,0,0-.8.2,2.42,2.42,0,0,0-.66.63l-.42-.31a2.73,2.73,0,0,1,.85-.79,2.15,2.15,0,0,1,1.05-.26A1.75,1.75,0,0,1,172.55,77.38Z"/><path class="cls-4" d="M178.6,80.64c0,2.51-.69,3.77-2.07,3.77a1.7,1.7,0,0,1-1.57-.94,6,6,0,0,1-.52-2.84c0-2.52.69-3.78,2.09-3.78S178.6,78.11,178.6,80.64Zm-3.16-2.49a6,6,0,0,0-.37,2.48,6.12,6.12,0,0,0,.37,2.49,1.14,1.14,0,0,0,2.16,0,6.1,6.1,0,0,0,.37-2.48,6.27,6.27,0,0,0-.36-2.49,1.14,1.14,0,0,0-2.17,0Z"/><path class="cls-4" d="M260.69,81.85v.51h-.88v1.93h-.59V82.36h-2.89v-.47l2-5,.53.2L257,81.85h2.25l.07-2.16h.52v2.16Z"/><path class="cls-4" d="M265.9,80.64c0,2.51-.7,3.77-2.08,3.77a1.68,1.68,0,0,1-1.56-.94,5.9,5.9,0,0,1-.53-2.84c0-2.52.69-3.78,2.09-3.78S265.9,78.11,265.9,80.64Zm-3.17-2.49a6.25,6.25,0,0,0-.36,2.48,6.34,6.34,0,0,0,.36,2.49,1.16,1.16,0,0,0,1.09.77,1.18,1.18,0,0,0,1.08-.77,8.76,8.76,0,0,0,0-5,1.14,1.14,0,0,0-2.17,0Z"/><path class="cls-4" d="M347.44,80.11a2.63,2.63,0,0,1,.49,1.72,3.45,3.45,0,0,1-.25,1.39,2,2,0,0,1-.68.89,1.77,1.77,0,0,1-1,.3,1.7,1.7,0,0,1-1.6-.91,5.15,5.15,0,0,1-.51-2.5,7.64,7.64,0,0,1,.29-2.23,3.28,3.28,0,0,1,.83-1.43,1.88,1.88,0,0,1,1.28-.49,2.05,2.05,0,0,1,1.24.43l-.27.42a1.63,1.63,0,0,0-1-.33,1.41,1.41,0,0,0-1.27.87,5.51,5.51,0,0,0-.5,2.35,1.94,1.94,0,0,1,1.68-1.06A1.59,1.59,0,0,1,347.44,80.11ZM347,83.35a2.8,2.8,0,0,0,.35-1.5,2.32,2.32,0,0,0-.33-1.38,1.09,1.09,0,0,0-.91-.44,1.38,1.38,0,0,0-.89.33,2.46,2.46,0,0,0-.7.89,4.39,4.39,0,0,0,.38,2,1.18,1.18,0,0,0,1.11.66A1.08,1.08,0,0,0,347,83.35Z"/><path class="cls-4" d="M353.32,80.64c0,2.51-.69,3.77-2.08,3.77a1.68,1.68,0,0,1-1.56-.94,6,6,0,0,1-.53-2.84c0-2.52.7-3.78,2.09-3.78S353.32,78.11,353.32,80.64Zm-3.17-2.49a6.25,6.25,0,0,0-.36,2.48,6.34,6.34,0,0,0,.36,2.49,1.18,1.18,0,0,0,1.09.77,1.16,1.16,0,0,0,1.08-.77,6.32,6.32,0,0,0,.36-2.48,6.5,6.5,0,0,0-.35-2.49,1.16,1.16,0,0,0-1.09-.78A1.18,1.18,0,0,0,350.15,78.15Z"/><path class="cls-4" d="M427.93,81.21a1.92,1.92,0,0,1,.35,1.18,1.94,1.94,0,0,1-.59,1.48,2.25,2.25,0,0,1-1.57.54,2.14,2.14,0,0,1-1.56-.55,1.9,1.9,0,0,1-.58-1.45,2.11,2.11,0,0,1,1.45-2,2.34,2.34,0,0,1-.89-.69,1.7,1.7,0,0,1-.27-1,1.79,1.79,0,0,1,.26-1,1.65,1.65,0,0,1,.68-.63,2.14,2.14,0,0,1,1.85,0,1.57,1.57,0,0,1,.69.61,1.83,1.83,0,0,1,.26,1,1.68,1.68,0,0,1-.29,1,3,3,0,0,1-.93.76A2.86,2.86,0,0,1,427.93,81.21Zm-.69,2.3a1.41,1.41,0,0,0,.42-1.11,1.5,1.5,0,0,0-.32-1,3.11,3.11,0,0,0-1.13-.68l-.34-.14a2.2,2.2,0,0,0-1,.74,1.91,1.91,0,0,0-.3,1.11,1.4,1.4,0,0,0,.41,1.1,1.81,1.81,0,0,0,2.22,0Zm-2.11-4a2.58,2.58,0,0,0,.94.59l.31.13a2.46,2.46,0,0,0,.78-.69,1.48,1.48,0,0,0,.24-.86,1.37,1.37,0,0,0-.34-1,1.23,1.23,0,0,0-.92-.34,1.25,1.25,0,0,0-.92.34,1.36,1.36,0,0,0-.35,1A1.25,1.25,0,0,0,425.13,79.52Z"/><path class="cls-4" d="M433.67,80.64c0,2.51-.69,3.77-2.08,3.77a1.68,1.68,0,0,1-1.56-.94,6,6,0,0,1-.53-2.84c0-2.52.7-3.78,2.09-3.78S433.67,78.11,433.67,80.64Zm-3.17-2.49a6.25,6.25,0,0,0-.36,2.48,6.34,6.34,0,0,0,.36,2.49,1.18,1.18,0,0,0,1.09.77,1.16,1.16,0,0,0,1.08-.77,8.87,8.87,0,0,0,0-5,1.16,1.16,0,0,0-1.09-.78A1.18,1.18,0,0,0,430.5,78.15Z"/><path class="cls-4" d="M438.34,84.15a1.06,1.06,0,0,1-.26-.76v-7.2l.62-.07v7.26c0,.33.14.5.42.5a.74.74,0,0,0,.35-.08l.15.46a1.16,1.16,0,0,1-.6.15A.91.91,0,0,1,438.34,84.15Z"/><path class="cls-4" d="M444.66,81.66H441.2a2.86,2.86,0,0,0,.47,1.69,1.39,1.39,0,0,0,1.13.53,1.81,1.81,0,0,0,.72-.13,2.77,2.77,0,0,0,.66-.42l.31.39a3.07,3.07,0,0,1-.8.51,2.27,2.27,0,0,1-.91.18,2,2,0,0,1-1.63-.77,3.53,3.53,0,0,1-.59-2.18,3.85,3.85,0,0,1,.57-2.24,1.76,1.76,0,0,1,1.54-.8,1.74,1.74,0,0,1,1.5.72,3.54,3.54,0,0,1,.51,2.06A3.46,3.46,0,0,1,444.66,81.66Zm-.58-.66a2.85,2.85,0,0,0-.35-1.54,1.29,1.29,0,0,0-2.09,0,3.08,3.08,0,0,0-.44,1.71h2.88Z"/><path class="cls-4" d="M448.69,84.05a1.88,1.88,0,0,1-1.1.36,1.24,1.24,0,0,1-.95-.36,1.46,1.46,0,0,1-.34-1V79h-.87v-.5h.87V77.16l.62-.08v1.46h1.33l-.08.5h-1.25v4c0,.59.24.88.73.88a1.53,1.53,0,0,0,.78-.24Z"/><path d="M41.49,115.58a3,3,0,0,1,.95.61l-.52.58a3,3,0,0,0-.76-.46,2.16,2.16,0,0,0-.81-.14,1.48,1.48,0,0,0-.89.25.84.84,0,0,0-.35.73,1,1,0,0,0,.12.5,1.1,1.1,0,0,0,.45.38,6.73,6.73,0,0,0,.94.36,5.15,5.15,0,0,1,1.08.43,1.85,1.85,0,0,1,.7.63,2.12,2.12,0,0,1,0,2.09,2.09,2.09,0,0,1-.85.72,3.14,3.14,0,0,1-1.32.26,3.23,3.23,0,0,1-2.34-.89l.52-.58a3.83,3.83,0,0,0,.85.51,2.49,2.49,0,0,0,1,.18,1.71,1.71,0,0,0,1.06-.32,1.06,1.06,0,0,0,.42-.91,1,1,0,0,0-.57-1,4.63,4.63,0,0,0-.92-.36,4.2,4.2,0,0,1-1.55-.77,1.6,1.6,0,0,1-.49-1.22,1.65,1.65,0,0,1,.28-.93,1.74,1.74,0,0,1,.77-.64,2.52,2.52,0,0,1,1.12-.23A3.17,3.17,0,0,1,41.49,115.58Z"/><path d="M44.26,122.21a1.16,1.16,0,0,1-.3-.85V115l.92-.11v6.44a.56.56,0,0,0,.08.32.31.31,0,0,0,.25.1.9.9,0,0,0,.34-.06l.24.64a1.49,1.49,0,0,1-.73.18A1.08,1.08,0,0,1,44.26,122.21Z"/><path d="M50.6,117.75a3,3,0,0,1,.61,2,3.46,3.46,0,0,1-.28,1.44,2.1,2.1,0,0,1-.81,1,2.25,2.25,0,0,1-1.26.35,2.15,2.15,0,0,1-1.73-.74,3.07,3.07,0,0,1-.62-2,3.64,3.64,0,0,1,.28-1.45,2.22,2.22,0,0,1,.81-1,2.3,2.3,0,0,1,1.27-.34A2.11,2.11,0,0,1,50.6,117.75Zm-3.1,2c0,1.34.46,2,1.36,2s1.36-.68,1.36-2-.45-2-1.35-2S47.5,118.42,47.5,119.77Z"/><path d="M56.56,117.13l-1.79,5.27H53.66l-1.82-5.27h1l1.38,4.45,1.37-4.45Z"/><path d="M61.53,120.08H58.17a2.09,2.09,0,0,0,.44,1.28,1.3,1.3,0,0,0,1,.41,2.19,2.19,0,0,0,.7-.11,2.88,2.88,0,0,0,.67-.35l.4.55a2.91,2.91,0,0,1-1.84.66,2.13,2.13,0,0,1-1.71-.72,3,3,0,0,1-.62-2,3.69,3.69,0,0,1,.27-1.46,2.31,2.31,0,0,1,.76-1,1.93,1.93,0,0,1,1.16-.36,2,2,0,0,1,1.61.69,2.9,2.9,0,0,1,.56,1.91A3.77,3.77,0,0,1,61.53,120.08Zm-.89-.74a1.92,1.92,0,0,0-.31-1.19,1.06,1.06,0,0,0-.93-.41c-.75,0-1.16.55-1.23,1.66h2.47Z"/><path d="M66.63,117.44a1.64,1.64,0,0,1,.4,1.18v3.78h-.92v-3.65a1.15,1.15,0,0,0-.21-.79.77.77,0,0,0-.62-.23,1.21,1.21,0,0,0-.74.24,2.61,2.61,0,0,0-.6.69v3.74H63v-5.27h.79l.08.78a2.1,2.1,0,0,1,.7-.66,1.77,1.77,0,0,1,.91-.24A1.47,1.47,0,0,1,66.63,117.44Z"/><path d="M71.28,117.16a2.87,2.87,0,0,1,.82.45l-.39.58a2.87,2.87,0,0,0-.68-.34,2,2,0,0,0-.69-.11,1.24,1.24,0,0,0-.71.18.59.59,0,0,0-.26.51.6.6,0,0,0,.25.5,3,3,0,0,0,.88.35,3,3,0,0,1,1.32.6,1.3,1.3,0,0,1,.43,1,1.36,1.36,0,0,1-.6,1.19,2.63,2.63,0,0,1-1.48.41,2.92,2.92,0,0,1-2-.69l.49-.56a2.39,2.39,0,0,0,1.48.51,1.43,1.43,0,0,0,.83-.22.68.68,0,0,0,.3-.58.74.74,0,0,0-.11-.44.85.85,0,0,0-.38-.29A5.17,5.17,0,0,0,70,120a2.78,2.78,0,0,1-1.21-.59,1.27,1.27,0,0,1-.38-.94,1.19,1.19,0,0,1,.25-.75,1.57,1.57,0,0,1,.68-.52,2.5,2.5,0,0,1,1-.18A2.91,2.91,0,0,1,71.28,117.16Z"/><path d="M74.47,114.9v7.5h-.92V115Zm3,2.23-1.94,2.33,2.16,2.94h-1.1l-2.09-2.88,1.94-2.39Z"/><path d="M82.29,117.75a3,3,0,0,1,.61,2,3.46,3.46,0,0,1-.28,1.44,2.1,2.1,0,0,1-.81,1,2.25,2.25,0,0,1-1.26.35,2.15,2.15,0,0,1-1.73-.74,3.07,3.07,0,0,1-.62-2,3.64,3.64,0,0,1,.28-1.45,2.22,2.22,0,0,1,.81-1,2.3,2.3,0,0,1,1.27-.34A2.11,2.11,0,0,1,82.29,117.75Zm-3.1,2c0,1.34.46,2,1.36,2s1.36-.68,1.36-2-.45-2-1.35-2S79.19,118.42,79.19,119.77Z"/><path d="M47.53,144.29l-.11.77H44.75v2.25h2.32v.76H44.75v2.36h2.86v.76H43.8v-6.9Z"/><path d="M51.45,146a2.65,2.65,0,0,1,.82.45l-.39.58a2.7,2.7,0,0,0-.68-.34,2,2,0,0,0-.69-.11,1.24,1.24,0,0,0-.71.18.59.59,0,0,0-.26.5.58.58,0,0,0,.25.5,3,3,0,0,0,.88.36,3,3,0,0,1,1.32.6,1.3,1.3,0,0,1,.43,1,1.36,1.36,0,0,1-.6,1.19,2.6,2.6,0,0,1-1.48.41,2.92,2.92,0,0,1-2-.69l.49-.56a2.39,2.39,0,0,0,1.48.51,1.43,1.43,0,0,0,.83-.22.68.68,0,0,0,.3-.58.72.72,0,0,0-.11-.44A.85.85,0,0,0,51,149a5.17,5.17,0,0,0-.79-.26,2.78,2.78,0,0,1-1.21-.59,1.29,1.29,0,0,1-.38-.94,1.25,1.25,0,0,1,.25-.75,1.57,1.57,0,0,1,.68-.52,2.5,2.5,0,0,1,1-.19A2.9,2.9,0,0,1,51.45,146Z"/><path d="M56.38,151a2,2,0,0,1-1.18.36,1.38,1.38,0,0,1-1-.39,1.54,1.54,0,0,1-.38-1.11v-3.19h-.92v-.7h.92v-1.19l.92-.11v1.3H56l-.1.7H54.7v3.15a.93.93,0,0,0,.15.59.59.59,0,0,0,.48.18,1.39,1.39,0,0,0,.7-.21Z"/><path d="M60.89,146.54a3,3,0,0,1,.61,2,3.47,3.47,0,0,1-.28,1.45,2.1,2.1,0,0,1-.81,1,2.25,2.25,0,0,1-1.26.35,2.15,2.15,0,0,1-1.73-.74,3.07,3.07,0,0,1-.62-2,3.64,3.64,0,0,1,.28-1.45,2.22,2.22,0,0,1,.81-1,2.3,2.3,0,0,1,1.27-.35A2.12,2.12,0,0,1,60.89,146.54Zm-3.1,2c0,1.34.46,2,1.36,2s1.36-.68,1.36-2-.45-2-1.35-2S57.79,147.21,57.79,148.56Z"/><path d="M66.63,146.23a1.64,1.64,0,0,1,.4,1.18v3.78h-.92v-3.65a1.15,1.15,0,0,0-.21-.79.77.77,0,0,0-.62-.23,1.27,1.27,0,0,0-.74.23,2.84,2.84,0,0,0-.6.7v3.74H63v-5.27h.79l.08.78a2.1,2.1,0,0,1,.7-.66,1.78,1.78,0,0,1,.91-.25A1.48,1.48,0,0,1,66.63,146.23Z"/><path d="M71.28,146a2.65,2.65,0,0,1,.82.45l-.39.58a2.87,2.87,0,0,0-.68-.34,2,2,0,0,0-.69-.11,1.24,1.24,0,0,0-.71.18.59.59,0,0,0-.26.5.58.58,0,0,0,.25.5,3,3,0,0,0,.88.36,3,3,0,0,1,1.32.6,1.3,1.3,0,0,1,.43,1,1.36,1.36,0,0,1-.6,1.19,2.63,2.63,0,0,1-1.48.41,2.92,2.92,0,0,1-2-.69l.49-.56a2.39,2.39,0,0,0,1.48.51,1.43,1.43,0,0,0,.83-.22.68.68,0,0,0,.3-.58.72.72,0,0,0-.11-.44.85.85,0,0,0-.38-.29,5.17,5.17,0,0,0-.79-.26,2.78,2.78,0,0,1-1.21-.59,1.29,1.29,0,0,1-.38-.94,1.19,1.19,0,0,1,.25-.75,1.57,1.57,0,0,1,.68-.52,2.5,2.5,0,0,1,1-.19A2.9,2.9,0,0,1,71.28,146Z"/><path d="M74.47,143.69v7.5h-.92v-7.4Zm3,2.23-1.94,2.33,2.16,2.94h-1.1l-2.09-2.88,1.94-2.39Z"/><path d="M82.29,146.54a3,3,0,0,1,.61,2,3.47,3.47,0,0,1-.28,1.45,2.1,2.1,0,0,1-.81,1,2.25,2.25,0,0,1-1.26.35,2.15,2.15,0,0,1-1.73-.74,3.07,3.07,0,0,1-.62-2,3.64,3.64,0,0,1,.28-1.45,2.22,2.22,0,0,1,.81-1,2.3,2.3,0,0,1,1.27-.35A2.12,2.12,0,0,1,82.29,146.54Zm-3.1,2c0,1.34.46,2,1.36,2s1.36-.68,1.36-2-.45-2-1.35-2S79.19,147.21,79.19,148.56Z"/><path d="M55.24,173.81a3.21,3.21,0,0,1,.94,2.68,3.33,3.33,0,0,1-.94,2.7,3.5,3.5,0,0,1-2.3.78H51.29v-6.89h1.44A4,4,0,0,1,55.24,173.81Zm-3,0v5.38H53a2.1,2.1,0,0,0,1.56-.59,3,3,0,0,0,.6-2.14,3.6,3.6,0,0,0-.31-1.67,1.57,1.57,0,0,0-.79-.78,3,3,0,0,0-1.13-.2Z"/><path d="M61.24,179.22a.73.73,0,0,0,.33.23l-.21.64a1.4,1.4,0,0,1-.66-.23,1.06,1.06,0,0,1-.37-.56,1.75,1.75,0,0,1-1.57.79,1.66,1.66,0,0,1-1.23-.44,1.68,1.68,0,0,1,.16-2.44,2.81,2.81,0,0,1,1.71-.45h.81v-.39a1,1,0,0,0-.27-.8,1.21,1.21,0,0,0-.83-.24,4.89,4.89,0,0,0-1.42.28l-.23-.67a5.33,5.33,0,0,1,1.82-.36,1.91,1.91,0,0,1,1.39.46,1.71,1.71,0,0,1,.46,1.29v2.41A.85.85,0,0,0,61.24,179.22ZM60,172l.41.77-2.12.86L58,173.1Zm.18,6.62v-1.21h-.69c-1,0-1.46.36-1.46,1.08a1,1,0,0,0,.23.71.91.91,0,0,0,.68.24A1.36,1.36,0,0,0,60.21,178.58Z"/><path d="M66.63,175a1.66,1.66,0,0,1,.4,1.18V180h-.92v-3.65a1.19,1.19,0,0,0-.21-.79.8.8,0,0,0-.62-.23,1.21,1.21,0,0,0-.74.24,2.61,2.61,0,0,0-.6.69V180H63V174.7h.79l.08.78a2.1,2.1,0,0,1,.7-.66,1.77,1.77,0,0,1,.91-.24A1.51,1.51,0,0,1,66.63,175Z"/><path d="M71.28,174.73a2.87,2.87,0,0,1,.82.45l-.39.58a3.91,3.91,0,0,0-.68-.34,2.26,2.26,0,0,0-.69-.11,1.24,1.24,0,0,0-.71.19.62.62,0,0,0,0,1,2.76,2.76,0,0,0,.88.35,3.25,3.25,0,0,1,1.32.6,1.32,1.32,0,0,1,.43,1,1.35,1.35,0,0,1-.6,1.19,2.55,2.55,0,0,1-1.48.41,2.92,2.92,0,0,1-2-.69l.49-.56a2.39,2.39,0,0,0,1.48.51,1.44,1.44,0,0,0,.83-.21.68.68,0,0,0,.3-.59.71.71,0,0,0-.11-.43.85.85,0,0,0-.38-.29,6.31,6.31,0,0,0-.79-.27,2.58,2.58,0,0,1-1.21-.59,1.26,1.26,0,0,1-.38-.94,1.18,1.18,0,0,1,.25-.74,1.57,1.57,0,0,1,.68-.52,2.5,2.5,0,0,1,1-.19A2.91,2.91,0,0,1,71.28,174.73Z"/><path d="M74.47,172.47V180h-.92v-7.39Zm3,2.23L75.56,177,77.72,180h-1.1l-2.09-2.88,1.94-2.39Z"/><path d="M82.29,175.32a3.07,3.07,0,0,1,.61,2,3.47,3.47,0,0,1-.28,1.45,2.1,2.1,0,0,1-.81,1,2.24,2.24,0,0,1-1.26.34,2.12,2.12,0,0,1-1.73-.74,3,3,0,0,1-.62-2,3.62,3.62,0,0,1,.28-1.44,2.22,2.22,0,0,1,.81-1,2.3,2.3,0,0,1,1.27-.35A2.14,2.14,0,0,1,82.29,175.32Zm-3.1,2c0,1.34.46,2,1.36,2s1.36-.67,1.36-2-.45-2-1.35-2S79.19,176,79.19,177.34Z"/><path d="M55.69,209.41v-6.89h3.66l-.11.76h-2.6v2.35h2.25v.75H56.64v3Z"/><path d="M61.12,201.79a.61.61,0,0,1,.18.45.57.57,0,0,1-.18.44.63.63,0,0,1-.47.18.63.63,0,0,1-.46-.18.57.57,0,0,1-.18-.44.61.61,0,0,1,.18-.45.63.63,0,0,1,.46-.18A.63.63,0,0,1,61.12,201.79Zm0,2.35v5.27H60.2v-5.27Z"/><path d="M66.63,204.45a1.64,1.64,0,0,1,.4,1.18v3.78h-.92v-3.65a1.15,1.15,0,0,0-.21-.79.77.77,0,0,0-.62-.23,1.21,1.21,0,0,0-.74.24,2.61,2.61,0,0,0-.6.69v3.74H63v-5.27h.79l.08.78a2.1,2.1,0,0,1,.7-.66,1.79,1.79,0,0,1,.91-.24A1.47,1.47,0,0,1,66.63,204.45Z"/><path d="M71.28,204.17a2.87,2.87,0,0,1,.82.45l-.39.58a2.87,2.87,0,0,0-.68-.34,2.26,2.26,0,0,0-.69-.11,1.24,1.24,0,0,0-.71.18.63.63,0,0,0,0,1,3,3,0,0,0,.88.35,3,3,0,0,1,1.32.6,1.3,1.3,0,0,1,.43,1,1.36,1.36,0,0,1-.6,1.19,2.63,2.63,0,0,1-1.48.41,2.92,2.92,0,0,1-2-.69l.49-.56a2.39,2.39,0,0,0,1.48.51,1.36,1.36,0,0,0,.83-.22.68.68,0,0,0,.3-.58.74.74,0,0,0-.11-.44.92.92,0,0,0-.38-.29A5.17,5.17,0,0,0,70,207a2.78,2.78,0,0,1-1.21-.59,1.27,1.27,0,0,1-.38-.94,1.21,1.21,0,0,1,.25-.75,1.65,1.65,0,0,1,.68-.52,2.5,2.5,0,0,1,1-.18A2.91,2.91,0,0,1,71.28,204.17Z"/><path d="M74.47,201.91v7.5h-.92V202Zm3,2.23-1.94,2.33,2.16,2.94h-1.1l-2.09-2.88,1.94-2.39Z"/><path d="M82.29,204.76a3,3,0,0,1,.61,2,3.43,3.43,0,0,1-.28,1.44,2.1,2.1,0,0,1-.81,1,2.25,2.25,0,0,1-1.26.35,2.15,2.15,0,0,1-1.73-.74,3.07,3.07,0,0,1-.62-2,3.64,3.64,0,0,1,.28-1.45A2.13,2.13,0,0,1,80.56,204,2.11,2.11,0,0,1,82.29,204.76Zm-3.1,2c0,1.34.46,2,1.36,2s1.36-.68,1.36-2-.45-2-1.35-2S79.19,205.43,79.19,206.78Z"/><path d="M58.44,231.84a1.88,1.88,0,0,1,.7,1.6,2,2,0,0,1-.73,1.68,3.17,3.17,0,0,1-1.94.55H55.6v2.53h-1v-6.89h1.81A3.22,3.22,0,0,1,58.44,231.84Zm-.74,2.76a1.35,1.35,0,0,0,.43-1.15,1.25,1.25,0,0,0-.43-1.07,2,2,0,0,0-1.25-.33H55.6v2.87h.83A2.14,2.14,0,0,0,57.7,234.6Z"/><path d="M63.82,233.55a3,3,0,0,1,.61,2,3.43,3.43,0,0,1-.28,1.44,2.1,2.1,0,0,1-.81,1,2.25,2.25,0,0,1-1.26.35,2.15,2.15,0,0,1-1.73-.74,3.07,3.07,0,0,1-.62-2,3.64,3.64,0,0,1,.28-1.45,2.13,2.13,0,0,1,2.08-1.31A2.11,2.11,0,0,1,63.82,233.55Zm-3.1,2c0,1.34.46,2,1.36,2s1.36-.68,1.36-2-.45-2-1.35-2S60.72,234.22,60.72,235.57Z"/><path d="M66.2,238a1.16,1.16,0,0,1-.3-.85v-6.35l.92-.11v6.44a.56.56,0,0,0,.08.32.31.31,0,0,0,.25.1.9.9,0,0,0,.34-.06l.24.64a1.49,1.49,0,0,1-.73.18A1.08,1.08,0,0,1,66.2,238Z"/><path d="M71.28,233a2.87,2.87,0,0,1,.82.45l-.39.58a2.87,2.87,0,0,0-.68-.34,2,2,0,0,0-.69-.11,1.24,1.24,0,0,0-.71.18.63.63,0,0,0,0,1,3,3,0,0,0,.88.35,3,3,0,0,1,1.32.6,1.3,1.3,0,0,1,.43,1,1.36,1.36,0,0,1-.6,1.19,2.63,2.63,0,0,1-1.48.41,2.92,2.92,0,0,1-2-.69l.49-.56a2.39,2.39,0,0,0,1.48.51,1.36,1.36,0,0,0,.83-.22.68.68,0,0,0,.3-.58.74.74,0,0,0-.11-.44.92.92,0,0,0-.38-.29,5.17,5.17,0,0,0-.79-.26,2.78,2.78,0,0,1-1.21-.59,1.27,1.27,0,0,1-.38-.94,1.21,1.21,0,0,1,.25-.75,1.65,1.65,0,0,1,.68-.52,2.5,2.5,0,0,1,1-.18A2.91,2.91,0,0,1,71.28,233Z"/><path d="M74.47,230.7v7.5h-.92v-7.39Zm3,2.23-1.94,2.33,2.16,2.94h-1.1l-2.09-2.88,1.94-2.39Z"/><path d="M82.29,233.55a3,3,0,0,1,.61,2,3.43,3.43,0,0,1-.28,1.44,2.1,2.1,0,0,1-.81,1,2.25,2.25,0,0,1-1.26.35,2.15,2.15,0,0,1-1.73-.74,3.07,3.07,0,0,1-.62-2,3.64,3.64,0,0,1,.28-1.45,2.13,2.13,0,0,1,2.08-1.31A2.11,2.11,0,0,1,82.29,233.55Zm-3.1,2c0,1.34.46,2,1.36,2s1.36-.68,1.36-2-.45-2-1.35-2S79.19,234.22,79.19,235.57Z"/><path d="M44.08,260.17a3,3,0,0,1,1,.61l-.52.58a3,3,0,0,0-.76-.46,2.16,2.16,0,0,0-.81-.14,1.48,1.48,0,0,0-.89.25.84.84,0,0,0-.35.73,1,1,0,0,0,.12.5,1.1,1.1,0,0,0,.45.38,6.73,6.73,0,0,0,.94.36,5.15,5.15,0,0,1,1.08.43,1.85,1.85,0,0,1,.7.63,1.81,1.81,0,0,1,.26,1,1.9,1.9,0,0,1-.29,1.06,2.09,2.09,0,0,1-.85.72,3.14,3.14,0,0,1-1.32.26,3.23,3.23,0,0,1-2.34-.89l.52-.58a3.83,3.83,0,0,0,.85.51,2.49,2.49,0,0,0,1,.18,1.71,1.71,0,0,0,1.06-.32,1.06,1.06,0,0,0,.42-.91,1,1,0,0,0-.57-1,4.63,4.63,0,0,0-.92-.36,4.2,4.2,0,0,1-1.55-.77,1.6,1.6,0,0,1-.49-1.22,1.57,1.57,0,0,1,.28-.93,1.74,1.74,0,0,1,.77-.64A2.52,2.52,0,0,1,42.9,260,3.17,3.17,0,0,1,44.08,260.17Z"/><path d="M46.85,266.8a1.16,1.16,0,0,1-.3-.85V259.6l.92-.11v6.44a.56.56,0,0,0,.08.32.31.31,0,0,0,.25.1.9.9,0,0,0,.34-.06l.24.64a1.49,1.49,0,0,1-.73.18A1.08,1.08,0,0,1,46.85,266.8Z"/><path d="M53.19,262.34a3,3,0,0,1,.61,2,3.46,3.46,0,0,1-.28,1.44,2.1,2.1,0,0,1-.81,1,2.25,2.25,0,0,1-1.26.35,2.15,2.15,0,0,1-1.73-.74,3.07,3.07,0,0,1-.62-2,3.64,3.64,0,0,1,.28-1.45,2.22,2.22,0,0,1,.81-1,2.3,2.3,0,0,1,1.27-.34A2.11,2.11,0,0,1,53.19,262.34Zm-3.1,2c0,1.34.46,2,1.36,2s1.36-.68,1.36-2-.45-2-1.35-2S50.09,263,50.09,264.36Z"/><path d="M59.15,261.72,57.36,267H56.25l-1.82-5.27h1l1.38,4.45,1.37-4.45Z"/><path d="M61.12,259.37a.61.61,0,0,1,.18.45.59.59,0,0,1-.18.44.63.63,0,0,1-.47.18.63.63,0,0,1-.46-.18.59.59,0,0,1-.18-.44.61.61,0,0,1,.18-.45.63.63,0,0,1,.46-.18A.63.63,0,0,1,61.12,259.37Zm0,2.35V267H60.2v-5.27Z"/><path d="M66.63,262a1.64,1.64,0,0,1,.4,1.18V267h-.92v-3.65a1.15,1.15,0,0,0-.21-.79.77.77,0,0,0-.62-.23,1.21,1.21,0,0,0-.74.24,2.61,2.61,0,0,0-.6.69V267H63v-5.27h.79l.08.78a2.1,2.1,0,0,1,.7-.66,1.77,1.77,0,0,1,.91-.24A1.47,1.47,0,0,1,66.63,262Z"/><path d="M71.28,261.75a2.87,2.87,0,0,1,.82.45l-.39.58a2.87,2.87,0,0,0-.68-.34,2,2,0,0,0-.69-.11,1.24,1.24,0,0,0-.71.18.59.59,0,0,0-.26.51.6.6,0,0,0,.25.5,3,3,0,0,0,.88.35,3,3,0,0,1,1.32.6,1.3,1.3,0,0,1,.43,1,1.36,1.36,0,0,1-.6,1.19,2.63,2.63,0,0,1-1.48.41,2.92,2.92,0,0,1-2-.69l.49-.56a2.39,2.39,0,0,0,1.48.51,1.43,1.43,0,0,0,.83-.22.68.68,0,0,0,.3-.58.74.74,0,0,0-.11-.44.85.85,0,0,0-.38-.29,5.17,5.17,0,0,0-.79-.26,2.78,2.78,0,0,1-1.21-.59,1.27,1.27,0,0,1-.38-.94,1.19,1.19,0,0,1,.25-.75,1.57,1.57,0,0,1,.68-.52,2.5,2.5,0,0,1,1-.18A2.91,2.91,0,0,1,71.28,261.75Z"/><path d="M74.47,259.49V267h-.92V259.6Zm3,2.23-1.94,2.33L77.72,267h-1.1l-2.09-2.88,1.94-2.39Z"/><path d="M82.29,262.34a3,3,0,0,1,.61,2,3.46,3.46,0,0,1-.28,1.44,2.1,2.1,0,0,1-.81,1,2.25,2.25,0,0,1-1.26.35,2.15,2.15,0,0,1-1.73-.74,3.07,3.07,0,0,1-.62-2,3.64,3.64,0,0,1,.28-1.45,2.22,2.22,0,0,1,.81-1,2.3,2.3,0,0,1,1.27-.34A2.11,2.11,0,0,1,82.29,262.34Zm-3.1,2c0,1.34.46,2,1.36,2s1.36-.68,1.36-2-.45-2-1.35-2S79.19,263,79.19,264.36Z"/><path d="M47,295.77h-.92l-.24-3.11c-.1-1.22-.15-2.15-.17-2.81L44.19,295H43.3l-1.57-5.15c0,.84,0,1.8-.13,2.89l-.23,3h-.9l.57-6.89h1.28l1.45,5,1.38-5h1.29Z"/><path d="M52.24,295a.73.73,0,0,0,.33.23l-.21.64a1.4,1.4,0,0,1-.66-.23,1.06,1.06,0,0,1-.37-.56,1.75,1.75,0,0,1-1.57.79,1.66,1.66,0,0,1-1.23-.44,1.68,1.68,0,0,1,.16-2.44,2.81,2.81,0,0,1,1.71-.45h.81v-.39a1,1,0,0,0-.27-.8,1.21,1.21,0,0,0-.83-.24,4.89,4.89,0,0,0-1.42.28l-.23-.67a5.33,5.33,0,0,1,1.82-.36,1.91,1.91,0,0,1,1.39.46,1.71,1.71,0,0,1,.46,1.29v2.41A.85.85,0,0,0,52.24,295Zm-1-.64v-1.21h-.69c-1,0-1.46.36-1.46,1.08a1,1,0,0,0,.23.71.91.91,0,0,0,.68.24A1.36,1.36,0,0,0,51.21,294.38Z"/><path d="M58.1,288.38v7.39h-.81L57.2,295a1.86,1.86,0,0,1-.65.63,1.71,1.71,0,0,1-.87.22,1.68,1.68,0,0,1-1.46-.74,3.36,3.36,0,0,1-.53-2,4,4,0,0,1,.25-1.44,2.28,2.28,0,0,1,.72-1,1.77,1.77,0,0,1,1.1-.36,1.89,1.89,0,0,1,1.42.65v-2.76ZM56.6,295a2.17,2.17,0,0,0,.58-.59V291.8a2,2,0,0,0-.55-.51,1.27,1.27,0,0,0-.67-.18,1.06,1.06,0,0,0-.94.51,2.83,2.83,0,0,0-.34,1.52,3,3,0,0,0,.31,1.52,1,1,0,0,0,.89.5A1.29,1.29,0,0,0,56.6,295Zm2.48-4.75.5-1.84-.83-.1-.2,1.86Z"/><path d="M63.39,295a.73.73,0,0,0,.33.23l-.21.64a1.4,1.4,0,0,1-.66-.23,1.06,1.06,0,0,1-.37-.56,1.75,1.75,0,0,1-1.57.79,1.66,1.66,0,0,1-1.23-.44,1.68,1.68,0,0,1,.16-2.44,2.81,2.81,0,0,1,1.71-.45h.81v-.39a1,1,0,0,0-.27-.8,1.21,1.21,0,0,0-.83-.24,4.89,4.89,0,0,0-1.42.28l-.23-.67a5.33,5.33,0,0,1,1.82-.36,1.91,1.91,0,0,1,1.39.46,1.71,1.71,0,0,1,.46,1.29v2.41A.85.85,0,0,0,63.39,295Zm-1-.64v-1.21h-.69c-1,0-1.46.36-1.46,1.08a1,1,0,0,0,.23.71.91.91,0,0,0,.68.24A1.36,1.36,0,0,0,62.36,294.38Z"/><path d="M68,290.44l-.17.9a1.88,1.88,0,0,0-.46-.06,1,1,0,0,0-.79.36,2.81,2.81,0,0,0-.47,1.12v3h-.92V290.5H66l.09,1.07a2,2,0,0,1,.57-.89,1.27,1.27,0,0,1,.84-.3A2.12,2.12,0,0,1,68,290.44Z"/><path d="M71.28,290.53a2.87,2.87,0,0,1,.82.45l-.39.58a3.59,3.59,0,0,0-.68-.34,2.26,2.26,0,0,0-.69-.11,1.24,1.24,0,0,0-.71.19.62.62,0,0,0,0,1,2.76,2.76,0,0,0,.88.35,3.25,3.25,0,0,1,1.32.6,1.32,1.32,0,0,1,.43,1,1.35,1.35,0,0,1-.6,1.19,2.53,2.53,0,0,1-1.48.41,2.92,2.92,0,0,1-2-.69l.49-.56a2.39,2.39,0,0,0,1.48.51,1.44,1.44,0,0,0,.83-.21.68.68,0,0,0,.3-.59.71.71,0,0,0-.11-.43.85.85,0,0,0-.38-.29,6.31,6.31,0,0,0-.79-.27,2.58,2.58,0,0,1-1.21-.59,1.26,1.26,0,0,1-.38-.94,1.24,1.24,0,0,1,.25-.74,1.57,1.57,0,0,1,.68-.52,2.5,2.5,0,0,1,1-.19A2.91,2.91,0,0,1,71.28,290.53Z"/><path d="M74.47,288.27v7.5h-.92v-7.39Zm3,2.23-1.94,2.33,2.16,2.94h-1.1l-2.09-2.88,1.94-2.39Z"/><path d="M82.29,291.12a3.07,3.07,0,0,1,.61,2,3.47,3.47,0,0,1-.28,1.45,2.1,2.1,0,0,1-.81,1,2.24,2.24,0,0,1-1.26.34,2.12,2.12,0,0,1-1.73-.74,3,3,0,0,1-.62-2,3.62,3.62,0,0,1,.28-1.44,2.22,2.22,0,0,1,.81-1,2.3,2.3,0,0,1,1.27-.35A2.14,2.14,0,0,1,82.29,291.12Zm-3.1,2c0,1.34.46,2,1.36,2s1.36-.67,1.36-2-.45-2-1.35-2S79.19,291.8,79.19,293.14Z"/><path d="M57.38,324.56H56.11l-2.8-5.85c0,.46.08.89.1,1.28s0,.86,0,1.41v3.16h-.89v-6.89h1.24l2.83,5.86c0-.17,0-.47-.08-.91s0-.83,0-1.19v-3.76h.89Z"/><path d="M63,319.91a3.07,3.07,0,0,1,.61,2,3.47,3.47,0,0,1-.28,1.45,2.1,2.1,0,0,1-.81,1,2.24,2.24,0,0,1-1.26.34,2.12,2.12,0,0,1-1.73-.74,3,3,0,0,1-.62-2,3.62,3.62,0,0,1,.28-1.44,2.22,2.22,0,0,1,.81-1,2.3,2.3,0,0,1,1.27-.35A2.14,2.14,0,0,1,63,319.91Zm-3.1,2c0,1.34.46,2,1.36,2s1.36-.67,1.36-2-.45-2-1.35-2S59.94,320.59,59.94,321.93Z"/><path d="M68,319.23l-.17.9a1.88,1.88,0,0,0-.46-.06,1,1,0,0,0-.79.36,2.81,2.81,0,0,0-.47,1.12v3h-.92v-5.27H66l.09,1.07a2,2,0,0,1,.57-.89,1.27,1.27,0,0,1,.84-.3A2.12,2.12,0,0,1,68,319.23Z"/><path d="M71.28,319.32a2.87,2.87,0,0,1,.82.45l-.39.58A3.91,3.91,0,0,0,71,320a2.26,2.26,0,0,0-.69-.11,1.24,1.24,0,0,0-.71.19.62.62,0,0,0,0,1,2.76,2.76,0,0,0,.88.35,3.25,3.25,0,0,1,1.32.6,1.32,1.32,0,0,1,.43,1,1.35,1.35,0,0,1-.6,1.19,2.55,2.55,0,0,1-1.48.41,2.92,2.92,0,0,1-2-.69l.49-.56a2.39,2.39,0,0,0,1.48.51,1.44,1.44,0,0,0,.83-.21.7.7,0,0,0,.3-.59.71.71,0,0,0-.11-.43.85.85,0,0,0-.38-.29,5,5,0,0,0-.79-.27,2.58,2.58,0,0,1-1.21-.59,1.26,1.26,0,0,1-.38-.94,1.18,1.18,0,0,1,.25-.74,1.57,1.57,0,0,1,.68-.52,2.5,2.5,0,0,1,1-.19A2.91,2.91,0,0,1,71.28,319.32Z"/><path d="M74.47,317.06v7.5h-.92v-7.39Zm3,2.23-1.94,2.33,2.16,2.94h-1.1l-2.09-2.88,1.94-2.39Z"/><path d="M82.29,319.91a3.07,3.07,0,0,1,.61,2,3.47,3.47,0,0,1-.28,1.45,2.1,2.1,0,0,1-.81,1,2.24,2.24,0,0,1-1.26.34,2.12,2.12,0,0,1-1.73-.74,3,3,0,0,1-.62-2,3.62,3.62,0,0,1,.28-1.44,2.22,2.22,0,0,1,.81-1,2.3,2.3,0,0,1,1.27-.35A2.14,2.14,0,0,1,82.29,319.91Zm-3.1,2c0,1.34.46,2,1.36,2s1.36-.67,1.36-2-.45-2-1.35-2S79.19,320.59,79.19,321.93Z"/><path d="M50.15,346.54a3.15,3.15,0,0,1,1,.6l-.52.58a2.91,2.91,0,0,0-.76-.45,2.16,2.16,0,0,0-.81-.15,1.56,1.56,0,0,0-.89.25.85.85,0,0,0-.35.73,1,1,0,0,0,.12.51,1.09,1.09,0,0,0,.45.37,4.9,4.9,0,0,0,.94.36,6.53,6.53,0,0,1,1.08.43,2,2,0,0,1,.7.64,1.8,1.8,0,0,1,.26,1,1.88,1.88,0,0,1-.29,1.06,2,2,0,0,1-.85.72,3,3,0,0,1-1.32.26,3.19,3.19,0,0,1-2.34-.89L47,352a3.54,3.54,0,0,0,.85.52,2.69,2.69,0,0,0,1,.17,1.71,1.71,0,0,0,1.06-.31,1.24,1.24,0,0,0,.29-1.48,1.1,1.1,0,0,0-.44-.41,4.63,4.63,0,0,0-.92-.36,4.05,4.05,0,0,1-1.55-.77,1.59,1.59,0,0,1-.49-1.22,1.69,1.69,0,0,1,.28-.93,1.88,1.88,0,0,1,.77-.64,2.67,2.67,0,0,1,1.12-.23A3.16,3.16,0,0,1,50.15,346.54Zm.15-2.28.39.45-1.35,1.1h-.61l-1.36-1.1.4-.45,1.26.81Z"/><path d="M56.44,348.08l-1.79,5.27H53.54l-1.82-5.27h1l1.38,4.45,1.37-4.45Z"/><path d="M61.41,351H58.05a2.07,2.07,0,0,0,.44,1.28,1.26,1.26,0,0,0,1,.41,1.94,1.94,0,0,0,.7-.11,2.54,2.54,0,0,0,.67-.35l.4.55a2.91,2.91,0,0,1-1.84.66,2.13,2.13,0,0,1-1.71-.72,3,3,0,0,1-.62-2,3.68,3.68,0,0,1,.27-1.45,2.28,2.28,0,0,1,.76-1,1.93,1.93,0,0,1,1.16-.36,2,2,0,0,1,1.61.69,2.92,2.92,0,0,1,.56,1.91A3.7,3.7,0,0,1,61.41,351Zm-.89-.74a1.94,1.94,0,0,0-.31-1.19,1.08,1.08,0,0,0-.93-.41c-.75,0-1.16.56-1.23,1.66h2.47Zm-.44-5,.41.77-2.12.86-.28-.49Z"/><path d="M67,346v7.39h-.81l-.09-.73a1.86,1.86,0,0,1-.65.63,1.71,1.71,0,0,1-.87.22,1.68,1.68,0,0,1-1.46-.74,3.36,3.36,0,0,1-.53-2,4,4,0,0,1,.25-1.44,2.23,2.23,0,0,1,.72-1,1.77,1.77,0,0,1,1.1-.36,1.89,1.89,0,0,1,1.42.65v-2.76Zm-1.5,6.59a2.17,2.17,0,0,0,.58-.59v-2.58a1.87,1.87,0,0,0-.55-.51,1.27,1.27,0,0,0-.67-.18,1.06,1.06,0,0,0-.94.51,2.83,2.83,0,0,0-.34,1.52,3,3,0,0,0,.31,1.52,1,1,0,0,0,.89.5A1.29,1.29,0,0,0,65.48,352.55Z"/><path d="M71.28,348.11a2.87,2.87,0,0,1,.82.45l-.39.58a3.91,3.91,0,0,0-.68-.34,2.26,2.26,0,0,0-.69-.11,1.17,1.17,0,0,0-.71.19.62.62,0,0,0,0,1,2.76,2.76,0,0,0,.88.35,3.25,3.25,0,0,1,1.32.6,1.32,1.32,0,0,1,.43,1,1.35,1.35,0,0,1-.6,1.19,2.55,2.55,0,0,1-1.48.41,2.92,2.92,0,0,1-2-.69l.49-.56a2.39,2.39,0,0,0,1.48.51,1.44,1.44,0,0,0,.83-.21.7.7,0,0,0,.3-.59.71.71,0,0,0-.11-.43.85.85,0,0,0-.38-.29,5,5,0,0,0-.79-.27,2.58,2.58,0,0,1-1.21-.59,1.26,1.26,0,0,1-.38-.94,1.18,1.18,0,0,1,.25-.74,1.5,1.5,0,0,1,.68-.52,2.33,2.33,0,0,1,1-.19A2.91,2.91,0,0,1,71.28,348.11Z"/><path d="M74.47,345.85v7.5h-.92V346Zm3,2.23-1.94,2.33,2.16,2.94h-1.1l-2.09-2.88,1.94-2.39Z"/><path d="M82.29,348.7a3.07,3.07,0,0,1,.61,2,3.47,3.47,0,0,1-.28,1.45,2.15,2.15,0,0,1-.81,1,2.24,2.24,0,0,1-1.26.34,2.12,2.12,0,0,1-1.73-.74,3,3,0,0,1-.62-2,3.59,3.59,0,0,1,.28-1.44,2.22,2.22,0,0,1,.81-1,2.3,2.3,0,0,1,1.27-.35A2.14,2.14,0,0,1,82.29,348.7Zm-3.1,2c0,1.34.46,2,1.36,2s1.36-.67,1.36-2-.45-2-1.35-2S79.19,349.38,79.19,350.72Z"/><path d="M43.28,379a1.46,1.46,0,0,1,.44,1.18c0,1.31-.91,2-2.73,2h-1.9v-6.89h1.63a3.8,3.8,0,0,1,2,.43,1.45,1.45,0,0,1,.69,1.31,1.41,1.41,0,0,1-.37,1,1.66,1.66,0,0,1-.92.51A2.3,2.3,0,0,1,43.28,379ZM40,376v2.17h1a1.57,1.57,0,0,0,1-.29.94.94,0,0,0,.38-.82.87.87,0,0,0-.4-.83,2.61,2.61,0,0,0-1.23-.23Zm2.24,5.13a1,1,0,0,0,.44-.95,1.11,1.11,0,0,0-.43-1,1.9,1.9,0,0,0-1.12-.3H40v2.48h1A2.66,2.66,0,0,0,42.28,381.13Z"/><path d="M49,382.14h-.79l-.07-.82a2,2,0,0,1-.69.72,1.86,1.86,0,0,1-1,.22,1.4,1.4,0,0,1-1.08-.42,1.67,1.67,0,0,1-.39-1.19v-3.78H46v3.68a1.26,1.26,0,0,0,.19.77.78.78,0,0,0,.62.22,1.54,1.54,0,0,0,1.32-.91v-3.76H49Z"/><path d="M51.19,382a1.18,1.18,0,0,1-.3-.86v-6.35l.92-.11v6.44a.54.54,0,0,0,.08.32.28.28,0,0,0,.25.1.9.9,0,0,0,.34-.06l.24.64a1.49,1.49,0,0,1-.73.18A1.07,1.07,0,0,1,51.19,382Z"/><path d="M57.48,377.18a1.66,1.66,0,0,1,.4,1.18v3.78H57v-3.65a1.17,1.17,0,0,0-.21-.79.82.82,0,0,0-.63-.23,1.21,1.21,0,0,0-.73.24,2.72,2.72,0,0,0-.6.68v3.75h-.92v-7.38l.92-.1v2.94a1.9,1.9,0,0,1,1.56-.85A1.47,1.47,0,0,1,57.48,377.18Z"/><path d="M63.39,381.39a.73.73,0,0,0,.33.23l-.21.64a1.4,1.4,0,0,1-.66-.23,1.11,1.11,0,0,1-.37-.56,1.75,1.75,0,0,1-1.57.79,1.66,1.66,0,0,1-1.23-.44,1.68,1.68,0,0,1,.16-2.44,2.81,2.81,0,0,1,1.71-.45h.81v-.39a1,1,0,0,0-.27-.8,1.21,1.21,0,0,0-.83-.24,4.58,4.58,0,0,0-1.42.28l-.23-.67a5.33,5.33,0,0,1,1.82-.36,1.87,1.87,0,0,1,1.39.46,1.71,1.71,0,0,1,.46,1.29v2.41A.9.9,0,0,0,63.39,381.39Zm-1-.64v-1.21h-.69c-1,0-1.46.36-1.46,1.08a1,1,0,0,0,.23.71.91.91,0,0,0,.68.24A1.36,1.36,0,0,0,62.36,380.75Z"/><path d="M68,376.81l-.17.9a1.88,1.88,0,0,0-.46-.06,1,1,0,0,0-.79.36,2.74,2.74,0,0,0-.47,1.12v3h-.92v-5.27H66l.09,1.07a2,2,0,0,1,.57-.89,1.27,1.27,0,0,1,.84-.3A2.12,2.12,0,0,1,68,376.81Z"/><path d="M71.28,376.9a2.87,2.87,0,0,1,.82.45l-.39.58a3.91,3.91,0,0,0-.68-.34,2.26,2.26,0,0,0-.69-.11,1.17,1.17,0,0,0-.71.19.59.59,0,0,0-.26.5.6.6,0,0,0,.25.5,2.76,2.76,0,0,0,.88.35,3.25,3.25,0,0,1,1.32.6,1.32,1.32,0,0,1,.43,1,1.35,1.35,0,0,1-.6,1.19,2.63,2.63,0,0,1-1.48.41,2.92,2.92,0,0,1-2-.69l.49-.56a2.39,2.39,0,0,0,1.48.51,1.44,1.44,0,0,0,.83-.21.7.7,0,0,0,.3-.59.71.71,0,0,0-.11-.43.85.85,0,0,0-.38-.29,5,5,0,0,0-.79-.27,2.67,2.67,0,0,1-1.21-.59,1.27,1.27,0,0,1-.38-.94,1.18,1.18,0,0,1,.25-.74,1.5,1.5,0,0,1,.68-.52,2.33,2.33,0,0,1,1-.19A2.91,2.91,0,0,1,71.28,376.9Z"/><path d="M74.47,374.64v7.5h-.92v-7.39Zm3,2.23-1.94,2.33,2.16,2.94h-1.1l-2.09-2.88,1.94-2.39Z"/><path d="M82.29,377.49a3.05,3.05,0,0,1,.61,2,3.47,3.47,0,0,1-.28,1.45,2.15,2.15,0,0,1-.81,1,2.24,2.24,0,0,1-1.26.34,2.15,2.15,0,0,1-1.73-.74,3,3,0,0,1-.62-2,3.56,3.56,0,0,1,.28-1.44,2.22,2.22,0,0,1,.81-1,2.3,2.3,0,0,1,1.27-.35A2.14,2.14,0,0,1,82.29,377.49Zm-3.1,2c0,1.34.46,2,1.36,2s1.36-.67,1.36-2-.45-2-1.35-2S79.19,378.17,79.19,379.51Z"/><path d="M62.39,432.83v6.89h-1v-6.89Z"/><path d="M67,439.48a2,2,0,0,1-1.18.36,1.38,1.38,0,0,1-1-.39,1.51,1.51,0,0,1-.38-1.11v-3.18h-.92v-.71h.92v-1.19l.92-.11v1.3h1.25l-.1.71H65.32v3.14a.93.93,0,0,0,.15.59.57.57,0,0,0,.48.19,1.5,1.5,0,0,0,.7-.21Z"/><path d="M71.54,439a.68.68,0,0,0,.33.24l-.21.64a1.4,1.4,0,0,1-.66-.23,1.11,1.11,0,0,1-.37-.56,1.75,1.75,0,0,1-1.57.79,1.7,1.7,0,0,1-1.23-.44A1.68,1.68,0,0,1,68,437a2.81,2.81,0,0,1,1.71-.45h.81v-.39a1,1,0,0,0-.27-.8,1.21,1.21,0,0,0-.83-.24,4.58,4.58,0,0,0-1.42.28l-.23-.67a5.33,5.33,0,0,1,1.82-.36,1.9,1.9,0,0,1,1.39.45,1.75,1.75,0,0,1,.46,1.3v2.41A.83.83,0,0,0,71.54,439Zm-1.21-7.25.41.77-2.12.86-.28-.49Zm.18,6.62v-1.21h-.69c-1,0-1.46.36-1.46,1.08a1,1,0,0,0,.23.71.91.91,0,0,0,.68.24A1.36,1.36,0,0,0,70.51,438.33Z"/><path d="M73.47,439.53a1.14,1.14,0,0,1-.3-.85v-6.35l.92-.11v6.44a.54.54,0,0,0,.08.32.28.28,0,0,0,.25.1.9.9,0,0,0,.34-.06l.24.64a1.49,1.49,0,0,1-.73.18A1,1,0,0,1,73.47,439.53Z"/><path d="M77.07,432.1a.61.61,0,0,1,.18.45.57.57,0,0,1-.18.44.63.63,0,0,1-.47.18.63.63,0,0,1-.46-.18.57.57,0,0,1-.18-.44.61.61,0,0,1,.18-.45.63.63,0,0,1,.46-.18A.63.63,0,0,1,77.07,432.1Zm0,2.35v5.27h-.92v-5.27Z"/><path d="M82.93,437.4H79.57a2.07,2.07,0,0,0,.44,1.28,1.3,1.3,0,0,0,1,.41,2.19,2.19,0,0,0,.7-.11,2.54,2.54,0,0,0,.67-.35l.4.55a2.91,2.91,0,0,1-1.84.66,2.13,2.13,0,0,1-1.71-.72,3,3,0,0,1-.62-2,3.73,3.73,0,0,1,.27-1.46,2.31,2.31,0,0,1,.76-1,1.93,1.93,0,0,1,1.16-.36,2,2,0,0,1,1.61.69,2.92,2.92,0,0,1,.56,1.91A3.77,3.77,0,0,1,82.93,437.4Zm-.89-.74a1.92,1.92,0,0,0-.31-1.19,1.08,1.08,0,0,0-.93-.41c-.75,0-1.16.55-1.23,1.66H82Z"/><path d="M34.8,462.15a1.88,1.88,0,0,1,.7,1.6,2,2,0,0,1-.73,1.68,3.17,3.17,0,0,1-1.94.55H32v2.53H31v-6.89h1.81A3.22,3.22,0,0,1,34.8,462.15Zm-.74,2.76a1.34,1.34,0,0,0,.43-1.15,1.26,1.26,0,0,0-.43-1.07,2,2,0,0,0-1.25-.33H32v2.87h.83A2.14,2.14,0,0,0,34.06,464.91Z"/><path d="M40.18,463.86a3,3,0,0,1,.61,2,3.4,3.4,0,0,1-.28,1.44,2.1,2.1,0,0,1-.81,1,2.25,2.25,0,0,1-1.26.35,2.15,2.15,0,0,1-1.73-.74,3.07,3.07,0,0,1-.62-2,3.64,3.64,0,0,1,.28-1.45,2.13,2.13,0,0,1,2.08-1.31A2.14,2.14,0,0,1,40.18,463.86Zm-3.1,2c0,1.34.46,2,1.36,2s1.36-.68,1.36-2-.45-2-1.35-2S37.08,464.53,37.08,465.88Z"/><path d="M45.12,463.18l-.17.9a1.88,1.88,0,0,0-.46-.06,1,1,0,0,0-.79.36,2.74,2.74,0,0,0-.47,1.12v3h-.92v-5.27h.79l.09,1.07a2,2,0,0,1,.57-.89,1.27,1.27,0,0,1,.84-.3A2.12,2.12,0,0,1,45.12,463.18Z"/><path d="M48.83,468.27a2,2,0,0,1-1.18.36,1.38,1.38,0,0,1-1-.39,1.51,1.51,0,0,1-.38-1.11V464h-.92v-.71h.92v-1.19l.92-.11v1.3H48.4l-.1.71H47.15v3.14a.93.93,0,0,0,.15.59.57.57,0,0,0,.48.19,1.5,1.5,0,0,0,.7-.21Z"/><path d="M53.7,468.51h-.79l-.07-.82a2,2,0,0,1-.69.71,1.86,1.86,0,0,1-.95.23,1.4,1.4,0,0,1-1.08-.42,1.69,1.69,0,0,1-.39-1.19v-3.78h.92v3.68a1.22,1.22,0,0,0,.19.76.79.79,0,0,0,.62.23,1.54,1.54,0,0,0,1.32-.91v-3.76h.92Z"/><path d="M59.85,463.48a3.22,3.22,0,0,1-.66.13c-.24,0-.53,0-.88,0a1.39,1.39,0,0,1,.93,1.33,1.68,1.68,0,0,1-.54,1.29,2.09,2.09,0,0,1-1.47.5,2.41,2.41,0,0,1-.67-.1.55.55,0,0,0-.19.21.68.68,0,0,0-.07.28c0,.29.23.43.69.43h.84a2.13,2.13,0,0,1,.94.19,1.45,1.45,0,0,1,.64.52,1.3,1.3,0,0,1,.22.75,1.32,1.32,0,0,1-.63,1.18,3.32,3.32,0,0,1-1.84.42,4,4,0,0,1-1.34-.18,1.27,1.27,0,0,1-.71-.52,1.74,1.74,0,0,1-.21-.9h.83a.9.9,0,0,0,.12.5.72.72,0,0,0,.43.28,2.91,2.91,0,0,0,.88.1,2.47,2.47,0,0,0,1.19-.21.65.65,0,0,0,.35-.61.63.63,0,0,0-.28-.56,1.32,1.32,0,0,0-.78-.19h-.83a1.56,1.56,0,0,1-1-.29.89.89,0,0,1-.35-.71.91.91,0,0,1,.15-.5,1.47,1.47,0,0,1,.43-.43,1.54,1.54,0,0,1-.89-1.46,1.73,1.73,0,0,1,.27-.95,1.87,1.87,0,0,1,.73-.66,2.33,2.33,0,0,1,1-.23,7.67,7.67,0,0,0,1-.05,2.83,2.83,0,0,0,.7-.15,6.69,6.69,0,0,0,.67-.27Zm-3.48.62a1.28,1.28,0,0,0-.29.86,1.24,1.24,0,0,0,.29.86,1,1,0,0,0,.82.33,1.07,1.07,0,0,0,.83-.32,1.26,1.26,0,0,0,.28-.88c0-.78-.37-1.17-1.13-1.17A1,1,0,0,0,56.37,464.1Z"/><path d="M64.27,467.75a.68.68,0,0,0,.33.24l-.21.64a1.51,1.51,0,0,1-.66-.23,1.11,1.11,0,0,1-.37-.56,1.75,1.75,0,0,1-1.57.79,1.7,1.7,0,0,1-1.23-.44,1.55,1.55,0,0,1-.45-1.15,1.52,1.52,0,0,1,.61-1.29,2.81,2.81,0,0,1,1.71-.45h.81v-.39a1,1,0,0,0-.27-.8,1.21,1.21,0,0,0-.83-.24,4.58,4.58,0,0,0-1.42.28l-.23-.67a5.33,5.33,0,0,1,1.82-.36,1.9,1.9,0,0,1,1.39.45,1.75,1.75,0,0,1,.46,1.3v2.41A.83.83,0,0,0,64.27,467.75Zm-1-.63v-1.21h-.69c-1,0-1.46.36-1.46,1.08a1,1,0,0,0,.23.71.91.91,0,0,0,.68.24A1.36,1.36,0,0,0,63.24,467.12Z"/><path d="M66.2,468.32a1.16,1.16,0,0,1-.3-.85v-6.35l.92-.11v6.44a.54.54,0,0,0,.08.32.31.31,0,0,0,.25.1.9.9,0,0,0,.34-.06l.24.64a1.49,1.49,0,0,1-.73.18A1,1,0,0,1,66.2,468.32Z"/><path d="M71.28,463.27a2.87,2.87,0,0,1,.82.45l-.39.58A2.87,2.87,0,0,0,71,464a2,2,0,0,0-.69-.11,1.24,1.24,0,0,0-.71.18.62.62,0,0,0-.26.51.6.6,0,0,0,.25.5,2.76,2.76,0,0,0,.88.35,3.12,3.12,0,0,1,1.32.6,1.3,1.3,0,0,1,.43,1,1.35,1.35,0,0,1-.6,1.19,2.63,2.63,0,0,1-1.48.41,2.92,2.92,0,0,1-2-.69l.49-.56a2.39,2.39,0,0,0,1.48.51,1.36,1.36,0,0,0,.83-.22.68.68,0,0,0,.3-.58.74.74,0,0,0-.11-.44.92.92,0,0,0-.38-.29,5.17,5.17,0,0,0-.79-.26,2.78,2.78,0,0,1-1.21-.59,1.27,1.27,0,0,1-.38-.94,1.21,1.21,0,0,1,.25-.75,1.65,1.65,0,0,1,.68-.52,2.5,2.5,0,0,1,1-.18A2.91,2.91,0,0,1,71.28,463.27Z"/><path d="M74.47,461v7.5h-.92v-7.39Zm3,2.23-1.94,2.33,2.16,2.94h-1.1l-2.09-2.88,1.94-2.39Z"/><path d="M82.29,463.86a3,3,0,0,1,.61,2,3.4,3.4,0,0,1-.28,1.44,2.1,2.1,0,0,1-.81,1,2.25,2.25,0,0,1-1.26.35,2.15,2.15,0,0,1-1.73-.74,3.07,3.07,0,0,1-.62-2,3.64,3.64,0,0,1,.28-1.45,2.13,2.13,0,0,1,2.08-1.31A2.14,2.14,0,0,1,82.29,463.86Zm-3.1,2c0,1.34.46,2,1.36,2s1.36-.68,1.36-2-.45-2-1.35-2S79.19,464.53,79.19,465.88Z"/><path d="M56.56,491.13a3.15,3.15,0,0,1,.95.6l-.52.58a2.91,2.91,0,0,0-.76-.45,2.16,2.16,0,0,0-.81-.15,1.56,1.56,0,0,0-.89.25.85.85,0,0,0-.35.73,1,1,0,0,0,.12.51,1.09,1.09,0,0,0,.45.37,4.9,4.9,0,0,0,.94.36,6.53,6.53,0,0,1,1.08.43,2,2,0,0,1,.7.64,1.8,1.8,0,0,1,.26,1,1.88,1.88,0,0,1-.29,1.06,2,2,0,0,1-.85.72,3,3,0,0,1-1.32.26,3.19,3.19,0,0,1-2.34-.89l.52-.58a3.54,3.54,0,0,0,.85.52,2.69,2.69,0,0,0,1,.17,1.71,1.71,0,0,0,1.06-.31,1.24,1.24,0,0,0,.29-1.48,1.1,1.1,0,0,0-.44-.41,4.63,4.63,0,0,0-.92-.36A4.05,4.05,0,0,1,53.7,494a1.59,1.59,0,0,1-.49-1.22,1.69,1.69,0,0,1,.28-.93,1.88,1.88,0,0,1,.77-.64,2.67,2.67,0,0,1,1.12-.23A3.16,3.16,0,0,1,56.56,491.13Z"/><path d="M61.89,492.61l-.17.9a1.88,1.88,0,0,0-.46-.06,1,1,0,0,0-.79.36,2.81,2.81,0,0,0-.47,1.12v3h-.92v-5.27h.79l.09,1.07a2,2,0,0,1,.57-.89,1.27,1.27,0,0,1,.84-.3A2.12,2.12,0,0,1,61.89,492.61Z"/><path d="M66.78,493.28a3.32,3.32,0,0,1,.53,2,3.83,3.83,0,0,1-.25,1.45,2.11,2.11,0,0,1-.72,1,1.8,1.8,0,0,1-1.1.34,1.74,1.74,0,0,1-1.4-.7l-.09.58h-.81v-7.39l.92-.11v2.89a1.77,1.77,0,0,1,1.49-.78A1.67,1.67,0,0,1,66.78,493.28Zm-.8,3.56a2.72,2.72,0,0,0,.34-1.54,2.76,2.76,0,0,0-.32-1.54,1,1,0,0,0-.91-.48,1.52,1.52,0,0,0-1.23.82v2.52a1.61,1.61,0,0,0,.52.52,1.16,1.16,0,0,0,.64.19A1.1,1.1,0,0,0,66,496.84Z"/><path d="M71.28,492.7a2.87,2.87,0,0,1,.82.45l-.39.58a3.91,3.91,0,0,0-.68-.34,2.26,2.26,0,0,0-.69-.11,1.17,1.17,0,0,0-.71.19.62.62,0,0,0,0,1,2.76,2.76,0,0,0,.88.35,3.25,3.25,0,0,1,1.32.6,1.32,1.32,0,0,1,.43,1,1.35,1.35,0,0,1-.6,1.19,2.55,2.55,0,0,1-1.48.41,2.92,2.92,0,0,1-2-.69l.49-.56a2.39,2.39,0,0,0,1.48.51,1.44,1.44,0,0,0,.83-.21.7.7,0,0,0,.3-.59.71.71,0,0,0-.11-.43.85.85,0,0,0-.38-.29,5,5,0,0,0-.79-.27,2.58,2.58,0,0,1-1.21-.59,1.26,1.26,0,0,1-.38-.94,1.18,1.18,0,0,1,.25-.74,1.5,1.5,0,0,1,.68-.52,2.33,2.33,0,0,1,1-.19A2.91,2.91,0,0,1,71.28,492.7Z"/><path d="M74.47,490.44v7.5h-.92v-7.39Zm3,2.23L75.56,495l2.16,2.94h-1.1l-2.09-2.88,1.94-2.39Z"/><path d="M82.29,493.29a3.07,3.07,0,0,1,.61,2,3.47,3.47,0,0,1-.28,1.45,2.15,2.15,0,0,1-.81,1,2.24,2.24,0,0,1-1.26.34,2.12,2.12,0,0,1-1.73-.74,3,3,0,0,1-.62-2,3.59,3.59,0,0,1,.28-1.44,2.22,2.22,0,0,1,.81-1,2.3,2.3,0,0,1,1.27-.35A2.14,2.14,0,0,1,82.29,493.29Zm-3.1,2c0,1.34.46,2,1.36,2s1.36-.67,1.36-2-.45-2-1.35-2S79.19,494,79.19,495.31Z"/><path d="M38.83,523.81H37.76v2.92h-.95v-6.89h1.81a3.26,3.26,0,0,1,2,.49,1.7,1.7,0,0,1,.66,1.46,1.76,1.76,0,0,1-.37,1.17,2.21,2.21,0,0,1-1.12.68l1.86,3.09H40.48Zm-.11-.73a1.79,1.79,0,0,0,1.13-.3,1.19,1.19,0,0,0,.38-1,1,1,0,0,0-.38-.92,2.12,2.12,0,0,0-1.24-.29h-.85v2.5Z"/><path d="M46.73,526.73h-.79l-.07-.82a1.89,1.89,0,0,1-.69.71,1.76,1.76,0,0,1-1,.23,1.4,1.4,0,0,1-1.08-.42,1.69,1.69,0,0,1-.39-1.19v-3.78h.92v3.68a1.26,1.26,0,0,0,.19.77.78.78,0,0,0,.62.22,1.54,1.54,0,0,0,1.32-.91v-3.76h.92Z"/><path d="M55,521.78a1.69,1.69,0,0,1,.39,1.17v3.78h-.92v-3.65c0-.68-.24-1-.74-1a1,1,0,0,0-.66.23,3.19,3.19,0,0,0-.58.7v3.74h-.92v-3.65c0-.68-.24-1-.74-1a1,1,0,0,0-.67.23,3.15,3.15,0,0,0-.57.7v3.74h-.92v-5.27h.79l.08.77a1.78,1.78,0,0,1,1.52-.89,1.31,1.31,0,0,1,1.33.95,2.42,2.42,0,0,1,.69-.7,1.52,1.52,0,0,1,.88-.25A1.32,1.32,0,0,1,55,521.78Z"/><path d="M61.12,526.73h-.79l-.07-.82a1.89,1.89,0,0,1-.69.71,1.76,1.76,0,0,1-1,.23,1.4,1.4,0,0,1-1.08-.42,1.69,1.69,0,0,1-.39-1.19v-3.78h.92v3.68a1.26,1.26,0,0,0,.19.77.78.78,0,0,0,.62.22,1.54,1.54,0,0,0,1.32-.91v-3.76h.92Z"/><path d="M66.63,521.77A1.66,1.66,0,0,1,67,523v3.78h-.92v-3.65a1.17,1.17,0,0,0-.21-.79.8.8,0,0,0-.62-.23,1.21,1.21,0,0,0-.74.24,2.61,2.61,0,0,0-.6.69v3.74H63v-5.27h.79l.08.78a2.1,2.1,0,0,1,.7-.66,1.77,1.77,0,0,1,.91-.24A1.47,1.47,0,0,1,66.63,521.77Z"/><path d="M71.28,521.49a2.87,2.87,0,0,1,.82.45l-.39.58a3.31,3.31,0,0,0-.68-.34,2.26,2.26,0,0,0-.69-.11,1.17,1.17,0,0,0-.71.19.59.59,0,0,0-.26.5.6.6,0,0,0,.25.5,2.76,2.76,0,0,0,.88.35,3.25,3.25,0,0,1,1.32.6,1.3,1.3,0,0,1,.43,1,1.35,1.35,0,0,1-.6,1.19,2.63,2.63,0,0,1-1.48.41,2.92,2.92,0,0,1-2-.69l.49-.56a2.39,2.39,0,0,0,1.48.51,1.44,1.44,0,0,0,.83-.21.7.7,0,0,0,.3-.59.71.71,0,0,0-.11-.43.85.85,0,0,0-.38-.29,4.15,4.15,0,0,0-.79-.27,2.67,2.67,0,0,1-1.21-.59,1.27,1.27,0,0,1-.38-.94,1.23,1.23,0,0,1,.25-.75,1.55,1.55,0,0,1,.68-.51,2.33,2.33,0,0,1,1-.19A2.91,2.91,0,0,1,71.28,521.49Z"/><path d="M74.47,519.23v7.5h-.92v-7.39Zm3,2.23-1.94,2.33,2.16,2.94h-1.1l-2.09-2.88,1.94-2.39Z"/><path d="M82.29,522.08a3,3,0,0,1,.61,2,3.47,3.47,0,0,1-.28,1.45,2.15,2.15,0,0,1-.81,1,2.24,2.24,0,0,1-1.26.34,2.15,2.15,0,0,1-1.73-.74,3,3,0,0,1-.62-2,3.56,3.56,0,0,1,.28-1.44,2.22,2.22,0,0,1,.81-1,2.3,2.3,0,0,1,1.27-.35A2.14,2.14,0,0,1,82.29,522.08Zm-3.1,2c0,1.34.46,2,1.36,2s1.36-.67,1.36-2-.45-2-1.35-2S79.19,522.75,79.19,524.1Z"/><path d="M37.52,549.31a3.18,3.18,0,0,1,.86.52l-.52.61a2.08,2.08,0,0,0-1.33-.51,1.68,1.68,0,0,0-1.38.66,3.42,3.42,0,0,0-.53,2.12,3.49,3.49,0,0,0,.52,2.1,1.66,1.66,0,0,0,1.38.67,1.82,1.82,0,0,0,.77-.15,3.81,3.81,0,0,0,.7-.42l.47.6a2.36,2.36,0,0,1-.82.55,2.74,2.74,0,0,1-1.15.22A2.63,2.63,0,0,1,34,554.65a4.73,4.73,0,0,1-.37-1.94,4.55,4.55,0,0,1,.38-1.93,2.91,2.91,0,0,1,1-1.22,2.72,2.72,0,0,1,1.45-.41A3.13,3.13,0,0,1,37.52,549.31Z"/><path d="M43.12,551.2a1.66,1.66,0,0,1,.4,1.18v3.78H42.6v-3.65a1.19,1.19,0,0,0-.21-.79.82.82,0,0,0-.63-.23,1.21,1.21,0,0,0-.73.24,2.72,2.72,0,0,0-.6.68v3.75h-.92v-7.38l.92-.1v2.94a1.9,1.9,0,0,1,1.56-.85A1.51,1.51,0,0,1,43.12,551.2Z"/><path d="M49.08,551.51a3.07,3.07,0,0,1,.61,2,3.47,3.47,0,0,1-.28,1.45,2.1,2.1,0,0,1-.81,1,2.24,2.24,0,0,1-1.26.34,2.12,2.12,0,0,1-1.73-.74,3,3,0,0,1-.62-2,3.62,3.62,0,0,1,.28-1.44,2.22,2.22,0,0,1,.81-1,2.3,2.3,0,0,1,1.27-.35A2.14,2.14,0,0,1,49.08,551.51Zm-3.1,2c0,1.34.46,2,1.36,2s1.36-.67,1.36-2-.45-2-1.35-2S46,552.19,46,553.53Z"/><path d="M54,550.83l-.17.9a1.88,1.88,0,0,0-.46-.06,1,1,0,0,0-.79.36,2.81,2.81,0,0,0-.47,1.12v3h-.92v-5.27H52l.09,1.07a2,2,0,0,1,.57-.89,1.27,1.27,0,0,1,.84-.3A2.12,2.12,0,0,1,54,550.83Z"/><path d="M58.94,550.89l-1.79,5.27H56l-1.82-5.27h1l1.38,4.45L58,550.89Z"/><path d="M63.49,555.41a.73.73,0,0,0,.33.23l-.21.64a1.4,1.4,0,0,1-.66-.23,1.06,1.06,0,0,1-.37-.56,1.75,1.75,0,0,1-1.57.79,1.66,1.66,0,0,1-1.23-.44,1.68,1.68,0,0,1,.16-2.44,2.81,2.81,0,0,1,1.71-.45h.81v-.39a1,1,0,0,0-.27-.8,1.21,1.21,0,0,0-.83-.24,4.89,4.89,0,0,0-1.42.28l-.23-.67a5.33,5.33,0,0,1,1.82-.36,1.91,1.91,0,0,1,1.39.46,1.71,1.71,0,0,1,.46,1.29v2.41A.85.85,0,0,0,63.49,555.41Zm-1-.64v-1.21h-.69c-1,0-1.46.36-1.46,1.08a1,1,0,0,0,.23.71.91.91,0,0,0,.68.24A1.36,1.36,0,0,0,62.46,554.77Z"/><path d="M67.93,555.92a2,2,0,0,1-1.18.36,1.37,1.37,0,0,1-1-.38,1.55,1.55,0,0,1-.38-1.12V551.6h-.92v-.71h.92V549.7l.92-.11v1.3H67.5l-.1.71H66.25v3.14a.94.94,0,0,0,.15.6.59.59,0,0,0,.48.18,1.5,1.5,0,0,0,.7-.21Z"/><path d="M71.28,550.92a2.87,2.87,0,0,1,.82.45l-.39.58a3.91,3.91,0,0,0-.68-.34,2.26,2.26,0,0,0-.69-.11,1.24,1.24,0,0,0-.71.19.62.62,0,0,0,0,1,2.76,2.76,0,0,0,.88.35,3.25,3.25,0,0,1,1.32.6,1.32,1.32,0,0,1,.43,1,1.35,1.35,0,0,1-.6,1.19,2.55,2.55,0,0,1-1.48.41,2.92,2.92,0,0,1-2-.69l.49-.56a2.39,2.39,0,0,0,1.48.51,1.44,1.44,0,0,0,.83-.21.68.68,0,0,0,.3-.59.71.71,0,0,0-.11-.43.85.85,0,0,0-.38-.29,6.31,6.31,0,0,0-.79-.27,2.58,2.58,0,0,1-1.21-.59,1.26,1.26,0,0,1-.38-.94,1.18,1.18,0,0,1,.25-.74,1.57,1.57,0,0,1,.68-.52,2.5,2.5,0,0,1,1-.19A2.91,2.91,0,0,1,71.28,550.92Z"/><path d="M74.47,548.66v7.5h-.92v-7.39Zm3,2.23-1.94,2.33,2.16,2.94h-1.1l-2.09-2.88,1.94-2.39Z"/><path d="M82.29,551.51a3.07,3.07,0,0,1,.61,2,3.47,3.47,0,0,1-.28,1.45,2.1,2.1,0,0,1-.81,1,2.24,2.24,0,0,1-1.26.34,2.12,2.12,0,0,1-1.73-.74,3,3,0,0,1-.62-2,3.62,3.62,0,0,1,.28-1.44,2.22,2.22,0,0,1,.81-1,2.3,2.3,0,0,1,1.27-.35A2.14,2.14,0,0,1,82.29,551.51Zm-3.1,2c0,1.34.46,2,1.36,2s1.36-.67,1.36-2-.45-2-1.35-2S79.19,552.19,79.19,553.53Z"/><path d="M15.71,578.06a3.48,3.48,0,0,1,.95.56l-.74.85a2,2,0,0,0-1.26-.49,1.38,1.38,0,0,0-1.17.61,4.24,4.24,0,0,0,0,3.76,1.38,1.38,0,0,0,1.18.6,1.8,1.8,0,0,0,.71-.14,3.34,3.34,0,0,0,.67-.42l.68.85a2.74,2.74,0,0,1-.91.63,3,3,0,0,1-1.21.24,3.12,3.12,0,0,1-1.63-.42,2.92,2.92,0,0,1-1.09-1.23,4.54,4.54,0,0,1-.39-2,4.31,4.31,0,0,1,.41-1.94A2.82,2.82,0,0,1,13,578.3a3,3,0,0,1,1.58-.43A3.18,3.18,0,0,1,15.71,578.06ZM16,575.6l.52.6-1.4,1.24H14.2l-1.4-1.24.53-.6,1.31.83Z"/><path d="M21.78,582.73H18.47a1.61,1.61,0,0,0,.39,1,1.25,1.25,0,0,0,.88.3,1.64,1.64,0,0,0,.63-.11,3.05,3.05,0,0,0,.66-.35l.58.8a3.1,3.1,0,0,1-2,.72,2.45,2.45,0,0,1-1.92-.75,3,3,0,0,1-.67-2,3.54,3.54,0,0,1,.29-1.45,2.39,2.39,0,0,1,.83-1,2.31,2.31,0,0,1,1.3-.37,2.22,2.22,0,0,1,1.75.71,2.91,2.91,0,0,1,.64,2C21.82,582.25,21.8,582.43,21.78,582.73Zm-1.37-1q0-1.32-1-1.32a.8.8,0,0,0-.68.33,2.08,2.08,0,0,0-.3,1.05h1.94Z"/><path d="M26.53,580.13l-.54.81a2.5,2.5,0,0,0-1.33-.42,1,1,0,0,0-.54.13.43.43,0,0,0-.19.35.4.4,0,0,0,.09.27.68.68,0,0,0,.32.21,6,6,0,0,0,.7.24,3,3,0,0,1,1.25.62,1.34,1.34,0,0,1,.41,1,1.45,1.45,0,0,1-.3.92,1.92,1.92,0,0,1-.83.6,3.24,3.24,0,0,1-1.16.2,3.57,3.57,0,0,1-1.21-.2,2.9,2.9,0,0,1-.95-.57l.7-.78a2.27,2.27,0,0,0,1.42.52,1.19,1.19,0,0,0,.64-.15.49.49,0,0,0,.23-.43.62.62,0,0,0-.08-.33.87.87,0,0,0-.34-.22,7.11,7.11,0,0,0-.75-.25,2.48,2.48,0,0,1-1.18-.62,1.4,1.4,0,0,1-.39-1,1.37,1.37,0,0,1,.26-.81,1.7,1.7,0,0,1,.74-.56,2.7,2.7,0,0,1,1.1-.21A3.05,3.05,0,0,1,26.53,580.13Z"/><path d="M29.05,577.38V585H27.63v-7.41Zm3.22,2.27L30.58,582l1.84,3h-1.6l-1.72-2.9,1.7-2.4Z"/><path d="M37,583.94a.49.49,0,0,0,.3.21l-.3.94a1.66,1.66,0,0,1-.76-.22,1.13,1.13,0,0,1-.46-.56,2,2,0,0,1-2.84.35,1.59,1.59,0,0,1-.47-1.19,1.55,1.55,0,0,1,.63-1.33,3.1,3.1,0,0,1,1.81-.46h.61v-.26a.87.87,0,0,0-.22-.68,1.14,1.14,0,0,0-.73-.19,4.84,4.84,0,0,0-1.4.28l-.32-1a5.35,5.35,0,0,1,2-.39,2.31,2.31,0,0,1,1.59.47,1.77,1.77,0,0,1,.51,1.38v2.14A1,1,0,0,0,37,583.94Zm-1.41-7.26.56,1.09-2.3.92-.4-.73Zm-.07,6.82v-1h-.47c-.76,0-1.15.29-1.15.86a.78.78,0,0,0,.18.55.65.65,0,0,0,.5.19A1,1,0,0,0,35.56,583.5Z"/><path d="M44.08,579.58,43.84,581a2.33,2.33,0,0,0-.47-.07.89.89,0,0,0-.73.33,2.62,2.62,0,0,0-.41,1V585H40.81v-5.3H42l.13,1a2,2,0,0,1,.56-.87,1.27,1.27,0,0,1,.82-.31A2.13,2.13,0,0,1,44.08,579.58Z"/><path d="M48.93,582.73H45.62a1.61,1.61,0,0,0,.39,1,1.24,1.24,0,0,0,.87.3,1.69,1.69,0,0,0,.64-.11,2.79,2.79,0,0,0,.65-.35l.59.8a3.1,3.1,0,0,1-2,.72,2.45,2.45,0,0,1-1.92-.75,3,3,0,0,1-.67-2,3.54,3.54,0,0,1,.29-1.45,2.39,2.39,0,0,1,.83-1,2.28,2.28,0,0,1,1.29-.37,2.23,2.23,0,0,1,1.76.71,2.9,2.9,0,0,1,.63,2C49,582.25,49,582.43,48.93,582.73Zm-1.38-1c0-.88-.31-1.32-.95-1.32a.8.8,0,0,0-.68.33,2.08,2.08,0,0,0-.3,1.05h1.93Z"/><path d="M54.34,580.23a3.76,3.76,0,0,1,.48,2.06,3.87,3.87,0,0,1-.25,1.45,2.23,2.23,0,0,1-.72,1,1.82,1.82,0,0,1-1.13.36,1.67,1.67,0,0,1-1.31-.57V587l-1.42.16v-7.5h1.25l.07.62a2,2,0,0,1,.71-.58,1.91,1.91,0,0,1,.83-.2A1.66,1.66,0,0,1,54.34,580.23Zm-1,2.07a2.84,2.84,0,0,0-.23-1.36.76.76,0,0,0-.7-.4.94.94,0,0,0-.55.19,1.78,1.78,0,0,0-.45.49v2.31a1,1,0,0,0,.89.52C53,584.05,53.34,583.47,53.34,582.3Z"/><path d="M60.29,585H59.06l-.07-.71a1.79,1.79,0,0,1-.68.66,1.94,1.94,0,0,1-.93.21,1.39,1.39,0,0,1-1.1-.43,1.82,1.82,0,0,1-.38-1.22v-3.81h1.42v3.63a1,1,0,0,0,.14.6.56.56,0,0,0,.44.17,1.14,1.14,0,0,0,1-.69v-3.71h1.42Z"/><path d="M66,580.23a3.64,3.64,0,0,1,.51,2.07,3.92,3.92,0,0,1-.25,1.46,2.26,2.26,0,0,1-.73,1,1.81,1.81,0,0,1-1.12.36,1.65,1.65,0,0,1-1.39-.68L63,585H61.69v-7.41l1.42-.16v2.84a1.9,1.9,0,0,1,.63-.53,1.81,1.81,0,0,1,.82-.2A1.67,1.67,0,0,1,66,580.23Zm-1,2.07a2.79,2.79,0,0,0-.24-1.36.77.77,0,0,0-.71-.4,1.18,1.18,0,0,0-1,.68v2.27a1.05,1.05,0,0,0,.91.57C64.7,584.06,65,583.48,65,582.3Z"/><path d="M68,584.74a1.49,1.49,0,0,1-.36-1.07v-6.13l1.42-.16v6.25c0,.24.1.35.29.35a.61.61,0,0,0,.28-.06l.29,1a2.21,2.21,0,0,1-.91.18A1.34,1.34,0,0,1,68,584.74Z"/><path d="M71.94,577.16a.78.78,0,0,1,.24.59.81.81,0,0,1-.24.6,1,1,0,0,1-1.25,0,.81.81,0,0,1-.24-.6.78.78,0,0,1,.24-.59.93.93,0,0,1,1.25,0Zm.09,2.49V585H70.61v-5.3Z"/><path d="M74.85,577.38V585H73.43v-7.41Zm3.22,2.27L76.38,582l1.84,3H76.61l-1.71-2.9,1.7-2.4Z"/><path d="M82.84,583.94a.49.49,0,0,0,.3.21l-.3.94a1.66,1.66,0,0,1-.76-.22,1.13,1.13,0,0,1-.46-.56,2,2,0,0,1-2.84.35,1.59,1.59,0,0,1-.47-1.19,1.55,1.55,0,0,1,.63-1.33,3.1,3.1,0,0,1,1.81-.46h.61v-.26a.87.87,0,0,0-.22-.68,1.14,1.14,0,0,0-.73-.19,4.84,4.84,0,0,0-1.4.28l-.32-1a5.35,5.35,0,0,1,2-.39,2.31,2.31,0,0,1,1.59.47,1.77,1.77,0,0,1,.51,1.38v2.14A.91.91,0,0,0,82.84,583.94Zm-1.48-.44v-1h-.47c-.76,0-1.15.29-1.15.86a.78.78,0,0,0,.18.55.63.63,0,0,0,.5.19A1,1,0,0,0,81.36,583.5Z"/><path d="M59.49,610.82H58.42v2.92h-1v-6.89h1.81a3.33,3.33,0,0,1,2,.49,1.71,1.71,0,0,1,.66,1.46,1.76,1.76,0,0,1-.37,1.17,2.21,2.21,0,0,1-1.12.68l1.86,3.09H61.14Zm1.24-6.17.39.45-1.35,1.1h-.61l-1.36-1.1.4-.45,1.26.81Zm-1.35,5.44a1.79,1.79,0,0,0,1.13-.3,1.18,1.18,0,0,0,.38-1,1.06,1.06,0,0,0-.38-.92,2.12,2.12,0,0,0-1.24-.29h-.85v2.5Z"/><path d="M67.28,611.42H63.92a2.07,2.07,0,0,0,.44,1.28,1.26,1.26,0,0,0,1,.41A1.94,1.94,0,0,0,66,613a2.54,2.54,0,0,0,.67-.35l.4.55a2.91,2.91,0,0,1-1.84.66,2.13,2.13,0,0,1-1.71-.72,3,3,0,0,1-.62-2,3.68,3.68,0,0,1,.27-1.45,2.28,2.28,0,0,1,.76-1,1.93,1.93,0,0,1,1.16-.36,2,2,0,0,1,1.61.69A2.92,2.92,0,0,1,67.3,611,3.7,3.7,0,0,1,67.28,611.42Zm-.89-.74a1.94,1.94,0,0,0-.31-1.19,1.08,1.08,0,0,0-.93-.41c-.75,0-1.16.56-1.23,1.66h2.47Z"/><path d="M71.55,608.49a2.38,2.38,0,0,1,.75.43l-.44.58a2.2,2.2,0,0,0-.54-.29,1.59,1.59,0,0,0-.59-.1,1.15,1.15,0,0,0-1,.51,2.63,2.63,0,0,0-.36,1.51,2.54,2.54,0,0,0,.35,1.48,1.19,1.19,0,0,0,1,.47,1.7,1.7,0,0,0,.57-.09,3,3,0,0,0,.58-.31l.42.6a2.47,2.47,0,0,1-1.61.58,2.09,2.09,0,0,1-1.68-.72,3,3,0,0,1-.62-2,3.71,3.71,0,0,1,.28-1.47,2.36,2.36,0,0,1,.8-1,2.14,2.14,0,0,1,1.22-.35A2.58,2.58,0,0,1,71.55,608.49Z"/><path d="M74.47,606.24v7.5h-.92v-7.39Zm3,2.23-1.94,2.33,2.16,2.94h-1.1l-2.09-2.88,1.94-2.39Z"/><path d="M82.29,609.09a3.05,3.05,0,0,1,.61,2,3.47,3.47,0,0,1-.28,1.45,2.15,2.15,0,0,1-.81,1,2.24,2.24,0,0,1-1.26.34,2.12,2.12,0,0,1-1.73-.74,3,3,0,0,1-.62-2,3.59,3.59,0,0,1,.28-1.44,2.22,2.22,0,0,1,.81-1,2.3,2.3,0,0,1,1.27-.35A2.14,2.14,0,0,1,82.29,609.09Zm-3.1,2c0,1.34.46,2,1.36,2s1.36-.67,1.36-2-.45-2-1.35-2S79.19,609.77,79.19,611.11Z"/><line class="cls-2" x1="133" y1="661.31" x2="133" y2="90.11"/><line class="cls-2" x1="176.32" y1="661.31" x2="176.32" y2="90.11"/><line class="cls-2" x1="219.52" y1="661.31" x2="219.52" y2="90.11"/><line class="cls-2" x1="262.84" y1="661.31" x2="262.84" y2="90.11"/><line class="cls-2" x1="306.16" y1="661.31" x2="306.16" y2="90.11"/><line class="cls-2" x1="349.48" y1="661.31" x2="349.48" y2="90.11"/><line class="cls-2" x1="392.68" y1="661.31" x2="392.68" y2="90.11"/><line class="cls-2" x1="436" y1="661.31" x2="436" y2="90.11"/><line class="cls-2" x1="479.32" y1="661.31" x2="479.32" y2="90.11"/><line class="cls-2" x1="89.68" y1="90.11" x2="89.68" y2="661.31"/><path class="cls-5" d="M414.84,115a3.78,3.78,0,1,0,3.78,3.78,3.78,3.78,0,0,0-3.78-3.78Z"/><path class="cls-5" d="M425.64,143a3.78,3.78,0,1,0,3.78,3.78,3.78,3.78,0,0,0-3.78-3.78Z"/><path class="cls-5" d="M436.08,171.08a3.78,3.78,0,1,0,3.78,3.78,3.78,3.78,0,0,0-3.78-3.78Z"/><path class="cls-5" d="M443.4,199.16a3.78,3.78,0,1,0,3.78,3.78,3.78,3.78,0,0,0-3.78-3.78Z"/><path class="cls-5" d="M433.08,227.12a3.78,3.78,0,1,0,3.78,3.78,3.78,3.78,0,0,0-3.78-3.78Z"/><path class="cls-5" d="M445.2,255.2A3.78,3.78,0,1,0,449,259a3.78,3.78,0,0,0-3.78-3.78Z"/><path class="cls-5" d="M419.64,283.28a3.78,3.78,0,1,0,3.78,3.78,3.78,3.78,0,0,0-3.78-3.78Z"/><path class="cls-5" d="M445.56,311.24a3.78,3.78,0,1,0,3.78,3.78,3.78,3.78,0,0,0-3.78-3.78Z"/><path class="cls-5" d="M446,339.32a3.78,3.78,0,1,0,3.78,3.78,3.78,3.78,0,0,0-3.78-3.78Z"/><path class="cls-5" d="M418.8,367.4a3.78,3.78,0,1,0,3.78,3.78,3.78,3.78,0,0,0-3.78-3.78Z"/><path class="cls-5" d="M453,423.44a3.78,3.78,0,1,0,3.78,3.78,3.78,3.78,0,0,0-3.78-3.78Z"/><path class="cls-5" d="M425.64,479.48a3.78,3.78,0,1,0,3.78,3.78,3.78,3.78,0,0,0-3.78-3.78Z"/><path class="cls-5" d="M423.12,507.56a3.78,3.78,0,1,0,3.78,3.78,3.78,3.78,0,0,0-3.78-3.78Z"/><path class="cls-5" d="M439.08,535.64a3.78,3.78,0,1,0,3.78,3.78,3.78,3.78,0,0,0-3.78-3.78Z"/><path class="cls-5" d="M433.44,563.6a3.78,3.78,0,1,0,3.78,3.78,3.78,3.78,0,0,0-3.78-3.78Z"/><path class="cls-5" d="M450.84,591.68a3.78,3.78,0,1,0,3.78,3.78,3.78,3.78,0,0,0-3.78-3.78Z"/><path class="cls-6" d="M440.88,115a3.78,3.78,0,1,0,3.78,3.78,3.78,3.78,0,0,0-3.78-3.78Z"/><path class="cls-6" d="M444.72,143a3.78,3.78,0,1,0,3.78,3.78,3.78,3.78,0,0,0-3.78-3.78Z"/><path class="cls-6" d="M450.36,171.08a3.78,3.78,0,1,0,3.78,3.78,3.78,3.78,0,0,0-3.78-3.78Z"/><path class="cls-6" d="M455.52,199.16a3.78,3.78,0,1,0,3.78,3.78,3.78,3.78,0,0,0-3.78-3.78Z"/><path class="cls-6" d="M442.08,227.12a3.78,3.78,0,1,0,3.78,3.78,3.78,3.78,0,0,0-3.78-3.78Z"/><path class="cls-6" d="M454.32,255.2A3.78,3.78,0,1,0,458.1,259a3.78,3.78,0,0,0-3.78-3.78Z"/><path class="cls-6" d="M438.24,283.28a3.78,3.78,0,1,0,3.78,3.78,3.78,3.78,0,0,0-3.78-3.78Z"/><path class="cls-6" d="M455.16,311.24a3.78,3.78,0,1,0,3.78,3.78,3.78,3.78,0,0,0-3.78-3.78Z"/><path class="cls-6" d="M453.36,339.32a3.78,3.78,0,1,0,3.78,3.78,3.78,3.78,0,0,0-3.78-3.78Z"/><path class="cls-6" d="M463.8,423.44a3.78,3.78,0,1,0,3.78,3.78,3.78,3.78,0,0,0-3.78-3.78Z"/><path class="cls-6" d="M454.68,451.52a3.78,3.78,0,1,0,3.78,3.78,3.78,3.78,0,0,0-3.78-3.78Z"/><path class="cls-6" d="M424.8,479.48a3.78,3.78,0,1,0,3.78,3.78,3.78,3.78,0,0,0-3.78-3.78Z"/><path class="cls-6" d="M435.24,507.56a3.78,3.78,0,1,0,3.78,3.78,3.78,3.78,0,0,0-3.78-3.78Z"/><path class="cls-6" d="M437.4,535.64a3.78,3.78,0,1,0,3.78,3.78,3.78,3.78,0,0,0-3.78-3.78Z"/><path class="cls-6" d="M446.52,563.6a3.78,3.78,0,1,0,3.78,3.78,3.78,3.78,0,0,0-3.78-3.78Z"/><path class="cls-6" d="M454.68,591.68a3.78,3.78,0,1,0,3.78,3.78,3.78,3.78,0,0,0-3.78-3.78Z"/><path class="cls-7" d="M448.2,115a3.78,3.78,0,1,0,3.78,3.78A3.78,3.78,0,0,0,448.2,115Z"/><path class="cls-7" d="M452.52,143a3.78,3.78,0,1,0,3.78,3.78,3.78,3.78,0,0,0-3.78-3.78Z"/><path class="cls-7" d="M454.68,171.08a3.78,3.78,0,1,0,3.78,3.78,3.78,3.78,0,0,0-3.78-3.78Z"/><path class="cls-7" d="M460.8,199.16a3.78,3.78,0,1,0,3.78,3.78,3.78,3.78,0,0,0-3.78-3.78Z"/><path class="cls-7" d="M449.88,227.12a3.78,3.78,0,1,0,3.78,3.78,3.78,3.78,0,0,0-3.78-3.78Z"/><path class="cls-7" d="M460.32,255.2A3.78,3.78,0,1,0,464.1,259a3.78,3.78,0,0,0-3.78-3.78Z"/><path class="cls-7" d="M433.92,283.28a3.78,3.78,0,1,0,3.78,3.78,3.78,3.78,0,0,0-3.78-3.78Z"/><path class="cls-7" d="M459.84,311.24a3.78,3.78,0,1,0,3.78,3.78,3.78,3.78,0,0,0-3.78-3.78Z"/><path class="cls-7" d="M459.48,339.32a3.78,3.78,0,1,0,3.78,3.78,3.78,3.78,0,0,0-3.78-3.78Z"/><path class="cls-7" d="M430.44,367.4a3.78,3.78,0,1,0,3.78,3.78,3.78,3.78,0,0,0-3.78-3.78Z"/><path class="cls-7" d="M460.8,423.44a3.78,3.78,0,1,0,3.78,3.78,3.78,3.78,0,0,0-3.78-3.78Z"/><path class="cls-7" d="M461.16,451.52a3.78,3.78,0,1,0,3.78,3.78,3.78,3.78,0,0,0-3.78-3.78Z"/><path class="cls-7" d="M432.12,479.48a3.78,3.78,0,1,0,3.78,3.78,3.78,3.78,0,0,0-3.78-3.78Z"/><path class="cls-7" d="M428.28,507.56a3.78,3.78,0,1,0,3.78,3.78,3.78,3.78,0,0,0-3.78-3.78Z"/><path class="cls-7" d="M442.08,535.64a3.78,3.78,0,1,0,3.78,3.78,3.78,3.78,0,0,0-3.78-3.78Z"/><path class="cls-7" d="M435.6,563.6a3.78,3.78,0,1,0,3.78,3.78,3.78,3.78,0,0,0-3.78-3.78Z"/><path class="cls-7" d="M450.84,591.68a3.78,3.78,0,1,0,3.78,3.78,3.78,3.78,0,0,0-3.78-3.78Z"/><path class="cls-6" d="M431.76,367.4a3.78,3.78,0,1,0,3.78,3.78,3.78,3.78,0,0,0-3.78-3.78Z"/><path class="cls-5" d="M453.32,451.52a3.78,3.78,0,1,0,3.78,3.78,3.78,3.78,0,0,0-3.78-3.78Z"/><line class="cls-8" x1="435.3" y1="94.57" x2="435.3" y2="650.66"/></svg>