<svg id="Layer_1" data-name="Layer 1" xmlns="http://www.w3.org/2000/svg" viewBox="0 0 403 331.72"><defs><style>.cls-1{fill:#fff;}.cls-2{fill:#f5f5f5;}.cls-10,.cls-13,.cls-3,.cls-4,.cls-5,.cls-8{fill:none;}.cls-3{stroke:#043565;}.cls-10,.cls-13,.cls-3,.cls-8{stroke-miterlimit:10;}.cls-10,.cls-3,.cls-8{stroke-width:0.75px;}.cls-4{stroke:#d9d9d9;stroke-dasharray:1 3 1 0;}.cls-13,.cls-4,.cls-5{stroke-linecap:round;}.cls-4,.cls-5{stroke-linejoin:round;}.cls-13,.cls-4{stroke-width:0.5px;}.cls-5{stroke:#000;stroke-dasharray:0 3 0 0;}.cls-6{fill:#4d4d4d;}.cls-7{fill:#666;}.cls-8{stroke:#eb4b98;}.cls-9{fill:#eb4b98;}.cls-10{stroke:#24a3bb;}.cls-11{fill:#24a3bb;}.cls-12{fill:#043565;}.cls-13{stroke:#4d4d4d;}</style></defs><rect class="cls-1" width="403" height="331.72"/><polyline class="cls-2" points="394.18 102.81 358.47 104.87 322.68 105.39 286.97 103.64 251.26 104.66 215.47 96.02 179.76 96.02 143.97 97.36 108.27 96.02 72.56 96.53 36.77 97.05 36.77 138.22 72.56 133.28 108.27 135.03 143.97 143.88 179.76 146.25 215.47 143.88 251.26 138.73 286.97 127.51 322.68 127.82 358.47 128.54 394.18 130.91"/><polyline class="cls-3" points="36.77 97.05 72.56 96.53 108.27 96.02 143.97 97.36 179.76 96.02 215.47 96.02 251.26 104.66 286.97 103.64 322.68 105.39 358.47 104.87 394.18 102.81"/><line class="cls-4" x1="36.84" y1="280.3" x2="394.18" y2="280.3"/><line class="cls-4" x1="36.84" y1="254.26" x2="394.18" y2="254.26"/><line class="cls-4" x1="36.84" y1="228.22" x2="394.18" y2="228.22"/><line class="cls-4" x1="36.84" y1="202.18" x2="394.18" y2="202.18"/><line class="cls-4" x1="36.84" y1="176.14" x2="394.18" y2="176.14"/><line class="cls-4" x1="36.84" y1="150.21" x2="394.18" y2="150.21"/><line class="cls-4" x1="36.84" y1="124.17" x2="394.18" y2="124.17"/><line class="cls-4" x1="36.84" y1="98.13" x2="394.18" y2="98.13"/><line class="cls-4" x1="36.84" y1="306.24" x2="394.18" y2="306.24"/><polyline class="cls-5" points="36.77 114.65 72.56 113.72 108.27 113.31 143.97 112.69 179.76 111.87 215.47 111.25 251.26 110.74 286.97 109.3 322.68 109.5 358.47 108.37 394.18 108.47"/><path class="cls-6" d="M129.48,65.64l-1.89,5.82h-1.68L124,65.64h1.53l1.24,4.68L128,65.64Z"/><path class="cls-6" d="M134.25,66.17l-.55.82a2.73,2.73,0,0,0-1.46-.47,1.12,1.12,0,0,0-.65.16.48.48,0,0,0-.23.42.52.52,0,0,0,.1.33,1,1,0,0,0,.36.25,5.82,5.82,0,0,0,.76.26,3.32,3.32,0,0,1,1.4.67,1.47,1.47,0,0,1,.46,1.16,1.55,1.55,0,0,1-.7,1.36,3,3,0,0,1-1.75.49,3.68,3.68,0,0,1-1.31-.22,3.08,3.08,0,0,1-1-.6l.7-.8a2.58,2.58,0,0,0,1.59.58,1.39,1.39,0,0,0,.75-.19.59.59,0,0,0,.28-.52.68.68,0,0,0-.11-.4.78.78,0,0,0-.37-.26,7.31,7.31,0,0,0-.84-.28,2.92,2.92,0,0,1-1.31-.68,1.49,1.49,0,0,1-.42-1.08,1.46,1.46,0,0,1,.28-.87,1.89,1.89,0,0,1,.79-.61,3.14,3.14,0,0,1,1.18-.22A3.21,3.21,0,0,1,134.25,66.17Zm-.6-3.51.54.61-1.53,1.38h-.88l-1.53-1.38.54-.61,1.43,1Z"/><path class="cls-6" d="M140.33,69h-3.66a1.91,1.91,0,0,0,.44,1.21,1.37,1.37,0,0,0,1,.36,2.19,2.19,0,0,0,.73-.12,4,4,0,0,0,.73-.39l.58.8a3.36,3.36,0,0,1-2.16.78,2.61,2.61,0,0,1-2-.81,3.26,3.26,0,0,1-.72-2.22,4,4,0,0,1,.31-1.61,2.52,2.52,0,0,1,.89-1.11,2.45,2.45,0,0,1,1.39-.4,2.37,2.37,0,0,1,1.89.78,3.17,3.17,0,0,1,.67,2.16Q140.36,68.52,140.33,69ZM139,68c0-1-.37-1.53-1.13-1.53a1,1,0,0,0-.81.38,2.36,2.36,0,0,0-.35,1.22H139Z"/><path class="cls-6" d="M145,65.64a2.83,2.83,0,0,1,.86.51l-.63.85a2.38,2.38,0,0,0-.57-.32,1.89,1.89,0,0,0-.6-.1c-.88,0-1.31.67-1.31,2a2.41,2.41,0,0,0,.34,1.46,1.14,1.14,0,0,0,1,.45,1.69,1.69,0,0,0,.56-.1,3.65,3.65,0,0,0,.61-.32l.63.89a2.89,2.89,0,0,1-1.88.67,2.72,2.72,0,0,1-1.45-.37,2.37,2.37,0,0,1-.95-1,3.63,3.63,0,0,1-.33-1.6,3.87,3.87,0,0,1,.33-1.64,2.56,2.56,0,0,1,.95-1.1,2.63,2.63,0,0,1,1.44-.39A3,3,0,0,1,145,65.64Z"/><path class="cls-6" d="M151.19,66a1.77,1.77,0,0,1,.44,1.29v4.22h-1.4v-4a1.11,1.11,0,0,0-.18-.72.69.69,0,0,0-.54-.21,1.06,1.06,0,0,0-.65.22,2.48,2.48,0,0,0-.57.65v4.06h-1.41V63.32l1.41-.15v3.16a2.13,2.13,0,0,1,1.69-.86A1.55,1.55,0,0,1,151.19,66Z"/><path class="cls-6" d="M157.59,65.94a1.84,1.84,0,0,1,.43,1.3v4.22h-1.4v-4a1.11,1.11,0,0,0-.18-.72.69.69,0,0,0-.54-.21,1,1,0,0,0-.65.22,2.38,2.38,0,0,0-.57.66v4h-1.41V65.64h1.22l.11.76a2.17,2.17,0,0,1,1.78-.93A1.57,1.57,0,0,1,157.59,65.94Z"/><path class="cls-6" d="M162.48,71.48a3.59,3.59,0,0,1-1.07,1.68,3.33,3.33,0,0,1-2,.69l-.14-1a3.44,3.44,0,0,0,.92-.25,1.41,1.41,0,0,0,.56-.42,3.44,3.44,0,0,0,.38-.7h-.48l-1.85-5.82h1.49l1.27,4.88,1.32-4.88h1.45Z"/><path class="cls-6" d="M171.31,71.18a2,2,0,0,1-.68.33,2.63,2.63,0,0,1-.78.11,1.72,1.72,0,0,1-1.3-.49,2,2,0,0,1-.45-1.41V66.65h-.91v-1h.91V64.35l1.41-.16v1.45h1.35l-.14,1h-1.21v3a1,1,0,0,0,.15.61.54.54,0,0,0,.47.19,1.43,1.43,0,0,0,.69-.21Z"/><path class="cls-6" d="M174.92,71.48a3.52,3.52,0,0,1-1.07,1.68,3.32,3.32,0,0,1-1.95.69l-.15-1a3.44,3.44,0,0,0,.92-.25,1.41,1.41,0,0,0,.56-.42,3,3,0,0,0,.38-.7h-.48l-1.85-5.82h1.5L174,70.52l1.32-4.88h1.45Z"/><path class="cls-6" d="M182.31,66.28a4.07,4.07,0,0,1,.53,2.25,4.4,4.4,0,0,1-.27,1.6,2.44,2.44,0,0,1-.79,1.1,2,2,0,0,1-1.24.39,1.79,1.79,0,0,1-1.46-.64V73.7l-1.41.15V65.64h1.23l.08.71a2.41,2.41,0,0,1,.78-.66,2.11,2.11,0,0,1,.92-.22A1.8,1.8,0,0,1,182.31,66.28Zm-.94,2.26a3.26,3.26,0,0,0-.28-1.54.9.9,0,0,0-.82-.47,1.13,1.13,0,0,0-.66.21,1.85,1.85,0,0,0-.53.58v2.62a1.24,1.24,0,0,0,1.07.6C181,70.54,181.37,69.88,181.37,68.54Z"/><path class="cls-6" d="M187,71.48A3.58,3.58,0,0,1,186,73.16a3.36,3.36,0,0,1-2,.69l-.14-1a3.36,3.36,0,0,0,.91-.25,1.41,1.41,0,0,0,.56-.42,2.68,2.68,0,0,0,.38-.7h-.48l-1.85-5.82h1.5l1.26,4.88,1.32-4.88h1.45Z"/><path class="cls-6" d="M197.22,65.64l-1.89,5.82h-1.69l-1.92-5.82h1.53l1.24,4.68,1.28-4.68Z"/><path class="cls-6" d="M201.87,65.64v1l-2.82,3.71h2.87l-.14,1.1h-4.34v-1l2.82-3.7h-2.58v-1.1Z"/><path class="cls-6" d="M207.92,63.31v8.15h-1.24l-.1-.74a2,2,0,0,1-.7.66,1.9,1.9,0,0,1-1,.24,1.87,1.87,0,0,1-1.64-.82,3.9,3.9,0,0,1-.57-2.25A4.21,4.21,0,0,1,203,67a2.54,2.54,0,0,1,.82-1.09,2.06,2.06,0,0,1,2.7.23V63.15ZM206,70.37a1.94,1.94,0,0,0,.54-.56V67.14a2.36,2.36,0,0,0-.51-.46,1.16,1.16,0,0,0-.6-.15,1,1,0,0,0-.88.5,2.77,2.77,0,0,0-.33,1.51,3.12,3.12,0,0,0,.29,1.55.92.92,0,0,0,.83.46A1.21,1.21,0,0,0,206,70.37Z"/><path class="cls-6" d="M214.36,69H210.7a1.86,1.86,0,0,0,.44,1.21,1.37,1.37,0,0,0,1,.36,2.19,2.19,0,0,0,.73-.12,4,4,0,0,0,.73-.39l.58.8a3.38,3.38,0,0,1-2.16.78,2.61,2.61,0,0,1-2-.81,3.26,3.26,0,0,1-.72-2.22,4,4,0,0,1,.31-1.61,2.52,2.52,0,0,1,.89-1.11,2.45,2.45,0,0,1,1.39-.4,2.37,2.37,0,0,1,1.89.78,3.17,3.17,0,0,1,.67,2.16Q214.39,68.52,214.36,69Zm-1.07-6.32.54.61-1.53,1.38h-.88l-1.53-1.38.54-.61,1.43,1ZM213,68c0-1-.38-1.53-1.13-1.53a1,1,0,0,0-.81.38,2.36,2.36,0,0,0-.35,1.22H213Z"/><path class="cls-6" d="M216,71.23a1.53,1.53,0,0,1-.38-1.1V63.31l1.41-.16v6.93c0,.27.11.41.33.41a1,1,0,0,0,.33-.06l.29,1a2.1,2.1,0,0,1-.93.2A1.39,1.39,0,0,1,216,71.23Z"/><path class="cls-6" d="M223.3,70.42a.68.68,0,0,0,.34.24l-.3.94a1.84,1.84,0,0,1-.81-.24,1.29,1.29,0,0,1-.47-.61,1.9,1.9,0,0,1-.75.66,2.28,2.28,0,0,1-1,.21,1.89,1.89,0,0,1-1.38-.49,1.77,1.77,0,0,1-.5-1.3,1.71,1.71,0,0,1,.68-1.45,3.35,3.35,0,0,1,2-.5h.72v-.33a1,1,0,0,0-.25-.79,1.28,1.28,0,0,0-.84-.22,4.86,4.86,0,0,0-1.54.31l-.33-1a5.92,5.92,0,0,1,2.12-.42c1.49,0,2.23.67,2.23,2v2.45A1,1,0,0,0,223.3,70.42Zm-1.49-8,.58,1.1-2.49,1-.4-.72Zm0,7.44V68.71h-.58c-.91,0-1.36.33-1.36,1a.94.94,0,0,0,.21.65.78.78,0,0,0,.61.23A1.24,1.24,0,0,0,221.81,69.88Z"/><path class="cls-6" d="M229.22,65.94a1.84,1.84,0,0,1,.44,1.3v4.22h-1.41v-4a1.11,1.11,0,0,0-.18-.72.67.67,0,0,0-.54-.21,1,1,0,0,0-.65.22,2.56,2.56,0,0,0-.57.66v4H224.9V65.64h1.23l.11.76a2.14,2.14,0,0,1,1.77-.93A1.57,1.57,0,0,1,229.22,65.94Z"/><path class="cls-6" d="M232.84,62.44l.57,1.1-2.49,1-.39-.72Zm-.14,3.2v5.82h-1.4V65.64Z"/><path d="M10.05,4.93,6.82,15.85H4.34L1,4.93H3.24L5.61,14,7.92,4.93Z"/><path d="M15.13,15.88a5.11,5.11,0,0,1-1.54,2.41,4.85,4.85,0,0,1-2.81,1l-.2-1.47a5.2,5.2,0,0,0,1.32-.35,2.23,2.23,0,0,0,.79-.61,4.08,4.08,0,0,0,.56-1h-.7L9.9,7.49h2.15l1.81,7,1.9-7h2.08Zm-.07-13,.82,1.58L12.31,5.89l-.56-1Z"/><path d="M21.1,3.92V15.85h-2V4.14Zm5,3.57-2.78,3.68,3.05,4.68H24.05l-2.87-4.57L24,7.49Z"/><path d="M31.56,15.88A5.18,5.18,0,0,1,30,18.29a4.91,4.91,0,0,1-2.82,1L27,17.82a5,5,0,0,0,1.32-.35,2.36,2.36,0,0,0,.8-.61,4.08,4.08,0,0,0,.55-1H29L26.33,7.49h2.15l1.81,7,1.9-7h2.09Z"/><path d="M42.22,7.49l-2.71,8.36H37.09L34.32,7.49h2.2l1.78,6.73,1.84-6.73Z"/><path d="M47.52,15.88A5.11,5.11,0,0,1,46,18.29a4.85,4.85,0,0,1-2.81,1L43,17.82a5.2,5.2,0,0,0,1.32-.35,2.23,2.23,0,0,0,.79-.61,4.08,4.08,0,0,0,.56-1h-.7L42.29,7.49h2.15l1.81,7,1.9-7h2.08Z"/><path d="M62.13,7.49l-2.72,8.36H57L54.23,7.49h2.2l1.78,6.73,1.84-6.73Z"/><path d="M73.53,7.92a2.65,2.65,0,0,1,.62,1.88v6h-2V10.11a1.57,1.57,0,0,0-.26-1,1,1,0,0,0-.76-.3,1.51,1.51,0,0,0-.94.32,3.92,3.92,0,0,0-.82.94v5.82h-2V7.49h1.75l.16,1.09a3.13,3.13,0,0,1,2.55-1.33A2.3,2.3,0,0,1,73.53,7.92Z"/><path d="M82.84,14.35a.9.9,0,0,0,.48.36l-.43,1.34a2.69,2.69,0,0,1-1.16-.34,1.8,1.8,0,0,1-.69-.87,2.72,2.72,0,0,1-1.06.94,3.36,3.36,0,0,1-1.43.3,2.69,2.69,0,0,1-2-.71,2.49,2.49,0,0,1-.72-1.86,2.4,2.4,0,0,1,1-2.08,4.74,4.74,0,0,1,2.82-.72h1v-.47a1.44,1.44,0,0,0-.38-1.13,1.75,1.75,0,0,0-1.19-.32,6.87,6.87,0,0,0-2.21.44l-.47-1.38a8.42,8.42,0,0,1,3-.6q3.21,0,3.21,2.88v3.51A1.32,1.32,0,0,0,82.84,14.35Zm-2.14-.76V11.9h-.84c-1.31,0-2,.48-2,1.45a1.33,1.33,0,0,0,.3.93,1.1,1.1,0,0,0,.88.34A1.81,1.81,0,0,0,80.7,13.59Z"/><path d="M92.17,4.14V15.85H90.38l-.14-1.06a2.93,2.93,0,0,1-1,1,2.78,2.78,0,0,1-1.39.34A2.69,2.69,0,0,1,85.5,14.9a5.54,5.54,0,0,1-.82-3.22,5.88,5.88,0,0,1,.41-2.29,3.5,3.5,0,0,1,1.18-1.57,3,3,0,0,1,3.87.33V3.92Zm-2.8,10.15a2.62,2.62,0,0,0,.77-.81V9.65A2.93,2.93,0,0,0,89.41,9a1.62,1.62,0,0,0-.86-.22,1.44,1.44,0,0,0-1.27.72,4,4,0,0,0-.47,2.17,4.52,4.52,0,0,0,.41,2.22,1.32,1.32,0,0,0,1.2.67A1.67,1.67,0,0,0,89.37,14.29Z"/><path d="M101.41,12.29H96.16A2.69,2.69,0,0,0,96.8,14a1.93,1.93,0,0,0,1.42.52,3,3,0,0,0,1-.18,4.87,4.87,0,0,0,1-.56l.84,1.15A4.81,4.81,0,0,1,98,16.08a3.71,3.71,0,0,1-2.94-1.16,4.67,4.67,0,0,1-1-3.2,5.74,5.74,0,0,1,.44-2.29,3.67,3.67,0,0,1,1.29-1.6,3.43,3.43,0,0,1,2-.58,3.37,3.37,0,0,1,2.71,1.12,4.53,4.53,0,0,1,1,3.1C101.46,11.58,101.44,11.85,101.41,12.29ZM99.88,3.21l.77.88-2.19,2H97.19l-2.2-2,.78-.88,2,1.39Zm-.43,7.68c0-1.47-.54-2.2-1.63-2.2a1.37,1.37,0,0,0-1.16.55,3.27,3.27,0,0,0-.5,1.74h3.29Z"/><path d="M105.28,15.11a4.82,4.82,0,0,1-.36,2,3.12,3.12,0,0,1-1,1.26,8.41,8.41,0,0,1-1.69.9l-.65-1.47a5.1,5.1,0,0,0,1-.56,1.8,1.8,0,0,0,.53-.75,3.68,3.68,0,0,0,.18-1.27V7.49h2Zm-.1-11.5a1.18,1.18,0,0,1,.35.88,1.15,1.15,0,0,1-.35.87,1.29,1.29,0,0,1-.93.34,1.25,1.25,0,0,1-.91-.34,1.18,1.18,0,0,1-.35-.87,1.2,1.2,0,0,1,1.26-1.23A1.25,1.25,0,0,1,105.18,3.61Z"/><path d="M109.63,3.61a1.19,1.19,0,0,1,.36.88,1.15,1.15,0,0,1-.36.87,1.4,1.4,0,0,1-1.83,0,1.15,1.15,0,0,1-.35-.87,1.18,1.18,0,0,1,.35-.88,1.37,1.37,0,0,1,1.83,0Zm.11,3.88v8.36h-2V7.49Z"/><path d="M123.15,4.14V15.85h-1.79l-.14-1.06a2.93,2.93,0,0,1-1,1,2.77,2.77,0,0,1-1.38.34,2.69,2.69,0,0,1-2.36-1.18,5.54,5.54,0,0,1-.82-3.22,6.07,6.07,0,0,1,.41-2.29,3.65,3.65,0,0,1,1.18-1.57,3,3,0,0,1,3.88.33V3.92Zm-2.8,10.15a2.64,2.64,0,0,0,.78-.81V9.65a3.14,3.14,0,0,0-.74-.66,1.6,1.6,0,0,0-.86-.22,1.44,1.44,0,0,0-1.27.72,4,4,0,0,0-.47,2.17,4.39,4.39,0,0,0,.42,2.22,1.31,1.31,0,0,0,1.2.67A1.66,1.66,0,0,0,120.35,14.29Z"/><path d="M131.88,8.43a4.73,4.73,0,0,1,1,3.23,5.31,5.31,0,0,1-.47,2.32,3.67,3.67,0,0,1-1.36,1.55,3.87,3.87,0,0,1-2.1.55,3.67,3.67,0,0,1-2.89-1.17,4.72,4.72,0,0,1-1-3.25,5.3,5.3,0,0,1,.47-2.31,3.54,3.54,0,0,1,1.37-1.54A3.88,3.88,0,0,1,129,7.25,3.62,3.62,0,0,1,131.88,8.43Zm-4.7,3.23a4.16,4.16,0,0,0,.45,2.19,1.65,1.65,0,0,0,2.7,0,4.15,4.15,0,0,0,.45-2.18,4.11,4.11,0,0,0-.45-2.17,1.47,1.47,0,0,0-1.33-.7C127.78,8.79,127.18,9.74,127.18,11.66Z"/><path d="M140.12,7.49V8.94l-4.05,5.33h4.13L140,15.85h-6.24V14.39l4.06-5.32H134.1V7.49Zm-1-4.28.78.88-2.2,2h-1.26l-2.2-2,.77-.88L137,4.6Z"/><path d="M143.7,3.61a1.22,1.22,0,0,1,.35.88,1.18,1.18,0,0,1-.35.87,1.29,1.29,0,0,1-.93.34,1.21,1.21,0,0,1-.9-.34,1.15,1.15,0,0,1-.36-.87,1.21,1.21,0,0,1,1.26-1.23A1.25,1.25,0,0,1,143.7,3.61Zm.1,3.88v8.36h-2V7.49Z"/><path d="M151,15.45a3.25,3.25,0,0,1-1,.48,4.13,4.13,0,0,1-1.11.15,2.46,2.46,0,0,1-1.87-.7,2.86,2.86,0,0,1-.64-2V8.94H145.1V7.49h1.31V5.64l2-.24V7.49h1.94l-.2,1.45h-1.74V13.3a1.45,1.45,0,0,0,.21.89.82.82,0,0,0,.67.27,2.07,2.07,0,0,0,1-.3Z"/><path d="M154.37,2.89l.82,1.58-3.57,1.42-.57-1Zm-.19,4.6v8.36h-2V7.49Z"/><path d="M166.54,5a5.27,5.27,0,0,1,1.45.87l-1.06,1.23a3.15,3.15,0,0,0-2-.78,2.33,2.33,0,0,0-1.95,1,5.21,5.21,0,0,0-.74,3.09,5.12,5.12,0,0,0,.73,3,2.29,2.29,0,0,0,2,1,2.78,2.78,0,0,0,1.15-.23,5.83,5.83,0,0,0,1.08-.65l1,1.23a4.52,4.52,0,0,1-3.29,1.32,4.75,4.75,0,0,1-2.51-.66,4.33,4.33,0,0,1-1.69-1.95,7.29,7.29,0,0,1-.6-3.1,6.89,6.89,0,0,1,.62-3.07,4.58,4.58,0,0,1,1.71-1.94,4.5,4.5,0,0,1,2.44-.67A4.88,4.88,0,0,1,166.54,5ZM167,1.19l.77.88L165.53,4h-1.27l-2.19-1.9.77-.88,2,1.31Z"/><path d="M176,12.29h-5.24a2.64,2.64,0,0,0,.63,1.74,1.94,1.94,0,0,0,1.42.52,3,3,0,0,0,1-.18,4.92,4.92,0,0,0,1.05-.56l.83,1.15a4.78,4.78,0,0,1-3.09,1.12,3.72,3.72,0,0,1-2.95-1.16,4.66,4.66,0,0,1-1-3.2,5.57,5.57,0,0,1,.44-2.29,3.59,3.59,0,0,1,1.28-1.6,3.46,3.46,0,0,1,2-.58,3.4,3.4,0,0,1,2.72,1.12,4.58,4.58,0,0,1,1,3.1C176.08,11.58,176.06,11.85,176,12.29Zm-2-1.4c0-1.47-.54-2.2-1.62-2.2a1.38,1.38,0,0,0-1.17.55,3.19,3.19,0,0,0-.49,1.74h3.28Z"/><path d="M182.74,7.49a3.89,3.89,0,0,1,1.24.74l-.9,1.22a3.43,3.43,0,0,0-.82-.46,2.69,2.69,0,0,0-.87-.14c-1.26,0-1.88,1-1.88,2.86A3.44,3.44,0,0,0,180,13.8a1.63,1.63,0,0,0,1.39.64,2.33,2.33,0,0,0,.81-.14,5,5,0,0,0,.88-.46l.9,1.28a4.17,4.17,0,0,1-2.7,1,3.94,3.94,0,0,1-2.09-.53,3.48,3.48,0,0,1-1.36-1.5,5.35,5.35,0,0,1-.47-2.31,5.63,5.63,0,0,1,.47-2.35,3.69,3.69,0,0,1,1.36-1.58,3.82,3.82,0,0,1,2.07-.56A4.29,4.29,0,0,1,182.74,7.49Z"/><path d="M191.64,7.93a2.66,2.66,0,0,1,.63,1.87v6h-2V10.11a1.57,1.57,0,0,0-.26-1,1,1,0,0,0-.76-.3,1.57,1.57,0,0,0-.94.32,3.83,3.83,0,0,0-.82.93v5.83h-2V4.16l2-.21V8.48a3.07,3.07,0,0,1,2.43-1.23A2.27,2.27,0,0,1,191.64,7.93Z"/><path d="M201.31,15.85h-1.75l-.11-1.17a3.2,3.2,0,0,1-1.08,1.06,3,3,0,0,1-1.48.34,2.17,2.17,0,0,1-1.73-.68,2.77,2.77,0,0,1-.61-1.91v-6h2v5.75a1.56,1.56,0,0,0,.25,1,.94.94,0,0,0,.78.3,2,2,0,0,0,1.69-1.18V7.49h2ZM199.38,2.92a1.81,1.81,0,0,1,.56,1.35,1.84,1.84,0,0,1-.56,1.34,2.2,2.2,0,0,1-2.91,0,1.84,1.84,0,0,1-.56-1.34,1.81,1.81,0,0,1,.56-1.35,2,2,0,0,1,1.46-.55A1.94,1.94,0,0,1,199.38,2.92Zm-2,.73a.86.86,0,0,0-.2.62.85.85,0,0,0,.2.61.77.77,0,0,0,.57.21.72.72,0,0,0,.55-.21.85.85,0,0,0,.21-.61.86.86,0,0,0-.21-.62.69.69,0,0,0-.55-.22A.74.74,0,0,0,197.36,3.65Z"/><path d="M214.38,15.85h-1.75l-.12-1.17a3,3,0,0,1-1.08,1.06,3,3,0,0,1-1.47.34,2.2,2.2,0,0,1-1.74-.68,2.82,2.82,0,0,1-.6-1.91v-6h2v5.75a1.63,1.63,0,0,0,.24,1,1,1,0,0,0,.79.3,2,2,0,0,0,1.69-1.18V7.49h2Z"/><path d="M218.83,3.92V15.85h-2V4.14Zm5,3.57-2.78,3.68,3.05,4.68h-2.32l-2.88-4.57,2.8-3.79Z"/><path d="M231.34,14.35a.9.9,0,0,0,.48.36l-.42,1.34a2.7,2.7,0,0,1-1.17-.34,1.78,1.78,0,0,1-.68-.87,2.75,2.75,0,0,1-1.07.94,3.33,3.33,0,0,1-1.43.3,2.66,2.66,0,0,1-2-.71,2.46,2.46,0,0,1-.73-1.86,2.41,2.41,0,0,1,1-2.08,4.7,4.7,0,0,1,2.82-.72h1v-.47a1.43,1.43,0,0,0-.37-1.13,1.79,1.79,0,0,0-1.2-.32,6.92,6.92,0,0,0-2.21.44L225,7.85a8.42,8.42,0,0,1,3-.6q3.21,0,3.21,2.88v3.51A1.32,1.32,0,0,0,231.34,14.35Zm-2.14-.76V11.9h-.84c-1.3,0-2,.48-2,1.45a1.33,1.33,0,0,0,.3.93,1.12,1.12,0,0,0,.89.34A1.8,1.8,0,0,0,229.2,13.59Z"/><path d="M239.07,7.49V8.94l-4,5.33h4.12l-.2,1.58h-6.24V14.39l4.06-5.32h-3.72V7.49Z"/><path d="M247.26,15.85H245.5l-.11-1.17a3,3,0,0,1-1.08,1.06,3,3,0,0,1-1.48.34,2.2,2.2,0,0,1-1.73-.68,2.82,2.82,0,0,1-.6-1.91v-6h2v5.75a1.63,1.63,0,0,0,.24,1,1,1,0,0,0,.79.3,2,2,0,0,0,1.69-1.18V7.49h2Z"/><path d="M251.7,15.11a4.82,4.82,0,0,1-.36,2,3.12,3.12,0,0,1-1,1.26,8.7,8.7,0,0,1-1.69.9L248,17.81a5,5,0,0,0,1-.56,1.71,1.71,0,0,0,.53-.75,3.65,3.65,0,0,0,.19-1.27V7.49h2Zm-.11-11.5a1.19,1.19,0,0,1,.36.88,1.15,1.15,0,0,1-.36.87,1.4,1.4,0,0,1-1.83,0,1.18,1.18,0,0,1-.35-.87,1.3,1.3,0,0,1,2.18-.88Z"/><path d="M256.6,2.89l.82,1.58-3.57,1.42-.57-1Zm-.19,4.6v8.36h-2V7.49Z"/><path d="M269,7.92a2.65,2.65,0,0,1,.63,1.88v6h-2V10.11a1.57,1.57,0,0,0-.26-1,1,1,0,0,0-.76-.3,1.51,1.51,0,0,0-.94.32,3.71,3.71,0,0,0-.82.94v5.82h-2V7.49h1.75l.16,1.09a3.13,3.13,0,0,1,2.55-1.33A2.3,2.3,0,0,1,269,7.92Z"/><path d="M278.3,14.35a.9.9,0,0,0,.48.36l-.43,1.34a2.69,2.69,0,0,1-1.16-.34,1.8,1.8,0,0,1-.69-.87,2.72,2.72,0,0,1-1.06.94,3.36,3.36,0,0,1-1.43.3,2.69,2.69,0,0,1-2-.71,2.49,2.49,0,0,1-.73-1.86,2.41,2.41,0,0,1,1-2.08,4.74,4.74,0,0,1,2.82-.72h1.05v-.47a1.44,1.44,0,0,0-.38-1.13,1.75,1.75,0,0,0-1.19-.32,6.87,6.87,0,0,0-2.21.44l-.47-1.38a8.42,8.42,0,0,1,3-.6q3.21,0,3.21,2.88v3.51A1.32,1.32,0,0,0,278.3,14.35Zm-2.14-.76V11.9h-.84c-1.31,0-2,.48-2,1.45a1.33,1.33,0,0,0,.3.93,1.1,1.1,0,0,0,.88.34A1.81,1.81,0,0,0,276.16,13.59Z"/><path d="M290,7.49V8.94l-4,5.33h4.12l-.21,1.58h-6.24V14.39l4.06-5.32H284V7.49Z"/><path d="M302.12,7.94a2.73,2.73,0,0,1,.59,1.86v6h-2V10.11c0-.89-.3-1.34-.91-1.34a1.24,1.24,0,0,0-.85.31,3.59,3.59,0,0,0-.73.95v5.82h-2V10.11c0-.89-.3-1.34-.91-1.34a1.23,1.23,0,0,0-.86.31,3.82,3.82,0,0,0-.74.95v5.82h-2V7.49h1.75l.16,1.09A2.88,2.88,0,0,1,296,7.25a2.17,2.17,0,0,1,1.25.37,2.09,2.09,0,0,1,.77,1,3.89,3.89,0,0,1,1.12-1,2.58,2.58,0,0,1,1.39-.37A2.05,2.05,0,0,1,302.12,7.94Z"/><path d="M311.88,12.29h-5.25a2.69,2.69,0,0,0,.64,1.74,1.93,1.93,0,0,0,1.42.52,3,3,0,0,0,1-.18,4.87,4.87,0,0,0,1-.56l.84,1.15a4.81,4.81,0,0,1-3.1,1.12,3.71,3.71,0,0,1-2.94-1.16,4.67,4.67,0,0,1-1-3.2A5.74,5.74,0,0,1,305,9.43a3.73,3.73,0,0,1,1.28-1.6,3.49,3.49,0,0,1,2-.58A3.37,3.37,0,0,1,311,8.37a4.53,4.53,0,0,1,1,3.1C311.93,11.58,311.91,11.85,311.88,12.29Zm-1.53-9.08.77.88-2.2,2h-1.26l-2.2-2,.78-.88,2.05,1.39Zm-.43,7.68c0-1.47-.54-2.2-1.63-2.2a1.37,1.37,0,0,0-1.16.55,3.27,3.27,0,0,0-.5,1.74h3.29Z"/><path d="M320,7.92a2.7,2.7,0,0,1,.62,1.88v6h-2V10.11a1.63,1.63,0,0,0-.26-1,1,1,0,0,0-.77-.3,1.53,1.53,0,0,0-.94.32,3.69,3.69,0,0,0-.81.94v5.82h-2V7.49h1.76l.16,1.09a3.11,3.11,0,0,1,2.54-1.33A2.3,2.3,0,0,1,320,7.92Z"/><path d="M326.87,15.88a5,5,0,0,1-1.53,2.41,4.85,4.85,0,0,1-2.81,1l-.21-1.47a5,5,0,0,0,1.32-.35,2.27,2.27,0,0,0,.8-.61,4.08,4.08,0,0,0,.55-1h-.69l-2.66-8.36h2.15l1.82,7,1.89-7h2.09Z"/><path d="M345.25,7.94a2.74,2.74,0,0,1,.6,1.86v6h-2V10.11c0-.89-.31-1.34-.92-1.34a1.24,1.24,0,0,0-.85.31,3.82,3.82,0,0,0-.73.95v5.82h-2V10.11c0-.89-.31-1.34-.92-1.34a1.25,1.25,0,0,0-.86.31,3.59,3.59,0,0,0-.73.95v5.82h-2V7.49h1.76l.16,1.09a2.86,2.86,0,0,1,2.41-1.33,2.18,2.18,0,0,1,1.26.37,2.15,2.15,0,0,1,.77,1,3.74,3.74,0,0,1,1.11-1,2.59,2.59,0,0,1,1.4-.37A2,2,0,0,1,345.25,7.94Z"/><path d="M355,12.29h-5.24A2.64,2.64,0,0,0,350.4,14a1.94,1.94,0,0,0,1.42.52,3,3,0,0,0,1-.18,4.92,4.92,0,0,0,1.05-.56l.83,1.15a4.76,4.76,0,0,1-3.09,1.12,3.72,3.72,0,0,1-2.95-1.16,4.66,4.66,0,0,1-1-3.2,5.57,5.57,0,0,1,.44-2.29,3.59,3.59,0,0,1,1.28-1.6,3.46,3.46,0,0,1,2-.58,3.4,3.4,0,0,1,2.72,1.12,4.58,4.58,0,0,1,1,3.1C355.06,11.58,355.05,11.85,355,12.29Zm-2-1.4c0-1.47-.54-2.2-1.62-2.2a1.38,1.38,0,0,0-1.17.55,3.28,3.28,0,0,0-.49,1.74h3.28Z"/><path d="M361.66,15.45a3.31,3.31,0,0,1-1,.48,4.26,4.26,0,0,1-1.12.15,2.47,2.47,0,0,1-1.87-.7,2.86,2.86,0,0,1-.64-2V8.94h-1.31V7.49h1.31V5.64l2-.24V7.49H361l-.21,1.45h-1.74V13.3a1.38,1.38,0,0,0,.22.89.79.79,0,0,0,.67.27,2,2,0,0,0,1-.3Z"/><path d="M368.83,8.43a4.73,4.73,0,0,1,1,3.23,5.31,5.31,0,0,1-.48,2.32A3.67,3.67,0,0,1,368,15.53a3.87,3.87,0,0,1-2.1.55A3.67,3.67,0,0,1,363,14.91a4.72,4.72,0,0,1-1-3.25,5.3,5.3,0,0,1,.47-2.31,3.54,3.54,0,0,1,1.37-1.54A3.88,3.88,0,0,1,366,7.25,3.62,3.62,0,0,1,368.83,8.43Zm-4.7,3.23a4.16,4.16,0,0,0,.45,2.19,1.65,1.65,0,0,0,2.7,0,4.15,4.15,0,0,0,.45-2.18,4.11,4.11,0,0,0-.45-2.17,1.47,1.47,0,0,0-1.33-.7C364.73,8.79,364.13,9.74,364.13,11.66Z"/><path d="M378.79,4.14V15.85H377l-.15-1.06a2.84,2.84,0,0,1-1,1,2.74,2.74,0,0,1-1.38.34,2.7,2.7,0,0,1-2.36-1.18,5.62,5.62,0,0,1-.82-3.22,6.07,6.07,0,0,1,.41-2.29,3.65,3.65,0,0,1,1.18-1.57,3,3,0,0,1,3.88.33V3.92ZM376,14.29a2.62,2.62,0,0,0,.77-.81V9.65A3.11,3.11,0,0,0,376,9a1.66,1.66,0,0,0-.87-.22,1.45,1.45,0,0,0-1.27.72,4.05,4.05,0,0,0-.46,2.17,4.41,4.41,0,0,0,.41,2.22,1.31,1.31,0,0,0,1.2.67A1.7,1.7,0,0,0,376,14.29Z"/><path d="M383.14,3.61a1.19,1.19,0,0,1,.36.88,1.15,1.15,0,0,1-.36.87,1.4,1.4,0,0,1-1.83,0,1.15,1.15,0,0,1-.35-.87,1.18,1.18,0,0,1,.35-.88,1.37,1.37,0,0,1,1.83,0Zm.11,3.88v8.36h-2V7.49Z"/><path d="M387.7,3.92V15.85h-2V4.14Zm5,3.57-2.78,3.68L393,15.85h-2.32l-2.88-4.57,2.8-3.79Z"/><path d="M398.16,15.88a5.1,5.1,0,0,1-1.53,2.41,4.85,4.85,0,0,1-2.81,1l-.21-1.47a5,5,0,0,0,1.32-.35,2.27,2.27,0,0,0,.8-.61,4.08,4.08,0,0,0,.55-1h-.69l-2.66-8.36h2.15l1.82,7,1.9-7h2.08Z"/><path d="M8.08,35.86H6.55l-3.36-7q.08.84.12,1.53c0,.47,0,1,0,1.7v3.79H2.28V27.6H3.77l3.39,7c0-.21,0-.57-.09-1.09S7,32.54,7,32.11V27.6H8.08Z"/><path d="M14.81,35a.82.82,0,0,0,.39.28L15,36a1.61,1.61,0,0,1-.79-.28,1.22,1.22,0,0,1-.44-.67,2.15,2.15,0,0,1-1.89.95,2,2,0,0,1-1.47-.53,2,2,0,0,1,.18-2.93A3.41,3.41,0,0,1,12.6,32h1v-.46a1.29,1.29,0,0,0-.32-1,1.49,1.49,0,0,0-1-.28,5.65,5.65,0,0,0-1.7.33l-.28-.8a6.33,6.33,0,0,1,2.19-.43,2.27,2.27,0,0,1,1.66.54,2.1,2.1,0,0,1,.56,1.56v2.89A1,1,0,0,0,14.81,35Zm-1.24-.76V32.74h-.83c-1.16,0-1.75.44-1.75,1.3a1.15,1.15,0,0,0,.28.85,1.07,1.07,0,0,0,.81.29A1.65,1.65,0,0,0,13.57,34.2Z"/><path d="M21.84,27v8.86h-1L20.76,35a2.32,2.32,0,0,1-.78.75,2.17,2.17,0,0,1-2.8-.62,4.05,4.05,0,0,1-.63-2.39,4.68,4.68,0,0,1,.3-1.73,2.77,2.77,0,0,1,.86-1.18A2.17,2.17,0,0,1,19,29.4a2.28,2.28,0,0,1,1.71.78V26.86ZM20,34.9a2.89,2.89,0,0,0,.7-.7V31.1a2.41,2.41,0,0,0-.67-.62,1.54,1.54,0,0,0-.8-.21,1.28,1.28,0,0,0-1.13.62,3.3,3.3,0,0,0-.4,1.82,3.51,3.51,0,0,0,.37,1.82,1.18,1.18,0,0,0,1.07.6A1.6,1.6,0,0,0,20,34.9Z"/><path d="M28.87,33.08h-4a2.45,2.45,0,0,0,.53,1.54,1.54,1.54,0,0,0,1.17.49,2.74,2.74,0,0,0,.84-.13,3.49,3.49,0,0,0,.81-.42l.48.66a3.54,3.54,0,0,1-2.21.79,2.55,2.55,0,0,1-2.06-.87,3.52,3.52,0,0,1-.74-2.37A4.55,4.55,0,0,1,24,31a2.75,2.75,0,0,1,.91-1.19,2.6,2.6,0,0,1,3.33.39,3.56,3.56,0,0,1,.68,2.3A5.4,5.4,0,0,1,28.87,33.08Zm-1-6.64.47.54L26.7,28.34H26L24.34,27l.48-.54,1.51,1Zm-.05,5.75a2.34,2.34,0,0,0-.37-1.43,1.33,1.33,0,0,0-1.11-.49c-.91,0-1.4.67-1.48,2h3Z"/><path d="M31.74,35.48a3.72,3.72,0,0,1-.22,1.41,2,2,0,0,1-.63.85,5.73,5.73,0,0,1-1.15.67l-.33-.81a3.26,3.26,0,0,0,.72-.42,1.24,1.24,0,0,0,.38-.59,3.52,3.52,0,0,0,.13-1v-6h1.1Zm0-8.76a.77.77,0,0,1,0,1.08.8.8,0,0,1-.56.2.77.77,0,0,1-.55-.2.77.77,0,0,1,0-1.08.75.75,0,0,1,.55-.22A.77.77,0,0,1,31.75,26.72Z"/><path d="M38.77,33.08h-4a2.45,2.45,0,0,0,.53,1.54,1.54,1.54,0,0,0,1.17.49,2.74,2.74,0,0,0,.84-.13,3.49,3.49,0,0,0,.81-.42l.48.66a3.54,3.54,0,0,1-2.21.79,2.55,2.55,0,0,1-2.06-.87,3.52,3.52,0,0,1-.74-2.37A4.55,4.55,0,0,1,33.88,31a2.75,2.75,0,0,1,.91-1.19,2.6,2.6,0,0,1,3.33.39,3.56,3.56,0,0,1,.68,2.3A5.4,5.4,0,0,1,38.77,33.08Zm-1.07-.89a2.34,2.34,0,0,0-.37-1.43,1.33,1.33,0,0,0-1.11-.49c-.91,0-1.4.67-1.48,2h3Z"/><path d="M48.64,27v8.86h-1l-.1-.87a2.32,2.32,0,0,1-.78.75,2.08,2.08,0,0,1-1.05.27A2,2,0,0,1,44,35.12a4.05,4.05,0,0,1-.63-2.39,4.68,4.68,0,0,1,.3-1.73,2.71,2.71,0,0,1,.87-1.18,2.12,2.12,0,0,1,1.32-.42,2.26,2.26,0,0,1,1.7.78V26.86Zm-1.8,7.9a2.7,2.7,0,0,0,.69-.7V31.1a2.53,2.53,0,0,0-.66-.62,1.57,1.57,0,0,0-.8-.21,1.29,1.29,0,0,0-1.14.62,3.39,3.39,0,0,0-.4,1.82,3.62,3.62,0,0,0,.37,1.82,1.2,1.2,0,0,0,1.07.6A1.61,1.61,0,0,0,46.84,34.9Z"/><path d="M55.36,30.28a3.7,3.7,0,0,1,.74,2.42,4.11,4.11,0,0,1-.34,1.73,2.53,2.53,0,0,1-1,1.16,2.67,2.67,0,0,1-1.51.42,2.58,2.58,0,0,1-2.08-.89,3.67,3.67,0,0,1-.74-2.41A4.13,4.13,0,0,1,50.8,31a2.58,2.58,0,0,1,1-1.16,2.68,2.68,0,0,1,1.52-.41A2.54,2.54,0,0,1,55.36,30.28Zm-3.71,2.43c0,1.61.54,2.41,1.63,2.41s1.63-.81,1.63-2.42-.54-2.42-1.62-2.42S51.65,31.09,51.65,32.71Z"/><path d="M61.55,29.54v.84l-3.3,4.56h3.33l-.13.92H57V35l3.29-4.56h-3v-.94Zm-.7-3.1.47.54L59.7,28.34H59L57.34,27l.48-.54,1.51,1Z"/><path d="M64.19,26.72a.8.8,0,0,1,0,1.08.82.82,0,0,1-.57.2.81.81,0,0,1-.55-.2.8.8,0,0,1,0-1.08.78.78,0,0,1,.55-.22A.79.79,0,0,1,64.19,26.72Zm0,2.82v6.32H63.08V29.54Z"/><path d="M69.66,35.58a2.5,2.5,0,0,1-1.42.43A1.7,1.7,0,0,1,67,35.55a1.86,1.86,0,0,1-.45-1.34V30.39h-1.1v-.85h1.1V28.11l1.1-.13v1.56h1.5l-.12.85H67.64v3.77a1.1,1.1,0,0,0,.18.71.68.68,0,0,0,.58.23,1.79,1.79,0,0,0,.84-.26Z"/><path d="M72.3,26.25l.49.93-2.54,1-.34-.59Zm-.4,3.29v6.32H70.8V29.54Z"/><path d="M81.57,27.64a3.76,3.76,0,0,1,1,.63L82,29a2.46,2.46,0,0,0-1.59-.61,2,2,0,0,0-1.66.79,4.1,4.1,0,0,0-.63,2.54,4.1,4.1,0,0,0,.62,2.52,2,2,0,0,0,1.66.81,2.19,2.19,0,0,0,.92-.18,5,5,0,0,0,.84-.51l.56.72a2.82,2.82,0,0,1-1,.66,3.33,3.33,0,0,1-1.38.27,3.28,3.28,0,0,1-1.79-.5,3.24,3.24,0,0,1-1.23-1.46,5.66,5.66,0,0,1-.44-2.33,5.48,5.48,0,0,1,.46-2.32,3.39,3.39,0,0,1,1.24-1.46,3.26,3.26,0,0,1,1.74-.49A3.78,3.78,0,0,1,81.57,27.64ZM81.91,25l.47.54-1.62,1.32H80L78.4,25.5l.48-.54,1.51,1Z"/><path d="M86.57,32.36H85.28v3.5H84.14V27.6h2.18a3.92,3.92,0,0,1,2.34.58,2.06,2.06,0,0,1,.8,1.76,2.17,2.17,0,0,1-.44,1.4,2.8,2.8,0,0,1-1.35.82l2.23,3.7H88.55Zm-.13-.88a2.13,2.13,0,0,0,1.35-.36,1.41,1.41,0,0,0,.46-1.18,1.29,1.29,0,0,0-.46-1.11,2.53,2.53,0,0,0-1.49-.35h-1v3Z"/><path d="M99.42,27v8.86h-1L98.34,35a2.32,2.32,0,0,1-.78.75,2.17,2.17,0,0,1-2.8-.62,4.05,4.05,0,0,1-.63-2.39,4.68,4.68,0,0,1,.3-1.73,2.77,2.77,0,0,1,.86-1.18,2.17,2.17,0,0,1,1.32-.42,2.28,2.28,0,0,1,1.71.78V26.86Zm-1.8,7.9a2.89,2.89,0,0,0,.7-.7V31.1a2.41,2.41,0,0,0-.67-.62,1.54,1.54,0,0,0-.8-.21,1.28,1.28,0,0,0-1.13.62,3.3,3.3,0,0,0-.4,1.82,3.51,3.51,0,0,0,.37,1.82,1.18,1.18,0,0,0,1.07.6A1.6,1.6,0,0,0,97.62,34.9Z"/><path d="M106.15,30.28a3.7,3.7,0,0,1,.73,2.42,4.27,4.27,0,0,1-.33,1.73,2.65,2.65,0,0,1-1,1.16,2.71,2.71,0,0,1-1.52.42,2.56,2.56,0,0,1-2.07-.89,3.62,3.62,0,0,1-.75-2.41,4.29,4.29,0,0,1,.34-1.74,2.64,2.64,0,0,1,1-1.16,2.71,2.71,0,0,1,1.53-.41A2.56,2.56,0,0,1,106.15,30.28Zm-3.72,2.43c0,1.61.55,2.41,1.63,2.41s1.64-.81,1.64-2.42-.54-2.42-1.62-2.42S102.43,31.09,102.43,32.71Z"/><path d="M113,29.91a2,2,0,0,1,.49,1.42v4.53h-1.1V31.48a1.37,1.37,0,0,0-.26-.94,1,1,0,0,0-.75-.28,1.45,1.45,0,0,0-.88.29,3.23,3.23,0,0,0-.72.81v4.5h-1.1V27l1.1-.12v3.53a2.24,2.24,0,0,1,1.87-1A1.76,1.76,0,0,1,113,29.91Z"/><path d="M119.11,29.47l-.2,1.08a2.24,2.24,0,0,0-.55-.07,1.16,1.16,0,0,0-1,.43,3.24,3.24,0,0,0-.57,1.34v3.61h-1.1V29.54h1l.11,1.28a2.3,2.3,0,0,1,.68-1.06,1.52,1.52,0,0,1,1-.36A2.45,2.45,0,0,1,119.11,29.47Z"/><path d="M124.46,30.28a3.7,3.7,0,0,1,.74,2.42,4.27,4.27,0,0,1-.34,1.73,2.65,2.65,0,0,1-1,1.16,2.7,2.7,0,0,1-1.51.42,2.58,2.58,0,0,1-2.08-.89,3.62,3.62,0,0,1-.74-2.41,4.29,4.29,0,0,1,.33-1.74,2.57,2.57,0,0,1,2.5-1.57A2.55,2.55,0,0,1,124.46,30.28Zm-3.72,2.43c0,1.61.55,2.41,1.64,2.41S124,34.31,124,32.7s-.54-2.42-1.62-2.42S120.74,31.09,120.74,32.71Z"/><path d="M134.62,29.92a2,2,0,0,1,.46,1.41v4.53H134V31.48c0-.81-.3-1.22-.89-1.22a1.2,1.2,0,0,0-.79.27,3.63,3.63,0,0,0-.7.85v4.48h-1.1V31.48c0-.81-.3-1.22-.89-1.22a1.15,1.15,0,0,0-.8.28,3.51,3.51,0,0,0-.69.84v4.48H127V29.54h1l.09.93a2.12,2.12,0,0,1,1.83-1.07,1.67,1.67,0,0,1,1,.3,1.62,1.62,0,0,1,.59.84,2.93,2.93,0,0,1,.83-.85,1.85,1.85,0,0,1,1.06-.29A1.6,1.6,0,0,1,134.62,29.92Z"/><path d="M141.7,35a.78.78,0,0,0,.39.28l-.25.77a1.61,1.61,0,0,1-.79-.28,1.29,1.29,0,0,1-.45-.67,2.12,2.12,0,0,1-1.88.95,2,2,0,0,1-1.48-.53,2,2,0,0,1,.19-2.93,3.39,3.39,0,0,1,2.06-.54h1v-.46a1.25,1.25,0,0,0-.33-1,1.45,1.45,0,0,0-1-.28,5.59,5.59,0,0,0-1.7.33l-.28-.8a6.28,6.28,0,0,1,2.18-.43,2.3,2.3,0,0,1,1.67.54,2.09,2.09,0,0,1,.55,1.56v2.89A1,1,0,0,0,141.7,35Zm-1.24-.76V32.74h-.83c-1.17,0-1.75.44-1.75,1.3a1.15,1.15,0,0,0,.28.85,1.07,1.07,0,0,0,.81.29A1.66,1.66,0,0,0,140.46,34.2Z"/><path d="M148.73,27v8.86h-1l-.1-.87a2.32,2.32,0,0,1-.78.75,2.08,2.08,0,0,1-1.05.27,2,2,0,0,1-1.75-.89,4.05,4.05,0,0,1-.63-2.39,4.68,4.68,0,0,1,.3-1.73,2.69,2.69,0,0,1,.86-1.18,2.15,2.15,0,0,1,1.32-.42,2.26,2.26,0,0,1,1.7.78V26.86Zm-1.8,7.9a2.7,2.7,0,0,0,.69-.7V31.1a2.39,2.39,0,0,0-.66-.62,1.54,1.54,0,0,0-.8-.21,1.27,1.27,0,0,0-1.13.62,3.29,3.29,0,0,0-.41,1.82,3.5,3.5,0,0,0,.38,1.82,1.17,1.17,0,0,0,1.06.6A1.61,1.61,0,0,0,146.93,34.9Z"/><path d="M153.54,35.9a4.23,4.23,0,0,1-1,1.75,3.19,3.19,0,0,1-1.9.77l-.12-.86a3.28,3.28,0,0,0,1-.32,1.69,1.69,0,0,0,.6-.52,3.64,3.64,0,0,0,.41-.86h-.37L150,29.54h1.17l1.7,5.52,1.65-5.52h1.14Z"/><path d="M164.77,30.26a4.43,4.43,0,0,1,.57,2.44,4.08,4.08,0,0,1-.65,2.4,2.16,2.16,0,0,1-1.84.91,2,2,0,0,1-1.65-.72v3l-1.11.13V29.54H161l.08.85a2.47,2.47,0,0,1,.84-.74,2.22,2.22,0,0,1,1-.25A2,2,0,0,1,164.77,30.26Zm-.62,2.44c0-1.62-.48-2.43-1.43-2.43a1.38,1.38,0,0,0-.85.28,2.54,2.54,0,0,0-.67.71v3.08a1.49,1.49,0,0,0,.6.57,1.63,1.63,0,0,0,.79.2C163.63,35.11,164.15,34.3,164.15,32.7Z"/><path d="M170.59,29.47l-.2,1.08a2.18,2.18,0,0,0-.55-.07,1.16,1.16,0,0,0-1,.43,3.24,3.24,0,0,0-.57,1.34v3.61h-1.1V29.54h.95l.11,1.28a2.3,2.3,0,0,1,.68-1.06,1.52,1.52,0,0,1,1-.36A2.45,2.45,0,0,1,170.59,29.47Z"/><path d="M175.94,30.28a3.7,3.7,0,0,1,.73,2.42,4.27,4.27,0,0,1-.33,1.73,2.65,2.65,0,0,1-1,1.16,2.71,2.71,0,0,1-1.52.42,2.56,2.56,0,0,1-2.07-.89,3.62,3.62,0,0,1-.75-2.41,4.29,4.29,0,0,1,.34-1.74,2.64,2.64,0,0,1,1-1.16,2.71,2.71,0,0,1,1.53-.41A2.56,2.56,0,0,1,175.94,30.28Zm-3.72,2.43c0,1.61.55,2.41,1.63,2.41s1.64-.81,1.64-2.42-.54-2.42-1.62-2.42S172.22,31.09,172.22,32.71Z"/><path d="M186.13,30.28a3.7,3.7,0,0,1,.73,2.42,4.27,4.27,0,0,1-.33,1.73,2.61,2.61,0,0,1-1,1.16A2.65,2.65,0,0,1,184,36a2.54,2.54,0,0,1-2.07-.89,3.62,3.62,0,0,1-.75-2.41,4.13,4.13,0,0,1,.34-1.74,2.64,2.64,0,0,1,1-1.16,2.68,2.68,0,0,1,1.52-.41A2.57,2.57,0,0,1,186.13,30.28Zm-3.72,2.43c0,1.61.54,2.41,1.63,2.41s1.63-.81,1.63-2.42-.54-2.42-1.62-2.42S182.41,31.09,182.41,32.71Z"/><path d="M193.3,30.27a4.08,4.08,0,0,1,.63,2.43,4.65,4.65,0,0,1-.3,1.73,2.59,2.59,0,0,1-.86,1.16,2.17,2.17,0,0,1-1.32.42,2.07,2.07,0,0,1-1.68-.84l-.11.69h-1V27l1.1-.14v3.47a2.12,2.12,0,0,1,1.79-.93A2,2,0,0,1,193.3,30.27Zm-1,4.27a3.32,3.32,0,0,0,.41-1.84,3.49,3.49,0,0,0-.38-1.86,1.24,1.24,0,0,0-1.09-.57,1.79,1.79,0,0,0-1.48,1v3a1.84,1.84,0,0,0,.62.62,1.36,1.36,0,0,0,.77.23A1.34,1.34,0,0,0,192.33,34.54Z"/><path d="M200.57,33.08h-4a2.51,2.51,0,0,0,.53,1.54,1.58,1.58,0,0,0,1.18.49,2.84,2.84,0,0,0,.84-.13,3.65,3.65,0,0,0,.8-.42l.48.66a3.54,3.54,0,0,1-2.21.79,2.53,2.53,0,0,1-2.05-.87,3.47,3.47,0,0,1-.74-2.37,4.37,4.37,0,0,1,.32-1.75,2.68,2.68,0,0,1,.91-1.19,2.28,2.28,0,0,1,1.4-.43,2.34,2.34,0,0,1,1.93.82,3.56,3.56,0,0,1,.67,2.3C200.59,32.7,200.58,32.89,200.57,33.08Zm-1-6.64L200,27l-1.62,1.36h-.73L196,27l.48-.54,1.51,1Zm-.05,5.75a2.41,2.41,0,0,0-.37-1.43,1.34,1.34,0,0,0-1.12-.49c-.9,0-1.4.67-1.48,2h3Z"/><path d="M210.21,30.26a4.43,4.43,0,0,1,.57,2.44,4.08,4.08,0,0,1-.65,2.4,2.13,2.13,0,0,1-1.83.91,2,2,0,0,1-1.66-.72v3l-1.11.13V29.54h.95l.09.85a2.47,2.47,0,0,1,.84-.74,2.18,2.18,0,0,1,1-.25A1.94,1.94,0,0,1,210.21,30.26Zm-.62,2.44c0-1.62-.48-2.43-1.43-2.43a1.4,1.4,0,0,0-.85.28,2.54,2.54,0,0,0-.67.71v3.08a1.62,1.62,0,0,0,1.39.77C209.07,35.11,209.59,34.3,209.59,32.7Z"/><path d="M217.11,30.28a3.7,3.7,0,0,1,.74,2.42,4.27,4.27,0,0,1-.34,1.73,2.59,2.59,0,0,1-1,1.16A2.7,2.7,0,0,1,215,36a2.58,2.58,0,0,1-2.08-.89,3.62,3.62,0,0,1-.74-2.41,4.29,4.29,0,0,1,.33-1.74A2.57,2.57,0,0,1,215,29.4,2.54,2.54,0,0,1,217.11,30.28Zm-3.72,2.43c0,1.61.55,2.41,1.64,2.41s1.63-.81,1.63-2.42-.54-2.42-1.62-2.42S213.39,31.09,213.39,32.71Z"/><path d="M224,29.91a2,2,0,0,1,.48,1.42v4.53h-1.1V31.48a1.37,1.37,0,0,0-.26-.94,1,1,0,0,0-.75-.28,1.45,1.45,0,0,0-.88.29,3.23,3.23,0,0,0-.72.81v4.5h-1.1V27l1.1-.12v3.53a2.25,2.25,0,0,1,1.88-1A1.79,1.79,0,0,1,224,29.91Z"/><path d="M227,35.64a1.38,1.38,0,0,1-.36-1V27l1.11-.14v7.73a.66.66,0,0,0,.09.39.35.35,0,0,0,.3.12,1,1,0,0,0,.41-.08l.29.77A1.77,1.77,0,0,1,228,36,1.24,1.24,0,0,1,227,35.64Z"/><path d="M234.55,35a.8.8,0,0,0,.4.28l-.26.77a1.65,1.65,0,0,1-.79-.28,1.22,1.22,0,0,1-.44-.67,2.14,2.14,0,0,1-1.89.95,2,2,0,0,1-1.47-.53,2,2,0,0,1,.18-2.93,3.43,3.43,0,0,1,2.06-.54h1v-.46a1.25,1.25,0,0,0-.32-1,1.49,1.49,0,0,0-1-.28,5.65,5.65,0,0,0-1.7.33l-.28-.8a6.38,6.38,0,0,1,2.19-.43,2.31,2.31,0,0,1,1.67.54,2.13,2.13,0,0,1,.55,1.56v2.89A1,1,0,0,0,234.55,35Zm-1.24-.76V32.74h-.82c-1.17,0-1.76.44-1.76,1.3a1.19,1.19,0,0,0,.28.85,1.09,1.09,0,0,0,.82.29A1.63,1.63,0,0,0,233.31,34.2Z"/><path d="M241.15,29.54,239,35.86h-1.33l-2.18-6.32h1.2l1.65,5.34L240,29.54Z"/><path d="M243.91,26.25l.49.93-2.54,1-.34-.59Zm-.4,3.29v6.32h-1.1V29.54Z"/><path d="M253.62,29.54l-2.15,6.32h-1.33L248,29.54h1.2l1.66,5.34,1.64-5.34Z"/><path d="M258.35,35.64a1.42,1.42,0,0,1-.35-1V27l1.1-.14v7.73a.66.66,0,0,0,.09.39.36.36,0,0,0,.31.12,1.07,1.07,0,0,0,.41-.08l.28.77a1.71,1.71,0,0,1-.87.22A1.27,1.27,0,0,1,258.35,35.64Z"/><path d="M266.27,33.08h-4a2.51,2.51,0,0,0,.53,1.54,1.58,1.58,0,0,0,1.18.49,2.84,2.84,0,0,0,.84-.13,3.65,3.65,0,0,0,.8-.42l.48.66a3.54,3.54,0,0,1-2.21.79,2.53,2.53,0,0,1-2.05-.87,3.47,3.47,0,0,1-.74-2.37,4.37,4.37,0,0,1,.32-1.75,2.68,2.68,0,0,1,.91-1.19,2.28,2.28,0,0,1,1.4-.43,2.34,2.34,0,0,1,1.93.82,3.56,3.56,0,0,1,.67,2.3C266.29,32.7,266.28,32.89,266.27,33.08Zm-1.07-.89a2.41,2.41,0,0,0-.37-1.43,1.34,1.34,0,0,0-1.12-.49c-.9,0-1.4.67-1.48,2h3Z"/><path d="M271.25,35.58a2.5,2.5,0,0,1-1.42.43,1.68,1.68,0,0,1-1.25-.46,1.86,1.86,0,0,1-.45-1.34V30.39H267v-.85h1.11V28.11l1.1-.13v1.56h1.5l-.12.85h-1.38v3.77a1.17,1.17,0,0,0,.17.71.71.71,0,0,0,.59.23,1.86,1.86,0,0,0,.84-.26Z"/><path d="M277,33.08h-4a2.45,2.45,0,0,0,.52,1.54,1.58,1.58,0,0,0,1.18.49,2.84,2.84,0,0,0,.84-.13,3.44,3.44,0,0,0,.8-.42l.48.66a3.51,3.51,0,0,1-2.2.79,2.55,2.55,0,0,1-2.06-.87,3.52,3.52,0,0,1-.74-2.37,4.55,4.55,0,0,1,.32-1.75,2.68,2.68,0,0,1,.91-1.19,2.3,2.3,0,0,1,1.4-.43,2.34,2.34,0,0,1,1.93.82,3.56,3.56,0,0,1,.67,2.3C277,32.7,277,32.89,277,33.08Zm-1.07-.89a2.34,2.34,0,0,0-.37-1.43,1.34,1.34,0,0,0-1.12-.49c-.9,0-1.39.67-1.47,2h3Z"/><path d="M282.08,29.56a3,3,0,0,1,.9.52l-.53.7a2.83,2.83,0,0,0-.65-.36,2.23,2.23,0,0,0-.7-.11,1.39,1.39,0,0,0-1.2.61,3.21,3.21,0,0,0-.42,1.81,3,3,0,0,0,.42,1.77,1.4,1.4,0,0,0,1.2.57,2.11,2.11,0,0,0,.68-.11,3.7,3.7,0,0,0,.7-.37l.5.72a3,3,0,0,1-1.93.7,2.5,2.5,0,0,1-2-.87,3.55,3.55,0,0,1-.74-2.38,4.24,4.24,0,0,1,.34-1.77,2.7,2.7,0,0,1,.95-1.17,2.54,2.54,0,0,1,1.47-.42A3.05,3.05,0,0,1,282.08,29.56Z"/><path d="M288.81,29.91a2,2,0,0,1,.48,1.42v4.53h-1.1V31.48a1.37,1.37,0,0,0-.26-.94,1,1,0,0,0-.75-.28,1.4,1.4,0,0,0-.87.29,2.89,2.89,0,0,0-.72.81v4.5h-1.11V27l1.11-.12v3.53a2.23,2.23,0,0,1,1.87-1A1.79,1.79,0,0,1,288.81,29.91Z"/><path d="M297.56,28a2.21,2.21,0,0,1,.84.79,2.13,2.13,0,0,1,.3,1.12,3.17,3.17,0,0,1-.33,1.41,7.25,7.25,0,0,1-1,1.45c-.46.52-1.15,1.24-2.08,2.17h3.61l-.13.92H294V35c1.07-1.11,1.83-1.93,2.28-2.44a6.92,6.92,0,0,0,1-1.35,2.79,2.79,0,0,0,.29-1.24,1.23,1.23,0,0,0-1.32-1.33,1.79,1.79,0,0,0-.86.2,3.26,3.26,0,0,0-.8.67l-.72-.57A3.32,3.32,0,0,1,295,28a2.93,2.93,0,0,1,1.34-.3A2.73,2.73,0,0,1,297.56,28Z"/><path d="M304.85,28.78a5.76,5.76,0,0,1,.68,3.08,5.79,5.79,0,0,1-.68,3.08,2.42,2.42,0,0,1-4,0,5.79,5.79,0,0,1-.68-3.08,5.76,5.76,0,0,1,.68-3.08,2.44,2.44,0,0,1,4,0Zm-3.17.58a6.08,6.08,0,0,0-.37,2.5,6.15,6.15,0,0,0,.37,2.5,1.24,1.24,0,0,0,1.16.77,1.23,1.23,0,0,0,1.15-.77,5.92,5.92,0,0,0,.39-2.5,5.84,5.84,0,0,0-.39-2.49,1.22,1.22,0,0,0-1.15-.78A1.24,1.24,0,0,0,301.68,29.36Z"/><path d="M311.55,28.78a5.76,5.76,0,0,1,.68,3.08,5.79,5.79,0,0,1-.68,3.08,2.42,2.42,0,0,1-4,0,5.79,5.79,0,0,1-.68-3.08,5.76,5.76,0,0,1,.68-3.08,2.44,2.44,0,0,1,4,0Zm-3.17.58a6.05,6.05,0,0,0-.38,2.5,6.12,6.12,0,0,0,.38,2.5,1.25,1.25,0,0,0,2.31,0,6,6,0,0,0,.38-2.5,5.87,5.87,0,0,0-.38-2.49,1.25,1.25,0,0,0-2.31,0Z"/><path d="M317.61,27.84v.82l-3,7.32-1-.33,2.89-6.91H313v-.9Z"/><path d="M318.36,32V31.1h5.47V32Z"/><path d="M327.48,28a2.17,2.17,0,0,1,.85.79,2.13,2.13,0,0,1,.3,1.12,3.17,3.17,0,0,1-.33,1.41,7.25,7.25,0,0,1-1,1.45c-.46.52-1.15,1.24-2.08,2.17h3.61l-.13.92H324V35c1.07-1.11,1.83-1.93,2.28-2.44a6.92,6.92,0,0,0,1-1.35,2.79,2.79,0,0,0,.29-1.24,1.23,1.23,0,0,0-1.32-1.33,1.86,1.86,0,0,0-.87.2,3.43,3.43,0,0,0-.79.67l-.72-.57a3.29,3.29,0,0,1,1.09-.91,3,3,0,0,1,1.35-.3A2.66,2.66,0,0,1,327.48,28Z"/><path d="M334.78,28.78a5.76,5.76,0,0,1,.68,3.08,5.79,5.79,0,0,1-.68,3.08,2.42,2.42,0,0,1-4,0,5.79,5.79,0,0,1-.68-3.08,5.76,5.76,0,0,1,.68-3.08,2.44,2.44,0,0,1,4,0Zm-3.17.58a6.05,6.05,0,0,0-.38,2.5,6.12,6.12,0,0,0,.38,2.5,1.25,1.25,0,0,0,2.31,0,5.92,5.92,0,0,0,.39-2.5,5.84,5.84,0,0,0-.39-2.49,1.25,1.25,0,0,0-2.31,0Z"/><path d="M339.69,27.84v8h-1.1V29l-1.87,1.14-.48-.78,2.48-1.53Z"/><path d="M346,27.84v.82L343,36l-1-.33,2.9-6.91h-3.56v-.9Z"/><path class="cls-7" d="M11.42,302.55a7.32,7.32,0,0,1,0,5.71,1.85,1.85,0,0,1-1.68.95,1.85,1.85,0,0,1-1.69-.95,5.73,5.73,0,0,1-.57-2.86q0-3.81,2.26-3.81A1.84,1.84,0,0,1,11.42,302.55Zm-2.62.51a9.28,9.28,0,0,0,0,4.68,1,1,0,0,0,.94.69,1,1,0,0,0,.93-.69,6.44,6.44,0,0,0,.3-2.34,6.55,6.55,0,0,0-.29-2.35,1,1,0,0,0-1.88,0Z"/><path class="cls-7" d="M16.33,308.89A1.25,1.25,0,0,1,16,308v-7.06l1-.11V308c0,.29.12.43.35.43a.77.77,0,0,0,.32-.07l.22.7a1.58,1.58,0,0,1-.73.18A1.09,1.09,0,0,1,16.33,308.89Z"/><path class="cls-7" d="M23,306.52H19.65a2.48,2.48,0,0,0,.41,1.45,1.2,1.2,0,0,0,1,.45,2,2,0,0,0,.71-.12,2.2,2.2,0,0,0,.65-.4l.44.59a2.71,2.71,0,0,1-1.84.72,2.13,2.13,0,0,1-1.76-.78,3.52,3.52,0,0,1-.62-2.21,3.83,3.83,0,0,1,.59-2.25,1.93,1.93,0,0,1,1.65-.83,1.9,1.9,0,0,1,1.61.74A3.5,3.5,0,0,1,23,306C23,306.15,23,306.33,23,306.52Zm-.94-.82c0-1.21-.4-1.81-1.2-1.81a1,1,0,0,0-.86.46,2.75,2.75,0,0,0-.37,1.47h2.43Z"/><path class="cls-7" d="M27.15,308.82a2,2,0,0,1-1.22.39,1.37,1.37,0,0,1-1.08-.41,1.62,1.62,0,0,1-.38-1.14V304h-.82v-.75h.82V302l1-.12v1.45h1.28l-.11.75H25.46v3.62q0,.75.63.75a.93.93,0,0,0,.34-.06,1.82,1.82,0,0,0,.36-.16Z"/><path class="cls-7" d="M5.41,249.42a1.69,1.69,0,0,1,.7.7,2.09,2.09,0,0,1,.24,1,3,3,0,0,1-.26,1.27,6.13,6.13,0,0,1-.83,1.34c-.38.49-1,1.18-1.76,2.09h3l-.12.81h-4v-.77c.85-1,1.47-1.73,1.86-2.23a6.1,6.1,0,0,0,.82-1.31,3,3,0,0,0,.23-1.15,1.31,1.31,0,0,0-.29-.9,1,1,0,0,0-.79-.32,1.29,1.29,0,0,0-.72.19,2.44,2.44,0,0,0-.64.59l-.62-.47a2.45,2.45,0,0,1,2.06-1.11A2.16,2.16,0,0,1,5.41,249.42Z"/><path class="cls-7" d="M11.5,250.12a7.44,7.44,0,0,1,0,5.71,1.83,1.83,0,0,1-1.68.95,1.88,1.88,0,0,1-1.7-.95A5.73,5.73,0,0,1,7.55,253q0-3.81,2.27-3.81A1.84,1.84,0,0,1,11.5,250.12Zm-2.62.51a9.28,9.28,0,0,0,0,4.68,1,1,0,0,0,1.87,0,9.32,9.32,0,0,0,0-4.69,1,1,0,0,0-1.87,0Z"/><path class="cls-7" d="M16.41,256.46a1.21,1.21,0,0,1-.31-.89v-7.06l1-.11v7.14c0,.29.12.43.35.43a.81.81,0,0,0,.32-.07l.22.7a1.59,1.59,0,0,1-.74.18A1.06,1.06,0,0,1,16.41,256.46Z"/><path class="cls-7" d="M23.09,254.09H19.73a2.47,2.47,0,0,0,.41,1.46,1.22,1.22,0,0,0,1,.44,2,2,0,0,0,.71-.12,2.34,2.34,0,0,0,.65-.4l.44.59a2.71,2.71,0,0,1-1.85.72,2.11,2.11,0,0,1-1.75-.78,3.46,3.46,0,0,1-.62-2.21,3.75,3.75,0,0,1,.59-2.25,2.09,2.09,0,0,1,3.26-.09,3.5,3.5,0,0,1,.56,2.12A5.11,5.11,0,0,1,23.09,254.09Zm-.93-.82c0-1.21-.4-1.81-1.2-1.81a1,1,0,0,0-.87.45,2.93,2.93,0,0,0-.36,1.48h2.43Z"/><path class="cls-7" d="M27.23,256.39a2.06,2.06,0,0,1-1.22.39,1.4,1.4,0,0,1-1.08-.4,1.61,1.61,0,0,1-.38-1.15V251.6h-.83v-.75h.83v-1.33l1-.12v1.45h1.27l-.11.75H25.54v3.62c0,.5.21.75.62.75a1,1,0,0,0,.35-.06,1.82,1.82,0,0,0,.36-.16Z"/><path class="cls-7" d="M6.67,201.85v.79H5.84v1.82h-1v-1.82H2v-.71l2-5,.83.32L3,201.85H4.9l.1-2h.84v2Z"/><path class="cls-7" d="M11.51,197.93a7.34,7.34,0,0,1,0,5.72,1.85,1.85,0,0,1-1.68.95,1.84,1.84,0,0,1-1.69-1,5.59,5.59,0,0,1-.58-2.86q0-3.81,2.27-3.81A1.84,1.84,0,0,1,11.51,197.93Zm-2.62.51a6.51,6.51,0,0,0-.3,2.34,6.44,6.44,0,0,0,.3,2.34,1,1,0,0,0,1.87,0,9.28,9.28,0,0,0,0-4.68,1,1,0,0,0-.93-.69A1,1,0,0,0,8.89,198.44Z"/><path class="cls-7" d="M16.42,204.28a1.21,1.21,0,0,1-.31-.89v-7.06l1-.11v7.14c0,.28.12.42.35.42a1,1,0,0,0,.32-.06l.22.69a1.48,1.48,0,0,1-.74.19A1.1,1.1,0,0,1,16.42,204.28Z"/><path class="cls-7" d="M23.11,201.9H19.74a2.52,2.52,0,0,0,.41,1.46,1.2,1.2,0,0,0,1,.45,2,2,0,0,0,.71-.12,2.94,2.94,0,0,0,.65-.4l.44.58a2.68,2.68,0,0,1-1.85.73,2.09,2.09,0,0,1-1.75-.79,3.43,3.43,0,0,1-.62-2.2,3.83,3.83,0,0,1,.59-2.25,1.91,1.91,0,0,1,1.65-.83,1.89,1.89,0,0,1,1.61.74,3.48,3.48,0,0,1,.56,2.12C23.13,201.54,23.12,201.71,23.11,201.9Zm-.94-.81c0-1.21-.4-1.82-1.2-1.82a1,1,0,0,0-.87.46,2.93,2.93,0,0,0-.36,1.48h2.43Z"/><path class="cls-7" d="M27.24,204.2a2,2,0,0,1-1.22.4,1.4,1.4,0,0,1-1.08-.41,1.57,1.57,0,0,1-.38-1.14v-3.63h-.83v-.75h.83v-1.33l1-.12v1.45h1.27l-.11.75H25.55V203c0,.5.21.74.62.74a1,1,0,0,0,.35-.05,1.91,1.91,0,0,0,.36-.17Z"/><path class="cls-7" d="M5.63,149.15a1.79,1.79,0,0,1,.66.79,3.1,3.1,0,0,1,.24,1.29,3.41,3.41,0,0,1-.27,1.41,2,2,0,0,1-1.86,1.23,1.88,1.88,0,0,1-1.74-.93,5.06,5.06,0,0,1-.55-2.59,6.85,6.85,0,0,1,.31-2.19,3.11,3.11,0,0,1,.9-1.42,2.08,2.08,0,0,1,1.38-.49,2.21,2.21,0,0,1,1.37.45l-.39.62a1.69,1.69,0,0,0-.95-.3,1.26,1.26,0,0,0-1.14.74,4.58,4.58,0,0,0-.48,2.07,1.86,1.86,0,0,1,1.6-.94A1.62,1.62,0,0,1,5.63,149.15Zm-.38,3.47a2.71,2.71,0,0,0,.29-1.37A2.11,2.11,0,0,0,5.26,150a.9.9,0,0,0-.77-.39,1.19,1.19,0,0,0-.76.28,2.39,2.39,0,0,0-.62.76,4.38,4.38,0,0,0,.32,1.85,1,1,0,0,0,.95.58A1,1,0,0,0,5.25,152.62Z"/><path class="cls-7" d="M11.51,147.2a7.46,7.46,0,0,1,0,5.72,1.85,1.85,0,0,1-1.68,1,1.84,1.84,0,0,1-1.69-1,5.59,5.59,0,0,1-.58-2.86c0-2.54.76-3.8,2.27-3.8A1.83,1.83,0,0,1,11.51,147.2Zm-2.62.51a6.51,6.51,0,0,0-.3,2.34,6.44,6.44,0,0,0,.3,2.34,1,1,0,0,0,1.87,0,9.28,9.28,0,0,0,0-4.68,1,1,0,0,0-.93-.69A1,1,0,0,0,8.89,147.71Z"/><path class="cls-7" d="M16.42,153.55a1.21,1.21,0,0,1-.31-.89V145.6l1-.11v7.14c0,.28.12.42.35.42a1,1,0,0,0,.32-.06l.22.69a1.48,1.48,0,0,1-.74.19A1.1,1.1,0,0,1,16.42,153.55Z"/><path class="cls-7" d="M23.11,151.17H19.74a2.52,2.52,0,0,0,.41,1.46,1.2,1.2,0,0,0,1,.45,2,2,0,0,0,.71-.12,2.6,2.6,0,0,0,.65-.4l.44.58a2.68,2.68,0,0,1-1.85.73,2.09,2.09,0,0,1-1.75-.79,3.43,3.43,0,0,1-.62-2.2,3.83,3.83,0,0,1,.59-2.25A1.91,1.91,0,0,1,21,147.8a1.89,1.89,0,0,1,1.61.74,3.48,3.48,0,0,1,.56,2.12C23.13,150.81,23.12,151,23.11,151.17Zm-.94-.81c0-1.21-.4-1.82-1.2-1.82a1,1,0,0,0-.87.46,2.9,2.9,0,0,0-.36,1.48h2.43Z"/><path class="cls-7" d="M27.24,153.47a2,2,0,0,1-1.22.4,1.4,1.4,0,0,1-1.08-.41,1.57,1.57,0,0,1-.38-1.14v-3.63h-.83v-.75h.83v-1.33l1-.12v1.45h1.27l-.11.75H25.55v3.62c0,.49.21.74.62.74a1,1,0,0,0,.35-.05,1.91,1.91,0,0,0,.36-.17Z"/><path class="cls-7" d="M6.16,98.38a1.84,1.84,0,0,1,.35,1.16,2.08,2.08,0,0,1-.28,1.09,2,2,0,0,1-.82.74,2.86,2.86,0,0,1-1.24.26A2.57,2.57,0,0,1,3,101.37a1.85,1.85,0,0,1-.81-.73,2.1,2.1,0,0,1,1.12-3,2.37,2.37,0,0,1-.86-.73,1.73,1.73,0,0,1-.26-1,1.85,1.85,0,0,1,.27-1,1.73,1.73,0,0,1,.74-.65,2.38,2.38,0,0,1,1-.22,2.24,2.24,0,0,1,1.47.48,1.68,1.68,0,0,1,.59,1.37,1.63,1.63,0,0,1-.29,1,2.41,2.41,0,0,1-.91.74A2.68,2.68,0,0,1,6.16,98.38Zm-1,2.15a1.57,1.57,0,0,0,.06-1.9,3,3,0,0,0-1-.63l-.31-.12a1.9,1.9,0,0,0-.77.67,1.82,1.82,0,0,0-.25,1,1.31,1.31,0,0,0,.35,1,1.38,1.38,0,0,0,1,.33A1.37,1.37,0,0,0,5.17,100.53ZM3.4,95a1.39,1.39,0,0,0,0,1.66,2.43,2.43,0,0,0,.84.52l.26.11a2.31,2.31,0,0,0,.65-.63,1.52,1.52,0,0,0,.19-.79A1.18,1.18,0,0,0,5,95a1.06,1.06,0,0,0-.81-.3A1.09,1.09,0,0,0,3.4,95Z"/><path class="cls-7" d="M11.5,95a5.62,5.62,0,0,1,.57,2.84,5.69,5.69,0,0,1-.57,2.87,1.86,1.86,0,0,1-1.69.95,1.85,1.85,0,0,1-1.69-1,5.68,5.68,0,0,1-.57-2.86q0-3.8,2.26-3.8A1.85,1.85,0,0,1,11.5,95Zm-2.63.51a6.41,6.41,0,0,0-.3,2.33,6.5,6.5,0,0,0,.3,2.35,1,1,0,0,0,.94.69,1,1,0,0,0,.93-.69,9.17,9.17,0,0,0,0-4.69,1,1,0,0,0-1.88,0Z"/><path class="cls-7" d="M16.4,101.31a1.25,1.25,0,0,1-.31-.89V93.36l1-.11v7.14c0,.28.12.43.36.43a.84.84,0,0,0,.32-.07l.22.69a1.51,1.51,0,0,1-.74.19A1.1,1.1,0,0,1,16.4,101.31Z"/><path class="cls-7" d="M23.09,98.94H19.72a2.48,2.48,0,0,0,.41,1.45,1.2,1.2,0,0,0,1,.45,2,2,0,0,0,.71-.12,2.38,2.38,0,0,0,.66-.4l.43.59a2.69,2.69,0,0,1-1.84.72,2.13,2.13,0,0,1-1.76-.78,3.52,3.52,0,0,1-.62-2.21,3.75,3.75,0,0,1,.6-2.25,2.08,2.08,0,0,1,3.25-.09,3.5,3.5,0,0,1,.56,2.12C23.11,98.57,23.1,98.75,23.09,98.94Zm-.93-.82c0-1.21-.4-1.81-1.2-1.81a1,1,0,0,0-.87.45,2.82,2.82,0,0,0-.37,1.48h2.44Z"/><path class="cls-7" d="M27.23,101.24a2.09,2.09,0,0,1-1.23.39,1.38,1.38,0,0,1-1.08-.41,1.62,1.62,0,0,1-.38-1.14V96.45h-.82V95.7h.82V94.37l1-.12V95.7h1.28l-.11.75H25.53v3.62q0,.75.63.75a1,1,0,0,0,.35-.06,2.05,2.05,0,0,0,.35-.16Z"/><polyline class="cls-8" points="36.77 138.22 72.56 133.28 108.27 135.03 143.97 143.88 179.76 146.25 215.47 143.88 251.26 138.73 286.97 127.51 322.68 127.82 358.47 128.54 394.18 130.91"/><path class="cls-9" d="M38.06,138.11a3,3,0,1,0-3,3,3,3,0,0,0,3-3Z"/><path class="cls-9" d="M73.77,133.17a3,3,0,1,0-3,3,3,3,0,0,0,3-3Z"/><path class="cls-9" d="M109.56,135a3,3,0,1,0-3,3,3,3,0,0,0,3-3Z"/><path class="cls-9" d="M145.27,143.88a3,3,0,1,0-3,3,3,3,0,0,0,3-3Z"/><path class="cls-9" d="M181,146.25a3,3,0,1,0-3,3,3,3,0,0,0,3-3Z"/><path class="cls-9" d="M216.77,143.88a3,3,0,1,0-3,3,3,3,0,0,0,3-3Z"/><path class="cls-9" d="M252.47,138.63a3,3,0,1,0-3,3,3,3,0,0,0,3-3Z"/><path class="cls-9" d="M288.27,127.51a3,3,0,1,0-3,3,3,3,0,0,0,3-3Z"/><path class="cls-9" d="M324,127.72a3,3,0,1,0-3,3,3,3,0,0,0,3-3Z"/><path class="cls-9" d="M359.68,128.54a3,3,0,1,0-3,3,3,3,0,0,0,3-3Z"/><path class="cls-9" d="M397.28,131a3,3,0,1,0-3,3,3,3,0,0,0,3-3Z"/><polyline class="cls-10" points="36.77 114.24 72.56 114.03 108.27 113.52 143.97 111.35 179.76 110.33 215.47 110.12 251.26 109.09 286.97 108.78 322.68 109.09 358.47 107.55 394.18 108.06"/><path class="cls-11" d="M38.06,114.24a3,3,0,1,0-3,3,3,3,0,0,0,3-3Z"/><path class="cls-11" d="M73.77,113.93a3,3,0,1,0-3,3,3,3,0,0,0,3-3Z"/><path class="cls-11" d="M109.56,113.41a3,3,0,1,0-3,3,3,3,0,0,0,3-3Z"/><path class="cls-11" d="M145.27,111.35a3,3,0,1,0-3,3,3,3,0,0,0,3-3Z"/><path class="cls-11" d="M181,110.32a3,3,0,1,0-3,3,3,3,0,0,0,3-3Z"/><path class="cls-11" d="M216.77,110a3,3,0,1,0-3,3,3,3,0,0,0,3-3Z"/><path class="cls-11" d="M252.47,109a3,3,0,1,0-3,3,3,3,0,0,0,3-3Z"/><path class="cls-11" d="M288.27,108.78a3,3,0,1,0-3,3,3,3,0,0,0,3-3Z"/><path class="cls-11" d="M324,109a3,3,0,1,0-3,3,3,3,0,0,0,3-3Z"/><path class="cls-11" d="M359.68,107.44a3,3,0,1,0-3,3,3,3,0,0,0,3-3Z"/><path class="cls-11" d="M397.28,108a3,3,0,1,0-3,3,3,3,0,0,0,3-3Z"/><path class="cls-12" d="M38.06,97.05a3,3,0,1,0-3,3,3,3,0,0,0,3-3Z"/><path class="cls-12" d="M73.77,96.53a3,3,0,1,0-3,3,3,3,0,0,0,3-3Z"/><path class="cls-12" d="M109.56,96a3,3,0,1,0-3,3,3,3,0,0,0,3-3Z"/><path class="cls-12" d="M145.27,97.25a3,3,0,1,0-3,3,3,3,0,0,0,3-3Z"/><path class="cls-12" d="M181,96a3,3,0,1,0-3,3,3,3,0,0,0,3-3Z"/><path class="cls-12" d="M216.77,96a3,3,0,1,0-3,3,3,3,0,0,0,3-3Z"/><path class="cls-12" d="M252.47,104.56a3,3,0,1,0-3,3,3,3,0,0,0,3-3Z"/><path class="cls-12" d="M288.27,103.53a3,3,0,1,0-3,3,3,3,0,0,0,3-3Z"/><path class="cls-12" d="M324,105.38a3,3,0,1,0-3,3,3,3,0,0,0,3-3Z"/><path class="cls-12" d="M359.68,104.87a3,3,0,1,0-3,3,3,3,0,0,0,3-3Z"/><path class="cls-12" d="M397.28,102.88a3,3,0,1,0-3,3,3,3,0,0,0,3-3Z"/><path class="cls-7" d="M27.65,316.19a1.71,1.71,0,0,1,.7.71,2.05,2.05,0,0,1,.24,1,3.2,3.2,0,0,1-.25,1.27,6.38,6.38,0,0,1-.84,1.34c-.38.49-1,1.19-1.75,2.09h3l-.12.81h-4v-.77c.85-1,1.47-1.72,1.86-2.23a6.33,6.33,0,0,0,.82-1.3,3,3,0,0,0,.23-1.15,1.34,1.34,0,0,0-.29-.91,1,1,0,0,0-.79-.31,1.37,1.37,0,0,0-.72.18,2.69,2.69,0,0,0-.64.6l-.62-.48a2.45,2.45,0,0,1,2.06-1.11A2.16,2.16,0,0,1,27.65,316.19Z"/><path class="cls-7" d="M33.74,316.89a7.44,7.44,0,0,1,0,5.71,1.84,1.84,0,0,1-1.68,1,1.87,1.87,0,0,1-1.7-1,5.7,5.7,0,0,1-.57-2.86q0-3.81,2.27-3.81A1.84,1.84,0,0,1,33.74,316.89Zm-2.62.51a6.51,6.51,0,0,0-.3,2.34,6.44,6.44,0,0,0,.3,2.34,1,1,0,0,0,1.87,0,9.28,9.28,0,0,0,0-4.68,1,1,0,0,0-.93-.7A1,1,0,0,0,31.12,317.4Z"/><path class="cls-7" d="M39.47,316.89a7.32,7.32,0,0,1,0,5.71,2,2,0,0,1-3.37,0,5.59,5.59,0,0,1-.58-2.86q0-3.81,2.27-3.81A1.84,1.84,0,0,1,39.47,316.89Zm-2.62.51a6.51,6.51,0,0,0-.3,2.34,6.44,6.44,0,0,0,.3,2.34,1,1,0,0,0,1.87,0,9.28,9.28,0,0,0,0-4.68,1,1,0,0,0-.93-.7A1,1,0,0,0,36.85,317.4Z"/><path class="cls-7" d="M44.82,316.05v.73l-2.52,6.74-.89-.28,2.42-6.39H40.88v-.8Z"/><path class="cls-7" d="M63.08,316.19a1.75,1.75,0,0,1,.69.71,2.06,2.06,0,0,1,.25,1,3.21,3.21,0,0,1-.26,1.27,6.29,6.29,0,0,1-.83,1.34c-.38.49-1,1.19-1.76,2.09h3l-.12.81h-4v-.77c.85-1,1.47-1.72,1.86-2.23a5.92,5.92,0,0,0,.82-1.3A2.85,2.85,0,0,0,63,318a1.29,1.29,0,0,0-.29-.91,1,1,0,0,0-.78-.31,1.41,1.41,0,0,0-.73.18,2.69,2.69,0,0,0-.64.6l-.62-.48A2.46,2.46,0,0,1,62,315.93,2.22,2.22,0,0,1,63.08,316.19Z"/><path class="cls-7" d="M69.16,316.89a7.32,7.32,0,0,1,0,5.71,2,2,0,0,1-3.37,0,5.69,5.69,0,0,1-.58-2.86q0-3.81,2.27-3.81A1.84,1.84,0,0,1,69.16,316.89Zm-2.62.51a6.51,6.51,0,0,0-.3,2.34,6.44,6.44,0,0,0,.3,2.34,1,1,0,0,0,1.87,0,6.44,6.44,0,0,0,.3-2.34,6.73,6.73,0,0,0-.29-2.34,1,1,0,0,0-.94-.7A1,1,0,0,0,66.54,317.4Z"/><path class="cls-7" d="M74.89,316.89a7.32,7.32,0,0,1,0,5.71,2,2,0,0,1-3.37,0,5.7,5.7,0,0,1-.57-2.86q0-3.81,2.26-3.81A1.84,1.84,0,0,1,74.89,316.89Zm-2.62.51a6.51,6.51,0,0,0-.3,2.34,6.44,6.44,0,0,0,.3,2.34,1,1,0,0,0,.94.7,1,1,0,0,0,.93-.7,6.44,6.44,0,0,0,.3-2.34,6.73,6.73,0,0,0-.29-2.34,1,1,0,0,0-.94-.7A1,1,0,0,0,72.27,317.4Z"/><path class="cls-7" d="M80.79,320.3a1.93,1.93,0,0,1,.35,1.17,2,2,0,0,1-.28,1.08,1.9,1.9,0,0,1-.82.74,2.73,2.73,0,0,1-1.24.27,2.77,2.77,0,0,1-1.22-.26,2,2,0,0,1-.8-.73,2.07,2.07,0,0,1-.28-1.08,2,2,0,0,1,1.4-2,2.12,2.12,0,0,1-.86-.73,1.7,1.7,0,0,1-.26-1,1.91,1.91,0,0,1,.27-1,1.8,1.8,0,0,1,.74-.65,2.5,2.5,0,0,1,1-.22,2.25,2.25,0,0,1,1.47.49,1.66,1.66,0,0,1,.59,1.36,1.64,1.64,0,0,1-.29,1,2.51,2.51,0,0,1-.91.74A2.67,2.67,0,0,1,80.79,320.3Zm-1,2.15a1.26,1.26,0,0,0,.35-1,1.34,1.34,0,0,0-.29-.91,2.74,2.74,0,0,0-1-.63l-.31-.13a1.92,1.92,0,0,0-.77.68,1.77,1.77,0,0,0-.25,1,1.31,1.31,0,0,0,.35,1,1.38,1.38,0,0,0,1,.33A1.33,1.33,0,0,0,79.8,322.45ZM78,317a1.18,1.18,0,0,0-.3.89,1.08,1.08,0,0,0,.25.77,2.13,2.13,0,0,0,.84.52l.25.11a2,2,0,0,0,.66-.63,1.48,1.48,0,0,0,.19-.78,1.21,1.21,0,0,0-.28-.88A1.26,1.26,0,0,0,78,317Z"/><path class="cls-7" d="M99.1,316.19a1.77,1.77,0,0,1,.7.71,2.05,2.05,0,0,1,.24,1,3.21,3.21,0,0,1-.26,1.27,6.29,6.29,0,0,1-.83,1.34c-.38.49-1,1.19-1.76,2.09h3l-.12.81h-4v-.77c.85-1,1.47-1.72,1.87-2.23a6.8,6.8,0,0,0,.82-1.3A3,3,0,0,0,99,318a1.3,1.3,0,0,0-.3-.91,1,1,0,0,0-.78-.31,1.44,1.44,0,0,0-.73.18,2.89,2.89,0,0,0-.64.6L96,317A2.43,2.43,0,0,1,98,315.93,2.21,2.21,0,0,1,99.1,316.19Z"/><path class="cls-7" d="M105.19,316.89a7.44,7.44,0,0,1,0,5.71,2,2,0,0,1-3.38,0,5.7,5.7,0,0,1-.57-2.86q0-3.81,2.26-3.81A1.85,1.85,0,0,1,105.19,316.89Zm-2.63.51a6.51,6.51,0,0,0-.3,2.34,6.44,6.44,0,0,0,.3,2.34,1,1,0,0,0,.94.7,1,1,0,0,0,.93-.7,9.13,9.13,0,0,0,0-4.68,1,1,0,0,0-.94-.7A1,1,0,0,0,102.56,317.4Z"/><path class="cls-7" d="M110.92,316.89a7.44,7.44,0,0,1,0,5.71,1.84,1.84,0,0,1-1.68,1,1.86,1.86,0,0,1-1.7-1,5.7,5.7,0,0,1-.57-2.86c0-2.54.75-3.81,2.27-3.81A1.84,1.84,0,0,1,110.92,316.89Zm-2.62.51a6.25,6.25,0,0,0-.31,2.34,6.18,6.18,0,0,0,.31,2.34,1,1,0,0,0,.94.7,1,1,0,0,0,.93-.7,9.28,9.28,0,0,0,0-4.68,1,1,0,0,0-.93-.7A1,1,0,0,0,108.3,317.4Z"/><path class="cls-7" d="M116.37,316.69a3.6,3.6,0,0,1,.55,2.15,6.25,6.25,0,0,1-.39,2.39,3.49,3.49,0,0,1-1.18,1.49,7.29,7.29,0,0,1-2.09.94l-.22-.73a4.8,4.8,0,0,0,2-1.12,3,3,0,0,0,.81-1.93,2,2,0,0,1-.65.62,1.68,1.68,0,0,1-.86.23,1.65,1.65,0,0,1-.93-.29,1.92,1.92,0,0,1-.68-.82,3,3,0,0,1-.25-1.24,2.87,2.87,0,0,1,.29-1.33,2,2,0,0,1,.78-.83,2.22,2.22,0,0,1,1.12-.29A1.94,1.94,0,0,1,116.37,316.69Zm-.46,2.36a4,4,0,0,0-.27-1.81.94.94,0,0,0-.92-.55,1,1,0,0,0-.89.43,2.1,2.1,0,0,0-.32,1.27,2,2,0,0,0,.3,1.18.94.94,0,0,0,.82.41A1.53,1.53,0,0,0,115.91,319.05Z"/><path class="cls-7" d="M135.57,316.19a1.71,1.71,0,0,1,.7.71,2.05,2.05,0,0,1,.24,1,3,3,0,0,1-.26,1.27,6.29,6.29,0,0,1-.83,1.34c-.38.49-1,1.19-1.76,2.09h3l-.12.81h-4v-.77c.85-1,1.47-1.72,1.86-2.23a6.8,6.8,0,0,0,.82-1.3,3,3,0,0,0,.23-1.15,1.34,1.34,0,0,0-.29-.91,1,1,0,0,0-.79-.31,1.37,1.37,0,0,0-.72.18,2.69,2.69,0,0,0-.64.6l-.62-.48a2.45,2.45,0,0,1,2.06-1.11A2.16,2.16,0,0,1,135.57,316.19Z"/><path class="cls-7" d="M141.66,316.89a7.44,7.44,0,0,1,0,5.71,1.84,1.84,0,0,1-1.68,1,1.87,1.87,0,0,1-1.7-1,5.7,5.7,0,0,1-.57-2.86q0-3.81,2.27-3.81A1.84,1.84,0,0,1,141.66,316.89Zm-2.62.51a6.46,6.46,0,0,0-.31,2.34,6.39,6.39,0,0,0,.31,2.34,1,1,0,0,0,1.87,0,9.28,9.28,0,0,0,0-4.68,1,1,0,0,0-.93-.7A1,1,0,0,0,139,317.4Z"/><path class="cls-7" d="M146.07,316.05v7.36h-1v-6.32l-1.53,1-.45-.66,2.09-1.41Z"/><path class="cls-7" d="M151.68,316.89a7.44,7.44,0,0,1,0,5.71,1.84,1.84,0,0,1-1.68,1,1.87,1.87,0,0,1-1.7-1,5.7,5.7,0,0,1-.57-2.86q0-3.81,2.27-3.81A1.84,1.84,0,0,1,151.68,316.89Zm-2.62.51a6.51,6.51,0,0,0-.3,2.34,6.44,6.44,0,0,0,.3,2.34,1,1,0,0,0,1.87,0,9.28,9.28,0,0,0,0-4.68,1,1,0,0,0-.93-.7A1,1,0,0,0,149.06,317.4Z"/><path class="cls-7" d="M172.24,316.19a1.77,1.77,0,0,1,.7.71,2.05,2.05,0,0,1,.24,1,3.21,3.21,0,0,1-.26,1.27,6.29,6.29,0,0,1-.83,1.34c-.38.49-1,1.19-1.76,2.09h3l-.12.81h-4v-.77c.85-1,1.47-1.72,1.87-2.23a6.21,6.21,0,0,0,.81-1.3,2.86,2.86,0,0,0,.24-1.15,1.3,1.3,0,0,0-.3-.91,1,1,0,0,0-.78-.31,1.44,1.44,0,0,0-.73.18,2.89,2.89,0,0,0-.64.6l-.61-.48a2.43,2.43,0,0,1,2.06-1.11A2.21,2.21,0,0,1,172.24,316.19Z"/><path class="cls-7" d="M178.33,316.89a7.44,7.44,0,0,1,0,5.71,2,2,0,0,1-3.38,0,5.7,5.7,0,0,1-.57-2.86q0-3.81,2.26-3.81A1.85,1.85,0,0,1,178.33,316.89Zm-2.63.51a6.51,6.51,0,0,0-.3,2.34,6.44,6.44,0,0,0,.3,2.34,1,1,0,0,0,.94.7,1,1,0,0,0,.93-.7,9.13,9.13,0,0,0,0-4.68,1,1,0,0,0-.94-.7A1,1,0,0,0,175.7,317.4Z"/><path class="cls-7" d="M182.74,316.05v7.36h-1v-6.32l-1.53,1-.45-.66,2.09-1.41Z"/><path class="cls-7" d="M187,316.05v7.36h-1v-6.32l-1.53,1-.45-.66,2.09-1.41Z"/><path class="cls-7" d="M207.9,316.19a1.71,1.71,0,0,1,.7.71,2.05,2.05,0,0,1,.24,1,3.2,3.2,0,0,1-.25,1.27,6.38,6.38,0,0,1-.84,1.34c-.38.49-1,1.19-1.75,2.09h3l-.12.81h-4v-.77c.85-1,1.47-1.72,1.86-2.23a6.33,6.33,0,0,0,.82-1.3,3,3,0,0,0,.23-1.15,1.34,1.34,0,0,0-.29-.91,1,1,0,0,0-.79-.31,1.37,1.37,0,0,0-.72.18,2.69,2.69,0,0,0-.64.6l-.62-.48a2.45,2.45,0,0,1,2.06-1.11A2.16,2.16,0,0,1,207.9,316.19Z"/><path class="cls-7" d="M214,316.89a7.44,7.44,0,0,1,0,5.71,1.84,1.84,0,0,1-1.68,1,1.87,1.87,0,0,1-1.7-1,5.7,5.7,0,0,1-.57-2.86q0-3.81,2.27-3.81A1.84,1.84,0,0,1,214,316.89Zm-2.62.51a6.51,6.51,0,0,0-.3,2.34,6.44,6.44,0,0,0,.3,2.34,1,1,0,0,0,1.87,0,9.28,9.28,0,0,0,0-4.68,1,1,0,0,0-.93-.7A1,1,0,0,0,211.37,317.4Z"/><path class="cls-7" d="M218.4,316.05v7.36h-1v-6.32l-1.53,1-.45-.66,2.09-1.41Z"/><path class="cls-7" d="M222.78,316.19a1.75,1.75,0,0,1,.69.71,2.06,2.06,0,0,1,.25,1,3.21,3.21,0,0,1-.26,1.27,6.29,6.29,0,0,1-.83,1.34c-.38.49-1,1.19-1.76,2.09h3l-.12.81h-4v-.77c.85-1,1.47-1.72,1.86-2.23a5.92,5.92,0,0,0,.82-1.3,2.85,2.85,0,0,0,.23-1.15,1.29,1.29,0,0,0-.29-.91,1,1,0,0,0-.78-.31,1.41,1.41,0,0,0-.73.18,2.69,2.69,0,0,0-.64.6l-.62-.48a2.46,2.46,0,0,1,2.06-1.11A2.22,2.22,0,0,1,222.78,316.19Z"/><path class="cls-7" d="M243.79,316.19a1.71,1.71,0,0,1,.7.71,2.05,2.05,0,0,1,.24,1,3.2,3.2,0,0,1-.25,1.27,6.73,6.73,0,0,1-.83,1.34c-.39.49-1,1.19-1.76,2.09h3l-.12.81h-4v-.77c.85-1,1.47-1.72,1.86-2.23a6.33,6.33,0,0,0,.82-1.3,3,3,0,0,0,.23-1.15,1.34,1.34,0,0,0-.29-.91,1,1,0,0,0-.79-.31,1.37,1.37,0,0,0-.72.18,2.69,2.69,0,0,0-.64.6l-.62-.48a2.46,2.46,0,0,1,2.06-1.11A2.16,2.16,0,0,1,243.79,316.19Z"/><path class="cls-7" d="M249.88,316.89a7.44,7.44,0,0,1,0,5.71,1.84,1.84,0,0,1-1.68,1,1.87,1.87,0,0,1-1.7-1,5.7,5.7,0,0,1-.57-2.86q0-3.81,2.27-3.81A1.84,1.84,0,0,1,249.88,316.89Zm-2.62.51a6.51,6.51,0,0,0-.3,2.34,6.44,6.44,0,0,0,.3,2.34,1,1,0,0,0,1.87,0,9.28,9.28,0,0,0,0-4.68,1,1,0,0,0-.93-.7A1,1,0,0,0,247.26,317.4Z"/><path class="cls-7" d="M254.29,316.05v7.36h-1v-6.32l-1.52,1-.45-.66,2.08-1.41Z"/><path class="cls-7" d="M258.66,316.18a1.78,1.78,0,0,1,.69.67,1.85,1.85,0,0,1,.25.93,1.73,1.73,0,0,1-.37,1.14,1.79,1.79,0,0,1-1,.59,1.67,1.67,0,0,1,1.6,1.81,2.29,2.29,0,0,1-.28,1.14,2.05,2.05,0,0,1-.8.8,2.39,2.39,0,0,1-1.21.3,2.58,2.58,0,0,1-1.14-.25,2.83,2.83,0,0,1-.92-.76l.59-.5a2.43,2.43,0,0,0,.68.54,1.54,1.54,0,0,0,.75.17,1.25,1.25,0,0,0,1-.39,1.55,1.55,0,0,0,.35-1.07,1.4,1.4,0,0,0-.35-1.05,1.48,1.48,0,0,0-1-.32h-.47l.13-.74h.3a1.25,1.25,0,0,0,.91-.34,1.28,1.28,0,0,0,.36-1,1.18,1.18,0,0,0-.3-.86,1.15,1.15,0,0,0-.83-.31,1.65,1.65,0,0,0-.71.16,2.3,2.3,0,0,0-.66.48l-.51-.53a2.7,2.7,0,0,1,2-.88A2.21,2.21,0,0,1,258.66,316.18Z"/><path class="cls-7" d="M279.56,316.19a1.84,1.84,0,0,1,.7.71,2.05,2.05,0,0,1,.24,1,3.21,3.21,0,0,1-.26,1.27,6.29,6.29,0,0,1-.83,1.34c-.38.49-1,1.19-1.76,2.09h3l-.12.81h-4v-.77c.85-1,1.47-1.72,1.86-2.23a5.92,5.92,0,0,0,.82-1.3,2.86,2.86,0,0,0,.24-1.15,1.3,1.3,0,0,0-.3-.91,1,1,0,0,0-.78-.31,1.44,1.44,0,0,0-.73.18,2.89,2.89,0,0,0-.64.6l-.61-.48a2.43,2.43,0,0,1,2.05-1.11A2.22,2.22,0,0,1,279.56,316.19Z"/><path class="cls-7" d="M285.65,316.89a7.44,7.44,0,0,1,0,5.71,1.86,1.86,0,0,1-1.69,1,1.84,1.84,0,0,1-1.69-1,5.7,5.7,0,0,1-.57-2.86q0-3.81,2.26-3.81A1.86,1.86,0,0,1,285.65,316.89Zm-2.63.51a6.51,6.51,0,0,0-.3,2.34,6.44,6.44,0,0,0,.3,2.34,1,1,0,0,0,.94.7,1,1,0,0,0,.93-.7,9.43,9.43,0,0,0,0-4.68,1,1,0,0,0-.94-.7A1,1,0,0,0,283,317.4Z"/><path class="cls-7" d="M290.06,316.05v7.36h-1v-6.32l-1.53,1-.45-.66,2.09-1.41Z"/><path class="cls-7" d="M296.15,320.81v.79h-.83v1.81h-.95V321.6h-2.88v-.72l2-5,.83.32-1.79,4.57h1.88l.1-2h.84v2Z"/><path class="cls-7" d="M315.64,316.19a1.71,1.71,0,0,1,.7.71,2.05,2.05,0,0,1,.24,1,3,3,0,0,1-.26,1.27,6.29,6.29,0,0,1-.83,1.34c-.38.49-1,1.19-1.76,2.09h3l-.12.81h-4v-.77c.85-1,1.48-1.72,1.87-2.23a6.8,6.8,0,0,0,.82-1.3,3,3,0,0,0,.23-1.15,1.34,1.34,0,0,0-.29-.91,1,1,0,0,0-.79-.31,1.44,1.44,0,0,0-.73.18,2.87,2.87,0,0,0-.63.6l-.62-.48a2.45,2.45,0,0,1,2.06-1.11A2.16,2.16,0,0,1,315.64,316.19Z"/><path class="cls-7" d="M321.73,316.89a7.44,7.44,0,0,1,0,5.71,1.84,1.84,0,0,1-1.68,1,1.86,1.86,0,0,1-1.7-1,5.7,5.7,0,0,1-.57-2.86q0-3.81,2.27-3.81A1.84,1.84,0,0,1,321.73,316.89Zm-2.62.51a6.25,6.25,0,0,0-.31,2.34,6.18,6.18,0,0,0,.31,2.34,1,1,0,0,0,.94.7,1,1,0,0,0,.93-.7,9.28,9.28,0,0,0,0-4.68,1,1,0,0,0-.93-.7A1,1,0,0,0,319.11,317.4Z"/><path class="cls-7" d="M326.14,316.05v7.36h-1v-6.32l-1.53,1-.45-.66,2.09-1.41Z"/><path class="cls-7" d="M331.42,316.82h-2.57V319a2.09,2.09,0,0,1,1.07-.3,1.7,1.7,0,0,1,1.37.61,2.61,2.61,0,0,1,.52,1.71,2.78,2.78,0,0,1-.3,1.31,2.13,2.13,0,0,1-.82.89,2.35,2.35,0,0,1-1.23.32,2.29,2.29,0,0,1-1.1-.25,3.27,3.27,0,0,1-.91-.71l.58-.53a2.42,2.42,0,0,0,.65.51,1.55,1.55,0,0,0,.76.17,1.19,1.19,0,0,0,1-.44,2,2,0,0,0,.35-1.28c0-1-.39-1.58-1.19-1.58a1.85,1.85,0,0,0-.48.07,3,3,0,0,0-.49.23h-.72v-3.7h3.65Z"/><path class="cls-7" d="M351.38,316.19a1.71,1.71,0,0,1,.7.71,2.05,2.05,0,0,1,.24,1,3,3,0,0,1-.26,1.27,5.91,5.91,0,0,1-.83,1.34c-.38.49-1,1.19-1.76,2.09h3l-.12.81h-4v-.77c.85-1,1.47-1.72,1.86-2.23a6.33,6.33,0,0,0,.82-1.3,3,3,0,0,0,.23-1.15,1.34,1.34,0,0,0-.29-.91,1,1,0,0,0-.79-.31,1.37,1.37,0,0,0-.72.18,2.69,2.69,0,0,0-.64.6l-.62-.48a2.45,2.45,0,0,1,2.06-1.11A2.16,2.16,0,0,1,351.38,316.19Z"/><path class="cls-7" d="M357.47,316.89a7.44,7.44,0,0,1,0,5.71,1.84,1.84,0,0,1-1.68,1,1.87,1.87,0,0,1-1.7-1,5.7,5.7,0,0,1-.57-2.86q0-3.81,2.27-3.81A1.84,1.84,0,0,1,357.47,316.89Zm-2.62.51a6.51,6.51,0,0,0-.3,2.34,6.44,6.44,0,0,0,.3,2.34,1,1,0,0,0,1.87,0,9.28,9.28,0,0,0,0-4.68,1,1,0,0,0-.93-.7A1,1,0,0,0,354.85,317.4Z"/><path class="cls-7" d="M361.88,316.05v7.36h-1v-6.32l-1.53,1-.45-.66,2.09-1.41Z"/><path class="cls-7" d="M367.07,318.84a1.78,1.78,0,0,1,.65.79,3.09,3.09,0,0,1,.25,1.29,3.41,3.41,0,0,1-.27,1.41,2.08,2.08,0,0,1-.76.91,2,2,0,0,1-1.11.32,1.88,1.88,0,0,1-1.73-.93,5.08,5.08,0,0,1-.56-2.59,6.75,6.75,0,0,1,.32-2.19,3.11,3.11,0,0,1,.9-1.42,2.07,2.07,0,0,1,1.38-.5,2.18,2.18,0,0,1,1.36.45l-.38.63a1.76,1.76,0,0,0-1-.31,1.28,1.28,0,0,0-1.14.75,4.59,4.59,0,0,0-.47,2.07,1.86,1.86,0,0,1,1.6-.95A1.65,1.65,0,0,1,367.07,318.84Zm-.39,3.47a2.6,2.6,0,0,0,.3-1.37,2.14,2.14,0,0,0-.28-1.23.91.91,0,0,0-.77-.39,1.17,1.17,0,0,0-.76.28,2.17,2.17,0,0,0-.62.76,4.33,4.33,0,0,0,.32,1.84,1,1,0,0,0,.95.59A.94.94,0,0,0,366.68,322.31Z"/><path class="cls-7" d="M385.83,316.19a1.77,1.77,0,0,1,.7.71,2.05,2.05,0,0,1,.24,1,3.21,3.21,0,0,1-.26,1.27,6.29,6.29,0,0,1-.83,1.34c-.38.49-1,1.19-1.76,2.09h3l-.13.81h-4v-.77c.85-1,1.47-1.72,1.87-2.23a6.8,6.8,0,0,0,.82-1.3,3,3,0,0,0,.23-1.15,1.34,1.34,0,0,0-.29-.91,1,1,0,0,0-.79-.31,1.44,1.44,0,0,0-.73.18,2.87,2.87,0,0,0-.63.6l-.62-.48a2.43,2.43,0,0,1,2.06-1.11A2.16,2.16,0,0,1,385.83,316.19Z"/><path class="cls-7" d="M391.92,316.89a7.44,7.44,0,0,1,0,5.71,1.84,1.84,0,0,1-1.68,1,1.86,1.86,0,0,1-1.7-1,5.7,5.7,0,0,1-.57-2.86c0-2.54.75-3.81,2.27-3.81A1.84,1.84,0,0,1,391.92,316.89Zm-2.62.51a6.25,6.25,0,0,0-.31,2.34,6.18,6.18,0,0,0,.31,2.34,1,1,0,0,0,.94.7,1,1,0,0,0,.93-.7,9.28,9.28,0,0,0,0-4.68,1,1,0,0,0-.93-.7A1,1,0,0,0,389.3,317.4Z"/><path class="cls-7" d="M396.33,316.05v7.36h-1v-6.32l-1.53,1-.45-.66,2.09-1.41Z"/><path class="cls-7" d="M401.55,316.05v.73L399,323.52l-.9-.28,2.42-6.39h-2.94v-.8Z"/><line class="cls-13" x1="286.36" y1="309.79" x2="286.36" y2="311.07"/><line class="cls-13" x1="322.3" y1="309.79" x2="322.3" y2="311.07"/><line class="cls-13" x1="358.24" y1="309.79" x2="358.24" y2="311.07"/><line class="cls-13" x1="394.18" y1="309.79" x2="394.18" y2="311.07"/><line class="cls-13" x1="178.54" y1="309.79" x2="178.54" y2="311.07"/><line class="cls-13" x1="142.6" y1="309.79" x2="142.6" y2="311.07"/><line class="cls-13" x1="70.72" y1="309.79" x2="70.72" y2="311.07"/><line class="cls-13" x1="250.42" y1="309.79" x2="250.42" y2="311.07"/><line class="cls-13" x1="214.48" y1="309.79" x2="214.48" y2="311.07"/><line class="cls-13" x1="106.66" y1="309.79" x2="106.66" y2="311.07"/><line class="cls-13" x1="34.78" y1="309.79" x2="34.78" y2="311.07"/><path class="cls-9" d="M4.73,48.29a3.59,3.59,0,1,0,3.59,3.59,3.59,3.59,0,0,0-3.59-3.59Z"/><path class="cls-9" d="M19,49.8v1l-2.82,3.71H19l-.14,1.1H14.52v-1l2.82-3.71H14.76V49.8Z"/><path class="cls-9" d="M24.51,54.58a.65.65,0,0,0,.34.25l-.3.93a1.84,1.84,0,0,1-.81-.24,1.22,1.22,0,0,1-.48-.6,1.84,1.84,0,0,1-.74.65,2.33,2.33,0,0,1-1,.22,1.88,1.88,0,0,1-1.37-.5,1.72,1.72,0,0,1-.51-1.3,1.66,1.66,0,0,1,.69-1.44,3.25,3.25,0,0,1,2-.5H23v-.33a1,1,0,0,0-.26-.79,1.25,1.25,0,0,0-.83-.23,5.1,5.1,0,0,0-1.54.31l-.33-1a6.07,6.07,0,0,1,2.11-.41c1.49,0,2.24.66,2.24,2v2.44A.94.94,0,0,0,24.51,54.58ZM23,46.6l.57,1.1-2.48,1-.4-.72Zm0,7.45V52.87h-.58c-.91,0-1.37.34-1.37,1a.92.92,0,0,0,.21.65.78.78,0,0,0,.62.23A1.24,1.24,0,0,0,23,54.05Z"/><path class="cls-9" d="M27.52,47.31v8.31H26.11V47.47ZM31,49.8l-1.94,2.56,2.12,3.26H29.58l-2-3.18,1.95-2.64Z"/><path class="cls-9" d="M32.31,55.39a1.5,1.5,0,0,1-.38-1.1V47.47l1.41-.16v6.94c0,.27.11.4.33.4a1.26,1.26,0,0,0,.33,0l.3,1a2.33,2.33,0,0,1-.94.2A1.39,1.39,0,0,1,32.31,55.39Z"/><path class="cls-9" d="M39.64,54.58a.66.66,0,0,0,.33.25l-.3.93a1.76,1.76,0,0,1-.8-.24,1.22,1.22,0,0,1-.48-.6,1.87,1.87,0,0,1-.75.65,2.25,2.25,0,0,1-1,.22,1.9,1.9,0,0,1-1.38-.5,1.76,1.76,0,0,1-.5-1.3,1.66,1.66,0,0,1,.69-1.44,3.23,3.23,0,0,1,2-.5h.72v-.33a1,1,0,0,0-.25-.79,1.27,1.27,0,0,0-.83-.23,5,5,0,0,0-1.54.31l-.33-1a6,6,0,0,1,2.11-.41c1.49,0,2.23.66,2.23,2v2.44A.93.93,0,0,0,39.64,54.58Zm-1.5-.53V52.87h-.58c-.91,0-1.36.34-1.36,1a.92.92,0,0,0,.21.65.76.76,0,0,0,.61.23A1.24,1.24,0,0,0,38.14,54.05Z"/><path class="cls-9" d="M46.13,47.47v8.15H44.89l-.1-.74a2,2,0,0,1-.7.66,1.91,1.91,0,0,1-1,.25A1.88,1.88,0,0,1,41.49,55a3.89,3.89,0,0,1-.57-2.24,4.14,4.14,0,0,1,.28-1.59A2.58,2.58,0,0,1,42,50a2.06,2.06,0,0,1,1.24-.39,2,2,0,0,1,1.46.62V47.31Zm-2,7.07a1.86,1.86,0,0,0,.54-.57V51.31a1.93,1.93,0,0,0-.51-.46,1.08,1.08,0,0,0-.6-.16,1,1,0,0,0-.88.5,2.81,2.81,0,0,0-.33,1.52,3.1,3.1,0,0,0,.29,1.54.92.92,0,0,0,.83.47A1.21,1.21,0,0,0,44.18,54.54Z"/><path class="cls-9" d="M52.14,50.1a1.87,1.87,0,0,1,.44,1.31v4.21H51.17v-4A1.13,1.13,0,0,0,51,50.9a.67.67,0,0,0-.54-.21,1,1,0,0,0-.65.23,2.67,2.67,0,0,0-.57.65v4h-1.4V49.8h1.22l.11.76a2.13,2.13,0,0,1,1.77-.92A1.57,1.57,0,0,1,52.14,50.1Z"/><path class="cls-9" d="M55.76,46.6l.57,1.1-2.49,1L53.45,48Zm-.14,3.2v5.82h-1.4V49.8Z"/><path class="cls-9" d="M64,50.33l-.55.82A2.76,2.76,0,0,0,62,50.68a1.1,1.1,0,0,0-.65.16.51.51,0,0,0-.23.42.48.48,0,0,0,.1.33.9.9,0,0,0,.36.25,4.62,4.62,0,0,0,.76.26,3.32,3.32,0,0,1,1.4.67,1.49,1.49,0,0,1,.46,1.17,1.59,1.59,0,0,1-.7,1.36,3.06,3.06,0,0,1-1.75.49,3.68,3.68,0,0,1-1.31-.23,2.92,2.92,0,0,1-1-.6l.7-.79a2.6,2.6,0,0,0,1.58.57,1.32,1.32,0,0,0,.76-.19.59.59,0,0,0,.28-.51.66.66,0,0,0-.11-.4.87.87,0,0,0-.37-.27,7.31,7.31,0,0,0-.84-.28,2.78,2.78,0,0,1-1.31-.68,1.49,1.49,0,0,1-.42-1.08,1.43,1.43,0,0,1,.28-.87,1.87,1.87,0,0,1,.79-.6,2.87,2.87,0,0,1,1.17-.22A3.27,3.27,0,0,1,64,50.33Zm-.6-3.51.54.62-1.53,1.37H61.5L60,47.44l.54-.62,1.43,1Z"/><path class="cls-9" d="M66.71,47.31v8.31H65.3V47.47ZM70.2,49.8l-1.94,2.56,2.13,3.26H68.77l-2-3.18,1.94-2.64Z"/><path class="cls-9" d="M75.56,50.46a3.27,3.27,0,0,1,.72,2.25A3.77,3.77,0,0,1,76,54.32,2.54,2.54,0,0,1,75,55.4a2.71,2.71,0,0,1-1.47.39,2.56,2.56,0,0,1-2-.82,3.32,3.32,0,0,1-.73-2.26,3.7,3.7,0,0,1,.33-1.61,2.52,2.52,0,0,1,1-1.08,2.67,2.67,0,0,1,1.46-.38A2.52,2.52,0,0,1,75.56,50.46Zm-3.27,2.25a2.9,2.9,0,0,0,.31,1.52,1.07,1.07,0,0,0,.94.49,1,1,0,0,0,.94-.5,3.75,3.75,0,0,0,0-3,1,1,0,0,0-.93-.49Q72.29,50.7,72.29,52.71Z"/><path class="cls-9" d="M77.93,55.39a1.46,1.46,0,0,1-.38-1.1V47.47L79,47.31v6.94c0,.27.1.4.33.4a1.25,1.25,0,0,0,.32,0l.3,1a2.25,2.25,0,0,1-.93.2A1.39,1.39,0,0,1,77.93,55.39Z"/><path class="cls-9" d="M85.25,54.58a.65.65,0,0,0,.34.25l-.3.93a1.84,1.84,0,0,1-.81-.24,1.22,1.22,0,0,1-.48-.6,1.78,1.78,0,0,1-.74.65,2.32,2.32,0,0,1-1,.22,1.9,1.9,0,0,1-1.38-.5,1.72,1.72,0,0,1-.51-1.3,1.66,1.66,0,0,1,.69-1.44,3.26,3.26,0,0,1,2-.5h.72v-.33a1,1,0,0,0-.26-.79,1.25,1.25,0,0,0-.83-.23,5.1,5.1,0,0,0-1.54.31l-.33-1a6.08,6.08,0,0,1,2.12-.41c1.48,0,2.23.66,2.23,2v2.44A.94.94,0,0,0,85.25,54.58Zm-1.49-.53V52.87h-.58c-.91,0-1.37.34-1.37,1a.92.92,0,0,0,.21.65.78.78,0,0,0,.62.23A1.24,1.24,0,0,0,83.76,54.05Z"/><path class="cls-9" d="M92.06,46.85a9,9,0,0,0-1.19,2.26,9.71,9.71,0,0,0,0,5.31,9,9,0,0,0,1.19,2.27l-.91.6c-.47-.66-.85-1.23-1.12-1.7a6.61,6.61,0,0,1-.69-1.65,8.55,8.55,0,0,1,0-4.34A6.61,6.61,0,0,1,90,48c.27-.47.65-1,1.12-1.7Z"/><path class="cls-9" d="M94.5,47.1a.87.87,0,0,1,0,1.22.88.88,0,0,1-.64.24.85.85,0,0,1-.63-.24.87.87,0,0,1,0-1.22.86.86,0,0,1,.63-.25A.88.88,0,0,1,94.5,47.1Zm.07,2.7v5.82h-1.4V49.8Z"/><path class="cls-9" d="M103.34,50.1a1.86,1.86,0,0,1,.43,1.31v4.21h-1.41v-4a1.13,1.13,0,0,0-.18-.73.66.66,0,0,0-.53-.21,1.08,1.08,0,0,0-.66.23,2.66,2.66,0,0,0-.56.65v4H99V49.8h1.22l.11.76a2.16,2.16,0,0,1,1.77-.92A1.59,1.59,0,0,1,103.34,50.1Z"/><path class="cls-9" d="M110.15,53.14H106.5a1.86,1.86,0,0,0,.44,1.22,1.37,1.37,0,0,0,1,.36,1.92,1.92,0,0,0,.72-.13,3.08,3.08,0,0,0,.73-.39l.58.8a3.29,3.29,0,0,1-2.15.79,2.6,2.6,0,0,1-2-.82,3.22,3.22,0,0,1-.72-2.22,4.07,4.07,0,0,1,.3-1.6,2.6,2.6,0,0,1,.89-1.11,2.39,2.39,0,0,1,1.39-.4,2.36,2.36,0,0,1,1.89.77,3.19,3.19,0,0,1,.67,2.16Q110.18,52.69,110.15,53.14Zm-1.36-1q0-1.53-1.14-1.53a1,1,0,0,0-.81.38,2.33,2.33,0,0,0-.34,1.21h2.29Z"/><path class="cls-9" d="M116.34,47.47v8.15H115.1l-.1-.74a1.93,1.93,0,0,1-.7.66,1.91,1.91,0,0,1-1,.25A1.88,1.88,0,0,1,111.7,55a3.89,3.89,0,0,1-.57-2.24,4,4,0,0,1,.29-1.59,2.56,2.56,0,0,1,.81-1.1,2.1,2.1,0,0,1,2.71.23V47.31Zm-1.94,7.07a1.86,1.86,0,0,0,.54-.57V51.31a1.81,1.81,0,0,0-.52-.46,1.08,1.08,0,0,0-.6-.16,1,1,0,0,0-.88.5,2.81,2.81,0,0,0-.33,1.52,3.1,3.1,0,0,0,.29,1.54.93.93,0,0,0,.84.47A1.21,1.21,0,0,0,114.4,54.54Z"/><path class="cls-9" d="M122.42,50.46a3.27,3.27,0,0,1,.72,2.25,3.77,3.77,0,0,1-.33,1.61,2.54,2.54,0,0,1-.94,1.08,2.71,2.71,0,0,1-1.47.39,2.56,2.56,0,0,1-2-.82,3.32,3.32,0,0,1-.73-2.26A3.7,3.7,0,0,1,118,51.1,2.52,2.52,0,0,1,119,50a2.67,2.67,0,0,1,1.46-.38A2.52,2.52,0,0,1,122.42,50.46Zm-3.27,2.25a2.9,2.9,0,0,0,.31,1.52,1.05,1.05,0,0,0,.94.49,1,1,0,0,0,.94-.5,3.75,3.75,0,0,0,0-3,1,1,0,0,0-.93-.49Q119.15,50.7,119.15,52.71Z"/><path class="cls-9" d="M125.87,47.31v8.31h-1.41V47.47Zm3.49,2.49-1.94,2.56,2.12,3.26h-1.61l-2-3.18,2-2.64Z"/><path class="cls-9" d="M134.72,50.46a3.27,3.27,0,0,1,.72,2.25,3.77,3.77,0,0,1-.33,1.61,2.56,2.56,0,0,1-1,1.08,2.68,2.68,0,0,1-1.46.39,2.56,2.56,0,0,1-2-.82,3.27,3.27,0,0,1-.73-2.26,3.7,3.7,0,0,1,.33-1.61,2.56,2.56,0,0,1,1-1.08,2.73,2.73,0,0,1,1.47-.38A2.52,2.52,0,0,1,134.72,50.46Zm-3.27,2.25a2.9,2.9,0,0,0,.31,1.52,1.05,1.05,0,0,0,.94.49,1,1,0,0,0,.94-.5,3.86,3.86,0,0,0,0-3,1,1,0,0,0-.93-.49Q131.45,50.7,131.45,52.71Z"/><path class="cls-9" d="M141.08,50.1a1.86,1.86,0,0,1,.43,1.31v4.21H140.1v-4a1.13,1.13,0,0,0-.18-.73.66.66,0,0,0-.53-.21,1.08,1.08,0,0,0-.66.23,2.66,2.66,0,0,0-.56.65v4h-1.41V49.8H138l.11.76a2.16,2.16,0,0,1,1.77-.92A1.59,1.59,0,0,1,141.08,50.1Z"/><path class="cls-9" d="M146.52,49.8a2.57,2.57,0,0,1,.86.52l-.62.85a2.08,2.08,0,0,0-.57-.32,1.74,1.74,0,0,0-.61-.1c-.87,0-1.31.66-1.31,2a2.51,2.51,0,0,0,.34,1.46,1.17,1.17,0,0,0,1,.44,1.48,1.48,0,0,0,.57-.1,3.32,3.32,0,0,0,.61-.32l.62.89a3,3,0,0,1-3.33.31,2.46,2.46,0,0,1-.94-1.05,3.67,3.67,0,0,1-.33-1.61,3.8,3.8,0,0,1,.33-1.63,2.48,2.48,0,0,1,.94-1.1,2.63,2.63,0,0,1,1.44-.39A3,3,0,0,1,146.52,49.8Zm.4-3,.54.62-1.53,1.37h-.88l-1.53-1.37.54-.62,1.43,1Z"/><path class="cls-9" d="M153.15,53.14H149.5a1.86,1.86,0,0,0,.44,1.22,1.37,1.37,0,0,0,1,.36,1.92,1.92,0,0,0,.72-.13,3.08,3.08,0,0,0,.73-.39l.58.8a3.29,3.29,0,0,1-2.15.79,2.62,2.62,0,0,1-2.06-.82,3.22,3.22,0,0,1-.72-2.22,4.08,4.08,0,0,1,.31-1.6,2.53,2.53,0,0,1,.89-1.11,2.67,2.67,0,0,1,3.28.37,3.19,3.19,0,0,1,.67,2.16Q153.18,52.69,153.15,53.14Zm-1.36-1q0-1.53-1.14-1.53a1,1,0,0,0-.81.38,2.24,2.24,0,0,0-.34,1.21h2.29Z"/><path class="cls-9" d="M158.76,50.1a1.87,1.87,0,0,1,.44,1.31v4.21h-1.41v-4a1.13,1.13,0,0,0-.18-.73.66.66,0,0,0-.53-.21,1.06,1.06,0,0,0-.66.23,2.66,2.66,0,0,0-.56.65v4h-1.41V49.8h1.22l.11.76a2.13,2.13,0,0,1,1.77-.92A1.57,1.57,0,0,1,158.76,50.1Z"/><path class="cls-9" d="M165.24,54.58a.65.65,0,0,0,.34.25l-.3.93a1.84,1.84,0,0,1-.81-.24,1.2,1.2,0,0,1-.47-.6,1.87,1.87,0,0,1-.75.65,2.28,2.28,0,0,1-1,.22,1.9,1.9,0,0,1-1.38-.5,1.76,1.76,0,0,1-.5-1.3,1.68,1.68,0,0,1,.68-1.44,3.28,3.28,0,0,1,2-.5h.72v-.33a1,1,0,0,0-.26-.79,1.23,1.23,0,0,0-.83-.23,5.16,5.16,0,0,0-1.54.31l-.33-1a6.08,6.08,0,0,1,2.12-.41c1.48,0,2.23.66,2.23,2v2.44A.94.94,0,0,0,165.24,54.58Zm-1.49-8,.58,1.1-2.49,1-.4-.72Zm0,7.45V52.87h-.58c-.91,0-1.36.34-1.36,1a1,1,0,0,0,.2.65.78.78,0,0,0,.62.23A1.24,1.24,0,0,0,163.75,54.05Z"/><path class="cls-9" d="M168.29,47.94a6.94,6.94,0,0,1,.69,1.65A8.94,8.94,0,0,1,169,54a6.94,6.94,0,0,1-.69,1.65,19.79,19.79,0,0,1-1.13,1.69l-.89-.6a9.33,9.33,0,0,0,1.18-2.27,8.27,8.27,0,0,0,.37-2.65,8.16,8.16,0,0,0-.37-2.64,9.38,9.38,0,0,0-1.18-2.28l.89-.6A19.79,19.79,0,0,1,168.29,47.94Z"/><path class="cls-11" d="M193.15,48.29a3.59,3.59,0,1,0,3.59,3.59,3.59,3.59,0,0,0-3.59-3.59Z"/><path class="cls-11" d="M207.5,50.29l-.55.83a2.71,2.71,0,0,0-1.47-.47,1.2,1.2,0,0,0-.65.15.51.51,0,0,0-.23.43.59.59,0,0,0,.1.33,1,1,0,0,0,.36.25,6.74,6.74,0,0,0,.76.25,3.43,3.43,0,0,1,1.41.68,1.48,1.48,0,0,1,.45,1.16,1.56,1.56,0,0,1-.7,1.36,3,3,0,0,1-1.75.49,3.58,3.58,0,0,1-1.3-.22,3,3,0,0,1-1-.61l.7-.79a2.63,2.63,0,0,0,1.59.57,1.39,1.39,0,0,0,.75-.18.59.59,0,0,0,.28-.52.68.68,0,0,0-.1-.4.82.82,0,0,0-.38-.26,6.94,6.94,0,0,0-.84-.29,2.82,2.82,0,0,1-1.31-.67,1.5,1.5,0,0,1-.42-1.09,1.45,1.45,0,0,1,.28-.86,1.92,1.92,0,0,1,.8-.61,2.87,2.87,0,0,1,1.17-.22A3.31,3.31,0,0,1,207.5,50.29Z"/><path class="cls-11" d="M212.16,55.31a2.2,2.2,0,0,1-.69.33,2.87,2.87,0,0,1-.77.11,1.76,1.76,0,0,1-1.31-.49,2,2,0,0,1-.44-1.41V50.78H208v-1H209V48.48l1.41-.17v1.46h1.35l-.14,1h-1.21v3a1.09,1.09,0,0,0,.14.62.59.59,0,0,0,.47.19,1.47,1.47,0,0,0,.7-.21Z"/><path class="cls-11" d="M216.13,46.78l.54.62-1.53,1.38h-.88l-1.53-1.38.54-.62,1.43,1Zm.28,2.91-.25,1.36a2.22,2.22,0,0,0-.51-.06,1,1,0,0,0-.82.36,2.93,2.93,0,0,0-.47,1.13v3.1H213V49.77h1.22l.13,1.14a2.1,2.1,0,0,1,.61-1,1.34,1.34,0,0,1,.91-.34A2.16,2.16,0,0,1,216.41,49.69Z"/><path class="cls-11" d="M222,53.11h-3.65a1.88,1.88,0,0,0,.43,1.21,1.37,1.37,0,0,0,1,.36,2.19,2.19,0,0,0,.73-.12,4,4,0,0,0,.73-.39l.58.8a3.36,3.36,0,0,1-2.16.78,2.61,2.61,0,0,1-2.05-.81,3.27,3.27,0,0,1-.72-2.23,3.94,3.94,0,0,1,.31-1.6,2.52,2.52,0,0,1,.89-1.11,2.65,2.65,0,0,1,3.28.38,3.16,3.16,0,0,1,.67,2.16Q222.06,52.65,222,53.11Zm-1.37-1c0-1-.37-1.53-1.13-1.53a1,1,0,0,0-.81.38,2.25,2.25,0,0,0-.34,1.22h2.28Z"/><path class="cls-11" d="M228.22,47.43v8.15H227l-.1-.73a2.1,2.1,0,0,1-.7.66,1.9,1.9,0,0,1-1,.24,1.87,1.87,0,0,1-1.64-.83,3.87,3.87,0,0,1-.57-2.24,4.21,4.21,0,0,1,.28-1.59,2.47,2.47,0,0,1,.82-1.09,2.06,2.06,0,0,1,2.7.23V47.28Zm-1.95,7.07a1.86,1.86,0,0,0,.54-.57V51.27a2.12,2.12,0,0,0-.51-.46,1.16,1.16,0,0,0-.6-.15,1,1,0,0,0-.88.5,2.75,2.75,0,0,0-.33,1.51,3.14,3.14,0,0,0,.29,1.55.92.92,0,0,0,.83.46A1.21,1.21,0,0,0,226.27,54.5Z"/><path class="cls-11" d="M234.23,50.07a1.83,1.83,0,0,1,.44,1.3v4.21h-1.41v-4a1.11,1.11,0,0,0-.18-.72.67.67,0,0,0-.54-.21,1,1,0,0,0-.65.22,2.38,2.38,0,0,0-.57.66v4h-1.41V49.77h1.22l.11.75A2.19,2.19,0,0,1,233,49.6,1.57,1.57,0,0,1,234.23,50.07Z"/><path class="cls-11" d="M237.84,46.56l.58,1.1-2.49,1-.4-.71Zm-.13,3.21v5.81H236.3V49.77Z"/><path class="cls-11" d="M246.06,50.29l-.55.83a2.67,2.67,0,0,0-1.46-.47,1.18,1.18,0,0,0-.65.15.51.51,0,0,0-.23.43.52.52,0,0,0,.1.33.83.83,0,0,0,.36.25,6.11,6.11,0,0,0,.76.25,3.32,3.32,0,0,1,1.4.68,1.46,1.46,0,0,1,.46,1.16,1.59,1.59,0,0,1-.7,1.36,3,3,0,0,1-1.75.49,3.64,3.64,0,0,1-1.31-.22,3.26,3.26,0,0,1-1-.61l.71-.79a2.58,2.58,0,0,0,1.58.57,1.4,1.4,0,0,0,.76-.18.62.62,0,0,0,.28-.52.68.68,0,0,0-.11-.4.78.78,0,0,0-.37-.26,6.94,6.94,0,0,0-.84-.29,2.77,2.77,0,0,1-1.31-.67,1.5,1.5,0,0,1-.42-1.09,1.39,1.39,0,0,1,.28-.86,1.89,1.89,0,0,1,.79-.61A2.87,2.87,0,0,1,244,49.6,3.27,3.27,0,0,1,246.06,50.29Zm-.6-3.51.54.62-1.53,1.38h-.88l-1.53-1.38.54-.62,1.43,1Z"/><path class="cls-11" d="M248.8,47.28v8.3h-1.41V47.43Zm3.49,2.49-1.94,2.56,2.12,3.25h-1.61l-2-3.17,1.94-2.64Z"/><path class="cls-11" d="M257.65,50.42a3.3,3.3,0,0,1,.72,2.25,3.7,3.7,0,0,1-.33,1.61,2.45,2.45,0,0,1-1,1.08,2.65,2.65,0,0,1-1.46.39,2.52,2.52,0,0,1-2-.82,3.27,3.27,0,0,1-.73-2.26,3.73,3.73,0,0,1,.33-1.61,2.48,2.48,0,0,1,.95-1.07,2.74,2.74,0,0,1,1.47-.39A2.52,2.52,0,0,1,257.65,50.42Zm-3.27,2.25a2.85,2.85,0,0,0,.31,1.52,1.15,1.15,0,0,0,1.88,0,2.89,2.89,0,0,0,.32-1.52,2.83,2.83,0,0,0-.32-1.51,1,1,0,0,0-.93-.49C254.8,50.67,254.38,51.34,254.38,52.67Z"/><path class="cls-11" d="M260,55.36a1.54,1.54,0,0,1-.37-1.11V47.43l1.4-.15v6.93c0,.27.11.41.33.41a1,1,0,0,0,.33-.06l.3,1a2.25,2.25,0,0,1-.93.2A1.43,1.43,0,0,1,260,55.36Z"/><path class="cls-11" d="M267.34,54.55a.69.69,0,0,0,.34.24l-.3.94a1.84,1.84,0,0,1-.81-.24,1.29,1.29,0,0,1-.48-.61,2,2,0,0,1-.74.66,2.33,2.33,0,0,1-1,.21,1.89,1.89,0,0,1-1.37-.5,1.72,1.72,0,0,1-.51-1.29,1.68,1.68,0,0,1,.69-1.45,3.32,3.32,0,0,1,2-.5h.73v-.33a1,1,0,0,0-.26-.79,1.25,1.25,0,0,0-.83-.22,4.81,4.81,0,0,0-1.54.31l-.33-1A5.87,5.87,0,0,1,265,49.6c1.49,0,2.24.67,2.24,2V54A1,1,0,0,0,267.34,54.55ZM265.85,54V52.83h-.58c-.91,0-1.37.34-1.37,1a.94.94,0,0,0,.21.65.81.81,0,0,0,.62.23A1.24,1.24,0,0,0,265.85,54Z"/><path class="cls-12" d="M4.73,64a3.59,3.59,0,1,0,3.59,3.59A3.58,3.58,0,0,0,4.73,64Z"/><path class="cls-12" d="M19.84,65.47,18,71.29H16.27l-1.93-5.82h1.53l1.24,4.69,1.28-4.69Z"/><path class="cls-12" d="M23.53,71.31A3.59,3.59,0,0,1,22.46,73a3.43,3.43,0,0,1-2,.7l-.14-1a3.44,3.44,0,0,0,.92-.25,1.58,1.58,0,0,0,.55-.42,3.1,3.1,0,0,0,.39-.71h-.49l-1.85-5.82h1.5l1.27,4.89L24,65.47h1.45Z"/><path class="cls-12" d="M30.18,66l-.55.83a2.72,2.72,0,0,0-1.46-.48,1.17,1.17,0,0,0-.65.16.51.51,0,0,0-.23.43.52.52,0,0,0,.1.33.85.85,0,0,0,.35.24,5.18,5.18,0,0,0,.77.26,3.32,3.32,0,0,1,1.4.67,1.49,1.49,0,0,1,.46,1.17A1.57,1.57,0,0,1,29.66,71a3,3,0,0,1-1.74.49,3.87,3.87,0,0,1-1.31-.22,3.26,3.26,0,0,1-1-.61l.71-.79a2.58,2.58,0,0,0,1.58.57,1.32,1.32,0,0,0,.76-.19.59.59,0,0,0,.28-.51.66.66,0,0,0-.11-.4.87.87,0,0,0-.37-.27c-.18-.07-.46-.17-.84-.28a2.69,2.69,0,0,1-1.31-.68A1.48,1.48,0,0,1,25.87,67a1.43,1.43,0,0,1,.28-.87,1.87,1.87,0,0,1,.79-.6,2.87,2.87,0,0,1,1.17-.22A3.27,3.27,0,0,1,30.18,66Z"/><path class="cls-12" d="M35.9,66.13a3.27,3.27,0,0,1,.72,2.25A3.77,3.77,0,0,1,36.29,70a2.56,2.56,0,0,1-.95,1.08,2.68,2.68,0,0,1-1.46.39,2.59,2.59,0,0,1-2-.82,3.31,3.31,0,0,1-.72-2.26,3.7,3.7,0,0,1,.33-1.61,2.5,2.5,0,0,1,1-1.08,2.77,2.77,0,0,1,1.47-.38A2.52,2.52,0,0,1,35.9,66.13Zm-3.28,2.25a2.87,2.87,0,0,0,.32,1.52,1.14,1.14,0,0,0,1.88,0,3.86,3.86,0,0,0,0-3,1,1,0,0,0-.93-.49C33.05,66.37,32.62,67,32.62,68.38Z"/><path class="cls-12" d="M39.34,63v8.3h-1.4V63.14Zm3.49,2.48L40.89,68,43,71.29H41.4l-2-3.18,2-2.64Z"/><path class="cls-12" d="M48.21,70.25a.74.74,0,0,0,.34.25l-.3.93a1.76,1.76,0,0,1-.8-.24,1.22,1.22,0,0,1-.48-.6,1.87,1.87,0,0,1-.75.65,2.12,2.12,0,0,1-1,.22,1.9,1.9,0,0,1-1.38-.5,1.76,1.76,0,0,1-.5-1.3A1.66,1.66,0,0,1,44,68.22a3.23,3.23,0,0,1,2-.5h.72v-.33a1,1,0,0,0-.25-.79,1.27,1.27,0,0,0-.83-.23,5,5,0,0,0-1.54.31l-.33-1a6,6,0,0,1,2.11-.41c1.49,0,2.23.66,2.23,2v2.44A1,1,0,0,0,48.21,70.25Zm-1.49-8,.58,1.1-2.49,1-.39-.71Zm0,7.45V68.54h-.58c-.91,0-1.36.34-1.36,1a.92.92,0,0,0,.21.65.76.76,0,0,0,.61.23A1.23,1.23,0,0,0,46.72,69.72Z"/><path class="cls-12" d="M56.47,66l-.55.83a2.72,2.72,0,0,0-1.46-.48,1.17,1.17,0,0,0-.65.16.49.49,0,0,0-.23.43.52.52,0,0,0,.1.33.85.85,0,0,0,.35.24,5.18,5.18,0,0,0,.77.26,3.32,3.32,0,0,1,1.4.67,1.49,1.49,0,0,1,.46,1.17A1.57,1.57,0,0,1,56,71a3,3,0,0,1-1.74.49,3.87,3.87,0,0,1-1.31-.22,3.26,3.26,0,0,1-1-.61l.71-.79a2.58,2.58,0,0,0,1.58.57,1.26,1.26,0,0,0,.75-.19.57.57,0,0,0,.29-.51.66.66,0,0,0-.11-.4.87.87,0,0,0-.37-.27c-.18-.07-.46-.17-.84-.28a2.69,2.69,0,0,1-1.31-.68A1.48,1.48,0,0,1,52.16,67a1.43,1.43,0,0,1,.28-.87,1.87,1.87,0,0,1,.79-.6,2.87,2.87,0,0,1,1.17-.22A3.27,3.27,0,0,1,56.47,66Zm-.6-3.51.53.62-1.52,1.37H54l-1.53-1.37.54-.62,1.43,1Z"/><path class="cls-12" d="M59.21,63v8.3H57.8V63.14Zm3.49,2.48L60.76,68l2.12,3.25H61.27l-2-3.18,2-2.64Z"/><path class="cls-12" d="M68.06,66.13a3.27,3.27,0,0,1,.72,2.25A3.77,3.77,0,0,1,68.45,70a2.56,2.56,0,0,1-1,1.08,2.65,2.65,0,0,1-1.46.39,2.56,2.56,0,0,1-2-.82,3.27,3.27,0,0,1-.73-2.26,3.7,3.7,0,0,1,.33-1.61,2.56,2.56,0,0,1,.95-1.08,2.82,2.82,0,0,1,1.47-.38A2.52,2.52,0,0,1,68.06,66.13Zm-3.27,2.25a2.88,2.88,0,0,0,.31,1.52,1.14,1.14,0,0,0,1.88,0,3.75,3.75,0,0,0,0-3,1,1,0,0,0-.93-.49Q64.79,66.37,64.79,68.38Z"/><path class="cls-12" d="M70.42,71.07A1.55,1.55,0,0,1,70.05,70V63.14l1.4-.15v6.93c0,.27.11.4.33.4a1.26,1.26,0,0,0,.33,0l.3,1a2.3,2.3,0,0,1-.94.2A1.42,1.42,0,0,1,70.42,71.07Z"/><path class="cls-12" d="M77.75,70.25a.65.65,0,0,0,.34.25l-.3.93a1.84,1.84,0,0,1-.81-.24,1.22,1.22,0,0,1-.48-.6,1.84,1.84,0,0,1-.74.65,2.19,2.19,0,0,1-1,.22,1.88,1.88,0,0,1-1.37-.5,1.72,1.72,0,0,1-.51-1.3,1.66,1.66,0,0,1,.69-1.44,3.25,3.25,0,0,1,2-.5h.73v-.33A1,1,0,0,0,76,66.6a1.25,1.25,0,0,0-.83-.23,5.1,5.1,0,0,0-1.54.31l-.33-1a6.07,6.07,0,0,1,2.11-.41c1.49,0,2.24.66,2.24,2v2.44A.91.91,0,0,0,77.75,70.25Zm-1.49-.53V68.54h-.58c-.91,0-1.37.34-1.37,1a.92.92,0,0,0,.21.65.78.78,0,0,0,.62.23A1.24,1.24,0,0,0,76.26,69.72Z"/><line class="cls-5" x1="117.06" y1="68.24" x2="96.89" y2="68.24"/></svg>