<svg id="Layer_1" data-name="Layer 1" xmlns="http://www.w3.org/2000/svg" viewBox="0 0 620 328.14"><defs><style>.cls-1{fill:#eb4b98;}.cls-2{fill:#043565;}.cls-3{fill:#24a3bb;}.cls-10,.cls-11,.cls-4,.cls-9{fill:none;}.cls-4{stroke:#d9d9d9;stroke-linecap:round;stroke-linejoin:round;stroke-dasharray:1 3 1 0;}.cls-4,.cls-9{stroke-width:0.5px;}.cls-5{opacity:0;}.cls-6{isolation:isolate;}.cls-7{fill:#666;}.cls-8{fill:#fff;}.cls-9{stroke:#043565;}.cls-10,.cls-11,.cls-9{stroke-miterlimit:10;}.cls-10{stroke:#eb4b98;}.cls-11{stroke:#24a3bb;}</style></defs><path class="cls-1" d="M66,183.57a2.11,2.11,0,0,1,.81,1.81,2.25,2.25,0,0,1-.81,1.9,3.47,3.47,0,0,1-2.17.63h-.89v2.65H61.47V183h2.24A3.67,3.67,0,0,1,66,183.57Zm-1.1,2.93a1.39,1.39,0,0,0,.39-1.12c0-.9-.52-1.35-1.57-1.35h-.78v2.79h.78A1.89,1.89,0,0,0,64.88,186.5Z"/><path class="cls-1" d="M71.38,184.67,71.14,186a2.4,2.4,0,0,0-.52-.07,1,1,0,0,0-.82.37,3.09,3.09,0,0,0-.47,1.13v3.1H67.92v-5.82h1.22l.14,1.15a2.18,2.18,0,0,1,.6-1,1.4,1.4,0,0,1,.91-.33A2.16,2.16,0,0,1,71.38,184.67Z"/><path class="cls-1" d="M76.93,184.74,75,190.56H73.36l-1.93-5.82H73l1.24,4.69,1.28-4.69Z"/><path class="cls-1" d="M82.12,185.05a1.82,1.82,0,0,1,.43,1.3v4.21h-1.4v-4a1.08,1.08,0,0,0-.19-.73.65.65,0,0,0-.53-.21,1,1,0,0,0-.65.23,2.48,2.48,0,0,0-.57.65v4.05H77.8v-5.82H79l.11.76a2.18,2.18,0,0,1,1.77-.92A1.56,1.56,0,0,1,82.12,185.05Z"/><path class="cls-1" d="M85.73,181.54l.57,1.1-2.48,1-.4-.71Zm-.13,3.2v5.82H84.19v-5.82Z"/><path class="cls-1" d="M91.45,182.26v8.3H90v-8.15Zm3.49,2.48L93,187.31l2.13,3.25H93.51l-2-3.18,1.94-2.64Z"/><path class="cls-1" d="M100.59,184.74l-1.89,5.82H97l-1.93-5.82h1.53l1.25,4.69,1.27-4.69Z"/><path class="cls-1" d="M102.8,182a.86.86,0,0,1,.25.61.83.83,0,0,1-.25.61,1,1,0,0,1-1.28,0,.83.83,0,0,1-.25-.61.86.86,0,0,1,.25-.61,1,1,0,0,1,1.28,0Zm.07,2.7v5.82h-1.41v-5.82Z"/><path class="cls-1" d="M108.88,185.05a1.83,1.83,0,0,1,.44,1.3v4.21h-1.41v-4a1.15,1.15,0,0,0-.18-.73.67.67,0,0,0-.54-.21,1,1,0,0,0-.65.23,2.67,2.67,0,0,0-.57.65v4.05h-1.41v-5.82h1.23l.1.76a2.19,2.19,0,0,1,1.78-.92A1.54,1.54,0,0,1,108.88,185.05Z"/><path class="cls-1" d="M114.29,190.29a2.74,2.74,0,0,1-.69.33,2.87,2.87,0,0,1-.77.11,1.74,1.74,0,0,1-1.31-.49,2,2,0,0,1-.44-1.41v-3.07h-.92v-1h.92v-1.28l1.4-.17v1.45h1.36l-.15,1h-1.21v3a1,1,0,0,0,.15.62.58.58,0,0,0,.47.18,1.41,1.41,0,0,0,.69-.2Z"/><path class="cls-1" d="M116.42,182a.85.85,0,0,1,.24.61.82.82,0,0,1-.24.61.9.9,0,0,1-.65.24.88.88,0,0,1-.63-.24.83.83,0,0,1-.25-.61.86.86,0,0,1,.25-.61.88.88,0,0,1,.63-.24A.9.9,0,0,1,116.42,182Zm.07,2.7v5.82h-1.41v-5.82Z"/><path class="cls-1" d="M118.51,190.34a1.5,1.5,0,0,1-.38-1.11v-6.82l1.4-.15v6.93c0,.27.11.4.33.4a.88.88,0,0,0,.33-.05l.3,1a2.25,2.25,0,0,1-.93.2A1.39,1.39,0,0,1,118.51,190.34Z"/><path class="cls-1" d="M128.82,185.38a4.13,4.13,0,0,1,.53,2.26,4.44,4.44,0,0,1-.27,1.6,2.49,2.49,0,0,1-.79,1.09,2,2,0,0,1-1.24.4,1.81,1.81,0,0,1-1.46-.64v2.72l-1.41.15v-8.22h1.23l.08.72a2.22,2.22,0,0,1,.78-.66,2,2,0,0,1,.92-.22A1.83,1.83,0,0,1,128.82,185.38Zm-.95,2.27a3.26,3.26,0,0,0-.27-1.54.9.9,0,0,0-.83-.48,1.18,1.18,0,0,0-.66.22,1.73,1.73,0,0,0-.52.58V189a1.21,1.21,0,0,0,1.06.61C127.47,189.65,127.87,189,127.87,187.65Z"/><path class="cls-1" d="M133.91,181.76l.54.62-1.53,1.37H132l-1.53-1.37.54-.62,1.43,1Zm.28,2.91-.25,1.36a2.24,2.24,0,0,0-.51-.07,1,1,0,0,0-.82.37,3.09,3.09,0,0,0-.47,1.13v3.1h-1.41v-5.82H132l.14,1.15a2.18,2.18,0,0,1,.6-1,1.38,1.38,0,0,1,.91-.33A2.16,2.16,0,0,1,134.19,184.67Z"/><path class="cls-1" d="M136.61,181.54l.57,1.1-2.49,1-.39-.71Zm-.13,3.2v5.82h-1.41v-5.82Z"/><path class="cls-1" d="M139.57,190.05a3.51,3.51,0,0,1-.25,1.4,2.23,2.23,0,0,1-.7.87,5.54,5.54,0,0,1-1.18.63l-.45-1a4.11,4.11,0,0,0,.67-.39A1.21,1.21,0,0,0,138,191a2.37,2.37,0,0,0,.13-.88v-5.39h1.41Zm-.08-8a.82.82,0,0,1,.25.61.79.79,0,0,1-.25.61.88.88,0,0,1-.64.24.85.85,0,0,1-.63-.24.79.79,0,0,1-.25-.61.82.82,0,0,1,.25-.61.85.85,0,0,1,.63-.24A.88.88,0,0,1,139.49,182Z"/><path class="cls-1" d="M148.55,185.06a1.89,1.89,0,0,1,.42,1.29v4.21h-1.41v-4c0-.62-.21-.94-.63-.94a.88.88,0,0,0-.59.22,2.56,2.56,0,0,0-.52.66v4.05h-1.4v-4c0-.62-.22-.94-.64-.94a.89.89,0,0,0-.6.22,2.36,2.36,0,0,0-.51.66v4.05h-1.41v-5.82h1.22l.11.76a2,2,0,0,1,1.68-.92,1.52,1.52,0,0,1,.88.26,1.45,1.45,0,0,1,.53.72,2.8,2.8,0,0,1,.78-.73,1.82,1.82,0,0,1,1-.25A1.41,1.41,0,0,1,148.55,185.06Z"/><path class="cls-1" d="M155.26,190.56H154l-.08-.81a2.2,2.2,0,0,1-.75.74,2.09,2.09,0,0,1-1,.24,1.51,1.51,0,0,1-1.2-.48,2,2,0,0,1-.42-1.33v-4.18H152v4a1.14,1.14,0,0,0,.17.7.68.68,0,0,0,.55.21,1.41,1.41,0,0,0,1.17-.82v-4.1h1.41Zm-1.34-9a1.26,1.26,0,0,1,.39.94,1.24,1.24,0,0,1-.39.93,1.52,1.52,0,0,1-2,0,1.24,1.24,0,0,1-.39-.93,1.26,1.26,0,0,1,.39-.94,1.41,1.41,0,0,1,1-.38A1.39,1.39,0,0,1,153.92,181.56Zm-1.41.51a.63.63,0,0,0-.14.43.61.61,0,0,0,.14.42.54.54,0,0,0,.4.15.49.49,0,0,0,.38-.15.57.57,0,0,0,.15-.42.59.59,0,0,0-.15-.43.49.49,0,0,0-.38-.15A.54.54,0,0,0,152.51,182.07Z"/><path class="cls-1" d="M83.86,192.8a8.83,8.83,0,0,0-1.19,2.26,9.93,9.93,0,0,0,0,5.3,8.88,8.88,0,0,0,1.19,2.27l-.91.6c-.47-.66-.85-1.23-1.12-1.69a6.85,6.85,0,0,1-.69-1.66,8.55,8.55,0,0,1,0-4.34,6.94,6.94,0,0,1,.69-1.65c.27-.47.65-1,1.12-1.7Z"/><path class="cls-1" d="M89.29,196.05a1.87,1.87,0,0,1,.43,1.3v4.21H88.31v-4a1.15,1.15,0,0,0-.18-.73.66.66,0,0,0-.53-.21,1.06,1.06,0,0,0-.66.23,2.66,2.66,0,0,0-.56.65v4.05H85v-5.82h1.22l.11.76a2.18,2.18,0,0,1,1.77-.92A1.56,1.56,0,0,1,89.29,196.05Z"/><path class="cls-1" d="M96.1,199.09H92.45a1.83,1.83,0,0,0,.44,1.21,1.37,1.37,0,0,0,1,.36,1.92,1.92,0,0,0,.72-.13,3.08,3.08,0,0,0,.73-.39l.58.81a3.33,3.33,0,0,1-2.15.78,2.57,2.57,0,0,1-2.05-.82,3.23,3.23,0,0,1-.73-2.22,4.08,4.08,0,0,1,.31-1.6,2.66,2.66,0,0,1,.89-1.11,2.67,2.67,0,0,1,3.28.37,3.2,3.2,0,0,1,.67,2.17Q96.13,198.63,96.1,199.09Zm-1.36-1q0-1.53-1.14-1.53a1,1,0,0,0-.81.38,2.24,2.24,0,0,0-.34,1.21h2.29Z"/><path class="cls-1" d="M98.79,201.05a3.52,3.52,0,0,1-.24,1.4,2.23,2.23,0,0,1-.7.87,5.54,5.54,0,0,1-1.18.63l-.45-1a4.11,4.11,0,0,0,.67-.39,1.21,1.21,0,0,0,.37-.53,2.59,2.59,0,0,0,.13-.88v-5.39h1.4Zm-.07-8a.82.82,0,0,1,.25.61.79.79,0,0,1-.25.61.88.88,0,0,1-.64.24.85.85,0,0,1-.63-.24.79.79,0,0,1-.25-.61.82.82,0,0,1,.25-.61.85.85,0,0,1,.63-.24A.88.88,0,0,1,98.72,193Z"/><path class="cls-1" d="M103.86,195.74a2.87,2.87,0,0,1,.86.52l-.62.85a2,2,0,0,0-.58-.32,1.64,1.64,0,0,0-.6-.1c-.87,0-1.31.66-1.31,2a2.41,2.41,0,0,0,.34,1.46,1.14,1.14,0,0,0,1,.44,1.52,1.52,0,0,0,.57-.1,3.9,3.9,0,0,0,.61-.31l.62.89a2.92,2.92,0,0,1-1.88.67,2.84,2.84,0,0,1-1.45-.37,2.48,2.48,0,0,1-1-1.05,3.82,3.82,0,0,1-.33-1.61,4,4,0,0,1,.33-1.63,2.56,2.56,0,0,1,1-1.1,2.63,2.63,0,0,1,1.44-.39A3,3,0,0,1,103.86,195.74Z"/><path class="cls-1" d="M110.06,196.05a1.86,1.86,0,0,1,.44,1.3v4.21h-1.41v-4a1.15,1.15,0,0,0-.18-.73.66.66,0,0,0-.53-.21,1.05,1.05,0,0,0-.65.23,2.83,2.83,0,0,0-.58.64v4.06h-1.4v-8.14l1.4-.14v3.16a2.12,2.12,0,0,1,1.7-.86A1.59,1.59,0,0,1,110.06,196.05Z"/><path class="cls-1" d="M116.79,201.56h-1.22l-.08-.81a2.2,2.2,0,0,1-.75.74,2.09,2.09,0,0,1-1,.24,1.51,1.51,0,0,1-1.2-.48,1.9,1.9,0,0,1-.43-1.33v-4.18h1.41v4a1.14,1.14,0,0,0,.17.7.67.67,0,0,0,.55.21,1.41,1.41,0,0,0,1.17-.82v-4.1h1.41Z"/><path class="cls-1" d="M123.38,193.41v8.15h-1.24l-.1-.73a2.32,2.32,0,0,1-.7.66,1.9,1.9,0,0,1-1,.24,1.88,1.88,0,0,1-1.64-.83,3.89,3.89,0,0,1-.57-2.24,4.18,4.18,0,0,1,.28-1.59,2.58,2.58,0,0,1,.82-1.1,2.06,2.06,0,0,1,1.24-.39,2,2,0,0,1,1.46.63v-3Zm-1.95,7.07a1.86,1.86,0,0,0,.54-.57v-2.66a2.12,2.12,0,0,0-.51-.46,1.17,1.17,0,0,0-.6-.16,1,1,0,0,0-.88.5,2.81,2.81,0,0,0-.33,1.52,3.07,3.07,0,0,0,.29,1.54.92.92,0,0,0,.83.47A1.21,1.21,0,0,0,121.43,200.48Z"/><path class="cls-1" d="M129,196.27l-.55.83a2.72,2.72,0,0,0-1.46-.48,1.17,1.17,0,0,0-.65.16.49.49,0,0,0-.23.43.52.52,0,0,0,.1.33.85.85,0,0,0,.35.24,4.8,4.8,0,0,0,.77.26,3.51,3.51,0,0,1,1.4.67,1.53,1.53,0,0,1,.46,1.17,1.57,1.57,0,0,1-.71,1.36,3,3,0,0,1-1.75.49,3.85,3.85,0,0,1-1.3-.22,3.26,3.26,0,0,1-1-.61l.71-.79a2.58,2.58,0,0,0,1.58.57,1.36,1.36,0,0,0,.75-.18.59.59,0,0,0,.28-.52.68.68,0,0,0-.1-.4.91.91,0,0,0-.38-.27c-.17-.07-.46-.17-.84-.28a2.82,2.82,0,0,1-1.31-.67,1.54,1.54,0,0,1-.41-1.09,1.43,1.43,0,0,1,.28-.87,1.89,1.89,0,0,1,.79-.6,2.87,2.87,0,0,1,1.17-.22A3.31,3.31,0,0,1,129,196.27Zm-.61-3.51.54.62-1.53,1.37h-.88L125,193.38l.53-.62,1.43,1Z"/><path class="cls-1" d="M131.85,192.54l.57,1.1-2.48,1-.4-.71Zm-.13,3.2v5.82h-1.41v-5.82Z"/><path class="cls-1" d="M134.86,193.88a7.75,7.75,0,0,1,.69,1.66,7.83,7.83,0,0,1-.69,6c-.28.47-.65,1-1.13,1.69l-.89-.6a9.51,9.51,0,0,0,1.18-2.27,9.64,9.64,0,0,0,0-5.29,9.7,9.7,0,0,0-1.18-2.27l.89-.61C134.21,192.85,134.58,193.42,134.86,193.88Z"/><path class="cls-2" d="M203.39,99.06a2.12,2.12,0,0,1,.81,1.82,2.25,2.25,0,0,1-.81,1.89,3.46,3.46,0,0,1-2.17.64h-.89v2.65h-1.45v-7.6h2.24A3.74,3.74,0,0,1,203.39,99.06Zm-1.1,2.93a1.37,1.37,0,0,0,.39-1.11c0-.91-.52-1.36-1.57-1.36h-.78v2.8h.78A1.82,1.82,0,0,0,202.29,102Z"/><path class="cls-2" d="M209.74,105a.64.64,0,0,0,.34.24l-.3.94A1.84,1.84,0,0,1,209,106a1.24,1.24,0,0,1-.48-.61,1.87,1.87,0,0,1-.74.66,2.33,2.33,0,0,1-1,.21,1.87,1.87,0,0,1-1.37-.49,1.74,1.74,0,0,1-.51-1.3,1.69,1.69,0,0,1,.69-1.45,3.32,3.32,0,0,1,2-.5h.73v-.33a1,1,0,0,0-.26-.78,1.19,1.19,0,0,0-.83-.23,4.81,4.81,0,0,0-1.54.31l-.33-1a5.87,5.87,0,0,1,2.11-.42c1.49,0,2.24.67,2.24,2v2.45A1,1,0,0,0,209.74,105Zm-1.49-8,.57,1.1-2.48,1-.4-.72Zm0,7.44v-1.17h-.58c-.91,0-1.37.33-1.37,1a.94.94,0,0,0,.21.65.81.81,0,0,0,.62.23A1.25,1.25,0,0,0,208.25,104.48Z"/><path class="cls-2" d="M214.67,105.78a2,2,0,0,1-.68.33,3,3,0,0,1-.78.11,1.72,1.72,0,0,1-1.3-.49,2,2,0,0,1-.45-1.41v-3.07h-.91v-1h.91V99l1.41-.16v1.45h1.35l-.14,1h-1.21v3a1,1,0,0,0,.15.61.54.54,0,0,0,.47.19,1.43,1.43,0,0,0,.69-.21Z"/><path class="cls-2" d="M218.28,106.08a3.52,3.52,0,0,1-1.07,1.68,3.3,3.3,0,0,1-2,.69l-.15-1a3.44,3.44,0,0,0,.92-.25,1.41,1.41,0,0,0,.56-.42,3,3,0,0,0,.38-.7h-.48l-1.85-5.82h1.5l1.26,4.88,1.32-4.88h1.45Zm0-9,.57,1.1-2.49,1-.39-.72Z"/><path class="cls-2" d="M225.19,97.75v8.31h-1.41V97.91Zm3.49,2.49-1.94,2.56,2.12,3.26h-1.61l-2-3.18,1.95-2.64Z"/><path class="cls-2" d="M234.33,100.24l-1.89,5.82h-1.68l-1.93-5.82h1.53l1.24,4.68,1.28-4.68Z"/><path class="cls-2" d="M236.54,97.54a.84.84,0,0,1,.24.61.81.81,0,0,1-.24.6.9.9,0,0,1-.65.24.88.88,0,0,1-.63-.24.82.82,0,0,1-.25-.6.85.85,0,0,1,.88-.86A.87.87,0,0,1,236.54,97.54Zm.07,2.7v5.82H235.2v-5.82Z"/><path class="cls-2" d="M242.62,100.54a1.84,1.84,0,0,1,.43,1.3v4.22h-1.4v-4a1.05,1.05,0,0,0-.19-.72.65.65,0,0,0-.53-.21,1,1,0,0,0-.65.22,2.38,2.38,0,0,0-.57.66v4H238.3v-5.82h1.22l.11.76a2.17,2.17,0,0,1,1.77-.93A1.6,1.6,0,0,1,242.62,100.54Z"/><path class="cls-2" d="M248,105.78a2.2,2.2,0,0,1-.69.33,2.88,2.88,0,0,1-.78.11,1.73,1.73,0,0,1-1.3-.49,2,2,0,0,1-.45-1.41v-3.07h-.91v-1h.91V99l1.41-.16v1.45h1.35l-.14,1h-1.21v3a1,1,0,0,0,.15.61.54.54,0,0,0,.47.19,1.43,1.43,0,0,0,.69-.21Z"/><path class="cls-2" d="M250.15,97.54a.81.81,0,0,1,.25.61.79.79,0,0,1-.25.6.88.88,0,0,1-.64.24.85.85,0,0,1-.63-.24.79.79,0,0,1-.25-.6.81.81,0,0,1,.25-.61.82.82,0,0,1,.63-.25A.84.84,0,0,1,250.15,97.54Zm.08,2.7v5.82h-1.41v-5.82Z"/><path class="cls-2" d="M252.24,105.83a1.53,1.53,0,0,1-.38-1.1V97.91l1.41-.16v6.93c0,.27.11.41.33.41a1,1,0,0,0,.33-.06l.3,1a2.15,2.15,0,0,1-.94.2A1.42,1.42,0,0,1,252.24,105.83Z"/><path class="cls-2" d="M262.56,100.88a4.07,4.07,0,0,1,.52,2.25,4.4,4.4,0,0,1-.27,1.6,2.37,2.37,0,0,1-.79,1.1,2,2,0,0,1-1.23.39,1.81,1.81,0,0,1-1.47-.64v2.72l-1.41.15v-8.21h1.24l.07.71a2.41,2.41,0,0,1,.78-.66,2.19,2.19,0,0,1,.93-.22A1.82,1.82,0,0,1,262.56,100.88Zm-.95,2.26a3.28,3.28,0,0,0-.27-1.54.91.91,0,0,0-.83-.47,1.17,1.17,0,0,0-.66.21,2,2,0,0,0-.53.58v2.62a1.24,1.24,0,0,0,1.07.6C261.2,105.14,261.61,104.48,261.61,103.14Z"/><path class="cls-2" d="M267.65,97.26l.54.61-1.53,1.38h-.88l-1.53-1.38.54-.61,1.43,1Zm.27,2.9-.24,1.36a2.29,2.29,0,0,0-.51-.06,1,1,0,0,0-.82.37,2.81,2.81,0,0,0-.47,1.12v3.11h-1.41v-5.82h1.22l.13,1.14a2,2,0,0,1,.61-1,1.39,1.39,0,0,1,.91-.34A2.08,2.08,0,0,1,267.92,100.16Z"/><path class="cls-2" d="M270.34,97l.58,1.1-2.49,1-.4-.72Zm-.13,3.2v5.82H268.8v-5.82Z"/><path class="cls-2" d="M273.3,105.54a3.49,3.49,0,0,1-.24,1.4,2.27,2.27,0,0,1-.7.88,5.36,5.36,0,0,1-1.18.62l-.45-1a3,3,0,0,0,.67-.39,1.26,1.26,0,0,0,.37-.52,2.67,2.67,0,0,0,.12-.88v-5.39h1.41Zm-.07-8a.81.81,0,0,1,.25.61.79.79,0,0,1-.25.6.88.88,0,0,1-.64.24.85.85,0,0,1-.63-.24.79.79,0,0,1-.25-.6.81.81,0,0,1,.25-.61.82.82,0,0,1,.63-.25A.84.84,0,0,1,273.23,97.54Z"/><path class="cls-2" d="M282.29,100.55a1.89,1.89,0,0,1,.42,1.29v4.22H281.3v-4c0-.62-.21-.93-.64-.93a.91.91,0,0,0-.59.21,3.12,3.12,0,0,0-.51.67v4h-1.41v-4q0-.93-.63-.93a.88.88,0,0,0-.6.21,2.59,2.59,0,0,0-.51.67v4H275v-5.82h1.22l.11.76a2,2,0,0,1,1.68-.93,1.52,1.52,0,0,1,.88.26,1.45,1.45,0,0,1,.53.72,2.6,2.6,0,0,1,.77-.72,1.89,1.89,0,0,1,1-.26A1.41,1.41,0,0,1,282.29,100.55Z"/><path class="cls-2" d="M289,106.06h-1.22l-.08-.82a2.12,2.12,0,0,1-.75.74,2.09,2.09,0,0,1-1,.24,1.51,1.51,0,0,1-1.2-.48,1.89,1.89,0,0,1-.43-1.32v-4.18h1.41v4a1.17,1.17,0,0,0,.17.71.7.7,0,0,0,.55.2,1.42,1.42,0,0,0,1.17-.82v-4.09H289Zm-1.34-9A1.31,1.31,0,0,1,288,98a1.28,1.28,0,0,1-.39.94,1.34,1.34,0,0,1-1,.38,1.37,1.37,0,0,1-1-.38,1.33,1.33,0,0,1,0-1.88,1.55,1.55,0,0,1,2,0Zm-1.41.51a.6.6,0,0,0-.14.43.57.57,0,0,0,.14.43.54.54,0,0,0,.4.15.49.49,0,0,0,.38-.15.57.57,0,0,0,.14-.43.6.6,0,0,0-.14-.43.49.49,0,0,0-.38-.15A.54.54,0,0,0,286.25,97.56Z"/><path class="cls-2" d="M217,108.29a9.28,9.28,0,0,0-1.18,2.26,9.71,9.71,0,0,0,0,5.31,9.1,9.1,0,0,0,1.18,2.26l-.9.61c-.48-.67-.85-1.24-1.13-1.7a7.37,7.37,0,0,1-.68-1.65,8.59,8.59,0,0,1,0-4.35,7.37,7.37,0,0,1,.68-1.65c.28-.46.65-1,1.13-1.7Z"/><path class="cls-2" d="M222.4,111.54a1.84,1.84,0,0,1,.44,1.3v4.22h-1.41v-4a1.11,1.11,0,0,0-.18-.72.67.67,0,0,0-.54-.21,1,1,0,0,0-.65.22,2.56,2.56,0,0,0-.57.66v4h-1.41v-5.82h1.22l.11.76a2.17,2.17,0,0,1,1.78-.93A1.57,1.57,0,0,1,222.4,111.54Z"/><path class="cls-2" d="M229.22,114.58h-3.66a1.86,1.86,0,0,0,.44,1.21,1.37,1.37,0,0,0,1,.36,2.19,2.19,0,0,0,.73-.12,4,4,0,0,0,.73-.39l.58.8a3.38,3.38,0,0,1-2.16.78,2.61,2.61,0,0,1-2.05-.81,3.24,3.24,0,0,1-.72-2.22,4,4,0,0,1,.31-1.61,2.52,2.52,0,0,1,.89-1.11,2.45,2.45,0,0,1,1.39-.4,2.37,2.37,0,0,1,1.89.78,3.23,3.23,0,0,1,.67,2.16Q229.25,114.12,229.22,114.58Zm-1.37-1c0-1-.38-1.53-1.13-1.53a1,1,0,0,0-.81.38,2.36,2.36,0,0,0-.35,1.22h2.29Z"/><path class="cls-2" d="M231.91,116.54a3.31,3.31,0,0,1-.25,1.4,2.1,2.1,0,0,1-.7.88,5.26,5.26,0,0,1-1.17.62l-.45-1A3.3,3.3,0,0,0,230,118a1.26,1.26,0,0,0,.37-.52,2.67,2.67,0,0,0,.12-.88v-5.39h1.41Zm-.07-8a.85.85,0,0,1,.25.61.82.82,0,0,1-.25.6,1,1,0,0,1-1.28,0,.81.81,0,0,1-.24-.6.84.84,0,0,1,.24-.61.94.94,0,0,1,1.28,0Z"/><path class="cls-2" d="M238.2,111.88a3.87,3.87,0,0,1,.57,2.26,4.19,4.19,0,0,1-.28,1.6,2.43,2.43,0,0,1-.79,1.09,2,2,0,0,1-1.22.39,1.8,1.8,0,0,1-.87-.2,2,2,0,0,1-.67-.56l-.09.6H233.6v-8.15l1.41-.16v3.15a1.94,1.94,0,0,1,.7-.61,1.88,1.88,0,0,1,.91-.22A1.83,1.83,0,0,1,238.2,111.88Zm-1.22,3.8a2.92,2.92,0,0,0,.32-1.54,3,3,0,0,0-.3-1.56.93.93,0,0,0-.83-.45,1.38,1.38,0,0,0-1.16.79v2.57a1.42,1.42,0,0,0,.47.5,1.11,1.11,0,0,0,.61.18A1,1,0,0,0,237,115.68Z"/><path class="cls-2" d="M244.54,111.89a3.3,3.3,0,0,1,.72,2.25,3.7,3.7,0,0,1-.33,1.61,2.51,2.51,0,0,1-.94,1.09,2.76,2.76,0,0,1-1.46.38,2.56,2.56,0,0,1-2-.82,3.3,3.3,0,0,1-.72-2.26,3.66,3.66,0,0,1,.33-1.6,2.39,2.39,0,0,1,.95-1.08,2.69,2.69,0,0,1,1.47-.39A2.55,2.55,0,0,1,244.54,111.89Zm-3.27,2.25a2.91,2.91,0,0,0,.32,1.53,1.15,1.15,0,0,0,1.88,0,2.9,2.9,0,0,0,.31-1.52,2.86,2.86,0,0,0-.31-1.51,1,1,0,0,0-.93-.49C241.69,112.14,241.27,112.81,241.27,114.14Z"/><path class="cls-2" d="M250.9,111.54a1.86,1.86,0,0,1,.44,1.3v4.22h-1.41v-4a1.11,1.11,0,0,0-.18-.72.67.67,0,0,0-.54-.21,1.06,1.06,0,0,0-.65.22,2.9,2.9,0,0,0-.57.65v4.06h-1.41v-8.14l1.41-.15v3.16a2.14,2.14,0,0,1,1.7-.86A1.6,1.6,0,0,1,250.9,111.54Z"/><path class="cls-2" d="M257.38,116a.64.64,0,0,0,.34.24l-.3.94a1.84,1.84,0,0,1-.81-.24,1.24,1.24,0,0,1-.48-.61,1.87,1.87,0,0,1-.74.66,2.33,2.33,0,0,1-1,.21,1.87,1.87,0,0,1-1.37-.49,1.74,1.74,0,0,1-.51-1.3,1.69,1.69,0,0,1,.69-1.45,3.32,3.32,0,0,1,2-.5h.73v-.33a1,1,0,0,0-.26-.78,1.19,1.19,0,0,0-.83-.23,4.81,4.81,0,0,0-1.54.31l-.33-1a5.87,5.87,0,0,1,2.11-.42c1.49,0,2.24.67,2.24,2v2.45A1,1,0,0,0,257.38,116Zm-1.49-.54v-1.17h-.58c-.91,0-1.37.33-1.37,1a.94.94,0,0,0,.21.65.81.81,0,0,0,.62.23A1.25,1.25,0,0,0,255.89,115.48Z"/><path class="cls-2" d="M262.31,116.78a2,2,0,0,1-.68.33,3,3,0,0,1-.78.11,1.73,1.73,0,0,1-1.3-.49,2,2,0,0,1-.45-1.41v-3.07h-.91v-1h.91V110l1.41-.16v1.45h1.35l-.14,1h-1.21v3a1,1,0,0,0,.15.61.54.54,0,0,0,.47.19,1.43,1.43,0,0,0,.69-.21Z"/><path class="cls-2" d="M267,111.77l-.55.82a2.76,2.76,0,0,0-1.46-.47,1.1,1.1,0,0,0-.65.16.46.46,0,0,0-.23.42.52.52,0,0,0,.1.33.85.85,0,0,0,.35.25c.18.07.43.16.77.26a3.32,3.32,0,0,1,1.4.67,1.49,1.49,0,0,1,.46,1.16,1.56,1.56,0,0,1-.71,1.36,3,3,0,0,1-1.74.49,3.64,3.64,0,0,1-1.31-.22,3.43,3.43,0,0,1-1-.6l.71-.8a2.53,2.53,0,0,0,1.58.58,1.4,1.4,0,0,0,.76-.19.6.6,0,0,0,.28-.52.68.68,0,0,0-.11-.4.78.78,0,0,0-.37-.26,7.31,7.31,0,0,0-.84-.28,2.78,2.78,0,0,1-1.31-.68,1.49,1.49,0,0,1-.42-1.08,1.39,1.39,0,0,1,.28-.87,1.89,1.89,0,0,1,.79-.61,3.05,3.05,0,0,1,1.17-.22A3.22,3.22,0,0,1,267,111.77Zm-.6-3.51.53.61-1.52,1.38h-.88L263,108.87l.54-.61,1.43,1Z"/><path class="cls-2" d="M269.88,108l.57,1.1-2.48,1-.4-.72Zm-.13,3.2v5.82h-1.41v-5.82Z"/><path class="cls-2" d="M272.89,109.38a7.38,7.38,0,0,1,.69,1.65,8.9,8.9,0,0,1,0,4.35,7,7,0,0,1-.69,1.65,19.74,19.74,0,0,1-1.13,1.7l-.89-.61a9.1,9.1,0,0,0,1.18-2.26,8.31,8.31,0,0,0,.37-2.65,8.22,8.22,0,0,0-.37-2.65,9.33,9.33,0,0,0-1.18-2.27l.89-.61A19.74,19.74,0,0,1,272.89,109.38Z"/><path class="cls-3" d="M230,130.44l-.15,1.16h-2V138h-1.46V131.6h-2v-1.16Z"/><path class="cls-3" d="M234.08,129.24l.54.62-1.53,1.37h-.88l-1.53-1.37.54-.62,1.43,1Zm.28,2.91-.24,1.36a2.4,2.4,0,0,0-.52-.07,1,1,0,0,0-.81.37,2.85,2.85,0,0,0-.48,1.13V138H230.9v-5.82h1.23l.13,1.15a2.18,2.18,0,0,1,.6-1,1.4,1.4,0,0,1,.91-.33A1.83,1.83,0,0,1,234.36,132.15Z"/><path class="cls-3" d="M240,135.57h-3.65a1.83,1.83,0,0,0,.44,1.21,1.37,1.37,0,0,0,1,.36,1.92,1.92,0,0,0,.72-.13,3.08,3.08,0,0,0,.73-.39l.58.81a3.33,3.33,0,0,1-2.15.78,2.59,2.59,0,0,1-2.06-.82,3.22,3.22,0,0,1-.72-2.22,4.08,4.08,0,0,1,.31-1.6,2.59,2.59,0,0,1,.89-1.11,2.67,2.67,0,0,1,3.28.37A3.2,3.2,0,0,1,240,135Q240,135.1,240,135.57Zm-1.36-1q0-1.53-1.14-1.53a1,1,0,0,0-.81.38,2.24,2.24,0,0,0-.34,1.21h2.29Z"/><path class="cls-3" d="M244.61,137.77a2.59,2.59,0,0,1-.69.33,2.87,2.87,0,0,1-.77.11,1.76,1.76,0,0,1-1.31-.49,2,2,0,0,1-.44-1.42v-3.06h-.91v-1h.91v-1.28l1.41-.17v1.45h1.35l-.14,1h-1.21v3a1.09,1.09,0,0,0,.14.62.58.58,0,0,0,.47.18,1.53,1.53,0,0,0,.7-.2Z"/><path class="cls-3" d="M246.94,129l.57,1.1-2.48,1-.4-.71Zm-.13,3.2V138H245.4v-5.82Z"/><path class="cls-3" d="M252.66,129.74V138h-1.41v-8.15Zm3.49,2.48-1.94,2.57,2.13,3.25h-1.62l-2-3.18,1.94-2.64Z"/><path class="cls-3" d="M261.8,132.22,259.91,138h-1.68l-1.93-5.82h1.53l1.25,4.69,1.27-4.69Z"/><path class="cls-3" d="M264,129.52a.86.86,0,0,1,.25.61.83.83,0,0,1-.25.61.9.9,0,0,1-.65.24.88.88,0,0,1-.63-.24.83.83,0,0,1-.25-.61.86.86,0,0,1,.25-.61.88.88,0,0,1,.63-.24A.9.9,0,0,1,264,129.52Zm.07,2.7V138h-1.41v-5.82Z"/><path class="cls-3" d="M270.09,132.53a1.83,1.83,0,0,1,.44,1.3V138h-1.41v-4a1.15,1.15,0,0,0-.18-.73.67.67,0,0,0-.54-.21,1,1,0,0,0-.65.23,2.67,2.67,0,0,0-.57.65v4h-1.41v-5.82H267l.1.76a2.19,2.19,0,0,1,1.78-.92A1.54,1.54,0,0,1,270.09,132.53Z"/><path class="cls-3" d="M275.5,137.77a2.74,2.74,0,0,1-.69.33,2.88,2.88,0,0,1-.78.11,1.73,1.73,0,0,1-1.3-.49,2,2,0,0,1-.44-1.42v-3.06h-.92v-1h.92v-1.28l1.4-.17v1.45h1.36l-.15,1h-1.21v3a1,1,0,0,0,.15.62.58.58,0,0,0,.47.18,1.53,1.53,0,0,0,.69-.2Z"/><path class="cls-3" d="M277.63,129.52a.85.85,0,0,1,.24.61.82.82,0,0,1-.24.61.9.9,0,0,1-.65.24.88.88,0,0,1-.63-.24.83.83,0,0,1-.25-.61.86.86,0,0,1,.25-.61.88.88,0,0,1,.63-.24A.9.9,0,0,1,277.63,129.52Zm.07,2.7V138h-1.41v-5.82Z"/><path class="cls-3" d="M279.72,137.82a1.5,1.5,0,0,1-.38-1.11v-6.82l1.41-.15v6.93c0,.27.1.4.33.4a.86.86,0,0,0,.32,0l.3,1a2.25,2.25,0,0,1-.93.2A1.39,1.39,0,0,1,279.72,137.82Z"/><path class="cls-3" d="M234.27,140.28a8.83,8.83,0,0,0-1.19,2.26,9.67,9.67,0,0,0,0,5.3,8.88,8.88,0,0,0,1.19,2.27l-.91.6c-.47-.66-.85-1.23-1.12-1.7a6.61,6.61,0,0,1-.69-1.65,8.55,8.55,0,0,1,0-4.34,6.94,6.94,0,0,1,.69-1.65c.27-.47.65-1,1.12-1.7Z"/><path class="cls-3" d="M240,143.86a4.13,4.13,0,0,1,.53,2.26,4.44,4.44,0,0,1-.27,1.6,2.43,2.43,0,0,1-.8,1.09,1.93,1.93,0,0,1-1.23.4,1.84,1.84,0,0,1-1.47-.64v2.72l-1.4.15v-8.22h1.23l.08.72a2,2,0,0,1,.78-.66,2,2,0,0,1,.92-.22A1.83,1.83,0,0,1,240,143.86Zm-1,2.27a3.26,3.26,0,0,0-.27-1.54.9.9,0,0,0-.83-.48,1.18,1.18,0,0,0-.66.22,1.87,1.87,0,0,0-.53.58v2.61a1.24,1.24,0,0,0,1.07.61C238.66,148.13,239.07,147.46,239.07,146.13Z"/><path class="cls-3" d="M245.39,143.15l-.25,1.36a2.24,2.24,0,0,0-.51-.07,1,1,0,0,0-.82.37,2.86,2.86,0,0,0-.47,1.13V149h-1.41v-5.82h1.22l.13,1.15a2.19,2.19,0,0,1,.61-1,1.38,1.38,0,0,1,.91-.33A1.83,1.83,0,0,1,245.39,143.15Z"/><path class="cls-3" d="M250.92,149H249.7l-.08-.81a2.09,2.09,0,0,1-.75.73,2,2,0,0,1-1,.25,1.55,1.55,0,0,1-1.21-.48,2,2,0,0,1-.42-1.33v-4.18h1.41v4a1.14,1.14,0,0,0,.17.7.65.65,0,0,0,.54.21,1.42,1.42,0,0,0,1.18-.82v-4.1h1.41Zm-1.34-9a1.29,1.29,0,0,1,.38.94,1.24,1.24,0,0,1-.39.93,1.36,1.36,0,0,1-1,.39,1.37,1.37,0,0,1-1-.39,1.24,1.24,0,0,1-.39-.93,1.26,1.26,0,0,1,.39-.94,1.55,1.55,0,0,1,2,0Zm-1.41.51a.59.59,0,0,0-.14.43.56.56,0,0,0,.14.42.58.58,0,0,0,.78,0,.56.56,0,0,0,.14-.42.59.59,0,0,0-.14-.43.58.58,0,0,0-.78,0Z"/><path class="cls-3" d="M259.91,143.54a1.94,1.94,0,0,1,.41,1.29V149h-1.4v-4c0-.62-.22-.94-.64-.94a.88.88,0,0,0-.59.22,2.36,2.36,0,0,0-.51.66v4h-1.41v-4c0-.62-.21-.94-.64-.94a.92.92,0,0,0-.6.22,2.8,2.8,0,0,0-.51.66v4h-1.41v-5.82h1.22l.11.76a2,2,0,0,1,1.69-.92,1.42,1.42,0,0,1,.87.26,1.35,1.35,0,0,1,.53.72,2.8,2.8,0,0,1,.78-.73,1.85,1.85,0,0,1,1-.25A1.43,1.43,0,0,1,259.91,143.54Z"/><path class="cls-3" d="M266.7,146.57h-3.65a1.88,1.88,0,0,0,.44,1.21,1.37,1.37,0,0,0,1,.36,2,2,0,0,0,.73-.13,2.86,2.86,0,0,0,.72-.39l.59.81a3.38,3.38,0,0,1-2.16.78,2.57,2.57,0,0,1-2.05-.82,3.22,3.22,0,0,1-.72-2.22,3.9,3.9,0,0,1,.31-1.6,2.52,2.52,0,0,1,.89-1.11,2.36,2.36,0,0,1,1.38-.4,2.4,2.4,0,0,1,1.9.77,3.25,3.25,0,0,1,.67,2.17C266.74,146.07,266.73,146.26,266.7,146.57Zm-1.06-6.33.54.62-1.53,1.37h-.88l-1.53-1.37.54-.62,1.43,1Zm-.3,5.35c0-1-.38-1.53-1.13-1.53a1,1,0,0,0-.81.38,2.23,2.23,0,0,0-.35,1.21h2.29Z"/><path class="cls-3" d="M271.46,143.15l-.25,1.36a2.31,2.31,0,0,0-.51-.07,1,1,0,0,0-.82.37,3,3,0,0,0-.47,1.13V149H268v-5.82h1.22l.13,1.15a2.19,2.19,0,0,1,.61-1,1.38,1.38,0,0,1,.91-.33A1.83,1.83,0,0,1,271.46,143.15Z"/><path class="cls-3" d="M273.78,141.36a6.94,6.94,0,0,1,.69,1.65,8.94,8.94,0,0,1,0,4.36,6.94,6.94,0,0,1-.69,1.65,19.79,19.79,0,0,1-1.13,1.69l-.89-.6a9.16,9.16,0,0,0,1.18-2.27,9.64,9.64,0,0,0,0-5.29,9.33,9.33,0,0,0-1.18-2.27l.89-.61A19.79,19.79,0,0,1,273.78,141.36Z"/><line class="cls-4" x1="52.55" y1="246.57" x2="590.37" y2="246.57"/><line class="cls-4" x1="52.55" y1="205.37" x2="590.37" y2="205.37"/><line class="cls-4" x1="52.55" y1="164.16" x2="590.37" y2="164.16"/><line class="cls-4" x1="52.55" y1="122.96" x2="590.37" y2="122.96"/><g class="cls-5"><line class="cls-4" x1="52.55" y1="267.17" x2="590.37" y2="267.17"/><line class="cls-4" x1="52.55" y1="225.97" x2="590.37" y2="225.97"/><line class="cls-4" x1="52.55" y1="184.76" x2="590.37" y2="184.76"/><line class="cls-4" x1="52.55" y1="143.56" x2="590.37" y2="143.56"/><line class="cls-4" x1="52.55" y1="102.35" x2="590.37" y2="102.35"/></g><line class="cls-4" x1="52.55" y1="81.75" x2="590.37" y2="81.75"/><line class="cls-4" x1="52.55" y1="287.78" x2="590.37" y2="287.78"/><g class="cls-6"><path d="M18,15.54l-2.87,9.68h-2.2l-3-9.68h2l2.1,8,2-8Z"/><path d="M22.45,25.25a4.62,4.62,0,0,1-1.36,2.13,4.29,4.29,0,0,1-2.49.89L18.41,27a4.4,4.4,0,0,0,1.17-.32,1.77,1.77,0,0,0,.71-.54,3.48,3.48,0,0,0,.49-.89h-.62l-2.35-7.41h1.91L21.33,24,23,17.81h1.84Z"/><path d="M30.8,18.48l-.7,1.05a3.46,3.46,0,0,0-1.86-.6,1.38,1.38,0,0,0-.82.21.61.61,0,0,0-.3.53.64.64,0,0,0,.13.42,1,1,0,0,0,.45.32,7.26,7.26,0,0,0,1,.33,4.28,4.28,0,0,1,1.78.85A1.91,1.91,0,0,1,31,23.08a2,2,0,0,1-.89,1.73,3.86,3.86,0,0,1-2.23.62,4.86,4.86,0,0,1-1.66-.28A4,4,0,0,1,25,24.38l.89-1a3.3,3.3,0,0,0,2,.73,1.71,1.71,0,0,0,1-.24.77.77,0,0,0,.35-.66.88.88,0,0,0-.13-.51,1.11,1.11,0,0,0-.47-.33A9.48,9.48,0,0,0,27.51,22a3.59,3.59,0,0,1-1.66-.86,2,2,0,0,1-.18-2.49,2.5,2.5,0,0,1,1-.77,3.84,3.84,0,0,1,1.49-.28A4.19,4.19,0,0,1,30.8,18.48ZM30,14l.69.78-1.95,1.75H27.65L25.71,14.8l.68-.78,1.82,1.23Z"/><path d="M37.36,18.48l-.7,1.05a3.52,3.52,0,0,0-1.87-.6,1.38,1.38,0,0,0-.82.21.61.61,0,0,0-.3.53.7.7,0,0,0,.13.42,1.08,1.08,0,0,0,.46.32,6.58,6.58,0,0,0,1,.33,4.22,4.22,0,0,1,1.78.85,1.91,1.91,0,0,1,.58,1.49,2,2,0,0,1-.89,1.73,3.86,3.86,0,0,1-2.23.62,4.86,4.86,0,0,1-1.66-.28,4,4,0,0,1-1.29-.77l.89-1a3.3,3.3,0,0,0,2,.73,1.71,1.71,0,0,0,1-.24.75.75,0,0,0,.36-.66.88.88,0,0,0-.14-.51,1.05,1.05,0,0,0-.47-.33A9.89,9.89,0,0,0,34.07,22a3.58,3.58,0,0,1-1.67-.86,1.93,1.93,0,0,1-.53-1.38,1.84,1.84,0,0,1,.36-1.11,2.4,2.4,0,0,1,1-.77,3.88,3.88,0,0,1,1.49-.28A4.24,4.24,0,0,1,37.36,18.48ZM36.59,14l.68.78-1.94,1.75H34.21l-2-1.75L33,14l1.82,1.23Z"/><path d="M41,13.74l.73,1.4L38.57,16.4l-.5-.91Zm-.17,4.07v7.41H39.05V17.81Z"/><path d="M52.41,18.62a5.3,5.3,0,0,1,.67,2.87,5.59,5.59,0,0,1-.35,2,3,3,0,0,1-1,1.39,2.53,2.53,0,0,1-1.58.51,2.32,2.32,0,0,1-1.86-.81v3.45l-1.79.2V17.81h1.57l.09.91a2.94,2.94,0,0,1,1-.84,2.65,2.65,0,0,1,1.17-.28A2.32,2.32,0,0,1,52.41,18.62ZM51.2,21.51a4,4,0,0,0-.35-2A1.13,1.13,0,0,0,49.8,19a1.45,1.45,0,0,0-.84.27,2.49,2.49,0,0,0-.67.73v3.34a1.59,1.59,0,0,0,1.36.77C50.68,24.06,51.2,23.21,51.2,21.51Z"/><path d="M58.89,14l.68.78-1.94,1.75H56.51L54.56,14.8l.69-.78,1.82,1.23Zm.35,3.69-.31,1.74a2.48,2.48,0,0,0-.66-.08,1.22,1.22,0,0,0-1,.47,3.48,3.48,0,0,0-.61,1.43v3.95H54.84V17.81H56.4l.16,1.46A2.8,2.8,0,0,1,57.33,18a1.79,1.79,0,0,1,1.17-.42A2.89,2.89,0,0,1,59.24,17.71Z"/><path d="M62.32,13.74l.73,1.4L59.88,16.4l-.5-.91Zm-.17,4.07v7.41H60.36V17.81Z"/><path d="M66.31,24.56A4.38,4.38,0,0,1,66,26.35a2.71,2.71,0,0,1-.89,1.11,7.51,7.51,0,0,1-1.49.8L63,27a4.09,4.09,0,0,0,.86-.49,1.55,1.55,0,0,0,.46-.67,3.1,3.1,0,0,0,.17-1.12V17.81h1.79Zm-.09-10.18a1,1,0,0,1,.31.77,1,1,0,0,1-.31.77,1.12,1.12,0,0,1-.82.31,1.09,1.09,0,0,1-.81-.31,1,1,0,0,1-.31-.77,1,1,0,0,1,.31-.77,1.1,1.1,0,0,1,.81-.32A1.12,1.12,0,0,1,66.22,14.38Z"/><path d="M77.75,18.21a2.46,2.46,0,0,1,.53,1.65v5.36H76.49V20.14c0-.8-.28-1.19-.82-1.19a1.11,1.11,0,0,0-.75.27,3.39,3.39,0,0,0-.65.85v5.15H72.48V20.14c0-.8-.27-1.19-.81-1.19a1.12,1.12,0,0,0-.76.27,3.17,3.17,0,0,0-.65.85v5.15h-1.8V17.81H70l.14,1A2.52,2.52,0,0,1,72.3,17.6a1.87,1.87,0,0,1,1.11.33,1.82,1.82,0,0,1,.68.92,3.6,3.6,0,0,1,1-.93,2.41,2.41,0,0,1,1.24-.32A1.84,1.84,0,0,1,77.75,18.21Z"/><path d="M83.86,25.25a4.61,4.61,0,0,1-1.35,2.13,4.3,4.3,0,0,1-2.5.89L79.83,27A4.4,4.4,0,0,0,81,26.65a1.84,1.84,0,0,0,.71-.54,3.81,3.81,0,0,0,.49-.89h-.62l-2.35-7.41h1.9L82.74,24l1.68-6.22h1.85Z"/><path d="M96.77,18.62a5.21,5.21,0,0,1,.67,2.87,5.59,5.59,0,0,1-.34,2,3,3,0,0,1-1,1.39,2.51,2.51,0,0,1-1.57.51,2.29,2.29,0,0,1-1.86-.81v3.45l-1.8.2V17.81h1.57l.1.91a3,3,0,0,1,1-.84,2.73,2.73,0,0,1,1.18-.28A2.31,2.31,0,0,1,96.77,18.62Zm-1.2,2.89a4.12,4.12,0,0,0-.35-2,1.15,1.15,0,0,0-1-.6,1.45,1.45,0,0,0-.84.27,2.36,2.36,0,0,0-.67.73v3.34a1.56,1.56,0,0,0,1.35.77Q95.57,24.06,95.57,21.51Z"/><path d="M103.6,17.71l-.3,1.74a2.59,2.59,0,0,0-.66-.08,1.24,1.24,0,0,0-1,.47,3.63,3.63,0,0,0-.6,1.43v3.95H99.21V17.81h1.55l.17,1.46A2.71,2.71,0,0,1,101.7,18a1.76,1.76,0,0,1,1.16-.42A2.83,2.83,0,0,1,103.6,17.71Z"/><path d="M110.34,22.07h-4.65a2.36,2.36,0,0,0,.56,1.54,1.73,1.73,0,0,0,1.26.46,2.54,2.54,0,0,0,.92-.16,4.28,4.28,0,0,0,.93-.5l.74,1a4.24,4.24,0,0,1-2.75,1,3.32,3.32,0,0,1-2.61-1,4.11,4.11,0,0,1-.91-2.83,5.07,5.07,0,0,1,.39-2,3.27,3.27,0,0,1,1.13-1.42,3.07,3.07,0,0,1,1.77-.51,3,3,0,0,1,2.4,1,4.06,4.06,0,0,1,.86,2.75C110.38,21.43,110.37,21.68,110.34,22.07Zm-1.74-1.25c0-1.29-.48-1.94-1.44-1.94a1.23,1.23,0,0,0-1,.48,2.89,2.89,0,0,0-.44,1.55h2.91Z"/><path d="M118.22,14.84V25.22h-1.58l-.13-.94a2.47,2.47,0,0,1-.89.84,2.59,2.59,0,0,1-3.31-.74,5,5,0,0,1-.73-2.86,5.16,5.16,0,0,1,.37-2,3.16,3.16,0,0,1,1-1.39,2.55,2.55,0,0,1,1.57-.51,2.59,2.59,0,0,1,1.87.8V14.65Zm-2.48,9a2.39,2.39,0,0,0,.69-.72V19.73a2.67,2.67,0,0,0-.65-.59A1.49,1.49,0,0,0,115,19a1.27,1.27,0,0,0-1.12.63,3.57,3.57,0,0,0-.42,1.93,3.89,3.89,0,0,0,.37,2,1.17,1.17,0,0,0,1.06.59A1.55,1.55,0,0,0,115.74,23.84Z"/><path d="M122.08,14.38a1,1,0,0,1,.31.77,1,1,0,0,1-.31.77,1.12,1.12,0,0,1-.82.31,1.09,1.09,0,0,1-.81-.31,1,1,0,0,1-.31-.77,1,1,0,0,1,.31-.77,1.1,1.1,0,0,1,.81-.32A1.12,1.12,0,0,1,122.08,14.38Zm.09,3.43v7.41h-1.79V17.81Z"/><path d="M126.11,14.65V25.22h-1.79V14.84Zm4.44,3.16-2.46,3.26,2.7,4.15h-2.06l-2.54-4,2.47-3.36Z"/><path d="M137.61,25.22h-1.55l-.1-1a2.69,2.69,0,0,1-1,.94,2.62,2.62,0,0,1-1.31.31,1.92,1.92,0,0,1-1.53-.61,2.47,2.47,0,0,1-.54-1.69V17.81h1.79v5.1a1.36,1.36,0,0,0,.22.89.82.82,0,0,0,.69.27,1.81,1.81,0,0,0,1.5-1.05V17.81h1.79Z"/><path d="M141.54,24.56a4.39,4.39,0,0,1-.31,1.79,2.8,2.8,0,0,1-.89,1.11,7.34,7.34,0,0,1-1.5.8L138.27,27a4,4,0,0,0,.85-.49,1.57,1.57,0,0,0,.47-.67,3.13,3.13,0,0,0,.16-1.12V17.81h1.79Zm-.09-10.18a1,1,0,0,1,.32.77,1,1,0,0,1-.32.77,1.1,1.1,0,0,1-.82.31,1.09,1.09,0,0,1-.8-.31,1,1,0,0,1-.32-.77,1,1,0,0,1,.32-.77,1.09,1.09,0,0,1,.8-.32A1.11,1.11,0,0,1,141.45,14.38Z"/><path d="M145.88,13.74l.73,1.4-3.16,1.26-.51-.91Zm-.16,4.07v7.41h-1.8V17.81Z"/><path d="M157.6,14.84V25.22H156l-.13-.94a2.47,2.47,0,0,1-.89.84,2.36,2.36,0,0,1-1.22.31,2.39,2.39,0,0,1-2.09-1.05,5,5,0,0,1-.73-2.86,5.35,5.35,0,0,1,.37-2,3.16,3.16,0,0,1,1-1.39,2.62,2.62,0,0,1,3.44.29V14.65Zm-2.48,9a2.28,2.28,0,0,0,.69-.72V19.73a2.67,2.67,0,0,0-.65-.59,1.49,1.49,0,0,0-.77-.19,1.27,1.27,0,0,0-1.12.63,3.57,3.57,0,0,0-.42,1.93,4,4,0,0,0,.37,2,1.18,1.18,0,0,0,1.06.59A1.55,1.55,0,0,0,155.12,23.84Z"/><path d="M165.34,18.65a4.16,4.16,0,0,1,.91,2.86,4.75,4.75,0,0,1-.42,2,3.23,3.23,0,0,1-1.2,1.38,3.48,3.48,0,0,1-1.86.49,3.29,3.29,0,0,1-2.57-1,4.24,4.24,0,0,1-.92-2.88,4.72,4.72,0,0,1,.42-2.05,3.22,3.22,0,0,1,1.21-1.37,3.54,3.54,0,0,1,1.87-.49A3.24,3.24,0,0,1,165.34,18.65Zm-4.17,2.86a3.65,3.65,0,0,0,.4,1.94,1.34,1.34,0,0,0,1.2.62,1.31,1.31,0,0,0,1.19-.63,3.63,3.63,0,0,0,.4-1.93,3.63,3.63,0,0,0-.4-1.93,1.31,1.31,0,0,0-1.18-.62C161.71,19,161.17,19.81,161.17,21.51Z"/><path d="M173.78,18.63a4.91,4.91,0,0,1,.73,2.88,5.67,5.67,0,0,1-.35,2,3.17,3.17,0,0,1-1,1.38,2.61,2.61,0,0,1-2.65.25,2.57,2.57,0,0,1-.86-.72l-.11.76h-1.59V14.84l1.8-.19v4a2.49,2.49,0,0,1,.88-.77,2.4,2.4,0,0,1,1.16-.28A2.33,2.33,0,0,1,173.78,18.63Zm-1.55,4.83a3.63,3.63,0,0,0,.41-1.95,3.84,3.84,0,0,0-.38-2,1.2,1.2,0,0,0-1.07-.58,1.74,1.74,0,0,0-1.46,1v3.28a1.71,1.71,0,0,0,.59.63,1.44,1.44,0,0,0,.78.22A1.27,1.27,0,0,0,172.23,23.46Z"/><path d="M180.67,17.71l-.31,1.74a2.46,2.46,0,0,0-.65-.08,1.24,1.24,0,0,0-1,.47,3.63,3.63,0,0,0-.6,1.43v3.95h-1.79V17.81h1.55l.17,1.46a2.71,2.71,0,0,1,.77-1.23,1.74,1.74,0,0,1,1.16-.42A2.83,2.83,0,0,1,180.67,17.71Z"/><path d="M185.38,25.25A4.55,4.55,0,0,1,184,27.38a4.29,4.29,0,0,1-2.49.89l-.18-1.3a4.43,4.43,0,0,0,1.16-.32,1.77,1.77,0,0,0,.71-.54,3.48,3.48,0,0,0,.49-.89h-.61l-2.36-7.41h1.91L184.26,24l1.68-6.22h1.84Zm-.06-11.51.73,1.4-3.17,1.26-.5-.91Z"/><path d="M197.19,17.81V19.1l-3.58,4.72h3.65l-.18,1.4h-5.53V23.93l3.6-4.72h-3.29v-1.4Z"/><path d="M204.78,14.84V25.22H203.2l-.13-.94a2.47,2.47,0,0,1-.89.84,2.36,2.36,0,0,1-1.22.31,2.39,2.39,0,0,1-2.09-1.05,5,5,0,0,1-.73-2.86,5.35,5.35,0,0,1,.37-2,3.16,3.16,0,0,1,1-1.39,2.62,2.62,0,0,1,3.44.29V14.65Zm-2.48,9a2.28,2.28,0,0,0,.69-.72V19.73a2.67,2.67,0,0,0-.65-.59,1.49,1.49,0,0,0-.77-.19,1.27,1.27,0,0,0-1.12.63,3.57,3.57,0,0,0-.42,1.93,4,4,0,0,0,.37,2,1.18,1.18,0,0,0,1.06.59A1.55,1.55,0,0,0,202.3,23.84Z"/><path d="M211.33,17.71,211,19.45a2.46,2.46,0,0,0-.65-.08,1.24,1.24,0,0,0-1,.47,3.63,3.63,0,0,0-.6,1.43v3.95h-1.79V17.81h1.55l.17,1.46a2.71,2.71,0,0,1,.77-1.23,1.76,1.76,0,0,1,1.16-.42A2.83,2.83,0,0,1,211.33,17.71Z"/><path d="M217.57,23.9a.85.85,0,0,0,.43.31l-.38,1.19a2.32,2.32,0,0,1-1-.31,1.54,1.54,0,0,1-.61-.77,2.43,2.43,0,0,1-.94.84,2.92,2.92,0,0,1-1.27.27A2.39,2.39,0,0,1,212,24.8a2.21,2.21,0,0,1-.65-1.65,2.13,2.13,0,0,1,.88-1.84,4.16,4.16,0,0,1,2.5-.64h.92v-.42a1.26,1.26,0,0,0-.33-1,1.59,1.59,0,0,0-1.05-.29,6.26,6.26,0,0,0-2,.39l-.42-1.22a7.56,7.56,0,0,1,2.69-.53c1.89,0,2.84.85,2.84,2.55v3.11A1.2,1.2,0,0,0,217.57,23.9Zm-1.9-.68v-1.5h-.74q-1.74,0-1.74,1.29a1.16,1.16,0,0,0,.27.82,1,1,0,0,0,.78.3A1.59,1.59,0,0,0,215.67,23.22Z"/><path d="M225.35,17.81l-2.41,7.41H220.8l-2.45-7.41h1.94l1.58,6,1.63-6Z"/><path d="M232,18.65a4.16,4.16,0,0,1,.91,2.86,4.75,4.75,0,0,1-.42,2,3.23,3.23,0,0,1-1.2,1.38,3.48,3.48,0,0,1-1.86.49,3.25,3.25,0,0,1-2.56-1,4.19,4.19,0,0,1-.93-2.88,4.72,4.72,0,0,1,.42-2.05,3.29,3.29,0,0,1,1.21-1.37,3.54,3.54,0,0,1,1.87-.49A3.22,3.22,0,0,1,232,18.65Zm-4.17,2.86a3.75,3.75,0,0,0,.4,1.94,1.46,1.46,0,0,0,2.4,0,3.74,3.74,0,0,0,.39-1.93,3.74,3.74,0,0,0-.39-1.93,1.33,1.33,0,0,0-1.19-.62C228.32,19,227.78,19.81,227.78,21.51Z"/><path d="M238.79,24.87a2.86,2.86,0,0,1-.88.42,3.64,3.64,0,0,1-1,.14,2.2,2.2,0,0,1-1.65-.62,2.56,2.56,0,0,1-.57-1.8V19.1h-1.16V17.81h1.16V16.17l1.79-.21v1.85h1.72L238,19.1h-1.54V23a1.26,1.26,0,0,0,.19.79.71.71,0,0,0,.59.24,1.82,1.82,0,0,0,.89-.27Z"/><path d="M245.29,18.2a2.33,2.33,0,0,1,.55,1.66v5.36h-1.79V20.14a1.47,1.47,0,0,0-.23-.93.87.87,0,0,0-.68-.26,1.3,1.3,0,0,0-.83.28,3.09,3.09,0,0,0-.72.84v5.15h-1.8V17.81h1.56l.14,1a2.75,2.75,0,0,1,2.25-1.18A2,2,0,0,1,245.29,18.2Z"/><path d="M249.89,13.74l.73,1.4-3.17,1.26-.5-.91Zm-.17,4.07v7.41h-1.79V17.81Z"/><path d="M260.35,18.48l-.7,1.05a3.52,3.52,0,0,0-1.87-.6,1.38,1.38,0,0,0-.82.21.61.61,0,0,0-.3.53.7.7,0,0,0,.13.42,1.08,1.08,0,0,0,.46.32,6.58,6.58,0,0,0,1,.33,4.22,4.22,0,0,1,1.78.85,1.91,1.91,0,0,1,.58,1.49,2,2,0,0,1-.89,1.73,3.86,3.86,0,0,1-2.23.62,4.9,4.9,0,0,1-1.66-.28,4,4,0,0,1-1.29-.77l.89-1a3.3,3.3,0,0,0,2,.73,1.71,1.71,0,0,0,1-.24.75.75,0,0,0,.36-.66.88.88,0,0,0-.14-.51,1,1,0,0,0-.47-.33,9.89,9.89,0,0,0-1.07-.36,3.58,3.58,0,0,1-1.67-.86,1.93,1.93,0,0,1-.53-1.38,1.84,1.84,0,0,1,.36-1.11,2.4,2.4,0,0,1,1-.77,3.88,3.88,0,0,1,1.49-.28A4.24,4.24,0,0,1,260.35,18.48Z"/><path d="M266.28,24.87a2.7,2.7,0,0,1-.87.42,3.64,3.64,0,0,1-1,.14,2.22,2.22,0,0,1-1.66-.62,2.56,2.56,0,0,1-.57-1.8V19.1H261V17.81h1.16V16.17L264,16v1.85h1.72l-.18,1.29H264V23a1.26,1.26,0,0,0,.19.79.69.69,0,0,0,.59.24,1.78,1.78,0,0,0,.88-.27Z"/><path d="M272.76,23.9a.85.85,0,0,0,.43.31l-.38,1.19a2.28,2.28,0,0,1-1-.31,1.54,1.54,0,0,1-.61-.77,2.39,2.39,0,0,1-.95.84,2.87,2.87,0,0,1-1.26.27,2.39,2.39,0,0,1-1.75-.63,2.21,2.21,0,0,1-.65-1.65,2.11,2.11,0,0,1,.88-1.84,4.14,4.14,0,0,1,2.5-.64h.92v-.42a1.26,1.26,0,0,0-.33-1,1.6,1.6,0,0,0-1.06-.29,6.31,6.31,0,0,0-2,.39l-.42-1.22a7.61,7.61,0,0,1,2.69-.53c1.9,0,2.84.85,2.84,2.55v3.11A1.19,1.19,0,0,0,272.76,23.9Zm-1.9-.68v-1.5h-.74q-1.74,0-1.74,1.29a1.16,1.16,0,0,0,.27.82,1,1,0,0,0,.78.3A1.59,1.59,0,0,0,270.86,23.22Z"/><path d="M280.53,17.81l-2.4,7.41H276l-2.45-7.41h2l1.58,6,1.63-6Z"/><path d="M291.05,18.62a5.21,5.21,0,0,1,.67,2.87,5.59,5.59,0,0,1-.34,2,3.11,3.11,0,0,1-1,1.39,2.51,2.51,0,0,1-1.58.51,2.32,2.32,0,0,1-1.86-.81v3.45l-1.79.2V17.81h1.57l.1.91a3,3,0,0,1,1-.84A2.69,2.69,0,0,1,289,17.6,2.31,2.31,0,0,1,291.05,18.62Zm-1.21,2.89a4,4,0,0,0-.35-2,1.13,1.13,0,0,0-1.05-.6,1.49,1.49,0,0,0-.84.27,2.49,2.49,0,0,0-.67.73v3.34a1.59,1.59,0,0,0,1.36.77C289.33,24.06,289.84,23.21,289.84,21.51Z"/><path d="M299.06,18.65a4.16,4.16,0,0,1,.92,2.86,4.75,4.75,0,0,1-.42,2,3.23,3.23,0,0,1-1.2,1.38,3.54,3.54,0,0,1-1.87.49,3.26,3.26,0,0,1-2.56-1,4.24,4.24,0,0,1-.92-2.88,4.72,4.72,0,0,1,.42-2.05,3.22,3.22,0,0,1,1.21-1.37,3.54,3.54,0,0,1,1.87-.49A3.2,3.2,0,0,1,299.06,18.65Zm-4.16,2.86a3.65,3.65,0,0,0,.4,1.94,1.45,1.45,0,0,0,2.39,0,3.63,3.63,0,0,0,.4-1.93,3.63,3.63,0,0,0-.4-1.93,1.31,1.31,0,0,0-1.18-.62C295.44,19,294.9,19.81,294.9,21.51Z"/><path d="M307.89,14.84V25.22h-1.58l-.13-.94a2.47,2.47,0,0,1-.89.84,2.36,2.36,0,0,1-1.22.31A2.39,2.39,0,0,1,302,24.38a5,5,0,0,1-.73-2.86,5.35,5.35,0,0,1,.37-2,3.16,3.16,0,0,1,1-1.39,2.62,2.62,0,0,1,3.44.29V14.65Zm-2.48,9a2.39,2.39,0,0,0,.69-.72V19.73a2.67,2.67,0,0,0-.65-.59,1.49,1.49,0,0,0-.77-.19,1.27,1.27,0,0,0-1.12.63,3.57,3.57,0,0,0-.42,1.93,4,4,0,0,0,.37,2,1.17,1.17,0,0,0,1.06.59A1.55,1.55,0,0,0,305.41,23.84Z"/><path d="M315.63,18.65a4.16,4.16,0,0,1,.91,2.86,4.75,4.75,0,0,1-.42,2,3.23,3.23,0,0,1-1.2,1.38,3.51,3.51,0,0,1-1.86.49,3.27,3.27,0,0,1-2.57-1,4.24,4.24,0,0,1-.92-2.88,4.72,4.72,0,0,1,.42-2.05,3.22,3.22,0,0,1,1.21-1.37,3.54,3.54,0,0,1,1.87-.49A3.24,3.24,0,0,1,315.63,18.65Zm-4.17,2.86a3.65,3.65,0,0,0,.4,1.94,1.34,1.34,0,0,0,1.2.62,1.31,1.31,0,0,0,1.19-.63,3.63,3.63,0,0,0,.4-1.93,3.63,3.63,0,0,0-.4-1.93,1.31,1.31,0,0,0-1.18-.62C312,19,311.46,19.81,311.46,21.51Z"/><path d="M324.07,18.63a4.91,4.91,0,0,1,.73,2.88,5.46,5.46,0,0,1-.36,2,3.07,3.07,0,0,1-1,1.38,2.61,2.61,0,0,1-2.65.25,2.57,2.57,0,0,1-.86-.72l-.12.76h-1.58V14.84l1.79-.19v4a2.61,2.61,0,0,1,.89-.77,2.4,2.4,0,0,1,1.16-.28A2.33,2.33,0,0,1,324.07,18.63Zm-1.55,4.83a3.63,3.63,0,0,0,.41-1.95,3.84,3.84,0,0,0-.38-2,1.2,1.2,0,0,0-1.07-.58A1.75,1.75,0,0,0,320,20v3.28a1.82,1.82,0,0,0,.6.63,1.44,1.44,0,0,0,.78.22A1.27,1.27,0,0,0,322.52,23.46Z"/><path d="M332.06,18.2a2.33,2.33,0,0,1,.55,1.66v5.36h-1.79V20.14a1.41,1.41,0,0,0-.23-.93.87.87,0,0,0-.68-.26,1.32,1.32,0,0,0-.83.28,3.09,3.09,0,0,0-.72.84v5.15h-1.79V17.81h1.55l.14,1a2.75,2.75,0,0,1,2.25-1.18A2,2,0,0,1,332.06,18.2Z"/><path d="M340.73,22.07h-4.64a2.31,2.31,0,0,0,.56,1.54,1.7,1.7,0,0,0,1.26.46,2.58,2.58,0,0,0,.92-.16,4,4,0,0,0,.92-.5l.75,1a4.26,4.26,0,0,1-2.75,1,3.3,3.3,0,0,1-2.61-1,4.12,4.12,0,0,1-.92-2.83,4.9,4.9,0,0,1,.4-2,3.27,3.27,0,0,1,1.13-1.42,3.37,3.37,0,0,1,4.17.48,4.06,4.06,0,0,1,.86,2.75C340.78,21.43,340.76,21.68,340.73,22.07Zm-1.35-8,.68.78-1.94,1.75H337l-1.95-1.75.69-.78,1.82,1.23Zm-.38,6.8c0-1.29-.48-1.94-1.44-1.94a1.22,1.22,0,0,0-1,.48,2.8,2.8,0,0,0-.44,1.55H339Z"/><path d="M347.66,24.56a4.39,4.39,0,0,1-.31,1.79,2.8,2.8,0,0,1-.89,1.11,7.34,7.34,0,0,1-1.5.8L344.39,27a4,4,0,0,0,.85-.49,1.57,1.57,0,0,0,.47-.67,3.13,3.13,0,0,0,.16-1.12V17.81h1.79Zm-.09-10.18a1,1,0,0,1,.32.77,1,1,0,0,1-.32.77,1.1,1.1,0,0,1-.82.31,1.09,1.09,0,0,1-.8-.31,1,1,0,0,1-.32-.77,1,1,0,0,1,.32-.77,1.09,1.09,0,0,1,.8-.32A1.11,1.11,0,0,1,347.57,14.38Z"/><path d="M355.43,23.9a.86.86,0,0,0,.42.31l-.37,1.19a2.28,2.28,0,0,1-1-.31,1.54,1.54,0,0,1-.61-.77,2.39,2.39,0,0,1-.95.84,2.87,2.87,0,0,1-1.26.27,2.39,2.39,0,0,1-1.75-.63,2.21,2.21,0,0,1-.65-1.65,2.11,2.11,0,0,1,.88-1.84,4.14,4.14,0,0,1,2.5-.64h.92v-.42a1.26,1.26,0,0,0-.33-1,1.6,1.6,0,0,0-1.06-.29,6.31,6.31,0,0,0-2,.39l-.42-1.22a7.61,7.61,0,0,1,2.69-.53c1.9,0,2.84.85,2.84,2.55v3.11A1.19,1.19,0,0,0,355.43,23.9Zm-1.9-.68v-1.5h-.74q-1.74,0-1.74,1.29a1.16,1.16,0,0,0,.27.82,1,1,0,0,0,.78.3A1.59,1.59,0,0,0,353.53,23.22Z"/><path d="M359.26,14.65V25.22h-1.8V14.84Zm4.43,3.16-2.46,3.26,2.7,4.15h-2.06l-2.54-4,2.47-3.36Z"/><path d="M370.36,18.65a4.12,4.12,0,0,1,.92,2.86,4.75,4.75,0,0,1-.42,2,3.23,3.23,0,0,1-1.2,1.38,3.51,3.51,0,0,1-1.86.49,3.27,3.27,0,0,1-2.57-1,4.24,4.24,0,0,1-.92-2.88,4.72,4.72,0,0,1,.42-2.05,3.22,3.22,0,0,1,1.21-1.37,3.54,3.54,0,0,1,1.87-.49A3.2,3.2,0,0,1,370.36,18.65Zm-4.16,2.86a3.65,3.65,0,0,0,.4,1.94,1.33,1.33,0,0,0,1.2.62,1.31,1.31,0,0,0,1.19-.63,3.63,3.63,0,0,0,.4-1.93,3.63,3.63,0,0,0-.4-1.93,1.31,1.31,0,0,0-1.18-.62C366.74,19,366.2,19.81,366.2,21.51Z"/><path d="M382.41,17.81,380,25.22h-2.14l-2.45-7.41h1.95l1.58,6,1.62-6Z"/><path d="M388.33,17.81V19.1l-3.58,4.72h3.65l-.18,1.4h-5.53V23.93l3.6-4.72H383v-1.4Z"/><path d="M395.92,14.84V25.22h-1.58l-.13-.94a2.47,2.47,0,0,1-.89.84,2.33,2.33,0,0,1-1.22.31A2.39,2.39,0,0,1,390,24.38a5,5,0,0,1-.72-2.86,5.35,5.35,0,0,1,.36-2,3.16,3.16,0,0,1,1-1.39,2.62,2.62,0,0,1,3.44.29V14.65Zm-2.48,9a2.18,2.18,0,0,0,.69-.72V19.73a2.5,2.5,0,0,0-.65-.59,1.45,1.45,0,0,0-.76-.19,1.28,1.28,0,0,0-1.13.63,3.58,3.58,0,0,0-.41,1.93,4,4,0,0,0,.36,2,1.18,1.18,0,0,0,1.06.59A1.55,1.55,0,0,0,393.44,23.84Z"/><path d="M404.11,22.07h-4.65a2.41,2.41,0,0,0,.56,1.54,1.73,1.73,0,0,0,1.26.46,2.6,2.6,0,0,0,.93-.16,4,4,0,0,0,.92-.5l.74,1a4.21,4.21,0,0,1-2.74,1,3.3,3.3,0,0,1-2.61-1,4.12,4.12,0,0,1-.92-2.83,5.07,5.07,0,0,1,.39-2,3.29,3.29,0,0,1,1.14-1.42,3.37,3.37,0,0,1,4.17.48,4.06,4.06,0,0,1,.85,2.75C404.15,21.43,404.14,21.68,404.11,22.07Zm-1.36-8,.69.78-1.95,1.75h-1.12l-1.94-1.75.68-.78,1.82,1.23Zm-.37,6.8c0-1.29-.49-1.94-1.45-1.94a1.23,1.23,0,0,0-1,.48,3,3,0,0,0-.44,1.55h2.92Z"/><path d="M406.18,24.93a1.91,1.91,0,0,1-.49-1.41V14.84l1.8-.19v8.82c0,.34.14.52.42.52a1.54,1.54,0,0,0,.42-.07l.37,1.26a3,3,0,0,1-1.19.25A1.76,1.76,0,0,1,406.18,24.93Z"/><path d="M415.43,23.9a.85.85,0,0,0,.43.31l-.38,1.19a2.32,2.32,0,0,1-1-.31,1.6,1.6,0,0,1-.61-.77,2.43,2.43,0,0,1-.94.84,2.92,2.92,0,0,1-1.27.27,2.39,2.39,0,0,1-1.75-.63,2.2,2.2,0,0,1-.64-1.65,2.13,2.13,0,0,1,.87-1.84,4.16,4.16,0,0,1,2.5-.64h.92v-.42a1.26,1.26,0,0,0-.33-1,1.57,1.57,0,0,0-1.05-.29,6.26,6.26,0,0,0-2,.39l-.42-1.22a7.56,7.56,0,0,1,2.69-.53c1.89,0,2.84.85,2.84,2.55v3.11A1.2,1.2,0,0,0,415.43,23.9Zm-1.9-10.16.73,1.4L411.1,16.4l-.51-.91Zm0,9.48v-1.5h-.74c-1.16,0-1.73.43-1.73,1.29a1.16,1.16,0,0,0,.26.82,1,1,0,0,0,.79.3A1.59,1.59,0,0,0,413.53,23.22Z"/><path d="M423,18.2a2.33,2.33,0,0,1,.56,1.66v5.36h-1.8V20.14a1.41,1.41,0,0,0-.23-.93.87.87,0,0,0-.68-.26,1.34,1.34,0,0,0-.83.28,3.09,3.09,0,0,0-.72.84v5.15h-1.79V17.81H419l.14,1a2.75,2.75,0,0,1,2.26-1.18A2,2,0,0,1,423,18.2Z"/><path d="M427.56,13.74l.73,1.4-3.16,1.26-.51-.91Zm-.17,4.07v7.41H425.6V17.81Z"/></g><g class="cls-6"><path d="M173.27,58.23a2.41,2.41,0,0,1,.53,1.64v5.36H172V60.15c0-.79-.27-1.19-.81-1.19a1.08,1.08,0,0,0-.75.28,3.26,3.26,0,0,0-.65.84v5.15H168V60.15c0-.79-.27-1.19-.82-1.19a1.08,1.08,0,0,0-.76.28,3.26,3.26,0,0,0-.65.84v5.15H164v-7.4h1.55l.14,1a2.55,2.55,0,0,1,2.14-1.17,1.92,1.92,0,0,1,1.12.33,1.85,1.85,0,0,1,.68.91,3.39,3.39,0,0,1,1-.92,2.44,2.44,0,0,1,1.24-.32A1.78,1.78,0,0,1,173.27,58.23Z"/><path d="M181.81,65.23h-1.55l-.1-1a2.77,2.77,0,0,1-1,.94,2.72,2.72,0,0,1-1.31.3,2,2,0,0,1-1.53-.6,2.47,2.47,0,0,1-.54-1.69V57.83h1.79v5.09a1.42,1.42,0,0,0,.22.9.82.82,0,0,0,.69.27A1.81,1.81,0,0,0,180,63V57.83h1.79Z"/><path d="M188.78,57.83v1.29l-3.58,4.71h3.65l-.18,1.4h-5.53V64l3.6-4.72h-3.29v-1.4Zm-.91-3.8.69.79-1.95,1.75h-1.12l-1.94-1.75.68-.79,1.82,1.24Z"/><path d="M192.21,53.75l.73,1.4-3.16,1.27-.51-.92ZM192,57.83v7.4h-1.79v-7.4Z"/></g><g class="cls-6"><path d="M464.85,57.83v1.29l-3.59,4.71h3.66l-.19,1.4H459.2V64l3.6-4.72h-3.29v-1.4Zm-.91-3.8.68.79-1.94,1.75h-1.12l-1.95-1.75.69-.79,1.82,1.24Z"/><path d="M472.24,62.08h-4.65a2.34,2.34,0,0,0,.56,1.54,1.74,1.74,0,0,0,1.26.47,2.78,2.78,0,0,0,.92-.16,4.76,4.76,0,0,0,.93-.5l.74,1a4.28,4.28,0,0,1-2.74,1,3.33,3.33,0,0,1-2.62-1,4.11,4.11,0,0,1-.91-2.83,5.12,5.12,0,0,1,.39-2,3.24,3.24,0,0,1,1.13-1.41,3.07,3.07,0,0,1,1.77-.51,3,3,0,0,1,2.41,1,4,4,0,0,1,.85,2.75C472.28,61.45,472.27,61.69,472.24,62.08Zm-1.74-1.24q0-2-1.44-2a1.21,1.21,0,0,0-1,.49,2.85,2.85,0,0,0-.44,1.54h2.91Z"/><path d="M479.39,58.21a2.39,2.39,0,0,1,.55,1.66v5.36h-1.79V60.15a1.44,1.44,0,0,0-.23-.92.87.87,0,0,0-.68-.27,1.36,1.36,0,0,0-.84.29,3.61,3.61,0,0,0-.72.83v5.15h-1.79v-7.4h1.55l.14,1a2.77,2.77,0,0,1,2.26-1.17A2,2,0,0,1,479.39,58.21Z"/><path d="M485.52,65.26a4.52,4.52,0,0,1-1.35,2.14,4.37,4.37,0,0,1-2.5.89L481.49,67a4.44,4.44,0,0,0,1.17-.31,2.06,2.06,0,0,0,.71-.54,3.39,3.39,0,0,0,.49-.9h-.62l-2.35-7.4h1.9L484.4,64l1.68-6.21h1.85Z"/></g><g class="cls-6"><path d="M15.83,37.7l-2.45,7.54h-.74L10.18,37.7h.71L13,44.55l2.14-6.85Z"/><path d="M20.8,39.82a1.91,1.91,0,0,1,.41,1.3v4.12h-.64v-4a1.54,1.54,0,0,0-.27-1,1,1,0,0,0-.82-.32,1.62,1.62,0,0,0-1,.3,3.39,3.39,0,0,0-.81.89v4.17h-.64V39.48h.55l.07,1a2.78,2.78,0,0,1,.83-.81,2.14,2.14,0,0,1,1.09-.29A1.53,1.53,0,0,1,20.8,39.82Z"/><path d="M24.63,36.63l.29.58-2.15.93-.21-.37Zm-.51,2.85v5.76h-.63V39.48Z"/><path d="M33.16,39.83a1.93,1.93,0,0,1,.4,1.29v4.12h-.64v-4a1.63,1.63,0,0,0-.25-1,.91.91,0,0,0-.73-.32,1.3,1.3,0,0,0-.86.31,3.22,3.22,0,0,0-.75.88v4.17h-.64v-4a1.63,1.63,0,0,0-.26-1,.88.88,0,0,0-.72-.32,1.35,1.35,0,0,0-.88.31,3.2,3.2,0,0,0-.74.88v4.17h-.63V39.48H27l0,1a2.75,2.75,0,0,1,.78-.81,1.82,1.82,0,0,1,1-.29,1.44,1.44,0,0,1,.93.3,1.56,1.56,0,0,1,.5.84,3.07,3.07,0,0,1,.8-.84,1.79,1.79,0,0,1,1-.3A1.37,1.37,0,0,1,33.16,39.83Z"/><path d="M39.53,44.61a.75.75,0,0,0,.37.3l-.14.45a1.21,1.21,0,0,1-.62-.3,1.26,1.26,0,0,1-.28-.67,2,2,0,0,1-1.79,1,1.79,1.79,0,0,1-1.3-.47,1.85,1.85,0,0,1,.15-2.63,2.85,2.85,0,0,1,1.76-.48h1.1v-.56a1.43,1.43,0,0,0-.31-1,1.41,1.41,0,0,0-1-.31,4.69,4.69,0,0,0-1.56.33l-.16-.48a4.85,4.85,0,0,1,1.81-.39,1.64,1.64,0,0,1,1.88,1.83V44A1.31,1.31,0,0,0,39.53,44.61Zm-.75-.78V42.24h-1a2.3,2.3,0,0,0-1.34.34,1.19,1.19,0,0,0-.46,1,1.24,1.24,0,0,0,.32.91,1.21,1.21,0,0,0,.89.32A1.77,1.77,0,0,0,38.78,43.83Z"/><path d="M45.47,39.82a1.91,1.91,0,0,1,.41,1.3v4.12h-.64v-4a1.54,1.54,0,0,0-.27-1,1,1,0,0,0-.82-.32,1.64,1.64,0,0,0-1,.3,3.39,3.39,0,0,0-.81.89v4.17h-.64V39.48h.55l.07,1a2.81,2.81,0,0,1,.84-.81,2.09,2.09,0,0,1,1.09-.29A1.51,1.51,0,0,1,45.47,39.82Z"/><path d="M52.22,42.61H48.38a2.68,2.68,0,0,0,.53,1.66,1.58,1.58,0,0,0,1.26.55,2.2,2.2,0,0,0,.8-.14,3.72,3.72,0,0,0,.75-.43l.3.4a3.27,3.27,0,0,1-.88.53,2.66,2.66,0,0,1-1,.18,2.2,2.2,0,0,1-1.79-.78,3.29,3.29,0,0,1-.65-2.17,4.16,4.16,0,0,1,.28-1.6,2.32,2.32,0,0,1,.8-1.07A2,2,0,0,1,50,39.36a2,2,0,0,1,1.67.74,3.29,3.29,0,0,1,.57,2C52.24,42.31,52.23,42.46,52.22,42.61ZM51.61,42a2.52,2.52,0,0,0-.4-1.52A1.39,1.39,0,0,0,50,39.89a1.41,1.41,0,0,0-1.16.55,2.86,2.86,0,0,0-.48,1.67h3.23Zm-.76-5.32.29.58L49,38.14l-.2-.37Z"/><path d="M60.23,39.48V40L57,44.69H60.2l-.06.55H56.27v-.5L59.48,40H56.53v-.55Z"/><path d="M65.8,37.14v8.1h-.55l-.07-.88a1.92,1.92,0,0,1-1.73,1,1.86,1.86,0,0,1-1.58-.8,3.6,3.6,0,0,1-.58-2.17,4.29,4.29,0,0,1,.27-1.58,2.38,2.38,0,0,1,.78-1.06,2,2,0,0,1,1.21-.39,2,2,0,0,1,1.61.78V37.06Zm-1.32,7.42a2.3,2.3,0,0,0,.68-.8v-3a1.8,1.8,0,0,0-1.5-.87,1.44,1.44,0,0,0-1.24.65A3.19,3.19,0,0,0,62,42.38a3.31,3.31,0,0,0,.42,1.82,1.33,1.33,0,0,0,1.16.63A1.59,1.59,0,0,0,64.48,44.56Z"/><path d="M70.94,39.43l-.12.6a2.1,2.1,0,0,0-.51-.06,1.17,1.17,0,0,0-.94.42,3.39,3.39,0,0,0-.6,1.32v3.53h-.64V39.48h.55l.06,1.29a2.22,2.22,0,0,1,.63-1.06,1.49,1.49,0,0,1,1-.35A1.85,1.85,0,0,1,70.94,39.43Z"/><path d="M75.54,44.61a.75.75,0,0,0,.37.3l-.14.45a1.13,1.13,0,0,1-.61-.3,1.19,1.19,0,0,1-.28-.67,2,2,0,0,1-1.8,1,1.79,1.79,0,0,1-1.3-.47,1.66,1.66,0,0,1-.48-1.25,1.64,1.64,0,0,1,.64-1.38,2.82,2.82,0,0,1,1.75-.48h1.1v-.56a1.39,1.39,0,0,0-.31-1,1.37,1.37,0,0,0-1-.31,4.65,4.65,0,0,0-1.56.33l-.17-.48a4.89,4.89,0,0,1,1.82-.39,1.64,1.64,0,0,1,1.88,1.83V44A1.46,1.46,0,0,0,75.54,44.61Zm-.75-.78V42.24h-1a2.26,2.26,0,0,0-1.34.34,1.2,1.2,0,0,0-.47,1,1.24,1.24,0,0,0,.32.91,1.23,1.23,0,0,0,.89.32A1.76,1.76,0,0,0,74.79,43.83Z"/><path d="M81.42,39.48l-2,5.76h-.79l-2.06-5.76h.71L79,44.67l1.7-5.19Z"/><path d="M83.9,36.63l.28.58L82,38.14l-.21-.37Zm-.51,2.85v5.76h-.64V39.48Z"/><path d="M92.46,37.75a3.55,3.55,0,0,1,.88.52l-.36.44a2.89,2.89,0,0,0-.73-.44,2.3,2.3,0,0,0-.81-.13,2.13,2.13,0,0,0-1.73.81,4,4,0,0,0-.66,2.51,5,5,0,0,0,.3,1.85,2.45,2.45,0,0,0,.84,1.11,2.44,2.44,0,0,0,2.13.19,3.09,3.09,0,0,0,.76-.46l.34.43a2.85,2.85,0,0,1-2,.78,2.8,2.8,0,0,1-1.57-.45,3.06,3.06,0,0,1-1.08-1.33,5.18,5.18,0,0,1-.39-2.12,5,5,0,0,1,.41-2.12A3.06,3.06,0,0,1,89.85,38a2.86,2.86,0,0,1,1.55-.44A3,3,0,0,1,92.46,37.75Zm.28-2.28.29.34-1.42,1.11h-.4l-1.43-1.11.29-.34,1.34.88Z"/><path d="M97.06,41.86h-1.5v3.38H94.9V37.7h1.82c1.79,0,2.69.68,2.69,2A1.89,1.89,0,0,1,99,41a2.41,2.41,0,0,1-1.26.7l2.07,3.5H99Zm-.25-.54c1.26,0,1.89-.53,1.89-1.57a1.33,1.33,0,0,0-.47-1.14,2.5,2.5,0,0,0-1.53-.37H95.56v3.08Z"/><path d="M101.68,44.46a.5.5,0,0,1,.15.37,1.53,1.53,0,0,1-.17.6l-.61,1.47h-.47l.44-1.62a.41.41,0,0,1-.18-.19.48.48,0,0,1-.07-.26.47.47,0,0,1,.16-.37.5.5,0,0,1,.37-.15A.52.52,0,0,1,101.68,44.46Z"/><path d="M110.62,40.14a3.85,3.85,0,0,1,.52,2.19,3.91,3.91,0,0,1-.56,2.21,1.88,1.88,0,0,1-1.63.82,2.06,2.06,0,0,1-.93-.22,2,2,0,0,1-.7-.58V47.4l-.64.09v-8h.55l0,.84a2.4,2.4,0,0,1,.78-.71,2.08,2.08,0,0,1,1-.25A1.76,1.76,0,0,1,110.62,40.14Zm-.58,4a3.37,3.37,0,0,0,.42-1.86c0-1.63-.51-2.44-1.53-2.44a1.55,1.55,0,0,0-.89.26,2.94,2.94,0,0,0-.72.73v3.06a1.74,1.74,0,0,0,1.51.88A1.35,1.35,0,0,0,110,44.19Z"/><path d="M116.84,40.15a3.34,3.34,0,0,1,.64,2.19,3.41,3.41,0,0,1-.66,2.21,2.38,2.38,0,0,1-3.57,0,3.39,3.39,0,0,1-.64-2.2,4.1,4.1,0,0,1,.29-1.59,2.21,2.21,0,0,1,2.15-1.41A2.18,2.18,0,0,1,116.84,40.15Zm-3.09.38a3.87,3.87,0,0,0,0,3.66,1.49,1.49,0,0,0,1.29.63,1.52,1.52,0,0,0,1.3-.63,3.08,3.08,0,0,0,.47-1.85,3,3,0,0,0-.46-1.82,1.66,1.66,0,0,0-2.6,0Z"/><path d="M123.45,37.14v8.1h-.55l-.07-.88a1.92,1.92,0,0,1-1.73,1,1.84,1.84,0,0,1-1.58-.8,3.67,3.67,0,0,1-.58-2.17,4.29,4.29,0,0,1,.27-1.58,2.38,2.38,0,0,1,.78-1.06,2,2,0,0,1,1.21-.39,2,2,0,0,1,1.61.78V37.06Zm-1.32,7.42a2.3,2.3,0,0,0,.68-.8v-3a1.8,1.8,0,0,0-1.5-.87,1.44,1.44,0,0,0-1.24.65,3.19,3.19,0,0,0-.45,1.84A3.31,3.31,0,0,0,120,44.2a1.33,1.33,0,0,0,1.16.63A1.59,1.59,0,0,0,122.13,44.56Z"/><path d="M127,36.63l.29.58-2.14.93-.21-.37Zm-.5,2.85v5.76h-.64V39.48Z"/><path d="M129.08,45.08a1.1,1.1,0,0,1-.27-.81V37.14l.64-.08v7.19c0,.37.15.56.46.56a1,1,0,0,0,.4-.08l.17.47a1.46,1.46,0,0,1-.66.16A1,1,0,0,1,129.08,45.08Z"/><path d="M138.82,40.15a3.35,3.35,0,0,1,.65,2.19,3.41,3.41,0,0,1-.66,2.21,2.38,2.38,0,0,1-3.57,0,3.39,3.39,0,0,1-.64-2.2,3.92,3.92,0,0,1,.29-1.59A2.21,2.21,0,0,1,137,39.36,2.15,2.15,0,0,1,138.82,40.15Zm-3.08.38a3.05,3.05,0,0,0-.46,1.83,3.13,3.13,0,0,0,.45,1.83,1.66,1.66,0,0,0,2.6,0,3.85,3.85,0,0,0,0-3.67,1.66,1.66,0,0,0-2.6,0Z"/><path d="M145.44,37.14v8.1h-.55l-.08-.88a1.9,1.9,0,0,1-1.72,1,1.84,1.84,0,0,1-1.58-.8,3.6,3.6,0,0,1-.58-2.17,4.29,4.29,0,0,1,.27-1.58,2.38,2.38,0,0,1,.78-1.06,1.93,1.93,0,0,1,1.21-.39,2,2,0,0,1,1.61.78V37.06Zm-1.32,7.42a2.3,2.3,0,0,0,.68-.8v-3a1.8,1.8,0,0,0-1.5-.87,1.43,1.43,0,0,0-1.24.65,3.11,3.11,0,0,0-.45,1.84A3.31,3.31,0,0,0,142,44.2a1.31,1.31,0,0,0,1.16.63A1.59,1.59,0,0,0,144.12,44.56Z"/><path d="M151.72,40.14a3.94,3.94,0,0,1,.52,2.19,3.83,3.83,0,0,1-.57,2.21,1.87,1.87,0,0,1-1.62.82,2.1,2.1,0,0,1-.94-.22,2.05,2.05,0,0,1-.7-.58V47.4l-.64.09v-8h.55l.06.84a2.36,2.36,0,0,1,.77-.71,2.15,2.15,0,0,1,1-.25A1.76,1.76,0,0,1,151.72,40.14Zm-.58,4a3.37,3.37,0,0,0,.42-1.86c0-1.63-.51-2.44-1.53-2.44a1.56,1.56,0,0,0-.9.26,3.33,3.33,0,0,0-.72.73v3.06a1.76,1.76,0,0,0,1.52.88A1.36,1.36,0,0,0,151.14,44.19Z"/><path d="M157.93,40.15a3.34,3.34,0,0,1,.64,2.19,3.4,3.4,0,0,1-.65,2.21,2.18,2.18,0,0,1-1.79.81,2.15,2.15,0,0,1-1.78-.8,3.39,3.39,0,0,1-.65-2.2,3.92,3.92,0,0,1,.3-1.59,2.35,2.35,0,0,1,.85-1.05,2.27,2.27,0,0,1,1.29-.36A2.17,2.17,0,0,1,157.93,40.15Zm-3.08.38a3,3,0,0,0-.47,1.83,3.13,3.13,0,0,0,.46,1.83,1.5,1.5,0,0,0,1.29.63,1.55,1.55,0,0,0,1.31-.63,3.93,3.93,0,0,0,0-3.67,1.54,1.54,0,0,0-1.31-.62A1.5,1.5,0,0,0,154.85,40.53Z"/><path d="M164.26,39.48l-2,5.76h-.79l-2.06-5.76h.71l1.74,5.19,1.71-5.19Z"/><path d="M169.63,42.61h-3.84a2.75,2.75,0,0,0,.53,1.66,1.58,1.58,0,0,0,1.26.55,2.2,2.2,0,0,0,.8-.14,3.72,3.72,0,0,0,.75-.43l.3.4a3.13,3.13,0,0,1-.88.53,2.66,2.66,0,0,1-1,.18,2.2,2.2,0,0,1-1.79-.78,3.29,3.29,0,0,1-.65-2.17,4.16,4.16,0,0,1,.28-1.6,2.39,2.39,0,0,1,.8-1.07,2.06,2.06,0,0,1,1.22-.38,2,2,0,0,1,1.67.74,3.29,3.29,0,0,1,.57,2C169.65,42.31,169.64,42.46,169.63,42.61ZM169,42a2.52,2.52,0,0,0-.4-1.52,1.39,1.39,0,0,0-1.19-.54,1.41,1.41,0,0,0-1.16.55,2.86,2.86,0,0,0-.48,1.67H169Zm-.25-5.17.29.33-1.42,1.16h-.4l-1.43-1.16.29-.33,1.34.92Z"/><path d="M175.57,37.14v8.1H175l-.08-.88a1.9,1.9,0,0,1-1.72,1,1.84,1.84,0,0,1-1.58-.8,3.6,3.6,0,0,1-.58-2.17,4.29,4.29,0,0,1,.27-1.58,2.38,2.38,0,0,1,.78-1.06,1.92,1.92,0,0,1,1.2-.39,2,2,0,0,1,1.62.78V37.06Zm-1.33,7.42a2.21,2.21,0,0,0,.69-.8v-3a1.8,1.8,0,0,0-1.5-.87,1.43,1.43,0,0,0-1.24.65,3,3,0,0,0-.45,1.84,3.31,3.31,0,0,0,.42,1.82,1.31,1.31,0,0,0,1.15.63A1.55,1.55,0,0,0,174.24,44.56Z"/><path d="M179.11,36.63l.29.58-2.15.93-.21-.37Zm-.5,2.85v5.76H178V39.48Z"/><path d="M187.85,39.48l-2,5.76h-.79L183,39.48h.7l1.75,5.19,1.7-5.19Z"/><path d="M193.21,42.61h-3.84a2.68,2.68,0,0,0,.54,1.66,1.58,1.58,0,0,0,1.26.55,2.14,2.14,0,0,0,.79-.14,3.52,3.52,0,0,0,.76-.43l.3.4a3.27,3.27,0,0,1-.88.53,2.75,2.75,0,0,1-1,.18,2.2,2.2,0,0,1-1.79-.78,3.34,3.34,0,0,1-.65-2.17,4.35,4.35,0,0,1,.28-1.6,2.4,2.4,0,0,1,.81-1.07,2.2,2.2,0,0,1,2.88.36,3.29,3.29,0,0,1,.57,2A3.54,3.54,0,0,1,193.21,42.61Zm-.6-.66a2.59,2.59,0,0,0-.4-1.52,1.54,1.54,0,0,0-2.35,0,2.79,2.79,0,0,0-.49,1.67h3.24Z"/><path d="M195.27,45.08a1.1,1.1,0,0,1-.27-.81V37.14l.63-.08v7.19c0,.37.16.56.47.56a.93.93,0,0,0,.39-.08l.18.47a1.53,1.53,0,0,1-.66.16A1,1,0,0,1,195.27,45.08Z"/><path d="M204.88,39.83a1.93,1.93,0,0,1,.4,1.29v4.12h-.64v-4a1.57,1.57,0,0,0-.26-1,.88.88,0,0,0-.72-.32,1.35,1.35,0,0,0-.87.31,3.39,3.39,0,0,0-.74.88v4.17h-.64v-4a1.63,1.63,0,0,0-.26-1,.88.88,0,0,0-.72-.32,1.35,1.35,0,0,0-.88.31,3.2,3.2,0,0,0-.74.88v4.17h-.64V39.48h.55l.06,1a2.75,2.75,0,0,1,.78-.81,1.82,1.82,0,0,1,1-.29,1.39,1.39,0,0,1,.92.3,1.58,1.58,0,0,1,.51.84,2.93,2.93,0,0,1,.8-.84,1.78,1.78,0,0,1,1-.3A1.38,1.38,0,0,1,204.88,39.83Z"/><path d="M208.22,37.08a.44.44,0,0,1,.13.33.42.42,0,0,1-.13.33.49.49,0,0,1-.36.14.48.48,0,0,1-.34-.14.45.45,0,0,1-.13-.33.49.49,0,0,1,.13-.33.51.51,0,0,1,.34-.13A.53.53,0,0,1,208.22,37.08Zm0,2.4v5.76h-.63V39.48Z"/><path d="M217.7,37.14v8.1h-.55l-.08-.88a1.9,1.9,0,0,1-1.72,1,1.84,1.84,0,0,1-1.58-.8,3.6,3.6,0,0,1-.58-2.17,4.29,4.29,0,0,1,.27-1.58,2.38,2.38,0,0,1,.78-1.06,1.92,1.92,0,0,1,1.2-.39,2,2,0,0,1,1.62.78V37.06Zm-1.33,7.42a2.21,2.21,0,0,0,.69-.8v-3a1.8,1.8,0,0,0-1.51-.87,1.43,1.43,0,0,0-1.23.65,3,3,0,0,0-.45,1.84,3.31,3.31,0,0,0,.42,1.82,1.31,1.31,0,0,0,1.15.63A1.55,1.55,0,0,0,216.37,44.56Z"/><path d="M223.8,40.15a3.34,3.34,0,0,1,.64,2.19,3.46,3.46,0,0,1-.65,2.21,2.39,2.39,0,0,1-3.58,0,3.39,3.39,0,0,1-.64-2.2,3.92,3.92,0,0,1,.3-1.59A2.19,2.19,0,0,1,222,39.36,2.18,2.18,0,0,1,223.8,40.15Zm-3.09.38a3.87,3.87,0,0,0,0,3.66,1.49,1.49,0,0,0,1.29.63,1.52,1.52,0,0,0,1.3-.63,3.08,3.08,0,0,0,.47-1.85,3,3,0,0,0-.46-1.82,1.66,1.66,0,0,0-2.6,0Z"/><path d="M230.23,40.13a3.8,3.8,0,0,1,.55,2.2,3.71,3.71,0,0,1-.58,2.21,2,2,0,0,1-2.55.58,2.08,2.08,0,0,1-.71-.61l-.07.73h-.56v-8.1l.64-.08v3.23a2.06,2.06,0,0,1,1.73-.93A1.81,1.81,0,0,1,230.23,40.13Zm-.56,4.07a3.42,3.42,0,0,0,.43-1.87c0-1.63-.52-2.44-1.56-2.44a1.55,1.55,0,0,0-.89.26,2.73,2.73,0,0,0-.7.73v3a2,2,0,0,0,.66.68,1.52,1.52,0,0,0,.86.25A1.36,1.36,0,0,0,229.67,44.2Z"/><path d="M235.51,39.43l-.12.6a2.1,2.1,0,0,0-.51-.06,1.17,1.17,0,0,0-.94.42,3.39,3.39,0,0,0-.6,1.32v3.53h-.64V39.48h.55l.06,1.29a2.22,2.22,0,0,1,.63-1.06,1.49,1.49,0,0,1,1-.35A1.93,1.93,0,0,1,235.51,39.43Z"/><path d="M240.53,42.61H236.7a2.62,2.62,0,0,0,.53,1.66,1.58,1.58,0,0,0,1.26.55,2.2,2.2,0,0,0,.8-.14,3.72,3.72,0,0,0,.75-.43l.3.4a3.27,3.27,0,0,1-.88.53,2.7,2.7,0,0,1-1,.18,2.22,2.22,0,0,1-1.8-.78,3.34,3.34,0,0,1-.65-2.17,4.35,4.35,0,0,1,.28-1.6,2.4,2.4,0,0,1,.81-1.07,2,2,0,0,1,1.21-.38,2,2,0,0,1,1.67.74,3.23,3.23,0,0,1,.58,2A3.48,3.48,0,0,1,240.53,42.61Zm-.6-.66a2.52,2.52,0,0,0-.4-1.52,1.54,1.54,0,0,0-2.35,0,2.86,2.86,0,0,0-.48,1.67h3.23Zm-.76-5.32.29.58-2.15.93-.21-.37Z"/><path d="M249.18,39.82a1.91,1.91,0,0,1,.41,1.3v4.12H249v-4a1.49,1.49,0,0,0-.28-1,1,1,0,0,0-.81-.32,1.62,1.62,0,0,0-1,.3,3.23,3.23,0,0,0-.81.89v4.17h-.64V39.48H246l.07,1a2.78,2.78,0,0,1,.83-.81,2.14,2.14,0,0,1,1.09-.29A1.53,1.53,0,0,1,249.18,39.82Z"/><path d="M255.92,42.61h-3.84a2.68,2.68,0,0,0,.54,1.66,1.58,1.58,0,0,0,1.26.55,2.24,2.24,0,0,0,.8-.14,3.72,3.72,0,0,0,.75-.43l.3.4a3.27,3.27,0,0,1-.88.53,2.75,2.75,0,0,1-1,.18,2.2,2.2,0,0,1-1.79-.78,3.34,3.34,0,0,1-.65-2.17,4.35,4.35,0,0,1,.28-1.6,2.4,2.4,0,0,1,.81-1.07,2,2,0,0,1,1.21-.38,2,2,0,0,1,1.67.74,3.3,3.3,0,0,1,.58,2A3.48,3.48,0,0,1,255.92,42.61Zm-.6-.66a2.52,2.52,0,0,0-.4-1.52,1.54,1.54,0,0,0-2.35,0,2.79,2.79,0,0,0-.49,1.67h3.24Z"/><path d="M261.68,40.13a4.59,4.59,0,0,1,0,4.41,1.88,1.88,0,0,1-1.61.82,1.85,1.85,0,0,1-.94-.24,2,2,0,0,1-.71-.61l-.07.73h-.56v-8.1l.64-.08v3.23a2.06,2.06,0,0,1,1.73-.93A1.81,1.81,0,0,1,261.68,40.13Zm-.56,4.07a3.43,3.43,0,0,0,.42-1.87c0-1.63-.51-2.44-1.55-2.44a1.55,1.55,0,0,0-.89.26,2.73,2.73,0,0,0-.7.73v3a2,2,0,0,0,.66.68,1.5,1.5,0,0,0,.86.25A1.36,1.36,0,0,0,261.12,44.2Z"/><path d="M267.92,40.15a3.34,3.34,0,0,1,.64,2.19,3.46,3.46,0,0,1-.65,2.21,2.39,2.39,0,0,1-3.58,0,3.39,3.39,0,0,1-.64-2.2,3.92,3.92,0,0,1,.3-1.59,2.19,2.19,0,0,1,2.14-1.41A2.18,2.18,0,0,1,267.92,40.15Zm-3.09.38a3.87,3.87,0,0,0,0,3.66,1.49,1.49,0,0,0,1.29.63,1.52,1.52,0,0,0,1.3-.63,3,3,0,0,0,.47-1.85,3.09,3.09,0,0,0-.45-1.82,1.54,1.54,0,0,0-1.31-.62A1.52,1.52,0,0,0,264.83,40.53Z"/><path d="M277.6,37.14v8.1h-.55l-.07-.88a1.91,1.91,0,0,1-1.73,1,1.86,1.86,0,0,1-1.58-.8,3.67,3.67,0,0,1-.58-2.17,4.29,4.29,0,0,1,.27-1.58,2.38,2.38,0,0,1,.78-1.06,2,2,0,0,1,1.21-.39,2,2,0,0,1,1.62.78V37.06Zm-1.32,7.42a2.42,2.42,0,0,0,.69-.8v-3a1.81,1.81,0,0,0-1.51-.87,1.46,1.46,0,0,0-1.24.65,3.11,3.11,0,0,0-.44,1.84,3.41,3.41,0,0,0,.41,1.82,1.33,1.33,0,0,0,1.16.63A1.55,1.55,0,0,0,276.28,44.56Z"/><path d="M283.7,40.15a3.35,3.35,0,0,1,.65,2.19,3.41,3.41,0,0,1-.66,2.21,2.38,2.38,0,0,1-3.57,0,3.39,3.39,0,0,1-.65-2.2,3.92,3.92,0,0,1,.3-1.59,2.35,2.35,0,0,1,.85-1.05,2.3,2.3,0,0,1,1.3-.36A2.16,2.16,0,0,1,283.7,40.15Zm-3.08.38a3.05,3.05,0,0,0-.46,1.83,3.13,3.13,0,0,0,.45,1.83,1.66,1.66,0,0,0,2.6,0,3.85,3.85,0,0,0,0-3.67,1.66,1.66,0,0,0-2.6,0Z"/><path d="M290.13,40.13a3.72,3.72,0,0,1,.55,2.2,3.79,3.79,0,0,1-.57,2.21,2,2,0,0,1-2.56.58,2.08,2.08,0,0,1-.71-.61l-.06.73h-.56v-8.1l.63-.08v3.23a2.08,2.08,0,0,1,1.73-.93A1.79,1.79,0,0,1,290.13,40.13Zm-.55,4.07a3.43,3.43,0,0,0,.42-1.87c0-1.63-.52-2.44-1.55-2.44a1.53,1.53,0,0,0-.89.26,2.92,2.92,0,0,0-.71.73v3a2.18,2.18,0,0,0,.67.68,1.49,1.49,0,0,0,.85.25A1.37,1.37,0,0,0,289.58,44.2Z"/><path d="M295.41,39.43l-.12.6a2.07,2.07,0,0,0-.5-.06,1.16,1.16,0,0,0-.94.42,3.39,3.39,0,0,0-.6,1.32v3.53h-.64V39.48h.55l0,1.29a2.31,2.31,0,0,1,.64-1.06,1.44,1.44,0,0,1,1-.35A1.85,1.85,0,0,1,295.41,39.43Z"/><path d="M300.44,42.61H296.6a2.75,2.75,0,0,0,.53,1.66,1.58,1.58,0,0,0,1.26.55,2.2,2.2,0,0,0,.8-.14,3.72,3.72,0,0,0,.75-.43l.3.4a3.13,3.13,0,0,1-.88.53,2.66,2.66,0,0,1-1,.18,2.2,2.2,0,0,1-1.79-.78,3.34,3.34,0,0,1-.65-2.17,4.16,4.16,0,0,1,.28-1.6,2.39,2.39,0,0,1,.8-1.07,2.06,2.06,0,0,1,1.22-.38,2,2,0,0,1,1.67.74,3.29,3.29,0,0,1,.57,2C300.46,42.31,300.45,42.46,300.44,42.61Zm-.6-.66a2.52,2.52,0,0,0-.41-1.52,1.53,1.53,0,0,0-2.34,0,2.79,2.79,0,0,0-.49,1.67h3.24Zm-.76-5.32.28.58-2.14.93-.21-.37Z"/><path d="M302.51,44.46a.5.5,0,0,1,.15.37,1.49,1.49,0,0,1-.16.6l-.62,1.47h-.46l.44-1.62a.5.5,0,0,1-.19-.19.58.58,0,0,1-.06-.26.5.5,0,0,1,.15-.37.51.51,0,0,1,.37-.15A.5.5,0,0,1,302.51,44.46Z"/><path d="M310.29,38.34a1.87,1.87,0,0,1,.54,1.38,3.09,3.09,0,0,1-.29,1.35,6.92,6.92,0,0,1-.93,1.37c-.42.5-1.1,1.24-2,2.23H311l-.09.57h-4.12V44.7c1-1.07,1.72-1.87,2.16-2.39A5.85,5.85,0,0,0,309.9,41a2.78,2.78,0,0,0,.27-1.21,1.42,1.42,0,0,0-.37-1,1.39,1.39,0,0,0-1-.38,1.87,1.87,0,0,0-.9.21,2.63,2.63,0,0,0-.74.62l-.44-.33a3,3,0,0,1,1-.79,2.57,2.57,0,0,1,1.16-.25A2,2,0,0,1,310.29,38.34Z"/><path d="M316.36,38.76a5.5,5.5,0,0,1,.58,2.82,5.44,5.44,0,0,1-.59,2.81,2,2,0,0,1-3.42,0,5.49,5.49,0,0,1-.59-2.82,5.42,5.42,0,0,1,.59-2.81,2,2,0,0,1,3.43,0ZM313,41.57c0,2.17.55,3.26,1.64,3.26a1.33,1.33,0,0,0,1.22-.79,5.66,5.66,0,0,0,.41-2.46,5.72,5.72,0,0,0-.41-2.46,1.31,1.31,0,0,0-1.22-.79C313.55,38.33,313,39.41,313,41.57Z"/><path d="M320.57,37.92v7.32h-.64V38.62l-1.8,1.13-.3-.48L320,37.92Z"/><path d="M326.37,38.57a3.72,3.72,0,0,1,.56,2.18,5.71,5.71,0,0,1-.41,2.32,3.43,3.43,0,0,1-1.19,1.44,7.64,7.64,0,0,1-2.08.93l-.16-.49a5.39,5.39,0,0,0,2.31-1.27,3.18,3.18,0,0,0,.88-2.2,2.48,2.48,0,0,1-.79.76,2,2,0,0,1-1,.27,1.86,1.86,0,0,1-1.73-1.09,2.71,2.71,0,0,1-.26-1.22,2.68,2.68,0,0,1,.29-1.27,2.09,2.09,0,0,1,.8-.84,2.3,2.3,0,0,1,1.14-.29A1.92,1.92,0,0,1,326.37,38.57Zm-.86,3.13a2.91,2.91,0,0,0,.77-.82,3.86,3.86,0,0,0-.36-1.93,1.28,1.28,0,0,0-1.19-.62,1.44,1.44,0,0,0-1.16.49,2,2,0,0,0-.43,1.39,2,2,0,0,0,.39,1.31,1.3,1.3,0,0,0,1.05.46A1.57,1.57,0,0,0,325.51,41.7Z"/></g><path class="cls-7" d="M24,286.83c0,2.52-.7,3.77-2.08,3.77a1.68,1.68,0,0,1-1.56-.94,5.84,5.84,0,0,1-.53-2.84c0-2.51.7-3.77,2.09-3.77S24,284.31,24,286.83Zm-3.17-2.49a8.76,8.76,0,0,0,0,5,1.14,1.14,0,0,0,2.17,0,6.25,6.25,0,0,0,.36-2.48,6.34,6.34,0,0,0-.36-2.49,1.14,1.14,0,0,0-2.17,0Z"/><path class="cls-7" d="M30.58,283.52a2,2,0,0,1,.41,1.3,2,2,0,0,1-.41,1.32,1.45,1.45,0,0,1-2.16,0,1.93,1.93,0,0,1-.41-1.3,2,2,0,0,1,.41-1.31,1.34,1.34,0,0,1,1.08-.48A1.39,1.39,0,0,1,30.58,283.52Zm-1.8.34a1.85,1.85,0,0,0-.22,1,1.79,1.79,0,0,0,.23,1,.88.88,0,0,0,1.42,0,1.85,1.85,0,0,0,.22-1,1.89,1.89,0,0,0-.22-1,.89.89,0,0,0-1.43,0Zm4.75-1.11L34,283l-4.59,7.73-.44-.27Zm.91,4.76a1.9,1.9,0,0,1,.41,1.3,2,2,0,0,1-.4,1.32,1.49,1.49,0,0,1-2.17,0,2.3,2.3,0,0,1,0-2.62,1.34,1.34,0,0,1,1.08-.48A1.36,1.36,0,0,1,34.44,287.51Zm-1.8.34a2.2,2.2,0,0,0,0,1.94.77.77,0,0,0,.71.36.76.76,0,0,0,.71-.36,1.85,1.85,0,0,0,.22-1,1.8,1.8,0,0,0-.22-1,.76.76,0,0,0-.71-.36A.79.79,0,0,0,32.64,287.85Z"/><path class="cls-7" d="M18,242.65a1.89,1.89,0,0,1,.49,1.36,3.41,3.41,0,0,1-.27,1.34,7.41,7.41,0,0,1-.84,1.41q-.59.77-1.83,2.25h3.12l-.09.55H14.82V249c.88-1,1.52-1.85,1.93-2.39a6.81,6.81,0,0,0,.84-1.39,3,3,0,0,0,.25-1.23,1.43,1.43,0,0,0-.33-1,1.16,1.16,0,0,0-.91-.37,1.48,1.48,0,0,0-.79.21,2.26,2.26,0,0,0-.67.62l-.42-.31a2.77,2.77,0,0,1,.86-.79,2.15,2.15,0,0,1,1-.26A1.76,1.76,0,0,1,18,242.65Z"/><path class="cls-7" d="M24,245.91c0,2.51-.7,3.77-2.08,3.77a1.68,1.68,0,0,1-1.56-.94,5.87,5.87,0,0,1-.53-2.84c0-2.52.7-3.78,2.09-3.78S24,243.39,24,245.91Zm-3.17-2.49a6.25,6.25,0,0,0-.36,2.48,6.34,6.34,0,0,0,.36,2.49,1.15,1.15,0,0,0,2.17,0,8.76,8.76,0,0,0,0-5,1.14,1.14,0,0,0-2.17,0Z"/><path class="cls-7" d="M30.58,242.6a1.93,1.93,0,0,1,.41,1.3,2,2,0,0,1-.41,1.32,1.46,1.46,0,0,1-2.16,0,2,2,0,0,1-.41-1.3,2,2,0,0,1,.41-1.32,1.34,1.34,0,0,1,1.08-.48A1.37,1.37,0,0,1,30.58,242.6Zm-1.8.34a1.85,1.85,0,0,0-.22,1,1.78,1.78,0,0,0,.23,1,.87.87,0,0,0,1.42,0,1.81,1.81,0,0,0,.22-1,1.89,1.89,0,0,0-.22-1,.89.89,0,0,0-1.43,0Zm4.75-1.11.45.26-4.59,7.72-.44-.26Zm.91,4.75a1.92,1.92,0,0,1,.41,1.31,2,2,0,0,1-.4,1.31,1.47,1.47,0,0,1-2.17,0,2,2,0,0,1-.41-1.3,2,2,0,0,1,.41-1.32,1.36,1.36,0,0,1,1.08-.47A1.38,1.38,0,0,1,34.44,246.58Zm-1.8.35a1.79,1.79,0,0,0-.22,1,1.83,1.83,0,0,0,.23,1,.77.77,0,0,0,.71.36.76.76,0,0,0,.71-.36,1.85,1.85,0,0,0,.22-1,1.77,1.77,0,0,0-.22-1,.76.76,0,0,0-.71-.36A.79.79,0,0,0,32.64,246.93Z"/><path class="cls-7" d="M18.81,206.19v.52h-.87v1.93h-.6v-1.93H14.45v-.47l2-5,.53.2-1.89,4.79h2.25l.07-2.15h.53v2.15Z"/><path class="cls-7" d="M24,205c0,2.52-.7,3.78-2.08,3.78a1.7,1.7,0,0,1-1.56-.94,5.91,5.91,0,0,1-.53-2.85c0-2.51.7-3.77,2.09-3.77S24,202.46,24,205Zm-3.17-2.49a8.79,8.79,0,0,0,0,5,1.15,1.15,0,0,0,2.17,0,8.79,8.79,0,0,0,0-5,1.15,1.15,0,0,0-2.17,0Z"/><path class="cls-7" d="M30.58,201.67A2,2,0,0,1,31,203a2,2,0,0,1-.41,1.32,1.45,1.45,0,0,1-2.16,0,2.3,2.3,0,0,1,0-2.62,1.34,1.34,0,0,1,1.08-.48A1.39,1.39,0,0,1,30.58,201.67Zm-1.8.34a1.87,1.87,0,0,0-.22,1,1.79,1.79,0,0,0,.23,1,.88.88,0,0,0,1.42,0,2.2,2.2,0,0,0,0-1.94.76.76,0,0,0-.7-.36A.79.79,0,0,0,28.78,202Zm4.75-1.11.45.27-4.59,7.72-.44-.26Zm.91,4.76a1.9,1.9,0,0,1,.41,1.3,2,2,0,0,1-.4,1.32,1.47,1.47,0,0,1-2.17,0,2,2,0,0,1-.41-1.3,2,2,0,0,1,.41-1.32,1.34,1.34,0,0,1,1.08-.48A1.37,1.37,0,0,1,34.44,205.66Zm-1.8.34a1.83,1.83,0,0,0-.22,1,1.79,1.79,0,0,0,.23,1,.87.87,0,0,0,1.42,0,1.83,1.83,0,0,0,.22-1,1.8,1.8,0,0,0-.22-1,.77.77,0,0,0-.71-.36A.79.79,0,0,0,32.64,206Z"/><path class="cls-7" d="M18.13,163.54a2.58,2.58,0,0,1,.5,1.71,3.5,3.5,0,0,1-.25,1.4,1.87,1.87,0,0,1-.69.88,1.74,1.74,0,0,1-1,.3,1.71,1.71,0,0,1-1.61-.91,5.28,5.28,0,0,1-.5-2.5,7.74,7.74,0,0,1,.29-2.23,3.06,3.06,0,0,1,.83-1.42,1.83,1.83,0,0,1,1.28-.49,2,2,0,0,1,1.24.43l-.27.41a1.65,1.65,0,0,0-1-.33,1.41,1.41,0,0,0-1.27.87,5.27,5.27,0,0,0-.5,2.36A1.93,1.93,0,0,1,16.87,163,1.58,1.58,0,0,1,18.13,163.54Zm-.46,3.23a2.78,2.78,0,0,0,.34-1.5,2.28,2.28,0,0,0-.33-1.37,1,1,0,0,0-.9-.44,1.42,1.42,0,0,0-.9.32,2.69,2.69,0,0,0-.69.9,4.5,4.5,0,0,0,.37,2,1.19,1.19,0,0,0,1.12.67A1.1,1.1,0,0,0,17.67,166.77Z"/><path class="cls-7" d="M24,164.06c0,2.52-.7,3.77-2.08,3.77a1.68,1.68,0,0,1-1.56-.94,5.84,5.84,0,0,1-.53-2.84c0-2.51.7-3.77,2.09-3.77S24,161.54,24,164.06Zm-3.17-2.49a8.76,8.76,0,0,0,0,5,1.14,1.14,0,0,0,2.17,0,6.25,6.25,0,0,0,.36-2.48,6.34,6.34,0,0,0-.36-2.49,1.14,1.14,0,0,0-2.17,0Z"/><path class="cls-7" d="M30.58,160.75a2,2,0,0,1,.41,1.3,2,2,0,0,1-.41,1.32,1.46,1.46,0,0,1-2.16,0,2.28,2.28,0,0,1,0-2.61,1.34,1.34,0,0,1,1.08-.48A1.39,1.39,0,0,1,30.58,160.75Zm-1.8.34a1.85,1.85,0,0,0-.22,1,1.79,1.79,0,0,0,.23,1,.88.88,0,0,0,1.42,0,1.85,1.85,0,0,0,.22-1,1.79,1.79,0,0,0-.23-1,.76.76,0,0,0-.7-.36A.79.79,0,0,0,28.78,161.09ZM33.53,160l.45.26L29.39,168,29,167.7Zm.91,4.76a2,2,0,0,1,.41,1.3,2,2,0,0,1-.4,1.32,1.49,1.49,0,0,1-2.17,0,2.3,2.3,0,0,1,0-2.62,1.34,1.34,0,0,1,1.08-.48A1.36,1.36,0,0,1,34.44,164.74Zm-1.8.34a2.2,2.2,0,0,0,0,1.94.88.88,0,0,0,1.42,0,1.85,1.85,0,0,0,.22-1,1.8,1.8,0,0,0-.22-1,.77.77,0,0,0-.71-.36A.79.79,0,0,0,32.64,165.08Z"/><path class="cls-7" d="M18.27,123.72a1.82,1.82,0,0,1,.36,1.17,1.91,1.91,0,0,1-.6,1.48,2.23,2.23,0,0,1-1.57.54,2.17,2.17,0,0,1-1.56-.55,1.91,1.91,0,0,1-.57-1.45,2.1,2.1,0,0,1,1.45-2,2.16,2.16,0,0,1-.89-.68,1.66,1.66,0,0,1-.28-1,1.87,1.87,0,0,1,.26-1,1.65,1.65,0,0,1,.68-.63,2.08,2.08,0,0,1,.93-.21,2.11,2.11,0,0,1,.93.21,1.6,1.6,0,0,1,.68.61,1.75,1.75,0,0,1,.26,1,1.61,1.61,0,0,1-.29,1,2.75,2.75,0,0,1-.93.76A2.87,2.87,0,0,1,18.27,123.72Zm-.68,2.3A1.48,1.48,0,0,0,18,124.9a1.45,1.45,0,0,0-.31-1,3.06,3.06,0,0,0-1.13-.69l-.34-.14a2.27,2.27,0,0,0-1,.74,1.84,1.84,0,0,0-.31,1.11,1.47,1.47,0,0,0,.41,1.11,1.57,1.57,0,0,0,1.11.37A1.61,1.61,0,0,0,17.59,126Zm-2.11-4a2.49,2.49,0,0,0,.94.59l.3.13a2.75,2.75,0,0,0,.79-.68,1.53,1.53,0,0,0,.24-.87,1.39,1.39,0,0,0-.34-1,1.22,1.22,0,0,0-.93-.35,1.25,1.25,0,0,0-.92.34,1.36,1.36,0,0,0-.34,1A1.2,1.2,0,0,0,15.48,122Z"/><path class="cls-7" d="M24,123.14c0,2.51-.7,3.77-2.08,3.77a1.68,1.68,0,0,1-1.56-.94,5.87,5.87,0,0,1-.53-2.84c0-2.52.69-3.78,2.09-3.78S24,120.62,24,123.14Zm-3.17-2.49a6.25,6.25,0,0,0-.36,2.48,6.34,6.34,0,0,0,.36,2.49,1.15,1.15,0,0,0,1.09.77,1.16,1.16,0,0,0,1.08-.77,8.76,8.76,0,0,0,0-5,1.14,1.14,0,0,0-2.17,0Z"/><path class="cls-7" d="M30.58,119.83a1.93,1.93,0,0,1,.41,1.3,2,2,0,0,1-.41,1.32,1.45,1.45,0,0,1-2.16,0,2,2,0,0,1-.41-1.3,2,2,0,0,1,.41-1.32,1.34,1.34,0,0,1,1.08-.48A1.37,1.37,0,0,1,30.58,119.83Zm-1.8.34a1.85,1.85,0,0,0-.22,1,1.78,1.78,0,0,0,.23.95.87.87,0,0,0,1.42,0,2.18,2.18,0,0,0,0-1.93.76.76,0,0,0-.7-.36A.79.79,0,0,0,28.78,120.17Zm4.75-1.11.45.26L29.39,127l-.45-.26Zm.91,4.75a2,2,0,0,1,.41,1.31,1.91,1.91,0,0,1-.41,1.31,1.34,1.34,0,0,1-1.08.48,1.37,1.37,0,0,1-1.08-.48,2,2,0,0,1-.41-1.3,2,2,0,0,1,.41-1.32,1.36,1.36,0,0,1,1.08-.47A1.39,1.39,0,0,1,34.44,123.81Zm-1.8.35a1.79,1.79,0,0,0-.22,1,1.83,1.83,0,0,0,.23,1,.88.88,0,0,0,1.42,0,1.85,1.85,0,0,0,.22-1,1.77,1.77,0,0,0-.22-1,.77.77,0,0,0-.71-.36A.79.79,0,0,0,32.64,124.16Z"/><path class="cls-7" d="M12.39,78.55v7.32h-.62V79.23l-1.6,1.12-.29-.44,2-1.36Z"/><path class="cls-7" d="M18.46,82.22c0,2.51-.69,3.77-2.08,3.77a1.7,1.7,0,0,1-1.56-.94,6,6,0,0,1-.53-2.85c0-2.51.7-3.77,2.09-3.77S18.46,79.69,18.46,82.22Zm-3.17-2.5a8.79,8.79,0,0,0,0,5,1.18,1.18,0,0,0,1.09.77,1.16,1.16,0,0,0,1.08-.77,6.32,6.32,0,0,0,.36-2.48,6.59,6.59,0,0,0-.35-2.5A1.16,1.16,0,0,0,16.38,79,1.18,1.18,0,0,0,15.29,79.72Z"/><path class="cls-7" d="M24,82.22c0,2.51-.7,3.77-2.08,3.77a1.7,1.7,0,0,1-1.56-.94,5.91,5.91,0,0,1-.53-2.85c0-2.51.69-3.77,2.09-3.77S24,79.69,24,82.22Zm-3.17-2.5a8.79,8.79,0,0,0,0,5,1.16,1.16,0,0,0,1.09.77A1.18,1.18,0,0,0,23,84.7a8.79,8.79,0,0,0,0-5,1.15,1.15,0,0,0-2.17,0Z"/><path class="cls-7" d="M30.58,78.9A2,2,0,0,1,31,80.2a2,2,0,0,1-.41,1.32,1.45,1.45,0,0,1-2.16,0,2.3,2.3,0,0,1,0-2.62,1.34,1.34,0,0,1,1.08-.48A1.39,1.39,0,0,1,30.58,78.9Zm-1.8.35a2.18,2.18,0,0,0,0,1.93.88.88,0,0,0,1.42,0,1.85,1.85,0,0,0,.22-1,1.78,1.78,0,0,0-.23-1,.75.75,0,0,0-.7-.37A.77.77,0,0,0,28.78,79.25Zm4.75-1.12.45.27-4.59,7.72-.45-.26Zm.91,4.76a2,2,0,0,1,.41,1.31,1.92,1.92,0,0,1-.41,1.31,1.34,1.34,0,0,1-1.08.48,1.37,1.37,0,0,1-1.08-.48,2,2,0,0,1-.41-1.3,2,2,0,0,1,.41-1.32,1.34,1.34,0,0,1,1.08-.48A1.37,1.37,0,0,1,34.44,82.89Zm-1.8.34a1.85,1.85,0,0,0-.22,1,1.79,1.79,0,0,0,.23,1,.87.87,0,0,0,1.42,0,2.25,2.25,0,0,0,0-1.94.76.76,0,0,0-.71-.35A.78.78,0,0,0,32.64,83.23Z"/><path class="cls-7" d="M45.72,290.62v7.31h-.61V291.3l-1.61,1.11-.29-.44,2-1.35Z"/><path class="cls-7" d="M51.19,293.76a2.58,2.58,0,0,1,.49,1.71,3.6,3.6,0,0,1-.24,1.39,2,2,0,0,1-.69.89,1.74,1.74,0,0,1-1,.3,1.7,1.7,0,0,1-1.61-.91,5.16,5.16,0,0,1-.5-2.5,7.36,7.36,0,0,1,.29-2.23,3.06,3.06,0,0,1,.83-1.42A1.81,1.81,0,0,1,50,290.5a2,2,0,0,1,1.25.43l-.28.41a1.63,1.63,0,0,0-1-.33,1.4,1.4,0,0,0-1.26.87,5.4,5.4,0,0,0-.51,2.36,1.93,1.93,0,0,1,1.68-1.07A1.59,1.59,0,0,1,51.19,293.76ZM50.73,297a2.87,2.87,0,0,0,.34-1.5,2.34,2.34,0,0,0-.33-1.38,1.06,1.06,0,0,0-.9-.43,1.38,1.38,0,0,0-.9.32,2.59,2.59,0,0,0-.7.9,4.48,4.48,0,0,0,.38,2,1.2,1.2,0,0,0,1.12.67A1.12,1.12,0,0,0,50.73,297Z"/><path class="cls-7" d="M52.61,294.26v-.53H57v.53Z"/><path class="cls-7" d="M60.9,291a1.9,1.9,0,0,1,.5,1.36,3.41,3.41,0,0,1-.27,1.34,7,7,0,0,1-.85,1.41c-.38.51-1,1.26-1.83,2.25h3.12l-.09.55H57.76v-.51q1.32-1.59,1.92-2.4a6.92,6.92,0,0,0,.85-1.39,3.21,3.21,0,0,0,.24-1.23,1.45,1.45,0,0,0-.33-1,1.17,1.17,0,0,0-.9-.37,1.52,1.52,0,0,0-.8.21,2.38,2.38,0,0,0-.67.62l-.41-.31a2.74,2.74,0,0,1,.85-.79,2.14,2.14,0,0,1,1.05-.25A1.76,1.76,0,0,1,60.9,291Z"/><path class="cls-7" d="M66.9,295.49V296H66v1.92h-.6V296H62.53v-.48l2-5,.53.19-1.89,4.8h2.25l.07-2.16H66v2.16Z"/><path class="cls-7" d="M81.93,291a1.9,1.9,0,0,1,.5,1.36,3.41,3.41,0,0,1-.27,1.34,7,7,0,0,1-.85,1.41q-.57.76-1.83,2.25H82.6l-.08.55H78.79v-.51q1.32-1.59,1.92-2.4a6.49,6.49,0,0,0,.85-1.39,3.21,3.21,0,0,0,.24-1.23,1.45,1.45,0,0,0-.33-1,1.17,1.17,0,0,0-.9-.37,1.52,1.52,0,0,0-.8.21,2.23,2.23,0,0,0-.66.62l-.42-.31a2.85,2.85,0,0,1,.85-.79,2.14,2.14,0,0,1,1-.25A1.74,1.74,0,0,1,81.93,291Z"/><path class="cls-7" d="M87.16,291.13H84.5v2.52a2,2,0,0,1,1.12-.35,1.65,1.65,0,0,1,1.35.61,2.51,2.51,0,0,1,.51,1.67,2.9,2.9,0,0,1-.27,1.28,2,2,0,0,1-.74.88,2.05,2.05,0,0,1-1.14.31,2.26,2.26,0,0,1-1-.22,3,3,0,0,1-.85-.66l.4-.35a2,2,0,0,0,.67.53,1.75,1.75,0,0,0,.81.17,1.3,1.3,0,0,0,1.1-.52,2.27,2.27,0,0,0,.41-1.43,2,2,0,0,0-.37-1.33,1.23,1.23,0,0,0-1-.43,1.58,1.58,0,0,0-.56.08,1.94,1.94,0,0,0-.54.27H83.9v-3.54h3.36Z"/><path class="cls-7" d="M88.37,294.26v-.53h4.38v.53Z"/><path class="cls-7" d="M96.69,291a1.82,1.82,0,0,1,.49,1.31,1.69,1.69,0,0,1-.37,1.15,1.73,1.73,0,0,1-1,.57,1.67,1.67,0,0,1,1.12.53,1.84,1.84,0,0,1,.43,1.29,2.46,2.46,0,0,1-.26,1.14,1.83,1.83,0,0,1-.74.77,2.12,2.12,0,0,1-1.1.28,2.28,2.28,0,0,1-1.07-.23,2.57,2.57,0,0,1-.86-.71l.4-.32a2.39,2.39,0,0,0,.7.58,1.92,1.92,0,0,0,.81.17,1.36,1.36,0,0,0,1.09-.45,1.79,1.79,0,0,0,.4-1.23,1.36,1.36,0,0,0-1.54-1.54h-.43l.07-.49h.33a1.45,1.45,0,0,0,1-.38,1.61,1.61,0,0,0,.07-2.09,1.23,1.23,0,0,0-.93-.36,1.88,1.88,0,0,0-.76.16,2.52,2.52,0,0,0-.68.51l-.34-.35a2.69,2.69,0,0,1,.84-.62,2.25,2.25,0,0,1,1-.2A1.81,1.81,0,0,1,96.69,291Z"/><path class="cls-7" d="M102.79,295.49V296h-.88v1.92h-.59V296h-2.9v-.48l2-5,.52.19-1.89,4.8h2.26l.06-2.16h.53v2.16Z"/><path class="cls-7" d="M117.39,291a1.83,1.83,0,0,1,.5,1.31,1.69,1.69,0,0,1-.37,1.15,1.76,1.76,0,0,1-1,.57,1.68,1.68,0,0,1,1.13.53,1.84,1.84,0,0,1,.43,1.29,2.46,2.46,0,0,1-.26,1.14,2,2,0,0,1-.74.77,2.12,2.12,0,0,1-1.1.28,2.28,2.28,0,0,1-1.07-.23,2.57,2.57,0,0,1-.86-.71l.4-.32a2.27,2.27,0,0,0,.7.58,1.89,1.89,0,0,0,.81.17,1.34,1.34,0,0,0,1.09-.46,1.74,1.74,0,0,0,.4-1.22,1.36,1.36,0,0,0-1.54-1.54h-.43l.07-.49h.33a1.47,1.47,0,0,0,1-.38,1.65,1.65,0,0,0,.07-2.09A1.23,1.23,0,0,0,116,291a1.73,1.73,0,0,0-.76.16,2.52,2.52,0,0,0-.68.51l-.34-.35a2.54,2.54,0,0,1,.84-.62,2.25,2.25,0,0,1,1-.2A1.77,1.77,0,0,1,117.39,291Z"/><path class="cls-7" d="M122.73,291.13h-2.66v2.52a2,2,0,0,1,1.12-.35,1.66,1.66,0,0,1,1.35.61,2.51,2.51,0,0,1,.51,1.67,2.9,2.9,0,0,1-.27,1.28,2,2,0,0,1-.74.88,2.05,2.05,0,0,1-1.14.31,2.26,2.26,0,0,1-1-.22,3,3,0,0,1-.85-.66l.4-.35a2,2,0,0,0,.67.53,1.75,1.75,0,0,0,.81.17A1.32,1.32,0,0,0,122,297a2.27,2.27,0,0,0,.41-1.43,2,2,0,0,0-.37-1.33,1.23,1.23,0,0,0-1-.43,1.67,1.67,0,0,0-.57.08,2,2,0,0,0-.53.27h-.48v-3.54h3.36Z"/><path class="cls-7" d="M123.94,294.26v-.53h4.38v.53Z"/><path class="cls-7" d="M133.53,295.49V296h-.88v1.92h-.59V296h-2.9v-.48l2-5,.52.19-1.89,4.8h2.26l.06-2.16h.53v2.16Z"/><path class="cls-7" d="M138.68,295.49V296h-.88v1.92h-.6V296h-2.89v-.48l2-5,.53.19-1.89,4.8h2.25l.07-2.16h.53v2.16Z"/><path class="cls-7" d="M154.54,295.49V296h-.88v1.92h-.59V296h-2.9v-.48l2-5,.52.19-1.89,4.8h2.26l.06-2.16h.53v2.16Z"/><path class="cls-7" d="M158.92,291.13h-2.66v2.52a2,2,0,0,1,1.12-.35,1.66,1.66,0,0,1,1.35.61,2.51,2.51,0,0,1,.51,1.67,2.9,2.9,0,0,1-.27,1.28,2,2,0,0,1-.74.88,2.07,2.07,0,0,1-1.14.31,2.26,2.26,0,0,1-1-.22,3,3,0,0,1-.85-.66l.4-.35a2,2,0,0,0,.67.53,1.73,1.73,0,0,0,.81.17,1.32,1.32,0,0,0,1.1-.52,2.27,2.27,0,0,0,.41-1.43,2,2,0,0,0-.37-1.33,1.25,1.25,0,0,0-1-.43,1.65,1.65,0,0,0-.56.08,2,2,0,0,0-.53.27h-.48v-3.54H159Z"/><path class="cls-7" d="M160.13,294.26v-.53h4.38v.53Z"/><path class="cls-7" d="M169,291.13h-2.66v2.52a2,2,0,0,1,1.12-.35,1.64,1.64,0,0,1,1.35.61,2.51,2.51,0,0,1,.51,1.67,3,3,0,0,1-.26,1.28,2.09,2.09,0,0,1-.75.88,2,2,0,0,1-1.14.31,2.29,2.29,0,0,1-1-.22,3,3,0,0,1-.85-.66l.4-.35a2.14,2.14,0,0,0,.67.53,1.78,1.78,0,0,0,.81.17,1.3,1.3,0,0,0,1.1-.52,2.21,2.21,0,0,0,.41-1.43,2,2,0,0,0-.37-1.33,1.21,1.21,0,0,0-1-.43,1.61,1.61,0,0,0-.56.08,2.26,2.26,0,0,0-.54.27h-.48v-3.54h3.36Z"/><path class="cls-7" d="M174.57,295.49V296h-.88v1.92h-.59V296h-2.9v-.48l2-5,.52.19-1.89,4.8h2.26l.06-2.16h.53v2.16Z"/><path class="cls-7" d="M179.76,310.93,178,316.68h-.75l-1.85-5.75H176l1.56,5.22,1.52-5.22Z"/><path class="cls-7" d="M184.65,314.06h-3.46a2.83,2.83,0,0,0,.47,1.68,1.37,1.37,0,0,0,1.13.54,2,2,0,0,0,.72-.13,2.77,2.77,0,0,0,.66-.42l.31.38a3.12,3.12,0,0,1-.8.52,2.27,2.27,0,0,1-.91.18,1.94,1.94,0,0,1-1.63-.78,3.5,3.5,0,0,1-.59-2.17,3.83,3.83,0,0,1,.57-2.24,1.77,1.77,0,0,1,1.54-.81,1.73,1.73,0,0,1,1.5.73,3.53,3.53,0,0,1,.51,2A3.62,3.62,0,0,1,184.65,314.06Zm-.78-5.81.27.29-1.28,1.18h-.39l-1.28-1.18.27-.29,1.21.93Zm.2,5.15a2.85,2.85,0,0,0-.35-1.54,1.2,1.2,0,0,0-1.06-.53,1.22,1.22,0,0,0-1,.54,3,3,0,0,0-.44,1.7h2.88Z"/><path class="cls-7" d="M186.9,308.51v8.17h-.62v-8.09Zm2.91,2.42-2.17,2.58,2.4,3.17h-.71L187,313.54l2.17-2.61Z"/><path class="cls-7" d="M189.53,291.13h-2.66v2.52a2,2,0,0,1,1.12-.35,1.67,1.67,0,0,1,1.36.61,2.56,2.56,0,0,1,.5,1.67,3,3,0,0,1-.26,1.28,2.09,2.09,0,0,1-.75.88,2,2,0,0,1-1.13.31,2.31,2.31,0,0,1-1-.22,2.84,2.84,0,0,1-.84-.66l.39-.35a2.14,2.14,0,0,0,.67.53,1.8,1.8,0,0,0,.82.17,1.32,1.32,0,0,0,1.1-.52,2.27,2.27,0,0,0,.4-1.43,2,2,0,0,0-.36-1.33,1.25,1.25,0,0,0-1-.43,1.61,1.61,0,0,0-.56.08,2.26,2.26,0,0,0-.54.27h-.47v-3.54h3.35Z"/><path class="cls-7" d="M194.38,291.13h-2.66v2.52a2,2,0,0,1,1.12-.35,1.67,1.67,0,0,1,1.36.61,2.56,2.56,0,0,1,.5,1.67,3,3,0,0,1-.26,1.28,2.09,2.09,0,0,1-.75.88,2,2,0,0,1-1.13.31,2.31,2.31,0,0,1-1-.22,2.84,2.84,0,0,1-.84-.66l.39-.35a2.14,2.14,0,0,0,.67.53,1.8,1.8,0,0,0,.82.17,1.32,1.32,0,0,0,1.1-.52,2.27,2.27,0,0,0,.4-1.43,2,2,0,0,0-.36-1.33,1.25,1.25,0,0,0-1-.43,1.61,1.61,0,0,0-.56.08,2.26,2.26,0,0,0-.54.27h-.47v-3.54h3.35Z"/><path class="cls-7" d="M195.59,294.26v-.53H200v.53Z"/><path class="cls-7" d="M204.64,293.76a2.58,2.58,0,0,1,.49,1.71,3.42,3.42,0,0,1-.25,1.39,2,2,0,0,1-.68.89,1.8,1.8,0,0,1-1,.3,1.69,1.69,0,0,1-1.6-.91,5.15,5.15,0,0,1-.51-2.5,7.69,7.69,0,0,1,.29-2.23,3.15,3.15,0,0,1,.83-1.42,1.83,1.83,0,0,1,1.28-.49,2,2,0,0,1,1.24.42l-.27.42a1.63,1.63,0,0,0-1-.33,1.41,1.41,0,0,0-1.27.87,5.56,5.56,0,0,0-.5,2.36,1.93,1.93,0,0,1,1.68-1.07A1.6,1.6,0,0,1,204.64,293.76Zm-.47,3.23a2.78,2.78,0,0,0,.34-1.5,2.34,2.34,0,0,0-.33-1.38,1.07,1.07,0,0,0-.9-.44,1.38,1.38,0,0,0-.89.33,2.5,2.5,0,0,0-.7.9,4.34,4.34,0,0,0,.38,2,1.19,1.19,0,0,0,1.11.67A1.09,1.09,0,0,0,204.17,297Z"/><path class="cls-7" d="M210.47,295.49V296h-.88v1.92H209V296H206.1v-.48l2-5,.53.19-1.89,4.8H209l.07-2.16h.53v2.16Z"/><path class="cls-7" d="M226.15,293.76a2.58,2.58,0,0,1,.5,1.71,3.6,3.6,0,0,1-.25,1.39,2,2,0,0,1-.69.89,1.74,1.74,0,0,1-1,.3,1.71,1.71,0,0,1-1.61-.91,5.28,5.28,0,0,1-.5-2.5,7.69,7.69,0,0,1,.29-2.23,3.06,3.06,0,0,1,.83-1.42,1.81,1.81,0,0,1,1.28-.49,2,2,0,0,1,1.24.43l-.28.41a1.6,1.6,0,0,0-1-.33,1.41,1.41,0,0,0-1.27.87,5.4,5.4,0,0,0-.51,2.36,1.93,1.93,0,0,1,1.69-1.07A1.58,1.58,0,0,1,226.15,293.76Zm-.46,3.23a2.78,2.78,0,0,0,.34-1.5,2.34,2.34,0,0,0-.33-1.38,1.06,1.06,0,0,0-.9-.43,1.42,1.42,0,0,0-.9.32,2.71,2.71,0,0,0-.7.9,4.63,4.63,0,0,0,.38,2,1.2,1.2,0,0,0,1.12.67A1.12,1.12,0,0,0,225.69,297Z"/><path class="cls-7" d="M231.21,291.13h-2.66v2.52a2,2,0,0,1,1.12-.35,1.64,1.64,0,0,1,1.35.61,2.51,2.51,0,0,1,.51,1.67,3,3,0,0,1-.26,1.28,2.09,2.09,0,0,1-.75.88,2,2,0,0,1-1.13.31,2.31,2.31,0,0,1-1-.22,2.84,2.84,0,0,1-.84-.66l.39-.35a2.14,2.14,0,0,0,.67.53,1.8,1.8,0,0,0,.82.17,1.32,1.32,0,0,0,1.1-.52,2.27,2.27,0,0,0,.4-1.43,2,2,0,0,0-.37-1.33,1.21,1.21,0,0,0-1-.43,1.61,1.61,0,0,0-.56.08,2.26,2.26,0,0,0-.54.27H228v-3.54h3.35Z"/><path class="cls-7" d="M232.42,294.26v-.53h4.38v.53Z"/><path class="cls-7" d="M241.2,290.62v.48L238.61,298l-.56-.19,2.52-6.68H237.5v-.53Z"/><path class="cls-7" d="M246.36,295.49V296h-.88v1.92h-.6V296H242v-.48l2-5,.53.19-1.89,4.8h2.25l.07-2.16h.53v2.16Z"/><path class="cls-7" d="M373.56,291a1.89,1.89,0,0,1,.49,1.36,3.41,3.41,0,0,1-.27,1.34,7,7,0,0,1-.85,1.41q-.57.76-1.83,2.25h3.13l-.09.55h-3.73v-.51q1.32-1.59,1.92-2.4a6.49,6.49,0,0,0,.85-1.39,3.21,3.21,0,0,0,.24-1.23,1.45,1.45,0,0,0-.33-1,1.17,1.17,0,0,0-.9-.37,1.52,1.52,0,0,0-.8.21,2.23,2.23,0,0,0-.66.62l-.42-.31a2.85,2.85,0,0,1,.85-.79,2.14,2.14,0,0,1,1-.25A1.76,1.76,0,0,1,373.56,291Z"/><path class="cls-7" d="M378.78,291.13h-2.66v2.52a2,2,0,0,1,1.12-.35,1.64,1.64,0,0,1,1.35.61,2.51,2.51,0,0,1,.51,1.67,3,3,0,0,1-.26,1.28,2.09,2.09,0,0,1-.75.88,2,2,0,0,1-1.14.31,2.29,2.29,0,0,1-1-.22,3,3,0,0,1-.85-.66l.4-.35a2.14,2.14,0,0,0,.67.53,1.78,1.78,0,0,0,.81.17,1.3,1.3,0,0,0,1.1-.52,2.21,2.21,0,0,0,.41-1.43,2,2,0,0,0-.37-1.33,1.21,1.21,0,0,0-1-.43,1.61,1.61,0,0,0-.56.08,2.26,2.26,0,0,0-.54.27h-.48v-3.54h3.36Z"/><path class="cls-7" d="M380,294.26v-.53h4.38v.53Z"/><path class="cls-7" d="M388.31,291a1.82,1.82,0,0,1,.49,1.31,1.69,1.69,0,0,1-.37,1.15,1.73,1.73,0,0,1-1,.57,1.67,1.67,0,0,1,1.12.53,1.8,1.8,0,0,1,.43,1.29,2.46,2.46,0,0,1-.26,1.14,1.83,1.83,0,0,1-.74.77,2.09,2.09,0,0,1-1.1.28,2.28,2.28,0,0,1-1.07-.23,2.67,2.67,0,0,1-.86-.71l.4-.32a2.39,2.39,0,0,0,.7.58,1.94,1.94,0,0,0,.82.17,1.39,1.39,0,0,0,1.09-.45,1.83,1.83,0,0,0,.39-1.23,1.36,1.36,0,0,0-1.54-1.54h-.43l.07-.49h.33a1.45,1.45,0,0,0,1-.38,1.61,1.61,0,0,0,.07-2.09,1.23,1.23,0,0,0-.93-.36,1.88,1.88,0,0,0-.76.16,2.52,2.52,0,0,0-.68.51l-.34-.35a2.69,2.69,0,0,1,.84-.62,2.25,2.25,0,0,1,1-.2A1.79,1.79,0,0,1,388.31,291Z"/><path class="cls-7" d="M394.41,295.49V296h-.88v1.92h-.59V296H390v-.48l2-5,.52.19-1.89,4.8h2.26l.06-2.16h.53v2.16Z"/><path class="cls-7" d="M409,291a1.82,1.82,0,0,1,.49,1.31,1.69,1.69,0,0,1-.37,1.15,1.73,1.73,0,0,1-1,.57,1.67,1.67,0,0,1,1.12.53,1.84,1.84,0,0,1,.43,1.29,2.46,2.46,0,0,1-.26,1.14,1.89,1.89,0,0,1-.74.77,2.12,2.12,0,0,1-1.1.28,2.28,2.28,0,0,1-1.07-.23,2.67,2.67,0,0,1-.86-.71l.4-.32a2.39,2.39,0,0,0,.7.58,1.92,1.92,0,0,0,.81.17,1.34,1.34,0,0,0,1.09-.46,1.74,1.74,0,0,0,.4-1.22,1.36,1.36,0,0,0-1.54-1.54h-.43l.07-.49h.33a1.45,1.45,0,0,0,1-.38,1.61,1.61,0,0,0,.07-2.09,1.23,1.23,0,0,0-.93-.36,1.73,1.73,0,0,0-.76.16,2.52,2.52,0,0,0-.68.51l-.34-.35a2.54,2.54,0,0,1,.84-.62,2.25,2.25,0,0,1,1-.2A1.79,1.79,0,0,1,409,291Z"/><path class="cls-7" d="M414.35,291.13h-2.66v2.52a2,2,0,0,1,1.12-.35,1.65,1.65,0,0,1,1.35.61,2.51,2.51,0,0,1,.51,1.67,2.9,2.9,0,0,1-.27,1.28,2,2,0,0,1-.74.88,2.05,2.05,0,0,1-1.14.31,2.29,2.29,0,0,1-1-.22,3,3,0,0,1-.85-.66l.4-.35a2.14,2.14,0,0,0,.67.53,1.75,1.75,0,0,0,.81.17,1.3,1.3,0,0,0,1.1-.52,2.27,2.27,0,0,0,.41-1.43,2,2,0,0,0-.37-1.33,1.21,1.21,0,0,0-1-.43,1.58,1.58,0,0,0-.56.08,2.09,2.09,0,0,0-.54.27h-.48v-3.54h3.36Z"/><path class="cls-7" d="M415.56,294.26v-.53h4.38v.53Z"/><path class="cls-7" d="M425.15,295.49V296h-.88v1.92h-.59V296h-2.9v-.48l2-5,.52.19-1.89,4.8h2.26l.06-2.16h.53v2.16Z"/><path class="cls-7" d="M430.3,295.49V296h-.88v1.92h-.59V296h-2.9v-.48l2-5,.52.19-1.89,4.8h2.26l.06-2.16h.53v2.16Z"/><path class="cls-7" d="M446.16,295.49V296h-.88v1.92h-.59V296H441.8v-.48l2-5,.52.19-1.89,4.8h2.26l.06-2.16h.53v2.16Z"/><path class="cls-7" d="M450.54,291.13h-2.66v2.52a2,2,0,0,1,1.12-.35,1.65,1.65,0,0,1,1.35.61,2.51,2.51,0,0,1,.51,1.67,2.9,2.9,0,0,1-.27,1.28,2,2,0,0,1-.74.88,2.05,2.05,0,0,1-1.14.31,2.26,2.26,0,0,1-1-.22,3,3,0,0,1-.85-.66l.4-.35a2,2,0,0,0,.67.53,1.75,1.75,0,0,0,.81.17,1.3,1.3,0,0,0,1.1-.52,2.27,2.27,0,0,0,.41-1.43,2,2,0,0,0-.37-1.33,1.23,1.23,0,0,0-1-.43,1.58,1.58,0,0,0-.56.08,1.94,1.94,0,0,0-.54.27h-.48v-3.54h3.36Z"/><path class="cls-7" d="M451.75,294.26v-.53h4.38v.53Z"/><path class="cls-7" d="M460.57,291.13h-2.66v2.52a2,2,0,0,1,1.12-.35,1.64,1.64,0,0,1,1.35.61,2.51,2.51,0,0,1,.51,1.67,3,3,0,0,1-.26,1.28,2.09,2.09,0,0,1-.75.88,2,2,0,0,1-1.13.31,2.31,2.31,0,0,1-1-.22,3,3,0,0,1-.85-.66l.4-.35a2.14,2.14,0,0,0,.67.53,1.8,1.8,0,0,0,.82.17,1.33,1.33,0,0,0,1.1-.52,2.27,2.27,0,0,0,.4-1.43,2,2,0,0,0-.37-1.33,1.21,1.21,0,0,0-1-.43,1.61,1.61,0,0,0-.56.08,2.26,2.26,0,0,0-.54.27h-.47v-3.54h3.35Z"/><path class="cls-7" d="M466.19,295.49V296h-.88v1.92h-.59V296h-2.89v-.48l2-5,.52.19-1.89,4.8h2.26l.06-2.16h.53v2.16Z"/><path class="cls-7" d="M481.15,291.13h-2.66v2.52a2,2,0,0,1,1.12-.35,1.67,1.67,0,0,1,1.36.61,2.56,2.56,0,0,1,.5,1.67,3,3,0,0,1-.26,1.28,2.09,2.09,0,0,1-.75.88,2,2,0,0,1-1.13.31,2.31,2.31,0,0,1-1-.22,2.84,2.84,0,0,1-.84-.66l.39-.35a2.26,2.26,0,0,0,.67.53,1.8,1.8,0,0,0,.82.17,1.32,1.32,0,0,0,1.1-.52,2.27,2.27,0,0,0,.4-1.43,2,2,0,0,0-.36-1.33,1.25,1.25,0,0,0-1-.43,1.61,1.61,0,0,0-.56.08,2.26,2.26,0,0,0-.54.27h-.47v-3.54h3.35Z"/><path class="cls-7" d="M486,291.13h-2.66v2.52a2,2,0,0,1,1.12-.35,1.67,1.67,0,0,1,1.36.61,2.56,2.56,0,0,1,.5,1.67,3,3,0,0,1-.26,1.28,2.09,2.09,0,0,1-.75.88,2,2,0,0,1-1.13.31,2.31,2.31,0,0,1-1-.22,2.84,2.84,0,0,1-.84-.66l.39-.35a2.26,2.26,0,0,0,.67.53,1.8,1.8,0,0,0,.82.17,1.32,1.32,0,0,0,1.1-.52,2.27,2.27,0,0,0,.41-1.43,2,2,0,0,0-.37-1.33,1.25,1.25,0,0,0-1-.43,1.61,1.61,0,0,0-.56.08,2.26,2.26,0,0,0-.54.27h-.47v-3.54h3.35Z"/><path class="cls-7" d="M487.22,294.26v-.53h4.37v.53Z"/><path class="cls-7" d="M496.26,293.76a2.58,2.58,0,0,1,.49,1.71,3.42,3.42,0,0,1-.25,1.39,2,2,0,0,1-.68.89,1.77,1.77,0,0,1-1,.3,1.7,1.7,0,0,1-1.6-.91,5.15,5.15,0,0,1-.51-2.5,7.69,7.69,0,0,1,.29-2.23,3.24,3.24,0,0,1,.83-1.42,1.83,1.83,0,0,1,1.28-.49,2,2,0,0,1,1.24.42l-.27.42a1.63,1.63,0,0,0-1-.33,1.41,1.41,0,0,0-1.27.87,5.56,5.56,0,0,0-.5,2.36,1.93,1.93,0,0,1,1.68-1.07A1.6,1.6,0,0,1,496.26,293.76Zm-.47,3.23a2.77,2.77,0,0,0,.35-1.5,2.34,2.34,0,0,0-.33-1.38,1.09,1.09,0,0,0-.91-.44,1.38,1.38,0,0,0-.89.33,2.5,2.5,0,0,0-.7.9,4.34,4.34,0,0,0,.38,2,1.19,1.19,0,0,0,1.11.67A1.09,1.09,0,0,0,495.79,297Z"/><path class="cls-7" d="M502.09,295.49V296h-.88v1.92h-.6V296h-2.89v-.48l2-5,.53.19-1.89,4.8h2.25l.07-2.16h.53v2.16Z"/><path class="cls-7" d="M517.77,293.76a2.58,2.58,0,0,1,.5,1.71,3.42,3.42,0,0,1-.25,1.39,1.9,1.9,0,0,1-.69.89,1.74,1.74,0,0,1-1,.3,1.69,1.69,0,0,1-1.6-.91,5.15,5.15,0,0,1-.51-2.5,7.69,7.69,0,0,1,.29-2.23,3.06,3.06,0,0,1,.83-1.42,1.83,1.83,0,0,1,1.28-.49,2,2,0,0,1,1.24.43l-.28.41a1.6,1.6,0,0,0-1-.33,1.41,1.41,0,0,0-1.27.87,5.4,5.4,0,0,0-.51,2.36,2,2,0,0,1,1.69-1.07A1.58,1.58,0,0,1,517.77,293.76Zm-.46,3.23a2.78,2.78,0,0,0,.34-1.5,2.34,2.34,0,0,0-.33-1.38,1.06,1.06,0,0,0-.9-.43,1.42,1.42,0,0,0-.9.32,2.84,2.84,0,0,0-.7.9,4.63,4.63,0,0,0,.38,2,1.2,1.2,0,0,0,1.12.67A1.12,1.12,0,0,0,517.31,297Z"/><path class="cls-7" d="M522.83,291.13h-2.66v2.52a2,2,0,0,1,1.12-.35,1.67,1.67,0,0,1,1.36.61,2.56,2.56,0,0,1,.5,1.67,3,3,0,0,1-.26,1.28,2.09,2.09,0,0,1-.75.88,2,2,0,0,1-1.13.31,2.31,2.31,0,0,1-1-.22,2.84,2.84,0,0,1-.84-.66l.39-.35a2.14,2.14,0,0,0,.67.53,1.8,1.8,0,0,0,.82.17,1.32,1.32,0,0,0,1.1-.52,2.27,2.27,0,0,0,.4-1.43,2,2,0,0,0-.36-1.33,1.25,1.25,0,0,0-1-.43,1.61,1.61,0,0,0-.56.08,2.26,2.26,0,0,0-.54.27h-.47v-3.54h3.35Z"/><path class="cls-7" d="M524,294.26v-.53h4.38v.53Z"/><path class="cls-7" d="M532.82,290.62v.48L530.24,298l-.57-.19,2.52-6.68h-3.07v-.53Z"/><path class="cls-7" d="M538,295.49V296h-.88v1.92h-.59V296h-2.9v-.48l2-5,.53.19-1.89,4.8h2.26l.06-2.16h.53v2.16Z"/><path class="cls-7" d="M553.32,290.62v.48L550.73,298l-.56-.19,2.52-6.69h-3.07v-.52Z"/><path class="cls-7" d="M557.71,291.13h-2.66v2.52a2,2,0,0,1,1.12-.35,1.66,1.66,0,0,1,1.35.61,2.51,2.51,0,0,1,.51,1.67,2.9,2.9,0,0,1-.27,1.28,2,2,0,0,1-.74.88,2.07,2.07,0,0,1-1.14.31,2.26,2.26,0,0,1-1-.22,3,3,0,0,1-.85-.66l.4-.35a2,2,0,0,0,.67.53,1.73,1.73,0,0,0,.81.17A1.32,1.32,0,0,0,557,297a2.27,2.27,0,0,0,.41-1.43,2,2,0,0,0-.37-1.33,1.25,1.25,0,0,0-1-.43,1.65,1.65,0,0,0-.56.08,2,2,0,0,0-.53.27h-.48v-3.54h3.36Z"/><path class="cls-7" d="M558.92,294.26v-.53h4.38v.53Z"/><path class="cls-7" d="M568.18,294.86a1.87,1.87,0,0,1,.35,1.17,1.93,1.93,0,0,1-.59,1.48,2.25,2.25,0,0,1-1.57.54,2.14,2.14,0,0,1-1.56-.55,1.88,1.88,0,0,1-.58-1.45,2.11,2.11,0,0,1,1.45-2.05,2.23,2.23,0,0,1-.89-.68,1.73,1.73,0,0,1-.27-1,1.79,1.79,0,0,1,.26-1,1.56,1.56,0,0,1,.68-.62,2.19,2.19,0,0,1,1.85,0,1.57,1.57,0,0,1,.69.61,1.86,1.86,0,0,1,.26,1,1.68,1.68,0,0,1-.29,1,2.83,2.83,0,0,1-.93.76A2.87,2.87,0,0,1,568.18,294.86Zm-.69,2.3a1.73,1.73,0,0,0,.1-2.13,3,3,0,0,0-1.13-.68l-.34-.15a2.27,2.27,0,0,0-1,.74,1.91,1.91,0,0,0-.3,1.11,1.43,1.43,0,0,0,.41,1.11,1.81,1.81,0,0,0,2.22,0Zm-2.11-4a2.45,2.45,0,0,0,.94.59l.31.13a2.57,2.57,0,0,0,.78-.68,1.53,1.53,0,0,0,.24-.87,1.35,1.35,0,0,0-.34-1,1.2,1.2,0,0,0-.92-.35,1.25,1.25,0,0,0-.92.34,1.38,1.38,0,0,0-.35,1A1.25,1.25,0,0,0,565.38,293.16Z"/><path class="cls-7" d="M573.87,295.49V296H573v1.92h-.6V296H569.5v-.48l2-5,.53.19-1.89,4.8h2.25l.07-2.16H573v2.16Z"/><path class="cls-7" d="M589.91,294.86a1.82,1.82,0,0,1,.36,1.17,1.9,1.9,0,0,1-.6,1.48,2.23,2.23,0,0,1-1.57.54,2.17,2.17,0,0,1-1.56-.55,1.91,1.91,0,0,1-.57-1.45,2.08,2.08,0,0,1,1.45-2,2.26,2.26,0,0,1-.89-.69,1.64,1.64,0,0,1-.28-1,1.87,1.87,0,0,1,.26-1,1.56,1.56,0,0,1,.68-.62,2.05,2.05,0,0,1,.93-.21,2.1,2.1,0,0,1,.93.2,1.67,1.67,0,0,1,.68.61,1.86,1.86,0,0,1,.26,1,1.68,1.68,0,0,1-.29,1,2.73,2.73,0,0,1-.93.76A2.87,2.87,0,0,1,589.91,294.86Zm-.68,2.3a1.48,1.48,0,0,0,.41-1.12,1.51,1.51,0,0,0-.31-1,3.06,3.06,0,0,0-1.13-.68l-.34-.15a2.38,2.38,0,0,0-1,.74,1.91,1.91,0,0,0-.3,1.11,1.47,1.47,0,0,0,.41,1.11,1.57,1.57,0,0,0,1.11.38A1.62,1.62,0,0,0,589.23,297.16Zm-2.12-4a2.5,2.5,0,0,0,.95.59l.3.13a2.44,2.44,0,0,0,.78-.68,1.46,1.46,0,0,0,.25-.87,1.39,1.39,0,0,0-.34-1,1.26,1.26,0,0,0-.93-.35,1.25,1.25,0,0,0-.92.34,1.37,1.37,0,0,0-.34,1A1.23,1.23,0,0,0,587.11,293.16Z"/><path class="cls-7" d="M594.83,291.13h-2.66v2.52a2,2,0,0,1,1.12-.35,1.64,1.64,0,0,1,1.35.61,2.51,2.51,0,0,1,.51,1.67,3,3,0,0,1-.26,1.28,2.09,2.09,0,0,1-.75.88,2,2,0,0,1-1.13.31,2.31,2.31,0,0,1-1-.22,3,3,0,0,1-.85-.66l.4-.35a2.14,2.14,0,0,0,.67.53,1.8,1.8,0,0,0,.82.17,1.3,1.3,0,0,0,1.09-.52,2.21,2.21,0,0,0,.41-1.43,2,2,0,0,0-.37-1.33,1.21,1.21,0,0,0-1-.43,1.61,1.61,0,0,0-.56.08,2.26,2.26,0,0,0-.54.27h-.47v-3.54h3.35Z"/><path class="cls-7" d="M599.62,297.79a1.06,1.06,0,0,1-.26-.76v-7.19l.62-.08V297c0,.34.14.5.42.5a.91.91,0,0,0,.35-.07l.15.45a1.16,1.16,0,0,1-.6.15A.86.86,0,0,1,599.62,297.79Z"/><path class="cls-7" d="M605.94,295.3h-3.46A2.77,2.77,0,0,0,603,297a1.35,1.35,0,0,0,1.13.53,1.81,1.81,0,0,0,.72-.13,2.43,2.43,0,0,0,.66-.41l.3.38a2.91,2.91,0,0,1-.79.52,2.46,2.46,0,0,1-.91.17,1.93,1.93,0,0,1-1.63-.77,3.53,3.53,0,0,1-.59-2.18,3.89,3.89,0,0,1,.56-2.23,1.8,1.8,0,0,1,1.55-.81,1.74,1.74,0,0,1,1.5.72,3.56,3.56,0,0,1,.51,2.06C606,295,606,295.16,605.94,295.3Zm-.58-.66a2.82,2.82,0,0,0-.35-1.53,1.19,1.19,0,0,0-1.06-.54,1.23,1.23,0,0,0-1,.54,3,3,0,0,0-.44,1.71h2.88Z"/><path class="cls-7" d="M610,297.69a1.88,1.88,0,0,1-1.1.36,1.24,1.24,0,0,1-1-.36,1.41,1.41,0,0,1-.34-1v-4h-.87v-.51h.87V290.8l.62-.07v1.45h1.33l-.08.51H608.2v4c0,.58.24.87.73.87a1.53,1.53,0,0,0,.78-.24Z"/><path class="cls-7" d="M588.94,310.54a.58.58,0,0,0,.33.28l-.15.43a1.12,1.12,0,0,1-.56-.3,1.15,1.15,0,0,1-.26-.63,1.78,1.78,0,0,1-1.6.93,1.53,1.53,0,0,1-1.18-.46,1.78,1.78,0,0,1-.43-1.25,1.68,1.68,0,0,1,.58-1.38,2.51,2.51,0,0,1,1.64-.48h.91v-.62a1.46,1.46,0,0,0-.27-1,1.13,1.13,0,0,0-.88-.32,4,4,0,0,0-1.43.33l-.18-.46a4.48,4.48,0,0,1,1.67-.38,1.68,1.68,0,0,1,1.29.45,1.86,1.86,0,0,1,.42,1.31V310A1.26,1.26,0,0,0,588.94,310.54Zm-.72-.84v-1.57h-.84c-1.1,0-1.65.46-1.65,1.39a1.33,1.33,0,0,0,.29.92,1,1,0,0,0,.78.32A1.52,1.52,0,0,0,588.22,309.7Z"/><path class="cls-7" d="M597.15,305.38l-1.78,5.75h-.75l-1.85-5.75h.66l1.57,5.21,1.51-5.21Z"/><path class="cls-7" d="M599.39,302.56l.28.54-1.95.93-.19-.34Zm-.42,2.82v5.75h-.62v-5.75Z"/><path class="cls-7" d="M603.63,305.4a2.13,2.13,0,0,1,.68.44l-.3.4a1.64,1.64,0,0,0-.53-.34,1.56,1.56,0,0,0-.62-.11,1.31,1.31,0,0,0-1.15.62,3.36,3.36,0,0,0-.42,1.87,3.23,3.23,0,0,0,.42,1.84,1.31,1.31,0,0,0,1.15.59,1.56,1.56,0,0,0,.62-.11,2.33,2.33,0,0,0,.56-.35l.31.39a2.12,2.12,0,0,1-1.5.61,2,2,0,0,1-1.63-.76,3.56,3.56,0,0,1-.59-2.2,3.67,3.67,0,0,1,.6-2.23,2.09,2.09,0,0,1,2.4-.66Z"/><path class="cls-7" d="M609.35,308.5h-3.46a2.84,2.84,0,0,0,.47,1.69,1.37,1.37,0,0,0,1.13.54,1.81,1.81,0,0,0,.72-.14,2.43,2.43,0,0,0,.66-.41l.31.38a3.12,3.12,0,0,1-.8.52,2.46,2.46,0,0,1-.91.17,1.93,1.93,0,0,1-1.63-.77,3.52,3.52,0,0,1-.59-2.17,3.9,3.9,0,0,1,.56-2.24,1.8,1.8,0,0,1,1.55-.81,1.74,1.74,0,0,1,1.5.72,3.56,3.56,0,0,1,.51,2.06A3.39,3.39,0,0,1,609.35,308.5Zm-.58-.66a2.82,2.82,0,0,0-.35-1.53,1.19,1.19,0,0,0-1.06-.54,1.25,1.25,0,0,0-1,.54,3.08,3.08,0,0,0-.44,1.71h2.88Z"/><rect class="cls-8" x="303.73" y="72.32" width="46.76" height="233.06"/><path class="cls-7" d="M261.7,290.62v.48L259.11,298l-.56-.19,2.52-6.69H258v-.52Z"/><path class="cls-7" d="M266.09,291.13h-2.66v2.52a2,2,0,0,1,1.12-.35,1.66,1.66,0,0,1,1.35.61,2.51,2.51,0,0,1,.51,1.67,2.9,2.9,0,0,1-.27,1.28,2,2,0,0,1-.75.88,2,2,0,0,1-1.13.31,2.26,2.26,0,0,1-1-.22,2.88,2.88,0,0,1-.85-.66l.4-.35a2,2,0,0,0,.67.53,1.73,1.73,0,0,0,.81.17,1.32,1.32,0,0,0,1.1-.52,2.27,2.27,0,0,0,.41-1.43,2,2,0,0,0-.37-1.33,1.25,1.25,0,0,0-1-.43,1.61,1.61,0,0,0-.56.08,2.26,2.26,0,0,0-.54.27h-.47v-3.54h3.36Z"/><path class="cls-7" d="M267.3,294.26v-.53h4.38v.53Z"/><path class="cls-7" d="M276.55,294.86a1.82,1.82,0,0,1,.36,1.17,1.93,1.93,0,0,1-.59,1.48,2.26,2.26,0,0,1-1.58.54,2.13,2.13,0,0,1-1.55-.55,1.88,1.88,0,0,1-.58-1.45,2.1,2.1,0,0,1,1.45-2.05,2.16,2.16,0,0,1-.89-.68,1.73,1.73,0,0,1-.27-1,1.87,1.87,0,0,1,.25-1,1.58,1.58,0,0,1,.69-.62,2.19,2.19,0,0,1,1.85,0,1.57,1.57,0,0,1,.69.61,1.86,1.86,0,0,1,.26,1,1.68,1.68,0,0,1-.29,1,2.83,2.83,0,0,1-.93.76A2.76,2.76,0,0,1,276.55,294.86Zm-.68,2.3A1.76,1.76,0,0,0,276,295a3,3,0,0,0-1.13-.68l-.34-.15a2.27,2.27,0,0,0-1,.74,1.91,1.91,0,0,0-.3,1.11,1.47,1.47,0,0,0,.4,1.11,1.62,1.62,0,0,0,1.12.38A1.57,1.57,0,0,0,275.87,297.16Zm-2.11-4a2.45,2.45,0,0,0,.94.59l.31.13a2.57,2.57,0,0,0,.78-.68,1.53,1.53,0,0,0,.24-.87,1.35,1.35,0,0,0-.34-1,1.21,1.21,0,0,0-.92-.35,1.25,1.25,0,0,0-.92.34,1.38,1.38,0,0,0-.35,1A1.25,1.25,0,0,0,273.76,293.16Z"/><path class="cls-7" d="M282.25,295.49V296h-.88v1.92h-.6V296h-2.89v-.48l2-5,.53.19-1.89,4.8h2.25l.07-2.16h.53v2.16Z"/><path class="cls-7" d="M298.29,294.86a1.81,1.81,0,0,1,.35,1.17,1.89,1.89,0,0,1-.59,1.48,2.25,2.25,0,0,1-1.57.54,2.15,2.15,0,0,1-1.56-.55,1.92,1.92,0,0,1-.58-1.45,2.09,2.09,0,0,1,1.46-2,2.38,2.38,0,0,1-.9-.69,1.71,1.71,0,0,1-.27-1,1.87,1.87,0,0,1,.26-1,1.56,1.56,0,0,1,.68-.62,2.19,2.19,0,0,1,1.85,0,1.63,1.63,0,0,1,.69.61,1.86,1.86,0,0,1,.26,1,1.68,1.68,0,0,1-.29,1,2.83,2.83,0,0,1-.93.76A2.87,2.87,0,0,1,298.29,294.86Zm-.69,2.3a1.73,1.73,0,0,0,.1-2.13,2.92,2.92,0,0,0-1.12-.68l-.34-.15a2.38,2.38,0,0,0-1,.74,1.91,1.91,0,0,0-.3,1.11,1.47,1.47,0,0,0,.41,1.11,1.81,1.81,0,0,0,2.22,0Zm-2.11-4a2.53,2.53,0,0,0,.94.59l.31.13a2.44,2.44,0,0,0,.78-.68,1.54,1.54,0,0,0,.25-.87,1.35,1.35,0,0,0-.35-1,1.22,1.22,0,0,0-.92-.35,1.25,1.25,0,0,0-.92.34,1.38,1.38,0,0,0-.35,1A1.23,1.23,0,0,0,295.49,293.16Z"/><path class="cls-7" d="M303.21,291.13h-2.66v2.52a2,2,0,0,1,1.12-.35,1.65,1.65,0,0,1,1.35.61,2.51,2.51,0,0,1,.51,1.67,3,3,0,0,1-.26,1.28,2.09,2.09,0,0,1-.75.88,2.05,2.05,0,0,1-1.14.31,2.29,2.29,0,0,1-1-.22,3,3,0,0,1-.85-.66l.4-.35a2.14,2.14,0,0,0,.67.53,1.78,1.78,0,0,0,.81.17,1.3,1.3,0,0,0,1.1-.52,2.21,2.21,0,0,0,.41-1.43,2,2,0,0,0-.37-1.33,1.21,1.21,0,0,0-1-.43,1.58,1.58,0,0,0-.56.08,2.26,2.26,0,0,0-.54.27H300v-3.54h3.36Z"/><path class="cls-7" d="M308,297.79a1.06,1.06,0,0,1-.26-.76v-7.19l.62-.08V297c0,.34.14.5.42.5a.91.91,0,0,0,.35-.07l.15.45a1.19,1.19,0,0,1-.6.15A.86.86,0,0,1,308,297.79Z"/><path class="cls-7" d="M314.32,295.3h-3.47a2.83,2.83,0,0,0,.48,1.69,1.35,1.35,0,0,0,1.13.53,1.81,1.81,0,0,0,.72-.13,2.43,2.43,0,0,0,.66-.41l.3.38a2.91,2.91,0,0,1-.79.52,2.46,2.46,0,0,1-.91.17,1.93,1.93,0,0,1-1.63-.77,3.47,3.47,0,0,1-.59-2.18,3.81,3.81,0,0,1,.56-2.23,1.8,1.8,0,0,1,1.55-.81,1.71,1.71,0,0,1,1.49.72,3.49,3.49,0,0,1,.52,2.06C314.34,295,314.33,295.16,314.32,295.3Zm-.58-.66a2.72,2.72,0,0,0-.36-1.53,1.16,1.16,0,0,0-1.05-.54,1.26,1.26,0,0,0-1,.54,3.17,3.17,0,0,0-.44,1.71h2.89Z"/><path class="cls-7" d="M318.35,297.69a1.88,1.88,0,0,1-1.1.36,1.24,1.24,0,0,1-.95-.36,1.41,1.41,0,0,1-.34-1v-4h-.87v-.51H316V290.8l.61-.07v1.45h1.34l-.08.51h-1.26v4c0,.58.25.87.74.87a1.53,1.53,0,0,0,.78-.24Z"/><path class="cls-7" d="M297.31,310.54a.66.66,0,0,0,.33.28l-.14.43a1.12,1.12,0,0,1-.56-.3,1.15,1.15,0,0,1-.26-.63,1.78,1.78,0,0,1-1.6.93,1.53,1.53,0,0,1-1.18-.46,1.78,1.78,0,0,1-.44-1.25,1.69,1.69,0,0,1,.59-1.38,2.51,2.51,0,0,1,1.64-.48h.91v-.62a1.41,1.41,0,0,0-.28-1,1.1,1.1,0,0,0-.88-.32,4.09,4.09,0,0,0-1.43.33l-.17-.46a4.43,4.43,0,0,1,1.67-.38,1.68,1.68,0,0,1,1.29.45,1.86,1.86,0,0,1,.42,1.31V310A1.43,1.43,0,0,0,297.31,310.54Zm-.71-.84v-1.57h-.84c-1.1,0-1.65.46-1.65,1.39a1.38,1.38,0,0,0,.28.92,1,1,0,0,0,.79.32A1.53,1.53,0,0,0,296.6,309.7Z"/><path class="cls-7" d="M305.53,305.38l-1.78,5.75H303l-1.85-5.75h.66l1.57,5.21,1.51-5.21Z"/><path class="cls-7" d="M307.76,302.56l.29.54-1.95.93-.2-.34Zm-.41,2.82v5.75h-.62v-5.75Z"/><path class="cls-7" d="M312,305.4a2.25,2.25,0,0,1,.68.44l-.31.4a1.51,1.51,0,0,0-.52-.34,1.56,1.56,0,0,0-.62-.11,1.31,1.31,0,0,0-1.15.62,3.36,3.36,0,0,0-.42,1.87,3.23,3.23,0,0,0,.42,1.84,1.31,1.31,0,0,0,1.15.59,1.56,1.56,0,0,0,.62-.11,2.33,2.33,0,0,0,.56-.35l.31.39a2.14,2.14,0,0,1-1.5.61,2,2,0,0,1-1.63-.76,3.56,3.56,0,0,1-.59-2.2,3.67,3.67,0,0,1,.6-2.23,2.09,2.09,0,0,1,2.4-.66Z"/><path class="cls-7" d="M317.73,308.5h-3.46a2.77,2.77,0,0,0,.47,1.69,1.36,1.36,0,0,0,1.13.54,1.81,1.81,0,0,0,.72-.14,2.43,2.43,0,0,0,.66-.41l.3.38a2.91,2.91,0,0,1-.79.52,2.46,2.46,0,0,1-.91.17,1.93,1.93,0,0,1-1.63-.77,3.52,3.52,0,0,1-.59-2.17,3.9,3.9,0,0,1,.56-2.24,1.8,1.8,0,0,1,1.55-.81,1.74,1.74,0,0,1,1.5.72,3.56,3.56,0,0,1,.51,2.06C317.75,308.2,317.74,308.36,317.73,308.5Zm-.58-.66a2.82,2.82,0,0,0-.35-1.53,1.19,1.19,0,0,0-1.06-.54,1.23,1.23,0,0,0-1,.54,3,3,0,0,0-.44,1.71h2.88Z"/><path class="cls-7" d="M337.34,290.62v7.31h-.61V291.3l-1.61,1.11-.28-.44,2-1.35Z"/><path class="cls-7" d="M342.81,293.76a2.58,2.58,0,0,1,.5,1.71,3.6,3.6,0,0,1-.25,1.39,2,2,0,0,1-.69.89,1.74,1.74,0,0,1-1,.3,1.7,1.7,0,0,1-1.61-.91,5.16,5.16,0,0,1-.5-2.5,7.36,7.36,0,0,1,.29-2.23,3.06,3.06,0,0,1,.83-1.42,1.81,1.81,0,0,1,1.27-.49,2,2,0,0,1,1.25.43l-.28.41a1.63,1.63,0,0,0-1-.33,1.4,1.4,0,0,0-1.26.87,5.4,5.4,0,0,0-.51,2.36,1.93,1.93,0,0,1,1.69-1.07A1.58,1.58,0,0,1,342.81,293.76Zm-.46,3.23a2.78,2.78,0,0,0,.34-1.5,2.34,2.34,0,0,0-.33-1.38,1.06,1.06,0,0,0-.9-.43,1.4,1.4,0,0,0-.9.32,2.71,2.71,0,0,0-.7.9,4.48,4.48,0,0,0,.38,2,1.2,1.2,0,0,0,1.12.67A1.12,1.12,0,0,0,342.35,297Z"/><path class="cls-7" d="M344.23,294.26v-.53h4.38v.53Z"/><path class="cls-7" d="M352.52,291a1.9,1.9,0,0,1,.5,1.36,3.41,3.41,0,0,1-.27,1.34,7,7,0,0,1-.85,1.41q-.57.76-1.83,2.25h3.12l-.08.55h-3.73v-.51q1.32-1.59,1.92-2.4a6.49,6.49,0,0,0,.85-1.39,3.21,3.21,0,0,0,.24-1.23,1.45,1.45,0,0,0-.33-1,1.17,1.17,0,0,0-.9-.37,1.52,1.52,0,0,0-.8.21,2.23,2.23,0,0,0-.66.62l-.42-.31a2.74,2.74,0,0,1,.85-.79,2.14,2.14,0,0,1,1.05-.25A1.74,1.74,0,0,1,352.52,291Z"/><path class="cls-7" d="M358.52,295.49V296h-.88v1.92H357V296h-2.89v-.48l2-5,.53.19-1.89,4.8H357l.07-2.16h.53v2.16Z"/><polyline class="cls-9" points="53.8 91.2 89.53 94.67 125.26 103.98 160.99 108.72 196.64 161.73 232.37 155.12 268.11 192.04"/><polyline class="cls-9" points="350.28 86.45 386.1 85.02 421.83 97.12 457.65 110.33 493.46 150.81 529.28 151.57"/><polyline class="cls-10" points="53.8 87.47 89.53 115.92 125.26 147.67 160.99 194.5 196.64 222.1 232.37 227.94 268.11 258.43 303.84 273.24"/><path class="cls-1" d="M56.39,87.47a2.67,2.67,0,1,1-2.67-2.67,2.68,2.68,0,0,1,2.67,2.67Z"/><path class="cls-1" d="M92.12,115.92a2.67,2.67,0,1,1-2.67-2.67,2.68,2.68,0,0,1,2.67,2.67Z"/><path class="cls-1" d="M127.85,147.76a2.67,2.67,0,1,1-2.67-2.67,2.66,2.66,0,0,1,2.67,2.67Z"/><path class="cls-1" d="M163.58,194.58a2.67,2.67,0,1,1-2.66-2.67,2.67,2.67,0,0,1,2.66,2.67Z"/><path class="cls-1" d="M199.31,222.18a2.67,2.67,0,1,1-2.66-2.66,2.66,2.66,0,0,1,2.66,2.66Z"/><path class="cls-1" d="M235.05,227.94a2.67,2.67,0,1,1-2.67-2.66,2.67,2.67,0,0,1,2.67,2.66Z"/><path class="cls-1" d="M270.78,258.51a2.67,2.67,0,1,1-2.67-2.67,2.68,2.68,0,0,1,2.67,2.67Z"/><path class="cls-1" d="M306.51,273.33a2.67,2.67,0,1,1-2.67-2.67,2.66,2.66,0,0,1,2.67,2.67Z"/><polyline class="cls-11" points="53.8 85.61 89.53 96.36 125.26 106.61 160.99 145.81 196.64 184.42 232.37 203.81 268.11 239.63 303.84 278.66"/><path class="cls-3" d="M56.39,85.61a2.67,2.67,0,1,1-2.67-2.67,2.67,2.67,0,0,1,2.67,2.67Z"/><path class="cls-3" d="M92.12,96.36a2.67,2.67,0,1,1-2.67-2.67,2.68,2.68,0,0,1,2.67,2.67Z"/><path class="cls-3" d="M127.85,106.69a2.67,2.67,0,1,1-2.67-2.67,2.67,2.67,0,0,1,2.67,2.67Z"/><path class="cls-3" d="M163.58,145.89a2.67,2.67,0,1,1-2.66-2.66,2.66,2.66,0,0,1,2.66,2.66Z"/><path class="cls-3" d="M199.31,184.42a2.67,2.67,0,1,1-2.66-2.67,2.67,2.67,0,0,1,2.66,2.67Z"/><path class="cls-3" d="M235.05,203.81a2.67,2.67,0,1,1-2.67-2.67,2.68,2.68,0,0,1,2.67,2.67Z"/><path class="cls-3" d="M270.78,239.71a2.67,2.67,0,1,1-2.67-2.66,2.67,2.67,0,0,1,2.67,2.66Z"/><path class="cls-3" d="M306.51,278.66a2.67,2.67,0,1,1-2.67-2.67,2.66,2.66,0,0,1,2.67,2.67Z"/><path class="cls-2" d="M56.39,91.2a2.67,2.67,0,1,1-2.67-2.67,2.67,2.67,0,0,1,2.67,2.67Z"/><path class="cls-2" d="M92.12,94.75a2.67,2.67,0,1,1-2.67-2.66,2.67,2.67,0,0,1,2.67,2.66Z"/><path class="cls-2" d="M127.85,104a2.67,2.67,0,1,1-2.67-2.67,2.67,2.67,0,0,1,2.67,2.67Z"/><path class="cls-2" d="M163.58,108.72a2.67,2.67,0,1,1-2.66-2.66,2.66,2.66,0,0,1,2.66,2.66Z"/><path class="cls-2" d="M199.31,161.73a2.67,2.67,0,1,1-2.66-2.67,2.67,2.67,0,0,1,2.66,2.67Z"/><path class="cls-2" d="M235.05,155.12a2.67,2.67,0,1,1-2.67-2.66,2.67,2.67,0,0,1,2.67,2.66Z"/><path class="cls-2" d="M270.78,192a2.67,2.67,0,1,1-2.67-2.67,2.68,2.68,0,0,1,2.67,2.67Z"/><polyline class="cls-10" points="350.28 102.97 386.1 131.84 421.83 129.55 457.65 175.95 493.46 214.73 529.28 234.72 565.01 255.55 600.83 271.21"/><path class="cls-1" d="M352.92,103a2.67,2.67,0,1,1-2.67-2.67,2.67,2.67,0,0,1,2.67,2.67Z"/><path class="cls-1" d="M388.73,131.84a2.67,2.67,0,1,1-2.66-2.67,2.67,2.67,0,0,1,2.66,2.67Z"/><path class="cls-1" d="M424.55,129.55a2.67,2.67,0,1,1-2.67-2.66,2.66,2.66,0,0,1,2.67,2.66Z"/><path class="cls-1" d="M460.37,176a2.67,2.67,0,1,1-2.67-2.66,2.67,2.67,0,0,1,2.67,2.66Z"/><path class="cls-1" d="M496.1,214.73a2.67,2.67,0,1,1-2.67-2.66,2.66,2.66,0,0,1,2.67,2.66Z"/><path class="cls-1" d="M531.92,234.8a2.67,2.67,0,1,1-2.67-2.67,2.68,2.68,0,0,1,2.67,2.67Z"/><path class="cls-1" d="M567.73,255.63a2.67,2.67,0,1,1-2.66-2.67,2.67,2.67,0,0,1,2.66,2.67Z"/><path class="cls-1" d="M603.55,271.3a2.67,2.67,0,1,1-2.67-2.67,2.66,2.66,0,0,1,2.67,2.67Z"/><polyline class="cls-11" points="350.28 86.2 386.1 93.82 421.83 116.09 457.65 137.6 493.46 186.28 529.28 204.4 565.01 235.99 600.83 288.14"/><path class="cls-3" d="M352.92,86.28a2.67,2.67,0,1,1-2.67-2.66,2.67,2.67,0,0,1,2.67,2.66Z"/><path class="cls-3" d="M388.73,93.91a2.67,2.67,0,1,1-2.66-2.67,2.66,2.66,0,0,1,2.66,2.67Z"/><path class="cls-3" d="M424.55,116.17a2.67,2.67,0,1,1-2.67-2.66,2.66,2.66,0,0,1,2.67,2.66Z"/><path class="cls-3" d="M460.37,137.6a2.67,2.67,0,1,1-2.67-2.67,2.67,2.67,0,0,1,2.67,2.67Z"/><path class="cls-3" d="M496.1,186.28a2.67,2.67,0,1,1-2.67-2.66,2.66,2.66,0,0,1,2.67,2.66Z"/><path class="cls-3" d="M531.92,204.4a2.67,2.67,0,1,1-2.67-2.66,2.67,2.67,0,0,1,2.67,2.66Z"/><path class="cls-3" d="M567.73,236a2.67,2.67,0,1,1-2.66-2.67,2.66,2.66,0,0,1,2.66,2.67Z"/><path class="cls-3" d="M603.55,288.15a2.67,2.67,0,1,1-2.67-2.67,2.66,2.66,0,0,1,2.67,2.67Z"/><path class="cls-2" d="M352.92,86.45a2.67,2.67,0,1,1-2.67-2.66,2.67,2.67,0,0,1,2.67,2.66Z"/><path class="cls-2" d="M388.73,85a2.67,2.67,0,1,1-2.66-2.66A2.66,2.66,0,0,1,388.73,85Z"/><path class="cls-2" d="M424.55,97.21a2.67,2.67,0,1,1-2.67-2.67,2.67,2.67,0,0,1,2.67,2.67Z"/><path class="cls-2" d="M460.37,110.42a2.67,2.67,0,1,1-2.67-2.67,2.67,2.67,0,0,1,2.67,2.67Z"/><path class="cls-2" d="M496.1,150.81a2.67,2.67,0,1,1-2.67-2.67,2.66,2.66,0,0,1,2.67,2.67Z"/><path class="cls-2" d="M531.92,151.65a2.67,2.67,0,1,1-2.67-2.66,2.67,2.67,0,0,1,2.67,2.66Z"/></svg>