<svg id="Layer_1" data-name="Layer 1" xmlns="http://www.w3.org/2000/svg" viewBox="0 0 620 345"><defs><style>.cls-1,.cls-11,.cls-12,.cls-2,.cls-6{fill:none;}.cls-1{stroke:#043565;}.cls-1,.cls-11,.cls-12,.cls-6{stroke-miterlimit:10;}.cls-1,.cls-12,.cls-2{stroke-width:0.5px;}.cls-2{stroke:#d9d9d9;stroke-linejoin:round;stroke-dasharray:1 3 1 0;}.cls-12,.cls-2{stroke-linecap:round;}.cls-3{opacity:0;}.cls-4{isolation:isolate;}.cls-5{fill:#666;}.cls-6{stroke:#eb4b98;}.cls-7{fill:#eb4b98;}.cls-8{fill:#24a3bb;}.cls-9{fill:#043565;}.cls-10{fill:#fff;}.cls-11{stroke:#24a3bb;}.cls-12{stroke:#4d4d4d;}</style></defs><polyline class="cls-1" points="385.93 99.34 421.45 113.69 456.97 125.97 492.49 165.07 528.02 194.62 563.54 232.51 599.06 292.48"/><polyline class="cls-1" points="88.42 103.68 124.33 114.59 160.16 127.14 196.07 160.56 231.99 193.89 267.9 246.47 303.73 275.69"/><line class="cls-2" x1="52.55" y1="259.87" x2="599.06" y2="259.87"/><line class="cls-2" x1="52.55" y1="218.66" x2="599.06" y2="218.66"/><line class="cls-2" x1="52.55" y1="177.46" x2="599.06" y2="177.46"/><line class="cls-2" x1="52.55" y1="136.25" x2="599.06" y2="136.25"/><g class="cls-3"><line class="cls-2" x1="52.55" y1="280.47" x2="599.06" y2="280.47"/><line class="cls-2" x1="52.55" y1="239.27" x2="599.06" y2="239.27"/><line class="cls-2" x1="52.55" y1="198.06" x2="599.06" y2="198.06"/><line class="cls-2" x1="52.55" y1="156.85" x2="599.06" y2="156.85"/><line class="cls-2" x1="52.55" y1="115.65" x2="599.06" y2="115.65"/></g><line class="cls-2" x1="52.55" y1="95.05" x2="599.06" y2="95.05"/><line class="cls-2" x1="52.55" y1="301.07" x2="599.06" y2="301.07"/><g class="cls-4"><path d="M18,15.54l-2.87,9.68h-2.2l-3-9.68h2l2.1,8,2-8Z"/><path d="M22.45,25.25a4.62,4.62,0,0,1-1.36,2.13,4.29,4.29,0,0,1-2.49.89L18.41,27a4.4,4.4,0,0,0,1.17-.32,1.77,1.77,0,0,0,.71-.54,3.48,3.48,0,0,0,.49-.89h-.62l-2.35-7.41h1.91L21.33,24,23,17.81h1.84Z"/><path d="M30.8,18.48l-.7,1.05a3.46,3.46,0,0,0-1.86-.6,1.38,1.38,0,0,0-.82.21.61.61,0,0,0-.3.53.64.64,0,0,0,.13.42,1,1,0,0,0,.45.32,7.26,7.26,0,0,0,1,.33,4.28,4.28,0,0,1,1.78.85A1.91,1.91,0,0,1,31,23.08a2,2,0,0,1-.89,1.73,3.86,3.86,0,0,1-2.23.62,4.86,4.86,0,0,1-1.66-.28A4,4,0,0,1,25,24.38l.89-1a3.3,3.3,0,0,0,2,.73,1.71,1.71,0,0,0,1-.24.77.77,0,0,0,.35-.66.88.88,0,0,0-.13-.51,1.09,1.09,0,0,0-.48-.33A8.55,8.55,0,0,0,27.51,22a3.59,3.59,0,0,1-1.66-.86,1.89,1.89,0,0,1-.53-1.38,1.83,1.83,0,0,1,.35-1.11,2.5,2.5,0,0,1,1-.77,3.84,3.84,0,0,1,1.49-.28A4.19,4.19,0,0,1,30.8,18.48Z"/><path d="M38.08,18.65A4.16,4.16,0,0,1,39,21.51a4.75,4.75,0,0,1-.42,2,3.23,3.23,0,0,1-1.2,1.38,3.48,3.48,0,0,1-1.86.49,3.25,3.25,0,0,1-2.56-1A4.19,4.19,0,0,1,32,21.51a4.72,4.72,0,0,1,.42-2.05,3.22,3.22,0,0,1,1.21-1.37,3.54,3.54,0,0,1,1.87-.49A3.22,3.22,0,0,1,38.08,18.65Zm-4.17,2.86a3.65,3.65,0,0,0,.4,1.94,1.35,1.35,0,0,0,1.2.62,1.31,1.31,0,0,0,1.19-.63,3.63,3.63,0,0,0,.4-1.93,3.63,3.63,0,0,0-.4-1.93A1.31,1.31,0,0,0,35.52,19C34.45,19,33.91,19.81,33.91,21.51Z"/><path d="M42.47,14.65V25.22h-1.8V14.84Zm4.43,3.16-2.46,3.26,2.7,4.15H45.08l-2.54-4L45,17.81Z"/><path d="M53.57,18.65a4.12,4.12,0,0,1,.92,2.86,4.75,4.75,0,0,1-.42,2,3.23,3.23,0,0,1-1.2,1.38,3.51,3.51,0,0,1-1.86.49,3.27,3.27,0,0,1-2.57-1,4.24,4.24,0,0,1-.92-2.88,4.72,4.72,0,0,1,.42-2.05,3.22,3.22,0,0,1,1.21-1.37A3.54,3.54,0,0,1,51,17.6,3.2,3.2,0,0,1,53.57,18.65Zm-4.16,2.86a3.65,3.65,0,0,0,.4,1.94,1.33,1.33,0,0,0,1.2.62,1.31,1.31,0,0,0,1.19-.63,3.63,3.63,0,0,0,.4-1.93,3.63,3.63,0,0,0-.4-1.93A1.31,1.31,0,0,0,51,19C50,19,49.41,19.81,49.41,21.51Z"/><path d="M61.14,18.48l-.7,1.05a3.46,3.46,0,0,0-1.86-.6,1.44,1.44,0,0,0-.83.21.62.62,0,0,0-.29.53.64.64,0,0,0,.13.42,1,1,0,0,0,.45.32,7,7,0,0,0,1,.33,4.27,4.27,0,0,1,1.79.85,1.91,1.91,0,0,1,.58,1.49,2,2,0,0,1-.9,1.73,3.82,3.82,0,0,1-2.22.62,4.86,4.86,0,0,1-1.66-.28,4.11,4.11,0,0,1-1.3-.77l.9-1a3.28,3.28,0,0,0,2,.73,1.65,1.65,0,0,0,1-.24.75.75,0,0,0,.36-.66.88.88,0,0,0-.13-.51,1.09,1.09,0,0,0-.48-.33A9.17,9.17,0,0,0,57.85,22a3.59,3.59,0,0,1-1.66-.86,1.9,1.9,0,0,1-.54-1.38A1.84,1.84,0,0,1,56,18.65a2.43,2.43,0,0,1,1-.77,3.84,3.84,0,0,1,1.49-.28A4.19,4.19,0,0,1,61.14,18.48ZM60.37,14l.69.78-2,1.75H58L56.05,14.8l.68-.78,1.82,1.23Z"/><path d="M64.63,14.65V25.22H62.84V14.84Zm4.44,3.16L66.6,21.07l2.7,4.15h-2l-2.55-4,2.48-3.36Z"/><path d="M75.74,18.65a4.16,4.16,0,0,1,.91,2.86,4.75,4.75,0,0,1-.42,2A3.23,3.23,0,0,1,75,24.94a3.48,3.48,0,0,1-1.86.49,3.25,3.25,0,0,1-2.56-1,4.19,4.19,0,0,1-.93-2.88,4.72,4.72,0,0,1,.42-2.05,3.29,3.29,0,0,1,1.21-1.37,3.54,3.54,0,0,1,1.87-.49A3.22,3.22,0,0,1,75.74,18.65Zm-4.17,2.86a3.65,3.65,0,0,0,.4,1.94,1.35,1.35,0,0,0,1.2.62,1.31,1.31,0,0,0,1.19-.63,3.63,3.63,0,0,0,.4-1.93,3.63,3.63,0,0,0-.4-1.93A1.31,1.31,0,0,0,73.18,19C72.11,19,71.57,19.81,71.57,21.51Z"/><path d="M78.75,24.93a1.91,1.91,0,0,1-.49-1.41V14.84l1.8-.19v8.82c0,.34.14.52.42.52a1.54,1.54,0,0,0,.42-.07l.37,1.26a3,3,0,0,1-1.19.25A1.76,1.76,0,0,1,78.75,24.93Z"/><path d="M88,23.9a.85.85,0,0,0,.43.31l-.38,1.19a2.32,2.32,0,0,1-1-.31,1.6,1.6,0,0,1-.61-.77,2.36,2.36,0,0,1-.94.84,2.92,2.92,0,0,1-1.27.27,2.39,2.39,0,0,1-1.75-.63,2.2,2.2,0,0,1-.64-1.65,2.13,2.13,0,0,1,.87-1.84,4.16,4.16,0,0,1,2.5-.64h.92v-.42a1.26,1.26,0,0,0-.33-1,1.57,1.57,0,0,0-1-.29,6.26,6.26,0,0,0-2,.39l-.42-1.22A7.56,7.56,0,0,1,85,17.6c1.89,0,2.84.85,2.84,2.55v3.11A1.2,1.2,0,0,0,88,23.9ZM86.1,13.74l.73,1.4L83.67,16.4l-.51-.91Zm0,9.48v-1.5h-.74c-1.16,0-1.73.43-1.73,1.29a1.16,1.16,0,0,0,.26.82,1,1,0,0,0,.79.3A1.59,1.59,0,0,0,86.1,23.22Z"/><path d="M91.83,14.65V25.22H90V14.84Zm4.44,3.16L93.8,21.07l2.71,4.15H94.45l-2.55-4,2.48-3.36Z"/><path d="M103.32,25.22h-1.55l-.1-1a2.69,2.69,0,0,1-1,.94,2.59,2.59,0,0,1-1.31.31,1.92,1.92,0,0,1-1.53-.61,2.47,2.47,0,0,1-.54-1.69V17.81h1.79v5.1a1.43,1.43,0,0,0,.22.89.85.85,0,0,0,.69.27,1.81,1.81,0,0,0,1.5-1.05V17.81h1.79Zm-1.7-11.46a1.69,1.69,0,0,1,0,2.39,1.77,1.77,0,0,1-1.28.49,1.81,1.81,0,0,1-1.3-.49A1.62,1.62,0,0,1,98.54,15a1.6,1.6,0,0,1,.49-1.2,1.8,1.8,0,0,1,1.3-.48A1.77,1.77,0,0,1,101.62,13.76Zm-1.8.65a.78.78,0,0,0-.18.55.77.77,0,0,0,.18.54.69.69,0,0,0,.51.18.67.67,0,0,0,.49-.18A.77.77,0,0,0,101,15a.78.78,0,0,0-.18-.55.65.65,0,0,0-.49-.2A.66.66,0,0,0,99.82,14.41Z"/><path d="M114.76,18.21a2.41,2.41,0,0,1,.53,1.65v5.36H113.5V20.14c0-.8-.27-1.19-.81-1.19a1.11,1.11,0,0,0-.75.27,3.17,3.17,0,0,0-.65.85v5.15H109.5V20.14c0-.8-.27-1.19-.81-1.19a1.15,1.15,0,0,0-.77.27,3.39,3.39,0,0,0-.65.85v5.15h-1.79V17.81H107l.14,1a2.54,2.54,0,0,1,2.15-1.18,1.81,1.81,0,0,1,1.79,1.25,3.57,3.57,0,0,1,1-.93,2.44,2.44,0,0,1,1.24-.32A1.81,1.81,0,0,1,114.76,18.21Z"/><path d="M127.11,14.84V25.22h-1.58l-.13-.94a2.47,2.47,0,0,1-.89.84,2.59,2.59,0,0,1-3.31-.74,5,5,0,0,1-.73-2.86,5.35,5.35,0,0,1,.37-2,3.16,3.16,0,0,1,1-1.39,2.62,2.62,0,0,1,3.44.29V14.65Zm-2.48,9a2.39,2.39,0,0,0,.69-.72V19.73a2.67,2.67,0,0,0-.65-.59,1.49,1.49,0,0,0-.77-.19,1.27,1.27,0,0,0-1.12.63,3.57,3.57,0,0,0-.42,1.93,3.89,3.89,0,0,0,.37,2,1.17,1.17,0,0,0,1.06.59A1.55,1.55,0,0,0,124.63,23.84Z"/><path d="M134.84,18.65a4.12,4.12,0,0,1,.92,2.86,4.75,4.75,0,0,1-.42,2,3.23,3.23,0,0,1-1.2,1.38,3.53,3.53,0,0,1-1.86.49,3.27,3.27,0,0,1-2.57-1,4.24,4.24,0,0,1-.92-2.88,4.72,4.72,0,0,1,.42-2.05,3.22,3.22,0,0,1,1.21-1.37,3.54,3.54,0,0,1,1.87-.49A3.2,3.2,0,0,1,134.84,18.65Zm-4.16,2.86a3.65,3.65,0,0,0,.4,1.94,1.33,1.33,0,0,0,1.2.62,1.31,1.31,0,0,0,1.19-.63,3.63,3.63,0,0,0,.4-1.93,3.63,3.63,0,0,0-.4-1.93,1.31,1.31,0,0,0-1.18-.62C131.22,19,130.68,19.81,130.68,21.51Z"/><path d="M143.29,18.63a4.91,4.91,0,0,1,.73,2.88,5.46,5.46,0,0,1-.36,2,3.07,3.07,0,0,1-1,1.38,2.52,2.52,0,0,1-1.55.5,2.47,2.47,0,0,1-1.1-.25,2.57,2.57,0,0,1-.86-.72l-.12.76h-1.58V14.84l1.79-.19v4a2.61,2.61,0,0,1,.89-.77,2.4,2.4,0,0,1,1.16-.28A2.33,2.33,0,0,1,143.29,18.63Zm-1.55,4.83a3.63,3.63,0,0,0,.41-1.95,3.84,3.84,0,0,0-.38-2A1.2,1.2,0,0,0,140.7,19a1.74,1.74,0,0,0-1.47,1v3.28a1.82,1.82,0,0,0,.6.63,1.43,1.43,0,0,0,.77.22A1.27,1.27,0,0,0,141.74,23.46Z"/><path d="M150.18,17.71l-.31,1.74a2.46,2.46,0,0,0-.65-.08,1.24,1.24,0,0,0-1,.47,3.63,3.63,0,0,0-.6,1.43v3.95h-1.79V17.81h1.55l.17,1.46a2.71,2.71,0,0,1,.77-1.23,1.74,1.74,0,0,1,1.16-.42A2.83,2.83,0,0,1,150.18,17.71Z"/><path d="M156.92,22.07h-4.65a2.31,2.31,0,0,0,.56,1.54,1.7,1.7,0,0,0,1.26.46,2.58,2.58,0,0,0,.92-.16,4.28,4.28,0,0,0,.93-.5l.74,1a4.24,4.24,0,0,1-2.75,1,3.3,3.3,0,0,1-2.61-1,4.11,4.11,0,0,1-.91-2.83,5.07,5.07,0,0,1,.39-2,3.27,3.27,0,0,1,1.13-1.42,3,3,0,0,1,1.77-.51,3,3,0,0,1,2.4,1,4.06,4.06,0,0,1,.86,2.75C157,21.43,156.94,21.68,156.92,22.07Zm-2.12-8.33.73,1.4-3.16,1.26-.51-.91Zm.38,7.08c0-1.29-.48-1.94-1.44-1.94a1.23,1.23,0,0,0-1,.48,2.8,2.8,0,0,0-.44,1.55h2.91Z"/><path d="M166.88,17.81V19.1l-3.58,4.72H167l-.18,1.4h-5.53V23.93l3.6-4.72h-3.29v-1.4Z"/><path d="M174.47,14.84V25.22h-1.58l-.13-.94a2.47,2.47,0,0,1-.89.84,2.33,2.33,0,0,1-1.22.31,2.39,2.39,0,0,1-2.09-1.05,5,5,0,0,1-.72-2.86,5.35,5.35,0,0,1,.36-2,3.16,3.16,0,0,1,1-1.39,2.62,2.62,0,0,1,3.44.29V14.65Zm-2.48,9a2.28,2.28,0,0,0,.69-.72V19.73a2.67,2.67,0,0,0-.65-.59,1.48,1.48,0,0,0-.76-.19,1.28,1.28,0,0,0-1.13.63,3.58,3.58,0,0,0-.41,1.93,4,4,0,0,0,.36,2,1.18,1.18,0,0,0,1.06.59A1.55,1.55,0,0,0,172,23.84Z"/><path d="M181,17.71l-.3,1.74a2.59,2.59,0,0,0-.66-.08,1.24,1.24,0,0,0-1,.47,3.63,3.63,0,0,0-.6,1.43v3.95h-1.79V17.81h1.55l.17,1.46a2.71,2.71,0,0,1,.77-1.23,1.76,1.76,0,0,1,1.16-.42A2.83,2.83,0,0,1,181,17.71Z"/><path d="M187.26,23.9a.85.85,0,0,0,.43.31l-.38,1.19a2.32,2.32,0,0,1-1-.31,1.54,1.54,0,0,1-.61-.77,2.43,2.43,0,0,1-.94.84,2.92,2.92,0,0,1-1.27.27,2.39,2.39,0,0,1-1.75-.63,2.2,2.2,0,0,1-.64-1.65,2.13,2.13,0,0,1,.87-1.84,4.16,4.16,0,0,1,2.5-.64h.92v-.42a1.26,1.26,0,0,0-.33-1A1.59,1.59,0,0,0,184,19a6.26,6.26,0,0,0-2,.39l-.42-1.22a7.56,7.56,0,0,1,2.69-.53c1.89,0,2.84.85,2.84,2.55v3.11A1.2,1.2,0,0,0,187.26,23.9Zm-1.9-.68v-1.5h-.74c-1.16,0-1.73.43-1.73,1.29a1.16,1.16,0,0,0,.26.82,1,1,0,0,0,.79.3A1.59,1.59,0,0,0,185.36,23.22Z"/><path d="M195,17.81l-2.41,7.41h-2.14L188,17.81H190l1.58,6,1.63-6Z"/><path d="M198.1,13.74l.73,1.4-3.16,1.26-.51-.91Zm-.16,4.07v7.41h-1.8V17.81Z"/><path d="M209.54,17.81l-2.41,7.41H205l-2.45-7.41h2l1.58,6,1.62-6Z"/><path d="M214.23,25.25a4.55,4.55,0,0,1-1.36,2.13,4.24,4.24,0,0,1-2.49.89L210.2,27a4.63,4.63,0,0,0,1.17-.32,1.74,1.74,0,0,0,.7-.54,3.2,3.2,0,0,0,.49-.89H212l-2.35-7.41h1.9L213.11,24l1.68-6.22h1.85Z"/><path d="M223.88,14.84V25.22H222.3l-.13-.94a2.47,2.47,0,0,1-.89.84,2.59,2.59,0,0,1-3.31-.74,4.9,4.9,0,0,1-.73-2.86,5.35,5.35,0,0,1,.36-2,3.18,3.18,0,0,1,1.05-1.39,2.55,2.55,0,0,1,1.57-.51,2.59,2.59,0,0,1,1.87.8V14.65Zm-2.48,9a2.39,2.39,0,0,0,.69-.72V19.73a2.7,2.7,0,0,0-.66-.59,1.45,1.45,0,0,0-.76-.19,1.29,1.29,0,0,0-1.13.63,3.67,3.67,0,0,0-.41,1.93,3.89,3.89,0,0,0,.37,2,1.17,1.17,0,0,0,1.06.59A1.55,1.55,0,0,0,221.4,23.84Z"/><path d="M230.43,17.71l-.31,1.74a2.48,2.48,0,0,0-.66-.08,1.22,1.22,0,0,0-1,.47,3.62,3.62,0,0,0-.61,1.43v3.95H226V17.81h1.56l.17,1.46a2.7,2.7,0,0,1,.76-1.23,1.79,1.79,0,0,1,1.17-.42A2.89,2.89,0,0,1,230.43,17.71Z"/><path d="M236.23,17.81V19.1l-3.59,4.72h3.66l-.19,1.4h-5.53V23.93l3.6-4.72h-3.29v-1.4ZM235.31,14l.69.78-1.94,1.75h-1.12L231,14.8l.69-.78,1.82,1.23Z"/><path d="M239.65,13.74l.73,1.4-3.16,1.26-.5-.91Zm-.16,4.07v7.41h-1.8V17.81Z"/><path d="M251.37,14.84V25.22h-1.58l-.13-.94a2.44,2.44,0,0,1-.88.84,2.59,2.59,0,0,1-3.31-.74,4.9,4.9,0,0,1-.73-2.86,5.35,5.35,0,0,1,.36-2,3.16,3.16,0,0,1,1-1.39,2.62,2.62,0,0,1,3.44.29V14.65Zm-2.48,9a2.18,2.18,0,0,0,.69-.72V19.73a2.5,2.5,0,0,0-.65-.59,1.45,1.45,0,0,0-.76-.19,1.28,1.28,0,0,0-1.13.63,3.58,3.58,0,0,0-.41,1.93,4,4,0,0,0,.36,2,1.18,1.18,0,0,0,1.07.59A1.54,1.54,0,0,0,248.89,23.84Z"/><path d="M259.56,22.07h-4.65a2.36,2.36,0,0,0,.57,1.54,1.69,1.69,0,0,0,1.25.46,2.6,2.6,0,0,0,.93-.16,4,4,0,0,0,.92-.5l.74,1a4.21,4.21,0,0,1-2.74,1,3.3,3.3,0,0,1-2.61-1,4.12,4.12,0,0,1-.92-2.83,5.07,5.07,0,0,1,.39-2,3.29,3.29,0,0,1,1.14-1.42,3.37,3.37,0,0,1,4.17.48,4.06,4.06,0,0,1,.85,2.75C259.6,21.43,259.59,21.68,259.56,22.07Zm-2.11-8.33.73,1.4L255,16.4l-.5-.91Zm.38,7.08c0-1.29-.48-1.94-1.44-1.94a1.22,1.22,0,0,0-1,.48,2.88,2.88,0,0,0-.45,1.55h2.92Z"/><path d="M261.63,24.93a2,2,0,0,1-.49-1.41V14.84l1.8-.19v8.82c0,.34.14.52.42.52a1.54,1.54,0,0,0,.42-.07l.37,1.26a2.94,2.94,0,0,1-1.18.25A1.79,1.79,0,0,1,261.63,24.93Z"/><path d="M271.31,22.07h-4.65a2.36,2.36,0,0,0,.56,1.54,1.73,1.73,0,0,0,1.26.46,2.51,2.51,0,0,0,.92-.16,4.28,4.28,0,0,0,.93-.5l.74,1a4.21,4.21,0,0,1-2.74,1,3.3,3.3,0,0,1-2.61-1,4.07,4.07,0,0,1-.92-2.83,5.07,5.07,0,0,1,.39-2,3.27,3.27,0,0,1,1.13-1.42,3.07,3.07,0,0,1,1.77-.51,3,3,0,0,1,2.41,1,4.06,4.06,0,0,1,.85,2.75C271.35,21.43,271.34,21.68,271.31,22.07Zm-1.74-1.25c0-1.29-.48-1.94-1.44-1.94a1.23,1.23,0,0,0-1,.48,2.89,2.89,0,0,0-.44,1.55h2.91Z"/></g><g class="cls-4"><path d="M193,108.83H191.4l-.16-3.09c-.05-.92-.08-1.71-.08-2.35,0-.35,0-.6,0-.75L189.88,108h-1.53L187,102.63c0,.44,0,1,0,1.5s0,1.14,0,1.64l-.17,3.06h-1.57l.6-7.61h2l1.26,5.24,1.17-5.24h2.08Z"/><path d="M200.35,106.32a2.77,2.77,0,0,1-.33,1.39,2.25,2.25,0,0,1-1,1,3.39,3.39,0,0,1-1.59.35,2.94,2.94,0,0,1-2.15-.74,2.61,2.61,0,0,1-.74-2v-5.1h1.62v5a1.81,1.81,0,0,0,.3,1.14,1.16,1.16,0,0,0,1,.38,1.15,1.15,0,0,0,1-.38,1.74,1.74,0,0,0,.32-1.14v-5h1.61Z"/><path d="M206.92,101.22v1.24l-3.41,5.06H207l-.18,1.31h-5.18v-1.22l3.48-5.12H202v-1.27Zm-1-2.68.57.67-1.54,1.36h-1l-1.54-1.36.58-.67,1.44.92Z"/><path d="M210.18,101.22v7.61h-1.62v-7.61Z"/></g><g class="cls-4"><path d="M486.64,104.27v1.24l-3.41,5.06h3.46l-.17,1.31h-5.19v-1.22l3.48-5.12h-3.12v-1.27Zm-1.06-2.67.57.66-1.54,1.36h-1l-1.54-1.36.59-.66,1.44.91Z"/><path d="M492.82,104.27l-.18,1.18h-2.75v2h2.4v1.16h-2.4v2.1h2.95v1.19h-4.57v-7.61Z"/><path d="M500.27,111.88h-2.08l-2.42-6c.06.52.12,1,.16,1.47s.06,1,.06,1.61v3h-1.47v-7.61h2l2.46,6a19.45,19.45,0,0,1-.22-2.71v-3.34h1.47Z"/><path d="M508,104.27,505.52,109v2.87h-1.61V109l-2.45-4.75h1.78l1.51,3.45,1.51-3.45Z"/></g><g class="cls-4"><path d="M15.83,37.7l-2.45,7.54h-.74L10.18,37.7h.71L13,44.55l2.14-6.85Z"/><path d="M20.8,39.82a1.91,1.91,0,0,1,.41,1.3v4.12h-.64v-4a1.54,1.54,0,0,0-.27-1,1,1,0,0,0-.82-.32,1.62,1.62,0,0,0-1,.3,3.39,3.39,0,0,0-.81.89v4.17h-.64V39.48h.55l.07,1a2.78,2.78,0,0,1,.83-.81,2.14,2.14,0,0,1,1.09-.29A1.53,1.53,0,0,1,20.8,39.82Z"/><path d="M24.63,36.63l.29.58-2.15.93-.21-.37Zm-.51,2.85v5.76h-.63V39.48Z"/><path d="M33.16,39.83a1.93,1.93,0,0,1,.4,1.29v4.12h-.64v-4a1.57,1.57,0,0,0-.26-1,.88.88,0,0,0-.72-.32,1.3,1.3,0,0,0-.86.31,3.22,3.22,0,0,0-.75.88v4.17h-.64v-4a1.63,1.63,0,0,0-.26-1,.88.88,0,0,0-.72-.32,1.35,1.35,0,0,0-.88.31,3.2,3.2,0,0,0-.74.88v4.17h-.63V39.48H27l0,1a2.75,2.75,0,0,1,.78-.81,1.82,1.82,0,0,1,1-.29,1.44,1.44,0,0,1,.93.3,1.62,1.62,0,0,1,.5.84,2.93,2.93,0,0,1,.8-.84,1.78,1.78,0,0,1,1-.3A1.38,1.38,0,0,1,33.16,39.83Z"/><path d="M39.53,44.61a.75.75,0,0,0,.37.3l-.15.45a1.21,1.21,0,0,1-.61-.3,1.26,1.26,0,0,1-.28-.67,2,2,0,0,1-1.79,1,1.79,1.79,0,0,1-1.3-.47,1.85,1.85,0,0,1,.15-2.63,2.85,2.85,0,0,1,1.76-.48h1.09v-.56a1.43,1.43,0,0,0-.3-1,1.41,1.41,0,0,0-1-.31,4.65,4.65,0,0,0-1.56.33l-.16-.48a4.85,4.85,0,0,1,1.81-.39,1.64,1.64,0,0,1,1.88,1.83V44A1.31,1.31,0,0,0,39.53,44.61Zm-.76-.78V42.24h-1a2.3,2.3,0,0,0-1.34.34,1.19,1.19,0,0,0-.46,1,1.24,1.24,0,0,0,.32.91,1.21,1.21,0,0,0,.89.32A1.74,1.74,0,0,0,38.77,43.83Z"/><path d="M45.47,39.82a1.91,1.91,0,0,1,.41,1.3v4.12h-.64v-4a1.54,1.54,0,0,0-.27-1,1,1,0,0,0-.82-.32,1.64,1.64,0,0,0-1,.3,3.39,3.39,0,0,0-.81.89v4.17h-.64V39.48h.55l.07,1a2.7,2.7,0,0,1,.84-.81,2.08,2.08,0,0,1,1.08-.29A1.52,1.52,0,0,1,45.47,39.82Z"/><path d="M52.22,42.61H48.38a2.62,2.62,0,0,0,.53,1.66,1.58,1.58,0,0,0,1.26.55,2.2,2.2,0,0,0,.8-.14,3.72,3.72,0,0,0,.75-.43l.3.4a3.27,3.27,0,0,1-.88.53,2.7,2.7,0,0,1-1,.18,2.2,2.2,0,0,1-1.79-.78,3.29,3.29,0,0,1-.65-2.17,4.16,4.16,0,0,1,.28-1.6,2.32,2.32,0,0,1,.8-1.07A2,2,0,0,1,50,39.36a2,2,0,0,1,1.67.74,3.29,3.29,0,0,1,.57,2C52.24,42.31,52.23,42.46,52.22,42.61ZM51.61,42a2.52,2.52,0,0,0-.4-1.52A1.39,1.39,0,0,0,50,39.89a1.41,1.41,0,0,0-1.16.55,2.86,2.86,0,0,0-.48,1.67h3.23Zm-.76-5.32.29.58L49,38.14l-.21-.37Z"/><path d="M60.23,39.48V40L57,44.69H60.2l-.06.55H56.27v-.5L59.48,40H56.53v-.55Z"/><path d="M65.8,37.14v8.1h-.55l-.07-.88a1.92,1.92,0,0,1-1.73,1,1.84,1.84,0,0,1-1.58-.8,3.6,3.6,0,0,1-.58-2.17,4.29,4.29,0,0,1,.27-1.58,2.38,2.38,0,0,1,.78-1.06,2,2,0,0,1,1.21-.39,2,2,0,0,1,1.61.78V37.06Zm-1.32,7.42a2.3,2.3,0,0,0,.68-.8v-3a1.8,1.8,0,0,0-1.5-.87,1.44,1.44,0,0,0-1.24.65A3.11,3.11,0,0,0,62,42.38a3.31,3.31,0,0,0,.42,1.82,1.33,1.33,0,0,0,1.16.63A1.59,1.59,0,0,0,64.48,44.56Z"/><path d="M70.94,39.43l-.12.6a2.1,2.1,0,0,0-.51-.06,1.17,1.17,0,0,0-.94.42,3.39,3.39,0,0,0-.6,1.32v3.53h-.64V39.48h.55l.06,1.29a2.22,2.22,0,0,1,.63-1.06,1.49,1.49,0,0,1,1-.35A1.93,1.93,0,0,1,70.94,39.43Z"/><path d="M75.54,44.61a.75.75,0,0,0,.37.3l-.14.45a1,1,0,0,1-.89-1,2,2,0,0,1-1.8,1,1.79,1.79,0,0,1-1.3-.47,1.66,1.66,0,0,1-.48-1.25,1.64,1.64,0,0,1,.64-1.38,2.82,2.82,0,0,1,1.75-.48h1.1v-.56a1.39,1.39,0,0,0-.31-1,1.37,1.37,0,0,0-1-.31,4.65,4.65,0,0,0-1.56.33l-.17-.48a4.89,4.89,0,0,1,1.82-.39,1.64,1.64,0,0,1,1.88,1.83V44A1.46,1.46,0,0,0,75.54,44.61Zm-.75-.78V42.24h-1a2.26,2.26,0,0,0-1.34.34,1.2,1.2,0,0,0-.47,1,1.24,1.24,0,0,0,.32.91,1.23,1.23,0,0,0,.89.32A1.76,1.76,0,0,0,74.79,43.83Z"/><path d="M81.42,39.48l-2,5.76h-.79l-2.06-5.76h.71L79,44.67l1.71-5.19Z"/><path d="M83.9,36.63l.28.58L82,38.14l-.21-.37Zm-.51,2.85v5.76h-.64V39.48Z"/><path d="M92.46,37.75a3.34,3.34,0,0,1,.87.52l-.35.44a2.89,2.89,0,0,0-.73-.44,2.3,2.3,0,0,0-.81-.13,2.13,2.13,0,0,0-1.73.81A4,4,0,0,0,89,41.46a5,5,0,0,0,.31,1.85,2.45,2.45,0,0,0,.84,1.11,2.21,2.21,0,0,0,1.22.35,2.25,2.25,0,0,0,.91-.16,3.28,3.28,0,0,0,.76-.46l.34.43a2.85,2.85,0,0,1-2,.78,2.8,2.8,0,0,1-1.57-.45,3.06,3.06,0,0,1-1.08-1.33,5.18,5.18,0,0,1-.39-2.12,5,5,0,0,1,.41-2.12A3.06,3.06,0,0,1,89.85,38a2.86,2.86,0,0,1,1.55-.44A3,3,0,0,1,92.46,37.75Zm.28-2.28.29.34-1.42,1.11h-.4l-1.43-1.11.29-.34,1.34.88Z"/><path d="M97.06,41.86h-1.5v3.38H94.9V37.7h1.82c1.79,0,2.69.68,2.69,2A1.89,1.89,0,0,1,99,41a2.41,2.41,0,0,1-1.26.7l2.07,3.5H99Zm-.25-.54c1.26,0,1.89-.53,1.89-1.57a1.35,1.35,0,0,0-.47-1.14,2.5,2.5,0,0,0-1.53-.37H95.56v3.08Z"/><path d="M101.68,44.46a.5.5,0,0,1,.15.37,1.53,1.53,0,0,1-.17.6l-.61,1.47h-.47l.44-1.62a.41.41,0,0,1-.18-.19.48.48,0,0,1-.07-.26.5.5,0,0,1,.15-.37.54.54,0,0,1,.38-.15A.52.52,0,0,1,101.68,44.46Z"/><path d="M110.62,40.14a3.85,3.85,0,0,1,.52,2.19,3.91,3.91,0,0,1-.56,2.21,1.88,1.88,0,0,1-1.63.82,2.06,2.06,0,0,1-.93-.22,2.09,2.09,0,0,1-.71-.58V47.4l-.63.09v-8h.55l0,.84a2.3,2.3,0,0,1,.78-.71,2.08,2.08,0,0,1,1-.25A1.76,1.76,0,0,1,110.62,40.14Zm-.58,4a3.37,3.37,0,0,0,.42-1.86c0-1.63-.51-2.44-1.53-2.44a1.55,1.55,0,0,0-.89.26,3.15,3.15,0,0,0-.73.73v3.06a1.77,1.77,0,0,0,1.52.88A1.36,1.36,0,0,0,110,44.19Z"/><path d="M116.84,40.15a3.34,3.34,0,0,1,.64,2.19,3.41,3.41,0,0,1-.66,2.21,2.38,2.38,0,0,1-3.57,0,3.39,3.39,0,0,1-.64-2.2,3.92,3.92,0,0,1,.29-1.59,2.21,2.21,0,0,1,2.15-1.41A2.18,2.18,0,0,1,116.84,40.15Zm-3.09.38a3.05,3.05,0,0,0-.46,1.83,3.13,3.13,0,0,0,.45,1.83,1.66,1.66,0,0,0,2.6,0,3.08,3.08,0,0,0,.47-1.85,3,3,0,0,0-.46-1.82,1.66,1.66,0,0,0-2.6,0Z"/><path d="M123.45,37.14v8.1h-.55l-.08-.88a1.9,1.9,0,0,1-1.72,1,1.84,1.84,0,0,1-1.58-.8,3.6,3.6,0,0,1-.58-2.17,4.29,4.29,0,0,1,.27-1.58,2.38,2.38,0,0,1,.78-1.06,1.93,1.93,0,0,1,1.21-.39,2,2,0,0,1,1.61.78V37.06Zm-1.32,7.42a2.3,2.3,0,0,0,.68-.8v-3a1.8,1.8,0,0,0-1.5-.87,1.44,1.44,0,0,0-1.24.65,3.19,3.19,0,0,0-.45,1.84A3.31,3.31,0,0,0,120,44.2a1.33,1.33,0,0,0,1.16.63A1.59,1.59,0,0,0,122.13,44.56Z"/><path d="M127,36.63l.29.58-2.14.93-.21-.37Zm-.5,2.85v5.76h-.64V39.48Z"/><path d="M129.08,45.08a1.1,1.1,0,0,1-.27-.81V37.14l.64-.08v7.19c0,.37.15.56.46.56a1,1,0,0,0,.4-.08l.17.47a1.49,1.49,0,0,1-.66.16A1,1,0,0,1,129.08,45.08Z"/><path d="M138.82,40.15a3.35,3.35,0,0,1,.65,2.19,3.41,3.41,0,0,1-.66,2.21,2.38,2.38,0,0,1-3.57,0,3.39,3.39,0,0,1-.65-2.2,3.92,3.92,0,0,1,.3-1.59,2.35,2.35,0,0,1,.85-1.05,2.3,2.3,0,0,1,1.3-.36A2.16,2.16,0,0,1,138.82,40.15Zm-3.08.38a3.05,3.05,0,0,0-.46,1.83,3.13,3.13,0,0,0,.45,1.83,1.66,1.66,0,0,0,2.6,0,3.85,3.85,0,0,0,0-3.67,1.66,1.66,0,0,0-2.6,0Z"/><path d="M145.44,37.14v8.1h-.55l-.08-.88a1.9,1.9,0,0,1-1.72,1,1.84,1.84,0,0,1-1.58-.8,3.6,3.6,0,0,1-.58-2.17,4.29,4.29,0,0,1,.27-1.58,2.38,2.38,0,0,1,.78-1.06,1.93,1.93,0,0,1,1.21-.39,2,2,0,0,1,1.61.78V37.06Zm-1.33,7.42a2.21,2.21,0,0,0,.69-.8v-3a1.8,1.8,0,0,0-1.5-.87,1.43,1.43,0,0,0-1.24.65,3,3,0,0,0-.45,1.84A3.31,3.31,0,0,0,142,44.2a1.31,1.31,0,0,0,1.16.63A1.54,1.54,0,0,0,144.11,44.56Z"/><path d="M151.72,40.14a3.94,3.94,0,0,1,.52,2.19,3.83,3.83,0,0,1-.57,2.21,1.87,1.87,0,0,1-1.62.82,2,2,0,0,1-1.64-.8V47.4l-.64.09v-8h.55l.06.84a2.36,2.36,0,0,1,.77-.71,2.15,2.15,0,0,1,1-.25A1.76,1.76,0,0,1,151.72,40.14Zm-.58,4a3.37,3.37,0,0,0,.42-1.86c0-1.63-.51-2.44-1.53-2.44a1.56,1.56,0,0,0-.9.26,3.33,3.33,0,0,0-.72.73v3.06a1.76,1.76,0,0,0,1.52.88A1.36,1.36,0,0,0,151.14,44.19Z"/><path d="M157.93,40.15a3.34,3.34,0,0,1,.64,2.19,3.4,3.4,0,0,1-.65,2.21,2.18,2.18,0,0,1-1.79.81,2.15,2.15,0,0,1-1.78-.8,3.39,3.39,0,0,1-.65-2.2,3.92,3.92,0,0,1,.3-1.59,2.35,2.35,0,0,1,.85-1.05,2.27,2.27,0,0,1,1.29-.36A2.17,2.17,0,0,1,157.93,40.15Zm-3.08.38a3,3,0,0,0-.47,1.83,3.13,3.13,0,0,0,.46,1.83,1.5,1.5,0,0,0,1.29.63,1.55,1.55,0,0,0,1.31-.63,3.93,3.93,0,0,0,0-3.67,1.54,1.54,0,0,0-1.31-.62A1.5,1.5,0,0,0,154.85,40.53Z"/><path d="M164.26,39.48l-2,5.76h-.79l-2.06-5.76h.71l1.74,5.19,1.71-5.19Z"/><path d="M169.63,42.61h-3.84a2.68,2.68,0,0,0,.53,1.66,1.58,1.58,0,0,0,1.26.55,2.2,2.2,0,0,0,.8-.14,3.72,3.72,0,0,0,.75-.43l.3.4a3.27,3.27,0,0,1-.88.53,2.66,2.66,0,0,1-1,.18,2.2,2.2,0,0,1-1.79-.78,3.29,3.29,0,0,1-.65-2.17,4.16,4.16,0,0,1,.28-1.6,2.39,2.39,0,0,1,.8-1.07,2,2,0,0,1,1.22-.38,2,2,0,0,1,1.67.74,3.29,3.29,0,0,1,.57,2C169.65,42.31,169.64,42.46,169.63,42.61ZM169,42a2.52,2.52,0,0,0-.4-1.52,1.39,1.39,0,0,0-1.19-.54,1.41,1.41,0,0,0-1.16.55,2.86,2.86,0,0,0-.48,1.67H169Zm-.25-5.17.29.33-1.42,1.16h-.4l-1.43-1.16.29-.33,1.34.92Z"/><path d="M175.57,37.14v8.1H175l-.08-.88a1.9,1.9,0,0,1-1.72,1,1.84,1.84,0,0,1-1.58-.8,3.6,3.6,0,0,1-.58-2.17,4.29,4.29,0,0,1,.27-1.58,2.38,2.38,0,0,1,.78-1.06,1.92,1.92,0,0,1,1.2-.39,2,2,0,0,1,1.62.78V37.06Zm-1.33,7.42a2.21,2.21,0,0,0,.69-.8v-3a1.8,1.8,0,0,0-1.51-.87,1.43,1.43,0,0,0-1.23.65,3,3,0,0,0-.45,1.84,3.31,3.31,0,0,0,.42,1.82,1.31,1.31,0,0,0,1.15.63A1.55,1.55,0,0,0,174.24,44.56Z"/><path d="M179.11,36.63l.29.58-2.15.93-.21-.37Zm-.51,2.85v5.76H178V39.48Z"/><path d="M187.85,39.48l-2,5.76h-.79L183,39.48h.7l1.75,5.19,1.7-5.19Z"/><path d="M193.21,42.61h-3.84a2.68,2.68,0,0,0,.54,1.66,1.58,1.58,0,0,0,1.26.55,2.14,2.14,0,0,0,.79-.14,3.77,3.77,0,0,0,.76-.43l.3.4a3.17,3.17,0,0,1-.89.53,2.66,2.66,0,0,1-1,.18,2.2,2.2,0,0,1-1.79-.78,3.34,3.34,0,0,1-.65-2.17,4.35,4.35,0,0,1,.28-1.6,2.46,2.46,0,0,1,.8-1.07,2.06,2.06,0,0,1,1.22-.38,2,2,0,0,1,1.67.74,3.29,3.29,0,0,1,.57,2A3.54,3.54,0,0,1,193.21,42.61Zm-.6-.66a2.59,2.59,0,0,0-.4-1.52,1.54,1.54,0,0,0-2.35,0,2.79,2.79,0,0,0-.49,1.67h3.24Z"/><path d="M195.26,45.08a1.1,1.1,0,0,1-.27-.81V37.14l.64-.08v7.19c0,.37.16.56.47.56a.93.93,0,0,0,.39-.08l.18.47a1.53,1.53,0,0,1-.66.16A1,1,0,0,1,195.26,45.08Z"/><path d="M204.88,39.83a1.93,1.93,0,0,1,.4,1.29v4.12h-.64v-4a1.57,1.57,0,0,0-.26-1,.88.88,0,0,0-.72-.32,1.35,1.35,0,0,0-.87.31,3.39,3.39,0,0,0-.74.88v4.17h-.64v-4a1.63,1.63,0,0,0-.26-1,.88.88,0,0,0-.72-.32,1.35,1.35,0,0,0-.88.31,3.2,3.2,0,0,0-.74.88v4.17h-.64V39.48h.55l.06,1a2.75,2.75,0,0,1,.78-.81,1.82,1.82,0,0,1,1-.29,1.41,1.41,0,0,1,.92.3,1.58,1.58,0,0,1,.51.84,2.93,2.93,0,0,1,.8-.84,1.78,1.78,0,0,1,1-.3A1.38,1.38,0,0,1,204.88,39.83Z"/><path d="M208.22,37.08a.49.49,0,0,1,.13.33.45.45,0,0,1-.13.33.49.49,0,0,1-.36.14.48.48,0,0,1-.34-.14.45.45,0,0,1-.13-.33.49.49,0,0,1,.13-.33.51.51,0,0,1,.34-.13A.53.53,0,0,1,208.22,37.08Zm0,2.4v5.76h-.63V39.48Z"/><path d="M217.7,37.14v8.1h-.55l-.08-.88a1.9,1.9,0,0,1-1.73,1,1.84,1.84,0,0,1-1.57-.8,3.6,3.6,0,0,1-.58-2.17,4.29,4.29,0,0,1,.27-1.58,2.38,2.38,0,0,1,.78-1.06,1.92,1.92,0,0,1,1.2-.39,2,2,0,0,1,1.62.78V37.06Zm-1.33,7.42a2.31,2.31,0,0,0,.69-.8v-3a1.8,1.8,0,0,0-1.51-.87,1.43,1.43,0,0,0-1.23.65,3,3,0,0,0-.45,1.84,3.31,3.31,0,0,0,.42,1.82,1.31,1.31,0,0,0,1.15.63A1.55,1.55,0,0,0,216.37,44.56Z"/><path d="M223.8,40.15a3.34,3.34,0,0,1,.64,2.19,3.46,3.46,0,0,1-.65,2.21,2.39,2.39,0,0,1-3.58,0,3.39,3.39,0,0,1-.64-2.2,3.92,3.92,0,0,1,.3-1.59A2.19,2.19,0,0,1,222,39.36,2.18,2.18,0,0,1,223.8,40.15Zm-3.09.38a3.87,3.87,0,0,0,0,3.66,1.49,1.49,0,0,0,1.29.63,1.52,1.52,0,0,0,1.3-.63,3.08,3.08,0,0,0,.47-1.85,3,3,0,0,0-.46-1.82,1.66,1.66,0,0,0-2.6,0Z"/><path d="M230.23,40.13a4.59,4.59,0,0,1,0,4.41,1.88,1.88,0,0,1-1.61.82,1.85,1.85,0,0,1-.94-.24,2.08,2.08,0,0,1-.71-.61l-.07.73h-.56v-8.1l.64-.08v3.23a2.06,2.06,0,0,1,1.73-.93A1.81,1.81,0,0,1,230.23,40.13Zm-.56,4.07a3.42,3.42,0,0,0,.43-1.87c0-1.63-.52-2.44-1.56-2.44a1.55,1.55,0,0,0-.89.26,2.73,2.73,0,0,0-.7.73v3a2,2,0,0,0,.66.68,1.52,1.52,0,0,0,.86.25A1.36,1.36,0,0,0,229.67,44.2Z"/><path d="M235.51,39.43l-.12.6a2.1,2.1,0,0,0-.51-.06,1.17,1.17,0,0,0-.94.42,3.39,3.39,0,0,0-.6,1.32v3.53h-.64V39.48h.55l.06,1.29a2.22,2.22,0,0,1,.63-1.06,1.49,1.49,0,0,1,1-.35A1.93,1.93,0,0,1,235.51,39.43Z"/><path d="M240.53,42.61h-3.84a2.68,2.68,0,0,0,.54,1.66,1.58,1.58,0,0,0,1.26.55,2.24,2.24,0,0,0,.8-.14,3.72,3.72,0,0,0,.75-.43l.3.4a3.27,3.27,0,0,1-.88.53,2.7,2.7,0,0,1-1,.18,2.22,2.22,0,0,1-1.8-.78,3.34,3.34,0,0,1-.65-2.17,4.35,4.35,0,0,1,.28-1.6,2.4,2.4,0,0,1,.81-1.07,2,2,0,0,1,1.21-.38,2,2,0,0,1,1.67.74,3.23,3.23,0,0,1,.58,2A3.48,3.48,0,0,1,240.53,42.61Zm-.6-.66a2.52,2.52,0,0,0-.4-1.52,1.54,1.54,0,0,0-2.35,0,2.86,2.86,0,0,0-.49,1.67h3.24Zm-.76-5.32.29.58-2.15.93-.21-.37Z"/><path d="M249.17,39.82a1.86,1.86,0,0,1,.42,1.3v4.12H249v-4a1.49,1.49,0,0,0-.28-1,1,1,0,0,0-.81-.32,1.62,1.62,0,0,0-1,.3,3.08,3.08,0,0,0-.81.89v4.17h-.64V39.48H246l.07,1a2.78,2.78,0,0,1,.83-.81,2.11,2.11,0,0,1,1.09-.29A1.5,1.5,0,0,1,249.17,39.82Z"/><path d="M255.92,42.61h-3.84a2.68,2.68,0,0,0,.54,1.66,1.58,1.58,0,0,0,1.26.55,2.14,2.14,0,0,0,.79-.14,3.52,3.52,0,0,0,.76-.43l.3.4a3.27,3.27,0,0,1-.88.53,2.75,2.75,0,0,1-1,.18,2.2,2.2,0,0,1-1.79-.78,3.34,3.34,0,0,1-.65-2.17,4.35,4.35,0,0,1,.28-1.6,2.4,2.4,0,0,1,.81-1.07,2.2,2.2,0,0,1,2.88.36,3.29,3.29,0,0,1,.57,2A3.54,3.54,0,0,1,255.92,42.61Zm-.6-.66a2.59,2.59,0,0,0-.4-1.52,1.54,1.54,0,0,0-2.35,0,2.79,2.79,0,0,0-.49,1.67h3.24Z"/><path d="M261.68,40.13a4.59,4.59,0,0,1,0,4.41,1.88,1.88,0,0,1-1.61.82,1.85,1.85,0,0,1-.94-.24,2,2,0,0,1-.71-.61l-.07.73h-.56v-8.1l.64-.08v3.23a2.05,2.05,0,0,1,1.72-.93A1.82,1.82,0,0,1,261.68,40.13Zm-.56,4.07a3.43,3.43,0,0,0,.42-1.87c0-1.63-.51-2.44-1.55-2.44a1.55,1.55,0,0,0-.89.26,2.73,2.73,0,0,0-.7.73v3a2,2,0,0,0,.66.68,1.5,1.5,0,0,0,.86.25A1.36,1.36,0,0,0,261.12,44.2Z"/><path d="M267.92,40.15a3.34,3.34,0,0,1,.64,2.19,3.46,3.46,0,0,1-.65,2.21,2.39,2.39,0,0,1-3.58,0,3.39,3.39,0,0,1-.64-2.2,3.92,3.92,0,0,1,.3-1.59,2.19,2.19,0,0,1,2.14-1.41A2.18,2.18,0,0,1,267.92,40.15Zm-3.09.38a3.87,3.87,0,0,0,0,3.66,1.49,1.49,0,0,0,1.29.63,1.52,1.52,0,0,0,1.3-.63,3.08,3.08,0,0,0,.47-1.85,3,3,0,0,0-.46-1.82,1.66,1.66,0,0,0-2.6,0Z"/><path d="M277.6,37.14v8.1h-.55l-.07-.88a1.91,1.91,0,0,1-1.73,1,1.86,1.86,0,0,1-1.58-.8,3.67,3.67,0,0,1-.58-2.17,4.29,4.29,0,0,1,.27-1.58,2.38,2.38,0,0,1,.78-1.06,2,2,0,0,1,1.21-.39,2,2,0,0,1,1.62.78V37.06Zm-1.32,7.42a2.42,2.42,0,0,0,.69-.8v-3a1.81,1.81,0,0,0-1.51-.87,1.46,1.46,0,0,0-1.24.65,3.11,3.11,0,0,0-.44,1.84,3.41,3.41,0,0,0,.41,1.82,1.33,1.33,0,0,0,1.16.63A1.57,1.57,0,0,0,276.28,44.56Z"/><path d="M283.7,40.15a3.35,3.35,0,0,1,.65,2.19,3.41,3.41,0,0,1-.66,2.21,2.38,2.38,0,0,1-3.57,0,3.39,3.39,0,0,1-.65-2.2,3.92,3.92,0,0,1,.3-1.59,2.35,2.35,0,0,1,.85-1.05,2.3,2.3,0,0,1,1.3-.36A2.16,2.16,0,0,1,283.7,40.15Zm-3.08.38a3.05,3.05,0,0,0-.46,1.83,3.13,3.13,0,0,0,.45,1.83,1.51,1.51,0,0,0,1.29.63,1.54,1.54,0,0,0,1.31-.63,3.85,3.85,0,0,0,0-3.67,1.54,1.54,0,0,0-1.3-.62A1.52,1.52,0,0,0,280.62,40.53Z"/><path d="M290.13,40.13a3.72,3.72,0,0,1,.55,2.2,3.71,3.71,0,0,1-.58,2.21,1.87,1.87,0,0,1-1.61.82,1.91,1.91,0,0,1-.94-.24,2.08,2.08,0,0,1-.71-.61l-.06.73h-.56v-8.1l.63-.08v3.23a2.08,2.08,0,0,1,1.73-.93A1.79,1.79,0,0,1,290.13,40.13Zm-.55,4.07a3.43,3.43,0,0,0,.42-1.87c0-1.63-.52-2.44-1.55-2.44a1.53,1.53,0,0,0-.89.26,2.75,2.75,0,0,0-.71.73v3a2.18,2.18,0,0,0,.67.68,1.49,1.49,0,0,0,.85.25A1.39,1.39,0,0,0,289.58,44.2Z"/><path d="M295.41,39.43l-.12.6a2.07,2.07,0,0,0-.5-.06,1.16,1.16,0,0,0-.94.42,3.39,3.39,0,0,0-.6,1.32v3.53h-.64V39.48h.55l0,1.29a2.31,2.31,0,0,1,.64-1.06,1.44,1.44,0,0,1,1-.35A1.85,1.85,0,0,1,295.41,39.43Z"/><path d="M300.44,42.61H296.6a2.68,2.68,0,0,0,.53,1.66,1.58,1.58,0,0,0,1.26.55,2.2,2.2,0,0,0,.8-.14,3.72,3.72,0,0,0,.75-.43l.3.4a3.13,3.13,0,0,1-.88.53,2.66,2.66,0,0,1-1,.18,2.2,2.2,0,0,1-1.79-.78,3.29,3.29,0,0,1-.65-2.17,4.16,4.16,0,0,1,.28-1.6,2.39,2.39,0,0,1,.8-1.07,2.06,2.06,0,0,1,1.22-.38,2,2,0,0,1,1.67.74,3.29,3.29,0,0,1,.57,2C300.46,42.31,300.45,42.46,300.44,42.61Zm-.61-.66a2.52,2.52,0,0,0-.4-1.52,1.37,1.37,0,0,0-1.19-.54,1.41,1.41,0,0,0-1.16.55,2.86,2.86,0,0,0-.48,1.67h3.23Zm-.75-5.32.28.58-2.14.93-.21-.37Z"/><path d="M302.51,44.46a.5.5,0,0,1,.15.37,1.49,1.49,0,0,1-.16.6l-.62,1.47h-.46l.44-1.62a.5.5,0,0,1-.19-.19.59.59,0,0,1-.07-.26.51.51,0,0,1,.16-.37.51.51,0,0,1,.37-.15A.5.5,0,0,1,302.51,44.46Z"/><path d="M310.29,38.34a1.87,1.87,0,0,1,.54,1.38,3.24,3.24,0,0,1-.29,1.35,6.92,6.92,0,0,1-.93,1.37c-.42.5-1.1,1.24-2,2.23H311l-.09.57h-4.12V44.7c1-1.07,1.72-1.87,2.16-2.39A5.85,5.85,0,0,0,309.9,41a2.78,2.78,0,0,0,.27-1.21,1.39,1.39,0,0,0-.38-1,1.35,1.35,0,0,0-1-.38,1.87,1.87,0,0,0-.9.21,2.63,2.63,0,0,0-.74.62l-.44-.33a3,3,0,0,1,1-.79,2.57,2.57,0,0,1,1.16-.25A2,2,0,0,1,310.29,38.34Z"/><path d="M316.36,38.76a5.6,5.6,0,0,1,.58,2.82,5.44,5.44,0,0,1-.59,2.81,2,2,0,0,1-3.43,0,5.6,5.6,0,0,1-.58-2.82,5.53,5.53,0,0,1,.58-2.81,2,2,0,0,1,3.44,0ZM313,41.57c0,2.17.55,3.26,1.64,3.26a1.33,1.33,0,0,0,1.22-.79,5.66,5.66,0,0,0,.41-2.46,5.72,5.72,0,0,0-.41-2.46,1.31,1.31,0,0,0-1.22-.79C313.55,38.33,313,39.41,313,41.57Z"/><path d="M320.57,37.92v7.32h-.64V38.62l-1.8,1.13-.3-.48L320,37.92Z"/><path d="M326.37,38.57a3.72,3.72,0,0,1,.56,2.18,5.71,5.71,0,0,1-.41,2.32,3.43,3.43,0,0,1-1.19,1.44,7.64,7.64,0,0,1-2.08.93l-.16-.49a5.39,5.39,0,0,0,2.31-1.27,3.18,3.18,0,0,0,.88-2.2,2.48,2.48,0,0,1-.79.76,2,2,0,0,1-1,.27,1.86,1.86,0,0,1-1.73-1.09,2.71,2.71,0,0,1-.26-1.22,2.68,2.68,0,0,1,.29-1.27,2.09,2.09,0,0,1,.8-.84,2.29,2.29,0,0,1,1.13-.29A1.92,1.92,0,0,1,326.37,38.57Zm-.86,3.13a2.91,2.91,0,0,0,.77-.82,3.85,3.85,0,0,0-.37-1.93,1.25,1.25,0,0,0-1.18-.62,1.44,1.44,0,0,0-1.16.49,2,2,0,0,0-.43,1.39,2,2,0,0,0,.39,1.31,1.3,1.3,0,0,0,1.05.46A1.57,1.57,0,0,0,325.51,41.7Z"/></g><path class="cls-5" d="M24,300.13c0,2.51-.7,3.77-2.08,3.77a1.68,1.68,0,0,1-1.56-.94,5.87,5.87,0,0,1-.53-2.84c0-2.52.7-3.78,2.09-3.78S24,297.61,24,300.13Zm-3.17-2.49a6.25,6.25,0,0,0-.36,2.48,6.34,6.34,0,0,0,.36,2.49,1.15,1.15,0,0,0,2.17,0,8.76,8.76,0,0,0,0-5,1.14,1.14,0,0,0-2.17,0Z"/><path class="cls-5" d="M30.58,296.82a1.93,1.93,0,0,1,.41,1.3,2,2,0,0,1-.41,1.32,1.45,1.45,0,0,1-2.16,0,2,2,0,0,1-.41-1.3,2,2,0,0,1,.41-1.32,1.34,1.34,0,0,1,1.08-.48A1.37,1.37,0,0,1,30.58,296.82Zm-1.8.34a1.85,1.85,0,0,0-.22,1,1.78,1.78,0,0,0,.23.95.87.87,0,0,0,1.42,0,2.18,2.18,0,0,0,0-1.93.76.76,0,0,0-.7-.36A.79.79,0,0,0,28.78,297.16Zm4.75-1.11.45.26L29.39,304l-.45-.26Zm.91,4.75a2,2,0,0,1,.41,1.31,1.91,1.91,0,0,1-.41,1.31,1.34,1.34,0,0,1-1.08.48,1.37,1.37,0,0,1-1.08-.48,2,2,0,0,1-.41-1.3,2,2,0,0,1,.41-1.32,1.36,1.36,0,0,1,1.08-.47A1.39,1.39,0,0,1,34.44,300.8Zm-1.8.35a1.79,1.79,0,0,0-.22,1,1.83,1.83,0,0,0,.23,1,.88.88,0,0,0,1.42,0,1.85,1.85,0,0,0,.22-1,1.77,1.77,0,0,0-.22-1,.77.77,0,0,0-.71-.36A.79.79,0,0,0,32.64,301.15Z"/><path class="cls-5" d="M18,255.94a1.91,1.91,0,0,1,.49,1.36,3.38,3.38,0,0,1-.27,1.34,6.84,6.84,0,0,1-.84,1.41c-.39.52-1,1.27-1.84,2.26h3.13l-.09.55H14.82v-.52c.88-1.06,1.52-1.85,1.93-2.39a6.81,6.81,0,0,0,.84-1.39,3.23,3.23,0,0,0,.25-1.24,1.45,1.45,0,0,0-.33-1,1.18,1.18,0,0,0-.91-.36,1.57,1.57,0,0,0-.79.2,2.41,2.41,0,0,0-.67.62l-.42-.3a2.61,2.61,0,0,1,.85-.79,2.22,2.22,0,0,1,1.06-.26A1.79,1.79,0,0,1,18,255.94Z"/><path class="cls-5" d="M24,259.21c0,2.51-.7,3.77-2.08,3.77a1.68,1.68,0,0,1-1.56-.94,5.91,5.91,0,0,1-.53-2.85c0-2.51.7-3.77,2.09-3.77S24,256.68,24,259.21Zm-3.17-2.5a8.79,8.79,0,0,0,0,5,1.15,1.15,0,0,0,2.17,0,8.79,8.79,0,0,0,0-5,1.15,1.15,0,0,0-2.17,0Z"/><path class="cls-5" d="M30.58,255.89a2,2,0,0,1,.41,1.3,2,2,0,0,1-.41,1.32,1.45,1.45,0,0,1-2.16,0,2.3,2.3,0,0,1,0-2.62,1.34,1.34,0,0,1,1.08-.48A1.39,1.39,0,0,1,30.58,255.89Zm-1.8.35a2.18,2.18,0,0,0,0,1.93.88.88,0,0,0,1.42,0,1.85,1.85,0,0,0,.22-1,1.78,1.78,0,0,0-.23-.95.75.75,0,0,0-.7-.37A.77.77,0,0,0,28.78,256.24Zm4.75-1.12.45.27-4.59,7.72-.45-.26Zm.91,4.76a2,2,0,0,1,.41,1.31,1.92,1.92,0,0,1-.41,1.31,1.34,1.34,0,0,1-1.08.48,1.37,1.37,0,0,1-1.08-.48,2,2,0,0,1-.41-1.3,2,2,0,0,1,.41-1.32,1.34,1.34,0,0,1,1.08-.48A1.37,1.37,0,0,1,34.44,259.88Zm-1.8.34a1.85,1.85,0,0,0-.22,1,1.79,1.79,0,0,0,.23,1,.87.87,0,0,0,1.42,0,2.25,2.25,0,0,0,0-1.94.76.76,0,0,0-.71-.35A.78.78,0,0,0,32.64,260.22Z"/><path class="cls-5" d="M18.81,219.49V220h-.88v1.92h-.59V220H14.45v-.47l2-5,.53.2-1.89,4.79h2.25l.07-2.16h.52v2.16Z"/><path class="cls-5" d="M24,218.28c0,2.52-.7,3.77-2.08,3.77a1.68,1.68,0,0,1-1.56-.94,5.84,5.84,0,0,1-.53-2.84c0-2.52.69-3.77,2.09-3.77S24,215.76,24,218.28Zm-3.17-2.49a8.76,8.76,0,0,0,0,5,1.16,1.16,0,0,0,1.09.78,1.17,1.17,0,0,0,1.08-.78,6.25,6.25,0,0,0,.36-2.48,6.34,6.34,0,0,0-.36-2.49,1.14,1.14,0,0,0-2.17,0Z"/><path class="cls-5" d="M30.58,215a2,2,0,0,1,.41,1.3,2,2,0,0,1-.41,1.32,1.45,1.45,0,0,1-2.16,0,2.28,2.28,0,0,1,0-2.61,1.34,1.34,0,0,1,1.07-.48A1.4,1.4,0,0,1,30.58,215Zm-1.8.34a1.85,1.85,0,0,0-.22,1,1.82,1.82,0,0,0,.23,1,.76.76,0,0,0,.7.36.79.79,0,0,0,.72-.36,1.87,1.87,0,0,0,.22-1,1.79,1.79,0,0,0-.23-1,.88.88,0,0,0-1.42,0Zm4.75-1.11.45.26-4.59,7.73-.45-.27Zm.91,4.76a2.3,2.3,0,0,1,0,2.62,1.36,1.36,0,0,1-1.08.47,1.39,1.39,0,0,1-1.08-.47,2.3,2.3,0,0,1,0-2.62,1.34,1.34,0,0,1,1.08-.48A1.37,1.37,0,0,1,34.44,219Zm-1.8.34a2.2,2.2,0,0,0,0,1.94.88.88,0,0,0,1.42,0,1.85,1.85,0,0,0,.22-1,1.8,1.8,0,0,0-.22-1,.77.77,0,0,0-.71-.36A.79.79,0,0,0,32.64,219.3Z"/><path class="cls-5" d="M18.13,176.84a2.58,2.58,0,0,1,.5,1.71,3.45,3.45,0,0,1-.25,1.39,1.9,1.9,0,0,1-.69.89,1.74,1.74,0,0,1-1,.3,1.71,1.71,0,0,1-1.61-.91,5.28,5.28,0,0,1-.5-2.5,7.69,7.69,0,0,1,.29-2.23,3.15,3.15,0,0,1,.83-1.43,1.88,1.88,0,0,1,1.28-.49,2.07,2.07,0,0,1,1.24.43l-.27.42a1.65,1.65,0,0,0-1-.33,1.41,1.41,0,0,0-1.27.87,5.23,5.23,0,0,0-.5,2.35,1.92,1.92,0,0,1,1.68-1.06A1.55,1.55,0,0,1,18.13,176.84Zm-.46,3.23a2.78,2.78,0,0,0,.34-1.5,2.32,2.32,0,0,0-.33-1.38,1.07,1.07,0,0,0-.9-.44,1.43,1.43,0,0,0-.9.33,2.55,2.55,0,0,0-.69.89,4.51,4.51,0,0,0,.37,2,1.2,1.2,0,0,0,1.12.66A1.11,1.11,0,0,0,17.67,180.07Z"/><path class="cls-5" d="M24,177.36c0,2.51-.7,3.77-2.08,3.77a1.68,1.68,0,0,1-1.56-.94,5.87,5.87,0,0,1-.53-2.84c0-2.52.7-3.78,2.09-3.78S24,174.84,24,177.36Zm-3.17-2.49a6.25,6.25,0,0,0-.36,2.48,6.34,6.34,0,0,0,.36,2.49,1.15,1.15,0,0,0,2.17,0,8.76,8.76,0,0,0,0-5,1.14,1.14,0,0,0-2.17,0Z"/><path class="cls-5" d="M30.58,174.05a1.93,1.93,0,0,1,.41,1.3,2,2,0,0,1-.41,1.32,1.45,1.45,0,0,1-2.16,0,2,2,0,0,1-.41-1.3,2,2,0,0,1,.41-1.32,1.34,1.34,0,0,1,1.08-.48A1.37,1.37,0,0,1,30.58,174.05Zm-1.8.34a1.85,1.85,0,0,0-.22,1,1.78,1.78,0,0,0,.23.95.87.87,0,0,0,1.42,0,2.18,2.18,0,0,0,0-1.93.76.76,0,0,0-.7-.36A.79.79,0,0,0,28.78,174.39Zm4.75-1.11.45.26-4.59,7.72L29,181Zm.91,4.75a2,2,0,0,1,.41,1.31,2,2,0,0,1-.4,1.31,1.47,1.47,0,0,1-2.17,0,2,2,0,0,1-.41-1.3,2,2,0,0,1,.41-1.32,1.36,1.36,0,0,1,1.08-.47A1.38,1.38,0,0,1,34.44,178Zm-1.8.35a1.79,1.79,0,0,0-.22,1,1.83,1.83,0,0,0,.23,1,.88.88,0,0,0,1.42,0,1.85,1.85,0,0,0,.22-1,1.77,1.77,0,0,0-.22-1,.77.77,0,0,0-.71-.36A.79.79,0,0,0,32.64,178.38Z"/><path class="cls-5" d="M18.27,137a1.85,1.85,0,0,1,.36,1.17,1.89,1.89,0,0,1-.6,1.48,2.2,2.2,0,0,1-1.57.55,2.17,2.17,0,0,1-1.56-.55,1.93,1.93,0,0,1-.57-1.45,2.09,2.09,0,0,1,1.45-2.05,2.26,2.26,0,0,1-.89-.69,1.63,1.63,0,0,1-.28-1,1.87,1.87,0,0,1,.26-1,1.65,1.65,0,0,1,.68-.63,2.08,2.08,0,0,1,.93-.21,2.25,2.25,0,0,1,.93.2,1.67,1.67,0,0,1,.68.61,1.81,1.81,0,0,1,.26,1,1.65,1.65,0,0,1-.29,1,2.63,2.63,0,0,1-.93.75A3,3,0,0,1,18.27,137Zm-.68,2.3A1.44,1.44,0,0,0,18,138.2a1.48,1.48,0,0,0-.31-1,3.2,3.2,0,0,0-1.13-.68l-.34-.14a2.26,2.26,0,0,0-1,.73,1.9,1.9,0,0,0-.31,1.12,1.43,1.43,0,0,0,.41,1.1,1.57,1.57,0,0,0,1.11.38A1.62,1.62,0,0,0,17.59,139.31Zm-2.11-4a2.49,2.49,0,0,0,.94.59l.3.13a2.62,2.62,0,0,0,.79-.69,1.5,1.5,0,0,0,.24-.86,1.42,1.42,0,0,0-.34-1,1.4,1.4,0,0,0-1.85,0,1.34,1.34,0,0,0-.34,1A1.2,1.2,0,0,0,15.48,135.32Z"/><path class="cls-5" d="M24,136.44c0,2.51-.7,3.77-2.08,3.77a1.7,1.7,0,0,1-1.56-.94,5.91,5.91,0,0,1-.53-2.85c0-2.51.69-3.77,2.09-3.77S24,133.91,24,136.44Zm-3.17-2.5a8.79,8.79,0,0,0,0,5,1.16,1.16,0,0,0,1.09.77,1.18,1.18,0,0,0,1.08-.77,8.79,8.79,0,0,0,0-5,1.15,1.15,0,0,0-2.17,0Z"/><path class="cls-5" d="M30.58,133.12a2,2,0,0,1,.41,1.3,2,2,0,0,1-.41,1.32,1.45,1.45,0,0,1-2.16,0,2.3,2.3,0,0,1,0-2.62,1.34,1.34,0,0,1,1.08-.48A1.39,1.39,0,0,1,30.58,133.12Zm-1.8.34a1.87,1.87,0,0,0-.22,1,1.79,1.79,0,0,0,.23,1,.88.88,0,0,0,1.42,0,2.2,2.2,0,0,0,0-1.94.76.76,0,0,0-.7-.36A.79.79,0,0,0,28.78,133.46Zm4.75-1.11.45.27-4.59,7.72-.45-.26Zm.91,4.76a2,2,0,0,1,.41,1.31,1.92,1.92,0,0,1-.41,1.31,1.34,1.34,0,0,1-1.08.48,1.37,1.37,0,0,1-1.08-.48,2,2,0,0,1-.41-1.3,2,2,0,0,1,.41-1.32,1.34,1.34,0,0,1,1.08-.48A1.37,1.37,0,0,1,34.44,137.11Zm-1.8.34a1.85,1.85,0,0,0-.22,1,1.79,1.79,0,0,0,.23,1,.87.87,0,0,0,1.42,0,2.25,2.25,0,0,0,0-1.94.77.77,0,0,0-.71-.36A.79.79,0,0,0,32.64,137.45Z"/><path class="cls-5" d="M12.39,91.85v7.31h-.62V92.53l-1.6,1.11-.29-.44,2-1.35Z"/><path class="cls-5" d="M18.46,95.51c0,2.52-.69,3.78-2.08,3.78a1.69,1.69,0,0,1-1.56-1,6,6,0,0,1-.53-2.84c0-2.51.7-3.77,2.09-3.77S18.46,93,18.46,95.51ZM15.29,93a8.76,8.76,0,0,0,0,5,1.18,1.18,0,0,0,1.09.78A1.15,1.15,0,0,0,17.46,98a6.25,6.25,0,0,0,.36-2.48A6.57,6.57,0,0,0,17.47,93a1.15,1.15,0,0,0-1.09-.77A1.17,1.17,0,0,0,15.29,93Z"/><path class="cls-5" d="M24,95.51c0,2.52-.7,3.78-2.08,3.78a1.69,1.69,0,0,1-1.56-1,5.84,5.84,0,0,1-.53-2.84c0-2.51.69-3.77,2.09-3.77S24,93,24,95.51ZM20.85,93a8.76,8.76,0,0,0,0,5,1.16,1.16,0,0,0,1.09.78A1.17,1.17,0,0,0,23,98a6.25,6.25,0,0,0,.36-2.48A6.34,6.34,0,0,0,23,93a1.15,1.15,0,0,0-2.17,0Z"/><path class="cls-5" d="M30.58,92.2A2,2,0,0,1,31,93.5a2,2,0,0,1-.41,1.32,1.45,1.45,0,0,1-2.16,0,2.28,2.28,0,0,1,0-2.61,1.34,1.34,0,0,1,1.08-.48A1.39,1.39,0,0,1,30.58,92.2Zm-1.8.34a1.85,1.85,0,0,0-.22,1,1.79,1.79,0,0,0,.23,1,.88.88,0,0,0,1.42,0,1.85,1.85,0,0,0,.22-1,1.79,1.79,0,0,0-.23-1,.76.76,0,0,0-.7-.36A.79.79,0,0,0,28.78,92.54Zm4.75-1.11.45.26-4.59,7.73-.45-.27Zm.91,4.76a2.3,2.3,0,0,1,0,2.62,1.37,1.37,0,0,1-1.08.48,1.4,1.4,0,0,1-1.08-.48,2.3,2.3,0,0,1,0-2.62,1.34,1.34,0,0,1,1.08-.48A1.37,1.37,0,0,1,34.44,96.19Zm-1.8.34a2.2,2.2,0,0,0,0,1.94.88.88,0,0,0,1.42,0,1.85,1.85,0,0,0,.22-1,1.8,1.8,0,0,0-.22-1,.77.77,0,0,0-.71-.36A.79.79,0,0,0,32.64,96.53Z"/><polyline class="cls-6" points="52.51 101.79 88.42 108.84 124.33 163.82 160.16 222.5 196.07 249.31 231.99 253.86 267.9 283.5"/><path class="cls-7" d="M55.26,101.87a2.71,2.71,0,1,1-2.71-2.71,2.71,2.71,0,0,1,2.71,2.71Z"/><path class="cls-7" d="M91.08,108.83a2.71,2.71,0,1,1-2.7-2.71,2.7,2.7,0,0,1,2.7,2.71Z"/><path class="cls-7" d="M127,163.82a2.71,2.71,0,1,1-2.71-2.71,2.71,2.71,0,0,1,2.71,2.71Z"/><path class="cls-7" d="M162.91,222.58a2.71,2.71,0,1,1-2.71-2.7,2.71,2.71,0,0,1,2.71,2.7Z"/><path class="cls-7" d="M198.82,249.39a2.71,2.71,0,1,1-2.7-2.71,2.71,2.71,0,0,1,2.7,2.71Z"/><path class="cls-7" d="M234.65,253.86a2.71,2.71,0,1,1-2.71-2.71,2.7,2.7,0,0,1,2.71,2.71Z"/><path class="cls-7" d="M270.56,283.58a2.71,2.71,0,1,1-2.7-2.7,2.7,2.7,0,0,1,2.7,2.7Z"/><path class="cls-8" d="M55.26,100.58a2.71,2.71,0,1,1-2.71-2.7,2.71,2.71,0,0,1,2.71,2.7Z"/><path class="cls-8" d="M91.08,113.38a2.71,2.71,0,1,1-2.7-2.7,2.7,2.7,0,0,1,2.7,2.7Z"/><path class="cls-8" d="M127,125.76a2.71,2.71,0,1,1-2.71-2.71,2.71,2.71,0,0,1,2.71,2.71Z"/><path class="cls-8" d="M162.91,158.75A2.71,2.71,0,1,1,160.2,156a2.7,2.7,0,0,1,2.71,2.71Z"/><path class="cls-8" d="M198.82,203.85a2.71,2.71,0,1,1-2.7-2.7,2.7,2.7,0,0,1,2.7,2.7Z"/><path class="cls-8" d="M234.65,228.17a2.71,2.71,0,1,1-2.71-2.71,2.7,2.7,0,0,1,2.71,2.71Z"/><path class="cls-8" d="M270.56,263.14a2.71,2.71,0,1,1-2.7-2.71,2.7,2.7,0,0,1,2.7,2.71Z"/><path class="cls-9" d="M91.08,103.68a2.71,2.71,0,1,1-2.7-2.71,2.7,2.7,0,0,1,2.7,2.71Z"/><path class="cls-9" d="M127,114.59a2.71,2.71,0,1,1-2.71-2.71,2.71,2.71,0,0,1,2.71,2.71Z"/><path class="cls-9" d="M162.91,127.22a2.71,2.71,0,1,1-2.71-2.71,2.7,2.7,0,0,1,2.71,2.71Z"/><path class="cls-9" d="M198.82,160.55a2.71,2.71,0,1,1-2.7-2.7,2.7,2.7,0,0,1,2.7,2.7Z"/><path class="cls-9" d="M234.65,194a2.71,2.71,0,1,1-2.71-2.7,2.71,2.71,0,0,1,2.71,2.7Z"/><path class="cls-9" d="M270.56,246.47a2.71,2.71,0,1,1-2.7-2.71,2.7,2.7,0,0,1,2.7,2.71Z"/><path class="cls-5" d="M43.25,309.6v7.32h-.61v-6.63L41,311.4l-.28-.44,2-1.36Z"/><path class="cls-5" d="M48.72,312.74a2.62,2.62,0,0,1,.5,1.71,3.65,3.65,0,0,1-.25,1.4,2,2,0,0,1-.69.89,1.87,1.87,0,0,1-2.62-.61,5.28,5.28,0,0,1-.5-2.5,7.31,7.31,0,0,1,.29-2.23,3.1,3.1,0,0,1,.83-1.43,1.86,1.86,0,0,1,1.28-.49,2.07,2.07,0,0,1,1.24.43l-.28.42a1.61,1.61,0,0,0-1-.33,1.4,1.4,0,0,0-1.26.87,5.35,5.35,0,0,0-.51,2.35,1.94,1.94,0,0,1,1.69-1.06A1.57,1.57,0,0,1,48.72,312.74ZM48.26,316a2.82,2.82,0,0,0,.34-1.5,2.32,2.32,0,0,0-.33-1.38,1.07,1.07,0,0,0-.9-.44,1.43,1.43,0,0,0-.9.33,2.57,2.57,0,0,0-.7.89,4.53,4.53,0,0,0,.38,2,1.19,1.19,0,0,0,1.12.66A1.11,1.11,0,0,0,48.26,316Z"/><path class="cls-5" d="M50.14,313.24v-.52h4.38v.52Z"/><path class="cls-5" d="M58.43,310a1.88,1.88,0,0,1,.5,1.35,3.46,3.46,0,0,1-.27,1.35,6.71,6.71,0,0,1-.85,1.4c-.38.52-1,1.27-1.83,2.26H59.1l-.08.55H55.29v-.52c.88-1,1.52-1.85,1.92-2.39a6.49,6.49,0,0,0,.85-1.39,3.21,3.21,0,0,0,.24-1.23,1.47,1.47,0,0,0-.33-1,1.16,1.16,0,0,0-.9-.36,1.61,1.61,0,0,0-.8.2,2.42,2.42,0,0,0-.66.63l-.42-.31a2.73,2.73,0,0,1,.85-.79,2.15,2.15,0,0,1,1.05-.26A1.75,1.75,0,0,1,58.43,310Z"/><path class="cls-5" d="M64.43,314.48V315h-.88v1.93H63V315h-2.9v-.47l2-5,.53.2-1.89,4.8H63l.06-2.16h.53v2.16Z"/><path class="cls-5" d="M79.66,310a1.88,1.88,0,0,1,.5,1.35,3.46,3.46,0,0,1-.27,1.35,6.71,6.71,0,0,1-.85,1.4c-.38.52-1,1.27-1.83,2.26h3.12l-.08.55H76.52v-.52c.88-1,1.52-1.85,1.92-2.39a6.49,6.49,0,0,0,.85-1.39,3.21,3.21,0,0,0,.24-1.23,1.47,1.47,0,0,0-.33-1,1.16,1.16,0,0,0-.9-.36,1.61,1.61,0,0,0-.8.2,2.42,2.42,0,0,0-.66.63l-.42-.31a2.63,2.63,0,0,1,.85-.79,2.15,2.15,0,0,1,1-.26A1.75,1.75,0,0,1,79.66,310Z"/><path class="cls-5" d="M84.89,310.12H82.23v2.52a1.88,1.88,0,0,1,1.12-.35,1.68,1.68,0,0,1,1.35.6,2.52,2.52,0,0,1,.51,1.67,2.92,2.92,0,0,1-.27,1.29,2,2,0,0,1-.75.88,2,2,0,0,1-1.13.31,2.26,2.26,0,0,1-1-.23,2.84,2.84,0,0,1-.85-.65l.4-.35a2,2,0,0,0,.67.53,1.86,1.86,0,0,0,.81.17,1.32,1.32,0,0,0,1.1-.52,2.3,2.3,0,0,0,.41-1.44,2,2,0,0,0-.37-1.33,1.28,1.28,0,0,0-1-.43,1.64,1.64,0,0,0-.56.09,2.26,2.26,0,0,0-.54.27h-.47V309.6H85Z"/><path class="cls-5" d="M86.1,313.24v-.52h4.38v.52Z"/><path class="cls-5" d="M94.41,310a1.81,1.81,0,0,1,.5,1.31A1.61,1.61,0,0,1,93.54,313a1.72,1.72,0,0,1,1.13.53,1.87,1.87,0,0,1,.43,1.3,2.41,2.41,0,0,1-.26,1.13,2,2,0,0,1-.74.78A2.13,2.13,0,0,1,93,317a2.36,2.36,0,0,1-1.06-.23,2.61,2.61,0,0,1-.86-.72l.4-.32a2,2,0,0,0,.7.58,1.75,1.75,0,0,0,.81.17,1.36,1.36,0,0,0,1.09-.45,1.76,1.76,0,0,0,.4-1.22,1.36,1.36,0,0,0-1.54-1.54H92.5l.06-.49h.33a1.47,1.47,0,0,0,1-.38,1.41,1.41,0,0,0,.41-1.1,1.37,1.37,0,0,0-.34-1A1.23,1.23,0,0,0,93,310a1.73,1.73,0,0,0-.76.16,2.2,2.2,0,0,0-.68.51l-.34-.35a2.54,2.54,0,0,1,.84-.62,2.22,2.22,0,0,1,1-.21A1.74,1.74,0,0,1,94.41,310Z"/><path class="cls-5" d="M100.52,314.48V315h-.88v1.93H99V315H96.15v-.47l2-5,.53.2-1.89,4.8H99l.07-2.16h.53v2.16Z"/><path class="cls-5" d="M115.61,310a1.8,1.8,0,0,1,.49,1.31,1.69,1.69,0,0,1-.37,1.15,1.64,1.64,0,0,1-1,.56,1.72,1.72,0,0,1,1.12.53,1.82,1.82,0,0,1,.43,1.3A2.41,2.41,0,0,1,116,316a1.92,1.92,0,0,1-.74.78,2.09,2.09,0,0,1-1.1.28,2.41,2.41,0,0,1-1.07-.23,2.71,2.71,0,0,1-.86-.72l.4-.32a2.24,2.24,0,0,0,.7.58,1.94,1.94,0,0,0,.82.17,1.39,1.39,0,0,0,1.09-.45,1.81,1.81,0,0,0,.39-1.22,1.36,1.36,0,0,0-1.54-1.54h-.43l.07-.49h.33a1.45,1.45,0,0,0,1-.38,1.42,1.42,0,0,0,.42-1.1,1.37,1.37,0,0,0-.35-1,1.23,1.23,0,0,0-.93-.36,1.73,1.73,0,0,0-.76.16,2.28,2.28,0,0,0-.68.51l-.34-.35a2.54,2.54,0,0,1,.84-.62,2.27,2.27,0,0,1,1-.21A1.76,1.76,0,0,1,115.61,310Z"/><path class="cls-5" d="M120.94,310.12h-2.66v2.52a1.9,1.9,0,0,1,1.12-.35,1.66,1.66,0,0,1,1.35.6,2.51,2.51,0,0,1,.51,1.67,3.06,3.06,0,0,1-.26,1.29,2.16,2.16,0,0,1-.75.88,2.1,2.1,0,0,1-1.13.31,2.31,2.31,0,0,1-1-.23,3,3,0,0,1-.85-.65l.4-.35a2.14,2.14,0,0,0,.67.53,1.94,1.94,0,0,0,.82.17,1.33,1.33,0,0,0,1.1-.52,2.3,2.3,0,0,0,.4-1.44,2,2,0,0,0-.37-1.33,1.24,1.24,0,0,0-1-.43,1.6,1.6,0,0,0-.56.09,2.61,2.61,0,0,0-.54.26h-.47V309.6H121Z"/><path class="cls-5" d="M122.15,313.24v-.52h4.38v.52Z"/><path class="cls-5" d="M131.74,314.48V315h-.88v1.93h-.59V315h-2.89v-.47l2-5,.53.2-1.9,4.8h2.26l.07-2.16h.52v2.16Z"/><path class="cls-5" d="M136.89,314.48V315H136v1.93h-.59V315h-2.9v-.47l2-5,.52.2-1.89,4.8h2.26l.06-2.16H136v2.16Z"/><path class="cls-5" d="M152.84,314.48V315H152v1.93h-.6V315h-2.89v-.47l2-5,.53.2-1.89,4.8h2.25l.07-2.16H152v2.16Z"/><path class="cls-5" d="M157.22,310.12h-2.67v2.52a1.93,1.93,0,0,1,1.13-.35,1.68,1.68,0,0,1,1.35.6,2.52,2.52,0,0,1,.51,1.67,2.92,2.92,0,0,1-.27,1.29,2,2,0,0,1-.75.88,2,2,0,0,1-1.13.31,2.26,2.26,0,0,1-1-.23,2.84,2.84,0,0,1-.85-.65l.39-.35a2.17,2.17,0,0,0,.68.53,1.86,1.86,0,0,0,.81.17,1.32,1.32,0,0,0,1.1-.52,2.3,2.3,0,0,0,.41-1.44,2,2,0,0,0-.37-1.33,1.28,1.28,0,0,0-1-.43,1.6,1.6,0,0,0-.56.09,2.26,2.26,0,0,0-.54.27H154V309.6h3.35Z"/><path class="cls-5" d="M158.43,313.24v-.52h4.38v.52Z"/><path class="cls-5" d="M167.25,310.12h-2.66v2.52a1.9,1.9,0,0,1,1.12-.35,1.68,1.68,0,0,1,1.35.6,2.52,2.52,0,0,1,.51,1.67,2.92,2.92,0,0,1-.27,1.29,2,2,0,0,1-.74.88,2.07,2.07,0,0,1-1.14.31,2.26,2.26,0,0,1-1-.23,3,3,0,0,1-.85-.65l.4-.35a2,2,0,0,0,.67.53,1.86,1.86,0,0,0,.81.17,1.32,1.32,0,0,0,1.1-.52,2.3,2.3,0,0,0,.41-1.44,2,2,0,0,0-.37-1.33,1.28,1.28,0,0,0-1-.43,1.64,1.64,0,0,0-.56.09,2,2,0,0,0-.53.27H164V309.6h3.36Z"/><path class="cls-5" d="M172.87,314.48V315H172v1.93h-.6V315H168.5v-.47l2-5,.53.2-1.89,4.8h2.25l.07-2.16H172v2.16Z"/><path class="cls-5" d="M175.16,326.94l-1.68,5.82h-1.63l-1.72-5.82h1.44l1.1,4.72,1.11-4.72Z"/><path class="cls-5" d="M180.3,330.28H177a2.14,2.14,0,0,0,.37,1.24,1.07,1.07,0,0,0,.86.36,1.84,1.84,0,0,0,.66-.12,3.23,3.23,0,0,0,.66-.37l.57.78a2.92,2.92,0,0,1-2,.76,2.3,2.3,0,0,1-1.88-.8,3.44,3.44,0,0,1-.66-2.24,3.71,3.71,0,0,1,.63-2.26,2.29,2.29,0,0,1,3.48-.09,3.37,3.37,0,0,1,.62,2.18C180.33,329.78,180.32,330,180.3,330.28Zm-1-6.3.51.58L178.44,326h-.85l-1.39-1.39.51-.58,1.3,1Zm-.33,5.34a2.29,2.29,0,0,0-.24-1.18.79.79,0,0,0-.73-.39.78.78,0,0,0-.71.38,2.58,2.58,0,0,0-.29,1.26h2Z"/><path class="cls-5" d="M182.79,324.47v8.29h-1.37v-8.15Zm3.18,2.47-1.71,2.57,1.86,3.25h-1.51l-1.76-3.18,1.73-2.64Z"/><path class="cls-5" d="M187.73,310.12h-2.66v2.52a1.93,1.93,0,0,1,1.12-.35,1.69,1.69,0,0,1,1.36.6,2.5,2.5,0,0,1,.5,1.67,2.92,2.92,0,0,1-.26,1.29,2.16,2.16,0,0,1-.75.88,2.1,2.1,0,0,1-1.13.31,2.34,2.34,0,0,1-1-.23,2.8,2.8,0,0,1-.84-.65l.39-.35a2.17,2.17,0,0,0,.68.53,1.86,1.86,0,0,0,.81.17A1.32,1.32,0,0,0,187,316a2.3,2.3,0,0,0,.41-1.44,2,2,0,0,0-.37-1.33,1.28,1.28,0,0,0-1-.43,1.6,1.6,0,0,0-.56.09,2.61,2.61,0,0,0-.54.26h-.47V309.6h3.35Z"/><path class="cls-5" d="M192.59,310.12h-2.67v2.52a1.93,1.93,0,0,1,1.13-.35,1.68,1.68,0,0,1,1.35.6,2.5,2.5,0,0,1,.5,1.67,2.92,2.92,0,0,1-.26,1.29,2,2,0,0,1-1.88,1.19,2.26,2.26,0,0,1-1-.23,2.72,2.72,0,0,1-.85-.65l.39-.35a2.17,2.17,0,0,0,.68.53,1.86,1.86,0,0,0,.81.17,1.32,1.32,0,0,0,1.1-.52,2.3,2.3,0,0,0,.41-1.44,2,2,0,0,0-.37-1.33,1.28,1.28,0,0,0-1-.43,1.6,1.6,0,0,0-.56.09,2.61,2.61,0,0,0-.54.26h-.47V309.6h3.35Z"/><path class="cls-5" d="M193.8,313.24v-.52h4.37v.52Z"/><path class="cls-5" d="M202.84,312.74a2.62,2.62,0,0,1,.49,1.71,3.66,3.66,0,0,1-.24,1.4,2,2,0,0,1-.69.89,1.76,1.76,0,0,1-1,.3,1.72,1.72,0,0,1-1.61-.91,5.18,5.18,0,0,1-.51-2.5,7.64,7.64,0,0,1,.29-2.23,3.2,3.2,0,0,1,.84-1.43,1.84,1.84,0,0,1,1.27-.49,2,2,0,0,1,1.24.43l-.27.42a1.63,1.63,0,0,0-1-.33,1.39,1.39,0,0,0-1.26.87,5.35,5.35,0,0,0-.51,2.35,1.94,1.94,0,0,1,1.68-1.06A1.58,1.58,0,0,1,202.84,312.74Zm-.46,3.24a2.92,2.92,0,0,0,.34-1.5,2.3,2.3,0,0,0-.33-1.38,1.08,1.08,0,0,0-.91-.44,1.38,1.38,0,0,0-.89.33,2.46,2.46,0,0,0-.7.89,4.42,4.42,0,0,0,.38,2,1.19,1.19,0,0,0,1.12.66A1.11,1.11,0,0,0,202.38,316Z"/><path class="cls-5" d="M208.67,314.48V315h-.88v1.93h-.6V315H204.3v-.47l2-5,.53.2-1.89,4.8h2.25l.07-2.16h.53v2.16Z"/><path class="cls-5" d="M224.28,312.74a2.62,2.62,0,0,1,.49,1.71,3.66,3.66,0,0,1-.24,1.4,2,2,0,0,1-.69.89,1.74,1.74,0,0,1-1,.3,1.72,1.72,0,0,1-1.61-.91,5.16,5.16,0,0,1-.5-2.5,7.31,7.31,0,0,1,.29-2.23,3.1,3.1,0,0,1,.83-1.43,1.85,1.85,0,0,1,1.27-.49,2.08,2.08,0,0,1,1.25.43l-.28.42a1.63,1.63,0,0,0-1-.33,1.4,1.4,0,0,0-1.26.87,5.35,5.35,0,0,0-.51,2.35,1.94,1.94,0,0,1,1.69-1.06A1.57,1.57,0,0,1,224.28,312.74Zm-.46,3.24a2.82,2.82,0,0,0,.34-1.5,2.32,2.32,0,0,0-.33-1.38,1.07,1.07,0,0,0-.9-.44,1.41,1.41,0,0,0-.9.33,2.57,2.57,0,0,0-.7.89,4.53,4.53,0,0,0,.38,2,1.19,1.19,0,0,0,1.12.66A1.11,1.11,0,0,0,223.82,316Z"/><path class="cls-5" d="M229.34,310.12h-2.66v2.52a1.9,1.9,0,0,1,1.12-.35,1.67,1.67,0,0,1,1.35.6,2.52,2.52,0,0,1,.51,1.67,2.92,2.92,0,0,1-.27,1.29,2,2,0,0,1-.74.88,2.05,2.05,0,0,1-1.14.31,2.29,2.29,0,0,1-1-.23,3,3,0,0,1-.85-.65l.4-.35a2.14,2.14,0,0,0,.67.53,1.92,1.92,0,0,0,.81.17,1.3,1.3,0,0,0,1.1-.52,2.24,2.24,0,0,0,.41-1.44,2,2,0,0,0-.37-1.33,1.24,1.24,0,0,0-1-.43,1.57,1.57,0,0,0-.56.09,2.26,2.26,0,0,0-.54.27h-.48V309.6h3.36Z"/><path class="cls-5" d="M230.55,313.24v-.52h4.38v.52Z"/><path class="cls-5" d="M239.33,309.6v.49L236.74,317l-.56-.19,2.52-6.69h-3.07v-.53Z"/><path class="cls-5" d="M244.49,314.48V315h-.88v1.93H243V315h-2.89v-.47l2-5,.53.2-1.89,4.8H243l.07-2.16h.53v2.16Z"/><path class="cls-5" d="M373.56,310a1.87,1.87,0,0,1,.49,1.35,3.46,3.46,0,0,1-.27,1.35,6.71,6.71,0,0,1-.85,1.4c-.38.52-1,1.27-1.83,2.26h3.13l-.09.55h-3.73v-.52c.88-1,1.52-1.85,1.92-2.39a6.49,6.49,0,0,0,.85-1.39,3.21,3.21,0,0,0,.24-1.23,1.47,1.47,0,0,0-.33-1,1.16,1.16,0,0,0-.9-.36,1.61,1.61,0,0,0-.8.2,2.42,2.42,0,0,0-.66.63l-.42-.31a2.73,2.73,0,0,1,.85-.79,2.15,2.15,0,0,1,1-.26A1.77,1.77,0,0,1,373.56,310Z"/><path class="cls-5" d="M378.78,310.12h-2.66v2.52a1.9,1.9,0,0,1,1.12-.35,1.66,1.66,0,0,1,1.35.6,2.52,2.52,0,0,1,.51,1.67,3.06,3.06,0,0,1-.26,1.29,2.09,2.09,0,0,1-.75.88A2,2,0,0,1,377,317a2.29,2.29,0,0,1-1-.23,3,3,0,0,1-.85-.65l.4-.35a2.14,2.14,0,0,0,.67.53,1.92,1.92,0,0,0,.81.17,1.3,1.3,0,0,0,1.1-.52,2.24,2.24,0,0,0,.41-1.44,2,2,0,0,0-.37-1.33,1.24,1.24,0,0,0-1-.43,1.6,1.6,0,0,0-.56.09,2.26,2.26,0,0,0-.54.27h-.48V309.6h3.36Z"/><path class="cls-5" d="M380,313.24v-.52h4.38v.52Z"/><path class="cls-5" d="M388.31,310a1.8,1.8,0,0,1,.49,1.31,1.69,1.69,0,0,1-.37,1.15,1.67,1.67,0,0,1-1,.56,1.72,1.72,0,0,1,1.12.53,1.82,1.82,0,0,1,.43,1.3,2.41,2.41,0,0,1-.26,1.13,1.92,1.92,0,0,1-.74.78,2.09,2.09,0,0,1-1.1.28,2.41,2.41,0,0,1-1.07-.23,2.71,2.71,0,0,1-.86-.72l.4-.32a2.11,2.11,0,0,0,.7.58,1.8,1.8,0,0,0,.82.17,1.39,1.39,0,0,0,1.09-.45,1.81,1.81,0,0,0,.39-1.22,1.36,1.36,0,0,0-1.54-1.54h-.43l.07-.49h.33a1.45,1.45,0,0,0,1-.38,1.42,1.42,0,0,0,.42-1.1,1.37,1.37,0,0,0-.35-1,1.23,1.23,0,0,0-.93-.36,1.73,1.73,0,0,0-.76.16,2.32,2.32,0,0,0-.68.51l-.34-.35a2.54,2.54,0,0,1,.84-.62,2.25,2.25,0,0,1,1-.21A1.76,1.76,0,0,1,388.31,310Z"/><path class="cls-5" d="M394.41,314.48V315h-.88v1.93h-.59V315H390v-.47l2-5,.52.2-1.89,4.8h2.26l.06-2.16h.53v2.16Z"/><path class="cls-5" d="M409,310a1.8,1.8,0,0,1,.49,1.31,1.69,1.69,0,0,1-.37,1.15,1.67,1.67,0,0,1-1,.56,1.72,1.72,0,0,1,1.12.53,1.87,1.87,0,0,1,.43,1.3,2.41,2.41,0,0,1-.26,1.13,1.92,1.92,0,0,1-.74.78,2.12,2.12,0,0,1-1.1.28,2.41,2.41,0,0,1-1.07-.23,2.71,2.71,0,0,1-.86-.72l.4-.32a2.24,2.24,0,0,0,.7.58,1.92,1.92,0,0,0,.81.17,1.36,1.36,0,0,0,1.09-.45,1.76,1.76,0,0,0,.4-1.22,1.36,1.36,0,0,0-1.54-1.54h-.43l.07-.49h.33a1.45,1.45,0,0,0,1-.38,1.42,1.42,0,0,0,.42-1.1,1.37,1.37,0,0,0-.35-1,1.23,1.23,0,0,0-.93-.36,1.73,1.73,0,0,0-.76.16,2.16,2.16,0,0,0-.68.51l-.34-.35a2.54,2.54,0,0,1,.84-.62,2.25,2.25,0,0,1,1-.21A1.76,1.76,0,0,1,409,310Z"/><path class="cls-5" d="M414.35,310.12h-2.66v2.52a1.9,1.9,0,0,1,1.12-.35,1.67,1.67,0,0,1,1.35.6,2.51,2.51,0,0,1,.51,1.67,2.92,2.92,0,0,1-.27,1.29,2.06,2.06,0,0,1-.74.88,2.14,2.14,0,0,1-1.14.31,2.29,2.29,0,0,1-1-.23,3,3,0,0,1-.85-.65l.4-.35a2.14,2.14,0,0,0,.67.53,1.89,1.89,0,0,0,.81.17,1.3,1.3,0,0,0,1.1-.52,2.3,2.3,0,0,0,.41-1.44,2,2,0,0,0-.37-1.33,1.24,1.24,0,0,0-1-.43,1.57,1.57,0,0,0-.56.09,2.39,2.39,0,0,0-.54.26h-.48V309.6h3.36Z"/><path class="cls-5" d="M415.56,313.24v-.52h4.38v.52Z"/><path class="cls-5" d="M425.15,314.48V315h-.88v1.93h-.59V315h-2.9v-.47l2-5,.52.2-1.89,4.8h2.26l.06-2.16h.53v2.16Z"/><path class="cls-5" d="M430.3,314.48V315h-.88v1.93h-.59V315h-2.9v-.47l2-5,.52.2-1.89,4.8h2.26l.06-2.16h.53v2.16Z"/><path class="cls-5" d="M446.16,314.48V315h-.88v1.93h-.59V315H441.8v-.47l2-5,.52.2-1.89,4.8h2.26l.06-2.16h.53v2.16Z"/><path class="cls-5" d="M450.54,310.12h-2.66v2.52a1.9,1.9,0,0,1,1.12-.35,1.67,1.67,0,0,1,1.35.6,2.52,2.52,0,0,1,.51,1.67,2.92,2.92,0,0,1-.27,1.29,2,2,0,0,1-.74.88,2.05,2.05,0,0,1-1.14.31,2.26,2.26,0,0,1-1-.23,3,3,0,0,1-.85-.65l.4-.35a2,2,0,0,0,.67.53,1.89,1.89,0,0,0,.81.17,1.3,1.3,0,0,0,1.1-.52,2.3,2.3,0,0,0,.41-1.44,2,2,0,0,0-.37-1.33,1.26,1.26,0,0,0-1-.43,1.57,1.57,0,0,0-.56.09,1.94,1.94,0,0,0-.54.27h-.48V309.6h3.36Z"/><path class="cls-5" d="M451.75,313.24v-.52h4.38v.52Z"/><path class="cls-5" d="M460.57,310.12h-2.66v2.52a1.9,1.9,0,0,1,1.12-.35,1.66,1.66,0,0,1,1.35.6,2.52,2.52,0,0,1,.51,1.67,3.06,3.06,0,0,1-.26,1.29,2.09,2.09,0,0,1-.75.88,2,2,0,0,1-1.13.31,2.31,2.31,0,0,1-1-.23,3,3,0,0,1-.85-.65l.4-.35a2.14,2.14,0,0,0,.67.53,1.94,1.94,0,0,0,.82.17,1.33,1.33,0,0,0,1.1-.52,2.3,2.3,0,0,0,.4-1.44,2,2,0,0,0-.37-1.33,1.24,1.24,0,0,0-1-.43,1.6,1.6,0,0,0-.56.09,2.26,2.26,0,0,0-.54.27h-.47V309.6h3.35Z"/><path class="cls-5" d="M466.19,314.48V315h-.88v1.93h-.59V315h-2.89v-.47l2-5,.52.2-1.89,4.8h2.26l.06-2.16h.53v2.16Z"/><path class="cls-5" d="M481.15,310.12h-2.66v2.52a1.93,1.93,0,0,1,1.12-.35,1.69,1.69,0,0,1,1.36.6,2.56,2.56,0,0,1,.5,1.67,3.06,3.06,0,0,1-.26,1.29,2.16,2.16,0,0,1-.75.88,2.1,2.1,0,0,1-1.13.31,2.31,2.31,0,0,1-1-.23,2.8,2.8,0,0,1-.84-.65l.39-.35a2.26,2.26,0,0,0,.67.53,1.94,1.94,0,0,0,.82.17,1.32,1.32,0,0,0,1.1-.52,2.3,2.3,0,0,0,.4-1.44,2.05,2.05,0,0,0-.36-1.33,1.28,1.28,0,0,0-1-.43,1.6,1.6,0,0,0-.56.09,2.61,2.61,0,0,0-.54.26h-.47V309.6h3.35Z"/><path class="cls-5" d="M486,310.12h-2.66v2.52a1.93,1.93,0,0,1,1.12-.35,1.69,1.69,0,0,1,1.36.6,2.56,2.56,0,0,1,.5,1.67,3.06,3.06,0,0,1-.26,1.29,2.16,2.16,0,0,1-.75.88,2.1,2.1,0,0,1-1.13.31,2.31,2.31,0,0,1-1-.23,2.8,2.8,0,0,1-.84-.65l.39-.35a2.26,2.26,0,0,0,.67.53,1.94,1.94,0,0,0,.82.17,1.32,1.32,0,0,0,1.1-.52,2.3,2.3,0,0,0,.41-1.44,2,2,0,0,0-.37-1.33,1.28,1.28,0,0,0-1-.43,1.6,1.6,0,0,0-.56.09,2.61,2.61,0,0,0-.54.26h-.47V309.6h3.35Z"/><path class="cls-5" d="M487.22,313.24v-.52h4.37v.52Z"/><path class="cls-5" d="M496.26,312.74a2.62,2.62,0,0,1,.49,1.71,3.47,3.47,0,0,1-.25,1.4,2,2,0,0,1-.68.89,1.77,1.77,0,0,1-1,.3,1.71,1.71,0,0,1-1.6-.91,5.18,5.18,0,0,1-.51-2.5,7.64,7.64,0,0,1,.29-2.23,3.28,3.28,0,0,1,.83-1.43,1.88,1.88,0,0,1,1.28-.49,2,2,0,0,1,1.24.43l-.27.42a1.63,1.63,0,0,0-1-.33,1.41,1.41,0,0,0-1.27.87,5.51,5.51,0,0,0-.5,2.35,1.94,1.94,0,0,1,1.68-1.06A1.59,1.59,0,0,1,496.26,312.74Zm-.47,3.24a2.82,2.82,0,0,0,.35-1.5,2.3,2.3,0,0,0-.33-1.38,1.09,1.09,0,0,0-.91-.44,1.38,1.38,0,0,0-.89.33,2.46,2.46,0,0,0-.7.89,4.42,4.42,0,0,0,.38,2,1.18,1.18,0,0,0,1.11.66A1.08,1.08,0,0,0,495.79,316Z"/><path class="cls-5" d="M502.09,314.48V315h-.88v1.93h-.6V315h-2.89v-.47l2-5,.53.2-1.89,4.8h2.25l.07-2.16h.53v2.16Z"/><path class="cls-5" d="M517.77,312.74a2.62,2.62,0,0,1,.5,1.71,3.47,3.47,0,0,1-.25,1.4,1.9,1.9,0,0,1-.69.89,1.74,1.74,0,0,1-1,.3,1.7,1.7,0,0,1-1.6-.91,5.15,5.15,0,0,1-.51-2.5,7.64,7.64,0,0,1,.29-2.23,3.1,3.1,0,0,1,.83-1.43,1.88,1.88,0,0,1,1.28-.49,2.07,2.07,0,0,1,1.24.43l-.28.42a1.6,1.6,0,0,0-1-.33,1.41,1.41,0,0,0-1.27.87,5.35,5.35,0,0,0-.51,2.35,2,2,0,0,1,1.69-1.06A1.57,1.57,0,0,1,517.77,312.74Zm-.46,3.24a2.82,2.82,0,0,0,.34-1.5,2.32,2.32,0,0,0-.33-1.38,1.07,1.07,0,0,0-.9-.44,1.43,1.43,0,0,0-.9.33,2.69,2.69,0,0,0-.7.89,4.68,4.68,0,0,0,.38,2,1.19,1.19,0,0,0,1.12.66A1.11,1.11,0,0,0,517.31,316Z"/><path class="cls-5" d="M522.83,310.12h-2.66v2.52a1.93,1.93,0,0,1,1.12-.35,1.69,1.69,0,0,1,1.36.6,2.58,2.58,0,0,1,.5,1.67,3.06,3.06,0,0,1-.26,1.29,2.09,2.09,0,0,1-.75.88A2,2,0,0,1,521,317a2.31,2.31,0,0,1-1-.23,2.8,2.8,0,0,1-.84-.65l.39-.35a2.14,2.14,0,0,0,.67.53,1.94,1.94,0,0,0,.82.17,1.32,1.32,0,0,0,1.1-.52,2.3,2.3,0,0,0,.4-1.44,2.05,2.05,0,0,0-.36-1.33,1.28,1.28,0,0,0-1-.43,1.6,1.6,0,0,0-.56.09,2.26,2.26,0,0,0-.54.27h-.47V309.6h3.35Z"/><path class="cls-5" d="M524,313.24v-.52h4.38v.52Z"/><path class="cls-5" d="M532.82,309.6v.49L530.24,317l-.57-.19,2.52-6.69h-3.07v-.53Z"/><path class="cls-5" d="M538,314.48V315h-.88v1.93h-.59V315h-2.9v-.47l2-5,.53.2-1.89,4.8h2.26l.06-2.16h.53v2.16Z"/><path class="cls-5" d="M553.32,309.6v.49L550.73,317l-.56-.19,2.52-6.69h-3.07v-.53Z"/><path class="cls-5" d="M557.71,310.12h-2.66v2.52a1.9,1.9,0,0,1,1.12-.35,1.68,1.68,0,0,1,1.35.6,2.51,2.51,0,0,1,.51,1.67,2.92,2.92,0,0,1-.27,1.29,2.06,2.06,0,0,1-.74.88,2.16,2.16,0,0,1-1.14.31,2.26,2.26,0,0,1-1-.23,3,3,0,0,1-.85-.65l.4-.35a2,2,0,0,0,.67.53,1.86,1.86,0,0,0,.81.17A1.32,1.32,0,0,0,557,316a2.3,2.3,0,0,0,.41-1.44,2,2,0,0,0-.37-1.33,1.28,1.28,0,0,0-1-.43,1.64,1.64,0,0,0-.56.09,2.34,2.34,0,0,0-.53.26h-.48V309.6h3.36Z"/><path class="cls-5" d="M558.92,313.24v-.52h4.38v.52Z"/><path class="cls-5" d="M568.18,313.84a2.14,2.14,0,0,1-.24,2.65,2.21,2.21,0,0,1-1.57.55,2.14,2.14,0,0,1-1.56-.55,1.9,1.9,0,0,1-.58-1.45,2.1,2.1,0,0,1,1.45-2.05,2.34,2.34,0,0,1-.89-.69,1.7,1.7,0,0,1-.27-1,1.79,1.79,0,0,1,.26-1,1.65,1.65,0,0,1,.68-.63,2.14,2.14,0,0,1,1.85,0,1.51,1.51,0,0,1,.69.61,1.83,1.83,0,0,1,.26,1,1.68,1.68,0,0,1-.29,1,3,3,0,0,1-.93.76A2.86,2.86,0,0,1,568.18,313.84Zm-.69,2.3a1.41,1.41,0,0,0,.42-1.11,1.5,1.5,0,0,0-.32-1,3.11,3.11,0,0,0-1.13-.68l-.34-.14a2.2,2.2,0,0,0-1,.74,1.91,1.91,0,0,0-.3,1.11,1.4,1.4,0,0,0,.41,1.1,1.81,1.81,0,0,0,2.22,0Zm-2.11-4a2.58,2.58,0,0,0,.94.59l.31.13a2.46,2.46,0,0,0,.78-.69,1.5,1.5,0,0,0,.24-.86,1.37,1.37,0,0,0-.34-1,1.23,1.23,0,0,0-.92-.34,1.25,1.25,0,0,0-.92.34,1.34,1.34,0,0,0-.35,1A1.25,1.25,0,0,0,565.38,312.15Z"/><path class="cls-5" d="M573.87,314.48V315H573v1.93h-.6V315H569.5v-.47l2-5,.53.2-1.89,4.8h2.25l.07-2.16H573v2.16Z"/><path class="cls-5" d="M589.91,313.84a2.11,2.11,0,0,1-.24,2.65,2.2,2.2,0,0,1-1.57.55,2.17,2.17,0,0,1-1.56-.55A1.93,1.93,0,0,1,586,315a2.1,2.1,0,0,1,1.45-2.05,2.26,2.26,0,0,1-.89-.69,1.63,1.63,0,0,1-.28-1,1.87,1.87,0,0,1,.26-1,1.65,1.65,0,0,1,.68-.63,2.05,2.05,0,0,1,.93-.21,2.11,2.11,0,0,1,.93.21,1.54,1.54,0,0,1,.68.61,1.83,1.83,0,0,1,.26,1,1.68,1.68,0,0,1-.29,1,2.85,2.85,0,0,1-.93.76A2.86,2.86,0,0,1,589.91,313.84Zm-.68,2.3a1.44,1.44,0,0,0,.41-1.11,1.55,1.55,0,0,0-.31-1,3.2,3.2,0,0,0-1.13-.68l-.34-.14a2.29,2.29,0,0,0-1,.74,1.91,1.91,0,0,0-.3,1.11,1.43,1.43,0,0,0,.41,1.1,1.53,1.53,0,0,0,1.11.38A1.57,1.57,0,0,0,589.23,316.14Zm-2.12-4a2.63,2.63,0,0,0,.95.59l.3.13a2.46,2.46,0,0,0,.78-.69,1.43,1.43,0,0,0,.25-.86,1.42,1.42,0,0,0-.34-1,1.43,1.43,0,0,0-1.85,0,1.34,1.34,0,0,0-.34,1A1.25,1.25,0,0,0,587.11,312.15Z"/><path class="cls-5" d="M594.83,310.12h-2.66v2.52a1.9,1.9,0,0,1,1.12-.35,1.66,1.66,0,0,1,1.35.6,2.52,2.52,0,0,1,.51,1.67,3.06,3.06,0,0,1-.26,1.29,2.09,2.09,0,0,1-.75.88A2,2,0,0,1,593,317a2.31,2.31,0,0,1-1-.23,3,3,0,0,1-.85-.65l.4-.35a2.14,2.14,0,0,0,.67.53,1.94,1.94,0,0,0,.82.17,1.3,1.3,0,0,0,1.09-.52,2.24,2.24,0,0,0,.41-1.44,2,2,0,0,0-.37-1.33,1.24,1.24,0,0,0-1-.43,1.6,1.6,0,0,0-.56.09,2.26,2.26,0,0,0-.54.27h-.47V309.6h3.35Z"/><path class="cls-5" d="M599.62,316.78a1.06,1.06,0,0,1-.26-.76v-7.2l.62-.07V316c0,.33.14.5.42.5a.77.77,0,0,0,.35-.08l.15.46a1.16,1.16,0,0,1-.6.15A.9.9,0,0,1,599.62,316.78Z"/><path class="cls-5" d="M605.94,314.29h-3.46A2.79,2.79,0,0,0,603,316a1.38,1.38,0,0,0,1.13.53,1.81,1.81,0,0,0,.72-.13,2.77,2.77,0,0,0,.66-.42l.3.39a2.87,2.87,0,0,1-.79.51,2.27,2.27,0,0,1-.91.18,2,2,0,0,1-1.63-.77,3.53,3.53,0,0,1-.59-2.18,3.93,3.93,0,0,1,.56-2.24A1.8,1.8,0,0,1,604,311a1.75,1.75,0,0,1,1.5.73,3.54,3.54,0,0,1,.51,2.06C606,314,606,314.14,605.94,314.29Zm-.58-.66a2.79,2.79,0,0,0-.35-1.53,1.19,1.19,0,0,0-1.06-.54,1.21,1.21,0,0,0-1,.54,3,3,0,0,0-.44,1.71h2.88Z"/><path class="cls-5" d="M610,316.68a1.88,1.88,0,0,1-1.1.36,1.24,1.24,0,0,1-1-.36,1.46,1.46,0,0,1-.34-1v-4h-.87v-.5h.87v-1.38l.62-.08v1.46h1.33l-.08.5H608.2v4c0,.59.24.88.73.88a1.53,1.53,0,0,0,.78-.24Z"/><path class="cls-5" d="M588.94,326.32a.6.6,0,0,0,.33.29l-.15.43a1.12,1.12,0,0,1-.56-.3,1.22,1.22,0,0,1-.26-.64,1.77,1.77,0,0,1-1.6.94,1.54,1.54,0,0,1-1.18-.47,1.76,1.76,0,0,1-.43-1.25,1.68,1.68,0,0,1,.58-1.38,2.51,2.51,0,0,1,1.64-.48h.91v-.61a1.49,1.49,0,0,0-.27-1,1.16,1.16,0,0,0-.88-.31,3.8,3.8,0,0,0-1.43.33l-.18-.46a4.32,4.32,0,0,1,1.67-.39,1.65,1.65,0,0,1,1.29.46,1.83,1.83,0,0,1,.42,1.3v2.94A1.2,1.2,0,0,0,588.94,326.32Zm-.72-.83v-1.57h-.84q-1.65,0-1.65,1.38a1.38,1.38,0,0,0,.29.93,1,1,0,0,0,.78.31A1.53,1.53,0,0,0,588.22,325.49Z"/><path class="cls-5" d="M597.15,321.17l-1.78,5.75h-.75l-1.85-5.75h.66l1.57,5.21,1.51-5.21Z"/><path class="cls-5" d="M599.39,318.35l.28.54-1.95.92-.19-.34Zm-.42,2.82v5.75h-.62v-5.75Z"/><path class="cls-5" d="M603.63,321.18a2,2,0,0,1,.68.45l-.3.39a2.06,2.06,0,0,0-.53-.34,1.75,1.75,0,0,0-.62-.11,1.33,1.33,0,0,0-1.15.62,3.4,3.4,0,0,0-.42,1.88,3.23,3.23,0,0,0,.42,1.84,1.33,1.33,0,0,0,1.15.59,1.75,1.75,0,0,0,.62-.11A2.69,2.69,0,0,0,604,326l.31.38a2.13,2.13,0,0,1-1.5.62,2,2,0,0,1-1.63-.77,3.53,3.53,0,0,1-.59-2.19,3.65,3.65,0,0,1,.6-2.23,1.91,1.91,0,0,1,1.62-.81A2.13,2.13,0,0,1,603.63,321.18Z"/><path class="cls-5" d="M609.35,324.29h-3.46a2.86,2.86,0,0,0,.47,1.69,1.39,1.39,0,0,0,1.13.53,1.81,1.81,0,0,0,.72-.13,2.77,2.77,0,0,0,.66-.42l.31.39a3.07,3.07,0,0,1-.8.51,2.27,2.27,0,0,1-.91.18,2,2,0,0,1-1.63-.77,3.53,3.53,0,0,1-.59-2.18,3.93,3.93,0,0,1,.56-2.24,1.8,1.8,0,0,1,1.55-.81,1.75,1.75,0,0,1,1.5.73,3.54,3.54,0,0,1,.51,2.06A3.46,3.46,0,0,1,609.35,324.29Zm-.58-.66a2.79,2.79,0,0,0-.35-1.53,1.19,1.19,0,0,0-1.06-.54,1.22,1.22,0,0,0-1,.54,3.08,3.08,0,0,0-.44,1.71h2.88Z"/><path class="cls-7" d="M388.7,166.61a2.71,2.71,0,1,1-2.7-2.71,2.7,2.7,0,0,1,2.7,2.71Z"/><path class="cls-7" d="M424.21,158.7a2.71,2.71,0,1,1-2.7-2.7,2.7,2.7,0,0,1,2.7,2.7Z"/><path class="cls-7" d="M459.72,235.94a2.71,2.71,0,1,1-2.7-2.71,2.7,2.7,0,0,1,2.7,2.71Z"/><path class="cls-7" d="M495.23,239a2.71,2.71,0,1,1-2.7-2.7,2.7,2.7,0,0,1,2.7,2.7Z"/><path class="cls-7" d="M530.75,248.83a2.71,2.71,0,1,1-2.71-2.71,2.71,2.71,0,0,1,2.71,2.71Z"/><path class="cls-7" d="M566.26,281.91a2.71,2.71,0,1,1-2.71-2.71,2.71,2.71,0,0,1,2.71,2.71Z"/><path class="cls-8" d="M388.7,118.92a2.71,2.71,0,1,1-2.7-2.7,2.7,2.7,0,0,1,2.7,2.7Z"/><path class="cls-8" d="M424.21,127.43a2.71,2.71,0,1,1-2.7-2.71,2.7,2.7,0,0,1,2.7,2.71Z"/><path class="cls-8" d="M459.72,159.73A2.71,2.71,0,1,1,457,157a2.7,2.7,0,0,1,2.7,2.7Z"/><path class="cls-8" d="M495.23,199.08a2.71,2.71,0,1,1-2.7-2.7,2.7,2.7,0,0,1,2.7,2.7Z"/><path class="cls-8" d="M530.75,234.82a2.71,2.71,0,1,1-2.71-2.7,2.71,2.71,0,0,1,2.71,2.7Z"/><path class="cls-8" d="M566.26,262.15a2.71,2.71,0,1,1-2.71-2.71,2.71,2.71,0,0,1,2.71,2.71Z"/><path class="cls-9" d="M388.7,99.33a2.71,2.71,0,1,1-2.7-2.7,2.7,2.7,0,0,1,2.7,2.7Z"/><path class="cls-9" d="M424.21,113.77a2.71,2.71,0,1,1-2.7-2.71,2.7,2.7,0,0,1,2.7,2.71Z"/><path class="cls-9" d="M459.72,126a2.71,2.71,0,1,1-2.7-2.71,2.7,2.7,0,0,1,2.7,2.71Z"/><path class="cls-9" d="M495.23,165.15a2.71,2.71,0,1,1-2.7-2.71,2.7,2.7,0,0,1,2.7,2.71Z"/><path class="cls-9" d="M530.75,194.7A2.71,2.71,0,1,1,528,192a2.71,2.71,0,0,1,2.71,2.71Z"/><path class="cls-9" d="M566.26,232.59a2.71,2.71,0,1,1-2.71-2.71,2.72,2.72,0,0,1,2.71,2.71Z"/><rect class="cls-10" x="303.73" y="85.62" width="46.76" height="233.06"/><path class="cls-5" d="M260.59,309.6v.49L258,317l-.56-.19,2.52-6.69H256.9v-.53Z"/><path class="cls-5" d="M265,310.12h-2.66v2.52a1.9,1.9,0,0,1,1.12-.35,1.66,1.66,0,0,1,1.35.6,2.51,2.51,0,0,1,.51,1.67,3.06,3.06,0,0,1-.26,1.29,2.16,2.16,0,0,1-.75.88,2.11,2.11,0,0,1-1.14.31,2.29,2.29,0,0,1-1-.23,3,3,0,0,1-.85-.65l.4-.35a2.14,2.14,0,0,0,.67.53,1.92,1.92,0,0,0,.81.17,1.3,1.3,0,0,0,1.1-.52,2.24,2.24,0,0,0,.41-1.44,2,2,0,0,0-.37-1.33,1.24,1.24,0,0,0-1-.43,1.6,1.6,0,0,0-.56.09,2.61,2.61,0,0,0-.54.26h-.47V309.6h3.35Z"/><path class="cls-5" d="M266.19,313.24v-.52h4.38v.52Z"/><path class="cls-5" d="M275.45,313.84a1.85,1.85,0,0,1,.36,1.17,1.89,1.89,0,0,1-.6,1.48,2.21,2.21,0,0,1-1.57.55,2.15,2.15,0,0,1-1.56-.55,1.94,1.94,0,0,1-.58-1.45A2.1,2.1,0,0,1,273,313a2.38,2.38,0,0,1-.9-.69,1.7,1.7,0,0,1-.27-1,1.87,1.87,0,0,1,.26-1,1.65,1.65,0,0,1,.68-.63,2.14,2.14,0,0,1,1.85,0,1.51,1.51,0,0,1,.69.61,1.83,1.83,0,0,1,.26,1,1.68,1.68,0,0,1-.29,1,3,3,0,0,1-.93.76A2.86,2.86,0,0,1,275.45,313.84Zm-.68,2.3a1.44,1.44,0,0,0,.41-1.11,1.5,1.5,0,0,0-.32-1,3,3,0,0,0-1.12-.68l-.34-.14a2.29,2.29,0,0,0-1,.74,1.91,1.91,0,0,0-.3,1.11,1.43,1.43,0,0,0,.41,1.1,1.53,1.53,0,0,0,1.11.38A1.57,1.57,0,0,0,274.77,316.14Zm-2.12-4a2.67,2.67,0,0,0,.94.59l.31.13a2.46,2.46,0,0,0,.78-.69,1.5,1.5,0,0,0,.25-.86,1.38,1.38,0,0,0-.35-1,1.21,1.21,0,0,0-.92-.34,1.25,1.25,0,0,0-.92.34,1.34,1.34,0,0,0-.35,1A1.25,1.25,0,0,0,272.65,312.15Z"/><path class="cls-5" d="M281.14,314.48V315h-.88v1.93h-.59V315h-2.9v-.47l2-5,.53.2-1.89,4.8h2.26l.06-2.16h.53v2.16Z"/><path class="cls-5" d="M296.69,313.84a1.86,1.86,0,0,1,.36,1.18,1.91,1.91,0,0,1-.59,1.47,2.24,2.24,0,0,1-1.58.55,2.13,2.13,0,0,1-1.55-.55,1.9,1.9,0,0,1-.58-1.45A2.1,2.1,0,0,1,294.2,313a2.26,2.26,0,0,1-.89-.69,1.7,1.7,0,0,1-.28-1,1.87,1.87,0,0,1,.26-1,1.67,1.67,0,0,1,.69-.63,2,2,0,0,1,.92-.21,2.11,2.11,0,0,1,.93.21,1.62,1.62,0,0,1,.69.61,1.83,1.83,0,0,1,.25,1,1.61,1.61,0,0,1-.29,1,2.75,2.75,0,0,1-.93.76A2.86,2.86,0,0,1,296.69,313.84Zm-.68,2.3a1.44,1.44,0,0,0,.41-1.11,1.5,1.5,0,0,0-.31-1,3.2,3.2,0,0,0-1.13-.68l-.34-.14a2.2,2.2,0,0,0-1,.74,1.91,1.91,0,0,0-.3,1.11,1.43,1.43,0,0,0,.4,1.1,1.53,1.53,0,0,0,1.11.38A1.57,1.57,0,0,0,296,316.14Zm-2.11-4a2.49,2.49,0,0,0,.94.59l.31.13a2.46,2.46,0,0,0,.78-.69,1.5,1.5,0,0,0,.24-.86,1.37,1.37,0,0,0-.34-1,1.25,1.25,0,0,0-.93-.34,1.22,1.22,0,0,0-.91.34,1.31,1.31,0,0,0-.35,1A1.25,1.25,0,0,0,293.9,312.15Z"/><path class="cls-5" d="M301.61,310.12H299v2.52a1.93,1.93,0,0,1,1.12-.35,1.69,1.69,0,0,1,1.36.6,2.52,2.52,0,0,1,.5,1.67,2.92,2.92,0,0,1-.26,1.29,2.09,2.09,0,0,1-.75.88,2,2,0,0,1-1.13.31,2.34,2.34,0,0,1-1-.23,2.8,2.8,0,0,1-.84-.65l.39-.35a2.17,2.17,0,0,0,.68.53,1.86,1.86,0,0,0,.81.17,1.32,1.32,0,0,0,1.1-.52,2.3,2.3,0,0,0,.41-1.44,2,2,0,0,0-.37-1.33,1.28,1.28,0,0,0-1-.43,1.6,1.6,0,0,0-.56.09,2.26,2.26,0,0,0-.54.27h-.47V309.6h3.35Z"/><path class="cls-5" d="M306.4,316.78a1.06,1.06,0,0,1-.25-.76v-7.2l.61-.07V316c0,.33.14.5.42.5a.72.72,0,0,0,.35-.08l.16.46a1.23,1.23,0,0,1-.61.15A.93.93,0,0,1,306.4,316.78Z"/><path class="cls-5" d="M312.72,314.29h-3.46a2.94,2.94,0,0,0,.47,1.69,1.39,1.39,0,0,0,1.13.53,1.83,1.83,0,0,0,.73-.13,2.94,2.94,0,0,0,.65-.42l.31.39a3.07,3.07,0,0,1-.8.51,2.24,2.24,0,0,1-.91.18,2,2,0,0,1-1.63-.77,3.53,3.53,0,0,1-.59-2.18,3.85,3.85,0,0,1,.57-2.24,1.77,1.77,0,0,1,1.54-.81,1.74,1.74,0,0,1,1.5.73,3.54,3.54,0,0,1,.52,2.06A3.44,3.44,0,0,1,312.72,314.29Zm-.58-.66a2.79,2.79,0,0,0-.35-1.53,1.19,1.19,0,0,0-1.06-.54,1.22,1.22,0,0,0-1,.54,3.17,3.17,0,0,0-.44,1.71h2.88Z"/><path class="cls-5" d="M316.75,316.68a1.86,1.86,0,0,1-1.1.36,1.26,1.26,0,0,1-.95-.36,1.5,1.5,0,0,1-.34-1v-4h-.87v-.5h.87v-1.38l.62-.08v1.46h1.33l-.08.5H315v4c0,.59.24.88.74.88a1.53,1.53,0,0,0,.78-.24Z"/><path class="cls-5" d="M295.72,326.32a.6.6,0,0,0,.33.29l-.14.43a1.08,1.08,0,0,1-.56-.3,1.15,1.15,0,0,1-.27-.64,1.74,1.74,0,0,1-1.59.94,1.56,1.56,0,0,1-1.19-.47,1.76,1.76,0,0,1-.43-1.25,1.68,1.68,0,0,1,.58-1.38,2.52,2.52,0,0,1,1.64-.48H295v-.61a1.49,1.49,0,0,0-.27-1,1.14,1.14,0,0,0-.88-.31,3.8,3.8,0,0,0-1.43.33l-.18-.46a4.32,4.32,0,0,1,1.67-.39,1.65,1.65,0,0,1,1.29.46,1.83,1.83,0,0,1,.42,1.3v2.94A1.2,1.2,0,0,0,295.72,326.32Zm-.72-.83v-1.57h-.83q-1.65,0-1.65,1.38a1.38,1.38,0,0,0,.28.93,1,1,0,0,0,.78.31A1.53,1.53,0,0,0,295,325.49Z"/><path class="cls-5" d="M303.94,321.17l-1.79,5.75h-.74l-1.85-5.75h.66l1.56,5.21,1.52-5.21Z"/><path class="cls-5" d="M306.17,318.35l.28.54-1.94.92-.2-.34Zm-.42,2.82v5.75h-.62v-5.75Z"/><path class="cls-5" d="M310.41,321.18a2,2,0,0,1,.69.45l-.31.39a2.06,2.06,0,0,0-.53-.34,1.71,1.71,0,0,0-.62-.11,1.32,1.32,0,0,0-1.14.62,3.31,3.31,0,0,0-.43,1.88,3.23,3.23,0,0,0,.42,1.84,1.34,1.34,0,0,0,1.15.59,1.71,1.71,0,0,0,.62-.11,2.69,2.69,0,0,0,.56-.35l.31.38a2.11,2.11,0,0,1-1.5.62,1.93,1.93,0,0,1-1.62-.77,3.46,3.46,0,0,1-.6-2.19,3.65,3.65,0,0,1,.6-2.23,1.91,1.91,0,0,1,1.62-.81A2.13,2.13,0,0,1,310.41,321.18Z"/><path class="cls-5" d="M316.14,324.29h-3.47a2.94,2.94,0,0,0,.47,1.69,1.41,1.41,0,0,0,1.14.53,1.81,1.81,0,0,0,.72-.13,2.73,2.73,0,0,0,.65-.42l.31.39a2.91,2.91,0,0,1-.8.51,2.24,2.24,0,0,1-.91.18,1.93,1.93,0,0,1-1.62-.77,3.47,3.47,0,0,1-.6-2.18,3.85,3.85,0,0,1,.57-2.24,1.79,1.79,0,0,1,1.54-.81,1.73,1.73,0,0,1,1.5.73,3.54,3.54,0,0,1,.52,2.06C316.16,324,316.15,324.14,316.14,324.29Zm-.59-.66a2.79,2.79,0,0,0-.35-1.53,1.18,1.18,0,0,0-1.06-.54,1.22,1.22,0,0,0-1,.54,3.17,3.17,0,0,0-.44,1.71h2.88Z"/><path class="cls-5" d="M341.09,309.6v7.32h-.62v-6.63l-1.6,1.11-.29-.44,2-1.36Z"/><path class="cls-5" d="M346.55,312.74a2.62,2.62,0,0,1,.5,1.71,3.47,3.47,0,0,1-.25,1.4,1.9,1.9,0,0,1-.69.89,1.74,1.74,0,0,1-1,.3,1.7,1.7,0,0,1-1.6-.91,5.15,5.15,0,0,1-.51-2.5,7.64,7.64,0,0,1,.29-2.23,3.19,3.19,0,0,1,.83-1.43,1.88,1.88,0,0,1,1.28-.49,2.05,2.05,0,0,1,1.24.43l-.27.42a1.63,1.63,0,0,0-1-.33,1.41,1.41,0,0,0-1.27.87,5.36,5.36,0,0,0-.5,2.35,1.94,1.94,0,0,1,1.68-1.06A1.57,1.57,0,0,1,346.55,312.74Zm-.46,3.24a2.82,2.82,0,0,0,.34-1.5,2.32,2.32,0,0,0-.33-1.38,1.07,1.07,0,0,0-.9-.44,1.38,1.38,0,0,0-.89.33,2.46,2.46,0,0,0-.7.89,4.39,4.39,0,0,0,.38,2,1.17,1.17,0,0,0,1.11.66A1.11,1.11,0,0,0,346.09,316Z"/><path class="cls-5" d="M348,313.24v-.52h4.38v.52Z"/><path class="cls-5" d="M356.27,310a1.87,1.87,0,0,1,.49,1.35,3.46,3.46,0,0,1-.27,1.35,7.07,7.07,0,0,1-.84,1.4c-.39.52-1,1.27-1.84,2.26h3.13l-.09.55h-3.73v-.52c.88-1,1.52-1.85,1.93-2.39a6.81,6.81,0,0,0,.84-1.39,3.22,3.22,0,0,0,.25-1.23,1.52,1.52,0,0,0-.33-1,1.18,1.18,0,0,0-.91-.36,1.57,1.57,0,0,0-.79.2,2.32,2.32,0,0,0-.67.63l-.42-.31a2.73,2.73,0,0,1,.85-.79,2.22,2.22,0,0,1,1.06-.26A1.76,1.76,0,0,1,356.27,310Z"/><path class="cls-5" d="M362.26,314.48V315h-.88v1.93h-.59V315H357.9v-.47l2-5,.53.2-1.9,4.8h2.26l.06-2.16h.53v2.16Z"/><polyline class="cls-11" points="52.51 100.59 88.42 113.3 124.33 125.68 160.16 158.67 196.07 203.77 231.99 228.09 267.9 263.14 303.73 284.79"/><path class="cls-8" d="M306.48,284.79a2.71,2.71,0,1,1-2.71-2.71,2.71,2.71,0,0,1,2.71,2.71Z"/><path class="cls-9" d="M306.48,275.77a2.71,2.71,0,1,1-2.71-2.71,2.71,2.71,0,0,1,2.71,2.71Z"/><polyline class="cls-6" points="350.4 107.42 385.93 166.53 421.45 158.62 456.97 235.86 492.49 238.95 528.02 248.75 563.54 281.83 599.06 290.42"/><path class="cls-7" d="M353.19,107.5a2.71,2.71,0,1,1-2.71-2.71,2.7,2.7,0,0,1,2.71,2.71Z"/><polyline class="cls-11" points="350.4 110.17 385.93 118.93 421.45 127.44 456.97 159.65 492.49 199 528.02 234.83 563.54 262.06 599.06 289.13"/><path class="cls-8" d="M353.19,110.16a2.71,2.71,0,1,1-2.71-2.71,2.71,2.71,0,0,1,2.71,2.71Z"/><line class="cls-12" x1="196.06" y1="304.3" x2="196.06" y2="305.79"/><line class="cls-12" x1="160.17" y1="304.3" x2="160.17" y2="305.79"/><line class="cls-12" x1="88.4" y1="304.3" x2="88.4" y2="305.79"/><line class="cls-12" x1="303.73" y1="304.3" x2="303.73" y2="305.79"/><line class="cls-12" x1="267.84" y1="304.3" x2="267.84" y2="305.79"/><line class="cls-12" x1="231.95" y1="304.3" x2="231.95" y2="305.79"/><line class="cls-12" x1="124.28" y1="304.3" x2="124.28" y2="305.79"/><line class="cls-12" x1="52.51" y1="304.3" x2="52.51" y2="305.79"/><line class="cls-12" x1="529.85" y1="304.3" x2="529.85" y2="305.79"/><line class="cls-12" x1="493.96" y1="304.3" x2="493.96" y2="305.79"/><line class="cls-12" x1="386.29" y1="304.3" x2="386.29" y2="305.79"/><line class="cls-12" x1="422.18" y1="304.3" x2="422.18" y2="305.79"/><line class="cls-12" x1="601.62" y1="304.3" x2="601.62" y2="305.79"/><line class="cls-12" x1="565.73" y1="304.3" x2="565.74" y2="305.79"/><line class="cls-12" x1="458.07" y1="304.3" x2="458.07" y2="305.79"/><line class="cls-12" x1="350.4" y1="304.3" x2="350.4" y2="305.79"/><path class="cls-7" d="M13.65,57.66a3.59,3.59,0,1,0,3.59,3.59,3.59,3.59,0,0,0-3.59-3.59Z"/><path class="cls-7" d="M27.87,59.17v1l-2.82,3.71h2.87L27.78,65H23.44V64l2.82-3.71H23.68v-1.1Z"/><path class="cls-7" d="M33.43,64a.65.65,0,0,0,.34.25l-.3.93a1.72,1.72,0,0,1-.81-.24,1.22,1.22,0,0,1-.48-.6,1.84,1.84,0,0,1-.74.65,2.33,2.33,0,0,1-1,.22,1.88,1.88,0,0,1-1.37-.5,1.72,1.72,0,0,1-.51-1.3,1.66,1.66,0,0,1,.69-1.44,3.25,3.25,0,0,1,2-.5h.73v-.33a1,1,0,0,0-.26-.79,1.25,1.25,0,0,0-.83-.23,5,5,0,0,0-1.54.31l-.33-1A5.87,5.87,0,0,1,31.09,59c1.49,0,2.23.66,2.23,2v2.44A.9.9,0,0,0,33.43,64Zm-1.49-8,.57,1.1-2.49,1-.39-.71Zm0,7.45V62.24h-.58c-.91,0-1.37.34-1.37,1a.92.92,0,0,0,.21.65.78.78,0,0,0,.62.23A1.24,1.24,0,0,0,31.94,63.42Z"/><path class="cls-7" d="M36.44,56.69V65H35V56.84Zm3.49,2.48L38,61.74,40.11,65H38.49l-2-3.18,1.95-2.64Z"/><path class="cls-7" d="M41.23,64.77a1.54,1.54,0,0,1-.38-1.11V56.84l1.41-.15v6.93c0,.27.11.4.33.4a1.26,1.26,0,0,0,.33,0l.29,1a2.25,2.25,0,0,1-.93.2A1.39,1.39,0,0,1,41.23,64.77Z"/><path class="cls-7" d="M48.55,64a.69.69,0,0,0,.34.25l-.3.93a1.72,1.72,0,0,1-.81-.24,1.26,1.26,0,0,1-.47-.6,1.87,1.87,0,0,1-.75.65,2.28,2.28,0,0,1-1,.22,1.9,1.9,0,0,1-1.38-.5,1.72,1.72,0,0,1-.5-1.3,1.68,1.68,0,0,1,.68-1.44,3.28,3.28,0,0,1,2-.5h.72v-.33a1,1,0,0,0-.25-.79,1.27,1.27,0,0,0-.83-.23,5,5,0,0,0-1.54.31l-.34-1A5.88,5.88,0,0,1,46.22,59c1.49,0,2.23.66,2.23,2v2.44A.91.91,0,0,0,48.55,64Zm-1.49-.53V62.24h-.58c-.91,0-1.36.34-1.36,1a.92.92,0,0,0,.21.65.76.76,0,0,0,.61.23A1.23,1.23,0,0,0,47.06,63.42Z"/><path class="cls-7" d="M55.05,56.84V65H53.81l-.1-.74a2.1,2.1,0,0,1-.7.66,1.81,1.81,0,0,1-1,.25,1.88,1.88,0,0,1-1.64-.83,3.89,3.89,0,0,1-.57-2.24,4.14,4.14,0,0,1,.28-1.59,2.58,2.58,0,0,1,.82-1.1A2.06,2.06,0,0,1,52.18,59a2,2,0,0,1,1.46.62V56.69ZM53.1,63.91a1.86,1.86,0,0,0,.54-.57V60.68a1.93,1.93,0,0,0-.51-.46,1.17,1.17,0,0,0-.6-.16,1,1,0,0,0-.89.5,2.92,2.92,0,0,0-.32,1.52,3.1,3.1,0,0,0,.29,1.54.92.92,0,0,0,.83.47A1.21,1.21,0,0,0,53.1,63.91Z"/><path class="cls-7" d="M61.06,59.47a1.87,1.87,0,0,1,.44,1.31V65H60.09V61a1.13,1.13,0,0,0-.18-.73.67.67,0,0,0-.54-.21,1,1,0,0,0-.65.23,2.67,2.67,0,0,0-.57.65v4H56.74V59.17H58l.11.76A2.19,2.19,0,0,1,59.85,59,1.57,1.57,0,0,1,61.06,59.47Z"/><path class="cls-7" d="M64.67,56l.58,1.1-2.49,1-.4-.71Zm-.13,3.2V65H63.13V59.17Z"/><path class="cls-7" d="M72.89,59.7l-.55.83a2.72,2.72,0,0,0-1.46-.48,1.17,1.17,0,0,0-.65.16.51.51,0,0,0-.23.43.52.52,0,0,0,.1.33.83.83,0,0,0,.36.24,4.62,4.62,0,0,0,.76.26,3.32,3.32,0,0,1,1.4.67,1.49,1.49,0,0,1,.46,1.17,1.57,1.57,0,0,1-.71,1.36,3,3,0,0,1-1.74.49,3.87,3.87,0,0,1-1.31-.22,3.26,3.26,0,0,1-1-.61l.71-.79a2.6,2.6,0,0,0,1.58.57,1.32,1.32,0,0,0,.76-.19.59.59,0,0,0,.28-.51.66.66,0,0,0-.11-.4.87.87,0,0,0-.37-.27c-.18-.07-.46-.17-.84-.28A2.77,2.77,0,0,1,69,61.79a1.52,1.52,0,0,1-.42-1.09,1.43,1.43,0,0,1,.28-.87,1.87,1.87,0,0,1,.79-.6A2.87,2.87,0,0,1,70.82,59,3.27,3.27,0,0,1,72.89,59.7Zm-.6-3.51.54.62L71.3,58.18h-.88l-1.53-1.37.54-.62,1.43,1Z"/><path class="cls-7" d="M75.63,56.69V65H74.22V56.84Zm3.49,2.48-1.94,2.57L79.3,65H77.69l-2-3.18,1.94-2.64Z"/><path class="cls-7" d="M84.48,59.83a3.27,3.27,0,0,1,.72,2.25,3.73,3.73,0,0,1-.33,1.61,2.5,2.5,0,0,1-1,1.08,2.65,2.65,0,0,1-1.46.39,2.56,2.56,0,0,1-2-.82,3.27,3.27,0,0,1-.73-2.26,3.7,3.7,0,0,1,.33-1.61,2.56,2.56,0,0,1,1-1.08A2.82,2.82,0,0,1,82.47,59,2.52,2.52,0,0,1,84.48,59.83Zm-3.27,2.25a2.88,2.88,0,0,0,.31,1.52,1.14,1.14,0,0,0,1.88,0,3.75,3.75,0,0,0,0-3,1,1,0,0,0-.93-.49Q81.21,60.07,81.21,62.08Z"/><path class="cls-7" d="M86.85,64.77a1.5,1.5,0,0,1-.38-1.11V56.84l1.4-.15v6.93c0,.27.11.4.33.4a1.26,1.26,0,0,0,.33,0l.3,1a2.25,2.25,0,0,1-.93.2A1.39,1.39,0,0,1,86.85,64.77Z"/><path class="cls-7" d="M94.17,64a.65.65,0,0,0,.34.25l-.3.93a1.72,1.72,0,0,1-.81-.24,1.22,1.22,0,0,1-.48-.6,1.84,1.84,0,0,1-.74.65,2.32,2.32,0,0,1-1,.22,1.88,1.88,0,0,1-1.38-.5,1.72,1.72,0,0,1-.51-1.3A1.66,1.66,0,0,1,90,61.92a3.25,3.25,0,0,1,2-.5h.73v-.33a1,1,0,0,0-.26-.79,1.25,1.25,0,0,0-.83-.23,5.1,5.1,0,0,0-1.54.31l-.33-1A5.87,5.87,0,0,1,91.83,59c1.49,0,2.24.66,2.24,2v2.44A.91.91,0,0,0,94.17,64Zm-1.49-.53V62.24H92.1c-.91,0-1.37.34-1.37,1a.92.92,0,0,0,.21.65.78.78,0,0,0,.62.23A1.24,1.24,0,0,0,92.68,63.42Z"/><path class="cls-7" d="M101,56.22a9.16,9.16,0,0,0-1.18,2.27,9.67,9.67,0,0,0,0,5.3A9.16,9.16,0,0,0,101,66.06l-.9.6c-.47-.66-.85-1.23-1.13-1.7a7,7,0,0,1-.68-1.65,8.55,8.55,0,0,1,0-4.34,7.18,7.18,0,0,1,.68-1.65c.28-.47.66-1,1.13-1.7Z"/><path class="cls-7" d="M103.42,56.47a.82.82,0,0,1,.25.61.81.81,0,0,1-.25.61.88.88,0,0,1-.64.24.85.85,0,0,1-.63-.24.81.81,0,0,1-.25-.61.82.82,0,0,1,.25-.61.86.86,0,0,1,.63-.25A.88.88,0,0,1,103.42,56.47Zm.07,2.7V65h-1.4V59.17Z"/><path class="cls-7" d="M112.26,59.47a1.91,1.91,0,0,1,.43,1.31V65h-1.41V61a1.13,1.13,0,0,0-.18-.73.66.66,0,0,0-.53-.21,1.06,1.06,0,0,0-.66.23,2.66,2.66,0,0,0-.56.65v4h-1.41V59.17h1.22l.11.76A2.17,2.17,0,0,1,111,59,1.59,1.59,0,0,1,112.26,59.47Z"/><path class="cls-7" d="M119.07,62.52h-3.65a1.85,1.85,0,0,0,.44,1.21,1.37,1.37,0,0,0,1,.36,1.92,1.92,0,0,0,.72-.13,3.08,3.08,0,0,0,.73-.39l.58.81a3.33,3.33,0,0,1-2.15.78,2.62,2.62,0,0,1-2.06-.82,3.22,3.22,0,0,1-.72-2.22,4.08,4.08,0,0,1,.31-1.6,2.59,2.59,0,0,1,.89-1.11,2.67,2.67,0,0,1,3.28.37,3.19,3.19,0,0,1,.67,2.16C119.1,62,119.09,62.21,119.07,62.52Zm-1.36-1q0-1.53-1.14-1.53a1,1,0,0,0-.81.38,2.24,2.24,0,0,0-.34,1.21h2.29Z"/><path class="cls-7" d="M125.26,56.84V65H124l-.1-.74a2,2,0,0,1-.7.66,1.81,1.81,0,0,1-1,.25,1.88,1.88,0,0,1-1.64-.83,3.89,3.89,0,0,1-.57-2.24,4.14,4.14,0,0,1,.28-1.59,2.58,2.58,0,0,1,.82-1.1,2.06,2.06,0,0,1,1.24-.39,2,2,0,0,1,1.46.62V56.69Zm-2,7.07a1.66,1.66,0,0,0,.54-.57V60.68a1.66,1.66,0,0,0-.51-.46,1.17,1.17,0,0,0-.6-.16,1,1,0,0,0-.88.5,2.81,2.81,0,0,0-.33,1.52,3.1,3.1,0,0,0,.29,1.54.93.93,0,0,0,.84.47A1.2,1.2,0,0,0,123.31,63.91Z"/><path class="cls-7" d="M131.34,59.83a3.27,3.27,0,0,1,.72,2.25,3.73,3.73,0,0,1-.33,1.61,2.56,2.56,0,0,1-.95,1.08,2.65,2.65,0,0,1-1.46.39,2.56,2.56,0,0,1-2-.82,3.27,3.27,0,0,1-.73-2.26,3.7,3.7,0,0,1,.33-1.61,2.56,2.56,0,0,1,1-1.08,2.82,2.82,0,0,1,1.47-.38A2.52,2.52,0,0,1,131.34,59.83Zm-3.27,2.25a2.88,2.88,0,0,0,.31,1.52,1.14,1.14,0,0,0,1.88,0,3.75,3.75,0,0,0,0-3,1,1,0,0,0-.93-.49Q128.07,60.07,128.07,62.08Z"/><path class="cls-7" d="M134.79,56.69V65h-1.41V56.84Zm3.48,2.48-1.93,2.57L138.46,65h-1.61l-2-3.18,1.95-2.64Z"/><path class="cls-7" d="M143.64,59.83a3.27,3.27,0,0,1,.72,2.25,3.73,3.73,0,0,1-.33,1.61,2.56,2.56,0,0,1-.95,1.08,2.68,2.68,0,0,1-1.46.39,2.56,2.56,0,0,1-2-.82,3.27,3.27,0,0,1-.73-2.26,3.7,3.7,0,0,1,.33-1.61,2.56,2.56,0,0,1,.95-1.08,2.82,2.82,0,0,1,1.47-.38A2.52,2.52,0,0,1,143.64,59.83Zm-3.28,2.25a2.87,2.87,0,0,0,.32,1.52,1.14,1.14,0,0,0,1.88,0,3.86,3.86,0,0,0,0-3,1,1,0,0,0-.93-.49C140.79,60.07,140.36,60.74,140.36,62.08Z"/><path class="cls-7" d="M150,59.47a1.86,1.86,0,0,1,.43,1.31V65H149V61a1.13,1.13,0,0,0-.18-.73.66.66,0,0,0-.53-.21,1.06,1.06,0,0,0-.66.23,2.66,2.66,0,0,0-.56.65v4h-1.41V59.17h1.22l.11.76a2.18,2.18,0,0,1,1.77-.92A1.59,1.59,0,0,1,150,59.47Z"/><path class="cls-7" d="M155.44,59.17a2.87,2.87,0,0,1,.86.52l-.62.85a2,2,0,0,0-.58-.32,1.64,1.64,0,0,0-.6-.1c-.87,0-1.31.66-1.31,2a2.44,2.44,0,0,0,.34,1.46,1.17,1.17,0,0,0,1,.44,1.52,1.52,0,0,0,.57-.1,3.32,3.32,0,0,0,.61-.32l.62.9a2.92,2.92,0,0,1-1.88.67,2.84,2.84,0,0,1-1.45-.37,2.48,2.48,0,0,1-.95-1.05,3.82,3.82,0,0,1-.33-1.61A4,4,0,0,1,152,60.5a2.56,2.56,0,0,1,.95-1.1,2.63,2.63,0,0,1,1.44-.39A3,3,0,0,1,155.44,59.17Zm.4-3,.54.62-1.53,1.37H154l-1.53-1.37.54-.62,1.43,1Z"/><path class="cls-7" d="M162.07,62.52h-3.65a1.85,1.85,0,0,0,.44,1.21,1.35,1.35,0,0,0,1,.36,1.92,1.92,0,0,0,.72-.13,3.08,3.08,0,0,0,.73-.39l.58.81a3.33,3.33,0,0,1-2.15.78,2.62,2.62,0,0,1-2.06-.82,3.22,3.22,0,0,1-.72-2.22,4.08,4.08,0,0,1,.31-1.6,2.59,2.59,0,0,1,.89-1.11,2.67,2.67,0,0,1,3.28.37,3.19,3.19,0,0,1,.67,2.16C162.1,62,162.09,62.21,162.07,62.52Zm-1.37-1c0-1-.37-1.53-1.13-1.53a1,1,0,0,0-.81.38,2.24,2.24,0,0,0-.34,1.21h2.28Z"/><path class="cls-7" d="M167.68,59.47a1.87,1.87,0,0,1,.44,1.31V65h-1.41V61a1.13,1.13,0,0,0-.18-.73.67.67,0,0,0-.54-.21,1,1,0,0,0-.65.23,2.9,2.9,0,0,0-.57.65v4h-1.4V59.17h1.22l.11.76a2.16,2.16,0,0,1,1.77-.92A1.57,1.57,0,0,1,167.68,59.47Z"/><path class="cls-7" d="M174.16,64a.65.65,0,0,0,.34.25l-.3.93a1.72,1.72,0,0,1-.81-.24,1.22,1.22,0,0,1-.48-.6,1.78,1.78,0,0,1-.74.65,2.32,2.32,0,0,1-1,.22,1.9,1.9,0,0,1-1.38-.5,1.72,1.72,0,0,1-.51-1.3,1.66,1.66,0,0,1,.69-1.44,3.28,3.28,0,0,1,2-.5h.72v-.33a1,1,0,0,0-.26-.79,1.25,1.25,0,0,0-.83-.23,5.1,5.1,0,0,0-1.54.31l-.33-1a5.87,5.87,0,0,1,2.11-.42c1.49,0,2.24.66,2.24,2v2.44A.91.91,0,0,0,174.16,64Zm-1.49-8,.57,1.1-2.48,1-.4-.71Zm0,7.45V62.24h-.58c-.91,0-1.36.34-1.36,1a.92.92,0,0,0,.2.65.78.78,0,0,0,.62.23A1.23,1.23,0,0,0,172.67,63.42Z"/><path class="cls-7" d="M177.21,57.31A7.87,7.87,0,0,1,177.9,59a8.94,8.94,0,0,1,0,4.36,7.87,7.87,0,0,1-.69,1.65c-.28.47-.65,1-1.13,1.69l-.89-.6a9.16,9.16,0,0,0,1.18-2.27,9.64,9.64,0,0,0,0-5.29,9.57,9.57,0,0,0-1.18-2.28l.89-.6C176.56,56.28,176.93,56.84,177.21,57.31Z"/><path class="cls-8" d="M202.07,57.66a3.59,3.59,0,1,0,3.59,3.59,3.59,3.59,0,0,0-3.59-3.59Z"/><path class="cls-8" d="M216.41,59.66l-.55.83A2.65,2.65,0,0,0,214.4,60a1.12,1.12,0,0,0-.65.16.48.48,0,0,0-.23.42.52.52,0,0,0,.1.33,1,1,0,0,0,.36.25,7.87,7.87,0,0,0,.76.26,3.21,3.21,0,0,1,1.4.67,1.47,1.47,0,0,1,.46,1.16,1.56,1.56,0,0,1-.7,1.36,3,3,0,0,1-1.75.49,3.58,3.58,0,0,1-1.3-.22,3.2,3.2,0,0,1-1-.6l.7-.8a2.64,2.64,0,0,0,1.59.58,1.39,1.39,0,0,0,.75-.19.59.59,0,0,0,.28-.52.76.76,0,0,0-.1-.4.82.82,0,0,0-.38-.26,7.31,7.31,0,0,0-.84-.28,2.92,2.92,0,0,1-1.31-.68,1.49,1.49,0,0,1-.42-1.08,1.46,1.46,0,0,1,.28-.87,1.86,1.86,0,0,1,.8-.61,2.87,2.87,0,0,1,1.17-.22A3.26,3.26,0,0,1,216.41,59.66Z"/><path class="cls-8" d="M221.08,64.68a2.2,2.2,0,0,1-.69.33,2.87,2.87,0,0,1-.77.11,1.74,1.74,0,0,1-1.31-.49,2,2,0,0,1-.44-1.41V60.15H217v-1h.92V57.85l1.4-.17v1.46h1.36l-.15,1h-1.21v3a1,1,0,0,0,.15.62.56.56,0,0,0,.47.19,1.43,1.43,0,0,0,.69-.21Z"/><path class="cls-8" d="M225.05,56.16l.54.61-1.53,1.38h-.88l-1.53-1.38.54-.61,1.43,1Zm.27,2.9-.24,1.36a2.29,2.29,0,0,0-.51-.06,1,1,0,0,0-.82.37,2.81,2.81,0,0,0-.47,1.12V65h-1.41V59.14h1.22l.13,1.14a2,2,0,0,1,.61-1,1.34,1.34,0,0,1,.91-.34A2.08,2.08,0,0,1,225.32,59.06Z"/><path class="cls-8" d="M231,62.48h-3.66a1.86,1.86,0,0,0,.44,1.21,1.37,1.37,0,0,0,1,.36,2.19,2.19,0,0,0,.73-.12,4,4,0,0,0,.73-.39l.58.8a3.38,3.38,0,0,1-2.16.78,2.61,2.61,0,0,1-2-.81,3.27,3.27,0,0,1-.72-2.23,3.94,3.94,0,0,1,.31-1.6,2.52,2.52,0,0,1,.89-1.11,2.45,2.45,0,0,1,1.39-.4,2.37,2.37,0,0,1,1.89.78,3.21,3.21,0,0,1,.67,2.16Q231,62,231,62.48Zm-1.37-1c0-1-.38-1.53-1.13-1.53a1,1,0,0,0-.81.38,2.33,2.33,0,0,0-.35,1.22h2.29Z"/><path class="cls-8" d="M237.14,56.8V65H235.9l-.1-.74a2.1,2.1,0,0,1-.7.66,1.93,1.93,0,0,1-1,.24,1.86,1.86,0,0,1-1.64-.82,3.83,3.83,0,0,1-.58-2.25,4.21,4.21,0,0,1,.29-1.59,2.47,2.47,0,0,1,.82-1.09,2.06,2.06,0,0,1,2.7.23v-3Zm-1.95,7.07a1.94,1.94,0,0,0,.54-.56V60.64a2.12,2.12,0,0,0-.51-.46,1.16,1.16,0,0,0-.6-.15,1,1,0,0,0-.89.5,2.88,2.88,0,0,0-.32,1.51,3,3,0,0,0,.29,1.55.9.9,0,0,0,.83.46A1.21,1.21,0,0,0,235.19,63.87Z"/><path class="cls-8" d="M243.15,59.44a1.84,1.84,0,0,1,.43,1.3V65h-1.4V61a1.05,1.05,0,0,0-.19-.72.65.65,0,0,0-.53-.21,1,1,0,0,0-.65.22,2.38,2.38,0,0,0-.57.66v4h-1.41V59.14h1.22l.11.76a2.17,2.17,0,0,1,1.77-.93A1.6,1.6,0,0,1,243.15,59.44Z"/><path class="cls-8" d="M246.76,55.94l.58,1.1-2.49,1-.4-.72Zm-.13,3.2V65h-1.41V59.14Z"/><path class="cls-8" d="M255,59.66l-.55.83A2.7,2.7,0,0,0,253,60a1.1,1.1,0,0,0-.65.16.46.46,0,0,0-.23.42.52.52,0,0,0,.1.33.85.85,0,0,0,.35.25c.18.07.43.16.77.26a3.21,3.21,0,0,1,1.4.67,1.47,1.47,0,0,1,.46,1.16,1.57,1.57,0,0,1-.71,1.36,3,3,0,0,1-1.75.49,3.62,3.62,0,0,1-1.3-.22,3.43,3.43,0,0,1-1-.6l.71-.8a2.59,2.59,0,0,0,1.58.58,1.4,1.4,0,0,0,.76-.19.62.62,0,0,0,.28-.52.68.68,0,0,0-.11-.4.78.78,0,0,0-.37-.26,7,7,0,0,0-.85-.28,2.83,2.83,0,0,1-1.3-.68,1.49,1.49,0,0,1-.42-1.08,1.39,1.39,0,0,1,.28-.87,1.89,1.89,0,0,1,.79-.61,2.87,2.87,0,0,1,1.17-.22A3.27,3.27,0,0,1,255,59.66Zm-.6-3.5.53.61-1.52,1.38h-.88L251,56.77l.54-.61,1.43,1Z"/><path class="cls-8" d="M257.72,56.65V65h-1.41V56.8Zm3.49,2.49-1.94,2.56L261.39,65h-1.61l-2-3.18,2-2.64Z"/><path class="cls-8" d="M266.57,59.79a3.3,3.3,0,0,1,.72,2.25,3.7,3.7,0,0,1-.33,1.61,2.53,2.53,0,0,1-.95,1.09,2.76,2.76,0,0,1-1.46.38,2.52,2.52,0,0,1-2-.82,3.27,3.27,0,0,1-.73-2.26,3.73,3.73,0,0,1,.33-1.61,2.48,2.48,0,0,1,.95-1.07,2.74,2.74,0,0,1,1.47-.39A2.52,2.52,0,0,1,266.57,59.79ZM263.3,62a2.85,2.85,0,0,0,.31,1.52,1.15,1.15,0,0,0,1.88,0A2.9,2.9,0,0,0,265.8,62a2.84,2.84,0,0,0-.31-1.51,1,1,0,0,0-.93-.49C263.72,60,263.3,60.71,263.3,62Z"/><path class="cls-8" d="M268.93,64.73a1.54,1.54,0,0,1-.38-1.11V56.8l1.41-.15v6.93c0,.27.11.41.33.41a1,1,0,0,0,.33-.06l.3,1a2.3,2.3,0,0,1-.94.2A1.42,1.42,0,0,1,268.93,64.73Z"/><path class="cls-8" d="M276.26,63.92a.69.69,0,0,0,.34.24l-.3.94a1.84,1.84,0,0,1-.81-.24,1.29,1.29,0,0,1-.48-.61,2,2,0,0,1-.74.66,2.33,2.33,0,0,1-1,.21,1.87,1.87,0,0,1-1.37-.49,1.74,1.74,0,0,1-.51-1.3,1.68,1.68,0,0,1,.69-1.45,3.32,3.32,0,0,1,2-.5h.73v-.33a1,1,0,0,0-.26-.79,1.25,1.25,0,0,0-.83-.22,4.81,4.81,0,0,0-1.54.31l-.33-1a5.87,5.87,0,0,1,2.11-.42c1.49,0,2.24.67,2.24,2v2.45A1,1,0,0,0,276.26,63.92Zm-1.49-.54V62.21h-.58c-.91,0-1.37.33-1.37,1a.94.94,0,0,0,.21.65.81.81,0,0,0,.62.23A1.25,1.25,0,0,0,274.77,63.38Z"/><path class="cls-9" d="M300.6,57.66a3.59,3.59,0,1,0,3.6,3.59,3.59,3.59,0,0,0-3.6-3.59Z"/><path class="cls-9" d="M315.72,59.14,313.83,65h-1.69l-1.92-5.82h1.53L313,63.82l1.28-4.68Z"/><path class="cls-9" d="M319.4,65a3.58,3.58,0,0,1-1.06,1.68,3.43,3.43,0,0,1-2,.69l-.15-1a3.33,3.33,0,0,0,.92-.25,1.41,1.41,0,0,0,.56-.42,2.68,2.68,0,0,0,.38-.7h-.48l-1.85-5.82h1.5L318.52,64l1.32-4.88h1.45Z"/><path class="cls-9" d="M326.06,59.66l-.55.83A2.71,2.71,0,0,0,324,60a1.08,1.08,0,0,0-.64.16.47.47,0,0,0-.24.42.59.59,0,0,0,.1.33,1,1,0,0,0,.36.25c.17.07.43.16.77.26a3.26,3.26,0,0,1,1.4.67,1.5,1.5,0,0,1,.45,1.16,1.56,1.56,0,0,1-.7,1.36,3,3,0,0,1-1.75.49,3.58,3.58,0,0,1-1.3-.22,3.43,3.43,0,0,1-1-.6l.71-.8a2.59,2.59,0,0,0,1.58.58,1.36,1.36,0,0,0,.75-.19.59.59,0,0,0,.28-.52.68.68,0,0,0-.1-.4.82.82,0,0,0-.38-.26,7.31,7.31,0,0,0-.84-.28,2.92,2.92,0,0,1-1.31-.68,1.53,1.53,0,0,1-.41-1.08,1.39,1.39,0,0,1,.28-.87,1.83,1.83,0,0,1,.79-.61A2.87,2.87,0,0,1,324,59,3.31,3.31,0,0,1,326.06,59.66Z"/><path class="cls-9" d="M331.77,59.79a3.3,3.3,0,0,1,.72,2.25,3.7,3.7,0,0,1-.33,1.61,2.51,2.51,0,0,1-.94,1.09,2.77,2.77,0,0,1-1.47.38,2.55,2.55,0,0,1-2-.82A3.31,3.31,0,0,1,327,62a3.59,3.59,0,0,1,.33-1.61,2.36,2.36,0,0,1,.95-1.07,2.69,2.69,0,0,1,1.47-.39A2.52,2.52,0,0,1,331.77,59.79ZM328.5,62a2.85,2.85,0,0,0,.31,1.52,1,1,0,0,0,.94.49,1,1,0,0,0,.94-.49A2.89,2.89,0,0,0,331,62a2.83,2.83,0,0,0-.32-1.51,1,1,0,0,0-.92-.49C328.92,60,328.5,60.71,328.5,62Z"/><path class="cls-9" d="M335.22,56.65V65h-1.41V56.8Zm3.49,2.49-1.94,2.56L338.89,65h-1.61l-2-3.18,1.94-2.64Z"/><path class="cls-9" d="M344.09,63.92a.69.69,0,0,0,.34.24l-.3.94a1.84,1.84,0,0,1-.81-.24,1.29,1.29,0,0,1-.48-.61,1.88,1.88,0,0,1-.74.66,2.31,2.31,0,0,1-1,.21,1.89,1.89,0,0,1-1.38-.49,1.73,1.73,0,0,1-.5-1.3,1.67,1.67,0,0,1,.68-1.45,3.33,3.33,0,0,1,2-.5h.72v-.33a1,1,0,0,0-.26-.79,1.25,1.25,0,0,0-.83-.22,4.81,4.81,0,0,0-1.54.31l-.33-1a5.87,5.87,0,0,1,2.11-.42c1.49,0,2.24.67,2.24,2v2.45A1,1,0,0,0,344.09,63.92Zm-1.49-8,.57,1.1-2.48,1-.4-.72Zm0,7.44V62.21H342c-.91,0-1.37.33-1.37,1a.94.94,0,0,0,.21.65.81.81,0,0,0,.62.23A1.24,1.24,0,0,0,342.6,63.38Z"/><path class="cls-9" d="M352.35,59.66l-.55.83a2.71,2.71,0,0,0-1.47-.47,1.08,1.08,0,0,0-.64.16.47.47,0,0,0-.24.42.59.59,0,0,0,.1.33,1,1,0,0,0,.36.25c.17.07.43.16.77.26a3.26,3.26,0,0,1,1.4.67,1.5,1.5,0,0,1,.45,1.16,1.56,1.56,0,0,1-.7,1.36,3,3,0,0,1-1.75.49,3.58,3.58,0,0,1-1.3-.22,3.43,3.43,0,0,1-1-.6l.7-.8a2.64,2.64,0,0,0,1.59.58,1.39,1.39,0,0,0,.75-.19.59.59,0,0,0,.28-.52.68.68,0,0,0-.1-.4.82.82,0,0,0-.38-.26,7.31,7.31,0,0,0-.84-.28,2.92,2.92,0,0,1-1.31-.68,1.53,1.53,0,0,1-.41-1.08,1.39,1.39,0,0,1,.28-.87,1.83,1.83,0,0,1,.79-.61,2.87,2.87,0,0,1,1.17-.22A3.31,3.31,0,0,1,352.35,59.66Zm-.61-3.5.54.61-1.53,1.38h-.88l-1.53-1.38.54-.61,1.43,1Z"/><path class="cls-9" d="M355.09,56.65V65h-1.41V56.8Zm3.48,2.49-1.93,2.56L358.76,65h-1.62l-2-3.18,1.95-2.64Z"/><path class="cls-9" d="M363.94,59.79a3.3,3.3,0,0,1,.72,2.25,3.7,3.7,0,0,1-.33,1.61,2.53,2.53,0,0,1-.95,1.09,2.76,2.76,0,0,1-1.46.38,2.56,2.56,0,0,1-2-.82,3.31,3.31,0,0,1-.72-2.26,3.73,3.73,0,0,1,.33-1.61,2.48,2.48,0,0,1,.95-1.07,2.69,2.69,0,0,1,1.47-.39A2.52,2.52,0,0,1,363.94,59.79ZM360.66,62a2.84,2.84,0,0,0,.32,1.52,1.15,1.15,0,0,0,1.88,0,2.9,2.9,0,0,0,.31-1.52,2.84,2.84,0,0,0-.31-1.51,1,1,0,0,0-.93-.49C361.09,60,360.66,60.71,360.66,62Z"/><path class="cls-9" d="M366.3,64.73a1.54,1.54,0,0,1-.38-1.11V56.8l1.41-.15v6.93c0,.27.11.41.33.41a1,1,0,0,0,.33-.06l.3,1a2.33,2.33,0,0,1-.94.2A1.39,1.39,0,0,1,366.3,64.73Z"/><path class="cls-9" d="M373.63,63.92a.71.71,0,0,0,.33.24l-.29.94a1.84,1.84,0,0,1-.81-.24,1.29,1.29,0,0,1-.48-.61,2,2,0,0,1-.74.66,2.33,2.33,0,0,1-1,.21,1.85,1.85,0,0,1-1.37-.49,1.74,1.74,0,0,1-.51-1.3,1.68,1.68,0,0,1,.69-1.45,3.32,3.32,0,0,1,2-.5h.73v-.33a1,1,0,0,0-.26-.79,1.25,1.25,0,0,0-.83-.22,4.76,4.76,0,0,0-1.54.31l-.33-1a5.83,5.83,0,0,1,2.11-.42c1.49,0,2.23.67,2.23,2v2.45A1,1,0,0,0,373.63,63.92Zm-1.49-.54V62.21h-.59c-.91,0-1.36.33-1.36,1a.94.94,0,0,0,.21.65.79.79,0,0,0,.61.23A1.26,1.26,0,0,0,372.14,63.38Z"/><path class="cls-7" d="M601.77,290.41a2.71,2.71,0,1,1-2.71-2.7,2.71,2.71,0,0,1,2.71,2.7Z"/><path class="cls-8" d="M601.77,289.21a2.71,2.71,0,1,1-2.71-2.71,2.71,2.71,0,0,1,2.71,2.71Z"/><path class="cls-9" d="M601.77,292.47a2.71,2.71,0,1,1-2.71-2.7,2.71,2.71,0,0,1,2.71,2.7Z"/></svg>