<svg id="Layer_1" data-name="Layer 1" xmlns="http://www.w3.org/2000/svg" viewBox="0 0 620 420.91"><defs><style>.cls-1{fill:#f2f2f2;}.cls-10,.cls-11,.cls-2,.cls-3,.cls-4{fill:none;}.cls-2{stroke:#043565;}.cls-10,.cls-11,.cls-2{stroke-miterlimit:10;}.cls-2,.cls-3{stroke-width:0.5px;}.cls-3{stroke:#d9d9d9;stroke-dasharray:1 3 1 0;}.cls-3,.cls-4{stroke-linecap:round;stroke-linejoin:round;}.cls-4{stroke:#000;stroke-dasharray:0 3 0 0;}.cls-5{fill:#eb4b98;}.cls-6{fill:#24a3bb;}.cls-7{fill:#043565;}.cls-8{isolation:isolate;}.cls-9{fill:#666;}.cls-10{stroke:#eb4b98;}.cls-11{stroke:#24a3bb;}.cls-12{opacity:0;}.cls-13{fill:#5b9bd5;}</style></defs><polyline class="cls-1" points="558.04 128.79 508.48 131.19 458.8 131.79 409.24 129.75 359.68 130.95 310 120.87 260.44 120.87 210.76 122.43 161.2 120.87 111.64 121.47 61.96 122.07 61.96 170.07 111.64 164.31 161.2 166.35 210.76 176.67 260.44 179.43 310 176.67 359.68 170.67 409.24 157.59 458.8 157.95 508.48 158.79 558.04 161.55"/><polyline class="cls-2" points="61.96 122.07 111.64 121.47 161.2 120.87 210.76 122.43 260.44 120.87 310 120.87 359.68 130.95 409.24 129.75 458.8 131.79 508.48 131.19 558.04 128.79"/><line class="cls-3" x1="62.06" y1="335.73" x2="558.04" y2="335.73"/><line class="cls-3" x1="62.06" y1="305.37" x2="558.04" y2="305.37"/><line class="cls-3" x1="62.06" y1="275.01" x2="558.04" y2="275.01"/><line class="cls-3" x1="62.06" y1="244.65" x2="558.04" y2="244.65"/><line class="cls-3" x1="62.06" y1="214.29" x2="558.04" y2="214.29"/><line class="cls-3" x1="62.06" y1="184.05" x2="558.04" y2="184.05"/><line class="cls-3" x1="62.06" y1="153.69" x2="558.04" y2="153.69"/><line class="cls-3" x1="62.06" y1="123.33" x2="558.04" y2="123.33"/><line class="cls-3" x1="62.06" y1="92.97" x2="558.04" y2="92.97"/><line class="cls-3" x1="62.06" y1="365.97" x2="558.04" y2="365.97"/><polyline class="cls-4" points="61.96 142.59 111.64 141.51 161.2 141.03 210.76 140.31 260.44 139.35 310 138.63 359.68 138.03 409.24 136.35 458.8 136.59 508.48 135.27 558.04 135.39"/><path class="cls-5" d="M111.06,178.69v1.12l-3.51,5.29h3.55l-.16,1.19h-5.08v-1.11l3.57-5.34h-3.21v-1.15Z"/><path class="cls-5" d="M116,178.75a3.73,3.73,0,0,1,1.11.71l-.72.82a2.83,2.83,0,0,0-.82-.49,2.54,2.54,0,0,0-.88-.15,1.38,1.38,0,0,0-.85.23.78.78,0,0,0-.33.67.77.77,0,0,0,.13.47,1.15,1.15,0,0,0,.45.35,7.77,7.77,0,0,0,1,.37,4.36,4.36,0,0,1,1.69.87,2,2,0,0,1,.57,1.52,2.15,2.15,0,0,1-.35,1.21,2.26,2.26,0,0,1-1,.83,3.68,3.68,0,0,1-1.54.3,4.05,4.05,0,0,1-1.56-.29,3.53,3.53,0,0,1-1.18-.76l.75-.84a3.29,3.29,0,0,0,.91.57,2.68,2.68,0,0,0,1,.19,1.69,1.69,0,0,0,1-.29,1,1,0,0,0,.38-.84,1,1,0,0,0-.13-.54,1.1,1.1,0,0,0-.45-.39,6.52,6.52,0,0,0-.93-.36,4.43,4.43,0,0,1-1.75-.9,1.88,1.88,0,0,1-.53-1.39,1.9,1.9,0,0,1,.33-1.1,2.14,2.14,0,0,1,.91-.73,3.21,3.21,0,0,1,1.34-.27A4,4,0,0,1,116,178.75Zm.11-2.67.54.62L115.08,178h-.88l-1.53-1.32.54-.62,1.43.92Z"/><path class="cls-6" d="M75.31,127.93a3.46,3.46,0,0,1,1.11.7l-.71.83a2.78,2.78,0,0,0-.82-.5,2.6,2.6,0,0,0-.89-.15,1.47,1.47,0,0,0-.85.23.77.77,0,0,0-.32.67.84.84,0,0,0,.12.47,1.18,1.18,0,0,0,.46.35,7.77,7.77,0,0,0,1,.37,4.36,4.36,0,0,1,1.69.87,2,2,0,0,1,.56,1.52,2.14,2.14,0,0,1-.34,1.21,2.29,2.29,0,0,1-1,.83,3.62,3.62,0,0,1-1.54.3,4.16,4.16,0,0,1-1.55-.28,3.76,3.76,0,0,1-1.19-.77l.75-.83a3.67,3.67,0,0,0,.91.56,2.76,2.76,0,0,0,1,.19,1.59,1.59,0,0,0,1-.29,1,1,0,0,0,.39-.84,1,1,0,0,0-.14-.54,1.11,1.11,0,0,0-.45-.39,6.31,6.31,0,0,0-.92-.36,4.23,4.23,0,0,1-1.75-.9,1.84,1.84,0,0,1-.54-1.38,1.86,1.86,0,0,1,.33-1.1,2.19,2.19,0,0,1,.92-.74,3.17,3.17,0,0,1,1.34-.26A3.68,3.68,0,0,1,75.31,127.93Z"/><path class="cls-6" d="M81.47,127.93a3.46,3.46,0,0,1,1.11.7l-.71.83a2.78,2.78,0,0,0-.82-.5,2.6,2.6,0,0,0-.89-.15,1.47,1.47,0,0,0-.85.23.77.77,0,0,0-.32.67.84.84,0,0,0,.12.47,1.18,1.18,0,0,0,.46.35,7.77,7.77,0,0,0,1,.37,4.36,4.36,0,0,1,1.69.87,2,2,0,0,1,.56,1.52,2.14,2.14,0,0,1-.34,1.21,2.29,2.29,0,0,1-1,.83,3.62,3.62,0,0,1-1.54.3,4.16,4.16,0,0,1-1.55-.28,3.76,3.76,0,0,1-1.19-.77l.75-.83a3.67,3.67,0,0,0,.91.56,2.76,2.76,0,0,0,1,.19,1.59,1.59,0,0,0,1-.29,1,1,0,0,0,.39-.84,1,1,0,0,0-.14-.54,1,1,0,0,0-.45-.39,6.31,6.31,0,0,0-.92-.36,4.23,4.23,0,0,1-1.75-.9,1.84,1.84,0,0,1-.54-1.38,1.86,1.86,0,0,1,.33-1.1,2.19,2.19,0,0,1,.92-.74,3.17,3.17,0,0,1,1.34-.26A3.68,3.68,0,0,1,81.47,127.93Zm.11-2.68.54.62-1.53,1.32h-.88l-1.53-1.32.54-.62,1.43.92Z"/><path class="cls-7" d="M123.12,104.1l-2.26,7.6h-1.73l-2.32-7.6h1.56l1.65,6.31,1.61-6.31Z"/><path class="cls-7" d="M127.55,104.16a3.73,3.73,0,0,1,1.11.71l-.72.82a2.7,2.7,0,0,0-.81-.49,2.42,2.42,0,0,0-.89-.16,1.38,1.38,0,0,0-.85.24.77.77,0,0,0-.33.66.8.8,0,0,0,.13.48,1.2,1.2,0,0,0,.46.35,6.44,6.44,0,0,0,1,.36,4.43,4.43,0,0,1,1.69.88,2,2,0,0,1,.57,1.52,2.15,2.15,0,0,1-.35,1.21,2.33,2.33,0,0,1-1,.83,3.85,3.85,0,0,1-1.54.29,4.05,4.05,0,0,1-1.56-.28,3.53,3.53,0,0,1-1.18-.76L124,110a3.29,3.29,0,0,0,.91.57,2.68,2.68,0,0,0,1,.19,1.63,1.63,0,0,0,1-.3,1,1,0,0,0,.38-.83,1,1,0,0,0-.13-.55,1.16,1.16,0,0,0-.45-.38,5.18,5.18,0,0,0-.93-.36,4.31,4.31,0,0,1-1.74-.9,1.86,1.86,0,0,1-.54-1.39,1.88,1.88,0,0,1,.33-1.1,2.14,2.14,0,0,1,.91-.73,3.21,3.21,0,0,1,1.34-.27A4,4,0,0,1,127.55,104.16Zm.11-2.67.54.62-1.53,1.32h-.88l-1.53-1.32.54-.62,1.43.91Z"/><path d="M101.59,80.05l-1.9,5.82H98l-1.92-5.82h1.52l1.25,4.68,1.27-4.68Z"/><path d="M106.36,80.58l-.55.82a2.79,2.79,0,0,0-1.46-.47,1.1,1.1,0,0,0-.65.16.46.46,0,0,0-.23.42.58.58,0,0,0,.09.33,1,1,0,0,0,.36.25,6.07,6.07,0,0,0,.77.26,3.32,3.32,0,0,1,1.4.67,1.52,1.52,0,0,1,.46,1.16,1.56,1.56,0,0,1-.71,1.36,3,3,0,0,1-1.75.49,3.62,3.62,0,0,1-1.3-.22,3.23,3.23,0,0,1-1-.6l.71-.79a2.58,2.58,0,0,0,1.58.57,1.34,1.34,0,0,0,.75-.19.58.58,0,0,0,.28-.52.68.68,0,0,0-.1-.4.78.78,0,0,0-.37-.26,7,7,0,0,0-.85-.28,2.83,2.83,0,0,1-1.31-.68,1.53,1.53,0,0,1-.41-1.08,1.39,1.39,0,0,1,.28-.87,1.83,1.83,0,0,1,.79-.61,3.05,3.05,0,0,1,1.17-.22A3.24,3.24,0,0,1,106.36,80.58Zm-.61-3.51.54.61-1.53,1.38h-.88l-1.53-1.38.54-.61,1.43,1Z"/><path d="M112.43,83.39h-3.65a1.81,1.81,0,0,0,.44,1.21,1.38,1.38,0,0,0,1,.37,2.14,2.14,0,0,0,.72-.13,4,4,0,0,0,.73-.39l.58.8a3.33,3.33,0,0,1-2.15.78,2.59,2.59,0,0,1-2-.81,3.22,3.22,0,0,1-.72-2.22,4,4,0,0,1,.3-1.6,2.63,2.63,0,0,1,.89-1.12,2.47,2.47,0,0,1,1.39-.4,2.35,2.35,0,0,1,1.89.78,3.19,3.19,0,0,1,.67,2.16Q112.46,82.93,112.43,83.39Zm-1.36-1q0-1.53-1.14-1.53a1,1,0,0,0-.8.38,2.27,2.27,0,0,0-.35,1.22h2.29Z"/><path d="M117.1,80.05a2.68,2.68,0,0,1,.86.52l-.62.84a2.6,2.6,0,0,0-.58-.32,1.89,1.89,0,0,0-.6-.1c-.87,0-1.31.67-1.31,2a2.38,2.38,0,0,0,.34,1.45,1.15,1.15,0,0,0,1,.45,1.75,1.75,0,0,0,.57-.1,4.09,4.09,0,0,0,.61-.32l.62.89a2.87,2.87,0,0,1-1.88.67,2.74,2.74,0,0,1-1.45-.37,2.37,2.37,0,0,1-.95-1,3.63,3.63,0,0,1-.33-1.6,3.87,3.87,0,0,1,.33-1.64,2.56,2.56,0,0,1,.95-1.1,2.63,2.63,0,0,1,1.44-.39A3,3,0,0,1,117.1,80.05Z"/><path d="M123.3,80.36a1.82,1.82,0,0,1,.44,1.29v4.22h-1.41v-4a1.11,1.11,0,0,0-.18-.72.66.66,0,0,0-.53-.21,1,1,0,0,0-.65.22,2.69,2.69,0,0,0-.58.65v4.06H119V77.73l1.4-.15v3.16a2.14,2.14,0,0,1,1.7-.86A1.56,1.56,0,0,1,123.3,80.36Z"/><path d="M129.7,80.35a1.89,1.89,0,0,1,.43,1.3v4.22h-1.41v-4a1.11,1.11,0,0,0-.18-.72.66.66,0,0,0-.53-.21,1.05,1.05,0,0,0-.66.22,2.54,2.54,0,0,0-.56.66v4.05h-1.41V80.05h1.22l.11.76a2.17,2.17,0,0,1,1.77-.93A1.6,1.6,0,0,1,129.7,80.35Z"/><path d="M134.59,85.89a3.67,3.67,0,0,1-1.07,1.68,3.43,3.43,0,0,1-2,.7l-.14-1a3.55,3.55,0,0,0,.92-.25,1.37,1.37,0,0,0,.55-.42,2.81,2.81,0,0,0,.39-.7h-.49l-1.85-5.82h1.5l1.27,4.88L135,80.05h1.46Z"/><path d="M143.42,85.59a2.2,2.2,0,0,1-.69.33A2.52,2.52,0,0,1,142,86a1.74,1.74,0,0,1-1.31-.49,2,2,0,0,1-.44-1.41V81.06h-.92v-1h.92V78.76l1.4-.16v1.45H143l-.15,1h-1.21v3a1,1,0,0,0,.15.61.56.56,0,0,0,.47.19,1.43,1.43,0,0,0,.69-.21Z"/><path d="M147,85.89A3.59,3.59,0,0,1,146,87.57a3.43,3.43,0,0,1-2,.7l-.14-1a3.44,3.44,0,0,0,.92-.25,1.37,1.37,0,0,0,.55-.42,2.81,2.81,0,0,0,.39-.7h-.49l-1.85-5.82h1.5l1.27,4.88,1.32-4.88h1.45Z"/><path d="M154.42,80.69a4.07,4.07,0,0,1,.53,2.25,4.4,4.4,0,0,1-.27,1.6,2.46,2.46,0,0,1-.8,1.1,2,2,0,0,1-1.23.39,1.81,1.81,0,0,1-1.47-.64v2.72l-1.4.16V80.05H151l.07.71a2.35,2.35,0,0,1,.79-.66,2.11,2.11,0,0,1,.92-.22A1.81,1.81,0,0,1,154.42,80.69ZM153.47,83a3.28,3.28,0,0,0-.27-1.54.91.91,0,0,0-.83-.47,1.17,1.17,0,0,0-.66.21,2.12,2.12,0,0,0-.53.58v2.62a1.25,1.25,0,0,0,1.07.6C153.06,85,153.47,84.29,153.47,83Z"/><path d="M159.15,85.89a3.59,3.59,0,0,1-1.07,1.68,3.43,3.43,0,0,1-2,.7l-.14-1a3.44,3.44,0,0,0,.92-.25,1.37,1.37,0,0,0,.55-.42,2.81,2.81,0,0,0,.39-.7h-.49l-1.84-5.82H157l1.27,4.88,1.32-4.88H161Z"/><path d="M169.32,80.05l-1.89,5.82h-1.68l-1.93-5.82h1.53l1.24,4.68,1.28-4.68Z"/><path d="M174,80.05v1l-2.82,3.71H174l-.14,1.1h-4.35v-1l2.83-3.7h-2.59v-1.1Z"/><path d="M180,77.72v8.15h-1.25l-.1-.74a1.93,1.93,0,0,1-.7.66,1.9,1.9,0,0,1-1,.24,1.87,1.87,0,0,1-1.64-.82,3.9,3.9,0,0,1-.57-2.25,4.21,4.21,0,0,1,.29-1.59,2.47,2.47,0,0,1,.82-1.09,2.06,2.06,0,0,1,2.7.23v-3Zm-1.95,7.06a1.94,1.94,0,0,0,.54-.56V81.56a2.18,2.18,0,0,0-.51-.47,1.21,1.21,0,0,0-.6-.15,1,1,0,0,0-.89.5A2.78,2.78,0,0,0,176.3,83a3.14,3.14,0,0,0,.28,1.55.93.93,0,0,0,.84.47A1.22,1.22,0,0,0,178.08,84.78Z"/><path d="M186.46,83.39h-3.65a1.81,1.81,0,0,0,.44,1.21,1.38,1.38,0,0,0,1,.37,2.09,2.09,0,0,0,.72-.13,4,4,0,0,0,.73-.39l.58.8a3.33,3.33,0,0,1-2.15.78,2.59,2.59,0,0,1-2.05-.81,3.22,3.22,0,0,1-.72-2.22,4,4,0,0,1,.3-1.6,2.63,2.63,0,0,1,.89-1.12,2.45,2.45,0,0,1,1.39-.4,2.35,2.35,0,0,1,1.89.78,3.19,3.19,0,0,1,.67,2.16Q186.49,82.93,186.46,83.39Zm-1.07-6.32.54.61-1.53,1.38h-.88L182,77.68l.54-.61L184,78Zm-.29,5.34q0-1.53-1.14-1.53a1,1,0,0,0-.81.38,2.28,2.28,0,0,0-.34,1.22h2.29Z"/><path d="M188.08,85.64a1.53,1.53,0,0,1-.38-1.1V77.72l1.41-.16v6.93c0,.27.11.41.33.41a1,1,0,0,0,.33-.06l.3,1a2.15,2.15,0,0,1-.94.2A1.42,1.42,0,0,1,188.08,85.64Z"/><path d="M195.41,84.83a.72.72,0,0,0,.33.25l-.29.93a1.84,1.84,0,0,1-.81-.24,1.24,1.24,0,0,1-.48-.61,1.94,1.94,0,0,1-.74.66,2.33,2.33,0,0,1-1,.21,1.85,1.85,0,0,1-1.37-.49,1.74,1.74,0,0,1-.51-1.3,1.69,1.69,0,0,1,.69-1.45,3.32,3.32,0,0,1,2-.5h.73V82a1,1,0,0,0-.26-.78,1.25,1.25,0,0,0-.83-.23,4.76,4.76,0,0,0-1.54.31l-.33-1a5.87,5.87,0,0,1,2.11-.42c1.49,0,2.23.67,2.23,2v2.44A1,1,0,0,0,195.41,84.83Zm-1.49-8,.57,1.1-2.49,1-.39-.72Zm0,7.44V83.12h-.58c-.91,0-1.37.33-1.37,1a.94.94,0,0,0,.21.65.81.81,0,0,0,.62.23A1.25,1.25,0,0,0,193.92,84.29Z"/><path d="M201.33,80.35a1.84,1.84,0,0,1,.43,1.3v4.22h-1.41v-4a1.11,1.11,0,0,0-.18-.72.66.66,0,0,0-.53-.21,1.07,1.07,0,0,0-.66.22,2.54,2.54,0,0,0-.56.66v4.05H197V80.05h1.22l.11.76a2.17,2.17,0,0,1,1.77-.93A1.6,1.6,0,0,1,201.33,80.35Z"/><path d="M204.94,76.85l.57,1.1-2.48,1-.4-.72Zm-.13,3.2v5.82H203.4V80.05Z"/><g class="cls-8"><path d="M18,15.54l-2.87,9.68h-2.2l-3-9.68h2l2.1,8,2-8Z"/><path d="M22.45,25.25a4.62,4.62,0,0,1-1.36,2.13,4.3,4.3,0,0,1-2.5.89L18.41,27a4.4,4.4,0,0,0,1.17-.32,1.84,1.84,0,0,0,.71-.53,3.75,3.75,0,0,0,.49-.9h-.62l-2.35-7.41h1.9L21.33,24,23,17.81h1.85Zm-.06-11.51.73,1.4L20,16.4l-.5-.91Z"/><path d="M27.74,14.65V25.22H26V14.84Zm4.43,3.16-2.46,3.27,2.7,4.14h-2l-2.55-4,2.48-3.36Z"/><path d="M37,25.25a4.53,4.53,0,0,1-1.35,2.13,4.29,4.29,0,0,1-2.49.89L33,27a4.4,4.4,0,0,0,1.17-.32,1.84,1.84,0,0,0,.71-.53,3.75,3.75,0,0,0,.49-.9h-.62l-2.35-7.41h1.91L35.88,24l1.68-6.22h1.85Z"/><path d="M46.46,17.81l-2.41,7.41H41.91l-2.45-7.41H41.4l1.58,6,1.63-6Z"/><path d="M51.14,25.25a4.53,4.53,0,0,1-1.35,2.13,4.29,4.29,0,0,1-2.49.89L47.11,27a4.4,4.4,0,0,0,1.17-.32,1.84,1.84,0,0,0,.71-.53,3.75,3.75,0,0,0,.49-.9h-.62l-2.35-7.41h1.91L50,24l1.68-6.22h1.84Z"/><path d="M64.09,17.81l-2.4,7.41H59.55l-2.46-7.41H59l1.58,6,1.63-6Z"/><path d="M74.2,18.2a2.37,2.37,0,0,1,.55,1.66v5.36H73V20.14a1.47,1.47,0,0,0-.23-.93.88.88,0,0,0-.68-.26,1.35,1.35,0,0,0-.84.28,3.68,3.68,0,0,0-.72.84v5.15H68.7V17.81h1.55l.14,1a2.78,2.78,0,0,1,2.26-1.18A2,2,0,0,1,74.2,18.2Z"/><path d="M82.44,23.9a.85.85,0,0,0,.43.31l-.38,1.19a2.32,2.32,0,0,1-1-.31,1.6,1.6,0,0,1-.61-.77,2.36,2.36,0,0,1-.94.84,2.92,2.92,0,0,1-1.27.27,2.39,2.39,0,0,1-1.75-.63,2.2,2.2,0,0,1-.64-1.65,2.13,2.13,0,0,1,.87-1.84,4.18,4.18,0,0,1,2.5-.64h.93v-.42a1.3,1.3,0,0,0-.33-1A1.62,1.62,0,0,0,79.16,19a6.26,6.26,0,0,0-2,.39l-.42-1.22a7.56,7.56,0,0,1,2.69-.53c1.89,0,2.84.85,2.84,2.55v3.11A1.2,1.2,0,0,0,82.44,23.9Zm-1.89-.68v-1.5H79.8c-1.15,0-1.73.43-1.73,1.29a1.2,1.2,0,0,0,.26.82,1,1,0,0,0,.79.3A1.61,1.61,0,0,0,80.55,23.22Z"/><path d="M90.71,14.84V25.22H89.13L89,24.28a2.47,2.47,0,0,1-.89.84,2.59,2.59,0,0,1-3.31-.74,5,5,0,0,1-.73-2.86,5.16,5.16,0,0,1,.37-2,3.16,3.16,0,0,1,1-1.39,2.55,2.55,0,0,1,1.57-.51,2.59,2.59,0,0,1,1.87.8V14.65Zm-2.48,9a2.39,2.39,0,0,0,.69-.72V19.73a2.87,2.87,0,0,0-.65-.59A1.49,1.49,0,0,0,87.5,19a1.27,1.27,0,0,0-1.12.63A3.57,3.57,0,0,0,86,21.51a3.89,3.89,0,0,0,.37,2,1.17,1.17,0,0,0,1.06.59A1.55,1.55,0,0,0,88.23,23.84Z"/><path d="M98.9,22.07H94.25a2.36,2.36,0,0,0,.56,1.54,1.73,1.73,0,0,0,1.26.46,2.51,2.51,0,0,0,.92-.16,4.28,4.28,0,0,0,.93-.5l.74,1a4.23,4.23,0,0,1-2.74,1,3.3,3.3,0,0,1-2.61-1,4.06,4.06,0,0,1-.92-2.82,5.08,5.08,0,0,1,.39-2,3.33,3.33,0,0,1,1.13-1.42,3.07,3.07,0,0,1,1.77-.51,3,3,0,0,1,2.41,1,4.08,4.08,0,0,1,.85,2.75C98.94,21.43,98.93,21.68,98.9,22.07Zm-1.36-8,.69.78-2,1.75H95.16l-2-1.75L93.9,14l1.82,1.23Zm-.38,6.8c0-1.29-.48-1.94-1.44-1.94a1.23,1.23,0,0,0-1,.48,2.89,2.89,0,0,0-.44,1.55h2.91Z"/><path d="M102.33,24.56a4.38,4.38,0,0,1-.32,1.79,2.71,2.71,0,0,1-.89,1.11,7.51,7.51,0,0,1-1.49.8L99.05,27a4.56,4.56,0,0,0,.86-.5,1.66,1.66,0,0,0,.47-.67,3.37,3.37,0,0,0,.16-1.12V17.81h1.79Zm-.09-10.18a1,1,0,0,1,.31.77,1,1,0,0,1-.31.77,1.12,1.12,0,0,1-.82.31,1.09,1.09,0,0,1-.81-.31,1,1,0,0,1-.31-.77,1,1,0,0,1,.31-.77,1.1,1.1,0,0,1,.81-.32A1.12,1.12,0,0,1,102.24,14.38Z"/><path d="M106.19,14.38a1,1,0,0,1,.31.77,1,1,0,0,1-.31.77,1.12,1.12,0,0,1-.82.31,1.09,1.09,0,0,1-.81-.31,1,1,0,0,1-.31-.77,1,1,0,0,1,.31-.77,1.1,1.1,0,0,1,.81-.32A1.12,1.12,0,0,1,106.19,14.38Zm.09,3.43v7.41h-1.8V17.81Z"/><path d="M118.16,14.84V25.22h-1.58l-.13-.94a2.52,2.52,0,0,1-.88.84,2.6,2.6,0,0,1-3.32-.74,5,5,0,0,1-.72-2.86,5.35,5.35,0,0,1,.36-2,3.16,3.16,0,0,1,1-1.39,2.62,2.62,0,0,1,3.44.29V14.65Zm-2.48,9a2.18,2.18,0,0,0,.69-.72V19.73a2.5,2.5,0,0,0-.65-.59A1.45,1.45,0,0,0,115,19a1.28,1.28,0,0,0-1.13.63,3.58,3.58,0,0,0-.41,1.93,4,4,0,0,0,.36,2,1.18,1.18,0,0,0,1.06.59A1.55,1.55,0,0,0,115.68,23.84Z"/><path d="M125.9,18.65a4.18,4.18,0,0,1,.91,2.86,4.75,4.75,0,0,1-.42,2,3.23,3.23,0,0,1-1.2,1.38,3.4,3.4,0,0,1-1.86.49,3.25,3.25,0,0,1-2.56-1,4.19,4.19,0,0,1-.93-2.88,4.72,4.72,0,0,1,.42-2.05,3.29,3.29,0,0,1,1.21-1.37,3.54,3.54,0,0,1,1.87-.49A3.22,3.22,0,0,1,125.9,18.65Zm-4.17,2.86a3.75,3.75,0,0,0,.4,1.94,1.46,1.46,0,0,0,2.4,0,3.74,3.74,0,0,0,.39-1.93,3.74,3.74,0,0,0-.39-1.93,1.33,1.33,0,0,0-1.19-.62C122.27,19,121.73,19.81,121.73,21.51Z"/><path d="M133.2,17.81V19.1l-3.59,4.72h3.66l-.18,1.4h-5.53V23.93l3.59-4.72h-3.29v-1.4ZM132.29,14l.68.78L131,16.55h-1.12l-2-1.75.69-.78,1.82,1.23Z"/><path d="M136.37,14.38a1,1,0,0,1,.31.77,1,1,0,0,1-.31.77,1.1,1.1,0,0,1-.82.31,1.07,1.07,0,0,1-.8-.31,1,1,0,0,1-.32-.77,1,1,0,0,1,.32-.77,1.08,1.08,0,0,1,.8-.32A1.11,1.11,0,0,1,136.37,14.38Zm.09,3.43v7.41h-1.79V17.81Z"/><path d="M142.86,24.87a2.75,2.75,0,0,1-.88.42,3.63,3.63,0,0,1-1,.14,2.21,2.21,0,0,1-1.66-.62,2.56,2.56,0,0,1-.57-1.8V19.1h-1.16V17.81h1.16V16.17l1.79-.21v1.85h1.72l-.18,1.29h-1.54V23a1.33,1.33,0,0,0,.19.79.73.73,0,0,0,.6.24,1.81,1.81,0,0,0,.88-.27Z"/><path d="M145.83,13.74l.72,1.4-3.16,1.26-.5-.91Zm-.17,4.07v7.41h-1.79V17.81Z"/><path d="M156.61,15.59a4.32,4.32,0,0,1,1.28.77L157,17.45a2.83,2.83,0,0,0-1.8-.69,2,2,0,0,0-1.72.87,4.53,4.53,0,0,0-.66,2.73,4.59,4.59,0,0,0,.65,2.7,2,2,0,0,0,1.73.89,2.4,2.4,0,0,0,1-.21,5.4,5.4,0,0,0,.95-.58l.87,1.09a3.87,3.87,0,0,1-1.24.84,4,4,0,0,1-1.68.34,4.18,4.18,0,0,1-2.22-.59,3.81,3.81,0,0,1-1.5-1.73,6.55,6.55,0,0,1-.53-2.75,6.17,6.17,0,0,1,.55-2.72,3.94,3.94,0,0,1,3.68-2.31A4.28,4.28,0,0,1,156.61,15.59Zm.36-3.36.69.78-1.95,1.68h-1.12l-2-1.68.69-.78,1.82,1.16Z"/><path d="M165,22.07h-4.65a2.41,2.41,0,0,0,.56,1.54,1.73,1.73,0,0,0,1.26.46,2.6,2.6,0,0,0,.93-.16,4.23,4.23,0,0,0,.92-.5l.74,1a4.21,4.21,0,0,1-2.74,1,3.3,3.3,0,0,1-2.61-1,4.11,4.11,0,0,1-.92-2.82,5.08,5.08,0,0,1,.39-2A3.28,3.28,0,0,1,160,18.11a3.37,3.37,0,0,1,4.17.48,4.08,4.08,0,0,1,.85,2.75C165.06,21.43,165.05,21.68,165,22.07Zm-1.74-1.25c0-1.29-.48-1.94-1.44-1.94a1.23,1.23,0,0,0-1,.48,3,3,0,0,0-.44,1.55h2.91Z"/><path d="M171,17.81a3.4,3.4,0,0,1,1.1.66l-.8,1.08a3,3,0,0,0-.72-.41,2.39,2.39,0,0,0-.77-.12c-1.11,0-1.67.84-1.67,2.53a3.18,3.18,0,0,0,.43,1.86,1.48,1.48,0,0,0,1.24.56,2.09,2.09,0,0,0,.72-.12,5,5,0,0,0,.77-.41l.8,1.14a3.74,3.74,0,0,1-2.39.85,3.56,3.56,0,0,1-1.85-.47,3.07,3.07,0,0,1-1.2-1.34,4.64,4.64,0,0,1-.42-2,4.86,4.86,0,0,1,.42-2.08,3.23,3.23,0,0,1,1.2-1.4,3.34,3.34,0,0,1,1.83-.5A3.79,3.79,0,0,1,171,17.81Z"/><path d="M178.85,18.21a2.29,2.29,0,0,1,.56,1.65v5.36h-1.79V20.14a1.47,1.47,0,0,0-.23-.93.87.87,0,0,0-.68-.26,1.36,1.36,0,0,0-.83.28,3.49,3.49,0,0,0-.72.82v5.17h-1.8V14.86l1.8-.18v4a2.69,2.69,0,0,1,2.15-1.1A2,2,0,0,1,178.85,18.21Z"/><path d="M187.42,25.22h-1.55l-.1-1a2.69,2.69,0,0,1-1,.94,2.62,2.62,0,0,1-1.31.31,1.92,1.92,0,0,1-1.53-.61,2.47,2.47,0,0,1-.54-1.69V17.81h1.79v5.1a1.36,1.36,0,0,0,.22.89.82.82,0,0,0,.69.27,1.81,1.81,0,0,0,1.5-1.05V17.81h1.79Zm-1.71-11.46a1.6,1.6,0,0,1,.49,1.2,1.62,1.62,0,0,1-.49,1.19,1.94,1.94,0,0,1-2.58,0,1.63,1.63,0,0,1-.5-1.19,1.61,1.61,0,0,1,.5-1.2,2,2,0,0,1,2.58,0Zm-1.79.65a.78.78,0,0,0-.18.55.77.77,0,0,0,.18.54.68.68,0,0,0,.5.18.66.66,0,0,0,.49-.18.73.73,0,0,0,.19-.54.74.74,0,0,0-.19-.55.63.63,0,0,0-.49-.2A.65.65,0,0,0,183.92,14.41Z"/><path d="M199,25.22h-1.56l-.09-1a2.69,2.69,0,0,1-1,.94,2.62,2.62,0,0,1-1.31.31,1.91,1.91,0,0,1-1.53-.61,2.47,2.47,0,0,1-.54-1.69V17.81h1.79v5.1a1.43,1.43,0,0,0,.21.89.86.86,0,0,0,.7.27,1.81,1.81,0,0,0,1.5-1.05V17.81H199Z"/><path d="M203,14.65V25.22h-1.8V14.84Zm4.43,3.16-2.46,3.27,2.7,4.14h-2.06l-2.54-4,2.47-3.36Z"/><path d="M214,23.9a.86.86,0,0,0,.42.31l-.37,1.19a2.28,2.28,0,0,1-1-.31,1.54,1.54,0,0,1-.61-.77,2.39,2.39,0,0,1-.95.84,2.87,2.87,0,0,1-1.26.27,2.39,2.39,0,0,1-1.75-.63,2.21,2.21,0,0,1-.65-1.65,2.11,2.11,0,0,1,.88-1.84,4.14,4.14,0,0,1,2.5-.64h.92v-.42a1.26,1.26,0,0,0-.33-1,1.6,1.6,0,0,0-1.06-.29,6.31,6.31,0,0,0-2,.39l-.42-1.22a7.61,7.61,0,0,1,2.69-.53c1.9,0,2.84.85,2.84,2.55v3.11A1.19,1.19,0,0,0,214,23.9Zm-1.9-.68v-1.5h-.74q-1.74,0-1.74,1.29a1.16,1.16,0,0,0,.27.82,1,1,0,0,0,.78.3A1.6,1.6,0,0,0,212.13,23.22Z"/><path d="M220.88,17.81V19.1l-3.58,4.72H221l-.18,1.4h-5.53V23.93l3.6-4.72h-3.29v-1.4Z"/><path d="M228.13,25.22h-1.55l-.1-1a2.69,2.69,0,0,1-1,.94,2.59,2.59,0,0,1-1.31.31,1.92,1.92,0,0,1-1.53-.61,2.47,2.47,0,0,1-.54-1.69V17.81h1.79v5.1a1.36,1.36,0,0,0,.22.89.82.82,0,0,0,.69.27,1.81,1.81,0,0,0,1.5-1.05V17.81h1.79Z"/><path d="M232.07,24.56a4.38,4.38,0,0,1-.32,1.79,2.8,2.8,0,0,1-.89,1.11,7.34,7.34,0,0,1-1.5.8l-.57-1.3a4.43,4.43,0,0,0,.85-.5,1.57,1.57,0,0,0,.47-.67,3.13,3.13,0,0,0,.16-1.12V17.81h1.8ZM232,14.38a1,1,0,0,1,.32.77,1,1,0,0,1-.32.77,1.21,1.21,0,0,1-1.62,0,1,1,0,0,1-.31-.77,1,1,0,0,1,.31-.77,1.19,1.19,0,0,1,1.62,0Z"/><path d="M236.41,13.74l.72,1.4L234,16.4l-.51-.91Zm-.17,4.07v7.41h-1.79V17.81Z"/><path d="M247.39,18.2a2.33,2.33,0,0,1,.55,1.66v5.36h-1.79V20.14a1.47,1.47,0,0,0-.23-.93.88.88,0,0,0-.68-.26,1.3,1.3,0,0,0-.83.28,3.25,3.25,0,0,0-.72.84v5.15h-1.8V17.81h1.56l.14,1a2.76,2.76,0,0,1,2.25-1.18A2,2,0,0,1,247.39,18.2Z"/><path d="M255.63,23.9a.89.89,0,0,0,.43.31l-.38,1.19a2.32,2.32,0,0,1-1-.31,1.58,1.58,0,0,1-.6-.77,2.46,2.46,0,0,1-1,.84,2.92,2.92,0,0,1-1.27.27,2.41,2.41,0,0,1-1.75-.63,2.2,2.2,0,0,1-.64-1.65,2.13,2.13,0,0,1,.87-1.84,4.18,4.18,0,0,1,2.5-.64h.93v-.42a1.26,1.26,0,0,0-.33-1,1.6,1.6,0,0,0-1.06-.29,6.31,6.31,0,0,0-2,.39L250,18.13a7.61,7.61,0,0,1,2.69-.53c1.89,0,2.84.85,2.84,2.55v3.11A1.3,1.3,0,0,0,255.63,23.9Zm-1.89-.68v-1.5H253q-1.74,0-1.74,1.29a1.16,1.16,0,0,0,.27.82,1,1,0,0,0,.78.3A1.6,1.6,0,0,0,253.74,23.22Z"/><path d="M266,17.81V19.1l-3.59,4.72h3.66l-.18,1.4h-5.54V23.93l3.6-4.72h-3.29v-1.4Z"/><path d="M276.74,18.21a2.46,2.46,0,0,1,.53,1.65v5.36h-1.79V20.14c0-.8-.27-1.19-.81-1.19a1.11,1.11,0,0,0-.75.27,3.17,3.17,0,0,0-.65.85v5.15h-1.8V20.14c0-.8-.27-1.19-.81-1.19a1.12,1.12,0,0,0-.76.27,3.17,3.17,0,0,0-.65.85v5.15h-1.79V17.81H269l.14,1a2.54,2.54,0,0,1,2.14-1.18,1.92,1.92,0,0,1,1.12.33,1.88,1.88,0,0,1,.68.92,3.43,3.43,0,0,1,1-.93,2.41,2.41,0,0,1,1.24-.32A1.83,1.83,0,0,1,276.74,18.21Z"/><path d="M285.39,22.07h-4.65a2.41,2.41,0,0,0,.56,1.54,1.73,1.73,0,0,0,1.26.46,2.6,2.6,0,0,0,.93-.16,4.23,4.23,0,0,0,.92-.5l.74,1a4.21,4.21,0,0,1-2.74,1,3.3,3.3,0,0,1-2.61-1,4.11,4.11,0,0,1-.92-2.82,5.08,5.08,0,0,1,.39-2,3.28,3.28,0,0,1,1.14-1.42,3.37,3.37,0,0,1,4.17.48,4.08,4.08,0,0,1,.85,2.75C285.43,21.43,285.42,21.68,285.39,22.07ZM284,14l.69.78-2,1.75h-1.12l-1.94-1.75.68-.78,1.82,1.23Zm-.38,6.8c0-1.29-.48-1.94-1.44-1.94a1.23,1.23,0,0,0-1,.48,3,3,0,0,0-.44,1.55h2.91Z"/><path d="M292.54,18.2a2.33,2.33,0,0,1,.55,1.66v5.36H291.3V20.14a1.47,1.47,0,0,0-.23-.93.88.88,0,0,0-.68-.26,1.3,1.3,0,0,0-.83.28,3.25,3.25,0,0,0-.72.84v5.15H287V17.81h1.56l.14,1A2.75,2.75,0,0,1,291,17.6,2,2,0,0,1,292.54,18.2Z"/><path d="M298.68,25.25a4.55,4.55,0,0,1-1.36,2.13,4.29,4.29,0,0,1-2.49.89l-.19-1.3a4.4,4.4,0,0,0,1.17-.32,1.84,1.84,0,0,0,.71-.53,3.75,3.75,0,0,0,.49-.9h-.62L294,17.81H296L297.56,24l1.68-6.22h1.85Z"/><path d="M315,18.21a2.46,2.46,0,0,1,.53,1.65v5.36H313.7V20.14c0-.8-.27-1.19-.81-1.19a1.11,1.11,0,0,0-.75.27,3.17,3.17,0,0,0-.65.85v5.15h-1.8V20.14c0-.8-.27-1.19-.81-1.19a1.12,1.12,0,0,0-.76.27,3.17,3.17,0,0,0-.65.85v5.15h-1.79V17.81h1.55l.14,1a2.54,2.54,0,0,1,2.14-1.18,1.92,1.92,0,0,1,1.12.33,1.86,1.86,0,0,1,.67.92,3.6,3.6,0,0,1,1-.93,2.41,2.41,0,0,1,1.24-.32A1.83,1.83,0,0,1,315,18.21Z"/><path d="M323.61,22.07H319a2.41,2.41,0,0,0,.56,1.54,1.73,1.73,0,0,0,1.26.46,2.6,2.6,0,0,0,.93-.16,4.23,4.23,0,0,0,.92-.5l.74,1a4.21,4.21,0,0,1-2.74,1,3.3,3.3,0,0,1-2.61-1,4.11,4.11,0,0,1-.92-2.82,5.08,5.08,0,0,1,.39-2,3.28,3.28,0,0,1,1.14-1.42,3.37,3.37,0,0,1,4.17.48,4.08,4.08,0,0,1,.85,2.75C323.65,21.43,323.64,21.68,323.61,22.07Zm-1.73-1.25c0-1.29-.49-1.94-1.45-1.94a1.23,1.23,0,0,0-1,.48,3,3,0,0,0-.44,1.55h2.92Z"/><path d="M329.5,24.87a2.7,2.7,0,0,1-.87.42,3.64,3.64,0,0,1-1,.14,2.22,2.22,0,0,1-1.66-.62,2.6,2.6,0,0,1-.56-1.8V19.1h-1.17V17.81h1.17V16.17l1.79-.21v1.85h1.72l-.18,1.29h-1.54V23a1.26,1.26,0,0,0,.19.79A.69.69,0,0,0,328,24a1.85,1.85,0,0,0,.89-.27Z"/><path d="M335.85,18.65a4.18,4.18,0,0,1,.92,2.86,4.75,4.75,0,0,1-.42,2,3.23,3.23,0,0,1-1.2,1.38,3.45,3.45,0,0,1-1.87.49,3.26,3.26,0,0,1-2.56-1,4.24,4.24,0,0,1-.92-2.88,4.72,4.72,0,0,1,.42-2.05,3.22,3.22,0,0,1,1.21-1.37,3.54,3.54,0,0,1,1.87-.49A3.2,3.2,0,0,1,335.85,18.65Zm-4.16,2.86a3.65,3.65,0,0,0,.4,1.94,1.45,1.45,0,0,0,2.39,0,3.63,3.63,0,0,0,.4-1.93,3.63,3.63,0,0,0-.4-1.93A1.31,1.31,0,0,0,333.3,19C332.22,19,331.69,19.81,331.69,21.51Z"/><path d="M344.68,14.84V25.22H343.1l-.13-.94a2.47,2.47,0,0,1-.89.84,2.36,2.36,0,0,1-1.22.31,2.39,2.39,0,0,1-2.09-1.05,5,5,0,0,1-.72-2.86,5.35,5.35,0,0,1,.36-2,3.16,3.16,0,0,1,1-1.39,2.62,2.62,0,0,1,3.44.29V14.65Zm-2.48,9a2.28,2.28,0,0,0,.69-.72V19.73a2.67,2.67,0,0,0-.65-.59,1.49,1.49,0,0,0-.77-.19,1.27,1.27,0,0,0-1.12.63,3.57,3.57,0,0,0-.42,1.93,4,4,0,0,0,.37,2,1.18,1.18,0,0,0,1.06.59A1.55,1.55,0,0,0,342.2,23.84Z"/><path d="M348.54,14.38a1,1,0,0,1,.31.77,1,1,0,0,1-.31.77,1.12,1.12,0,0,1-.82.31,1.09,1.09,0,0,1-.81-.31,1,1,0,0,1-.31-.77,1,1,0,0,1,.31-.77,1.1,1.1,0,0,1,.81-.32A1.12,1.12,0,0,1,348.54,14.38Zm.09,3.43v7.41h-1.79V17.81Z"/><path d="M352.58,14.65V25.22h-1.8V14.84ZM357,17.81l-2.46,3.27,2.7,4.14h-2.06l-2.54-4,2.48-3.36Z"/><path d="M361.84,25.25a4.53,4.53,0,0,1-1.35,2.13,4.3,4.3,0,0,1-2.5.89l-.18-1.3a4.4,4.4,0,0,0,1.17-.32,1.84,1.84,0,0,0,.71-.53,3.75,3.75,0,0,0,.49-.9h-.62l-2.35-7.41h1.9L360.72,24l1.68-6.22h1.85Z"/></g><g class="cls-8"><path d="M16.18,45.24h-.87l-3.55-6.81c.06.91.09,1.78.09,2.59v4.22h-.63V37.7h.85l3.57,6.81c-.06-.85-.09-1.59-.09-2.23V37.7h.63Z"/><path d="M22.26,44.61a.75.75,0,0,0,.37.3l-.15.45a1.14,1.14,0,0,1-.61-.3,1.26,1.26,0,0,1-.28-.67,2,2,0,0,1-1.79,1,1.79,1.79,0,0,1-1.3-.47A1.66,1.66,0,0,1,18,43.64a1.62,1.62,0,0,1,.63-1.37,2.79,2.79,0,0,1,1.76-.49H21.5v-.56a1.43,1.43,0,0,0-.3-1,1.41,1.41,0,0,0-1-.31,4.65,4.65,0,0,0-1.56.33l-.16-.48a4.85,4.85,0,0,1,1.81-.39,1.64,1.64,0,0,1,1.88,1.83V44A1.31,1.31,0,0,0,22.26,44.61Zm-.76-.78V42.24h-1a2.3,2.3,0,0,0-1.34.34,1.19,1.19,0,0,0-.46,1,1.24,1.24,0,0,0,.32.91,1.21,1.21,0,0,0,.89.32A1.74,1.74,0,0,0,21.5,43.83Z"/><path d="M28.57,37.14v8.1H28l-.08-.88a1.91,1.91,0,0,1-1.73,1,1.87,1.87,0,0,1-1.58-.8,3.67,3.67,0,0,1-.57-2.17,4.29,4.29,0,0,1,.27-1.58,2.38,2.38,0,0,1,.78-1.06,1.92,1.92,0,0,1,1.2-.39,2,2,0,0,1,1.62.78V37.06Zm-1.33,7.42a2.42,2.42,0,0,0,.69-.8v-3a1.8,1.8,0,0,0-1.51-.87,1.46,1.46,0,0,0-1.24.65,3.11,3.11,0,0,0-.44,1.84,3.31,3.31,0,0,0,.42,1.82,1.31,1.31,0,0,0,1.15.63A1.55,1.55,0,0,0,27.24,44.56Z"/><path d="M35,42.61H31.12a2.68,2.68,0,0,0,.53,1.66,1.58,1.58,0,0,0,1.26.55,2.2,2.2,0,0,0,.8-.14,3.72,3.72,0,0,0,.75-.43l.3.4a3.27,3.27,0,0,1-.88.53,2.66,2.66,0,0,1-1,.18,2.2,2.2,0,0,1-1.79-.78,3.29,3.29,0,0,1-.65-2.17,4.16,4.16,0,0,1,.28-1.6,2.32,2.32,0,0,1,.8-1.07,2,2,0,0,1,1.22-.38,2,2,0,0,1,1.67.74,3.29,3.29,0,0,1,.57,2C35,42.31,35,42.46,35,42.61ZM34.35,42a2.52,2.52,0,0,0-.4-1.52,1.39,1.39,0,0,0-1.19-.54,1.41,1.41,0,0,0-1.16.55,2.86,2.86,0,0,0-.48,1.67h3.23Zm-.25-5.17.29.33L33,38.27h-.4l-1.43-1.16.29-.33,1.34.92Z"/><path d="M37.43,45a3.52,3.52,0,0,1-.16,1.19,1.68,1.68,0,0,1-.49.72,4.35,4.35,0,0,1-.9.53L35.69,47a2.81,2.81,0,0,0,.65-.42,1.24,1.24,0,0,0,.34-.56,3.17,3.17,0,0,0,.12-1V39.48h.63Zm0-8a.49.49,0,0,1,.13.34.44.44,0,0,1-.13.32.49.49,0,0,1-.36.14.46.46,0,0,1-.34-.14.41.41,0,0,1-.13-.32.45.45,0,0,1,.13-.34A.49.49,0,0,1,37.1,37,.53.53,0,0,1,37.46,37.08Z"/><path d="M43.82,42.61H40a2.68,2.68,0,0,0,.54,1.66,1.58,1.58,0,0,0,1.26.55,2.24,2.24,0,0,0,.8-.14,3.72,3.72,0,0,0,.75-.43l.3.4a3.27,3.27,0,0,1-.88.53,2.71,2.71,0,0,1-1,.18A2.2,2.2,0,0,1,40,44.58a3.34,3.34,0,0,1-.65-2.17,4.35,4.35,0,0,1,.28-1.6,2.4,2.4,0,0,1,.81-1.07,2,2,0,0,1,1.21-.38,2,2,0,0,1,1.67.74,3.23,3.23,0,0,1,.58,2A3.48,3.48,0,0,1,43.82,42.61Zm-.6-.66a2.52,2.52,0,0,0-.4-1.52,1.54,1.54,0,0,0-2.35,0A2.86,2.86,0,0,0,40,42.11h3.24Z"/><path d="M52.83,37.14v8.1h-.55l-.07-.88a1.92,1.92,0,0,1-1.73,1,1.86,1.86,0,0,1-1.58-.8,3.6,3.6,0,0,1-.58-2.17,4.29,4.29,0,0,1,.27-1.58,2.38,2.38,0,0,1,.78-1.06,2,2,0,0,1,1.21-.39,2,2,0,0,1,1.61.78V37.06Zm-1.32,7.42a2.3,2.3,0,0,0,.68-.8v-3a1.8,1.8,0,0,0-1.5-.87,1.44,1.44,0,0,0-1.24.65A3.19,3.19,0,0,0,49,42.38a3.31,3.31,0,0,0,.42,1.82,1.33,1.33,0,0,0,1.16.63A1.59,1.59,0,0,0,51.51,44.56Z"/><path d="M58.93,40.15a3.35,3.35,0,0,1,.65,2.19,3.41,3.41,0,0,1-.66,2.21,2.18,2.18,0,0,1-1.79.81,2.15,2.15,0,0,1-1.78-.8,3.39,3.39,0,0,1-.65-2.2,3.92,3.92,0,0,1,.3-1.59,2.4,2.4,0,0,1,.85-1.05,2.29,2.29,0,0,1,1.29-.36A2.17,2.17,0,0,1,58.93,40.15Zm-3.08.38a3,3,0,0,0-.47,1.83,3.13,3.13,0,0,0,.46,1.83,1.5,1.5,0,0,0,1.29.63,1.54,1.54,0,0,0,1.31-.63,3.93,3.93,0,0,0,0-3.67,1.54,1.54,0,0,0-1.31-.62A1.5,1.5,0,0,0,55.85,40.53Z"/><path d="M64.48,39.48V40l-3.21,4.71h3.19l-.07.55H60.52v-.5L63.73,40H60.79v-.55Zm-.56-2.7.29.33-1.42,1.16h-.4L61,37.11l.29-.33,1.34.92Z"/><path d="M66.68,37.08a.45.45,0,0,1,.13.34.41.41,0,0,1-.13.32.47.47,0,0,1-.35.14.46.46,0,0,1-.34-.14.41.41,0,0,1-.13-.32.45.45,0,0,1,.13-.34.49.49,0,0,1,.34-.13A.5.5,0,0,1,66.68,37.08Zm0,2.4v5.76H66V39.48Z"/><path d="M71.61,45a2.1,2.1,0,0,1-1.21.37,1.34,1.34,0,0,1-1-.39A1.57,1.57,0,0,1,69,43.84V40H68v-.52h1V38.11l.64-.08v1.45h1.48L71,40H69.63v3.81a1.16,1.16,0,0,0,.21.75.81.81,0,0,0,.64.25,1.78,1.78,0,0,0,.88-.26Z"/><path d="M73.89,36.63l.28.58L72,38.14l-.21-.37Zm-.51,2.85v5.76h-.64V39.48Z"/><path d="M82.45,37.75a3.34,3.34,0,0,1,.87.52l-.35.44a2.93,2.93,0,0,0-.74-.44,2.2,2.2,0,0,0-.8-.13A2.11,2.11,0,0,0,79.7,39a3.91,3.91,0,0,0-.67,2.5,5,5,0,0,0,.31,1.85,2.45,2.45,0,0,0,.84,1.11,2.21,2.21,0,0,0,1.22.35,2.25,2.25,0,0,0,.91-.16,3.28,3.28,0,0,0,.76-.46l.34.43a2.85,2.85,0,0,1-2,.78,2.8,2.8,0,0,1-1.57-.45,3,3,0,0,1-1.08-1.33,5.18,5.18,0,0,1-.39-2.12,5,5,0,0,1,.41-2.12A3,3,0,0,1,79.84,38a2.78,2.78,0,0,1,1.55-.45A3,3,0,0,1,82.45,37.75Zm.28-2.28.29.34L81.6,36.92h-.4l-1.43-1.11.29-.34,1.34.88Z"/><path d="M87.05,41.86h-1.5v3.38h-.66V37.7h1.82c1.79,0,2.69.68,2.69,2A1.89,1.89,0,0,1,89,41a2.41,2.41,0,0,1-1.26.7l2.07,3.5H89Zm-.25-.54c1.26,0,1.89-.53,1.89-1.57a1.35,1.35,0,0,0-.47-1.14,2.5,2.5,0,0,0-1.53-.37H85.55v3.08Z"/><path d="M98.49,37.14v8.1h-.55l-.07-.88a1.92,1.92,0,0,1-1.73,1,1.86,1.86,0,0,1-1.58-.8A3.6,3.6,0,0,1,94,42.39a4.29,4.29,0,0,1,.27-1.58A2.38,2.38,0,0,1,95,39.75a2,2,0,0,1,1.21-.39,2,2,0,0,1,1.61.78V37.06Zm-1.32,7.42a2.3,2.3,0,0,0,.68-.8v-3a1.8,1.8,0,0,0-1.5-.87,1.44,1.44,0,0,0-1.24.65,3.11,3.11,0,0,0-.44,1.84,3.32,3.32,0,0,0,.41,1.82,1.33,1.33,0,0,0,1.16.63A1.59,1.59,0,0,0,97.17,44.56Z"/><path d="M104.59,40.15a3.35,3.35,0,0,1,.65,2.19,3.41,3.41,0,0,1-.66,2.21,2.38,2.38,0,0,1-3.57,0,3.39,3.39,0,0,1-.65-2.2,3.92,3.92,0,0,1,.3-1.59,2.4,2.4,0,0,1,.85-1.05,2.29,2.29,0,0,1,1.29-.36A2.17,2.17,0,0,1,104.59,40.15Zm-3.08.38a3.05,3.05,0,0,0-.46,1.83,3.13,3.13,0,0,0,.45,1.83,1.51,1.51,0,0,0,1.29.63,1.54,1.54,0,0,0,1.31-.63,3.93,3.93,0,0,0,0-3.67,1.54,1.54,0,0,0-1.31-.62A1.5,1.5,0,0,0,101.51,40.53Z"/><path d="M110.83,39.83a1.86,1.86,0,0,1,.42,1.29v4.12h-.64v-4c0-.89-.36-1.33-1.08-1.33a1.65,1.65,0,0,0-1,.3,3.39,3.39,0,0,0-.81.89v4.17h-.63v-8.1l.63-.08v3.38a2.29,2.29,0,0,1,1.91-1.08A1.49,1.49,0,0,1,110.83,39.83Z"/><path d="M116.33,39.43l-.12.6a2.07,2.07,0,0,0-.5-.06,1.16,1.16,0,0,0-.94.42,3.38,3.38,0,0,0-.6,1.33v3.52h-.64V39.48h.55l0,1.29a2.31,2.31,0,0,1,.64-1.06,1.48,1.48,0,0,1,1-.35A1.85,1.85,0,0,1,116.33,39.43Z"/><path d="M121.07,40.15a3.34,3.34,0,0,1,.64,2.19,3.4,3.4,0,0,1-.65,2.21,2.39,2.39,0,0,1-3.58,0,3.39,3.39,0,0,1-.64-2.2,3.92,3.92,0,0,1,.3-1.59,2.46,2.46,0,0,1,.84-1.05,2.33,2.33,0,0,1,1.3-.36A2.17,2.17,0,0,1,121.07,40.15Zm-3.09.38a3.13,3.13,0,0,0-.46,1.83,3.05,3.05,0,0,0,.46,1.83,1.49,1.49,0,0,0,1.29.63,1.55,1.55,0,0,0,1.31-.63,3.93,3.93,0,0,0,0-3.67,1.54,1.54,0,0,0-1.31-.62A1.52,1.52,0,0,0,118,40.53Z"/><path d="M130.29,39.83a1.93,1.93,0,0,1,.4,1.29v4.12h-.64v-4a1.63,1.63,0,0,0-.26-1,.88.88,0,0,0-.72-.32,1.35,1.35,0,0,0-.87.31,3.57,3.57,0,0,0-.74.88v4.17h-.64v-4a1.63,1.63,0,0,0-.26-1,.88.88,0,0,0-.72-.32,1.33,1.33,0,0,0-.88.31,3.36,3.36,0,0,0-.74.88v4.17h-.64V39.48h.55l.06,1a2.75,2.75,0,0,1,.78-.81,1.82,1.82,0,0,1,1-.29,1.41,1.41,0,0,1,.92.3,1.57,1.57,0,0,1,.51.85,2.85,2.85,0,0,1,.8-.85,1.78,1.78,0,0,1,1-.3A1.38,1.38,0,0,1,130.29,39.83Z"/><path d="M136.66,44.61a.71.71,0,0,0,.37.3l-.15.45a1.14,1.14,0,0,1-.61-.3,1.26,1.26,0,0,1-.28-.67,2,2,0,0,1-1.79,1,1.81,1.81,0,0,1-1.31-.47,1.7,1.7,0,0,1-.47-1.25,1.62,1.62,0,0,1,.63-1.37,2.78,2.78,0,0,1,1.75-.49h1.1v-.56a1.43,1.43,0,0,0-.3-1,1.41,1.41,0,0,0-1-.31,4.65,4.65,0,0,0-1.56.33l-.16-.48a4.85,4.85,0,0,1,1.81-.39,1.64,1.64,0,0,1,1.88,1.83V44A1.31,1.31,0,0,0,136.66,44.61Zm-.76-.78V42.24h-1a2.3,2.3,0,0,0-1.34.34,1.41,1.41,0,0,0-.14,1.94,1.21,1.21,0,0,0,.89.32A1.74,1.74,0,0,0,135.9,43.83Z"/><path d="M143,37.14v8.1h-.54l-.08-.88a1.91,1.91,0,0,1-1.73,1,1.86,1.86,0,0,1-1.58-.8,3.67,3.67,0,0,1-.57-2.17,4.51,4.51,0,0,1,.26-1.58,2.39,2.39,0,0,1,.79-1.06,1.92,1.92,0,0,1,1.2-.39,2,2,0,0,1,1.62.78V37.06Zm-1.32,7.42a2.42,2.42,0,0,0,.69-.8v-3a1.81,1.81,0,0,0-1.51-.87,1.46,1.46,0,0,0-1.24.65,3.11,3.11,0,0,0-.44,1.84,3.31,3.31,0,0,0,.42,1.82,1.3,1.3,0,0,0,1.15.63A1.55,1.55,0,0,0,141.64,44.56Z"/><path d="M147.13,45.26a5.19,5.19,0,0,1-.5,1.1,2.32,2.32,0,0,1-.72.71,3.38,3.38,0,0,1-1.13.41l-.07-.5a2.86,2.86,0,0,0,.9-.35,1.61,1.61,0,0,0,.52-.52,4.58,4.58,0,0,0,.39-.87h-.22l-2-5.76H145l1.74,5.28,1.7-5.28h.67Z"/><path d="M157.46,40.14a3.88,3.88,0,0,1,.52,2.19,3.81,3.81,0,0,1-.57,2.21,1.85,1.85,0,0,1-1.62.82,1.91,1.91,0,0,1-.93-.22,2,2,0,0,1-.71-.58V47.4l-.64.09v-8h.55l.06.84a2.36,2.36,0,0,1,.77-.71,2.15,2.15,0,0,1,1-.25A1.76,1.76,0,0,1,157.46,40.14Zm-.58,4a3.37,3.37,0,0,0,.42-1.86c0-1.63-.51-2.44-1.53-2.44a1.59,1.59,0,0,0-.9.26,3.33,3.33,0,0,0-.72.73v3.06a1.76,1.76,0,0,0,1.52.88A1.36,1.36,0,0,0,156.88,44.19Z"/><path d="M162.71,39.43l-.12.6a2.1,2.1,0,0,0-.51-.06,1.17,1.17,0,0,0-.94.42,3.38,3.38,0,0,0-.6,1.33v3.52h-.63V39.48h.55l0,1.29a2.3,2.3,0,0,1,.63-1.06,1.49,1.49,0,0,1,1-.35A1.85,1.85,0,0,1,162.71,39.43Z"/><path d="M167.45,40.15a4,4,0,0,1,0,4.4,2.38,2.38,0,0,1-3.57,0,3.39,3.39,0,0,1-.64-2.2,3.92,3.92,0,0,1,.29-1.59,2.4,2.4,0,0,1,.85-1.05,2.33,2.33,0,0,1,1.3-.36A2.18,2.18,0,0,1,167.45,40.15Zm-3.09.38a3.05,3.05,0,0,0-.46,1.83,3.13,3.13,0,0,0,.45,1.83,1.66,1.66,0,0,0,2.6,0,3.08,3.08,0,0,0,.47-1.85,3,3,0,0,0-.46-1.82,1.66,1.66,0,0,0-2.6,0Z"/><path d="M176.8,40.15a4,4,0,0,1,0,4.4,2.38,2.38,0,0,1-3.57,0,3.39,3.39,0,0,1-.64-2.2,3.92,3.92,0,0,1,.29-1.59,2.4,2.4,0,0,1,.85-1.05,2.33,2.33,0,0,1,1.3-.36A2.18,2.18,0,0,1,176.8,40.15Zm-3.09.38a3.05,3.05,0,0,0-.46,1.83,3.13,3.13,0,0,0,.45,1.83,1.66,1.66,0,0,0,2.6,0,3.08,3.08,0,0,0,.47-1.85,3,3,0,0,0-.46-1.82,1.66,1.66,0,0,0-2.6,0Z"/><path d="M183.22,40.13a3.72,3.72,0,0,1,.55,2.2,3.79,3.79,0,0,1-.57,2.21,1.89,1.89,0,0,1-1.61.82,2,2,0,0,1-1-.23,2.19,2.19,0,0,1-.7-.62l-.07.73h-.56v-8.1l.64-.08v3.23a2.05,2.05,0,0,1,1.72-.93A1.79,1.79,0,0,1,183.22,40.13Zm-.55,4.07a3.43,3.43,0,0,0,.42-1.87c0-1.63-.51-2.44-1.55-2.44a1.55,1.55,0,0,0-.89.26,2.73,2.73,0,0,0-.7.73v3a2,2,0,0,0,.66.68,1.49,1.49,0,0,0,.85.25A1.36,1.36,0,0,0,182.67,44.2Z"/><path d="M189.76,42.61h-3.84a2.68,2.68,0,0,0,.53,1.66,1.58,1.58,0,0,0,1.26.55,2.2,2.2,0,0,0,.8-.14,3.72,3.72,0,0,0,.75-.43l.3.4a3.27,3.27,0,0,1-.88.53,2.66,2.66,0,0,1-1,.18,2.2,2.2,0,0,1-1.79-.78,3.29,3.29,0,0,1-.65-2.17,4.16,4.16,0,0,1,.28-1.6,2.39,2.39,0,0,1,.8-1.07,2,2,0,0,1,1.22-.38,2,2,0,0,1,1.67.74,3.29,3.29,0,0,1,.57,2C189.78,42.31,189.77,42.46,189.76,42.61Zm-.61-.66a2.52,2.52,0,0,0-.4-1.52,1.39,1.39,0,0,0-1.19-.54,1.41,1.41,0,0,0-1.16.55,2.86,2.86,0,0,0-.48,1.67h3.23Zm-.25-5.17.29.33-1.42,1.16h-.4l-1.43-1.16.29-.33,1.34.92Z"/><path d="M198.61,40.14a3.88,3.88,0,0,1,.52,2.19,3.81,3.81,0,0,1-.57,2.21,1.85,1.85,0,0,1-1.62.82,1.93,1.93,0,0,1-.93-.22,2,2,0,0,1-.71-.58V47.4l-.64.09v-8h.55l.06.84a2.3,2.3,0,0,1,.78-.71,2.08,2.08,0,0,1,1-.25A1.76,1.76,0,0,1,198.61,40.14Zm-.58,4a3.37,3.37,0,0,0,.42-1.86c0-1.63-.51-2.44-1.53-2.44a1.59,1.59,0,0,0-.9.26,3.33,3.33,0,0,0-.72.73v3.06a1.76,1.76,0,0,0,1.52.88A1.36,1.36,0,0,0,198,44.19Z"/><path d="M204.82,40.15a3.35,3.35,0,0,1,.65,2.19,3.41,3.41,0,0,1-.66,2.21,2.38,2.38,0,0,1-3.57,0,3.39,3.39,0,0,1-.65-2.2,3.92,3.92,0,0,1,.3-1.59,2.4,2.4,0,0,1,.85-1.05,2.3,2.3,0,0,1,1.3-.36A2.16,2.16,0,0,1,204.82,40.15Zm-3.08.38a3.05,3.05,0,0,0-.46,1.83,3.13,3.13,0,0,0,.45,1.83,1.51,1.51,0,0,0,1.29.63,1.54,1.54,0,0,0,1.31-.63,3.85,3.85,0,0,0,0-3.67,1.54,1.54,0,0,0-1.3-.62A1.52,1.52,0,0,0,201.74,40.53Z"/><path d="M211.07,39.83a1.9,1.9,0,0,1,.41,1.29v4.12h-.63v-4c0-.89-.37-1.33-1.09-1.33a1.67,1.67,0,0,0-1,.3,3.39,3.39,0,0,0-.81.89v4.17h-.63v-8.1l.63-.08v3.38a2.29,2.29,0,0,1,1.91-1.08A1.53,1.53,0,0,1,211.07,39.83Z"/><path d="M214,45.08a1.14,1.14,0,0,1-.26-.81V37.14l.63-.08v7.19c0,.37.16.56.47.56a.93.93,0,0,0,.39-.08l.18.47a1.4,1.4,0,0,1-.66.16A1,1,0,0,1,214,45.08Z"/><path d="M220.52,44.61a.75.75,0,0,0,.37.3l-.14.45a1.13,1.13,0,0,1-.62-.3,1.26,1.26,0,0,1-.28-.67,2,2,0,0,1-1.79,1,1.79,1.79,0,0,1-1.3-.47,1.66,1.66,0,0,1-.48-1.25,1.62,1.62,0,0,1,.63-1.37,2.79,2.79,0,0,1,1.76-.49h1.1v-.56a1.43,1.43,0,0,0-.31-1,1.4,1.4,0,0,0-1-.31,4.7,4.7,0,0,0-1.57.33l-.16-.48a4.85,4.85,0,0,1,1.81-.39,1.64,1.64,0,0,1,1.88,1.83V44A1.31,1.31,0,0,0,220.52,44.61Zm-.75-.78V42.24h-1a2.32,2.32,0,0,0-1.35.34,1.22,1.22,0,0,0-.46,1,1.24,1.24,0,0,0,.32.91,1.21,1.21,0,0,0,.89.32A1.77,1.77,0,0,0,219.77,43.83Z"/><path d="M226.4,39.48l-2,5.76h-.79l-2.06-5.76h.7L224,44.67l1.71-5.19Z"/><path d="M228.87,36.63l.29.58-2.14.93-.21-.37Zm-.5,2.85v5.76h-.64V39.48Z"/><path d="M237.61,39.48l-2,5.76h-.79l-2.06-5.76h.7l1.75,5.19,1.71-5.19Z"/><path d="M242.22,45.08a1.1,1.1,0,0,1-.27-.81V37.14l.64-.08v7.19c0,.37.16.56.46.56a1,1,0,0,0,.4-.08l.18.47a1.41,1.41,0,0,1-.67.16A1,1,0,0,1,242.22,45.08Z"/><path d="M249.14,42.61H245.3a2.62,2.62,0,0,0,.53,1.66,1.58,1.58,0,0,0,1.26.55,2.2,2.2,0,0,0,.8-.14,3.72,3.72,0,0,0,.75-.43l.3.4a3.27,3.27,0,0,1-.88.53,2.7,2.7,0,0,1-1,.18,2.22,2.22,0,0,1-1.8-.78,3.34,3.34,0,0,1-.64-2.17,4.16,4.16,0,0,1,.28-1.6,2.32,2.32,0,0,1,.8-1.07,2.21,2.21,0,0,1,2.89.36,3.29,3.29,0,0,1,.57,2C249.16,42.31,249.15,42.46,249.14,42.61Zm-.61-.66a2.52,2.52,0,0,0-.4-1.52,1.54,1.54,0,0,0-2.35,0,2.86,2.86,0,0,0-.48,1.67h3.23Z"/><path d="M253.59,45a2.1,2.1,0,0,1-1.21.37,1.36,1.36,0,0,1-1-.39,1.57,1.57,0,0,1-.38-1.13V40h-1v-.52h1V38.11l.64-.08v1.45h1.49L253,40h-1.41v3.81a1.16,1.16,0,0,0,.21.75.81.81,0,0,0,.64.25,1.78,1.78,0,0,0,.88-.26Z"/><path d="M258.65,42.61h-3.84a2.68,2.68,0,0,0,.54,1.66,1.55,1.55,0,0,0,1.25.55,2.16,2.16,0,0,0,.8-.14,4.06,4.06,0,0,0,.76-.43l.29.4a3.13,3.13,0,0,1-.88.53,2.66,2.66,0,0,1-1,.18,2.2,2.2,0,0,1-1.79-.78,3.34,3.34,0,0,1-.65-2.17,4.16,4.16,0,0,1,.28-1.6,2.46,2.46,0,0,1,.8-1.07,2.06,2.06,0,0,1,1.22-.38,2,2,0,0,1,1.67.74,3.29,3.29,0,0,1,.57,2A3.54,3.54,0,0,1,258.65,42.61Zm-.6-.66a2.52,2.52,0,0,0-.41-1.52,1.53,1.53,0,0,0-2.34,0,2.79,2.79,0,0,0-.49,1.67h3.24Z"/><path d="M263.34,39.5a2.67,2.67,0,0,1,.75.44l-.32.42a1.9,1.9,0,0,0-1.28-.45,1.56,1.56,0,0,0-1.3.63,3,3,0,0,0-.48,1.85,2.84,2.84,0,0,0,.48,1.8,1.56,1.56,0,0,0,1.29.61,1.75,1.75,0,0,0,.7-.13,2.54,2.54,0,0,0,.63-.36l.31.43a2.51,2.51,0,0,1-1.65.62,2.32,2.32,0,0,1-1.29-.36,2.24,2.24,0,0,1-.85-1,3.89,3.89,0,0,1-.3-1.59,4,4,0,0,1,.3-1.6,2.38,2.38,0,0,1,.85-1.06,2.22,2.22,0,0,1,1.28-.38A2.66,2.66,0,0,1,263.34,39.5Z"/><path d="M269.38,39.83a1.9,1.9,0,0,1,.41,1.29v4.12h-.63v-4c0-.89-.37-1.33-1.09-1.33a1.67,1.67,0,0,0-1,.3,3.39,3.39,0,0,0-.81.89v4.17h-.63v-8.1l.63-.08v3.38a2.29,2.29,0,0,1,1.91-1.08A1.53,1.53,0,0,1,269.38,39.83Z"/><path d="M277.92,38.34a1.87,1.87,0,0,1,.54,1.38,3.1,3.1,0,0,1-.3,1.35,6.42,6.42,0,0,1-.92,1.37c-.43.5-1.11,1.24-2.05,2.23h3.47l-.09.57h-4.12V44.7c1-1.07,1.72-1.87,2.16-2.38a6.89,6.89,0,0,0,.92-1.35,2.75,2.75,0,0,0,.27-1.21,1.45,1.45,0,0,0-.38-1,1.37,1.37,0,0,0-1-.38,1.87,1.87,0,0,0-.9.21,2.63,2.63,0,0,0-.74.62l-.44-.33a3,3,0,0,1,1-.79,2.57,2.57,0,0,1,1.16-.25A2,2,0,0,1,277.92,38.34Z"/><path d="M284,38.76a5.49,5.49,0,0,1,.59,2.82,5.44,5.44,0,0,1-.59,2.81,2,2,0,0,1-3.43,0,5.5,5.5,0,0,1-.58-2.82,5.43,5.43,0,0,1,.58-2.81,2,2,0,0,1,3.43,0Zm-3.35,2.81c0,2.17.54,3.26,1.64,3.26a1.31,1.31,0,0,0,1.21-.79,5.49,5.49,0,0,0,.42-2.46,5.55,5.55,0,0,0-.42-2.46,1.3,1.3,0,0,0-1.21-.79C281.17,38.33,280.63,39.41,280.63,41.57Z"/><path d="M290,38.76a5.49,5.49,0,0,1,.59,2.82,5.44,5.44,0,0,1-.59,2.81,2,2,0,0,1-3.43,0,5.5,5.5,0,0,1-.58-2.82,5.43,5.43,0,0,1,.58-2.81,2,2,0,0,1,3.43,0Zm-3.35,2.81c0,2.17.54,3.26,1.64,3.26a1.31,1.31,0,0,0,1.21-.79,5.49,5.49,0,0,0,.42-2.46,5.55,5.55,0,0,0-.42-2.46,1.3,1.3,0,0,0-1.21-.79C287.22,38.33,286.68,39.41,286.68,41.57Z"/><path d="M295.53,37.92v.5l-2.88,6.9-.59-.19,2.81-6.67h-3.42v-.54Z"/><path d="M296.37,41.57V41h4.84v.55Z"/><path d="M304.81,38.34a1.88,1.88,0,0,1,.55,1.38,3.1,3.1,0,0,1-.3,1.35,6.92,6.92,0,0,1-.93,1.37c-.42.5-1.1,1.24-2,2.23h3.46l-.08.57h-4.13V44.7c1-1.07,1.73-1.87,2.16-2.38a6.58,6.58,0,0,0,.93-1.35,2.75,2.75,0,0,0,.27-1.21,1.45,1.45,0,0,0-.38-1,1.39,1.39,0,0,0-1-.38,1.87,1.87,0,0,0-.9.21,2.78,2.78,0,0,0-.74.62l-.44-.33a3,3,0,0,1,.95-.79,2.57,2.57,0,0,1,1.16-.25A2,2,0,0,1,304.81,38.34Z"/><path d="M310.88,38.76a5.5,5.5,0,0,1,.58,2.82,5.44,5.44,0,0,1-.59,2.81,2,2,0,0,1-3.42,0,5.49,5.49,0,0,1-.59-2.82,5.42,5.42,0,0,1,.59-2.81,2,2,0,0,1,3.43,0Zm-3.36,2.81c0,2.17.55,3.26,1.64,3.26a1.33,1.33,0,0,0,1.22-.79,5.66,5.66,0,0,0,.41-2.46,5.72,5.72,0,0,0-.41-2.46,1.31,1.31,0,0,0-1.22-.79C308.07,38.33,307.52,39.41,307.52,41.57Z"/><path d="M315.09,37.92v7.32h-.64V38.62l-1.8,1.13-.3-.48,2.19-1.35Z"/><path d="M320.83,37.92v.5L318,45.32l-.59-.19,2.81-6.67h-3.42v-.54Z"/></g><path class="cls-9" d="M28.49,366.22c0,2.52-.7,3.77-2.08,3.77a1.68,1.68,0,0,1-1.56-.94,5.84,5.84,0,0,1-.53-2.84c0-2.52.69-3.77,2.09-3.77S28.49,363.7,28.49,366.22Zm-3.17-2.49a8.76,8.76,0,0,0,0,5,1.16,1.16,0,0,0,1.09.78,1.17,1.17,0,0,0,1.08-.78,8.76,8.76,0,0,0,0-5,1.14,1.14,0,0,0-2.17,0Z"/><path class="cls-9" d="M20.91,305.25a1.89,1.89,0,0,1,.49,1.36,3.38,3.38,0,0,1-.27,1.34,6.51,6.51,0,0,1-.85,1.41c-.38.51-1,1.26-1.83,2.26h3.13l-.09.55H17.76v-.52q1.32-1.59,1.92-2.4a6.25,6.25,0,0,0,.85-1.39,3.17,3.17,0,0,0,.24-1.23,1.45,1.45,0,0,0-.33-1,1.16,1.16,0,0,0-.9-.36,1.51,1.51,0,0,0-.8.2,2.37,2.37,0,0,0-.66.62l-.42-.31a2.69,2.69,0,0,1,.85-.78,2.15,2.15,0,0,1,1-.26A1.76,1.76,0,0,1,20.91,305.25Z"/><path class="cls-9" d="M27,308.51c0,2.52-.7,3.78-2.08,3.78a1.72,1.72,0,0,1-1.57-.94,6.05,6.05,0,0,1-.52-2.85c0-2.51.69-3.77,2.09-3.77S27,306,27,308.51ZM23.79,306a8.53,8.53,0,0,0,0,5A1.14,1.14,0,0,0,26,311a6,6,0,0,0,.37-2.48A6.34,6.34,0,0,0,26,306a1.15,1.15,0,0,0-2.17,0Z"/><path class="cls-9" d="M23.77,243.35v.52h-.88v1.92H22.3v-1.92H19.41v-.48l2-5,.53.2-1.9,4.8H22.3l.07-2.16h.52v2.16Z"/><path class="cls-9" d="M29,242.14c0,2.51-.7,3.77-2.08,3.77a1.68,1.68,0,0,1-1.56-.94,5.87,5.87,0,0,1-.53-2.84c0-2.52.69-3.78,2.09-3.78S29,239.62,29,242.14Zm-3.17-2.49a6.25,6.25,0,0,0-.36,2.48,6.34,6.34,0,0,0,.36,2.49,1.14,1.14,0,0,0,2.16,0,6.07,6.07,0,0,0,.37-2.48,6.27,6.27,0,0,0-.36-2.49,1.14,1.14,0,0,0-2.17,0Z"/><path class="cls-9" d="M21,182.12a2.58,2.58,0,0,1,.5,1.71,3.45,3.45,0,0,1-.25,1.39,1.9,1.9,0,0,1-.69.89,1.74,1.74,0,0,1-1,.3,1.69,1.69,0,0,1-1.6-.91,5.15,5.15,0,0,1-.51-2.5,7.69,7.69,0,0,1,.29-2.23,3.24,3.24,0,0,1,.83-1.43,1.88,1.88,0,0,1,1.28-.49,2.07,2.07,0,0,1,1.24.43l-.27.42a1.65,1.65,0,0,0-1-.33,1.41,1.41,0,0,0-1.27.87,5.23,5.23,0,0,0-.5,2.35,1.94,1.94,0,0,1,1.68-1.06A1.55,1.55,0,0,1,21,182.12Zm-.46,3.23a2.78,2.78,0,0,0,.34-1.5,2.32,2.32,0,0,0-.33-1.38,1.07,1.07,0,0,0-.9-.44,1.43,1.43,0,0,0-.9.33,2.55,2.55,0,0,0-.69.89,4.51,4.51,0,0,0,.37,2,1.2,1.2,0,0,0,1.12.66A1.11,1.11,0,0,0,20.53,185.35Z"/><path class="cls-9" d="M26.88,182.64c0,2.51-.69,3.77-2.08,3.77a1.68,1.68,0,0,1-1.56-.94,5.87,5.87,0,0,1-.53-2.84c0-2.52.7-3.78,2.09-3.78S26.88,180.12,26.88,182.64Zm-3.17-2.49a6.25,6.25,0,0,0-.36,2.48,6.34,6.34,0,0,0,.36,2.49,1.15,1.15,0,0,0,2.17,0,8.76,8.76,0,0,0,0-5,1.15,1.15,0,0,0-1.08-.78A1.17,1.17,0,0,0,23.71,180.15Z"/><path class="cls-9" d="M16.18,125.31a1.82,1.82,0,0,1,.36,1.17A1.93,1.93,0,0,1,16,128a2.26,2.26,0,0,1-1.58.54,2.13,2.13,0,0,1-1.55-.55,1.88,1.88,0,0,1-.58-1.45,2.08,2.08,0,0,1,1.45-2,2.26,2.26,0,0,1-.89-.69,1.71,1.71,0,0,1-.27-1,1.87,1.87,0,0,1,.25-1,1.67,1.67,0,0,1,.69-.63,2.18,2.18,0,0,1,.93-.2,2.06,2.06,0,0,1,.92.2,1.63,1.63,0,0,1,.69.61,1.83,1.83,0,0,1,.26,1,1.62,1.62,0,0,1-.3,1,2.69,2.69,0,0,1-.92.76A2.76,2.76,0,0,1,16.18,125.31Zm-.68,2.3a1.76,1.76,0,0,0,.1-2.13,3,3,0,0,0-1.13-.68l-.34-.15a2.27,2.27,0,0,0-1,.74,1.91,1.91,0,0,0-.3,1.11,1.47,1.47,0,0,0,.4,1.11,1.61,1.61,0,0,0,1.11.38A1.6,1.6,0,0,0,15.5,127.61Zm-2.11-4a2.58,2.58,0,0,0,.94.59l.31.13a2.57,2.57,0,0,0,.78-.68,1.53,1.53,0,0,0,.24-.87,1.35,1.35,0,0,0-.34-1,1.25,1.25,0,0,0-.92-.35,1.23,1.23,0,0,0-.92.34,1.38,1.38,0,0,0-.35,1A1.25,1.25,0,0,0,13.39,123.61Z"/><path class="cls-9" d="M21.93,124.73c0,2.52-.69,3.77-2.08,3.77a1.68,1.68,0,0,1-1.56-.94,6,6,0,0,1-.53-2.84c0-2.52.7-3.77,2.09-3.77S21.93,122.21,21.93,124.73Zm-3.17-2.49a8.76,8.76,0,0,0,0,5,1.17,1.17,0,0,0,1.09.78,1.15,1.15,0,0,0,1.08-.78,6.28,6.28,0,0,0,.36-2.48,6.57,6.57,0,0,0-.35-2.49,1.15,1.15,0,0,0-2.18,0Z"/><path class="cls-9" d="M26.59,128.24a1.1,1.1,0,0,1-.25-.76v-7.19l.62-.08v7.26c0,.34.14.5.42.5a.91.91,0,0,0,.35-.07l.15.45a1.19,1.19,0,0,1-.6.15A.9.9,0,0,1,26.59,128.24Z"/><path class="cls-9" d="M32.92,125.75H29.46a2.77,2.77,0,0,0,.47,1.69,1.35,1.35,0,0,0,1.13.53,1.81,1.81,0,0,0,.72-.13,2.49,2.49,0,0,0,.66-.42l.3.39a2.91,2.91,0,0,1-.79.52,2.46,2.46,0,0,1-.91.17,1.93,1.93,0,0,1-1.63-.77,3.47,3.47,0,0,1-.59-2.18,3.89,3.89,0,0,1,.56-2.23,1.8,1.8,0,0,1,1.55-.81,1.71,1.71,0,0,1,1.49.72,3.49,3.49,0,0,1,.52,2.06C32.94,125.45,32.93,125.61,32.92,125.75Zm-.58-.66a2.72,2.72,0,0,0-.36-1.53,1.16,1.16,0,0,0-1.05-.54,1.24,1.24,0,0,0-1,.54,3.09,3.09,0,0,0-.43,1.71h2.88Z"/><path class="cls-9" d="M37,128.14a1.88,1.88,0,0,1-1.1.36,1.24,1.24,0,0,1-1-.36,1.41,1.41,0,0,1-.34-1v-4h-.87v-.5h.87v-1.38l.61-.07v1.45h1.34l-.08.5H35.17v4c0,.59.25.88.74.88a1.53,1.53,0,0,0,.78-.24Z"/><polyline class="cls-10" points="61.96 170.07 111.64 164.31 161.2 166.35 210.76 176.67 260.44 179.43 310 176.67 359.68 170.67 409.24 157.59 458.8 157.95 508.48 158.79 558.04 161.55"/><path class="cls-5" d="M64.58,170a2.52,2.52,0,1,1-2.52-2.52A2.52,2.52,0,0,1,64.58,170Z"/><path class="cls-5" d="M114.14,164.26a2.52,2.52,0,1,1-2.52-2.52,2.52,2.52,0,0,1,2.52,2.52Z"/><path class="cls-5" d="M163.82,166.42a2.52,2.52,0,1,1-2.52-2.52,2.52,2.52,0,0,1,2.52,2.52Z"/><path class="cls-5" d="M213.38,176.74a2.52,2.52,0,1,1-2.52-2.52,2.52,2.52,0,0,1,2.52,2.52Z"/><path class="cls-5" d="M262.94,179.5a2.52,2.52,0,1,1-2.52-2.52,2.52,2.52,0,0,1,2.52,2.52Z"/><path class="cls-5" d="M312.62,176.74a2.52,2.52,0,1,1-2.52-2.52,2.52,2.52,0,0,1,2.52,2.52Z"/><path class="cls-5" d="M362.18,170.62a2.52,2.52,0,1,1-2.52-2.52,2.52,2.52,0,0,1,2.52,2.52Z"/><path class="cls-5" d="M411.86,157.66a2.52,2.52,0,1,1-2.52-2.52,2.52,2.52,0,0,1,2.52,2.52Z"/><path class="cls-5" d="M461.42,157.9a2.52,2.52,0,1,1-2.52-2.52,2.52,2.52,0,0,1,2.52,2.52Z"/><path class="cls-5" d="M511,158.86a2.52,2.52,0,1,1-2.52-2.52,2.52,2.52,0,0,1,2.52,2.52Z"/><path class="cls-5" d="M560.66,161.62a2.52,2.52,0,1,1-2.52-2.52,2.52,2.52,0,0,1,2.52,2.52Z"/><polyline class="cls-11" points="61.96 142.11 111.64 141.87 161.2 141.27 210.76 138.75 260.44 137.55 310 137.31 359.68 136.11 409.24 135.75 458.8 136.11 508.48 134.31 558.04 134.91"/><path class="cls-6" d="M64.58,142.18a2.52,2.52,0,1,1-2.52-2.52,2.52,2.52,0,0,1,2.52,2.52Z"/><path class="cls-6" d="M114.14,141.82a2.52,2.52,0,1,1-2.52-2.52,2.52,2.52,0,0,1,2.52,2.52Z"/><path class="cls-6" d="M163.82,141.22a2.52,2.52,0,1,1-2.52-2.52,2.52,2.52,0,0,1,2.52,2.52Z"/><path class="cls-6" d="M213.38,138.82a2.52,2.52,0,1,1-2.52-2.52,2.52,2.52,0,0,1,2.52,2.52Z"/><path class="cls-6" d="M262.94,137.62a2.52,2.52,0,1,1-2.52-2.52,2.52,2.52,0,0,1,2.52,2.52Z"/><path class="cls-6" d="M312.62,137.26a2.52,2.52,0,1,1-2.52-2.52,2.52,2.52,0,0,1,2.52,2.52Z"/><path class="cls-6" d="M362.18,136.06a2.52,2.52,0,1,1-2.52-2.52,2.52,2.52,0,0,1,2.52,2.52Z"/><path class="cls-6" d="M411.86,135.82a2.52,2.52,0,1,1-2.52-2.52,2.52,2.52,0,0,1,2.52,2.52Z"/><path class="cls-6" d="M461.42,136.06a2.52,2.52,0,1,1-2.52-2.52,2.52,2.52,0,0,1,2.52,2.52Z"/><path class="cls-6" d="M511,134.26a2.52,2.52,0,1,1-2.52-2.52,2.52,2.52,0,0,1,2.52,2.52Z"/><path class="cls-6" d="M560.66,134.86a2.52,2.52,0,1,1-2.52-2.52,2.52,2.52,0,0,1,2.52,2.52Z"/><path class="cls-7" d="M64.58,122.14a2.52,2.52,0,1,1-2.52-2.52,2.52,2.52,0,0,1,2.52,2.52Z"/><path class="cls-7" d="M114.14,121.54a2.52,2.52,0,1,1-2.52-2.52,2.52,2.52,0,0,1,2.52,2.52Z"/><path class="cls-7" d="M163.82,120.94a2.52,2.52,0,1,1-2.52-2.52,2.52,2.52,0,0,1,2.52,2.52Z"/><path class="cls-7" d="M213.38,122.38a2.52,2.52,0,1,1-2.52-2.52,2.52,2.52,0,0,1,2.52,2.52Z"/><path class="cls-7" d="M262.94,120.94a2.52,2.52,0,1,1-2.52-2.52,2.52,2.52,0,0,1,2.52,2.52Z"/><path class="cls-7" d="M312.62,120.94a2.52,2.52,0,1,1-2.52-2.52,2.52,2.52,0,0,1,2.52,2.52Z"/><path class="cls-7" d="M362.18,130.9a2.52,2.52,0,1,1-2.52-2.52,2.52,2.52,0,0,1,2.52,2.52Z"/><path class="cls-7" d="M411.86,129.7a2.52,2.52,0,1,1-2.52-2.52,2.52,2.52,0,0,1,2.52,2.52Z"/><path class="cls-7" d="M461.42,131.86a2.52,2.52,0,1,1-2.52-2.52,2.52,2.52,0,0,1,2.52,2.52Z"/><path class="cls-7" d="M511,131.26a2.52,2.52,0,1,1-2.52-2.52,2.52,2.52,0,0,1,2.52,2.52Z"/><path class="cls-7" d="M560.66,128.86a2.52,2.52,0,1,1-2.52-2.52,2.52,2.52,0,0,1,2.52,2.52Z"/><g class="cls-12"><path class="cls-13" d="M64.58,142.54A2.52,2.52,0,1,1,62.06,140a2.52,2.52,0,0,1,2.52,2.52Z"/><path class="cls-13" d="M114.14,141.46a2.52,2.52,0,1,1-2.52-2.52,2.52,2.52,0,0,1,2.52,2.52Z"/><path class="cls-13" d="M163.82,141a2.52,2.52,0,1,1-2.52-2.52,2.52,2.52,0,0,1,2.52,2.52Z"/><path class="cls-13" d="M213.38,140.38a2.52,2.52,0,1,1-2.52-2.52,2.52,2.52,0,0,1,2.52,2.52Z"/><path class="cls-13" d="M262.94,139.42a2.52,2.52,0,1,1-2.52-2.52,2.52,2.52,0,0,1,2.52,2.52Z"/><path class="cls-13" d="M312.62,138.58a2.52,2.52,0,1,1-2.52-2.52,2.52,2.52,0,0,1,2.52,2.52Z"/><path class="cls-13" d="M362.18,138.1a2.52,2.52,0,1,1-2.52-2.52,2.52,2.52,0,0,1,2.52,2.52Z"/><path class="cls-13" d="M411.86,136.42a2.52,2.52,0,1,1-2.52-2.52,2.52,2.52,0,0,1,2.52,2.52Z"/><path class="cls-13" d="M461.42,136.66a2.52,2.52,0,1,1-2.52-2.52,2.52,2.52,0,0,1,2.52,2.52Z"/><path class="cls-13" d="M511,135.34a2.52,2.52,0,1,1-2.52-2.52,2.52,2.52,0,0,1,2.52,2.52Z"/><path class="cls-13" d="M560.66,135.46a2.52,2.52,0,1,1-2.52-2.52,2.52,2.52,0,0,1,2.52,2.52Z"/></g><path class="cls-9" d="M55.31,373.32a1.89,1.89,0,0,1,.49,1.36,3.38,3.38,0,0,1-.27,1.34,6.51,6.51,0,0,1-.85,1.41q-.57.76-1.83,2.25H56l-.09.55H52.16v-.51c.88-1.06,1.52-1.86,1.93-2.4a6.55,6.55,0,0,0,.84-1.39,3.21,3.21,0,0,0,.24-1.23,1.45,1.45,0,0,0-.33-1,1.16,1.16,0,0,0-.9-.36,1.53,1.53,0,0,0-.8.2,2.37,2.37,0,0,0-.66.62l-.42-.31a2.69,2.69,0,0,1,.85-.78A2.07,2.07,0,0,1,54,372.8,1.76,1.76,0,0,1,55.31,373.32Z"/><path class="cls-9" d="M61.36,376.58c0,2.52-.7,3.77-2.08,3.77a1.7,1.7,0,0,1-1.57-.94,6,6,0,0,1-.52-2.84c0-2.51.69-3.77,2.09-3.77S61.36,374.06,61.36,376.58Zm-3.17-2.49a8.53,8.53,0,0,0,0,5,1.14,1.14,0,0,0,2.16,0,6,6,0,0,0,.37-2.48,6.34,6.34,0,0,0-.36-2.49,1.14,1.14,0,0,0-2.17,0Z"/><path class="cls-9" d="M66.91,376.58c0,2.52-.69,3.77-2.08,3.77a1.68,1.68,0,0,1-1.56-.94,6,6,0,0,1-.53-2.84c0-2.51.7-3.77,2.09-3.77S66.91,374.06,66.91,376.58Zm-3.17-2.49a8.76,8.76,0,0,0,0,5,1.17,1.17,0,0,0,1.09.78,1.15,1.15,0,0,0,1.08-.78,6.25,6.25,0,0,0,.36-2.48,6.57,6.57,0,0,0-.35-2.49,1.15,1.15,0,0,0-2.18,0Z"/><path class="cls-9" d="M71.6,372.92v.48L69,380.32l-.56-.18L71,373.45H67.9v-.53Z"/><path class="cls-9" d="M104.41,373.32a1.89,1.89,0,0,1,.49,1.36,3.38,3.38,0,0,1-.27,1.34,6.84,6.84,0,0,1-.84,1.41q-.58.76-1.83,2.25h3.12l-.09.55h-3.73v-.51c.88-1.06,1.52-1.86,1.93-2.4a6.55,6.55,0,0,0,.84-1.39,3,3,0,0,0,.25-1.23,1.45,1.45,0,0,0-.33-1,1.16,1.16,0,0,0-.9-.36,1.49,1.49,0,0,0-.8.2,2.4,2.4,0,0,0-.67.62l-.42-.31a2.61,2.61,0,0,1,.86-.78,2,2,0,0,1,1-.26A1.76,1.76,0,0,1,104.41,373.32Z"/><path class="cls-9" d="M110.46,376.58c0,2.52-.69,3.77-2.08,3.77a1.68,1.68,0,0,1-1.56-.94,6,6,0,0,1-.53-2.84c0-2.51.7-3.77,2.09-3.77S110.46,374.06,110.46,376.58Zm-3.17-2.49a8.76,8.76,0,0,0,0,5,1.17,1.17,0,0,0,1.09.78,1.15,1.15,0,0,0,1.08-.78,6.25,6.25,0,0,0,.36-2.48,6.34,6.34,0,0,0-.36-2.49,1.15,1.15,0,0,0-1.08-.78A1.17,1.17,0,0,0,107.29,374.09Z"/><path class="cls-9" d="M116,376.58c0,2.52-.69,3.77-2.08,3.77a1.69,1.69,0,0,1-1.56-.94,6,6,0,0,1-.53-2.84c0-2.51.7-3.77,2.09-3.77S116,374.06,116,376.58Zm-3.16-2.49a8.53,8.53,0,0,0,0,5,1.14,1.14,0,0,0,2.16,0,6.21,6.21,0,0,0,.37-2.48,6.34,6.34,0,0,0-.36-2.49,1.14,1.14,0,0,0-2.17,0Z"/><path class="cls-9" d="M121.18,377.16a1.82,1.82,0,0,1,.36,1.17,1.9,1.9,0,0,1-.6,1.48,2.23,2.23,0,0,1-1.57.54,2.21,2.21,0,0,1-1.56-.54,2,2,0,0,1-.58-1.46,2.09,2.09,0,0,1,1.46-2,2.26,2.26,0,0,1-.89-.69,1.64,1.64,0,0,1-.28-1,1.87,1.87,0,0,1,.26-1,1.62,1.62,0,0,1,.68-.62,2.05,2.05,0,0,1,.93-.21,2.17,2.17,0,0,1,.92.2,1.63,1.63,0,0,1,.69.61,1.86,1.86,0,0,1,.26,1,1.68,1.68,0,0,1-.29,1,2.83,2.83,0,0,1-.93.76A2.87,2.87,0,0,1,121.18,377.16Zm-.68,2.3a1.74,1.74,0,0,0,.09-2.13,3,3,0,0,0-1.12-.68l-.34-.14a2.28,2.28,0,0,0-1,.73,2,2,0,0,0-.3,1.11,1.44,1.44,0,0,0,.41,1.11,1.57,1.57,0,0,0,1.11.38A1.62,1.62,0,0,0,120.5,379.46Zm-2.12-4a2.67,2.67,0,0,0,.94.58l.31.14a2.46,2.46,0,0,0,.78-.69,1.53,1.53,0,0,0,.25-.86,1.36,1.36,0,0,0-.35-1,1.22,1.22,0,0,0-.92-.35,1.29,1.29,0,0,0-.92.34,1.38,1.38,0,0,0-.34,1A1.26,1.26,0,0,0,118.38,375.47Z"/><path class="cls-9" d="M154.1,373.32a1.9,1.9,0,0,1,.5,1.36,3.38,3.38,0,0,1-.27,1.34,6.51,6.51,0,0,1-.85,1.41q-.57.76-1.83,2.25h3.13l-.09.55H151v-.51q1.32-1.59,1.92-2.4a6.25,6.25,0,0,0,.85-1.39,3.21,3.21,0,0,0,.24-1.23,1.45,1.45,0,0,0-.33-1,1.16,1.16,0,0,0-.9-.36,1.51,1.51,0,0,0-.8.2,2.37,2.37,0,0,0-.66.62l-.42-.31a2.69,2.69,0,0,1,.85-.78,2,2,0,0,1,1-.26A1.74,1.74,0,0,1,154.1,373.32Z"/><path class="cls-9" d="M160.15,376.58c0,2.52-.69,3.77-2.07,3.77a1.7,1.7,0,0,1-1.57-.94,6,6,0,0,1-.53-2.84c0-2.51.7-3.77,2.1-3.77S160.15,374.06,160.15,376.58ZM157,374.09a8.53,8.53,0,0,0,0,5,1.14,1.14,0,0,0,2.16,0,6.21,6.21,0,0,0,.37-2.48,6.34,6.34,0,0,0-.36-2.49,1.14,1.14,0,0,0-2.17,0Z"/><path class="cls-9" d="M165.71,376.58c0,2.52-.69,3.77-2.08,3.77a1.68,1.68,0,0,1-1.56-.94,6,6,0,0,1-.53-2.84c0-2.51.7-3.77,2.09-3.77S165.71,374.06,165.71,376.58Zm-3.17-2.49a8.76,8.76,0,0,0,0,5,1.17,1.17,0,0,0,1.09.78,1.15,1.15,0,0,0,1.08-.78,6.25,6.25,0,0,0,.36-2.48,6.34,6.34,0,0,0-.36-2.49,1.15,1.15,0,0,0-1.08-.78A1.17,1.17,0,0,0,162.54,374.09Z"/><path class="cls-9" d="M170.46,373.56a4,4,0,0,1,.5,2.2,6.27,6.27,0,0,1-.37,2.31,3.37,3.37,0,0,1-1.09,1.44,6.4,6.4,0,0,1-1.89.93l-.15-.47a4.83,4.83,0,0,0,2.07-1.25,3.49,3.49,0,0,0,.79-2.19,1.82,1.82,0,0,1-1.59,1,1.68,1.68,0,0,1-.93-.27,1.78,1.78,0,0,1-.64-.8,3.3,3.3,0,0,1,0-2.52,1.91,1.91,0,0,1,.71-.82,1.93,1.93,0,0,1,1-.28A1.71,1.71,0,0,1,170.46,373.56Zm-.8,3.14a2.78,2.78,0,0,0,.68-.83,4.47,4.47,0,0,0-.34-2,1.1,1.1,0,0,0-1.05-.61,1.26,1.26,0,0,0-1,.49,2.34,2.34,0,0,0-.36,1.42,2.18,2.18,0,0,0,.34,1.32,1.14,1.14,0,0,0,.94.46A1.31,1.31,0,0,0,169.66,376.7Z"/><path class="cls-9" d="M204.25,373.32a1.89,1.89,0,0,1,.49,1.36,3.38,3.38,0,0,1-.27,1.34,6.84,6.84,0,0,1-.84,1.41c-.39.51-1,1.26-1.84,2.25h3.13l-.09.55H201.1v-.51c.88-1.06,1.52-1.86,1.93-2.4a6.55,6.55,0,0,0,.84-1.39,3.22,3.22,0,0,0,.25-1.23,1.49,1.49,0,0,0-.33-1,1.18,1.18,0,0,0-.91-.36,1.48,1.48,0,0,0-.79.2,2.27,2.27,0,0,0-.67.62l-.42-.31a2.69,2.69,0,0,1,.85-.78,2.11,2.11,0,0,1,1.06-.26A1.76,1.76,0,0,1,204.25,373.32Z"/><path class="cls-9" d="M210.3,376.58c0,2.52-.7,3.77-2.08,3.77a1.68,1.68,0,0,1-1.56-.94,5.84,5.84,0,0,1-.53-2.84c0-2.51.69-3.77,2.09-3.77S210.3,374.06,210.3,376.58Zm-3.17-2.49a8.76,8.76,0,0,0,0,5,1.16,1.16,0,0,0,1.09.78,1.17,1.17,0,0,0,1.08-.78,6.25,6.25,0,0,0,.36-2.48,6.34,6.34,0,0,0-.36-2.49,1.14,1.14,0,0,0-2.17,0Z"/><path class="cls-9" d="M213.88,372.92v7.31h-.61V373.6l-1.61,1.11-.28-.44,2-1.35Z"/><path class="cls-9" d="M220,376.58c0,2.52-.69,3.77-2.07,3.77a1.7,1.7,0,0,1-1.57-.94,6,6,0,0,1-.52-2.84c0-2.51.69-3.77,2.09-3.77S220,374.06,220,376.58Zm-3.16-2.49a8.53,8.53,0,0,0,0,5,1.14,1.14,0,0,0,2.16,0,6,6,0,0,0,.37-2.48,6.34,6.34,0,0,0-.36-2.49,1.14,1.14,0,0,0-2.17,0Z"/><path class="cls-9" d="M254.58,373.32a1.9,1.9,0,0,1,.5,1.36,3.38,3.38,0,0,1-.27,1.34,6.51,6.51,0,0,1-.85,1.41q-.57.76-1.83,2.25h3.12l-.08.55h-3.73v-.51q1.32-1.59,1.92-2.4a6.66,6.66,0,0,0,.85-1.39,3.21,3.21,0,0,0,.24-1.23,1.45,1.45,0,0,0-.33-1,1.16,1.16,0,0,0-.9-.36,1.51,1.51,0,0,0-.8.2,2.37,2.37,0,0,0-.66.62l-.42-.31a2.59,2.59,0,0,1,.85-.78,2,2,0,0,1,1.05-.26A1.76,1.76,0,0,1,254.58,373.32Z"/><path class="cls-9" d="M260.63,376.58c0,2.52-.69,3.77-2.08,3.77a1.68,1.68,0,0,1-1.56-.94,6,6,0,0,1-.53-2.84c0-2.51.7-3.77,2.09-3.77S260.63,374.06,260.63,376.58Zm-3.17-2.49a8.76,8.76,0,0,0,0,5,1.18,1.18,0,0,0,1.09.78,1.15,1.15,0,0,0,1.08-.78,6.25,6.25,0,0,0,.36-2.48,6.37,6.37,0,0,0-.35-2.49,1.16,1.16,0,0,0-1.09-.78A1.18,1.18,0,0,0,257.46,374.09Z"/><path class="cls-9" d="M264.22,372.92v7.31h-.62V373.6l-1.6,1.11-.29-.44,2-1.35Z"/><path class="cls-9" d="M268.32,372.92v7.31h-.61V373.6l-1.61,1.11-.29-.44,2-1.35Z"/><path class="cls-9" d="M303.89,373.32a1.9,1.9,0,0,1,.5,1.36,3.38,3.38,0,0,1-.27,1.34,6.51,6.51,0,0,1-.85,1.41q-.57.76-1.83,2.25h3.13l-.09.55h-3.73v-.51q1.32-1.59,1.92-2.4a6.25,6.25,0,0,0,.85-1.39,3.21,3.21,0,0,0,.24-1.23,1.45,1.45,0,0,0-.33-1,1.16,1.16,0,0,0-.9-.36,1.51,1.51,0,0,0-.8.2,2.37,2.37,0,0,0-.66.62l-.42-.31a2.69,2.69,0,0,1,.85-.78,2,2,0,0,1,1.05-.26A1.74,1.74,0,0,1,303.89,373.32Z"/><path class="cls-9" d="M309.94,376.58c0,2.52-.69,3.77-2.07,3.77a1.7,1.7,0,0,1-1.57-.94,6,6,0,0,1-.52-2.84c0-2.51.69-3.77,2.09-3.77S309.94,374.06,309.94,376.58Zm-3.16-2.49a8.53,8.53,0,0,0,0,5,1.14,1.14,0,0,0,2.16,0,6,6,0,0,0,.37-2.48,6.34,6.34,0,0,0-.36-2.49,1.14,1.14,0,0,0-2.17,0Z"/><path class="cls-9" d="M313.53,372.92v7.31h-.61V373.6l-1.61,1.11-.29-.44,2-1.35Z"/><path class="cls-9" d="M318.25,373.32a1.89,1.89,0,0,1,.49,1.36,3.38,3.38,0,0,1-.27,1.34,6.42,6.42,0,0,1-.84,1.41q-.58.76-1.83,2.25h3.12l-.09.55H315.1v-.51c.88-1.06,1.53-1.86,1.93-2.4a7.12,7.12,0,0,0,.85-1.39,3.21,3.21,0,0,0,.24-1.23,1.45,1.45,0,0,0-.33-1,1.17,1.17,0,0,0-.91-.36,1.48,1.48,0,0,0-.79.2,2.4,2.4,0,0,0-.67.62l-.42-.31a2.72,2.72,0,0,1,.86-.78,2,2,0,0,1,1.05-.26A1.76,1.76,0,0,1,318.25,373.32Z"/><path class="cls-9" d="M353.43,373.32a1.89,1.89,0,0,1,.49,1.36,3.37,3.37,0,0,1-.26,1.34,6.93,6.93,0,0,1-.85,1.41q-.58.76-1.83,2.25h3.12l-.09.55h-3.73v-.51c.88-1.06,1.53-1.86,1.93-2.4a7.12,7.12,0,0,0,.85-1.39,3.21,3.21,0,0,0,.24-1.23,1.45,1.45,0,0,0-.33-1,1.16,1.16,0,0,0-.9-.36,1.49,1.49,0,0,0-.8.2,2.54,2.54,0,0,0-.67.62l-.42-.31a2.72,2.72,0,0,1,.86-.78,2,2,0,0,1,1-.26A1.76,1.76,0,0,1,353.43,373.32Z"/><path class="cls-9" d="M359.48,376.58c0,2.52-.69,3.77-2.08,3.77a1.68,1.68,0,0,1-1.56-.94,6,6,0,0,1-.53-2.84c0-2.51.7-3.77,2.09-3.77S359.48,374.06,359.48,376.58Zm-3.17-2.49a8.76,8.76,0,0,0,0,5,1.17,1.17,0,0,0,1.09.78,1.15,1.15,0,0,0,1.08-.78,6.25,6.25,0,0,0,.36-2.48,6.34,6.34,0,0,0-.36-2.49,1.15,1.15,0,0,0-1.08-.78A1.17,1.17,0,0,0,356.31,374.09Z"/><path class="cls-9" d="M363.07,372.92v7.31h-.62V373.6l-1.61,1.11-.28-.44,2-1.35Z"/><path class="cls-9" d="M367.81,373.31a1.84,1.84,0,0,1,.49,1.31,1.63,1.63,0,0,1-1.36,1.72,1.67,1.67,0,0,1,1.12.53,1.82,1.82,0,0,1,.43,1.3,2.44,2.44,0,0,1-.26,1.13,1.83,1.83,0,0,1-.74.77,2.09,2.09,0,0,1-1.1.28,2.28,2.28,0,0,1-1.07-.23,2.67,2.67,0,0,1-.86-.71l.4-.32a2.39,2.39,0,0,0,.7.58,1.94,1.94,0,0,0,.82.17,1.39,1.39,0,0,0,1.09-.45,1.81,1.81,0,0,0,.39-1.22,1.36,1.36,0,0,0-1.54-1.54h-.43l.07-.5h.33a1.45,1.45,0,0,0,1-.38,1.39,1.39,0,0,0,.42-1.09,1.37,1.37,0,0,0-.35-1,1.23,1.23,0,0,0-.93-.37,1.88,1.88,0,0,0-.76.16,2.52,2.52,0,0,0-.68.52l-.34-.36a2.69,2.69,0,0,1,.84-.62,2.4,2.4,0,0,1,1-.2A1.79,1.79,0,0,1,367.81,373.31Z"/><path class="cls-9" d="M402.88,373.32a1.9,1.9,0,0,1,.5,1.36,3.38,3.38,0,0,1-.27,1.34,6.93,6.93,0,0,1-.85,1.41q-.58.76-1.83,2.25h3.12l-.09.55h-3.73v-.51c.88-1.06,1.53-1.86,1.93-2.4a7.12,7.12,0,0,0,.85-1.39,3.21,3.21,0,0,0,.24-1.23,1.45,1.45,0,0,0-.33-1,1.16,1.16,0,0,0-.9-.36,1.49,1.49,0,0,0-.8.2,2.54,2.54,0,0,0-.67.62l-.42-.31a2.72,2.72,0,0,1,.86-.78,2,2,0,0,1,1.05-.26A1.76,1.76,0,0,1,402.88,373.32Z"/><path class="cls-9" d="M408.93,376.58c0,2.52-.69,3.77-2.08,3.77a1.68,1.68,0,0,1-1.56-.94,6,6,0,0,1-.53-2.84c0-2.51.7-3.77,2.09-3.77S408.93,374.06,408.93,376.58Zm-3.17-2.49a8.76,8.76,0,0,0,0,5,1.17,1.17,0,0,0,1.09.78,1.15,1.15,0,0,0,1.08-.78,6.25,6.25,0,0,0,.36-2.48,6.34,6.34,0,0,0-.36-2.49,1.14,1.14,0,0,0-1.08-.78A1.17,1.17,0,0,0,405.76,374.09Z"/><path class="cls-9" d="M412.52,372.92v7.31h-.62V373.6l-1.61,1.11-.28-.44,2-1.35Z"/><path class="cls-9" d="M418.53,377.79v.52h-.88v1.92h-.59v-1.92h-2.89v-.47l2-5,.53.2-1.9,4.79h2.26l.07-2.15h.52v2.15Z"/><path class="cls-9" d="M452.63,373.32a1.9,1.9,0,0,1,.5,1.36,3.38,3.38,0,0,1-.27,1.34,6.93,6.93,0,0,1-.85,1.41q-.58.76-1.83,2.25h3.12l-.09.55h-3.73v-.51c.88-1.06,1.53-1.86,1.93-2.4a7.12,7.12,0,0,0,.85-1.39,3.21,3.21,0,0,0,.24-1.23,1.45,1.45,0,0,0-.33-1,1.16,1.16,0,0,0-.9-.36,1.49,1.49,0,0,0-.8.2,2.54,2.54,0,0,0-.67.62l-.42-.31a2.72,2.72,0,0,1,.86-.78,2,2,0,0,1,1.05-.26A1.76,1.76,0,0,1,452.63,373.32Z"/><path class="cls-9" d="M458.68,376.58c0,2.52-.69,3.77-2.08,3.77a1.68,1.68,0,0,1-1.56-.94,6,6,0,0,1-.53-2.84c0-2.51.7-3.77,2.09-3.77S458.68,374.06,458.68,376.58Zm-3.17-2.49a8.76,8.76,0,0,0,0,5,1.17,1.17,0,0,0,1.09.78,1.15,1.15,0,0,0,1.08-.78,6.25,6.25,0,0,0,.36-2.48,6.34,6.34,0,0,0-.36-2.49,1.14,1.14,0,0,0-1.08-.78A1.17,1.17,0,0,0,455.51,374.09Z"/><path class="cls-9" d="M462.27,372.92v7.31h-.62V373.6L460,374.71l-.28-.44,2-1.35Z"/><path class="cls-9" d="M467.51,373.44h-2.66V376a2,2,0,0,1,1.12-.35,1.67,1.67,0,0,1,1.36.61,2.56,2.56,0,0,1,.5,1.67,3.13,3.13,0,0,1-.26,1.29,2.13,2.13,0,0,1-.75.87,2,2,0,0,1-1.13.31,2.31,2.31,0,0,1-1-.22,3,3,0,0,1-.84-.65l.39-.36a2.34,2.34,0,0,0,.67.54,1.94,1.94,0,0,0,.82.17,1.32,1.32,0,0,0,1.1-.53,2.25,2.25,0,0,0,.4-1.43,2,2,0,0,0-.36-1.33,1.25,1.25,0,0,0-1-.43,1.89,1.89,0,0,0-.56.08,3.38,3.38,0,0,0-.54.27h-.47v-3.54h3.35Z"/><path class="cls-9" d="M502,373.32a1.9,1.9,0,0,1,.5,1.36,3.38,3.38,0,0,1-.27,1.34,6.51,6.51,0,0,1-.85,1.41q-.57.76-1.83,2.25h3.13l-.09.55h-3.73v-.51q1.32-1.59,1.92-2.4a6.25,6.25,0,0,0,.85-1.39,3.21,3.21,0,0,0,.24-1.23,1.45,1.45,0,0,0-.33-1,1.16,1.16,0,0,0-.9-.36,1.51,1.51,0,0,0-.8.2,2.37,2.37,0,0,0-.66.62l-.42-.31a2.69,2.69,0,0,1,.85-.78,2,2,0,0,1,1.05-.26A1.74,1.74,0,0,1,502,373.32Z"/><path class="cls-9" d="M508.08,376.58c0,2.52-.7,3.77-2.08,3.77a1.7,1.7,0,0,1-1.57-.94,6,6,0,0,1-.52-2.84c0-2.51.69-3.77,2.09-3.77S508.08,374.06,508.08,376.58Zm-3.17-2.49a8.53,8.53,0,0,0,0,5,1.14,1.14,0,0,0,2.16,0,6,6,0,0,0,.37-2.48,6.34,6.34,0,0,0-.36-2.49,1.14,1.14,0,0,0-2.17,0Z"/><path class="cls-9" d="M511.66,372.92v7.31h-.61V373.6l-1.61,1.11-.29-.44,2-1.35Z"/><path class="cls-9" d="M517.13,376.06a2.58,2.58,0,0,1,.49,1.71,3.69,3.69,0,0,1-.24,1.4,2,2,0,0,1-.69.88,1.77,1.77,0,0,1-1,.3,1.7,1.7,0,0,1-1.6-.91,5.15,5.15,0,0,1-.51-2.5,7.74,7.74,0,0,1,.29-2.23,3.16,3.16,0,0,1,.84-1.42,1.79,1.79,0,0,1,1.27-.49,2,2,0,0,1,1.24.43l-.27.42a1.64,1.64,0,0,0-1-.34,1.39,1.39,0,0,0-1.26.87,5.4,5.4,0,0,0-.51,2.36,2,2,0,0,1,1.68-1.07A1.59,1.59,0,0,1,517.13,376.06Zm-.46,3.23a2.87,2.87,0,0,0,.34-1.5,2.28,2.28,0,0,0-.33-1.37,1.05,1.05,0,0,0-.91-.44,1.43,1.43,0,0,0-.89.32,2.59,2.59,0,0,0-.7.9,4.34,4.34,0,0,0,.38,2,1.18,1.18,0,0,0,1.11.67A1.1,1.1,0,0,0,516.67,379.29Z"/><path class="cls-9" d="M552.1,373.32a1.9,1.9,0,0,1,.5,1.36,3.38,3.38,0,0,1-.27,1.34,6.51,6.51,0,0,1-.85,1.41c-.38.51-1,1.26-1.83,2.25h3.12l-.09.55H549v-.51q1.32-1.59,1.92-2.4a6.66,6.66,0,0,0,.85-1.39,3.21,3.21,0,0,0,.24-1.23,1.45,1.45,0,0,0-.33-1,1.16,1.16,0,0,0-.9-.36,1.51,1.51,0,0,0-.8.2,2.54,2.54,0,0,0-.67.62l-.41-.31a2.59,2.59,0,0,1,.85-.78,2,2,0,0,1,1-.26A1.76,1.76,0,0,1,552.1,373.32Z"/><path class="cls-9" d="M558.15,376.58c0,2.52-.69,3.77-2.08,3.77a1.68,1.68,0,0,1-1.56-.94,6,6,0,0,1-.53-2.84c0-2.51.7-3.77,2.09-3.77S558.15,374.06,558.15,376.58ZM555,374.09a8.76,8.76,0,0,0,0,5,1.18,1.18,0,0,0,1.09.78,1.15,1.15,0,0,0,1.08-.78,6.25,6.25,0,0,0,.36-2.48,6.57,6.57,0,0,0-.35-2.49,1.16,1.16,0,0,0-1.09-.78A1.18,1.18,0,0,0,555,374.09Z"/><path class="cls-9" d="M561.74,372.92v7.31h-.62V373.6l-1.6,1.11-.29-.44,2-1.35Z"/><path class="cls-9" d="M566.94,372.92v.48l-2.58,6.92-.57-.18,2.52-6.69h-3.07v-.53Z"/></svg>