<svg id="Layer_1" data-name="Layer 1" xmlns="http://www.w3.org/2000/svg" viewBox="0 0 470 520"><defs><style>.cls-1,.cls-3,.cls-7,.cls-9{fill:none;}.cls-1{stroke:#d9d9d9;stroke-linejoin:round;stroke-dasharray:1 3 1 0;}.cls-1,.cls-9{stroke-linecap:round;}.cls-1,.cls-3,.cls-9{stroke-width:0.5px;}.cls-2{isolation:isolate;}.cls-3{stroke:#043565;}.cls-3,.cls-7,.cls-9{stroke-miterlimit:10;}.cls-4{fill:#eb4b98;}.cls-5{fill:#24a3bb;}.cls-6{fill:#043565;}.cls-7{stroke:#606060;}.cls-8{fill:#666;}.cls-9{stroke:#4d4d4d;}</style></defs><line class="cls-1" x1="89.68" y1="501.19" x2="459.87" y2="501.19"/><line class="cls-1" x1="89.68" y1="477.19" x2="459.87" y2="477.19"/><line class="cls-1" x1="89.68" y1="453.19" x2="459.87" y2="453.19"/><line class="cls-1" x1="89.68" y1="429.19" x2="459.87" y2="429.19"/><line class="cls-1" x1="89.68" y1="405.19" x2="459.87" y2="405.19"/><line class="cls-1" x1="89.68" y1="381.19" x2="459.87" y2="381.19"/><line class="cls-1" x1="89.68" y1="357.19" x2="459.87" y2="357.19"/><line class="cls-1" x1="89.68" y1="333.19" x2="459.87" y2="333.19"/><line class="cls-1" x1="89.68" y1="309.19" x2="459.87" y2="309.19"/><line class="cls-1" x1="89.68" y1="285.19" x2="459.87" y2="285.19"/><line class="cls-1" x1="89.68" y1="261.19" x2="459.87" y2="261.19"/><line class="cls-1" x1="89.68" y1="237.19" x2="459.87" y2="237.19"/><line class="cls-1" x1="89.68" y1="213.19" x2="459.87" y2="213.19"/><line class="cls-1" x1="89.68" y1="189.19" x2="459.87" y2="189.19"/><line class="cls-1" x1="89.68" y1="165.19" x2="459.87" y2="165.19"/><line class="cls-1" x1="89.68" y1="141.19" x2="459.87" y2="141.19"/><line class="cls-1" x1="89.68" y1="117.19" x2="459.87" y2="117.19"/><g class="cls-2"><path d="M18.19,22.05a3.68,3.68,0,0,1-.41,1.75A2.93,2.93,0,0,1,16.54,25a4.23,4.23,0,0,1-2,.43,3.61,3.61,0,0,1-2.66-.92A3.29,3.29,0,0,1,11,22.05V15.54h1.85V22a2.26,2.26,0,0,0,.43,1.52,1.6,1.6,0,0,0,1.31.51,1.64,1.64,0,0,0,1.32-.51A2.32,2.32,0,0,0,16.33,22V15.54h1.86Z"/><path d="M28.58,17.81V19.1L25,23.82h3.66l-.19,1.4H22.93V23.93l3.6-4.72H23.24v-1.4ZM27.67,14l.68.78-1.94,1.75H25.29L23.34,14.8,24,14l1.82,1.23Z"/><path d="M36,22.07H31.32a2.36,2.36,0,0,0,.56,1.54,1.73,1.73,0,0,0,1.26.46,2.54,2.54,0,0,0,.92-.16,4.28,4.28,0,0,0,.93-.5l.74,1a4.23,4.23,0,0,1-2.74,1,3.34,3.34,0,0,1-2.62-1,4.1,4.1,0,0,1-.91-2.82,5.08,5.08,0,0,1,.39-2A3.33,3.33,0,0,1,31,18.11a3.07,3.07,0,0,1,1.77-.51,3,3,0,0,1,2.41,1A4.08,4.08,0,0,1,36,21.34C36,21.43,36,21.68,36,22.07Zm-1.74-1.25c0-1.29-.48-1.94-1.44-1.94a1.23,1.23,0,0,0-1,.48,2.89,2.89,0,0,0-.44,1.55h2.91Z"/><path d="M43.11,18.2a2.33,2.33,0,0,1,.56,1.66v5.36H41.88V20.14a1.47,1.47,0,0,0-.23-.93A.9.9,0,0,0,41,19a1.35,1.35,0,0,0-.84.28,3.68,3.68,0,0,0-.72.84v5.15H37.62V17.81h1.55l.14,1a2.78,2.78,0,0,1,2.26-1.18A2,2,0,0,1,43.11,18.2Z"/><path d="M54.75,18.2a2.33,2.33,0,0,1,.55,1.66v5.36H53.51V20.14a1.47,1.47,0,0,0-.23-.93A.88.88,0,0,0,52.6,19a1.3,1.3,0,0,0-.83.28,3.25,3.25,0,0,0-.72.84v5.15h-1.8V17.81h1.56l.14,1A2.76,2.76,0,0,1,53.2,17.6,2,2,0,0,1,54.75,18.2Z"/><path d="M63.42,22.07H58.77a2.41,2.41,0,0,0,.56,1.54,1.73,1.73,0,0,0,1.26.46,2.6,2.6,0,0,0,.93-.16,4.23,4.23,0,0,0,.92-.5l.74,1a4.21,4.21,0,0,1-2.74,1,3.3,3.3,0,0,1-2.61-1,4.11,4.11,0,0,1-.92-2.82,5.08,5.08,0,0,1,.39-2,3.35,3.35,0,0,1,1.14-1.42,3.37,3.37,0,0,1,4.17.48,4.08,4.08,0,0,1,.85,2.75C63.46,21.43,63.45,21.68,63.42,22.07Zm-1.73-1.25c0-1.29-.49-1.94-1.45-1.94a1.24,1.24,0,0,0-1,.48,3,3,0,0,0-.44,1.55h2.92Z"/><path d="M70.56,18.21a2.29,2.29,0,0,1,.56,1.65v5.36H69.33V20.14a1.47,1.47,0,0,0-.23-.93.87.87,0,0,0-.68-.26,1.36,1.36,0,0,0-.83.28,3.49,3.49,0,0,0-.72.82v5.17h-1.8V14.86l1.8-.18v4A2.69,2.69,0,0,1,69,17.6,2,2,0,0,1,70.56,18.21Z"/><path d="M77.6,17.71l-.3,1.74a2.59,2.59,0,0,0-.66-.08,1.24,1.24,0,0,0-1,.47,3.63,3.63,0,0,0-.6,1.43v3.95H73.21V17.81h1.55l.17,1.46A2.71,2.71,0,0,1,75.7,18a1.76,1.76,0,0,1,1.16-.42A2.83,2.83,0,0,1,77.6,17.71Z"/><path d="M83.84,23.9a.85.85,0,0,0,.43.31l-.38,1.19a2.32,2.32,0,0,1-1-.31,1.54,1.54,0,0,1-.61-.77,2.43,2.43,0,0,1-.94.84,2.92,2.92,0,0,1-1.27.27,2.39,2.39,0,0,1-1.75-.63,2.2,2.2,0,0,1-.64-1.65,2.13,2.13,0,0,1,.87-1.84,4.16,4.16,0,0,1,2.5-.64h.92v-.42a1.26,1.26,0,0,0-.33-1,1.57,1.57,0,0,0-1-.29,6.26,6.26,0,0,0-2,.39l-.42-1.22a7.56,7.56,0,0,1,2.69-.53c1.89,0,2.84.85,2.84,2.55v3.11A1.2,1.2,0,0,0,83.84,23.9Zm-1.9-.68v-1.5H81.2c-1.16,0-1.73.43-1.73,1.29a1.16,1.16,0,0,0,.26.82,1,1,0,0,0,.79.3A1.59,1.59,0,0,0,81.94,23.22Z"/><path d="M87.52,24.56a4.38,4.38,0,0,1-.32,1.79,2.8,2.8,0,0,1-.89,1.11,7.34,7.34,0,0,1-1.5.8L84.24,27a4.43,4.43,0,0,0,.85-.5,1.49,1.49,0,0,0,.47-.67,3.13,3.13,0,0,0,.16-1.12V17.81h1.8Zm-.1-10.18a1,1,0,0,1,.32.77,1,1,0,0,1-.32.77,1.21,1.21,0,0,1-1.62,0,1,1,0,0,1-.31-.77,1,1,0,0,1,.31-.77,1.19,1.19,0,0,1,1.62,0Z"/><path d="M95.71,22.07H91.06a2.31,2.31,0,0,0,.56,1.54,1.72,1.72,0,0,0,1.26.46,2.58,2.58,0,0,0,.92-.16,4.28,4.28,0,0,0,.93-.5l.74,1a4.24,4.24,0,0,1-2.75,1,3.3,3.3,0,0,1-2.61-1,4.1,4.1,0,0,1-.91-2.82,5.08,5.08,0,0,1,.39-2,3.33,3.33,0,0,1,1.13-1.42,3,3,0,0,1,1.77-.51,3,3,0,0,1,2.4,1,4.08,4.08,0,0,1,.86,2.75C95.75,21.43,95.73,21.68,95.71,22.07ZM94,20.82c0-1.29-.48-1.94-1.44-1.94a1.23,1.23,0,0,0-1,.48,2.8,2.8,0,0,0-.44,1.55H94Z"/><path d="M106.81,17.81l-2.41,7.41h-2.14l-2.45-7.41h1.94l1.59,6,1.62-6Z"/><path d="M112.73,17.81V19.1l-3.58,4.72h3.65l-.18,1.4h-5.53V23.93l3.6-4.72H107.4v-1.4Z"/><path d="M120.32,14.84V25.22h-1.58l-.13-.94a2.47,2.47,0,0,1-.89.84,2.59,2.59,0,0,1-3.31-.74,4.9,4.9,0,0,1-.73-2.86,5.16,5.16,0,0,1,.37-2,3.16,3.16,0,0,1,1-1.39,2.55,2.55,0,0,1,1.57-.51,2.59,2.59,0,0,1,1.87.8V14.65Zm-2.48,9a2.39,2.39,0,0,0,.69-.72V19.73a2.7,2.7,0,0,0-.66-.59,1.43,1.43,0,0,0-.76-.19,1.3,1.3,0,0,0-1.13.63,3.67,3.67,0,0,0-.41,1.93,3.89,3.89,0,0,0,.37,2,1.17,1.17,0,0,0,1.06.59A1.55,1.55,0,0,0,117.84,23.84Z"/><path d="M128.51,22.07h-4.65a2.36,2.36,0,0,0,.56,1.54,1.73,1.73,0,0,0,1.26.46,2.54,2.54,0,0,0,.92-.16,4.28,4.28,0,0,0,.93-.5l.74,1a4.23,4.23,0,0,1-2.74,1,3.34,3.34,0,0,1-2.62-1,4.1,4.1,0,0,1-.91-2.82,5.08,5.08,0,0,1,.39-2,3.33,3.33,0,0,1,1.13-1.42,3.07,3.07,0,0,1,1.77-.51,3,3,0,0,1,2.41,1,4.13,4.13,0,0,1,.85,2.75C128.55,21.43,128.54,21.68,128.51,22.07Zm-1.36-8,.69.78-2,1.75h-1.12l-2-1.75.69-.78,1.82,1.23Zm-.38,6.8c0-1.29-.48-1.94-1.44-1.94a1.23,1.23,0,0,0-1,.48,2.89,2.89,0,0,0-.44,1.55h2.91Z"/><path d="M130.57,24.93a1.93,1.93,0,0,1-.48-1.4V14.84l1.79-.19v8.82c0,.34.14.52.42.52a1.54,1.54,0,0,0,.42-.07l.38,1.26a3,3,0,0,1-1.19.25A1.79,1.79,0,0,1,130.57,24.93Z"/><path d="M139.83,23.9a.82.82,0,0,0,.42.31l-.37,1.19a2.28,2.28,0,0,1-1-.31,1.54,1.54,0,0,1-.61-.77,2.39,2.39,0,0,1-1,.84,2.91,2.91,0,0,1-1.26.27,2.38,2.38,0,0,1-1.75-.63,2.21,2.21,0,0,1-.65-1.65,2.11,2.11,0,0,1,.88-1.84,4.14,4.14,0,0,1,2.5-.64h.92v-.42a1.26,1.26,0,0,0-.33-1,1.6,1.6,0,0,0-1.06-.29,6.31,6.31,0,0,0-2,.39l-.42-1.22a7.61,7.61,0,0,1,2.69-.53c1.9,0,2.84.85,2.84,2.55v3.11A1.19,1.19,0,0,0,139.83,23.9Zm-1.9-10.16.73,1.4-3.17,1.26-.5-.91Zm0,9.48v-1.5h-.74q-1.74,0-1.74,1.29a1.16,1.16,0,0,0,.27.82,1,1,0,0,0,.78.3A1.6,1.6,0,0,0,137.93,23.22Z"/><path d="M147.36,18.2a2.33,2.33,0,0,1,.55,1.66v5.36h-1.79V20.14a1.47,1.47,0,0,0-.23-.93.88.88,0,0,0-.68-.26,1.3,1.3,0,0,0-.83.28,3.25,3.25,0,0,0-.72.84v5.15h-1.8V17.81h1.56l.14,1a2.76,2.76,0,0,1,2.25-1.18A2,2,0,0,1,147.36,18.2Z"/><path d="M152,13.74l.73,1.4-3.17,1.26-.5-.91Zm-.17,4.07v7.41H150V17.81Z"/><path d="M163.4,17.81,161,25.22h-2.14l-2.45-7.41h1.94l1.58,6,1.63-6Z"/><path d="M174.23,14.84V25.22h-1.58l-.13-.94a2.47,2.47,0,0,1-.89.84,2.33,2.33,0,0,1-1.22.31,2.39,2.39,0,0,1-2.09-1.05,5,5,0,0,1-.72-2.86,5.35,5.35,0,0,1,.36-2,3.16,3.16,0,0,1,1-1.39,2.62,2.62,0,0,1,3.44.29V14.65Zm-2.48,9a2.28,2.28,0,0,0,.69-.72V19.73a2.67,2.67,0,0,0-.65-.59A1.48,1.48,0,0,0,171,19a1.28,1.28,0,0,0-1.13.63,3.58,3.58,0,0,0-.41,1.93,4,4,0,0,0,.36,2,1.18,1.18,0,0,0,1.06.59A1.55,1.55,0,0,0,171.75,23.84Z"/><path d="M182.42,22.07h-4.65a2.41,2.41,0,0,0,.56,1.54,1.73,1.73,0,0,0,1.26.46,2.6,2.6,0,0,0,.93-.16,4.23,4.23,0,0,0,.92-.5l.74,1a4.21,4.21,0,0,1-2.74,1,3.3,3.3,0,0,1-2.61-1,4.11,4.11,0,0,1-.92-2.82,5.08,5.08,0,0,1,.39-2,3.28,3.28,0,0,1,1.14-1.42,3.37,3.37,0,0,1,4.17.48,4.08,4.08,0,0,1,.85,2.75C182.46,21.43,182.45,21.68,182.42,22.07Zm-2.11-8.33.72,1.4-3.16,1.26-.5-.91Zm.38,7.08c0-1.29-.49-1.94-1.45-1.94a1.23,1.23,0,0,0-1,.48,3,3,0,0,0-.44,1.55h2.92Z"/><path d="M184.49,24.93a1.9,1.9,0,0,1-.49-1.4V14.84l1.8-.19v8.82c0,.34.14.52.42.52a1.6,1.6,0,0,0,.42-.07l.37,1.26a3,3,0,0,1-1.19.25A1.76,1.76,0,0,1,184.49,24.93Z"/><path d="M192.42,17.81a3.4,3.4,0,0,1,1.1.66l-.79,1.08a3.22,3.22,0,0,0-.73-.41,2.39,2.39,0,0,0-.77-.12c-1.11,0-1.67.84-1.67,2.53a3.18,3.18,0,0,0,.43,1.86,1.5,1.5,0,0,0,1.24.56,2.09,2.09,0,0,0,.72-.12,5,5,0,0,0,.78-.41l.79,1.14a3.72,3.72,0,0,1-2.39.85,3.56,3.56,0,0,1-1.85-.47,3.07,3.07,0,0,1-1.2-1.34,4.64,4.64,0,0,1-.42-2,4.86,4.86,0,0,1,.42-2.08,3.23,3.23,0,0,1,1.2-1.4,3.34,3.34,0,0,1,1.83-.5A3.79,3.79,0,0,1,192.42,17.81Z"/><path d="M200.58,22.07h-4.65a2.36,2.36,0,0,0,.56,1.54,1.73,1.73,0,0,0,1.26.46,2.6,2.6,0,0,0,.93-.16,4.47,4.47,0,0,0,.92-.5l.74,1a4.21,4.21,0,0,1-2.74,1,3.3,3.3,0,0,1-2.61-1,4.06,4.06,0,0,1-.92-2.82,5.08,5.08,0,0,1,.39-2,3.28,3.28,0,0,1,1.14-1.42,3.37,3.37,0,0,1,4.17.48,4.08,4.08,0,0,1,.85,2.75C200.62,21.43,200.61,21.68,200.58,22.07Zm-1.74-1.25c0-1.29-.48-1.94-1.44-1.94a1.23,1.23,0,0,0-1,.48,2.89,2.89,0,0,0-.44,1.55h2.91Z"/><path d="M210.55,17.81V19.1L207,23.82h3.66l-.18,1.4h-5.53V23.93l3.59-4.72h-3.29v-1.4ZM209.64,14l.68.78-1.94,1.75h-1.12l-1.95-1.75L206,14l1.82,1.23Z"/><path d="M213.72,14.38a1,1,0,0,1,.31.77,1,1,0,0,1-.31.77,1.23,1.23,0,0,1-1.63,0,1,1,0,0,1-.31-.77,1,1,0,0,1,.31-.77,1.2,1.2,0,0,1,1.63,0Zm.09,3.43v7.41H212V17.81Z"/><path d="M221.91,17.81l-2.4,7.41h-2.15l-2.45-7.41h2l1.58,6,1.63-6Z"/><path d="M228.52,18.65a4.18,4.18,0,0,1,.91,2.86,4.75,4.75,0,0,1-.42,2,3.23,3.23,0,0,1-1.2,1.38,3.4,3.4,0,0,1-1.86.49,3.25,3.25,0,0,1-2.56-1,4.19,4.19,0,0,1-.93-2.88,4.72,4.72,0,0,1,.42-2.05,3.29,3.29,0,0,1,1.21-1.37A3.54,3.54,0,0,1,226,17.6,3.22,3.22,0,0,1,228.52,18.65Zm-4.17,2.86a3.65,3.65,0,0,0,.4,1.94,1.34,1.34,0,0,0,1.2.62,1.31,1.31,0,0,0,1.19-.63,3.63,3.63,0,0,0,.4-1.93,3.63,3.63,0,0,0-.4-1.93A1.31,1.31,0,0,0,226,19C224.89,19,224.35,19.81,224.35,21.51Z"/><path d="M235.36,24.87a2.86,2.86,0,0,1-.88.42,3.64,3.64,0,0,1-1,.14,2.24,2.24,0,0,1-1.66-.62,2.6,2.6,0,0,1-.56-1.8V19.1h-1.16V17.81h1.16V16.17l1.79-.21v1.85h1.72l-.18,1.29h-1.54V23a1.26,1.26,0,0,0,.19.79.69.69,0,0,0,.59.24,1.85,1.85,0,0,0,.89-.27Z"/><path d="M241.83,23.9a.85.85,0,0,0,.43.31l-.38,1.19a2.32,2.32,0,0,1-1-.31,1.54,1.54,0,0,1-.61-.77,2.43,2.43,0,0,1-.94.84,2.92,2.92,0,0,1-1.27.27,2.39,2.39,0,0,1-1.75-.63,2.2,2.2,0,0,1-.64-1.65,2.13,2.13,0,0,1,.87-1.84,4.16,4.16,0,0,1,2.5-.64h.92v-.42a1.26,1.26,0,0,0-.33-1,1.59,1.59,0,0,0-1-.29,6.26,6.26,0,0,0-2,.39l-.42-1.22a7.56,7.56,0,0,1,2.69-.53c1.89,0,2.84.85,2.84,2.55v3.11A1.2,1.2,0,0,0,241.83,23.9Zm-1.9-.68v-1.5h-.74c-1.16,0-1.73.43-1.73,1.29a1.16,1.16,0,0,0,.26.82,1,1,0,0,0,.79.3A1.59,1.59,0,0,0,239.93,23.22Z"/><path d="M252.18,17.81V19.1l-3.58,4.72h3.65l-.18,1.4h-5.53V23.93l3.6-4.72h-3.29v-1.4Z"/><path d="M259.05,23.9a.85.85,0,0,0,.43.31l-.38,1.19a2.32,2.32,0,0,1-1-.31,1.54,1.54,0,0,1-.61-.77,2.43,2.43,0,0,1-.94.84,2.92,2.92,0,0,1-1.27.27,2.39,2.39,0,0,1-1.75-.63,2.2,2.2,0,0,1-.64-1.65,2.13,2.13,0,0,1,.87-1.84,4.16,4.16,0,0,1,2.5-.64h.92v-.42a1.26,1.26,0,0,0-.33-1,1.59,1.59,0,0,0-1-.29,6.26,6.26,0,0,0-2,.39l-.42-1.22a7.55,7.55,0,0,1,2.68-.53q2.85,0,2.85,2.55v3.11A1.2,1.2,0,0,0,259.05,23.9Zm-1.9-10.16.73,1.4-3.16,1.26-.51-.91Zm0,9.48v-1.5h-.74q-1.74,0-1.74,1.29a1.16,1.16,0,0,0,.27.82,1,1,0,0,0,.79.3A1.59,1.59,0,0,0,257.15,23.22Z"/><path d="M265.92,18.49l-.7,1.05a3.44,3.44,0,0,0-1.86-.61,1.41,1.41,0,0,0-.83.21.6.6,0,0,0-.29.53.7.7,0,0,0,.12.42,1.15,1.15,0,0,0,.46.32,6.58,6.58,0,0,0,1,.33,4.22,4.22,0,0,1,1.78.85,1.92,1.92,0,0,1,.59,1.49,2,2,0,0,1-.9,1.73,3.86,3.86,0,0,1-2.23.62,4.67,4.67,0,0,1-1.66-.28,4,4,0,0,1-1.29-.77l.9-1a3.25,3.25,0,0,0,2,.73,1.71,1.71,0,0,0,1-.24.75.75,0,0,0,.36-.66.88.88,0,0,0-.14-.51,1.05,1.05,0,0,0-.47-.33,9.89,9.89,0,0,0-1.07-.36,3.63,3.63,0,0,1-1.67-.86,1.93,1.93,0,0,1-.53-1.38,1.84,1.84,0,0,1,.36-1.11,2.4,2.4,0,0,1,1-.77,3.92,3.92,0,0,1,1.49-.28A4.19,4.19,0,0,1,265.92,18.49Z"/><path d="M273.08,23.9a.86.86,0,0,0,.42.31l-.37,1.19a2.28,2.28,0,0,1-1-.31,1.54,1.54,0,0,1-.61-.77,2.39,2.39,0,0,1-.95.84,2.87,2.87,0,0,1-1.26.27,2.39,2.39,0,0,1-1.75-.63,2.21,2.21,0,0,1-.65-1.65,2.11,2.11,0,0,1,.88-1.84,4.14,4.14,0,0,1,2.5-.64h.92v-.42a1.26,1.26,0,0,0-.33-1,1.6,1.6,0,0,0-1.06-.29,6.31,6.31,0,0,0-2,.39l-.42-1.22a7.65,7.65,0,0,1,2.69-.53q2.85,0,2.85,2.55v3.11A1.2,1.2,0,0,0,273.08,23.9Zm-1.9-.68v-1.5h-.74q-1.74,0-1.74,1.29a1.16,1.16,0,0,0,.27.82,1,1,0,0,0,.78.3A1.59,1.59,0,0,0,271.18,23.22Z"/><path d="M281.34,14.84V25.22h-1.58l-.12-.94a2.55,2.55,0,0,1-.89.84,2.59,2.59,0,0,1-3.31-.74,4.9,4.9,0,0,1-.73-2.86,5.35,5.35,0,0,1,.36-2,3.18,3.18,0,0,1,1.05-1.39,2.53,2.53,0,0,1,1.57-.51,2.55,2.55,0,0,1,1.86.8V14.65Zm-2.47,9a2.26,2.26,0,0,0,.68-.72V19.73a2.5,2.5,0,0,0-.65-.59,1.45,1.45,0,0,0-.76-.19,1.29,1.29,0,0,0-1.13.63,3.67,3.67,0,0,0-.41,1.93,4,4,0,0,0,.36,2,1.2,1.2,0,0,0,1.07.59A1.6,1.6,0,0,0,278.87,23.84Z"/><path d="M289,18.2a2.37,2.37,0,0,1,.55,1.66v5.36h-1.79V20.14a1.47,1.47,0,0,0-.23-.93.88.88,0,0,0-.68-.26,1.35,1.35,0,0,0-.84.28,3.68,3.68,0,0,0-.72.84v5.15H283.5V17.81h1.55l.15,1a2.75,2.75,0,0,1,2.25-1.18A2,2,0,0,1,289,18.2Z"/><path d="M293.59,13.74l.73,1.4-3.16,1.26-.5-.91Zm-.16,4.07v7.41h-1.8V17.81Z"/><path d="M303.48,17.71l-.31,1.74a2.48,2.48,0,0,0-.66-.08,1.22,1.22,0,0,0-1,.47,3.48,3.48,0,0,0-.61,1.43v3.95h-1.79V17.81h1.56l.16,1.46a2.8,2.8,0,0,1,.77-1.23,1.79,1.79,0,0,1,1.17-.42A2.89,2.89,0,0,1,303.48,17.71Z"/><path d="M309.76,18.65a4.18,4.18,0,0,1,.91,2.86,4.75,4.75,0,0,1-.42,2,3.23,3.23,0,0,1-1.2,1.38,3.4,3.4,0,0,1-1.86.49,3.25,3.25,0,0,1-2.56-1,4.19,4.19,0,0,1-.93-2.88,4.72,4.72,0,0,1,.42-2.05,3.29,3.29,0,0,1,1.21-1.37,3.54,3.54,0,0,1,1.87-.49A3.22,3.22,0,0,1,309.76,18.65Zm-4.17,2.86a3.75,3.75,0,0,0,.4,1.94,1.46,1.46,0,0,0,2.4,0,3.74,3.74,0,0,0,.39-1.93,3.74,3.74,0,0,0-.39-1.93A1.33,1.33,0,0,0,307.2,19C306.13,19,305.59,19.81,305.59,21.51Z"/><path d="M312.77,24.93a1.94,1.94,0,0,1-.49-1.4V14.84l1.8-.19v8.82c0,.34.14.52.42.52a1.54,1.54,0,0,0,.42-.07l.37,1.26a3,3,0,0,1-1.19.25A1.76,1.76,0,0,1,312.77,24.93Z"/><path d="M318.19,14.38a1,1,0,0,1,.31.77,1,1,0,0,1-.31.77,1.12,1.12,0,0,1-.82.31,1.09,1.09,0,0,1-.81-.31,1,1,0,0,1-.31-.77,1,1,0,0,1,.31-.77,1.1,1.1,0,0,1,.81-.32A1.12,1.12,0,0,1,318.19,14.38Zm.09,3.43v7.41h-1.8V17.81Z"/></g><g class="cls-2"><path d="M16.18,45.24h-.87l-3.55-6.81c.06.91.09,1.78.09,2.59v4.22h-.63V37.7h.85l3.57,6.81c-.06-.85-.09-1.59-.09-2.23V37.7h.63Z"/><path d="M22.26,44.61a.71.71,0,0,0,.37.3l-.15.45a1.14,1.14,0,0,1-.61-.3,1.26,1.26,0,0,1-.28-.67,2,2,0,0,1-1.79,1,1.77,1.77,0,0,1-1.3-.47A1.66,1.66,0,0,1,18,43.64a1.62,1.62,0,0,1,.63-1.37,2.78,2.78,0,0,1,1.75-.49h1.1v-.56a1.43,1.43,0,0,0-.3-1,1.41,1.41,0,0,0-1-.31,4.65,4.65,0,0,0-1.56.33l-.16-.48a4.85,4.85,0,0,1,1.81-.39,1.64,1.64,0,0,1,1.88,1.83V44A1.31,1.31,0,0,0,22.26,44.61Zm-.76-.78V42.24h-1a2.3,2.3,0,0,0-1.34.34,1.19,1.19,0,0,0-.46,1,1.24,1.24,0,0,0,.32.91,1.21,1.21,0,0,0,.89.32A1.74,1.74,0,0,0,21.5,43.83Z"/><path d="M28.57,37.14v8.1H28l-.08-.88a1.91,1.91,0,0,1-1.73,1,1.86,1.86,0,0,1-1.58-.8,3.67,3.67,0,0,1-.57-2.17,4.29,4.29,0,0,1,.27-1.58,2.38,2.38,0,0,1,.78-1.06,1.92,1.92,0,0,1,1.2-.39,2,2,0,0,1,1.62.78V37.06Zm-1.33,7.42a2.42,2.42,0,0,0,.69-.8v-3a1.8,1.8,0,0,0-1.51-.87,1.46,1.46,0,0,0-1.24.65,3.11,3.11,0,0,0-.44,1.84,3.31,3.31,0,0,0,.42,1.82,1.3,1.3,0,0,0,1.15.63A1.55,1.55,0,0,0,27.24,44.56Z"/><path d="M35,42.61H31.12a2.68,2.68,0,0,0,.53,1.66,1.58,1.58,0,0,0,1.26.55,2.2,2.2,0,0,0,.8-.14,3.72,3.72,0,0,0,.75-.43l.3.4a3.27,3.27,0,0,1-.88.53,2.7,2.7,0,0,1-1,.18,2.22,2.22,0,0,1-1.8-.78,3.34,3.34,0,0,1-.64-2.17,4.16,4.16,0,0,1,.28-1.6,2.32,2.32,0,0,1,.8-1.07,2,2,0,0,1,1.22-.38,2,2,0,0,1,1.67.74,3.29,3.29,0,0,1,.57,2C35,42.31,35,42.46,35,42.61ZM34.35,42a2.52,2.52,0,0,0-.4-1.52,1.54,1.54,0,0,0-2.35,0,2.86,2.86,0,0,0-.48,1.67h3.23Zm-.25-5.17.29.33L33,38.27h-.4l-1.43-1.16.29-.33,1.34.92Z"/><path d="M37.43,45a3.52,3.52,0,0,1-.16,1.19,1.68,1.68,0,0,1-.49.72,4.35,4.35,0,0,1-.9.53L35.69,47a2.81,2.81,0,0,0,.65-.42,1.24,1.24,0,0,0,.34-.56,3.22,3.22,0,0,0,.11-1V39.48h.64Zm0-8a.46.46,0,0,1,.14.34.42.42,0,0,1-.14.32.45.45,0,0,1-.35.14.46.46,0,0,1-.34-.14.41.41,0,0,1-.13-.32.45.45,0,0,1,.13-.34A.49.49,0,0,1,37.1,37,.48.48,0,0,1,37.45,37.08Z"/><path d="M43.82,42.61H40a2.68,2.68,0,0,0,.54,1.66,1.58,1.58,0,0,0,1.26.55,2.14,2.14,0,0,0,.79-.14,3.52,3.52,0,0,0,.76-.43l.29.4a3,3,0,0,1-.88.53,2.66,2.66,0,0,1-1,.18A2.2,2.2,0,0,1,40,44.58a3.34,3.34,0,0,1-.65-2.17,4.35,4.35,0,0,1,.28-1.6,2.4,2.4,0,0,1,.81-1.07,2.2,2.2,0,0,1,2.88.36,3.29,3.29,0,0,1,.57,2A3.54,3.54,0,0,1,43.82,42.61Zm-.6-.66a2.59,2.59,0,0,0-.4-1.52,1.54,1.54,0,0,0-2.35,0A2.79,2.79,0,0,0,40,42.11h3.24Z"/><path d="M52.83,37.14v8.1h-.55l-.08-.88a1.9,1.9,0,0,1-1.72,1,1.84,1.84,0,0,1-1.58-.8,3.6,3.6,0,0,1-.58-2.17,4.29,4.29,0,0,1,.27-1.58,2.38,2.38,0,0,1,.78-1.06,1.93,1.93,0,0,1,1.21-.39,2,2,0,0,1,1.61.78V37.06Zm-1.32,7.42a2.3,2.3,0,0,0,.68-.8v-3a1.8,1.8,0,0,0-1.5-.87,1.44,1.44,0,0,0-1.24.65A3.19,3.19,0,0,0,49,42.38a3.31,3.31,0,0,0,.42,1.82,1.33,1.33,0,0,0,1.16.63A1.59,1.59,0,0,0,51.51,44.56Z"/><path d="M58.93,40.15a3.34,3.34,0,0,1,.64,2.19,3.4,3.4,0,0,1-.65,2.21,2.18,2.18,0,0,1-1.79.81,2.15,2.15,0,0,1-1.78-.8,3.39,3.39,0,0,1-.65-2.2,3.92,3.92,0,0,1,.3-1.59,2.4,2.4,0,0,1,.85-1.05,2.29,2.29,0,0,1,1.29-.36A2.17,2.17,0,0,1,58.93,40.15Zm-3.08.38a3,3,0,0,0-.47,1.83,3.13,3.13,0,0,0,.46,1.83,1.49,1.49,0,0,0,1.29.63,1.55,1.55,0,0,0,1.31-.63,3.93,3.93,0,0,0,0-3.67,1.54,1.54,0,0,0-1.31-.62A1.5,1.5,0,0,0,55.85,40.53Z"/><path d="M64.48,39.48V40l-3.21,4.71h3.19l-.07.55H60.52v-.5L63.73,40H60.78v-.55Zm-.56-2.7.29.33-1.42,1.16h-.4L61,37.11l.29-.33,1.34.92Z"/><path d="M66.68,37.08a.45.45,0,0,1,.13.34.41.41,0,0,1-.13.32.47.47,0,0,1-.35.14.46.46,0,0,1-.34-.14.41.41,0,0,1-.13-.32.45.45,0,0,1,.13-.34.49.49,0,0,1,.34-.13A.5.5,0,0,1,66.68,37.08Zm0,2.4v5.76H66V39.48Z"/><path d="M71.61,45a2.1,2.1,0,0,1-1.21.37,1.38,1.38,0,0,1-1-.39A1.57,1.57,0,0,1,69,43.84V40H68v-.52h1V38.11l.64-.08v1.45h1.48L71,40H69.63v3.81a1.16,1.16,0,0,0,.21.75.81.81,0,0,0,.64.25,1.78,1.78,0,0,0,.88-.26Z"/><path d="M73.89,36.63l.28.58L72,38.14l-.21-.37Zm-.51,2.85v5.76h-.64V39.48Z"/><path d="M81.88,39.48V40l-3.21,4.71h3.19l-.07.55H77.92v-.5L81.13,40H78.19v-.55Zm-.56-2.7.29.33-1.42,1.16h-.4l-1.43-1.16.29-.33L80,37.7Z"/><path d="M87.41,42.61H83.58a2.62,2.62,0,0,0,.53,1.66,1.58,1.58,0,0,0,1.26.55,2.2,2.2,0,0,0,.8-.14,3.72,3.72,0,0,0,.75-.43l.3.4a3.27,3.27,0,0,1-.88.53,2.7,2.7,0,0,1-1,.18,2.22,2.22,0,0,1-1.8-.78,3.34,3.34,0,0,1-.65-2.17,4.35,4.35,0,0,1,.28-1.6A2.4,2.4,0,0,1,84,39.74a2,2,0,0,1,1.21-.38,2,2,0,0,1,1.67.74,3.23,3.23,0,0,1,.58,2A3.48,3.48,0,0,1,87.41,42.61Zm-.6-.66a2.52,2.52,0,0,0-.4-1.52,1.54,1.54,0,0,0-2.35,0,2.86,2.86,0,0,0-.48,1.67h3.23Z"/><path d="M93,39.82a1.91,1.91,0,0,1,.41,1.3v4.12h-.64v-4a1.54,1.54,0,0,0-.27-1,1,1,0,0,0-.82-.32,1.64,1.64,0,0,0-1,.3,3.39,3.39,0,0,0-.81.89v4.17h-.64V39.48h.55l.07,1a2.78,2.78,0,0,1,.83-.81,2.14,2.14,0,0,1,1.09-.29A1.57,1.57,0,0,1,93,39.82Z"/><path d="M102.58,39.48l-2,5.76H99.8l-2.06-5.76h.71l1.75,5.19,1.7-5.19Z"/><path d="M108,42.61h-3.84a2.68,2.68,0,0,0,.54,1.66,1.58,1.58,0,0,0,1.26.55,2.14,2.14,0,0,0,.79-.14,3.77,3.77,0,0,0,.76-.43l.29.4a3.13,3.13,0,0,1-.88.53,2.66,2.66,0,0,1-1,.18,2.2,2.2,0,0,1-1.79-.78,3.34,3.34,0,0,1-.65-2.17,4.16,4.16,0,0,1,.28-1.6,2.46,2.46,0,0,1,.8-1.07,2.06,2.06,0,0,1,1.22-.38,2,2,0,0,1,1.67.74,3.29,3.29,0,0,1,.57,2A3.54,3.54,0,0,1,108,42.61Zm-.6-.66a2.59,2.59,0,0,0-.4-1.52,1.54,1.54,0,0,0-2.35,0,2.79,2.79,0,0,0-.49,1.67h3.24Z"/><path d="M116.7,39.48l-2,5.76h-.8l-2-5.76h.7l1.75,5.19,1.7-5.19Z"/><path d="M119.86,45.26a5.19,5.19,0,0,1-.5,1.1,2.32,2.32,0,0,1-.72.71,3.38,3.38,0,0,1-1.13.41l-.07-.5a2.86,2.86,0,0,0,.9-.35,1.61,1.61,0,0,0,.52-.52,4.58,4.58,0,0,0,.39-.87H119l-2-5.76h.69l1.74,5.28,1.7-5.28h.67Z"/><path d="M127.09,40.13a3.72,3.72,0,0,1,.55,2.2,3.71,3.71,0,0,1-.58,2.21,1.87,1.87,0,0,1-1.61.82,2,2,0,0,1-.94-.23,2.23,2.23,0,0,1-.71-.62l-.06.73h-.56v-8.1l.63-.08v3.23a2.07,2.07,0,0,1,1.73-.93A1.8,1.8,0,0,1,127.09,40.13Zm-.55,4.07a3.43,3.43,0,0,0,.42-1.87c0-1.63-.52-2.44-1.55-2.44a1.53,1.53,0,0,0-.89.26,2.75,2.75,0,0,0-.71.73v3a2.26,2.26,0,0,0,.66.68,1.54,1.54,0,0,0,.86.25A1.39,1.39,0,0,0,126.54,44.2Z"/><path d="M132.37,39.43l-.12.6a2.1,2.1,0,0,0-.51-.06,1.19,1.19,0,0,0-.94.42,3.69,3.69,0,0,0-.6,1.33v3.52h-.63V39.48h.55l0,1.29a2.3,2.3,0,0,1,.63-1.06,1.49,1.49,0,0,1,1-.35A1.85,1.85,0,0,1,132.37,39.43Z"/><path d="M137,44.61a.75.75,0,0,0,.37.3l-.14.45a1.1,1.1,0,0,1-.61-.3,1.19,1.19,0,0,1-.28-.67,2,2,0,0,1-1.79,1,1.81,1.81,0,0,1-1.31-.47,1.66,1.66,0,0,1-.48-1.25,1.63,1.63,0,0,1,.64-1.37,2.76,2.76,0,0,1,1.75-.49h1.1v-.56a1.39,1.39,0,0,0-.31-1,1.37,1.37,0,0,0-1-.31,4.65,4.65,0,0,0-1.56.33l-.17-.48a4.89,4.89,0,0,1,1.82-.39,1.64,1.64,0,0,1,1.88,1.83V44A1.46,1.46,0,0,0,137,44.61Zm-.75-.78V42.24h-1a2.28,2.28,0,0,0-1.34.34,1.24,1.24,0,0,0,.75,2.26A1.74,1.74,0,0,0,136.22,43.83Z"/><path d="M142.91,39.82a1.86,1.86,0,0,1,.42,1.3v4.12h-.64v-4a1.49,1.49,0,0,0-.28-1,1,1,0,0,0-.81-.32,1.62,1.62,0,0,0-1,.3,3.08,3.08,0,0,0-.81.89v4.17h-.64V39.48h.55l.07,1a2.78,2.78,0,0,1,.83-.81,2.11,2.11,0,0,1,1.09-.29A1.53,1.53,0,0,1,142.91,39.82Z"/><path d="M147.34,45.26a5.19,5.19,0,0,1-.5,1.1,2.56,2.56,0,0,1-.72.71,3.38,3.38,0,0,1-1.13.41l-.07-.5a3,3,0,0,0,.9-.35,1.72,1.72,0,0,0,.52-.52,6.33,6.33,0,0,0,.39-.87h-.22l-2-5.76h.7l1.74,5.28,1.7-5.28h.67Zm.4-8.63.28.58-2.14.93-.21-.37Z"/><path d="M153.48,39.5a2.42,2.42,0,0,1,.75.44l-.32.42a1.9,1.9,0,0,0-1.28-.45,1.54,1.54,0,0,0-1.29.63,3,3,0,0,0-.49,1.85,2.84,2.84,0,0,0,.48,1.8,1.57,1.57,0,0,0,1.29.61,1.75,1.75,0,0,0,.7-.13,2.54,2.54,0,0,0,.63-.36l.31.43a2.47,2.47,0,0,1-1.65.62A2.25,2.25,0,0,1,150.47,44a3.89,3.89,0,0,1-.3-1.59,4,4,0,0,1,.3-1.6,2.45,2.45,0,0,1,.85-1.06,2.24,2.24,0,0,1,1.28-.38A2.66,2.66,0,0,1,153.48,39.5Z"/><path d="M159.52,39.83a1.86,1.86,0,0,1,.42,1.29v4.12h-.64v-4c0-.89-.36-1.33-1.09-1.33a1.62,1.62,0,0,0-1,.3,3.23,3.23,0,0,0-.81.89v4.17h-.64v-8.1l.64-.08v3.38a2.27,2.27,0,0,1,1.9-1.08A1.53,1.53,0,0,1,159.52,39.83Z"/><path d="M169.34,42.61H165.5a2.68,2.68,0,0,0,.54,1.66,1.58,1.58,0,0,0,1.26.55,2.14,2.14,0,0,0,.79-.14,3.77,3.77,0,0,0,.76-.43l.29.4a3,3,0,0,1-.88.53,2.66,2.66,0,0,1-1,.18,2.2,2.2,0,0,1-1.79-.78,3.34,3.34,0,0,1-.65-2.17,4.16,4.16,0,0,1,.28-1.6,2.4,2.4,0,0,1,.81-1.07,2.2,2.2,0,0,1,2.88.36,3.29,3.29,0,0,1,.57,2A3.54,3.54,0,0,1,169.34,42.61Zm-.6-.66a2.59,2.59,0,0,0-.4-1.52,1.54,1.54,0,0,0-2.35,0,2.79,2.79,0,0,0-.49,1.67h3.24Z"/><path d="M175,39.48l-2,5.76h-.79l-2.05-5.76h.7l1.75,5.19,1.7-5.19Z"/><path d="M179.13,39.43,179,40a2.1,2.1,0,0,0-.51-.06,1.19,1.19,0,0,0-.94.42,3.69,3.69,0,0,0-.6,1.33v3.52h-.63V39.48h.55l.05,1.29a2.39,2.39,0,0,1,.63-1.06,1.49,1.49,0,0,1,1-.35A1.85,1.85,0,0,1,179.13,39.43Z"/><path d="M183.87,40.15a3.34,3.34,0,0,1,.64,2.19,3.46,3.46,0,0,1-.65,2.21,2.39,2.39,0,0,1-3.58,0,3.39,3.39,0,0,1-.64-2.2,4.1,4.1,0,0,1,.29-1.59,2.4,2.4,0,0,1,.85-1.05,2.33,2.33,0,0,1,1.3-.36A2.18,2.18,0,0,1,183.87,40.15Zm-3.09.38a3.87,3.87,0,0,0,0,3.66,1.49,1.49,0,0,0,1.29.63,1.52,1.52,0,0,0,1.3-.63,3.08,3.08,0,0,0,.47-1.85,3,3,0,0,0-.46-1.82,1.66,1.66,0,0,0-2.6,0Z"/><path d="M190.32,40.14a3.87,3.87,0,0,1,.53,2.19,3.81,3.81,0,0,1-.57,2.21,1.87,1.87,0,0,1-1.62.82,2,2,0,0,1-1.64-.8V47.4l-.64.09v-8h.55l.06.84a2.36,2.36,0,0,1,.77-.71,2.15,2.15,0,0,1,1-.25A1.75,1.75,0,0,1,190.32,40.14Zm-.57,4a3.38,3.38,0,0,0,.41-1.86c0-1.63-.5-2.44-1.52-2.44a1.56,1.56,0,0,0-.9.26,3.33,3.33,0,0,0-.72.73v3.06a1.76,1.76,0,0,0,1.52.88A1.36,1.36,0,0,0,189.75,44.19Z"/><path d="M195.16,39.52A3.52,3.52,0,0,1,196,40l-.3.42A2.75,2.75,0,0,0,195,40a2.11,2.11,0,0,0-.77-.13,1.52,1.52,0,0,0-.92.26.83.83,0,0,0-.35.71.78.78,0,0,0,.3.65,3.37,3.37,0,0,0,1.09.44,3.57,3.57,0,0,1,1.42.63,1.4,1.4,0,0,1,.43,1.1,1.47,1.47,0,0,1-.59,1.23,2.4,2.4,0,0,1-1.49.45,3.08,3.08,0,0,1-2.06-.74l.36-.41a2.75,2.75,0,0,0,.78.46,2.59,2.59,0,0,0,.91.15,1.7,1.7,0,0,0,1-.29,1,1,0,0,0,.39-.81,1,1,0,0,0-.13-.57,1,1,0,0,0-.45-.38,5.17,5.17,0,0,0-.94-.33,3.14,3.14,0,0,1-1.31-.6,1.25,1.25,0,0,1-.4-1,1.27,1.27,0,0,1,.25-.78,1.7,1.7,0,0,1,.69-.54,2.5,2.5,0,0,1,1-.19A3.05,3.05,0,0,1,195.16,39.52Z"/><path d="M198.51,37.06v8.18h-.63v-8.1Zm3.23,2.42-2.42,2.58L202,45.24h-.77l-2.64-3.15L201,39.48Z"/><path d="M205.08,45.26a4.72,4.72,0,0,1-.51,1.1,2.4,2.4,0,0,1-.71.71,3.38,3.38,0,0,1-1.13.41l-.07-.5a3,3,0,0,0,.9-.35,1.58,1.58,0,0,0,.51-.52,4.58,4.58,0,0,0,.39-.87h-.22l-2-5.76h.7l1.73,5.28,1.71-5.28h.67Zm.4-8.63.28.58-2.14.93-.21-.37Z"/><path d="M211.22,39.5a2.54,2.54,0,0,1,.75.44l-.32.42a1.9,1.9,0,0,0-1.28-.45,1.57,1.57,0,0,0-1.3.63,3,3,0,0,0-.48,1.85,2.84,2.84,0,0,0,.48,1.8,1.57,1.57,0,0,0,1.29.61,1.75,1.75,0,0,0,.7-.13,2.54,2.54,0,0,0,.63-.36l.31.43a2.47,2.47,0,0,1-1.65.62A2.25,2.25,0,0,1,208.21,44a3.89,3.89,0,0,1-.3-1.59,4,4,0,0,1,.3-1.6,2.45,2.45,0,0,1,.85-1.06,2.22,2.22,0,0,1,1.28-.38A2.66,2.66,0,0,1,211.22,39.5Z"/><path d="M217.26,39.83a1.86,1.86,0,0,1,.42,1.29v4.12H217v-4c0-.89-.37-1.33-1.09-1.33a1.62,1.62,0,0,0-1,.3,3.08,3.08,0,0,0-.81.89v4.17h-.64v-8.1l.64-.08v3.38a2.26,2.26,0,0,1,1.9-1.08A1.53,1.53,0,0,1,217.26,39.83Z"/><path d="M226.12,39.48V40l-3.21,4.71h3.19l-.07.55h-3.87v-.5L225.38,40h-2.95v-.55Z"/><path d="M231.66,42.61h-3.84a2.62,2.62,0,0,0,.53,1.66,1.58,1.58,0,0,0,1.26.55,2.2,2.2,0,0,0,.8-.14,3.72,3.72,0,0,0,.75-.43l.3.4a3.27,3.27,0,0,1-.88.53,2.7,2.7,0,0,1-1,.18,2.22,2.22,0,0,1-1.8-.78,3.34,3.34,0,0,1-.64-2.17,4.16,4.16,0,0,1,.28-1.6,2.32,2.32,0,0,1,.8-1.07,2.21,2.21,0,0,1,2.89.36,3.29,3.29,0,0,1,.57,2C231.68,42.31,231.67,42.46,231.66,42.61Zm-.61-.66a2.52,2.52,0,0,0-.4-1.52,1.54,1.54,0,0,0-2.35,0,2.86,2.86,0,0,0-.48,1.67h3.23Z"/><path d="M240.2,39.83a1.93,1.93,0,0,1,.4,1.29v4.12H240v-4a1.63,1.63,0,0,0-.26-1,.88.88,0,0,0-.72-.32,1.35,1.35,0,0,0-.87.31,3.81,3.81,0,0,0-.75.88v4.17h-.63v-4a1.63,1.63,0,0,0-.26-1,.88.88,0,0,0-.72-.32,1.33,1.33,0,0,0-.88.31,3.36,3.36,0,0,0-.74.88v4.17h-.64V39.48H234l.06,1a2.75,2.75,0,0,1,.78-.81,1.82,1.82,0,0,1,1-.29,1.41,1.41,0,0,1,.92.3,1.57,1.57,0,0,1,.51.85,2.85,2.85,0,0,1,.8-.85,1.78,1.78,0,0,1,1-.3A1.38,1.38,0,0,1,240.2,39.83Z"/><path d="M244,36.63l.29.58-2.15.93-.21-.37Zm-.51,2.85v5.76h-.63V39.48Z"/><path d="M248.7,39.5a2.49,2.49,0,0,1,.74.44l-.32.42a2,2,0,0,0-.58-.34,2.17,2.17,0,0,0-.69-.11,1.56,1.56,0,0,0-1.3.63,3,3,0,0,0-.48,1.85,2.91,2.91,0,0,0,.47,1.8,1.58,1.58,0,0,0,1.3.61,1.78,1.78,0,0,0,.7-.13,2.73,2.73,0,0,0,.63-.36l.31.43a2.51,2.51,0,0,1-1.65.62,2.29,2.29,0,0,1-1.29-.36,2.24,2.24,0,0,1-.85-1,3.89,3.89,0,0,1-.31-1.59,4,4,0,0,1,.31-1.6,2.38,2.38,0,0,1,.85-1.06,2.22,2.22,0,0,1,1.28-.38A2.66,2.66,0,0,1,248.7,39.5Z"/><path d="M254.73,39.83a1.86,1.86,0,0,1,.42,1.29v4.12h-.64v-4c0-.89-.36-1.33-1.09-1.33a1.64,1.64,0,0,0-1,.3,3.39,3.39,0,0,0-.81.89v4.17H251v-8.1l.64-.08v3.38a2.29,2.29,0,0,1,1.91-1.08A1.51,1.51,0,0,1,254.73,39.83Z"/><path d="M264.34,39.48l-2,5.76h-.8l-2.05-5.76h.7L262,44.67l1.71-5.19Z"/><path d="M271.54,39.43l-.12.6a2.1,2.1,0,0,0-.51-.06,1.19,1.19,0,0,0-.94.42,3.69,3.69,0,0,0-.6,1.33v3.52h-.63V39.48h.55l0,1.29a2.39,2.39,0,0,1,.63-1.06,1.49,1.49,0,0,1,1-.35A1.85,1.85,0,0,1,271.54,39.43Z"/><path d="M276.28,40.15a3.34,3.34,0,0,1,.64,2.19,3.46,3.46,0,0,1-.65,2.21,2.39,2.39,0,0,1-3.58,0,3.39,3.39,0,0,1-.64-2.2,4.1,4.1,0,0,1,.29-1.59,2.4,2.4,0,0,1,.85-1.05,2.33,2.33,0,0,1,1.3-.36A2.18,2.18,0,0,1,276.28,40.15Zm-3.09.38a3.87,3.87,0,0,0,0,3.66,1.49,1.49,0,0,0,1.29.63,1.52,1.52,0,0,0,1.3-.63,3.08,3.08,0,0,0,.47-1.85,3,3,0,0,0-.46-1.82,1.66,1.66,0,0,0-2.6,0Z"/><path d="M281.64,39.5a2.42,2.42,0,0,1,.75.44l-.32.42a1.9,1.9,0,0,0-1.28-.45,1.57,1.57,0,0,0-1.3.63,3,3,0,0,0-.48,1.85,2.84,2.84,0,0,0,.48,1.8,1.57,1.57,0,0,0,1.29.61,1.75,1.75,0,0,0,.7-.13,2.54,2.54,0,0,0,.63-.36l.31.43a2.47,2.47,0,0,1-1.65.62A2.25,2.25,0,0,1,278.63,44a3.89,3.89,0,0,1-.3-1.59,4,4,0,0,1,.3-1.6,2.45,2.45,0,0,1,.85-1.06,2.24,2.24,0,0,1,1.28-.38A2.66,2.66,0,0,1,281.64,39.5Z"/><path d="M287.82,42.61H284a2.68,2.68,0,0,0,.54,1.66,1.55,1.55,0,0,0,1.26.55,2.14,2.14,0,0,0,.79-.14,3.77,3.77,0,0,0,.76-.43l.29.4a3.13,3.13,0,0,1-.88.53,2.66,2.66,0,0,1-1,.18,2.2,2.2,0,0,1-1.79-.78,3.34,3.34,0,0,1-.65-2.17,4.16,4.16,0,0,1,.28-1.6,2.46,2.46,0,0,1,.8-1.07,2.06,2.06,0,0,1,1.22-.38,2,2,0,0,1,1.67.74,3.29,3.29,0,0,1,.57,2A3.54,3.54,0,0,1,287.82,42.61Zm-.6-.66a2.59,2.59,0,0,0-.4-1.52,1.41,1.41,0,0,0-1.2-.54,1.38,1.38,0,0,0-1.15.55,2.79,2.79,0,0,0-.49,1.67h3.24Z"/><path d="M295.5,38.34a1.84,1.84,0,0,1,.55,1.38,3.1,3.1,0,0,1-.3,1.35,6.92,6.92,0,0,1-.93,1.37c-.42.5-1.1,1.24-2,2.23h3.47l-.09.57H292V44.7c1-1.07,1.73-1.87,2.17-2.38a6.89,6.89,0,0,0,.92-1.35,2.75,2.75,0,0,0,.27-1.21,1.45,1.45,0,0,0-.38-1,1.37,1.37,0,0,0-1-.38,1.86,1.86,0,0,0-.89.21,2.81,2.81,0,0,0-.75.62l-.44-.33a3,3,0,0,1,1-.79A2.54,2.54,0,0,1,294,37.8,2,2,0,0,1,295.5,38.34Z"/><path d="M301.57,38.76a5.5,5.5,0,0,1,.58,2.82,5.45,5.45,0,0,1-.58,2.81,2,2,0,0,1-3.43,0,5.5,5.5,0,0,1-.58-2.82,5.43,5.43,0,0,1,.58-2.81,2,2,0,0,1,3.43,0Zm-3.35,2.81c0,2.17.54,3.26,1.64,3.26a1.31,1.31,0,0,0,1.21-.79,5.51,5.51,0,0,0,.41-2.46,5.57,5.57,0,0,0-.41-2.46,1.3,1.3,0,0,0-1.21-.79C298.76,38.33,298.22,39.41,298.22,41.57Z"/><path d="M305.78,37.92v7.32h-.63V38.62l-1.81,1.13-.3-.48,2.19-1.35Z"/><path d="M311.53,37.92v.5l-2.89,6.9-.59-.19,2.82-6.67h-3.42v-.54Z"/></g><path d="M41.49,113.15a3.19,3.19,0,0,1,.95.61l-.52.58a3,3,0,0,0-.76-.46,2.38,2.38,0,0,0-.81-.14,1.48,1.48,0,0,0-.89.25.85.85,0,0,0-.35.73,1,1,0,0,0,.12.5,1,1,0,0,0,.45.38,6.73,6.73,0,0,0,.94.36,5.76,5.76,0,0,1,1.08.43,1.85,1.85,0,0,1,.7.63,1.92,1.92,0,0,1,.26,1,1.9,1.9,0,0,1-.29,1.06,2,2,0,0,1-.85.72,3.14,3.14,0,0,1-1.32.26,3.23,3.23,0,0,1-2.34-.89l.52-.58a3.2,3.2,0,0,0,.85.51,2.49,2.49,0,0,0,1,.18,1.71,1.71,0,0,0,1.06-.32,1.06,1.06,0,0,0,.42-.91,1,1,0,0,0-.57-1,4.63,4.63,0,0,0-.92-.36,4.05,4.05,0,0,1-1.55-.77,1.6,1.6,0,0,1-.49-1.22,1.65,1.65,0,0,1,.28-.93,1.81,1.81,0,0,1,.77-.64,2.67,2.67,0,0,1,1.12-.23A3.17,3.17,0,0,1,41.49,113.15Z"/><path d="M44.26,119.78a1.14,1.14,0,0,1-.3-.85v-6.35l.92-.11v6.44a.54.54,0,0,0,.08.32.28.28,0,0,0,.25.1.9.9,0,0,0,.34-.06l.24.64a1.49,1.49,0,0,1-.73.18A1,1,0,0,1,44.26,119.78Z"/><path d="M50.6,115.32a3,3,0,0,1,.61,2,3.4,3.4,0,0,1-.28,1.44,2.1,2.1,0,0,1-.81,1,2.25,2.25,0,0,1-1.26.35,2.15,2.15,0,0,1-1.73-.74,3,3,0,0,1-.62-2,3.64,3.64,0,0,1,.28-1.45,2.13,2.13,0,0,1,2.08-1.31A2.14,2.14,0,0,1,50.6,115.32Zm-3.1,2c0,1.34.46,2,1.36,2s1.36-.67,1.36-2-.45-2-1.35-2S47.5,116,47.5,117.34Z"/><path d="M56.56,114.7,54.77,120H53.66l-1.82-5.27h1l1.38,4.45,1.37-4.45Z"/><path d="M61.53,117.65H58.17a2.07,2.07,0,0,0,.44,1.28,1.3,1.3,0,0,0,1,.41,2.19,2.19,0,0,0,.7-.11,2.54,2.54,0,0,0,.67-.35l.4.55a2.91,2.91,0,0,1-1.84.66,2.13,2.13,0,0,1-1.71-.72,3,3,0,0,1-.62-2,3.73,3.73,0,0,1,.27-1.46,2.31,2.31,0,0,1,.76-1,1.93,1.93,0,0,1,1.16-.36,2,2,0,0,1,1.61.69,2.92,2.92,0,0,1,.56,1.91A3.77,3.77,0,0,1,61.53,117.65Zm-.89-.74a1.92,1.92,0,0,0-.31-1.19,1.08,1.08,0,0,0-.93-.41c-.75,0-1.16.55-1.23,1.66h2.47Z"/><path d="M66.63,115a1.66,1.66,0,0,1,.4,1.18V120h-.92v-3.65a1.17,1.17,0,0,0-.21-.79.8.8,0,0,0-.62-.23,1.21,1.21,0,0,0-.74.24,2.61,2.61,0,0,0-.6.69V120H63V114.7h.79l.08.78a2.1,2.1,0,0,1,.7-.66,1.77,1.77,0,0,1,.91-.24A1.47,1.47,0,0,1,66.63,115Z"/><path d="M71.28,114.73a2.87,2.87,0,0,1,.82.45l-.39.58a3.31,3.31,0,0,0-.68-.34,2.26,2.26,0,0,0-.69-.11,1.24,1.24,0,0,0-.71.18.62.62,0,0,0-.26.51.6.6,0,0,0,.25.5,2.76,2.76,0,0,0,.88.35,3.25,3.25,0,0,1,1.32.6,1.3,1.3,0,0,1,.43,1,1.35,1.35,0,0,1-.6,1.19,2.63,2.63,0,0,1-1.48.41,2.92,2.92,0,0,1-2-.69l.49-.56a2.39,2.39,0,0,0,1.48.51,1.36,1.36,0,0,0,.83-.22.67.67,0,0,0,.3-.58.74.74,0,0,0-.11-.44.92.92,0,0,0-.38-.29,5.17,5.17,0,0,0-.79-.26,2.67,2.67,0,0,1-1.21-.59,1.27,1.27,0,0,1-.38-.94,1.23,1.23,0,0,1,.25-.75,1.65,1.65,0,0,1,.68-.52,2.5,2.5,0,0,1,1-.18A2.91,2.91,0,0,1,71.28,114.73Z"/><path d="M74.47,112.47V120h-.92v-7.39Zm3,2.23L75.56,117,77.72,120h-1.1l-2.09-2.88,1.94-2.39Z"/><path d="M82.29,115.32a3,3,0,0,1,.61,2,3.4,3.4,0,0,1-.28,1.44,2.1,2.1,0,0,1-.81,1,2.25,2.25,0,0,1-1.26.35,2.15,2.15,0,0,1-1.73-.74,3,3,0,0,1-.62-2,3.64,3.64,0,0,1,.28-1.45,2.13,2.13,0,0,1,2.08-1.31A2.14,2.14,0,0,1,82.29,115.32Zm-3.1,2c0,1.34.46,2,1.36,2s1.36-.67,1.36-2-.45-2-1.35-2S79.19,116,79.19,117.34Z"/><path d="M47.53,137l-.11.76H44.75V140h2.32v.76H44.75v2.36h2.86v.76H43.8V137Z"/><path d="M51.45,138.68a2.87,2.87,0,0,1,.82.45l-.39.58a2.7,2.7,0,0,0-.68-.34,2,2,0,0,0-.69-.11,1.24,1.24,0,0,0-.71.18.59.59,0,0,0-.26.51.6.6,0,0,0,.25.5,3,3,0,0,0,.88.35,3,3,0,0,1,1.32.6,1.3,1.3,0,0,1,.43,1,1.36,1.36,0,0,1-.6,1.19,2.6,2.6,0,0,1-1.48.41,2.92,2.92,0,0,1-2-.69l.49-.56a2.39,2.39,0,0,0,1.48.51,1.43,1.43,0,0,0,.83-.22.68.68,0,0,0,.3-.58.74.74,0,0,0-.11-.44.85.85,0,0,0-.38-.29,5.17,5.17,0,0,0-.79-.26,2.78,2.78,0,0,1-1.21-.59,1.27,1.27,0,0,1-.38-.94,1.25,1.25,0,0,1,.25-.75,1.57,1.57,0,0,1,.68-.52,2.5,2.5,0,0,1,1-.18A2.91,2.91,0,0,1,51.45,138.68Z"/><path d="M56.38,143.68a2,2,0,0,1-1.18.36,1.38,1.38,0,0,1-1-.39,1.54,1.54,0,0,1-.38-1.11v-3.18h-.92v-.71h.92v-1.19l.92-.11v1.3H56l-.1.71H54.7v3.14a.93.93,0,0,0,.15.59.59.59,0,0,0,.48.19,1.5,1.5,0,0,0,.7-.21Z"/><path d="M60.89,139.27a3,3,0,0,1,.61,2,3.46,3.46,0,0,1-.28,1.44,2.1,2.1,0,0,1-.81,1,2.25,2.25,0,0,1-1.26.35,2.15,2.15,0,0,1-1.73-.74,3.07,3.07,0,0,1-.62-2,3.64,3.64,0,0,1,.28-1.45,2.22,2.22,0,0,1,.81-1,2.3,2.3,0,0,1,1.27-.34A2.11,2.11,0,0,1,60.89,139.27Zm-3.1,2c0,1.34.46,2,1.36,2s1.36-.68,1.36-2-.45-2-1.35-2S57.79,139.94,57.79,141.29Z"/><path d="M66.63,139a1.64,1.64,0,0,1,.4,1.18v3.78h-.92v-3.65a1.15,1.15,0,0,0-.21-.79.77.77,0,0,0-.62-.23,1.21,1.21,0,0,0-.74.24,2.61,2.61,0,0,0-.6.69v3.74H63v-5.27h.79l.08.78a2.1,2.1,0,0,1,.7-.66,1.77,1.77,0,0,1,.91-.24A1.47,1.47,0,0,1,66.63,139Z"/><path d="M71.28,138.68a2.87,2.87,0,0,1,.82.45l-.39.58a2.87,2.87,0,0,0-.68-.34,2,2,0,0,0-.69-.11,1.24,1.24,0,0,0-.71.18.59.59,0,0,0-.26.51.6.6,0,0,0,.25.5,3,3,0,0,0,.88.35,3,3,0,0,1,1.32.6,1.3,1.3,0,0,1,.43,1,1.36,1.36,0,0,1-.6,1.19,2.63,2.63,0,0,1-1.48.41,2.92,2.92,0,0,1-2-.69l.49-.56a2.39,2.39,0,0,0,1.48.51,1.43,1.43,0,0,0,.83-.22.68.68,0,0,0,.3-.58.74.74,0,0,0-.11-.44.85.85,0,0,0-.38-.29,5.17,5.17,0,0,0-.79-.26,2.78,2.78,0,0,1-1.21-.59,1.27,1.27,0,0,1-.38-.94,1.19,1.19,0,0,1,.25-.75,1.57,1.57,0,0,1,.68-.52,2.5,2.5,0,0,1,1-.18A2.91,2.91,0,0,1,71.28,138.68Z"/><path d="M74.47,136.42v7.5h-.92v-7.39Zm3,2.23L75.56,141l2.16,2.94h-1.1L74.53,141l1.94-2.39Z"/><path d="M82.29,139.27a3,3,0,0,1,.61,2,3.46,3.46,0,0,1-.28,1.44,2.1,2.1,0,0,1-.81,1,2.25,2.25,0,0,1-1.26.35,2.15,2.15,0,0,1-1.73-.74,3.07,3.07,0,0,1-.62-2,3.64,3.64,0,0,1,.28-1.45,2.22,2.22,0,0,1,.81-1,2.3,2.3,0,0,1,1.27-.34A2.11,2.11,0,0,1,82.29,139.27Zm-3.1,2c0,1.34.46,2,1.36,2s1.36-.68,1.36-2-.45-2-1.35-2S79.19,139.94,79.19,141.29Z"/><path d="M55.24,161.7a3.19,3.19,0,0,1,.94,2.68,3.36,3.36,0,0,1-.94,2.7,3.5,3.5,0,0,1-2.3.78H51.29V161h1.44A4,4,0,0,1,55.24,161.7Zm-3,0v5.38H53a2.14,2.14,0,0,0,1.56-.59,3,3,0,0,0,.6-2.14,3.57,3.57,0,0,0-.31-1.67,1.57,1.57,0,0,0-.79-.78,3,3,0,0,0-1.13-.2Z"/><path d="M61.24,167.11a.73.73,0,0,0,.33.23l-.21.64a1.4,1.4,0,0,1-.66-.23,1.11,1.11,0,0,1-.37-.56,1.75,1.75,0,0,1-1.57.79,1.7,1.7,0,0,1-1.23-.44,1.68,1.68,0,0,1,.16-2.44,2.81,2.81,0,0,1,1.71-.45h.81v-.39a1,1,0,0,0-.27-.8,1.21,1.21,0,0,0-.83-.24,4.58,4.58,0,0,0-1.42.28l-.23-.67a5.33,5.33,0,0,1,1.82-.36,1.87,1.87,0,0,1,1.39.46,1.71,1.71,0,0,1,.46,1.29v2.41A.9.9,0,0,0,61.24,167.11ZM60,159.85l.41.77-2.12.86L58,161Zm.18,6.62v-1.21h-.69c-1,0-1.46.36-1.46,1.08a1,1,0,0,0,.23.71.91.91,0,0,0,.68.24A1.36,1.36,0,0,0,60.21,166.47Z"/><path d="M66.63,162.9a1.66,1.66,0,0,1,.4,1.18v3.78h-.92v-3.65a1.17,1.17,0,0,0-.21-.79.8.8,0,0,0-.62-.23,1.21,1.21,0,0,0-.74.24,2.61,2.61,0,0,0-.6.69v3.74H63v-5.27h.79l.08.78a2.1,2.1,0,0,1,.7-.66,1.77,1.77,0,0,1,.91-.24A1.47,1.47,0,0,1,66.63,162.9Z"/><path d="M71.28,162.62a2.87,2.87,0,0,1,.82.45l-.39.58a3.31,3.31,0,0,0-.68-.34,2.26,2.26,0,0,0-.69-.11,1.17,1.17,0,0,0-.71.19.59.59,0,0,0-.26.5.6.6,0,0,0,.25.5,2.76,2.76,0,0,0,.88.35,3.25,3.25,0,0,1,1.32.6,1.3,1.3,0,0,1,.43,1,1.35,1.35,0,0,1-.6,1.19,2.63,2.63,0,0,1-1.48.41,2.92,2.92,0,0,1-2-.69l.49-.56a2.39,2.39,0,0,0,1.48.51A1.44,1.44,0,0,0,71,167a.7.7,0,0,0,.3-.59.71.71,0,0,0-.11-.43.85.85,0,0,0-.38-.29,4.15,4.15,0,0,0-.79-.27,2.67,2.67,0,0,1-1.21-.59,1.27,1.27,0,0,1-.38-.94,1.18,1.18,0,0,1,.25-.74,1.5,1.5,0,0,1,.68-.52,2.33,2.33,0,0,1,1-.19A2.91,2.91,0,0,1,71.28,162.62Z"/><path d="M74.47,160.36v7.5h-.92v-7.39Zm3,2.23-1.94,2.33,2.16,2.94h-1.1L74.53,165l1.94-2.39Z"/><path d="M82.29,163.21a3.05,3.05,0,0,1,.61,2,3.47,3.47,0,0,1-.28,1.45,2.15,2.15,0,0,1-.81,1,2.24,2.24,0,0,1-1.26.34,2.15,2.15,0,0,1-1.73-.74,3,3,0,0,1-.62-2,3.56,3.56,0,0,1,.28-1.44,2.22,2.22,0,0,1,.81-1,2.3,2.3,0,0,1,1.27-.35A2.14,2.14,0,0,1,82.29,163.21Zm-3.1,2c0,1.34.46,2,1.36,2s1.36-.67,1.36-2-.45-2-1.35-2S79.19,163.88,79.19,165.23Z"/><path d="M55.69,191.81v-6.89h3.66l-.11.76h-2.6V188h2.25v.75H56.64v3Z"/><path d="M61.12,184.19a.61.61,0,0,1,.18.45.57.57,0,0,1-.18.44.63.63,0,0,1-.47.18.63.63,0,0,1-.46-.18.57.57,0,0,1-.18-.44.61.61,0,0,1,.18-.45.63.63,0,0,1,.46-.18A.63.63,0,0,1,61.12,184.19Zm0,2.35v5.27H60.2v-5.27Z"/><path d="M66.63,186.85A1.64,1.64,0,0,1,67,188v3.78h-.92v-3.65a1.15,1.15,0,0,0-.21-.79.77.77,0,0,0-.62-.23,1.21,1.21,0,0,0-.74.24,2.61,2.61,0,0,0-.6.69v3.74H63v-5.27h.79l.08.78a2.1,2.1,0,0,1,.7-.66,1.79,1.79,0,0,1,.91-.24A1.47,1.47,0,0,1,66.63,186.85Z"/><path d="M71.28,186.57a2.87,2.87,0,0,1,.82.45l-.39.58a2.87,2.87,0,0,0-.68-.34,2,2,0,0,0-.69-.11,1.24,1.24,0,0,0-.71.18.63.63,0,0,0,0,1,3,3,0,0,0,.88.35,3,3,0,0,1,1.32.6,1.3,1.3,0,0,1,.43,1,1.36,1.36,0,0,1-.6,1.19,2.63,2.63,0,0,1-1.48.41,2.92,2.92,0,0,1-2-.69l.49-.56a2.39,2.39,0,0,0,1.48.51A1.36,1.36,0,0,0,71,191a.68.68,0,0,0,.3-.58.74.74,0,0,0-.11-.44.92.92,0,0,0-.38-.29,5.17,5.17,0,0,0-.79-.26,2.78,2.78,0,0,1-1.21-.59,1.27,1.27,0,0,1-.38-.94,1.21,1.21,0,0,1,.25-.75,1.65,1.65,0,0,1,.68-.52,2.5,2.5,0,0,1,1-.18A2.91,2.91,0,0,1,71.28,186.57Z"/><path d="M74.47,184.31v7.5h-.92v-7.39Zm3,2.23-1.94,2.33,2.16,2.94h-1.1l-2.09-2.88,1.94-2.39Z"/><path d="M82.29,187.16a3,3,0,0,1,.61,2,3.43,3.43,0,0,1-.28,1.44,2.1,2.1,0,0,1-.81,1,2.25,2.25,0,0,1-1.26.35,2.15,2.15,0,0,1-1.73-.74,3.07,3.07,0,0,1-.62-2,3.64,3.64,0,0,1,.28-1.45,2.13,2.13,0,0,1,2.08-1.31A2.11,2.11,0,0,1,82.29,187.16Zm-3.1,2c0,1.34.46,2,1.36,2s1.36-.68,1.36-2-.45-2-1.35-2S79.19,187.83,79.19,189.18Z"/><path d="M58.44,209.4a1.86,1.86,0,0,1,.7,1.59,1.94,1.94,0,0,1-.73,1.68,3.1,3.1,0,0,1-1.94.55H55.6v2.53h-1v-6.89h1.81A3.15,3.15,0,0,1,58.44,209.4Zm-.74,2.75a1.33,1.33,0,0,0,.43-1.15,1.26,1.26,0,0,0-.43-1.07,2,2,0,0,0-1.25-.33H55.6v2.87h.83A2.07,2.07,0,0,0,57.7,212.15Z"/><path d="M63.82,211.1a3.07,3.07,0,0,1,.61,2,3.47,3.47,0,0,1-.28,1.45,2.15,2.15,0,0,1-.81,1,2.24,2.24,0,0,1-1.26.34,2.12,2.12,0,0,1-1.73-.74,3,3,0,0,1-.62-2,3.59,3.59,0,0,1,.28-1.44,2.22,2.22,0,0,1,.81-1,2.3,2.3,0,0,1,1.27-.35A2.14,2.14,0,0,1,63.82,211.1Zm-3.1,2c0,1.34.46,2,1.36,2s1.36-.67,1.36-2-.45-2-1.35-2S60.72,211.78,60.72,213.12Z"/><path d="M66.2,215.57a1.18,1.18,0,0,1-.3-.86v-6.35l.92-.11v6.44a.51.51,0,0,0,.08.32.28.28,0,0,0,.25.1.9.9,0,0,0,.34-.06l.24.64a1.49,1.49,0,0,1-.73.18A1.07,1.07,0,0,1,66.2,215.57Z"/><path d="M71.28,210.51a2.87,2.87,0,0,1,.82.45l-.39.58a3.91,3.91,0,0,0-.68-.34,2.26,2.26,0,0,0-.69-.11,1.17,1.17,0,0,0-.71.19.62.62,0,0,0,0,1,2.76,2.76,0,0,0,.88.35,3.25,3.25,0,0,1,1.32.6,1.32,1.32,0,0,1,.43,1,1.35,1.35,0,0,1-.6,1.19,2.55,2.55,0,0,1-1.48.41,2.92,2.92,0,0,1-2-.69l.49-.56a2.39,2.39,0,0,0,1.48.51,1.44,1.44,0,0,0,.83-.21.7.7,0,0,0,.3-.59.71.71,0,0,0-.11-.43.85.85,0,0,0-.38-.29,5,5,0,0,0-.79-.27,2.58,2.58,0,0,1-1.21-.59,1.26,1.26,0,0,1-.38-.94,1.18,1.18,0,0,1,.25-.74,1.5,1.5,0,0,1,.68-.52,2.33,2.33,0,0,1,1-.19A2.91,2.91,0,0,1,71.28,210.51Z"/><path d="M74.47,208.25v7.5h-.92v-7.39Zm3,2.23-1.94,2.33,2.16,2.94h-1.1l-2.09-2.88,1.94-2.39Z"/><path d="M82.29,211.1a3.07,3.07,0,0,1,.61,2,3.47,3.47,0,0,1-.28,1.45,2.15,2.15,0,0,1-.81,1,2.24,2.24,0,0,1-1.26.34,2.12,2.12,0,0,1-1.73-.74,3,3,0,0,1-.62-2,3.59,3.59,0,0,1,.28-1.44,2.22,2.22,0,0,1,.81-1,2.3,2.3,0,0,1,1.27-.35A2.14,2.14,0,0,1,82.29,211.1Zm-3.1,2c0,1.34.46,2,1.36,2s1.36-.67,1.36-2-.45-2-1.35-2S79.19,211.78,79.19,213.12Z"/><path d="M44.08,232.88a3,3,0,0,1,1,.61l-.52.58a3,3,0,0,0-.76-.46,2.38,2.38,0,0,0-.81-.14,1.48,1.48,0,0,0-.89.25.84.84,0,0,0-.35.73,1,1,0,0,0,.12.5,1.1,1.1,0,0,0,.45.38,6.73,6.73,0,0,0,.94.36,5.15,5.15,0,0,1,1.08.43,1.72,1.72,0,0,1,1,1.66,1.9,1.9,0,0,1-.29,1.06,2,2,0,0,1-.85.72,3.14,3.14,0,0,1-1.32.26,3.23,3.23,0,0,1-2.34-.89l.52-.58a3.2,3.2,0,0,0,.85.51,2.49,2.49,0,0,0,1,.18,1.71,1.71,0,0,0,1.06-.32,1.06,1.06,0,0,0,.42-.91,1,1,0,0,0-.57-1,4.63,4.63,0,0,0-.92-.36,4.05,4.05,0,0,1-1.55-.77,1.6,1.6,0,0,1-.49-1.22,1.57,1.57,0,0,1,.28-.93,1.81,1.81,0,0,1,.77-.64,2.67,2.67,0,0,1,1.12-.23A3.17,3.17,0,0,1,44.08,232.88Z"/><path d="M46.85,239.51a1.14,1.14,0,0,1-.3-.85v-6.35l.92-.11v6.44a.54.54,0,0,0,.08.32.28.28,0,0,0,.25.1.9.9,0,0,0,.34-.06l.24.64a1.49,1.49,0,0,1-.73.18A1,1,0,0,1,46.85,239.51Z"/><path d="M53.19,235.05a3,3,0,0,1,.61,2,3.4,3.4,0,0,1-.28,1.44,2.1,2.1,0,0,1-.81,1,2.25,2.25,0,0,1-1.26.35,2.15,2.15,0,0,1-1.73-.74,3.06,3.06,0,0,1-.62-2,3.64,3.64,0,0,1,.28-1.45,2.13,2.13,0,0,1,2.08-1.31A2.14,2.14,0,0,1,53.19,235.05Zm-3.1,2c0,1.34.46,2,1.36,2s1.36-.67,1.36-2-.45-2-1.35-2S50.09,235.72,50.09,237.07Z"/><path d="M59.15,234.43l-1.79,5.27H56.25l-1.82-5.27h1l1.38,4.45,1.37-4.45Z"/><path d="M61.12,232.08a.61.61,0,0,1,.18.45.57.57,0,0,1-.18.44.63.63,0,0,1-.47.18.63.63,0,0,1-.46-.18.57.57,0,0,1-.18-.44.61.61,0,0,1,.18-.45.63.63,0,0,1,.46-.18A.63.63,0,0,1,61.12,232.08Zm0,2.35v5.27H60.2v-5.27Z"/><path d="M66.63,234.74a1.66,1.66,0,0,1,.4,1.18v3.78h-.92v-3.65a1.15,1.15,0,0,0-.21-.79.8.8,0,0,0-.62-.23,1.21,1.21,0,0,0-.74.24,2.61,2.61,0,0,0-.6.69v3.74H63v-5.27h.79l.08.78a2.1,2.1,0,0,1,.7-.66,1.77,1.77,0,0,1,.91-.24A1.47,1.47,0,0,1,66.63,234.74Z"/><path d="M71.28,234.46a2.87,2.87,0,0,1,.82.45l-.39.58a2.87,2.87,0,0,0-.68-.34,2.26,2.26,0,0,0-.69-.11,1.24,1.24,0,0,0-.71.18.62.62,0,0,0-.26.51.6.6,0,0,0,.25.5,3,3,0,0,0,.88.35,3.12,3.12,0,0,1,1.32.6,1.3,1.3,0,0,1,.43,1,1.36,1.36,0,0,1-.6,1.19,2.63,2.63,0,0,1-1.48.41,2.92,2.92,0,0,1-2-.69l.49-.56a2.39,2.39,0,0,0,1.48.51,1.36,1.36,0,0,0,.83-.22.67.67,0,0,0,.3-.58.74.74,0,0,0-.11-.44.92.92,0,0,0-.38-.29,5.17,5.17,0,0,0-.79-.26,2.67,2.67,0,0,1-1.21-.59,1.27,1.27,0,0,1-.38-.94,1.23,1.23,0,0,1,.25-.75,1.65,1.65,0,0,1,.68-.52,2.5,2.5,0,0,1,1-.18A2.91,2.91,0,0,1,71.28,234.46Z"/><path d="M74.47,232.2v7.5h-.92v-7.39Zm3,2.23-1.94,2.33,2.16,2.94h-1.1l-2.09-2.88,1.94-2.39Z"/><path d="M82.29,235.05a3,3,0,0,1,.61,2,3.4,3.4,0,0,1-.28,1.44,2.1,2.1,0,0,1-.81,1,2.25,2.25,0,0,1-1.26.35,2.15,2.15,0,0,1-1.73-.74,3.06,3.06,0,0,1-.62-2,3.64,3.64,0,0,1,.28-1.45,2.13,2.13,0,0,1,2.08-1.31A2.14,2.14,0,0,1,82.29,235.05Zm-3.1,2c0,1.34.46,2,1.36,2s1.36-.67,1.36-2-.45-2-1.35-2S79.19,235.72,79.19,237.07Z"/><path d="M47,263.64h-.92l-.24-3.11c-.1-1.22-.15-2.15-.17-2.81l-1.49,5.14H43.3l-1.57-5.15c0,.84,0,1.8-.13,2.89l-.23,3h-.9l.57-6.89h1.28l1.45,5,1.38-5h1.29Z"/><path d="M52.24,262.89a.73.73,0,0,0,.33.23l-.21.64a1.4,1.4,0,0,1-.66-.23,1.06,1.06,0,0,1-.37-.56,1.75,1.75,0,0,1-1.57.79,1.66,1.66,0,0,1-1.23-.44,1.68,1.68,0,0,1,.16-2.44,2.81,2.81,0,0,1,1.71-.45h.81V260a1,1,0,0,0-.27-.8,1.21,1.21,0,0,0-.83-.24,4.89,4.89,0,0,0-1.42.28l-.23-.67a5.33,5.33,0,0,1,1.82-.36,1.91,1.91,0,0,1,1.39.46,1.71,1.71,0,0,1,.46,1.29v2.41A.85.85,0,0,0,52.24,262.89Zm-1-.64V261h-.69c-1,0-1.46.36-1.46,1.08a1,1,0,0,0,.23.71.91.91,0,0,0,.68.24A1.36,1.36,0,0,0,51.21,262.25Z"/><path d="M58.1,256.25v7.39h-.81l-.09-.73a1.86,1.86,0,0,1-.65.63,1.71,1.71,0,0,1-.87.22,1.68,1.68,0,0,1-1.46-.74,3.36,3.36,0,0,1-.53-2,4,4,0,0,1,.25-1.44,2.28,2.28,0,0,1,.72-1,1.77,1.77,0,0,1,1.1-.36,1.89,1.89,0,0,1,1.42.65v-2.76Zm-1.5,6.59a2.17,2.17,0,0,0,.58-.59v-2.58a2,2,0,0,0-.55-.51A1.27,1.27,0,0,0,56,259a1.06,1.06,0,0,0-.94.51,2.83,2.83,0,0,0-.34,1.52,3,3,0,0,0,.31,1.52,1,1,0,0,0,.89.5A1.29,1.29,0,0,0,56.6,262.84Zm2.48-4.75.5-1.84-.83-.1-.2,1.86Z"/><path d="M63.39,262.89a.73.73,0,0,0,.33.23l-.21.64a1.4,1.4,0,0,1-.66-.23,1.06,1.06,0,0,1-.37-.56,1.75,1.75,0,0,1-1.57.79,1.66,1.66,0,0,1-1.23-.44,1.68,1.68,0,0,1,.16-2.44,2.81,2.81,0,0,1,1.71-.45h.81V260a1,1,0,0,0-.27-.8,1.21,1.21,0,0,0-.83-.24,4.89,4.89,0,0,0-1.42.28l-.23-.67a5.33,5.33,0,0,1,1.82-.36,1.91,1.91,0,0,1,1.39.46,1.71,1.71,0,0,1,.46,1.29v2.41A.85.85,0,0,0,63.39,262.89Zm-1-.64V261h-.69c-1,0-1.46.36-1.46,1.08a1,1,0,0,0,.23.71.91.91,0,0,0,.68.24A1.36,1.36,0,0,0,62.36,262.25Z"/><path d="M68,258.31l-.17.9a1.88,1.88,0,0,0-.46-.06,1,1,0,0,0-.79.36,2.81,2.81,0,0,0-.47,1.12v3h-.92v-5.27H66l.09,1.07a2,2,0,0,1,.57-.89,1.27,1.27,0,0,1,.84-.3A2.12,2.12,0,0,1,68,258.31Z"/><path d="M71.28,258.4a2.87,2.87,0,0,1,.82.45l-.39.58a3.59,3.59,0,0,0-.68-.34,2.26,2.26,0,0,0-.69-.11,1.24,1.24,0,0,0-.71.19.62.62,0,0,0,0,1,2.76,2.76,0,0,0,.88.35,3.25,3.25,0,0,1,1.32.6,1.32,1.32,0,0,1,.43,1,1.35,1.35,0,0,1-.6,1.19,2.53,2.53,0,0,1-1.48.41,2.92,2.92,0,0,1-2-.69l.49-.56a2.39,2.39,0,0,0,1.48.51,1.44,1.44,0,0,0,.83-.21.68.68,0,0,0,.3-.59.71.71,0,0,0-.11-.43.85.85,0,0,0-.38-.29,6.31,6.31,0,0,0-.79-.27,2.58,2.58,0,0,1-1.21-.59,1.26,1.26,0,0,1-.38-.94,1.24,1.24,0,0,1,.25-.74,1.57,1.57,0,0,1,.68-.52,2.5,2.5,0,0,1,1-.19A2.91,2.91,0,0,1,71.28,258.4Z"/><path d="M74.47,256.14v7.5h-.92v-7.39Zm3,2.23-1.94,2.33,2.16,2.94h-1.1l-2.09-2.88,1.94-2.39Z"/><path d="M82.29,259a3.07,3.07,0,0,1,.61,2,3.47,3.47,0,0,1-.28,1.45,2.1,2.1,0,0,1-.81,1,2.24,2.24,0,0,1-1.26.34,2.12,2.12,0,0,1-1.73-.74,3,3,0,0,1-.62-2,3.62,3.62,0,0,1,.28-1.44,2.22,2.22,0,0,1,.81-1,2.3,2.3,0,0,1,1.27-.35A2.14,2.14,0,0,1,82.29,259Zm-3.1,2c0,1.34.46,2,1.36,2s1.36-.67,1.36-2-.45-2-1.35-2S79.19,259.67,79.19,261Z"/><path d="M57.38,287.59H56.11l-2.8-5.85c0,.46.08.88.1,1.27s0,.87,0,1.42v3.16h-.89V280.7h1.24l2.83,5.86c0-.17,0-.48-.08-.91s0-.83,0-1.19V280.7h.89Z"/><path d="M63,282.94a3,3,0,0,1,.61,2,3.47,3.47,0,0,1-.28,1.45,2.2,2.2,0,0,1-.81,1,2.32,2.32,0,0,1-1.26.34,2.15,2.15,0,0,1-1.73-.74,3,3,0,0,1-.62-2,3.64,3.64,0,0,1,.28-1.45,2.34,2.34,0,0,1,.81-1,2.38,2.38,0,0,1,1.27-.34A2.14,2.14,0,0,1,63,282.94Zm-3.1,2c0,1.34.46,2,1.36,2s1.36-.67,1.36-2-.45-2-1.35-2S59.94,283.61,59.94,285Z"/><path d="M68,282.26l-.17.9a1.88,1.88,0,0,0-.46-.06,1,1,0,0,0-.79.36,2.74,2.74,0,0,0-.47,1.12v3h-.92v-5.27H66l.09,1.07a2,2,0,0,1,.57-.89,1.27,1.27,0,0,1,.84-.3A2.12,2.12,0,0,1,68,282.26Z"/><path d="M71.28,282.35a2.87,2.87,0,0,1,.82.45l-.39.58A3.31,3.31,0,0,0,71,283a2.26,2.26,0,0,0-.69-.11,1.17,1.17,0,0,0-.71.19.59.59,0,0,0-.26.5.6.6,0,0,0,.25.5,2.76,2.76,0,0,0,.88.35,3.25,3.25,0,0,1,1.32.6,1.3,1.3,0,0,1,.43,1,1.35,1.35,0,0,1-.6,1.19,2.63,2.63,0,0,1-1.48.41,2.92,2.92,0,0,1-2-.69l.49-.56a2.39,2.39,0,0,0,1.48.51,1.36,1.36,0,0,0,.83-.22.67.67,0,0,0,.3-.58.69.69,0,0,0-.11-.43.78.78,0,0,0-.38-.29,4.15,4.15,0,0,0-.79-.27,2.67,2.67,0,0,1-1.21-.59,1.27,1.27,0,0,1-.38-.94,1.18,1.18,0,0,1,.25-.74,1.59,1.59,0,0,1,.68-.53,2.5,2.5,0,0,1,1-.18A2.91,2.91,0,0,1,71.28,282.35Z"/><path d="M74.47,280.09v7.5h-.92V280.2Zm3,2.23-1.94,2.33,2.16,2.94h-1.1l-2.09-2.88,1.94-2.39Z"/><path d="M82.29,282.94a3,3,0,0,1,.61,2,3.47,3.47,0,0,1-.28,1.45,2.2,2.2,0,0,1-.81,1,2.32,2.32,0,0,1-1.26.34,2.15,2.15,0,0,1-1.73-.74,3,3,0,0,1-.62-2,3.64,3.64,0,0,1,.28-1.45,2.34,2.34,0,0,1,.81-1,2.38,2.38,0,0,1,1.27-.34A2.14,2.14,0,0,1,82.29,282.94Zm-3.1,2c0,1.34.46,2,1.36,2s1.36-.67,1.36-2-.45-2-1.35-2S79.19,283.61,79.19,285Z"/><path d="M50.15,305a3.19,3.19,0,0,1,1,.61l-.52.58a3,3,0,0,0-.76-.46,2.38,2.38,0,0,0-.81-.14,1.48,1.48,0,0,0-.89.25.84.84,0,0,0-.35.73,1,1,0,0,0,.12.5,1,1,0,0,0,.45.38,6.73,6.73,0,0,0,.94.36,5.15,5.15,0,0,1,1.08.43,1.72,1.72,0,0,1,1,1.66A1.9,1.9,0,0,1,51,311a2,2,0,0,1-.85.72,3.14,3.14,0,0,1-1.32.26,3.23,3.23,0,0,1-2.34-.89l.52-.58a3.2,3.2,0,0,0,.85.51,2.49,2.49,0,0,0,1,.18,1.71,1.71,0,0,0,1.06-.32,1.06,1.06,0,0,0,.42-.91,1,1,0,0,0-.57-1,4.63,4.63,0,0,0-.92-.36,4.05,4.05,0,0,1-1.55-.77,1.6,1.6,0,0,1-.49-1.22,1.65,1.65,0,0,1,.28-.93,1.81,1.81,0,0,1,.77-.64,2.67,2.67,0,0,1,1.12-.23A3.17,3.17,0,0,1,50.15,305Zm.15-2.27.39.45-1.35,1.1h-.61l-1.36-1.1.4-.45,1.26.81Z"/><path d="M56.44,306.59l-1.79,5.27H53.54l-1.82-5.27h1L54.1,311l1.37-4.45Z"/><path d="M61.41,309.54H58.05a2.09,2.09,0,0,0,.44,1.28,1.3,1.3,0,0,0,1,.41,2.19,2.19,0,0,0,.7-.11,2.88,2.88,0,0,0,.67-.35l.4.55a2.91,2.91,0,0,1-1.84.66,2.13,2.13,0,0,1-1.71-.72,3,3,0,0,1-.62-2,3.73,3.73,0,0,1,.27-1.46,2.31,2.31,0,0,1,.76-1,1.93,1.93,0,0,1,1.16-.36,2,2,0,0,1,1.61.69,2.9,2.9,0,0,1,.56,1.91A3.77,3.77,0,0,1,61.41,309.54Zm-.89-.74a1.92,1.92,0,0,0-.31-1.19,1.06,1.06,0,0,0-.93-.41c-.75,0-1.16.55-1.23,1.66h2.47Zm-.44-4.95.41.77-2.12.86-.28-.49Z"/><path d="M67,304.47v7.39h-.81l-.09-.73a1.83,1.83,0,0,1-.65.62,1.79,1.79,0,0,1-2.33-.51,3.38,3.38,0,0,1-.53-2,4,4,0,0,1,.25-1.44,2.32,2.32,0,0,1,.72-1,1.83,1.83,0,0,1,1.1-.35,1.89,1.89,0,0,1,1.42.65v-2.76Zm-1.5,6.58a2.12,2.12,0,0,0,.58-.58v-2.58a1.91,1.91,0,0,0-.55-.52,1.36,1.36,0,0,0-.67-.17,1.06,1.06,0,0,0-.94.51,2.83,2.83,0,0,0-.34,1.52,3,3,0,0,0,.31,1.52,1,1,0,0,0,.89.5A1.29,1.29,0,0,0,65.48,311.05Z"/><path d="M71.28,306.62a2.87,2.87,0,0,1,.82.45l-.39.58a3.31,3.31,0,0,0-.68-.34,2.26,2.26,0,0,0-.69-.11,1.24,1.24,0,0,0-.71.18.62.62,0,0,0-.26.51.6.6,0,0,0,.25.5,3,3,0,0,0,.88.35,3.12,3.12,0,0,1,1.32.6,1.3,1.3,0,0,1,.43,1,1.36,1.36,0,0,1-.6,1.19,2.63,2.63,0,0,1-1.48.41,2.92,2.92,0,0,1-2-.69l.49-.56a2.39,2.39,0,0,0,1.48.51A1.36,1.36,0,0,0,71,311a.67.67,0,0,0,.3-.58.74.74,0,0,0-.11-.44.92.92,0,0,0-.38-.29,5.17,5.17,0,0,0-.79-.26,2.67,2.67,0,0,1-1.21-.59,1.27,1.27,0,0,1-.38-.94,1.23,1.23,0,0,1,.25-.75,1.65,1.65,0,0,1,.68-.52,2.5,2.5,0,0,1,1-.18A2.91,2.91,0,0,1,71.28,306.62Z"/><path d="M74.47,304.36v7.5h-.92v-7.39Zm3,2.23-1.94,2.33,2.16,2.94h-1.1L74.53,309l1.94-2.39Z"/><path d="M82.29,307.21a3,3,0,0,1,.61,2,3.4,3.4,0,0,1-.28,1.44,2.1,2.1,0,0,1-.81,1,2.25,2.25,0,0,1-1.26.35,2.15,2.15,0,0,1-1.73-.74,3,3,0,0,1-.62-2,3.64,3.64,0,0,1,.28-1.45,2.13,2.13,0,0,1,2.08-1.31A2.14,2.14,0,0,1,82.29,307.21Zm-3.1,2c0,1.34.46,2,1.36,2s1.36-.67,1.36-2-.45-2-1.35-2S79.19,307.88,79.19,309.23Z"/><path d="M43.28,332.34a1.47,1.47,0,0,1,.44,1.18c0,1.31-.91,2-2.73,2h-1.9v-6.89h1.63a3.9,3.9,0,0,1,2,.43,1.45,1.45,0,0,1,.69,1.31,1.39,1.39,0,0,1-.37,1,1.66,1.66,0,0,1-.92.51A2.3,2.3,0,0,1,43.28,332.34Zm-3.24-3v2.17h1a1.57,1.57,0,0,0,1-.29.94.94,0,0,0,.38-.82.88.88,0,0,0-.4-.83,2.61,2.61,0,0,0-1.23-.23Zm2.24,5.13a1,1,0,0,0,.44-1,1.11,1.11,0,0,0-.43-1,1.9,1.9,0,0,0-1.12-.3H40v2.48h1A2.66,2.66,0,0,0,42.28,334.47Z"/><path d="M49,335.48h-.79l-.07-.82a2,2,0,0,1-.69.72,1.86,1.86,0,0,1-1,.22,1.4,1.4,0,0,1-1.08-.42,1.67,1.67,0,0,1-.39-1.19v-3.78H46v3.68a1.26,1.26,0,0,0,.19.77.78.78,0,0,0,.62.22,1.54,1.54,0,0,0,1.32-.91v-3.76H49Z"/><path d="M51.19,335.3a1.18,1.18,0,0,1-.3-.86v-6.35l.92-.11v6.44a.51.51,0,0,0,.08.32.28.28,0,0,0,.25.1.9.9,0,0,0,.34-.06l.24.64a1.49,1.49,0,0,1-.73.18A1.07,1.07,0,0,1,51.19,335.3Z"/><path d="M57.48,330.52a1.66,1.66,0,0,1,.4,1.18v3.78H57v-3.65a1.19,1.19,0,0,0-.21-.79.82.82,0,0,0-.63-.23,1.21,1.21,0,0,0-.73.24,2.72,2.72,0,0,0-.6.68v3.75h-.92V328.1l.92-.1v2.94a1.9,1.9,0,0,1,1.56-.85A1.51,1.51,0,0,1,57.48,330.52Z"/><path d="M63.39,334.73a.73.73,0,0,0,.33.23l-.21.64a1.4,1.4,0,0,1-.66-.23,1.06,1.06,0,0,1-.37-.56,1.75,1.75,0,0,1-1.57.79,1.66,1.66,0,0,1-1.23-.44,1.68,1.68,0,0,1,.16-2.44,2.81,2.81,0,0,1,1.71-.45h.81v-.39a1,1,0,0,0-.27-.8,1.21,1.21,0,0,0-.83-.24,4.89,4.89,0,0,0-1.42.28l-.23-.67a5.33,5.33,0,0,1,1.82-.36,1.87,1.87,0,0,1,1.39.46,1.71,1.71,0,0,1,.46,1.29v2.41A.87.87,0,0,0,63.39,334.73Zm-1-.64v-1.21h-.69c-1,0-1.46.36-1.46,1.08a1,1,0,0,0,.23.71.91.91,0,0,0,.68.24A1.36,1.36,0,0,0,62.36,334.09Z"/><path d="M68,330.15l-.17.9a1.88,1.88,0,0,0-.46-.06,1,1,0,0,0-.79.36,2.81,2.81,0,0,0-.47,1.12v3h-.92v-5.27H66l.09,1.07a2,2,0,0,1,.57-.89,1.27,1.27,0,0,1,.84-.3A2.12,2.12,0,0,1,68,330.15Z"/><path d="M71.28,330.24a2.87,2.87,0,0,1,.82.45l-.39.58a3.91,3.91,0,0,0-.68-.34,2.26,2.26,0,0,0-.69-.11,1.17,1.17,0,0,0-.71.19.62.62,0,0,0,0,1,2.76,2.76,0,0,0,.88.35,3.25,3.25,0,0,1,1.32.6,1.32,1.32,0,0,1,.43,1,1.35,1.35,0,0,1-.6,1.19,2.55,2.55,0,0,1-1.48.41,2.92,2.92,0,0,1-2-.69l.49-.56a2.39,2.39,0,0,0,1.48.51,1.44,1.44,0,0,0,.83-.21.7.7,0,0,0,.3-.59.71.71,0,0,0-.11-.43.85.85,0,0,0-.38-.29,5,5,0,0,0-.79-.27,2.58,2.58,0,0,1-1.21-.59,1.26,1.26,0,0,1-.38-.94,1.18,1.18,0,0,1,.25-.74,1.5,1.5,0,0,1,.68-.52,2.33,2.33,0,0,1,1-.19A2.91,2.91,0,0,1,71.28,330.24Z"/><path d="M74.47,328v7.5h-.92v-7.39Zm3,2.23-1.94,2.33,2.16,2.94h-1.1l-2.09-2.88,1.94-2.39Z"/><path d="M82.29,330.83a3.07,3.07,0,0,1,.61,2,3.47,3.47,0,0,1-.28,1.45,2.15,2.15,0,0,1-.81,1,2.24,2.24,0,0,1-1.26.34,2.12,2.12,0,0,1-1.73-.74,3,3,0,0,1-.62-2,3.59,3.59,0,0,1,.28-1.44,2.22,2.22,0,0,1,.81-1,2.3,2.3,0,0,1,1.27-.35A2.14,2.14,0,0,1,82.29,330.83Zm-3.1,2c0,1.34.46,2,1.36,2s1.36-.67,1.36-2-.45-2-1.35-2S79.19,331.51,79.19,332.85Z"/><path d="M62.39,352.54v6.89h-1v-6.89Z"/><path d="M67,359.19a2,2,0,0,1-1.18.36,1.38,1.38,0,0,1-1-.39,1.51,1.51,0,0,1-.38-1.11v-3.18h-.92v-.71h.92V353l.92-.11v1.3h1.25l-.1.71H65.32V358a.93.93,0,0,0,.15.59.57.57,0,0,0,.48.19,1.5,1.5,0,0,0,.7-.21Z"/><path d="M71.54,358.67a.75.75,0,0,0,.33.24l-.21.64a1.51,1.51,0,0,1-.66-.23,1.11,1.11,0,0,1-.37-.56,1.75,1.75,0,0,1-1.57.79,1.7,1.7,0,0,1-1.23-.44,1.55,1.55,0,0,1-.45-1.15,1.52,1.52,0,0,1,.61-1.29,2.81,2.81,0,0,1,1.71-.45h.81v-.39a1,1,0,0,0-.27-.8,1.21,1.21,0,0,0-.83-.24,4.58,4.58,0,0,0-1.42.28l-.23-.67a5.33,5.33,0,0,1,1.82-.36,1.9,1.9,0,0,1,1.39.45,1.75,1.75,0,0,1,.46,1.3v2.41A.83.83,0,0,0,71.54,358.67Zm-1.21-7.25.41.77-2.12.86-.28-.49Zm.18,6.62v-1.21h-.69c-1,0-1.46.36-1.46,1.08a1,1,0,0,0,.23.71.91.91,0,0,0,.68.24A1.38,1.38,0,0,0,70.51,358Z"/><path d="M73.47,359.24a1.16,1.16,0,0,1-.3-.85V352l.92-.11v6.44a.56.56,0,0,0,.08.32.31.31,0,0,0,.25.1.9.9,0,0,0,.34-.06l.24.64a1.49,1.49,0,0,1-.73.18A1,1,0,0,1,73.47,359.24Z"/><path d="M77.07,351.81a.61.61,0,0,1,.18.45.57.57,0,0,1-.18.44.63.63,0,0,1-.47.18.63.63,0,0,1-.46-.18.57.57,0,0,1-.18-.44.61.61,0,0,1,.18-.45.63.63,0,0,1,.46-.18A.63.63,0,0,1,77.07,351.81Zm0,2.35v5.27h-.92v-5.27Z"/><path d="M82.93,357.11H79.57a2.09,2.09,0,0,0,.44,1.28,1.3,1.3,0,0,0,1,.41,2.19,2.19,0,0,0,.7-.11,2.88,2.88,0,0,0,.67-.35l.4.55a2.91,2.91,0,0,1-1.84.66,2.13,2.13,0,0,1-1.71-.72,3,3,0,0,1-.62-2,3.73,3.73,0,0,1,.27-1.46,2.31,2.31,0,0,1,.76-1,1.93,1.93,0,0,1,1.16-.36,2,2,0,0,1,1.61.69,2.9,2.9,0,0,1,.56,1.91A3.77,3.77,0,0,1,82.93,357.11Zm-.89-.74a1.92,1.92,0,0,0-.31-1.19,1.06,1.06,0,0,0-.93-.41c-.75,0-1.16.55-1.23,1.66H82Z"/><path d="M34.8,377a1.88,1.88,0,0,1,.7,1.59,1.94,1.94,0,0,1-.73,1.68,3.1,3.1,0,0,1-1.94.55H32v2.53H31v-6.89h1.81A3.15,3.15,0,0,1,34.8,377Zm-.74,2.75a1.33,1.33,0,0,0,.43-1.15,1.26,1.26,0,0,0-.43-1.07,2,2,0,0,0-1.25-.33H32v2.87h.83A2.07,2.07,0,0,0,34.06,379.77Z"/><path d="M40.18,378.72a3.07,3.07,0,0,1,.61,2,3.47,3.47,0,0,1-.28,1.45,2.1,2.1,0,0,1-.81,1,2.24,2.24,0,0,1-1.26.34,2.12,2.12,0,0,1-1.73-.74,3,3,0,0,1-.62-2,3.62,3.62,0,0,1,.28-1.44,2.22,2.22,0,0,1,.81-1,2.3,2.3,0,0,1,1.27-.35A2.14,2.14,0,0,1,40.18,378.72Zm-3.1,2c0,1.34.46,2,1.36,2s1.36-.67,1.36-2-.45-2-1.35-2S37.08,379.4,37.08,380.74Z"/><path d="M45.12,378l-.17.9a1.88,1.88,0,0,0-.46-.06,1,1,0,0,0-.79.36,2.81,2.81,0,0,0-.47,1.12v3h-.92V378.1h.79l.09,1.07a2,2,0,0,1,.57-.89,1.27,1.27,0,0,1,.84-.3A2.12,2.12,0,0,1,45.12,378Z"/><path d="M48.83,383.13a2,2,0,0,1-1.18.36,1.37,1.37,0,0,1-1-.38,1.55,1.55,0,0,1-.38-1.12v-3.18h-.92v-.71h.92v-1.19l.92-.11v1.3H48.4l-.1.71H47.15V382a.94.94,0,0,0,.15.6.59.59,0,0,0,.48.18,1.5,1.5,0,0,0,.7-.21Z"/><path d="M53.7,383.37h-.79l-.07-.82a2,2,0,0,1-.69.72,1.86,1.86,0,0,1-.95.22,1.4,1.4,0,0,1-1.08-.42,1.67,1.67,0,0,1-.39-1.19V378.1h.92v3.68a1.26,1.26,0,0,0,.19.77.78.78,0,0,0,.62.22,1.54,1.54,0,0,0,1.32-.91V378.1h.92Z"/><path d="M59.85,378.34a2.66,2.66,0,0,1-.66.13c-.24,0-.53,0-.88,0a1.4,1.4,0,0,1,.93,1.33,1.67,1.67,0,0,1-.54,1.29,2,2,0,0,1-1.47.5,2.09,2.09,0,0,1-.67-.1.63.63,0,0,0-.26.49c0,.29.23.43.69.43h.84a2.28,2.28,0,0,1,.94.19,1.52,1.52,0,0,1,.64.52,1.3,1.3,0,0,1,.22.75,1.34,1.34,0,0,1-.63,1.19,3.32,3.32,0,0,1-1.84.41,4.08,4.08,0,0,1-1.34-.17,1.28,1.28,0,0,1-.71-.53,1.71,1.71,0,0,1-.21-.9h.83a.92.92,0,0,0,.12.51.83.83,0,0,0,.43.28,3.34,3.34,0,0,0,.88.09,2.49,2.49,0,0,0,1.19-.2.66.66,0,0,0,.35-.62.64.64,0,0,0-.28-.56,1.4,1.4,0,0,0-.78-.19h-.83a1.56,1.56,0,0,1-1-.28.9.9,0,0,1-.35-.72.94.94,0,0,1,.15-.5,1.6,1.6,0,0,1,.43-.43,1.63,1.63,0,0,1-.67-.59,1.7,1.7,0,0,1-.22-.87,1.73,1.73,0,0,1,.27-.95,1.84,1.84,0,0,1,.73-.65,2.2,2.2,0,0,1,1-.24,6.47,6.47,0,0,0,1,0,4.18,4.18,0,0,0,.7-.15,7.1,7.1,0,0,0,.67-.28Zm-3.48.63a1.25,1.25,0,0,0-.29.85,1.29,1.29,0,0,0,.29.87,1,1,0,0,0,.82.32,1.06,1.06,0,0,0,.83-.31,1.28,1.28,0,0,0,.28-.89c0-.78-.37-1.17-1.13-1.17A1,1,0,0,0,56.37,379Z"/><path d="M64.27,382.62a.73.73,0,0,0,.33.23l-.21.64a1.4,1.4,0,0,1-.66-.23,1.06,1.06,0,0,1-.37-.56,1.75,1.75,0,0,1-1.57.79,1.66,1.66,0,0,1-1.23-.44,1.68,1.68,0,0,1,.16-2.44,2.81,2.81,0,0,1,1.71-.45h.81v-.39A1,1,0,0,0,63,379a1.21,1.21,0,0,0-.83-.24,4.89,4.89,0,0,0-1.42.28l-.23-.67a5.33,5.33,0,0,1,1.82-.36,1.91,1.91,0,0,1,1.39.46,1.71,1.71,0,0,1,.46,1.29v2.41A.85.85,0,0,0,64.27,382.62Zm-1-.64v-1.21h-.69c-1,0-1.46.36-1.46,1.08a1,1,0,0,0,.23.71.91.91,0,0,0,.68.24A1.36,1.36,0,0,0,63.24,382Z"/><path d="M66.2,383.19a1.17,1.17,0,0,1-.3-.86V376l.92-.11v6.44a.51.51,0,0,0,.08.32.28.28,0,0,0,.25.1.9.9,0,0,0,.34-.06l.24.64a1.49,1.49,0,0,1-.73.18A1.07,1.07,0,0,1,66.2,383.19Z"/><path d="M71.28,378.13a2.87,2.87,0,0,1,.82.45l-.39.58a3.91,3.91,0,0,0-.68-.34,2.26,2.26,0,0,0-.69-.11,1.24,1.24,0,0,0-.71.19.62.62,0,0,0,0,1,2.76,2.76,0,0,0,.88.35,3.25,3.25,0,0,1,1.32.6,1.32,1.32,0,0,1,.43,1,1.35,1.35,0,0,1-.6,1.19,2.55,2.55,0,0,1-1.48.41,2.92,2.92,0,0,1-2-.69l.49-.56a2.39,2.39,0,0,0,1.48.51,1.44,1.44,0,0,0,.83-.21.68.68,0,0,0,.3-.59.71.71,0,0,0-.11-.43.85.85,0,0,0-.38-.29A6.31,6.31,0,0,0,70,381a2.58,2.58,0,0,1-1.21-.59,1.26,1.26,0,0,1-.38-.94,1.18,1.18,0,0,1,.25-.74,1.57,1.57,0,0,1,.68-.52,2.5,2.5,0,0,1,1-.19A2.91,2.91,0,0,1,71.28,378.13Z"/><path d="M74.47,375.87v7.5h-.92V376Zm3,2.23-1.94,2.33,2.16,2.94h-1.1l-2.09-2.88,1.94-2.39Z"/><path d="M82.29,378.72a3.07,3.07,0,0,1,.61,2,3.47,3.47,0,0,1-.28,1.45,2.1,2.1,0,0,1-.81,1,2.24,2.24,0,0,1-1.26.34,2.12,2.12,0,0,1-1.73-.74,3,3,0,0,1-.62-2,3.62,3.62,0,0,1,.28-1.44,2.22,2.22,0,0,1,.81-1,2.3,2.3,0,0,1,1.27-.35A2.14,2.14,0,0,1,82.29,378.72Zm-3.1,2c0,1.34.46,2,1.36,2s1.36-.67,1.36-2-.45-2-1.35-2S79.19,379.4,79.19,380.74Z"/><path d="M56.56,400.5a3.19,3.19,0,0,1,.95.61l-.52.58a3,3,0,0,0-.76-.46,2.38,2.38,0,0,0-.81-.14,1.48,1.48,0,0,0-.89.25.85.85,0,0,0-.35.73,1,1,0,0,0,.12.5,1,1,0,0,0,.45.38,6.73,6.73,0,0,0,.94.36,5.76,5.76,0,0,1,1.08.43,1.72,1.72,0,0,1,1,1.66,1.9,1.9,0,0,1-.29,1.06,2,2,0,0,1-.85.72,3.14,3.14,0,0,1-1.32.26,3.23,3.23,0,0,1-2.34-.89l.52-.58a3.2,3.2,0,0,0,.85.51,2.49,2.49,0,0,0,1,.18,1.71,1.71,0,0,0,1.06-.32,1.06,1.06,0,0,0,.42-.91,1,1,0,0,0-.57-1,4.63,4.63,0,0,0-.92-.36,4.05,4.05,0,0,1-1.55-.77,1.6,1.6,0,0,1-.49-1.22,1.65,1.65,0,0,1,.28-.93,1.81,1.81,0,0,1,.77-.64,2.67,2.67,0,0,1,1.12-.23A3.17,3.17,0,0,1,56.56,400.5Z"/><path d="M61.89,402l-.17.9a1.88,1.88,0,0,0-.46-.06,1,1,0,0,0-.79.36,2.74,2.74,0,0,0-.47,1.12v3h-.92v-5.27h.79l.09,1.07a2,2,0,0,1,.57-.89,1.27,1.27,0,0,1,.84-.3A2.12,2.12,0,0,1,61.89,402Z"/><path d="M66.78,402.65a3.35,3.35,0,0,1,.53,2,3.74,3.74,0,0,1-.25,1.44,2.06,2.06,0,0,1-.72,1,1.81,1.81,0,0,1-1.1.35,1.74,1.74,0,0,1-1.4-.7l-.09.58h-.81v-7.39l.92-.11v2.89a1.77,1.77,0,0,1,1.49-.78A1.68,1.68,0,0,1,66.78,402.65Zm-.8,3.56a2.71,2.71,0,0,0,.34-1.53,2.82,2.82,0,0,0-.32-1.55,1,1,0,0,0-.91-.47,1.5,1.5,0,0,0-1.23.82V406a1.72,1.72,0,0,0,.52.52,1.16,1.16,0,0,0,.64.19A1.11,1.11,0,0,0,66,406.21Z"/><path d="M71.28,402.08a2.87,2.87,0,0,1,.82.45l-.39.58a3.31,3.31,0,0,0-.68-.34,2.26,2.26,0,0,0-.69-.11,1.24,1.24,0,0,0-.71.18.62.62,0,0,0-.26.51.6.6,0,0,0,.25.5,2.76,2.76,0,0,0,.88.35,3.25,3.25,0,0,1,1.32.6,1.3,1.3,0,0,1,.43,1,1.35,1.35,0,0,1-.6,1.19,2.63,2.63,0,0,1-1.48.41,2.92,2.92,0,0,1-2-.69l.49-.56a2.39,2.39,0,0,0,1.48.51,1.36,1.36,0,0,0,.83-.22.67.67,0,0,0,.3-.58.74.74,0,0,0-.11-.44.92.92,0,0,0-.38-.29,5.17,5.17,0,0,0-.79-.26,2.67,2.67,0,0,1-1.21-.59,1.27,1.27,0,0,1-.38-.94,1.23,1.23,0,0,1,.25-.75,1.65,1.65,0,0,1,.68-.52,2.5,2.5,0,0,1,1-.18A2.91,2.91,0,0,1,71.28,402.08Z"/><path d="M74.47,399.82v7.5h-.92v-7.39Zm3,2.23-1.94,2.33,2.16,2.94h-1.1l-2.09-2.88,1.94-2.39Z"/><path d="M82.29,402.67a3,3,0,0,1,.61,2,3.4,3.4,0,0,1-.28,1.44,2.1,2.1,0,0,1-.81,1,2.25,2.25,0,0,1-1.26.35,2.15,2.15,0,0,1-1.73-.74,3,3,0,0,1-.62-2,3.64,3.64,0,0,1,.28-1.45,2.13,2.13,0,0,1,2.08-1.31A2.14,2.14,0,0,1,82.29,402.67Zm-3.1,2c0,1.34.46,2,1.36,2s1.36-.67,1.36-2-.45-2-1.35-2S79.19,403.34,79.19,404.69Z"/><path d="M38.83,428.35H37.76v2.92h-.95v-6.89h1.81a3.26,3.26,0,0,1,2,.49,1.69,1.69,0,0,1,.66,1.46,1.78,1.78,0,0,1-.37,1.17,2.35,2.35,0,0,1-1.12.68l1.86,3.09H40.48Zm-.11-.73a1.79,1.79,0,0,0,1.13-.31,1.16,1.16,0,0,0,.38-1,1.07,1.07,0,0,0-.38-.93,2.12,2.12,0,0,0-1.24-.28h-.85v2.5Z"/><path d="M46.73,431.27h-.79l-.07-.82a2,2,0,0,1-.69.71,1.86,1.86,0,0,1-1,.22,1.37,1.37,0,0,1-1.08-.42,1.65,1.65,0,0,1-.39-1.18V426h.92v3.68a1.22,1.22,0,0,0,.19.76.79.79,0,0,0,.62.23,1.56,1.56,0,0,0,1.32-.91V426h.92Z"/><path d="M55,426.31a1.7,1.7,0,0,1,.39,1.18v3.78h-.92v-3.65c0-.68-.24-1-.74-1a1,1,0,0,0-.66.22,3.29,3.29,0,0,0-.58.71v3.74h-.92v-3.65c0-.68-.24-1-.74-1a1,1,0,0,0-.67.23,2.93,2.93,0,0,0-.57.7v3.74h-.92V426h.79l.08.77a1.76,1.76,0,0,1,1.52-.89,1.43,1.43,0,0,1,.84.24,1.4,1.4,0,0,1,.49.71,2.47,2.47,0,0,1,.69-.71,1.59,1.59,0,0,1,.88-.24A1.32,1.32,0,0,1,55,426.31Z"/><path d="M61.12,431.27h-.79l-.07-.82a2,2,0,0,1-.69.71,1.86,1.86,0,0,1-1,.22,1.37,1.37,0,0,1-1.08-.42,1.65,1.65,0,0,1-.39-1.18V426h.92v3.68a1.22,1.22,0,0,0,.19.76.79.79,0,0,0,.62.23,1.56,1.56,0,0,0,1.32-.91V426h.92Z"/><path d="M66.63,426.3a1.68,1.68,0,0,1,.4,1.19v3.78h-.92v-3.65a1.15,1.15,0,0,0-.21-.79.77.77,0,0,0-.62-.23,1.27,1.27,0,0,0-.74.23,2.67,2.67,0,0,0-.6.7v3.74H63V426h.79l.08.78a2.1,2.1,0,0,1,.7-.66,1.77,1.77,0,0,1,.91-.24A1.5,1.5,0,0,1,66.63,426.3Z"/><path d="M71.28,426a2.84,2.84,0,0,1,.82.44l-.39.58a3.91,3.91,0,0,0-.68-.34,2.26,2.26,0,0,0-.69-.1,1.24,1.24,0,0,0-.71.18.59.59,0,0,0-.26.5.58.58,0,0,0,.25.5,2.54,2.54,0,0,0,.88.35,3.12,3.12,0,0,1,1.32.61,1.3,1.3,0,0,1,.43,1,1.34,1.34,0,0,1-.6,1.18,2.55,2.55,0,0,1-1.48.41,2.92,2.92,0,0,1-2-.68l.49-.57a2.39,2.39,0,0,0,1.48.51,1.44,1.44,0,0,0,.83-.21.68.68,0,0,0,.3-.58.74.74,0,0,0-.11-.44.85.85,0,0,0-.38-.29,5.17,5.17,0,0,0-.79-.26,2.78,2.78,0,0,1-1.21-.59,1.27,1.27,0,0,1-.38-.94,1.19,1.19,0,0,1,.25-.75,1.57,1.57,0,0,1,.68-.52,2.5,2.5,0,0,1,1-.18A2.91,2.91,0,0,1,71.28,426Z"/><path d="M74.47,423.77v7.5h-.92v-7.39Zm3,2.23-1.94,2.33,2.16,2.94h-1.1l-2.09-2.89L76.47,426Z"/><path d="M82.29,426.62a3,3,0,0,1,.61,2,3.47,3.47,0,0,1-.28,1.45,2.1,2.1,0,0,1-.81,1,2.24,2.24,0,0,1-1.26.34,2.12,2.12,0,0,1-1.73-.74,3,3,0,0,1-.62-2,3.62,3.62,0,0,1,.28-1.44,2.22,2.22,0,0,1,.81-1,2.3,2.3,0,0,1,1.27-.34A2.11,2.11,0,0,1,82.29,426.62Zm-3.1,2c0,1.34.46,2,1.36,2s1.36-.67,1.36-2-.45-2-1.35-2S79.19,427.29,79.19,428.63Z"/><path d="M37.52,448.36a3.18,3.18,0,0,1,.86.52l-.52.61a2.08,2.08,0,0,0-1.33-.51,1.68,1.68,0,0,0-1.38.66,3.42,3.42,0,0,0-.53,2.12,3.49,3.49,0,0,0,.52,2.1,1.66,1.66,0,0,0,1.38.67,1.82,1.82,0,0,0,.77-.15A3.81,3.81,0,0,0,38,454l.47.6a2.51,2.51,0,0,1-.82.55,2.74,2.74,0,0,1-1.15.22,2.78,2.78,0,0,1-1.49-.41,2.74,2.74,0,0,1-1-1.22,4.76,4.76,0,0,1-.37-1.94,4.52,4.52,0,0,1,.38-1.93,2.85,2.85,0,0,1,1-1.22,2.72,2.72,0,0,1,1.45-.41A2.9,2.9,0,0,1,37.52,448.36Z"/><path d="M43.12,450.25a1.66,1.66,0,0,1,.4,1.18v3.78H42.6v-3.65a1.17,1.17,0,0,0-.21-.79.82.82,0,0,0-.63-.23,1.21,1.21,0,0,0-.73.24,2.72,2.72,0,0,0-.6.68v3.75h-.92v-7.38l.92-.1v2.94a1.87,1.87,0,0,1,1.56-.85A1.47,1.47,0,0,1,43.12,450.25Z"/><path d="M49.08,450.56a3,3,0,0,1,.61,2,3.47,3.47,0,0,1-.28,1.45,2.15,2.15,0,0,1-.81,1,2.24,2.24,0,0,1-1.26.34,2.15,2.15,0,0,1-1.73-.74,3,3,0,0,1-.62-2,3.56,3.56,0,0,1,.28-1.44,2.22,2.22,0,0,1,.81-1,2.3,2.3,0,0,1,1.27-.35A2.14,2.14,0,0,1,49.08,450.56Zm-3.1,2c0,1.34.46,2,1.36,2s1.36-.67,1.36-2-.45-2-1.35-2S46,451.23,46,452.58Z"/><path d="M54,449.88l-.17.9a1.88,1.88,0,0,0-.46-.06,1,1,0,0,0-.79.36,2.74,2.74,0,0,0-.47,1.12v3h-.92v-5.27H52l.09,1.07a2,2,0,0,1,.57-.89,1.27,1.27,0,0,1,.84-.3A2.12,2.12,0,0,1,54,449.88Z"/><path d="M58.94,449.94l-1.79,5.27H56l-1.82-5.27h1l1.38,4.45L58,449.94Z"/><path d="M63.49,454.46a.73.73,0,0,0,.33.23l-.21.64a1.4,1.4,0,0,1-.66-.23,1.11,1.11,0,0,1-.37-.56,1.75,1.75,0,0,1-1.57.79,1.7,1.7,0,0,1-1.23-.44,1.68,1.68,0,0,1,.16-2.44,2.81,2.81,0,0,1,1.71-.45h.81v-.39a1,1,0,0,0-.27-.8,1.21,1.21,0,0,0-.83-.24,4.89,4.89,0,0,0-1.42.28l-.23-.67a5.33,5.33,0,0,1,1.82-.36,1.87,1.87,0,0,1,1.39.46,1.71,1.71,0,0,1,.46,1.29V454A.9.9,0,0,0,63.49,454.46Zm-1-.64v-1.21h-.69c-1,0-1.46.36-1.46,1.08a1,1,0,0,0,.23.71.91.91,0,0,0,.68.24A1.36,1.36,0,0,0,62.46,453.82Z"/><path d="M67.93,455a2,2,0,0,1-1.18.36,1.41,1.41,0,0,1-1-.38,1.55,1.55,0,0,1-.38-1.12v-3.18h-.92v-.71h.92v-1.19l.92-.11v1.3H67.5l-.1.71H66.25v3.14a1,1,0,0,0,.15.6.59.59,0,0,0,.48.18,1.5,1.5,0,0,0,.7-.21Z"/><path d="M71.28,450a2.87,2.87,0,0,1,.82.45l-.39.58a3.31,3.31,0,0,0-.68-.34,2.26,2.26,0,0,0-.69-.11,1.17,1.17,0,0,0-.71.19.62.62,0,0,0,0,1,2.76,2.76,0,0,0,.88.35,3.25,3.25,0,0,1,1.32.6,1.3,1.3,0,0,1,.43,1,1.35,1.35,0,0,1-.6,1.19,2.63,2.63,0,0,1-1.48.41,2.92,2.92,0,0,1-2-.69l.49-.56a2.39,2.39,0,0,0,1.48.51,1.44,1.44,0,0,0,.83-.21.7.7,0,0,0,.3-.59.71.71,0,0,0-.11-.43.85.85,0,0,0-.38-.29,4.15,4.15,0,0,0-.79-.27,2.67,2.67,0,0,1-1.21-.59,1.27,1.27,0,0,1-.38-.94,1.18,1.18,0,0,1,.25-.74,1.5,1.5,0,0,1,.68-.52,2.33,2.33,0,0,1,1-.19A2.91,2.91,0,0,1,71.28,450Z"/><path d="M74.47,447.71v7.5h-.92v-7.39Zm3,2.23-1.94,2.33,2.16,2.94h-1.1l-2.09-2.88,1.94-2.39Z"/><path d="M82.29,450.56a3,3,0,0,1,.61,2,3.47,3.47,0,0,1-.28,1.45,2.15,2.15,0,0,1-.81,1,2.24,2.24,0,0,1-1.26.34,2.15,2.15,0,0,1-1.73-.74,3,3,0,0,1-.62-2,3.56,3.56,0,0,1,.28-1.44,2.22,2.22,0,0,1,.81-1,2.3,2.3,0,0,1,1.27-.35A2.14,2.14,0,0,1,82.29,450.56Zm-3.1,2c0,1.34.46,2,1.36,2s1.36-.67,1.36-2-.45-2-1.35-2S79.19,451.23,79.19,452.58Z"/><path d="M15.71,472.71a3.48,3.48,0,0,1,.95.56l-.74.85a2,2,0,0,0-1.26-.49,1.38,1.38,0,0,0-1.17.61,4.24,4.24,0,0,0,0,3.76,1.38,1.38,0,0,0,1.18.6,1.64,1.64,0,0,0,.71-.14,3.34,3.34,0,0,0,.67-.42l.68.85a2.74,2.74,0,0,1-.91.63,3,3,0,0,1-1.21.24,3.12,3.12,0,0,1-1.63-.42,2.92,2.92,0,0,1-1.09-1.23,4.54,4.54,0,0,1-.39-2,4.31,4.31,0,0,1,.41-1.94A2.88,2.88,0,0,1,13,473a3,3,0,0,1,1.58-.43A3.18,3.18,0,0,1,15.71,472.71Zm.25-2.46.52.6-1.4,1.24H14.2l-1.4-1.24.53-.6,1.31.83Z"/><path d="M21.78,477.38H18.47a1.61,1.61,0,0,0,.39,1,1.25,1.25,0,0,0,.88.3,1.64,1.64,0,0,0,.63-.11,3.05,3.05,0,0,0,.66-.35l.58.8a3.1,3.1,0,0,1-2,.72,2.45,2.45,0,0,1-1.92-.75,3,3,0,0,1-.67-2,3.54,3.54,0,0,1,.29-1.45,2.39,2.39,0,0,1,.83-1,2.31,2.31,0,0,1,1.3-.37,2.22,2.22,0,0,1,1.75.71,2.91,2.91,0,0,1,.64,2C21.82,476.9,21.8,477.08,21.78,477.38Zm-1.37-.95q0-1.32-1-1.32a.8.8,0,0,0-.68.33,2.12,2.12,0,0,0-.3,1.05h1.94Z"/><path d="M26.53,474.78l-.54.81a2.5,2.5,0,0,0-1.33-.42,1,1,0,0,0-.54.13.43.43,0,0,0-.19.35.4.4,0,0,0,.09.27.68.68,0,0,0,.32.21,6,6,0,0,0,.7.24,3,3,0,0,1,1.25.62A1.36,1.36,0,0,1,26.7,478a1.45,1.45,0,0,1-.3.92,1.92,1.92,0,0,1-.83.6,3,3,0,0,1-1.16.2,3.34,3.34,0,0,1-1.21-.2,2.9,2.9,0,0,1-.95-.57l.7-.78a2.27,2.27,0,0,0,1.42.52,1.19,1.19,0,0,0,.64-.15.48.48,0,0,0,.23-.43.62.62,0,0,0-.08-.33.87.87,0,0,0-.34-.22,7.11,7.11,0,0,0-.75-.25,2.48,2.48,0,0,1-1.18-.62,1.4,1.4,0,0,1-.39-1,1.37,1.37,0,0,1,.26-.81,1.78,1.78,0,0,1,.74-.56,2.7,2.7,0,0,1,1.1-.21A3.05,3.05,0,0,1,26.53,474.78Z"/><path d="M29.05,472v7.57H27.63v-7.41Zm3.22,2.27-1.69,2.33,1.84,3h-1.6l-1.72-2.9,1.7-2.4Z"/><path d="M37,478.59a.49.49,0,0,0,.3.21l-.3.94a1.66,1.66,0,0,1-.76-.22,1.13,1.13,0,0,1-.46-.56,2,2,0,0,1-2.84.35,1.59,1.59,0,0,1-.47-1.19,1.55,1.55,0,0,1,.63-1.33,3.1,3.1,0,0,1,1.81-.46h.61v-.26a.87.87,0,0,0-.22-.68,1.14,1.14,0,0,0-.73-.19,4.84,4.84,0,0,0-1.4.28l-.32-1a5.35,5.35,0,0,1,2-.39,2.31,2.31,0,0,1,1.59.47A1.77,1.77,0,0,1,37,476v2.14A1,1,0,0,0,37,478.59Zm-1.41-7.26.56,1.09-2.3.92-.4-.73Zm-.07,6.82v-1h-.47c-.76,0-1.15.29-1.15.86a.78.78,0,0,0,.18.55.65.65,0,0,0,.5.19A1,1,0,0,0,35.56,478.15Z"/><path d="M44.08,474.23l-.24,1.37a2.33,2.33,0,0,0-.47-.07.89.89,0,0,0-.73.33,2.62,2.62,0,0,0-.41,1v2.74H40.81v-5.3H42l.13,1a2,2,0,0,1,.56-.87,1.27,1.27,0,0,1,.82-.31A2.13,2.13,0,0,1,44.08,474.23Z"/><path d="M48.93,477.38H45.62a1.61,1.61,0,0,0,.39,1,1.24,1.24,0,0,0,.87.3,1.69,1.69,0,0,0,.64-.11,2.79,2.79,0,0,0,.65-.35l.59.8a3.1,3.1,0,0,1-2,.72,2.45,2.45,0,0,1-1.92-.75,3,3,0,0,1-.67-2,3.54,3.54,0,0,1,.29-1.45,2.39,2.39,0,0,1,.83-1,2.28,2.28,0,0,1,1.29-.37,2.23,2.23,0,0,1,1.76.71,2.9,2.9,0,0,1,.63,2C49,476.9,49,477.08,48.93,477.38Zm-1.38-.95c0-.88-.31-1.32-.95-1.32a.8.8,0,0,0-.68.33,2.12,2.12,0,0,0-.3,1.05h1.93Z"/><path d="M54.34,474.88a3.76,3.76,0,0,1,.48,2.06,3.87,3.87,0,0,1-.25,1.45,2.17,2.17,0,0,1-.72,1,1.82,1.82,0,0,1-1.13.36,1.67,1.67,0,0,1-1.31-.57v2.45L50,481.8v-7.5h1.25l.07.62a2,2,0,0,1,.71-.58,1.91,1.91,0,0,1,.83-.2A1.66,1.66,0,0,1,54.34,474.88Zm-1,2.07a2.84,2.84,0,0,0-.23-1.36.76.76,0,0,0-.7-.4.94.94,0,0,0-.55.19,1.78,1.78,0,0,0-.45.49v2.31a1,1,0,0,0,.89.52C53,478.7,53.34,478.12,53.34,477Z"/><path d="M60.29,479.6H59.06l-.07-.71a1.72,1.72,0,0,1-.68.66,1.94,1.94,0,0,1-.93.21,1.39,1.39,0,0,1-1.1-.43,1.82,1.82,0,0,1-.38-1.22V474.3h1.42v3.63a1,1,0,0,0,.14.6.53.53,0,0,0,.44.17,1.14,1.14,0,0,0,1-.69V474.3h1.42Z"/><path d="M66,474.88a3.64,3.64,0,0,1,.51,2.07,3.89,3.89,0,0,1-.25,1.46,2.26,2.26,0,0,1-.73,1,1.81,1.81,0,0,1-1.12.36,1.65,1.65,0,0,1-1.39-.68l-.08.52H61.69v-7.41l1.42-.16v2.84a1.9,1.9,0,0,1,.63-.53,1.81,1.81,0,0,1,.82-.2A1.67,1.67,0,0,1,66,474.88ZM65,477a2.79,2.79,0,0,0-.24-1.36.79.79,0,0,0-.71-.4,1.18,1.18,0,0,0-1,.68v2.27a1.05,1.05,0,0,0,.91.57C64.7,478.71,65,478.13,65,477Z"/><path d="M68,479.39a1.49,1.49,0,0,1-.36-1.07v-6.13L69,472v6.25c0,.24.1.35.29.35a.61.61,0,0,0,.28-.06l.29,1a2.21,2.21,0,0,1-.91.18A1.34,1.34,0,0,1,68,479.39Z"/><path d="M71.94,471.81a.79.79,0,0,1,.24.59.81.81,0,0,1-.24.6,1,1,0,0,1-1.25,0,.81.81,0,0,1-.24-.6.79.79,0,0,1,.24-.59.93.93,0,0,1,1.25,0ZM72,474.3v5.3H70.61v-5.3Z"/><path d="M74.85,472v7.57H73.43v-7.41Zm3.22,2.27-1.69,2.33,1.84,3H76.61l-1.71-2.9,1.7-2.4Z"/><path d="M82.84,478.59a.49.49,0,0,0,.3.21l-.3.94a1.66,1.66,0,0,1-.76-.22,1.13,1.13,0,0,1-.46-.56,2,2,0,0,1-2.84.35,1.59,1.59,0,0,1-.47-1.19,1.55,1.55,0,0,1,.63-1.33,3.1,3.1,0,0,1,1.81-.46h.61v-.26a.87.87,0,0,0-.22-.68,1.14,1.14,0,0,0-.73-.19,4.84,4.84,0,0,0-1.4.28l-.32-1a5.35,5.35,0,0,1,2-.39,2.31,2.31,0,0,1,1.59.47,1.77,1.77,0,0,1,.51,1.38v2.14A.91.91,0,0,0,82.84,478.59Zm-1.48-.44v-1h-.47c-.76,0-1.15.29-1.15.86a.78.78,0,0,0,.18.55.63.63,0,0,0,.5.19A1,1,0,0,0,81.36,478.15Z"/><path d="M59.49,500.5H58.42v2.92h-1v-6.88h1.81a3.26,3.26,0,0,1,2,.49,1.68,1.68,0,0,1,.66,1.45,1.75,1.75,0,0,1-.37,1.17,2.14,2.14,0,0,1-1.12.68l1.86,3.09H61.14Zm1.24-6.17.39.46-1.35,1.09h-.61l-1.36-1.09.4-.46,1.26.81Zm-1.35,5.45a1.79,1.79,0,0,0,1.13-.31,1.17,1.17,0,0,0,.38-1,1.06,1.06,0,0,0-.38-.92,2.12,2.12,0,0,0-1.24-.28h-.85v2.5Z"/><path d="M67.28,501.11H63.92a2.06,2.06,0,0,0,.44,1.27,1.26,1.26,0,0,0,1,.41,1.94,1.94,0,0,0,.7-.11,2.54,2.54,0,0,0,.67-.35l.4.55a2.91,2.91,0,0,1-1.84.66,2.13,2.13,0,0,1-1.71-.72,3,3,0,0,1-.62-2,3.68,3.68,0,0,1,.27-1.45,2.34,2.34,0,0,1,.76-1,1.92,1.92,0,0,1,1.16-.35,1.94,1.94,0,0,1,1.61.68,2.92,2.92,0,0,1,.56,1.91A3.85,3.85,0,0,1,67.28,501.11Zm-.89-.74a2,2,0,0,0-.31-1.2,1.08,1.08,0,0,0-.93-.41c-.75,0-1.16.56-1.23,1.66h2.47Z"/><path d="M71.55,498.17a2.24,2.24,0,0,1,.75.44l-.44.57a2.2,2.2,0,0,0-.54-.29,1.82,1.82,0,0,0-.59-.1,1.15,1.15,0,0,0-1,.51,2.63,2.63,0,0,0-.36,1.51,2.54,2.54,0,0,0,.35,1.48,1.17,1.17,0,0,0,1,.47,1.7,1.7,0,0,0,.57-.09,2.93,2.93,0,0,0,.58-.3l.42.59a2.47,2.47,0,0,1-1.61.58,2.09,2.09,0,0,1-1.68-.72,3,3,0,0,1-.62-2,3.69,3.69,0,0,1,.28-1.46,2.39,2.39,0,0,1,.8-1,2.13,2.13,0,0,1,1.22-.34A2.59,2.59,0,0,1,71.55,498.17Z"/><path d="M74.47,495.92v7.5h-.92V496Zm3,2.23-1.94,2.33,2.16,2.94h-1.1l-2.09-2.88,1.94-2.39Z"/><path d="M82.29,498.78a3,3,0,0,1,.61,2,3.46,3.46,0,0,1-.28,1.44,2.1,2.1,0,0,1-.81,1,2.24,2.24,0,0,1-1.26.34,2.12,2.12,0,0,1-1.73-.74,3,3,0,0,1-.62-2,3.62,3.62,0,0,1,.28-1.44,2.22,2.22,0,0,1,.81-1,2.3,2.3,0,0,1,1.27-.34A2.11,2.11,0,0,1,82.29,498.78Zm-3.1,2c0,1.34.46,2,1.36,2s1.36-.67,1.36-2-.45-2-1.35-2S79.19,499.45,79.19,500.79Z"/><line class="cls-1" x1="130.84" y1="501.19" x2="130.84" y2="117.22"/><line class="cls-1" x1="172" y1="501.19" x2="172" y2="117.22"/><line class="cls-1" x1="213.04" y1="501.19" x2="213.04" y2="117.22"/><line class="cls-1" x1="254.2" y1="501.19" x2="254.2" y2="117.22"/><line class="cls-1" x1="295.36" y1="501.19" x2="295.36" y2="117.22"/><line class="cls-1" x1="336.51" y1="501.19" x2="336.51" y2="117.22"/><line class="cls-1" x1="377.56" y1="501.19" x2="377.56" y2="117.22"/><line class="cls-1" x1="418.71" y1="501.19" x2="418.71" y2="117.22"/><line class="cls-1" x1="459.87" y1="501.19" x2="459.87" y2="117.22"/><line class="cls-1" x1="89.68" y1="117.22" x2="89.68" y2="501.19"/><line class="cls-3" x1="398.61" y1="117.22" x2="430.3" y2="117.22"/><path class="cls-4" d="M398.61,113.63a3.59,3.59,0,1,0,3.59,3.59,3.58,3.58,0,0,0-3.59-3.59Z"/><path class="cls-5" d="M423.35,113.63a3.59,3.59,0,1,0,3.59,3.59,3.58,3.58,0,0,0-3.59-3.59Z"/><path class="cls-6" d="M430.3,113.63a3.59,3.59,0,1,0,3.59,3.59,3.59,3.59,0,0,0-3.59-3.59Z"/><line class="cls-3" x1="408.87" y1="141.22" x2="434.41" y2="141.22"/><path class="cls-4" d="M408.87,137.62a3.6,3.6,0,1,0,3.59,3.6,3.6,3.6,0,0,0-3.59-3.6Z"/><path class="cls-5" d="M427,137.62a3.6,3.6,0,1,0,3.59,3.6,3.59,3.59,0,0,0-3.59-3.6Z"/><path class="cls-6" d="M434.41,137.62a3.6,3.6,0,1,0,3.59,3.6,3.59,3.59,0,0,0-3.59-3.6Z"/><line class="cls-3" x1="425.74" y1="189.21" x2="442.27" y2="189.21"/><path class="cls-4" d="M425.74,185.62a3.59,3.59,0,1,0,3.59,3.59,3.59,3.59,0,0,0-3.59-3.59Z"/><path class="cls-5" d="M437.26,185.62a3.59,3.59,0,1,0,3.59,3.59,3.59,3.59,0,0,0-3.59-3.59Z"/><path class="cls-6" d="M442.27,185.62a3.59,3.59,0,1,0,3.6,3.59,3.59,3.59,0,0,0-3.6-3.59Z"/><line class="cls-3" x1="416.35" y1="213.21" x2="432.36" y2="213.21"/><path class="cls-4" d="M415.94,209.62a3.59,3.59,0,1,0,3.59,3.59,3.59,3.59,0,0,0-3.59-3.59Z"/><path class="cls-5" d="M424.49,209.62a3.59,3.59,0,1,0,3.59,3.59,3.59,3.59,0,0,0-3.59-3.59Z"/><path class="cls-6" d="M431.9,209.62a3.59,3.59,0,1,0,3.59,3.59,3.59,3.59,0,0,0-3.59-3.59Z"/><line class="cls-3" x1="427.79" y1="237.21" x2="443.15" y2="237.21"/><path class="cls-4" d="M427.45,233.62a3.59,3.59,0,1,0,3.59,3.59,3.59,3.59,0,0,0-3.59-3.59Z"/><path class="cls-5" d="M436.12,233.62a3.59,3.59,0,1,0,3.59,3.59,3.59,3.59,0,0,0-3.59-3.59Z"/><path class="cls-6" d="M441.82,233.62a3.59,3.59,0,1,0,3.59,3.59,3.59,3.59,0,0,0-3.59-3.59Z"/><line class="cls-3" x1="427.45" y1="285.21" x2="440.51" y2="285.21"/><path class="cls-4" d="M427.79,281.61a3.6,3.6,0,1,0,3.6,3.6,3.6,3.6,0,0,0-3.6-3.6Z"/><path class="cls-5" d="M436.92,281.61a3.6,3.6,0,1,0,3.59,3.6,3.6,3.6,0,0,0-3.59-3.6Z"/><path class="cls-6" d="M441.36,281.61a3.6,3.6,0,1,0,3.59,3.6,3.6,3.6,0,0,0-3.59-3.6Z"/><line class="cls-3" x1="428.25" y1="309.2" x2="441.02" y2="309.2"/><path class="cls-4" d="M428.25,305.61a3.6,3.6,0,1,0,3.59,3.59,3.59,3.59,0,0,0-3.59-3.59Z"/><path class="cls-5" d="M435.21,305.61a3.6,3.6,0,1,0,3.59,3.59,3.6,3.6,0,0,0-3.59-3.59Z"/><path class="cls-6" d="M441,305.61a3.6,3.6,0,1,0,3.59,3.59,3.59,3.59,0,0,0-3.59-3.59Z"/><line class="cls-3" x1="434.86" y1="357.2" x2="443.7" y2="357.2"/><path class="cls-4" d="M434.86,353.61a3.59,3.59,0,1,0,3.59,3.59,3.59,3.59,0,0,0-3.59-3.59Z"/><path class="cls-5" d="M445.12,353.61a3.59,3.59,0,1,0,3.6,3.59,3.59,3.59,0,0,0-3.6-3.59Z"/><path class="cls-6" d="M442.27,353.61a3.59,3.59,0,1,0,3.6,3.59,3.59,3.59,0,0,0-3.6-3.59Z"/><path class="cls-4" d="M408.87,401.61a3.59,3.59,0,1,0,3.59,3.59,3.59,3.59,0,0,0-3.59-3.59Z"/><path class="cls-5" d="M408.07,401.61a3.59,3.59,0,1,0,3.59,3.59,3.59,3.59,0,0,0-3.59-3.59Z"/><path class="cls-6" d="M415,401.61a3.59,3.59,0,1,0,3.59,3.59,3.59,3.59,0,0,0-3.59-3.59Z"/><path class="cls-4" d="M432.81,497.6a3.59,3.59,0,1,0,3.59,3.59,3.59,3.59,0,0,0-3.59-3.59Z"/><path class="cls-5" d="M436.46,497.6a3.59,3.59,0,1,0,3.59,3.59,3.59,3.59,0,0,0-3.59-3.59Z"/><path class="cls-6" d="M432.81,497.6a3.59,3.59,0,1,0,3.59,3.59,3.59,3.59,0,0,0-3.59-3.59Z"/><line class="cls-3" x1="402.37" y1="333.2" x2="413.86" y2="333.2"/><path class="cls-4" d="M402.37,329.61A3.59,3.59,0,1,0,406,333.2a3.59,3.59,0,0,0-3.59-3.59Z"/><path class="cls-6" d="M413.43,329.61A3.59,3.59,0,1,0,417,333.2a3.59,3.59,0,0,0-3.59-3.59Z"/><path class="cls-5" d="M414.68,329.61a3.59,3.59,0,1,0,3.59,3.59,3.59,3.59,0,0,0-3.59-3.59Z"/><path class="cls-5" d="M436.46,377.61a3.59,3.59,0,1,0,3.59,3.59,3.59,3.59,0,0,0-3.59-3.59Z"/><path class="cls-6" d="M442.62,377.61a3.59,3.59,0,1,0,3.59,3.59,3.6,3.6,0,0,0-3.59-3.59Z"/><path class="cls-4" d="M435.17,377.61a3.59,3.59,0,1,0,3.59,3.59,3.59,3.59,0,0,0-3.59-3.59Z"/><path class="cls-4" d="M13.65,57.66a3.59,3.59,0,1,0,3.59,3.59,3.59,3.59,0,0,0-3.59-3.59Z"/><path class="cls-4" d="M27.87,59.17v1l-2.82,3.71h2.87L27.78,65H23.44V64l2.82-3.71H23.68v-1.1Z"/><path class="cls-4" d="M33.43,64a.65.65,0,0,0,.34.25l-.3.93a1.72,1.72,0,0,1-.81-.24,1.22,1.22,0,0,1-.48-.6,1.84,1.84,0,0,1-.74.65,2.33,2.33,0,0,1-1,.22,1.88,1.88,0,0,1-1.37-.5,1.72,1.72,0,0,1-.51-1.3,1.66,1.66,0,0,1,.69-1.44,3.25,3.25,0,0,1,2-.5h.73v-.33a1,1,0,0,0-.26-.79,1.25,1.25,0,0,0-.83-.23,5,5,0,0,0-1.54.31l-.33-1A5.87,5.87,0,0,1,31.09,59c1.49,0,2.23.66,2.23,2v2.44A.9.9,0,0,0,33.43,64Zm-1.49-8,.57,1.1-2.48,1-.4-.71Zm0,7.45V62.24h-.58c-.91,0-1.37.34-1.37,1a.92.92,0,0,0,.21.65.78.78,0,0,0,.62.23A1.24,1.24,0,0,0,31.94,63.42Z"/><path class="cls-4" d="M36.44,56.69V65H35V56.84Zm3.49,2.48L38,61.74,40.11,65H38.49l-2-3.18,1.95-2.64Z"/><path class="cls-4" d="M41.23,64.77a1.54,1.54,0,0,1-.38-1.11V56.84l1.41-.15v6.93c0,.27.11.4.33.4a1.26,1.26,0,0,0,.33,0l.29,1a2.25,2.25,0,0,1-.93.2A1.39,1.39,0,0,1,41.23,64.77Z"/><path class="cls-4" d="M48.55,64a.69.69,0,0,0,.34.25l-.3.93a1.72,1.72,0,0,1-.81-.24,1.26,1.26,0,0,1-.47-.6,1.87,1.87,0,0,1-.75.65,2.28,2.28,0,0,1-1,.22,1.9,1.9,0,0,1-1.38-.5,1.76,1.76,0,0,1-.5-1.3,1.68,1.68,0,0,1,.68-1.44,3.28,3.28,0,0,1,2-.5h.72v-.33a1,1,0,0,0-.25-.79,1.27,1.27,0,0,0-.83-.23,5,5,0,0,0-1.54.31l-.33-1A5.79,5.79,0,0,1,46.22,59c1.49,0,2.23.66,2.23,2v2.44A1,1,0,0,0,48.55,64Zm-1.49-.53V62.24h-.58c-.91,0-1.36.34-1.36,1a.92.92,0,0,0,.21.65.76.76,0,0,0,.61.23A1.23,1.23,0,0,0,47.06,63.42Z"/><path class="cls-4" d="M55.05,56.84V65H53.81l-.1-.74a2.1,2.1,0,0,1-.7.66,1.81,1.81,0,0,1-1,.25,1.88,1.88,0,0,1-1.64-.83,3.89,3.89,0,0,1-.57-2.24,4.14,4.14,0,0,1,.28-1.59,2.58,2.58,0,0,1,.82-1.1A2.06,2.06,0,0,1,52.18,59a2,2,0,0,1,1.46.62V56.69ZM53.1,63.91a1.86,1.86,0,0,0,.54-.57V60.68a1.93,1.93,0,0,0-.51-.46,1.17,1.17,0,0,0-.6-.16,1,1,0,0,0-.88.5,2.81,2.81,0,0,0-.33,1.52,3.1,3.1,0,0,0,.29,1.54.92.92,0,0,0,.83.47A1.21,1.21,0,0,0,53.1,63.91Z"/><path class="cls-4" d="M61.06,59.47a1.87,1.87,0,0,1,.44,1.31V65H60.09V61a1.13,1.13,0,0,0-.18-.73.67.67,0,0,0-.54-.21,1,1,0,0,0-.65.23,2.48,2.48,0,0,0-.57.65v4H56.74V59.17H58l.11.76A2.19,2.19,0,0,1,59.85,59,1.57,1.57,0,0,1,61.06,59.47Z"/><path class="cls-4" d="M64.67,56l.58,1.1-2.49,1-.4-.71Zm-.13,3.2V65h-1.4V59.17Z"/><path class="cls-4" d="M72.89,59.7l-.55.83a2.69,2.69,0,0,0-1.46-.48,1.17,1.17,0,0,0-.65.16.51.51,0,0,0-.23.43.52.52,0,0,0,.1.33.83.83,0,0,0,.36.24,4.62,4.62,0,0,0,.76.26,3.32,3.32,0,0,1,1.4.67,1.49,1.49,0,0,1,.46,1.17,1.57,1.57,0,0,1-.71,1.36,3,3,0,0,1-1.74.49,3.87,3.87,0,0,1-1.31-.22,3.1,3.1,0,0,1-1-.61l.7-.79a2.58,2.58,0,0,0,1.58.57,1.32,1.32,0,0,0,.76-.19.59.59,0,0,0,.28-.51.66.66,0,0,0-.11-.4.87.87,0,0,0-.37-.27c-.18-.07-.46-.17-.84-.28A2.77,2.77,0,0,1,69,61.79a1.52,1.52,0,0,1-.42-1.09,1.43,1.43,0,0,1,.28-.87,1.87,1.87,0,0,1,.79-.6A2.87,2.87,0,0,1,70.82,59,3.27,3.27,0,0,1,72.89,59.7Zm-.6-3.51.54.62L71.3,58.18h-.88l-1.53-1.37.54-.62,1.43,1Z"/><path class="cls-4" d="M75.63,56.69V65H74.22V56.84Zm3.49,2.48-1.94,2.57L79.3,65H77.69l-2-3.18,1.94-2.64Z"/><path class="cls-4" d="M84.48,59.83a3.27,3.27,0,0,1,.72,2.25,3.73,3.73,0,0,1-.33,1.61,2.5,2.5,0,0,1-1,1.08,2.65,2.65,0,0,1-1.46.39,2.56,2.56,0,0,1-2-.82,3.27,3.27,0,0,1-.73-2.26,3.7,3.7,0,0,1,.33-1.61,2.56,2.56,0,0,1,1-1.08A2.82,2.82,0,0,1,82.47,59,2.52,2.52,0,0,1,84.48,59.83Zm-3.27,2.25a2.88,2.88,0,0,0,.31,1.52,1.14,1.14,0,0,0,1.88,0,3.75,3.75,0,0,0,0-3,1,1,0,0,0-.93-.49Q81.21,60.07,81.21,62.08Z"/><path class="cls-4" d="M86.85,64.77a1.5,1.5,0,0,1-.38-1.11V56.84l1.4-.15v6.93c0,.27.11.4.33.4a1.26,1.26,0,0,0,.33,0l.3,1a2.25,2.25,0,0,1-.93.2A1.39,1.39,0,0,1,86.85,64.77Z"/><path class="cls-4" d="M94.17,64a.65.65,0,0,0,.34.25l-.3.93a1.72,1.72,0,0,1-.81-.24,1.22,1.22,0,0,1-.48-.6,1.78,1.78,0,0,1-.74.65,2.33,2.33,0,0,1-1,.22,1.89,1.89,0,0,1-1.37-.5,1.72,1.72,0,0,1-.51-1.3A1.66,1.66,0,0,1,90,61.92a3.25,3.25,0,0,1,2-.5h.73v-.33a1,1,0,0,0-.26-.79,1.25,1.25,0,0,0-.83-.23,5.1,5.1,0,0,0-1.54.31l-.33-1A5.87,5.87,0,0,1,91.83,59c1.49,0,2.24.66,2.24,2v2.44A.91.91,0,0,0,94.17,64Zm-1.49-.53V62.24H92.1c-.91,0-1.37.34-1.37,1a.92.92,0,0,0,.21.65.78.78,0,0,0,.62.23A1.23,1.23,0,0,0,92.68,63.42Z"/><path class="cls-4" d="M101,56.22a9.16,9.16,0,0,0-1.18,2.27,9.67,9.67,0,0,0,0,5.3A9.16,9.16,0,0,0,101,66.06l-.9.6C99.6,66,99.22,65.43,99,65a6.61,6.61,0,0,1-.69-1.65,8.55,8.55,0,0,1,0-4.34A6.77,6.77,0,0,1,99,57.32c.27-.47.65-1,1.12-1.7Z"/><path class="cls-4" d="M103.42,56.47a.82.82,0,0,1,.25.61.81.81,0,0,1-.25.61.88.88,0,0,1-.64.24.85.85,0,0,1-.63-.24.81.81,0,0,1-.25-.61.82.82,0,0,1,.25-.61.86.86,0,0,1,.63-.25A.88.88,0,0,1,103.42,56.47Zm.07,2.7V65h-1.4V59.17Z"/><path class="cls-4" d="M112.25,59.47a1.87,1.87,0,0,1,.44,1.31V65h-1.41V61a1.13,1.13,0,0,0-.18-.73.66.66,0,0,0-.53-.21,1.06,1.06,0,0,0-.66.23,2.66,2.66,0,0,0-.56.65v4h-1.41V59.17h1.22l.11.76A2.17,2.17,0,0,1,111,59,1.55,1.55,0,0,1,112.25,59.47Z"/><path class="cls-4" d="M119.07,62.52h-3.65a1.85,1.85,0,0,0,.44,1.21,1.37,1.37,0,0,0,1,.36,1.92,1.92,0,0,0,.72-.13,3.08,3.08,0,0,0,.73-.39l.58.81a3.33,3.33,0,0,1-2.15.78,2.64,2.64,0,0,1-2.06-.82,3.22,3.22,0,0,1-.72-2.22,4.08,4.08,0,0,1,.31-1.6,2.59,2.59,0,0,1,.89-1.11,2.67,2.67,0,0,1,3.28.37,3.19,3.19,0,0,1,.67,2.16C119.1,62,119.09,62.21,119.07,62.52Zm-1.36-1q0-1.53-1.14-1.53a1,1,0,0,0-.81.38,2.24,2.24,0,0,0-.34,1.21h2.29Z"/><path class="cls-4" d="M125.26,56.84V65H124l-.1-.74a2,2,0,0,1-.7.66,1.81,1.81,0,0,1-1,.25,1.88,1.88,0,0,1-1.64-.83,3.89,3.89,0,0,1-.57-2.24,4.14,4.14,0,0,1,.28-1.59,2.66,2.66,0,0,1,.82-1.1,2.06,2.06,0,0,1,1.24-.39,2,2,0,0,1,1.46.62V56.69Zm-1.94,7.07a1.73,1.73,0,0,0,.53-.57V60.68a1.66,1.66,0,0,0-.51-.46,1.17,1.17,0,0,0-.6-.16,1,1,0,0,0-.88.5,2.81,2.81,0,0,0-.33,1.52,3.1,3.1,0,0,0,.29,1.54.93.93,0,0,0,.84.47A1.23,1.23,0,0,0,123.32,63.91Z"/><path class="cls-4" d="M131.34,59.83a3.27,3.27,0,0,1,.72,2.25,3.73,3.73,0,0,1-.33,1.61,2.5,2.5,0,0,1-.95,1.08,2.65,2.65,0,0,1-1.46.39,2.56,2.56,0,0,1-2-.82,3.27,3.27,0,0,1-.73-2.26,3.7,3.7,0,0,1,.33-1.61,2.56,2.56,0,0,1,1-1.08,2.82,2.82,0,0,1,1.47-.38A2.52,2.52,0,0,1,131.34,59.83Zm-3.27,2.25a2.88,2.88,0,0,0,.31,1.52,1.14,1.14,0,0,0,1.88,0,3.86,3.86,0,0,0,0-3,1,1,0,0,0-.93-.49Q128.07,60.07,128.07,62.08Z"/><path class="cls-4" d="M134.79,56.69V65h-1.41V56.84Zm3.49,2.48-1.94,2.57L138.46,65h-1.61l-2-3.18,1.95-2.64Z"/><path class="cls-4" d="M143.64,59.83a3.27,3.27,0,0,1,.72,2.25,3.73,3.73,0,0,1-.33,1.61,2.56,2.56,0,0,1-.95,1.08,2.68,2.68,0,0,1-1.46.39,2.56,2.56,0,0,1-2-.82,3.27,3.27,0,0,1-.73-2.26,3.7,3.7,0,0,1,.33-1.61,2.56,2.56,0,0,1,.95-1.08,2.82,2.82,0,0,1,1.47-.38A2.52,2.52,0,0,1,143.64,59.83Zm-3.27,2.25a2.88,2.88,0,0,0,.31,1.52,1.14,1.14,0,0,0,1.88,0,3.86,3.86,0,0,0,0-3,1,1,0,0,0-.93-.49Q140.37,60.07,140.37,62.08Z"/><path class="cls-4" d="M150,59.47a1.86,1.86,0,0,1,.43,1.31V65H149V61a1.13,1.13,0,0,0-.18-.73.66.66,0,0,0-.53-.21,1.08,1.08,0,0,0-.66.23,2.66,2.66,0,0,0-.56.65v4h-1.41V59.17h1.22l.11.76a2.18,2.18,0,0,1,1.77-.92A1.59,1.59,0,0,1,150,59.47Z"/><path class="cls-4" d="M155.44,59.17a2.87,2.87,0,0,1,.86.52l-.62.85a2.08,2.08,0,0,0-.57-.32,1.74,1.74,0,0,0-.61-.1c-.87,0-1.31.66-1.31,2a2.51,2.51,0,0,0,.34,1.46,1.17,1.17,0,0,0,1,.44,1.52,1.52,0,0,0,.57-.1,3.32,3.32,0,0,0,.61-.32l.62.9a2.92,2.92,0,0,1-1.88.67,2.84,2.84,0,0,1-1.45-.37,2.4,2.4,0,0,1-.94-1.05,3.67,3.67,0,0,1-.33-1.61A3.83,3.83,0,0,1,152,60.5a2.47,2.47,0,0,1,.94-1.1,2.63,2.63,0,0,1,1.44-.39A3,3,0,0,1,155.44,59.17Zm.4-3,.54.62-1.53,1.37H154l-1.53-1.37.54-.62,1.43,1Z"/><path class="cls-4" d="M162.07,62.52h-3.65a1.85,1.85,0,0,0,.44,1.21,1.37,1.37,0,0,0,1,.36,2,2,0,0,0,.72-.13,3.08,3.08,0,0,0,.73-.39l.58.81a3.33,3.33,0,0,1-2.15.78,2.62,2.62,0,0,1-2.06-.82,3.22,3.22,0,0,1-.72-2.22,4.08,4.08,0,0,1,.31-1.6,2.59,2.59,0,0,1,.89-1.11,2.67,2.67,0,0,1,3.28.37,3.19,3.19,0,0,1,.67,2.16C162.1,62,162.09,62.21,162.07,62.52Zm-1.37-1c0-1-.37-1.53-1.13-1.53a1,1,0,0,0-.81.38,2.24,2.24,0,0,0-.34,1.21h2.28Z"/><path class="cls-4" d="M167.68,59.47a1.87,1.87,0,0,1,.44,1.31V65h-1.41V61a1.13,1.13,0,0,0-.18-.73.67.67,0,0,0-.54-.21,1,1,0,0,0-.65.23,2.9,2.9,0,0,0-.57.65v4h-1.4V59.17h1.22l.11.76a2.16,2.16,0,0,1,1.77-.92A1.57,1.57,0,0,1,167.68,59.47Z"/><path class="cls-4" d="M174.16,64a.65.65,0,0,0,.34.25l-.3.93a1.72,1.72,0,0,1-.81-.24,1.22,1.22,0,0,1-.48-.6,1.78,1.78,0,0,1-.74.65,2.32,2.32,0,0,1-1,.22,1.9,1.9,0,0,1-1.38-.5,1.72,1.72,0,0,1-.5-1.3,1.65,1.65,0,0,1,.68-1.44,3.28,3.28,0,0,1,2-.5h.72v-.33a1,1,0,0,0-.26-.79,1.25,1.25,0,0,0-.83-.23,5.1,5.1,0,0,0-1.54.31l-.33-1a5.87,5.87,0,0,1,2.11-.42c1.49,0,2.24.66,2.24,2v2.44A.91.91,0,0,0,174.16,64Zm-1.49-8,.57,1.1-2.48,1-.4-.71Zm0,7.45V62.24h-.58c-.91,0-1.36.34-1.36,1a.92.92,0,0,0,.2.65.78.78,0,0,0,.62.23A1.23,1.23,0,0,0,172.67,63.42Z"/><path class="cls-4" d="M177.21,57.31A7.87,7.87,0,0,1,177.9,59a8.94,8.94,0,0,1,0,4.36,7.87,7.87,0,0,1-.69,1.65c-.28.47-.65,1-1.13,1.69l-.89-.6a9.16,9.16,0,0,0,1.18-2.27,9.64,9.64,0,0,0,0-5.29,9.57,9.57,0,0,0-1.18-2.28l.89-.6C176.56,56.28,176.93,56.84,177.21,57.31Z"/><path class="cls-5" d="M202.07,57.66a3.59,3.59,0,1,0,3.59,3.59,3.59,3.59,0,0,0-3.59-3.59Z"/><path class="cls-5" d="M216.41,59.66l-.55.83A2.65,2.65,0,0,0,214.4,60a1.12,1.12,0,0,0-.65.16.48.48,0,0,0-.23.42.52.52,0,0,0,.1.33,1,1,0,0,0,.36.25c.17.07.43.16.76.26a3.31,3.31,0,0,1,1.41.67,1.5,1.5,0,0,1,.45,1.16,1.56,1.56,0,0,1-.7,1.36,3,3,0,0,1-1.75.49,3.58,3.58,0,0,1-1.3-.22,3.2,3.2,0,0,1-1-.6l.7-.8a2.64,2.64,0,0,0,1.59.58,1.39,1.39,0,0,0,.75-.19.59.59,0,0,0,.28-.52.76.76,0,0,0-.1-.4.82.82,0,0,0-.38-.26,7.31,7.31,0,0,0-.84-.28,2.92,2.92,0,0,1-1.31-.68,1.49,1.49,0,0,1-.42-1.08,1.46,1.46,0,0,1,.28-.87,1.86,1.86,0,0,1,.8-.61,2.87,2.87,0,0,1,1.17-.22A3.26,3.26,0,0,1,216.41,59.66Z"/><path class="cls-5" d="M221.08,64.68a2.2,2.2,0,0,1-.69.33,2.87,2.87,0,0,1-.77.11,1.74,1.74,0,0,1-1.31-.49,2,2,0,0,1-.44-1.41V60.15H217v-1h.92V57.85l1.41-.17v1.46h1.35l-.14,1h-1.21v3a1,1,0,0,0,.14.62.56.56,0,0,0,.47.19,1.43,1.43,0,0,0,.69-.21Z"/><path class="cls-5" d="M225.05,56.16l.54.61-1.53,1.38h-.88l-1.53-1.38.54-.61,1.43,1Zm.27,2.9-.24,1.36a2.29,2.29,0,0,0-.51-.06,1,1,0,0,0-.82.37,2.81,2.81,0,0,0-.47,1.12V65h-1.41V59.14h1.22l.13,1.14a2.1,2.1,0,0,1,.61-1,1.34,1.34,0,0,1,.91-.34A2.08,2.08,0,0,1,225.32,59.06Z"/><path class="cls-5" d="M231,62.48h-3.66a1.86,1.86,0,0,0,.44,1.21,1.37,1.37,0,0,0,1,.36,2.19,2.19,0,0,0,.73-.12,4,4,0,0,0,.73-.39l.58.8a3.36,3.36,0,0,1-2.16.78,2.61,2.61,0,0,1-2-.81,3.27,3.27,0,0,1-.72-2.23,3.94,3.94,0,0,1,.31-1.6,2.52,2.52,0,0,1,.89-1.11,2.45,2.45,0,0,1,1.39-.4,2.37,2.37,0,0,1,1.89.78,3.21,3.21,0,0,1,.67,2.16Q231,62,231,62.48Zm-1.37-1c0-1-.38-1.53-1.13-1.53a1,1,0,0,0-.81.38,2.33,2.33,0,0,0-.35,1.22h2.29Z"/><path class="cls-5" d="M237.14,56.8V65H235.9l-.1-.74a2.1,2.1,0,0,1-.7.66,1.93,1.93,0,0,1-1,.24,1.86,1.86,0,0,1-1.64-.82,3.83,3.83,0,0,1-.58-2.25,4.21,4.21,0,0,1,.29-1.59,2.47,2.47,0,0,1,.82-1.09,2.06,2.06,0,0,1,2.7.23v-3Zm-1.95,7.07a1.94,1.94,0,0,0,.54-.56V60.64a2.12,2.12,0,0,0-.51-.46,1.16,1.16,0,0,0-.6-.15,1,1,0,0,0-.89.5,2.88,2.88,0,0,0-.32,1.51,3,3,0,0,0,.29,1.55.9.9,0,0,0,.83.46A1.21,1.21,0,0,0,235.19,63.87Z"/><path class="cls-5" d="M243.15,59.44a1.84,1.84,0,0,1,.43,1.3V65h-1.4V61a1.05,1.05,0,0,0-.19-.72.65.65,0,0,0-.53-.21,1,1,0,0,0-.65.22,2.38,2.38,0,0,0-.57.66v4h-1.41V59.14h1.22l.11.76a2.17,2.17,0,0,1,1.77-.93A1.58,1.58,0,0,1,243.15,59.44Z"/><path class="cls-5" d="M246.76,55.94l.58,1.1-2.49,1-.4-.72Zm-.13,3.2V65h-1.41V59.14Z"/><path class="cls-5" d="M255,59.66l-.55.83A2.7,2.7,0,0,0,253,60a1.1,1.1,0,0,0-.65.16.46.46,0,0,0-.23.42.52.52,0,0,0,.1.33.85.85,0,0,0,.35.25c.18.07.43.16.77.26a3.21,3.21,0,0,1,1.4.67,1.47,1.47,0,0,1,.46,1.16,1.57,1.57,0,0,1-.71,1.36,3,3,0,0,1-1.75.49,3.62,3.62,0,0,1-1.3-.22,3.43,3.43,0,0,1-1-.6l.71-.8a2.59,2.59,0,0,0,1.58.58,1.4,1.4,0,0,0,.76-.19.62.62,0,0,0,.28-.52.68.68,0,0,0-.11-.4.78.78,0,0,0-.37-.26,7.31,7.31,0,0,0-.84-.28,2.82,2.82,0,0,1-1.31-.68,1.49,1.49,0,0,1-.42-1.08,1.39,1.39,0,0,1,.28-.87,1.89,1.89,0,0,1,.79-.61,2.87,2.87,0,0,1,1.17-.22A3.27,3.27,0,0,1,255,59.66Zm-.6-3.5.53.61-1.52,1.38h-.88L251,56.77l.54-.61,1.43,1Z"/><path class="cls-5" d="M257.72,56.65V65h-1.41V56.8Zm3.49,2.49-1.94,2.56L261.39,65h-1.61l-2-3.18,2-2.64Z"/><path class="cls-5" d="M266.57,59.79a3.3,3.3,0,0,1,.72,2.25,3.7,3.7,0,0,1-.33,1.61,2.53,2.53,0,0,1-.95,1.09,2.76,2.76,0,0,1-1.46.38,2.52,2.52,0,0,1-2-.82,3.27,3.27,0,0,1-.73-2.26,3.73,3.73,0,0,1,.33-1.61,2.48,2.48,0,0,1,.95-1.07,2.74,2.74,0,0,1,1.47-.39A2.52,2.52,0,0,1,266.57,59.79ZM263.3,62a2.85,2.85,0,0,0,.31,1.52,1.15,1.15,0,0,0,1.88,0A2.9,2.9,0,0,0,265.8,62a2.84,2.84,0,0,0-.31-1.51,1,1,0,0,0-.93-.49C263.72,60,263.3,60.71,263.3,62Z"/><path class="cls-5" d="M268.93,64.73a1.54,1.54,0,0,1-.38-1.11V56.8l1.41-.15v6.93c0,.27.11.41.33.41a1,1,0,0,0,.33-.06l.3,1a2.29,2.29,0,0,1-.93.2A1.43,1.43,0,0,1,268.93,64.73Z"/><path class="cls-5" d="M276.26,63.92a.69.69,0,0,0,.34.24l-.3.94a1.84,1.84,0,0,1-.81-.24,1.29,1.29,0,0,1-.48-.61,2,2,0,0,1-.74.66,2.33,2.33,0,0,1-1,.21,1.87,1.87,0,0,1-1.37-.49,1.74,1.74,0,0,1-.51-1.3,1.68,1.68,0,0,1,.69-1.45,3.32,3.32,0,0,1,2-.5h.73v-.33a1,1,0,0,0-.26-.79,1.25,1.25,0,0,0-.83-.22,4.76,4.76,0,0,0-1.54.31l-.33-1a5.87,5.87,0,0,1,2.11-.42c1.49,0,2.24.67,2.24,2v2.45A1,1,0,0,0,276.26,63.92Zm-1.49-.54V62.21h-.58c-.91,0-1.37.33-1.37,1a.94.94,0,0,0,.21.65.81.81,0,0,0,.62.23A1.25,1.25,0,0,0,274.77,63.38Z"/><path class="cls-6" d="M300.6,57.66a3.59,3.59,0,1,0,3.6,3.59,3.59,3.59,0,0,0-3.6-3.59Z"/><path class="cls-6" d="M315.72,59.14,313.83,65h-1.69l-1.92-5.82h1.53L313,63.82l1.28-4.68Z"/><path class="cls-6" d="M319.4,65a3.58,3.58,0,0,1-1.06,1.68,3.43,3.43,0,0,1-2,.69l-.14-1a3.36,3.36,0,0,0,.91-.25,1.41,1.41,0,0,0,.56-.42,2.68,2.68,0,0,0,.38-.7h-.48l-1.85-5.82h1.5L318.52,64l1.32-4.88h1.45Z"/><path class="cls-6" d="M326.06,59.66l-.55.83A2.71,2.71,0,0,0,324,60a1.08,1.08,0,0,0-.64.16.47.47,0,0,0-.24.42.59.59,0,0,0,.1.33,1,1,0,0,0,.36.25c.17.07.43.16.77.26a3.26,3.26,0,0,1,1.4.67,1.5,1.5,0,0,1,.45,1.16,1.56,1.56,0,0,1-.7,1.36,3,3,0,0,1-1.75.49,3.62,3.62,0,0,1-1.3-.22,3.43,3.43,0,0,1-1-.6l.7-.8a2.64,2.64,0,0,0,1.59.58,1.36,1.36,0,0,0,.75-.19.59.59,0,0,0,.28-.52.68.68,0,0,0-.1-.4.82.82,0,0,0-.38-.26,7.31,7.31,0,0,0-.84-.28,2.92,2.92,0,0,1-1.31-.68,1.53,1.53,0,0,1-.41-1.08,1.39,1.39,0,0,1,.28-.87,1.83,1.83,0,0,1,.79-.61A2.87,2.87,0,0,1,324,59,3.31,3.31,0,0,1,326.06,59.66Z"/><path class="cls-6" d="M331.77,59.79a3.3,3.3,0,0,1,.72,2.25,3.7,3.7,0,0,1-.33,1.61,2.51,2.51,0,0,1-.94,1.09,2.77,2.77,0,0,1-1.47.38,2.55,2.55,0,0,1-2-.82A3.31,3.31,0,0,1,327,62a3.73,3.73,0,0,1,.32-1.61,2.5,2.5,0,0,1,1-1.07,2.69,2.69,0,0,1,1.47-.39A2.52,2.52,0,0,1,331.77,59.79ZM328.5,62a2.85,2.85,0,0,0,.31,1.52,1,1,0,0,0,.94.49,1,1,0,0,0,.94-.49A2.89,2.89,0,0,0,331,62a2.83,2.83,0,0,0-.32-1.51,1,1,0,0,0-.92-.49C328.92,60,328.5,60.71,328.5,62Z"/><path class="cls-6" d="M335.22,56.65V65h-1.41V56.8Zm3.49,2.49-1.94,2.56L338.9,65h-1.62l-2-3.18,1.94-2.64Z"/><path class="cls-6" d="M344.09,63.92a.69.69,0,0,0,.34.24l-.3.94a1.84,1.84,0,0,1-.81-.24,1.29,1.29,0,0,1-.48-.61,1.88,1.88,0,0,1-.74.66,2.31,2.31,0,0,1-1,.21,1.89,1.89,0,0,1-1.38-.49,1.73,1.73,0,0,1-.5-1.3,1.67,1.67,0,0,1,.68-1.45,3.35,3.35,0,0,1,2-.5h.72v-.33a1,1,0,0,0-.26-.79,1.25,1.25,0,0,0-.83-.22,4.81,4.81,0,0,0-1.54.31l-.33-1a5.87,5.87,0,0,1,2.11-.42c1.49,0,2.24.67,2.24,2v2.45A1,1,0,0,0,344.09,63.92Zm-1.49-8,.57,1.1-2.48,1-.4-.72Zm0,7.44V62.21H342c-.91,0-1.36.33-1.36,1a.94.94,0,0,0,.2.65.81.81,0,0,0,.62.23A1.24,1.24,0,0,0,342.6,63.38Z"/><path class="cls-6" d="M352.35,59.66l-.55.83a2.71,2.71,0,0,0-1.47-.47,1.08,1.08,0,0,0-.64.16.47.47,0,0,0-.24.42.59.59,0,0,0,.1.33,1,1,0,0,0,.36.25c.17.07.43.16.77.26a3.26,3.26,0,0,1,1.4.67,1.5,1.5,0,0,1,.45,1.16,1.56,1.56,0,0,1-.7,1.36,3,3,0,0,1-1.75.49,3.62,3.62,0,0,1-1.3-.22,3.43,3.43,0,0,1-1-.6l.7-.8a2.64,2.64,0,0,0,1.59.58,1.39,1.39,0,0,0,.75-.19.59.59,0,0,0,.28-.52.68.68,0,0,0-.1-.4.82.82,0,0,0-.38-.26,7.31,7.31,0,0,0-.84-.28,2.92,2.92,0,0,1-1.31-.68,1.49,1.49,0,0,1-.41-1.08,1.39,1.39,0,0,1,.28-.87,1.83,1.83,0,0,1,.79-.61,2.87,2.87,0,0,1,1.17-.22A3.31,3.31,0,0,1,352.35,59.66Zm-.61-3.5.54.61-1.53,1.38h-.88l-1.53-1.38.54-.61,1.43,1Z"/><path class="cls-6" d="M355.09,56.65V65h-1.41V56.8Zm3.48,2.49-1.93,2.56L358.76,65h-1.62l-2-3.18,1.95-2.64Z"/><path class="cls-6" d="M363.94,59.79a3.3,3.3,0,0,1,.72,2.25,3.7,3.7,0,0,1-.33,1.61,2.53,2.53,0,0,1-.95,1.09,2.76,2.76,0,0,1-1.46.38,2.52,2.52,0,0,1-2-.82,3.27,3.27,0,0,1-.73-2.26,3.73,3.73,0,0,1,.33-1.61,2.48,2.48,0,0,1,.95-1.07,2.69,2.69,0,0,1,1.47-.39A2.52,2.52,0,0,1,363.94,59.79ZM360.66,62a2.84,2.84,0,0,0,.32,1.52,1.15,1.15,0,0,0,1.88,0,2.9,2.9,0,0,0,.31-1.52,2.84,2.84,0,0,0-.31-1.51,1,1,0,0,0-.93-.49C361.09,60,360.66,60.71,360.66,62Z"/><path class="cls-6" d="M366.3,64.73a1.54,1.54,0,0,1-.38-1.11V56.8l1.41-.15v6.93c0,.27.11.41.33.41a1,1,0,0,0,.33-.06l.3,1a2.33,2.33,0,0,1-.94.2A1.39,1.39,0,0,1,366.3,64.73Z"/><path class="cls-6" d="M373.63,63.92a.71.71,0,0,0,.33.24l-.29.94a1.84,1.84,0,0,1-.81-.24,1.29,1.29,0,0,1-.48-.61,2,2,0,0,1-.74.66,2.33,2.33,0,0,1-1,.21,1.85,1.85,0,0,1-1.37-.49,1.74,1.74,0,0,1-.51-1.3,1.68,1.68,0,0,1,.69-1.45,3.32,3.32,0,0,1,2-.5h.73v-.33a1,1,0,0,0-.26-.79,1.25,1.25,0,0,0-.83-.22,4.76,4.76,0,0,0-1.54.31l-.33-1a5.83,5.83,0,0,1,2.11-.42c1.49,0,2.23.67,2.23,2v2.45A1,1,0,0,0,373.63,63.92Zm-1.49-.54V62.21h-.59c-.91,0-1.36.33-1.36,1a.94.94,0,0,0,.21.65.79.79,0,0,0,.61.23A1.26,1.26,0,0,0,372.14,63.38Z"/><line class="cls-7" x1="418.71" y1="117.19" x2="418.71" y2="501.18"/><line class="cls-3" x1="403.17" y1="261.21" x2="421.5" y2="261.21"/><path class="cls-4" d="M403.17,257.62a3.59,3.59,0,1,0,3.59,3.59,3.59,3.59,0,0,0-3.59-3.59Z"/><path class="cls-5" d="M420.84,257.62a3.59,3.59,0,1,0,3.59,3.59,3.59,3.59,0,0,0-3.59-3.59Z"/><path class="cls-6" d="M416.74,257.62a3.59,3.59,0,1,0,3.59,3.59,3.59,3.59,0,0,0-3.59-3.59Z"/><line class="cls-3" x1="418.79" y1="165.21" x2="436.46" y2="165.21"/><path class="cls-4" d="M418.79,161.62a3.6,3.6,0,1,0,3.59,3.59,3.59,3.59,0,0,0-3.59-3.59Z"/><path class="cls-5" d="M432.36,161.62a3.6,3.6,0,1,0,3.59,3.59,3.6,3.6,0,0,0-3.59-3.59Z"/><path class="cls-6" d="M436.46,161.62a3.6,3.6,0,1,0,3.59,3.59,3.59,3.59,0,0,0-3.59-3.59Z"/><path class="cls-4" d="M406.47,425.6a3.6,3.6,0,1,0,3.6,3.6,3.6,3.6,0,0,0-3.6-3.6Z"/><path class="cls-5" d="M418,425.6a3.6,3.6,0,1,0,3.59,3.6,3.6,3.6,0,0,0-3.59-3.6Z"/><path class="cls-6" d="M411.38,425.6a3.6,3.6,0,1,0,3.59,3.6,3.59,3.59,0,0,0-3.59-3.6Z"/><path class="cls-4" d="M421.64,449.6a3.6,3.6,0,1,0,3.59,3.59,3.59,3.59,0,0,0-3.59-3.59Z"/><path class="cls-5" d="M420,449.6a3.6,3.6,0,1,0,3.59,3.59A3.59,3.59,0,0,0,420,449.6Z"/><path class="cls-6" d="M424.49,449.6a3.6,3.6,0,1,0,3.59,3.59,3.59,3.59,0,0,0-3.59-3.59Z"/><line class="cls-3" x1="418.71" y1="477.19" x2="428.71" y2="477.19"/><path class="cls-4" d="M416.28,473.6a3.59,3.59,0,1,0,3.59,3.59,3.59,3.59,0,0,0-3.59-3.59Z"/><path class="cls-5" d="M428.71,473.6a3.59,3.59,0,1,0,3.59,3.59,3.59,3.59,0,0,0-3.59-3.59Z"/><path class="cls-6" d="M418.33,473.6a3.59,3.59,0,1,0,3.59,3.59,3.59,3.59,0,0,0-3.59-3.59Z"/><path class="cls-8" d="M91.76,100.21c0,2.52-.69,3.77-2.07,3.77a1.7,1.7,0,0,1-1.57-.94,6,6,0,0,1-.52-2.84c0-2.51.69-3.77,2.09-3.77S91.76,97.69,91.76,100.21ZM88.6,97.72a8.53,8.53,0,0,0,0,5,1.14,1.14,0,0,0,2.16,0,6.07,6.07,0,0,0,.37-2.48,6.34,6.34,0,0,0-.36-2.49,1.14,1.14,0,0,0-2.17,0Z"/><path class="cls-8" d="M121.73,96.55v7.31h-.62V97.23l-1.6,1.11-.29-.44,2-1.35Z"/><path class="cls-8" d="M127.8,100.21c0,2.52-.69,3.77-2.08,3.77a1.68,1.68,0,0,1-1.56-.94,6,6,0,0,1-.53-2.84c0-2.51.7-3.77,2.09-3.77S127.8,97.69,127.8,100.21Zm-3.17-2.49a8.76,8.76,0,0,0,0,5,1.17,1.17,0,0,0,1.09.78,1.15,1.15,0,0,0,1.08-.78,8.76,8.76,0,0,0,0-5,1.15,1.15,0,0,0-1.08-.78A1.17,1.17,0,0,0,124.63,97.72Z"/><path class="cls-8" d="M132.46,103.72a1.06,1.06,0,0,1-.25-.76V95.77l.62-.08V103c0,.34.14.51.41.51a.94.94,0,0,0,.36-.08l.15.45a1.21,1.21,0,0,1-.6.15A.9.9,0,0,1,132.46,103.72Z"/><path class="cls-8" d="M138.79,101.23h-3.47a2.83,2.83,0,0,0,.48,1.69,1.36,1.36,0,0,0,1.13.54,1.81,1.81,0,0,0,.72-.14,2.25,2.25,0,0,0,.65-.41l.31.38a2.91,2.91,0,0,1-.79.52,2.27,2.27,0,0,1-.91.17,1.93,1.93,0,0,1-1.63-.77,3.44,3.44,0,0,1-.59-2.17,3.83,3.83,0,0,1,.56-2.24A1.79,1.79,0,0,1,136.8,98a1.7,1.7,0,0,1,1.49.73,3.45,3.45,0,0,1,.52,2C138.81,100.93,138.8,101.09,138.79,101.23Zm-.59-.66a2.75,2.75,0,0,0-.35-1.53,1.15,1.15,0,0,0-1-.53,1.24,1.24,0,0,0-1,.54,3.1,3.1,0,0,0-.44,1.7h2.88Z"/><path class="cls-8" d="M142.81,103.62a1.83,1.83,0,0,1-1.1.36,1.22,1.22,0,0,1-.94-.36,1.41,1.41,0,0,1-.34-1v-4h-.87v-.51h.87V96.74l.61-.08v1.45h1.33l-.07.51H141v4c0,.58.25.88.74.88a1.46,1.46,0,0,0,.78-.25Z"/><path class="cls-8" d="M376.37,96.55V97L373.79,104l-.56-.19,2.51-6.68h-3.06v-.53Z"/><path class="cls-8" d="M381.59,100.21c0,2.52-.7,3.77-2.08,3.77A1.68,1.68,0,0,1,378,103a5.84,5.84,0,0,1-.53-2.84c0-2.51.69-3.77,2.09-3.77S381.59,97.69,381.59,100.21Zm-3.17-2.49a8.76,8.76,0,0,0,0,5,1.14,1.14,0,0,0,2.16,0,6.07,6.07,0,0,0,.37-2.48,6.34,6.34,0,0,0-.36-2.49,1.14,1.14,0,0,0-2.17,0Z"/><path class="cls-8" d="M335.35,99.69a2.58,2.58,0,0,1,.5,1.71,3.69,3.69,0,0,1-.25,1.4,1.87,1.87,0,0,1-.69.88,1.74,1.74,0,0,1-1,.3,1.71,1.71,0,0,1-1.61-.91,5.28,5.28,0,0,1-.5-2.5,7.69,7.69,0,0,1,.29-2.23,3.06,3.06,0,0,1,.83-1.42,1.83,1.83,0,0,1,1.28-.49,2,2,0,0,1,1.24.43l-.27.41a1.65,1.65,0,0,0-1-.33,1.41,1.41,0,0,0-1.27.87,5.27,5.27,0,0,0-.5,2.36,1.93,1.93,0,0,1,1.68-1.07A1.58,1.58,0,0,1,335.35,99.69Zm-.46,3.23a2.78,2.78,0,0,0,.34-1.5,2.28,2.28,0,0,0-.33-1.37,1,1,0,0,0-.9-.44,1.42,1.42,0,0,0-.9.32,2.57,2.57,0,0,0-.69.9,4.5,4.5,0,0,0,.37,2,1.18,1.18,0,0,0,1.12.67A1.1,1.1,0,0,0,334.89,102.92Z"/><path class="cls-8" d="M341.24,100.21c0,2.52-.7,3.77-2.08,3.77a1.68,1.68,0,0,1-1.56-.94,5.84,5.84,0,0,1-.53-2.84c0-2.51.7-3.77,2.09-3.77S341.24,97.69,341.24,100.21Zm-3.17-2.49a8.76,8.76,0,0,0,0,5,1.14,1.14,0,0,0,2.17,0,8.76,8.76,0,0,0,0-5,1.14,1.14,0,0,0-2.17,0Z"/><path class="cls-8" d="M410.58,100.79a1.82,1.82,0,0,1,.36,1.17,1.9,1.9,0,0,1-.6,1.48,2.23,2.23,0,0,1-1.57.54,2.17,2.17,0,0,1-1.56-.55,1.91,1.91,0,0,1-.57-1.45,2.08,2.08,0,0,1,1.45-2,2.26,2.26,0,0,1-.89-.69,1.64,1.64,0,0,1-.28-1,1.87,1.87,0,0,1,.26-1,1.62,1.62,0,0,1,.68-.62,2.11,2.11,0,0,1,.93-.21,2.25,2.25,0,0,1,.93.2,1.76,1.76,0,0,1,.69.61,1.86,1.86,0,0,1,.25,1,1.61,1.61,0,0,1-.29,1,2.64,2.64,0,0,1-.93.76A2.87,2.87,0,0,1,410.58,100.79Zm-.68,2.3a1.48,1.48,0,0,0,.41-1.12,1.45,1.45,0,0,0-.31-1,3.06,3.06,0,0,0-1.13-.68l-.34-.15a2.27,2.27,0,0,0-1,.74,1.86,1.86,0,0,0-.31,1.11,1.46,1.46,0,0,0,.41,1.11,1.57,1.57,0,0,0,1.11.38A1.62,1.62,0,0,0,409.9,103.09Zm-2.11-4a2.37,2.37,0,0,0,.94.59l.3.14a2.5,2.5,0,0,0,.79-.69,1.53,1.53,0,0,0,.24-.87,1.39,1.39,0,0,0-.34-1,1.41,1.41,0,0,0-1.85,0,1.37,1.37,0,0,0-.34,1A1.18,1.18,0,0,0,407.79,99.09Z"/><path class="cls-8" d="M416.33,100.21c0,2.52-.69,3.77-2.08,3.77a1.68,1.68,0,0,1-1.56-.94,5.84,5.84,0,0,1-.53-2.84c0-2.51.7-3.77,2.09-3.77S416.33,97.69,416.33,100.21Zm-3.17-2.49a8.76,8.76,0,0,0,0,5,1.14,1.14,0,0,0,2.17,0,8.76,8.76,0,0,0,0-5,1.15,1.15,0,0,0-1.08-.78A1.17,1.17,0,0,0,413.16,97.72Z"/><path class="cls-8" d="M421,103.72a1.06,1.06,0,0,1-.25-.76V95.77l.62-.08V103c0,.34.13.51.41.51a.85.85,0,0,0,.35-.08l.16.45a1.23,1.23,0,0,1-.61.15A.89.89,0,0,1,421,103.72Z"/><path class="cls-8" d="M427.32,101.23h-3.47a2.91,2.91,0,0,0,.47,1.69,1.39,1.39,0,0,0,1.14.54,1.81,1.81,0,0,0,.72-.14,2.25,2.25,0,0,0,.65-.41l.31.38a3,3,0,0,1-.8.52,2.19,2.19,0,0,1-.9.17,1.92,1.92,0,0,1-1.63-.77,3.44,3.44,0,0,1-.6-2.17,3.83,3.83,0,0,1,.57-2.24,1.79,1.79,0,0,1,1.55-.81,1.7,1.7,0,0,1,1.49.73,3.45,3.45,0,0,1,.52,2C427.34,100.93,427.33,101.09,427.32,101.23Zm-.59-.66a2.75,2.75,0,0,0-.35-1.53,1.15,1.15,0,0,0-1.05-.53,1.24,1.24,0,0,0-1,.54,3.1,3.1,0,0,0-.44,1.7h2.88Z"/><path class="cls-8" d="M431.34,103.62a1.83,1.83,0,0,1-1.1.36,1.22,1.22,0,0,1-.94-.36,1.41,1.41,0,0,1-.34-1v-4h-.87v-.51H429V96.74l.61-.08v1.45h1.33l-.07.51h-1.26v4c0,.58.25.88.74.88a1.46,1.46,0,0,0,.78-.25Z"/><line class="cls-9" x1="377.61" y1="111.7" x2="377.61" y2="113.7"/><line class="cls-9" x1="418.74" y1="111.7" x2="418.74" y2="113.7"/><line class="cls-9" x1="459.87" y1="111.7" x2="459.87" y2="113.7"/><line class="cls-9" x1="254.21" y1="111.7" x2="254.21" y2="113.7"/><line class="cls-9" x1="213.08" y1="111.7" x2="213.08" y2="113.7"/><line class="cls-9" x1="130.81" y1="111.7" x2="130.81" y2="113.7"/><line class="cls-9" x1="336.48" y1="111.7" x2="336.48" y2="113.7"/><line class="cls-9" x1="295.34" y1="111.7" x2="295.34" y2="113.7"/><line class="cls-9" x1="171.95" y1="111.7" x2="171.95" y2="113.7"/><line class="cls-9" x1="89.68" y1="111.7" x2="89.68" y2="113.7"/></svg>